<svg width="58" height="16" viewBox="0 0 58 16" fill="none" xmlns="http://www.w3.org/2000/svg">
<path d="M44.5199 9.60573C44.3235 9.72737 44.1162 9.83138 43.8987 9.92092C43.6058 10.0367 43.3299 10.0977 43.0738 10.0977C42.6798 10.0977 42.3772 10.0417 42.173 9.92544C41.9684 9.81465 41.8613 9.62156 41.8645 9.34571C41.8645 9.02781 41.94 8.77955 42.0931 8.58556C42.2499 8.39925 42.4811 8.24867 42.7685 8.13697C43.0549 8.04065 43.4062 7.96332 43.8109 7.90725C44.1727 7.86248 44.8859 7.78109 44.9765 7.78063C45.068 7.78063 45.1291 7.73089 45.0886 7.9692C45.0703 8.07276 44.8638 8.90527 44.7691 9.2824C44.7415 9.39636 44.5889 9.56186 44.519 9.60573H44.5199ZM47.3201 3.7619C46.7187 3.43224 45.7793 3.26538 44.4923 3.26538C43.8569 3.26538 43.2186 3.31557 42.5768 3.4137C42.1055 3.48379 42.0581 3.496 41.7652 3.5575C41.1638 3.68729 41.07 4.27967 41.07 4.27967L40.8778 5.06108C40.7683 5.56031 41.0571 5.53951 41.1859 5.50153C41.4489 5.4233 41.591 5.34461 42.1276 5.22568C42.6398 5.11263 43.1805 5.02581 43.6113 5.02943C44.2449 5.02943 44.7268 5.09816 45.0473 5.2293C45.3664 5.36722 45.526 5.60011 45.526 5.93474C45.5278 6.01433 45.5291 6.08894 45.5002 6.15541C45.4735 6.21646 45.4234 6.27615 45.2707 6.29605C44.3681 6.34805 43.7194 6.42945 42.9372 6.54205C42.168 6.64832 41.4926 6.83101 40.9288 7.08469C40.3279 7.34652 39.8787 7.69743 39.5683 8.14194C39.2671 8.58827 39.1154 9.12956 39.114 9.76626C39.114 10.3686 39.3333 10.8601 39.7596 11.2413C40.1909 11.6176 40.7513 11.8039 41.4291 11.8039C41.8521 11.8007 42.1841 11.7704 42.4209 11.7121C42.6559 11.6542 42.9129 11.5715 43.1837 11.4561C43.3856 11.3725 43.6049 11.2527 43.8348 11.1012C44.0661 10.9497 44.2256 10.8421 44.4316 10.7091L44.439 10.7218L44.381 10.9727C44.3801 10.975 44.3769 10.9764 44.3769 10.9777L44.3792 10.9831C44.3121 11.2848 44.4983 11.5353 44.8013 11.5665L44.8054 11.571H44.8316L44.8339 11.5728C45.0353 11.5728 45.7273 11.5728 46.0515 11.571H46.2763C46.291 11.571 46.2933 11.5665 46.2989 11.562C46.6083 11.5253 46.9063 11.2766 46.9771 10.9773L48.1325 6.07402C48.1578 5.95825 48.1795 5.82576 48.1914 5.67156C48.2061 5.51645 48.2236 5.38983 48.219 5.29668C48.2208 4.60345 47.9178 4.0902 47.3196 3.76009L47.3201 3.7619Z" fill="#336699"/>
<path d="M27.4406 3.37329C27.1036 3.37329 26.6575 3.64371 26.4474 3.96975C26.4474 3.96975 24.1796 7.79268 23.9571 8.17434C23.8362 8.38009 23.7134 8.24941 23.6918 8.17343C23.6766 8.08028 22.9915 3.99507 22.9915 3.99507C22.9134 3.66632 22.5639 3.38369 22.1271 3.38505L20.7146 3.38731C20.3725 3.38731 20.1596 3.65502 20.2355 3.9797C20.2355 3.9797 21.3165 10.0044 21.5275 11.4207C21.6323 12.2035 21.517 12.3437 21.517 12.3437L20.1155 14.7462C19.9099 15.0714 20.023 15.3386 20.3624 15.3386L22.0007 15.3372C22.3395 15.3372 22.7888 15.0718 22.992 14.7458L29.2936 4.26187C29.2936 4.26187 29.8964 3.36651 29.34 3.37374C28.9621 3.38053 27.4406 3.37374 27.4406 3.37374V3.37329Z" fill="#003366"/>
<path d="M10.9614 2.39346C10.7642 2.01632 10.4699 1.71018 10.0933 1.47911C9.7034 1.2417 9.24866 1.0789 8.71989 0.979872C8.18698 0.886718 7.56579 0.841048 6.85172 0.834717L3.54942 0.836525C3.20549 0.841047 2.86985 1.10468 2.7903 1.42936L0.563505 10.9523C0.485798 11.277 0.700521 11.5465 1.04261 11.5465H2.62663C2.96735 11.5465 3.30756 11.2842 3.38297 10.9523L3.92831 8.64065C4.00096 8.31823 4.3403 8.04962 4.68285 8.04962H5.13484C7.07014 8.04827 8.57091 7.65892 9.64914 6.87977C10.7269 6.10289 11.2649 5.07186 11.263 3.7962C11.2653 3.23682 11.1669 2.76834 10.9619 2.39391L10.9614 2.39346ZM7.54466 5.50553C7.06646 5.8483 6.40616 6.02059 5.54771 6.02059H5.15967C4.81804 6.02059 4.6019 5.75379 4.67822 5.42549L5.15459 3.4073C5.22632 3.08262 5.56703 2.81175 5.90958 2.81582L6.42731 2.8122C7.03194 2.8122 7.49129 2.9135 7.80258 3.11699C8.10742 3.31324 8.26329 3.62481 8.25685 4.0431C8.26605 4.67302 8.02285 5.16004 7.54466 5.50553Z" fill="#003366"/>
<path d="M39.686 2.42726C39.4887 2.05103 39.1917 1.7467 38.8151 1.51064C38.4289 1.27369 37.9705 1.10954 37.4394 1.01367C36.9143 0.922781 36.2889 0.870777 35.5786 0.869873L32.268 0.870778C31.9268 0.876657 31.593 1.14074 31.5139 1.46452L29.2894 10.9888C29.208 11.3131 29.4283 11.5835 29.7635 11.5812L31.3521 11.579C31.6882 11.5812 32.0317 11.3131 32.1117 10.9888L32.6483 8.67852C32.7232 8.35475 33.0662 8.08297 33.4083 8.08749H33.8594C35.7974 8.08749 37.3001 7.69634 38.3755 6.91674C39.4487 6.13262 39.9871 5.10657 39.9871 3.82909C39.9844 3.27107 39.8878 2.80123 39.6855 2.42726H39.686ZM36.2715 5.54295C35.7974 5.88165 35.1326 6.05258 34.2755 6.05258H33.8824C33.5412 6.05574 33.3219 5.78488 33.4019 5.4611L33.8768 3.43929C33.9476 3.11868 34.2934 2.84691 34.6291 2.85052L35.1482 2.84691C35.7565 2.85053 36.2108 2.95091 36.5244 3.14762C36.8324 3.34976 36.981 3.66132 36.9837 4.07645C36.9851 4.70908 36.7469 5.19656 36.2715 5.54295Z" fill="#336699"/>
<path d="M15.7883 9.59882C15.592 9.72046 15.3846 9.82357 15.1662 9.91355C14.8747 10.0284 14.5965 10.0895 14.3408 10.0895C13.9491 10.0895 13.6456 10.0352 13.441 9.91808C13.2373 9.80774 13.1297 9.61374 13.1325 9.33835C13.1325 9.0191 13.2079 8.77265 13.3633 8.5782C13.5187 8.39144 13.7491 8.2413 14.0364 8.12961C14.3229 8.03374 14.6756 7.95687 15.0802 7.89944C15.4411 7.85467 16.1547 7.77508 16.2467 7.77327C16.3368 7.77327 16.398 7.72353 16.3575 7.96184C16.3391 8.0663 16.134 8.89791 16.0389 9.27595C16.0108 9.3899 15.8577 9.5545 15.7887 9.59927L15.7883 9.59882ZM18.5866 3.75409C17.9861 3.42443 17.0467 3.25757 15.7611 3.25757C15.1257 3.25757 14.4866 3.30686 13.8447 3.40544C13.3734 3.47644 13.3265 3.4891 13.0331 3.5506C12.4322 3.68038 12.3393 4.27186 12.3393 4.27186L12.1457 5.05282C12.0358 5.55386 12.3264 5.5326 12.4556 5.49326C12.7168 5.41594 12.8603 5.33906 13.3955 5.21923C13.9063 5.10437 14.448 5.01936 14.8802 5.02252C15.5133 5.02252 15.9947 5.09035 16.3152 5.22149C16.6353 5.35941 16.7929 5.5941 16.7929 5.92783C16.7952 6.00787 16.7971 6.08339 16.7681 6.1476C16.7419 6.21001 16.6913 6.26925 16.5396 6.28869C15.6366 6.3425 14.9891 6.42345 14.2056 6.53469C13.4345 6.64186 12.7609 6.82455 12.1972 7.07779C11.5958 7.34006 11.1475 7.69097 10.8371 8.13594C10.5346 8.58227 10.3833 9.1231 10.3833 9.75981C10.3833 10.3626 10.6031 10.8532 11.0284 11.2344C11.4597 11.6107 12.0202 11.7974 12.697 11.7974C13.1219 11.7943 13.4516 11.7635 13.6907 11.7056C13.9247 11.6464 14.1817 11.5641 14.4521 11.4492C14.6553 11.3656 14.8733 11.2453 15.1041 11.0947C15.3349 10.9437 15.4959 10.8356 15.7005 10.7036L15.7073 10.7158L15.6494 10.9658C15.6494 10.969 15.6462 10.9704 15.6462 10.9735L15.6485 10.9771C15.5818 11.2797 15.7662 11.5302 16.0697 11.5591L16.0733 11.5645H16.1005L16.1014 11.5682C16.3037 11.5682 16.9952 11.5659 17.3185 11.5645H17.5447C17.5603 11.5645 17.5622 11.56 17.5672 11.5564C17.8771 11.5175 18.1746 11.2711 18.2455 10.9735L19.4009 6.06756C19.4267 5.95361 19.4488 5.81975 19.4598 5.66601C19.4754 5.51135 19.4924 5.38383 19.4869 5.29203C19.4901 4.59745 19.1862 4.08465 18.5871 3.75454L18.5866 3.75409Z" fill="#003366"/>
<path d="M52.7742 0.948242H51.3584C51.3575 0.948242 51.3575 0.948242 51.3562 0.948242H51.3552C51.037 0.948242 50.7203 1.1852 50.6205 1.48817C50.614 1.50671 50.6011 1.52254 50.5965 1.54108C50.5965 1.54108 50.5681 1.66996 50.5189 1.89064L48.5647 10.6037C48.5169 10.8103 48.4856 10.9451 48.4759 10.9795L48.4801 10.9858C48.4144 11.2861 48.5982 11.5289 48.8971 11.5606L48.9063 11.5732H50.3754C50.695 11.5732 51.015 11.3317 51.1115 11.0292C51.117 11.012 51.1295 10.998 51.1336 10.9799L53.2556 1.54108L53.2523 1.53927C53.3232 1.2173 53.1131 0.948695 52.7737 0.948695L52.7742 0.948242Z" fill="#336699"/>
<path d="M54.922 2.86959C54.8732 2.88315 54.8213 2.89355 54.7638 2.89988C54.7058 2.90983 54.6543 2.91345 54.6102 2.91345C54.4525 2.91345 54.3325 2.87185 54.2516 2.78909C54.1702 2.70544 54.1292 2.57249 54.1292 2.38889V1.58397H53.9531V1.36963H54.1292V0.935059H54.3877V1.36963H54.922V1.58397H54.3877V2.27403C54.3877 2.35317 54.3909 2.41512 54.3927 2.45989C54.3969 2.50511 54.4093 2.54626 54.4318 2.5856C54.452 2.62223 54.4796 2.64801 54.5155 2.66519C54.5509 2.68192 54.6051 2.68961 54.6778 2.68961C54.7201 2.68961 54.7642 2.68283 54.8098 2.67107C54.8553 2.65976 54.8893 2.64846 54.9095 2.64032H54.9224V2.86914L54.922 2.86959Z" fill="#336699"/>
<path d="M57.4839 2.88454H57.2237V2.02128C57.2237 1.95752 57.2219 1.89376 57.215 1.83316C57.209 1.77257 57.1966 1.72418 57.1768 1.68756C57.1556 1.64912 57.1262 1.61973 57.0857 1.60028C57.0462 1.58038 56.9892 1.56998 56.9156 1.56998C56.8425 1.56998 56.7708 1.58807 56.6981 1.62425C56.625 1.65861 56.5533 1.70474 56.4807 1.75991C56.4825 1.78071 56.4843 1.80468 56.4857 1.83226C56.488 1.8603 56.4894 1.88698 56.4894 1.91366V2.88499H56.2305V2.02174C56.2305 1.95571 56.2264 1.8915 56.2213 1.83181C56.2149 1.77076 56.2015 1.72283 56.1831 1.68801C56.1615 1.64867 56.1316 1.61973 56.0916 1.59938C56.0516 1.58084 55.996 1.57043 55.9215 1.57043C55.8503 1.57043 55.7794 1.58762 55.7073 1.62244C55.6369 1.6559 55.5666 1.69977 55.4944 1.75313V2.88499H55.236V1.37011H55.4944V1.53697C55.5762 1.47185 55.6567 1.41985 55.7376 1.38322C55.8176 1.34659 55.9022 1.32715 55.9946 1.32715C56.0986 1.32715 56.1882 1.34885 56.2609 1.39272C56.334 1.43613 56.3882 1.49582 56.425 1.5736C56.5284 1.48632 56.625 1.42302 56.711 1.38503C56.7979 1.34705 56.8903 1.32715 56.9873 1.32715C57.1575 1.32715 57.2821 1.3787 57.3635 1.47864C57.443 1.57993 57.4844 1.72147 57.4844 1.901V2.88499L57.4839 2.88454Z" fill="#336699"/>
</svg>
