<svg width="77" height="29" viewBox="0 0 77 29" fill="none" xmlns="http://www.w3.org/2000/svg">
<path d="M20.3981 13.1212V12.1734L19.9365 13.1212H15.945L15.4447 12.1038V13.1212H7.98445L7.10118 11.0691H5.60773L4.67524 13.1212H0.803711V6.92651L3.64118 0.616455H9.07001L9.83192 2.40447V0.629568H16.4737L17.9341 3.64034L19.3613 0.616906H40.3249C40.3249 0.616906 41.4248 0.601984 42.1467 1.10212L42.1444 0.616906H47.4238V1.30019C47.4238 1.30019 48.3728 0.616906 49.7771 0.616906C51.1818 0.616906 59.0963 0.616906 59.0963 0.616906L59.9152 2.43115V0.616906H65.8871L66.9699 2.43115V0.616906H72.6802V13.1335H66.815L65.4365 10.9516V13.1217H58.1473L57.121 10.8869H55.6933L54.73 13.1217H50.3187C50.3187 13.1217 48.674 13.1013 47.4404 12.2327C47.4404 12.6876 47.4404 13.1217 47.4404 13.1217H38.6568C38.6568 13.1217 38.6568 10.6264 38.6568 10.2018C38.6568 9.77765 38.3258 9.80704 38.3258 9.80704H38.0052V13.1217H20.3972L20.3981 13.1212Z" fill="white"/>
<path d="M16.0163 15.8315H27.5578L29.2218 17.686L30.9258 15.8315H39.7999C39.7999 15.8315 40.6331 15.8519 41.4258 16.267V15.8315C41.4258 15.8315 48.3242 15.8315 49.3261 15.8315C50.3293 15.8315 51.1722 16.3244 51.1722 16.3244V15.8315H61.3301V16.2856C61.3301 16.2856 62.0515 15.8315 63.0249 15.8315C63.996 15.8315 69.6423 15.8315 69.6423 15.8315V16.2856C69.6423 16.2856 70.4746 15.8315 71.3565 15.8315C72.2388 15.8315 76.5508 15.8315 76.5508 15.8315V27.6259C76.5508 27.6259 75.8689 28.3861 74.4555 28.3861H67.6054V28.0112C67.6054 28.0112 66.9544 28.3861 65.9617 28.3861C64.9694 28.3861 47.7664 28.3861 47.7664 28.3861C47.7664 28.3861 47.7664 25.6398 47.7664 25.3378C47.7664 25.0375 47.6322 24.9832 47.3614 24.9832H47.1099V28.3861H41.4254V25.0045C41.4254 25.0045 40.7936 25.3378 39.7402 25.3378C38.6863 25.3378 37.6941 25.3378 37.6941 25.3378V28.3861H30.6853L29.0903 26.4733L27.3863 28.3861H16.0154V15.8315H16.0163Z" fill="white"/>
<path d="M52.3914 17.7136H59.6337V19.6237H54.6076V21.2901H59.493V22.9728H54.6076V24.7246H59.6337V26.5881H52.3914V17.7136Z" fill="#007AA7"/>
<path d="M73.6255 21.1718C76.3485 21.3093 76.5752 22.6465 76.5752 24.0732C76.5752 25.735 75.1847 26.629 73.7363 26.629H69.0822V24.7257H72.7082C73.3225 24.7257 74.2389 24.7257 74.2389 23.8737C74.2389 23.4695 74.078 23.2117 73.4223 23.1439C73.1326 23.1023 72.0548 23.0435 71.892 23.0399C69.4325 22.9766 68.8601 21.7732 68.8601 20.3086C68.8601 18.6449 70.0492 17.7346 71.5003 17.7346H76.1545V19.6366H72.7482C71.9739 19.6443 71.1384 19.5466 71.1384 20.4076C71.1384 20.952 71.5495 21.0615 72.0737 21.1112C72.2558 21.1112 73.4632 21.1732 73.6255 21.1718Z" fill="#007AA7"/>
<path d="M65.2846 21.1718C68.0076 21.3093 68.2357 22.6465 68.2357 24.0732C68.2357 25.735 66.8461 26.629 65.3954 26.629H60.7422V24.7257H64.3687C64.983 24.7257 65.8998 24.7257 65.8998 23.8737C65.8998 23.4695 65.7384 23.2117 65.0837 23.1439C64.7917 23.1023 63.7139 23.0435 63.5525 23.0399C61.0931 22.9766 60.522 21.7732 60.522 20.3086C60.522 18.6449 61.7092 17.7346 63.1604 17.7346H67.814V19.6366H64.4096C63.6335 19.6443 62.798 19.5466 62.798 20.4076C62.798 20.952 63.2109 21.0615 63.7351 21.1112C63.9158 21.1112 65.1251 21.1732 65.2851 21.1718H65.2846Z" fill="#007AA7"/>
<path d="M38.2714 21.7681H35.5117V19.6378H38.2788C39.2057 19.6378 39.4991 20.222 39.4991 20.6584C39.4991 21.2535 39.1772 21.7681 38.271 21.7681H38.2714ZM33.2761 25.7561L30.0934 22.0516L33.2761 18.5851V25.7561ZM24.8061 24.7251H19.7005V22.9728H24.585V21.2901H19.7005V19.6238L25.0875 19.636L27.2445 22.0516L24.8061 24.7251ZM39.0158 17.7331H31.2415L28.703 20.487L26.2467 17.7141H17.5142V26.5886H25.9653L28.6229 23.6565L31.2218 26.6099H35.4721V23.5964H38.4526C39.6016 23.5964 41.6965 23.5584 41.6965 20.4472C41.6965 18.2287 40.1046 17.7336 39.0158 17.7336V17.7331Z" fill="#007AA7"/>
<path d="M47.805 21.6484H45.0466V19.6375H47.8151C48.742 19.6375 49.0331 20.2217 49.0331 20.6581C49.0331 21.2514 48.7117 21.6484 47.805 21.6484ZM49.7182 22.5668C50.927 21.9735 51.2493 21.1808 51.2493 20.11C51.2493 18.2098 49.6791 17.7341 48.5898 17.7341H42.8308V26.6095H45.0466V23.4776H47.9471C48.7126 23.4776 49.0147 24.2305 49.0336 24.9834L49.0947 26.6091H51.2498L51.1689 24.7858C51.1689 23.3577 50.767 22.6844 49.7186 22.5664L49.7182 22.5668Z" fill="#007AA7"/>
<path d="M43.7183 11.2784H45.9336V2.39307H43.7183V11.2784Z" fill="#007AA7"/>
<path d="M25.5813 2.40381H32.8218V4.31392H27.7989V5.97984H32.682V7.66248H27.7989V9.41568H32.8218V11.2783H25.5813V2.40381Z" fill="#007AA7"/>
<path d="M39.1128 6.31763H36.3535V4.30668H39.1229C40.0494 4.30668 40.341 4.89138 40.341 5.32685C40.341 5.92195 40.02 6.31763 39.1128 6.31763ZM41.0265 7.23606C42.2353 6.64412 42.5577 5.85005 42.5577 4.77923C42.5577 2.87726 40.987 2.40381 39.8977 2.40381H34.1387V11.2779H36.3535V8.1486H39.2526C40.02 8.1486 40.3217 8.90017 40.341 9.65263L40.403 11.2779H42.5577L42.4772 9.45457C42.4772 8.02877 42.0744 7.35544 41.0265 7.23606Z" fill="#007AA7"/>
<path d="M4.86232 7.38215L6.1833 4.28094L7.55996 7.38215H4.86232ZM20.4725 2.4043L17.7537 8.35665L15.0436 2.4043H11.5699V10.9509L7.70203 2.4043H4.77126L0.822998 11.2783H3.16012L4.02408 9.29678H8.44646L9.32327 11.2783H13.7847V4.69154L16.7449 11.2783H18.7598L21.7912 4.80052V11.2783H24.007V2.4043H20.4721H20.4725Z" fill="#007AA7"/>
<path d="M55.1874 7.38673L56.5071 4.28416L57.8966 7.38673H55.1874ZM68.7957 2.39893V8.54392L65.0602 2.39893H61.786V10.7339L58.0106 2.4039H55.0789L52.0268 9.27785C52.0268 9.27785 50.738 9.27785 50.6079 9.24665C50.0722 9.13857 49.239 8.76821 49.2285 7.20359V6.55965C49.2285 4.47951 50.3775 4.32757 51.8493 4.32757H53.2172V2.39938H50.3241C49.3172 2.39938 47.1258 3.15546 47.0522 6.80113C47.0016 9.25795 48.09 11.2829 50.5458 11.2829H53.4673L54.3331 9.30181H58.7541L59.63 11.2829H64.0004V4.7843L67.9887 11.2829H71.0101V2.39938H68.7952L68.7957 2.39893Z" fill="#007AA7"/>
</svg>
