<svg width="59" height="19" viewBox="0 0 59 19" fill="none" xmlns="http://www.w3.org/2000/svg">
<path d="M25.8267 18.4015H21.1179L24.0616 0.611816H28.7718L25.8267 18.4015Z" fill="#0066B2"/>
<path d="M17.1558 0.611781L12.6663 12.8475L12.1348 10.2125V10.213L10.5498 2.21349C10.5498 2.21349 10.3599 0.611781 8.31659 0.611781H0.894029L0.807129 0.9134C0.807129 0.9134 3.07716 1.37646 5.73389 2.9456L9.82519 18.401H14.7317L22.2251 0.611328H17.1562L17.1558 0.611781Z" fill="#0066B2"/>
<path d="M49.0171 12.1091L51.4909 5.45036L52.8836 12.1091H49.0171ZM54.1996 18.401H58.524L54.7536 0.611328H50.9676C49.2195 0.611328 48.7932 1.93628 48.7932 1.93628L41.7698 18.401H46.6781L47.6603 15.7592H53.6469L54.1996 18.401Z" fill="#0066B2"/>
<path d="M42.1377 4.88969L42.8095 1.06948C42.8095 1.06948 40.7348 0.293945 38.5742 0.293945C36.2362 0.293945 30.6864 1.29829 30.6864 6.18344C30.6864 10.7801 37.2008 10.8366 37.2008 13.2496C37.2008 15.663 31.3581 15.232 29.4288 13.7099L28.729 17.7029C28.729 17.7029 30.8312 18.7086 34.0452 18.7086C37.2578 18.7086 42.1078 17.0716 42.1078 12.6183C42.1078 7.99271 35.5345 7.56086 35.5345 5.55036C35.5345 3.53896 40.1215 3.79762 42.1363 4.88969H42.1377Z" fill="#0066B2"/>
<path d="M12.1343 10.2135L10.5493 2.21401C10.5493 2.21401 10.3594 0.612305 8.3161 0.612305H0.893544L0.806641 0.913924C0.806641 0.913924 4.37515 1.64016 7.79652 4.36378C11.0685 6.96848 12.1338 10.2135 12.1338 10.2135H12.1343Z" fill="#F9A533"/>
</svg>
