<svg width="59" height="35" viewBox="0 0 59 35" fill="none" xmlns="http://www.w3.org/2000/svg">
<path fill-rule="evenodd" clip-rule="evenodd" d="M41.2411 34.5109L42.1327 34.4878L43.0146 34.4249L43.8781 34.3164L44.7352 34.1667L45.5692 33.9777L46.3923 33.748L47.1969 33.478L47.9855 33.1742L48.7552 32.8305L49.5023 32.457L50.2252 32.0432L50.9319 31.6018L51.6087 31.1261L52.2611 30.6206L52.8915 30.087L53.493 29.5194L54.07 28.9284L54.6126 28.3075L55.1271 27.6659L55.6108 26.9998L56.0605 26.3061L56.4784 25.5934L56.8582 24.859L57.2091 24.1025L57.5181 23.327L57.7916 22.5356L58.0266 21.7275L58.2183 20.9068L58.3696 20.0634L58.4804 19.2133L58.5457 18.3468L58.5678 17.4696L58.5457 16.5973L58.4804 15.7363L58.3696 14.8875L58.2183 14.055L58.0266 13.2351L57.7916 12.4316L57.5181 11.6398L57.2091 10.8706L56.8582 10.1199L56.4784 9.38418L56.0605 8.67919L55.6108 7.98551L55.1271 7.31941L54.6126 6.68226L54.07 6.06364L53.493 5.47216L52.8915 4.90962L52.2611 4.37557L51.6087 3.87091L50.9319 3.39474L50.2252 2.95248L49.5023 2.54595L48.7552 2.17334L47.9855 1.82785L47.1969 1.52397L46.3923 1.25446L45.5692 1.02474L44.7352 0.834813L43.8781 0.686943L43.0146 0.577509L42.1327 0.513748L41.2411 0.490234L40.3528 0.513748L39.4718 0.577509L38.6097 0.686943L37.7572 0.834813L36.9231 1.02474L36.1015 1.25446L35.3014 1.52397L34.5129 1.82785L33.7487 2.17334L33.0079 2.54595L32.2847 2.95248L31.5853 3.39474L30.9089 3.87091L30.2551 4.37557L29.6307 4.90962L29.0288 5.47216L28.4577 6.06364L27.9143 6.68226L27.4016 7.31941L26.9239 7.98551L26.4742 8.67919L26.0599 9.38418L25.6746 10.1199L25.3306 10.8706L25.0207 11.6398L24.7531 12.4316L24.5186 13.2351L24.3264 14.055L24.1752 14.8875L24.0653 15.7363L24 16.5973L23.9761 17.4696L24 18.3468L24.0653 19.2133L24.1752 20.0634L24.3264 20.9068L24.5186 21.7275L24.7531 22.5356L25.0207 23.327L25.3306 24.1025L25.6746 24.859L26.0599 25.5934L26.4742 26.3061L26.9239 26.9998L27.4016 27.6659L27.9143 28.3075L28.4577 28.9284L29.0288 29.5194L29.6307 30.087L30.2551 30.6206L30.9089 31.1261L31.5853 31.6018L32.2847 32.0432L33.0079 32.457L33.7487 32.8305L34.5129 33.1742L35.3014 33.478L36.1015 33.748L36.9231 33.9777L37.7572 34.1667L38.6097 34.3164L39.4718 34.4249L40.3528 34.4878L41.2411 34.5109Z" fill="#FBB231"/>
<path fill-rule="evenodd" clip-rule="evenodd" d="M18.1026 34.5109L18.9877 34.4878L19.8696 34.4249L20.7336 34.3164L21.5852 34.1667L22.4188 33.9777L23.2414 33.748L24.0414 33.478L24.8286 33.1742L25.5923 32.8305L26.3344 32.457L27.0572 32.0432L27.7571 31.6018L28.4348 31.1261L29.0882 30.6206L29.7117 30.087L30.3126 29.5194L30.8851 28.9284L31.4276 28.3075L31.9403 27.6659L32.4185 26.9998L32.8687 26.3061L33.2834 25.5934L33.6673 24.859L34.0117 24.1025L34.3216 23.327L34.5892 22.5356L34.8228 21.7275L35.0155 20.9068L35.1672 20.0634L35.2776 19.2133L35.3415 18.3468L35.3654 17.4696L35.3415 16.5973L35.2776 15.7363L35.1672 14.8875L35.0155 14.055L34.8228 13.2351L34.5892 12.4316L34.3216 11.6398L34.0117 10.8706L33.6673 10.1199L33.2834 9.38418L32.8687 8.67919L32.4185 7.98551L31.9403 7.31941L31.4276 6.68226L30.8851 6.06364L30.3126 5.47216L29.7117 4.90962L29.0882 4.37557L28.4348 3.87091L27.7571 3.39474L27.0572 2.95248L26.3344 2.54595L25.5923 2.17334L24.8286 1.82785L24.0414 1.52397L23.2414 1.25446L22.4188 1.02474L21.5852 0.834813L20.7336 0.686943L19.8696 0.577509L18.9877 0.513748L18.1026 0.490234L17.2088 0.513748L16.3287 0.577509L15.4643 0.686943L14.6058 0.834813L13.7722 1.02474L12.9496 1.25446L12.1441 1.52397L11.3574 1.82785L10.5872 2.17334L9.84002 2.54595L9.11676 2.95248L8.4105 3.39474L7.73413 3.87091L7.08076 4.37557L6.45037 4.90962L5.85033 5.47216L5.27236 6.06364L4.72979 6.68226L4.2162 7.31941L3.73203 7.98551L3.2828 8.67919L2.86255 9.38418L2.48368 10.1199L2.1333 10.8706L1.82432 11.6398L1.55074 12.4316L1.31716 13.2351L1.12404 14.055L0.972768 14.8875L0.861039 15.7363L0.797581 16.5973L0.773682 17.4696L0.797581 18.3468L0.861039 19.2133L0.972768 20.0634L1.12404 20.9068L1.31716 21.7275L1.55074 22.5356L1.82432 23.327L2.1333 24.1025L2.48368 24.859L2.86255 25.5934L3.2828 26.3061L3.73203 26.9998L4.2162 27.6659L4.72979 28.3075L5.27236 28.9284L5.85033 29.5194L6.45037 30.087L7.08076 30.6206L7.73413 31.1261L8.4105 31.6018L9.11676 32.0432L9.84002 32.457L10.5872 32.8305L11.3574 33.1742L12.1441 33.478L12.9496 33.748L13.7722 33.9777L14.6058 34.1667L15.4643 34.3164L16.3287 34.4249L17.2088 34.4878L18.1026 34.5109Z" fill="#EC1C2E"/>
<path fill-rule="evenodd" clip-rule="evenodd" d="M27.6467 7.01558H36.8358V6.09082H28.4403L27.6467 7.01558Z" fill="#FBB231"/>
<path fill-rule="evenodd" clip-rule="evenodd" d="M26.2695 9.06953H36.8357V8.14478H26.8236L26.2695 9.06953Z" fill="#FBB231"/>
<path fill-rule="evenodd" clip-rule="evenodd" d="M25.2432 11.1179H36.8356V10.1931H25.6515L25.2432 11.1179Z" fill="#FBB231"/>
<path fill-rule="evenodd" clip-rule="evenodd" d="M24.5371 13.1715H36.8358V12.2485H24.8286L24.5371 13.1715Z" fill="#FBB231"/>
<path fill-rule="evenodd" clip-rule="evenodd" d="M24.9462 23.0986H36.8647V22.1743H24.6533L24.9462 23.0986Z" fill="#FBB231"/>
<path fill-rule="evenodd" clip-rule="evenodd" d="M25.8264 25.1526H36.8648V24.2288H25.3887L25.8264 25.1526Z" fill="#FBB231"/>
<path fill-rule="evenodd" clip-rule="evenodd" d="M27.0617 27.201H36.8647V26.2771H26.4741L27.0617 27.201Z" fill="#FBB231"/>
<path fill-rule="evenodd" clip-rule="evenodd" d="M28.7667 29.2545H36.8647V28.3252H27.9441L28.7667 29.2545Z" fill="#FBB231"/>
<path fill-rule="evenodd" clip-rule="evenodd" d="M24.1228 15.2198H36.8358V14.2964H24.3035L24.1228 15.2198Z" fill="#FBB231"/>
<path fill-rule="evenodd" clip-rule="evenodd" d="M31.8704 21.05H36.7185V20.1257H32.0455L31.8704 21.05Z" fill="#FBB231"/>
<path fill-rule="evenodd" clip-rule="evenodd" d="M32.2561 19.0013H36.7185V18.072H32.4304L32.2561 19.0013Z" fill="#FBB231"/>
<path fill-rule="evenodd" clip-rule="evenodd" d="M23.8018 18.072H25.063V19.0013H23.8611L23.8018 18.072Z" fill="#FBB231"/>
<path fill-rule="evenodd" clip-rule="evenodd" d="M21.4499 16.9527L21.3685 16.9464L21.2876 16.9356L21.2113 16.9247L21.1363 16.9134L21.0655 16.9016L20.9896 16.8899L20.9147 16.8795L20.8319 16.8664L20.751 16.856L20.6572 16.8496L20.5519 16.8438L20.442 16.8374H20.3192L20.1845 16.8438L20.0323 16.856L19.864 16.8664L19.7472 16.8845L19.6364 16.9016L19.5367 16.9356L19.4498 16.9699L19.3675 17.0102L19.293 17.0563L19.2332 17.1146L19.1799 17.1657L19.1458 17.2286L19.1169 17.2919L19.1044 17.3602V17.4294L19.1224 17.5044L19.1458 17.5786L19.1923 17.6532L19.2507 17.7283L19.3675 17.8363L19.5082 17.9223L19.6714 17.9973L19.8466 18.0602L20.0323 18.1185L20.2245 18.1805L20.4172 18.2506L20.6043 18.3247L20.7795 18.422L20.9432 18.5422L21.0885 18.6865L21.2113 18.8642L21.3041 19.0817L21.3634 19.3395L21.386 19.6501L21.3634 20.0119L21.3225 20.2814L21.2522 20.5166L21.1584 20.7341L21.0425 20.9235L20.9087 21.0904L20.7556 21.2333L20.5924 21.3595L20.413 21.4689L20.2245 21.5553L20.0323 21.6294L19.8341 21.6869L19.6305 21.7325L19.4314 21.7678L19.2401 21.7841L19.0479 21.7963L18.8663 21.8008H18.6143L18.3816 21.7963H18.177L17.9848 21.7909L17.8096 21.7841L17.6529 21.7728L17.5131 21.7615L17.3784 21.7443L17.2556 21.7325L17.1452 21.7104L17.034 21.6923L16.9351 21.6638L16.8349 21.6407L16.7429 21.6059L16.6491 21.5725L16.5498 21.5376L16.8119 20.2697L16.8648 20.2814L16.9278 20.299L17.0101 20.3208L17.1103 20.3452L17.2147 20.3669L17.3315 20.3904L17.4597 20.4184L17.5991 20.4419L17.7457 20.4646L17.8979 20.4876L18.0547 20.5048L18.2184 20.522L18.3867 20.5274L18.5577 20.5333H18.7251L18.8948 20.5274L19.0649 20.493L19.1992 20.4474L19.3031 20.3845L19.3849 20.3045L19.4438 20.2231L19.4907 20.1308L19.5201 20.0404L19.5426 19.9545L19.5551 19.7872L19.5026 19.6438L19.4024 19.5285L19.2566 19.4322L19.0815 19.3458L18.8778 19.2594L18.6506 19.1789L18.423 19.0871L18.189 18.984L17.9678 18.8642L17.7637 18.7145L17.5765 18.5368L17.4308 18.3184L17.326 18.0602L17.2731 17.7509L17.2786 17.3841L17.3085 17.1598L17.3499 16.9464L17.4073 16.7524L17.4768 16.5688L17.5706 16.397L17.6759 16.2473L17.7991 16.1035L17.9448 15.9782L18.1145 15.8693L18.3007 15.777L18.5095 15.6906L18.7435 15.6282L19.007 15.5753L19.293 15.536L19.6065 15.5125L19.9523 15.5066H20.1666L20.3652 15.5125L20.5464 15.5193L20.7096 15.5247L20.8554 15.536L20.9896 15.5473L21.106 15.5586L21.2113 15.5708L21.3106 15.5812L21.3929 15.5984L21.4683 15.6111L21.5386 15.6219L21.597 15.6328L21.6494 15.6395L21.7009 15.6508L21.7478 15.6567L21.4499 16.9527Z" fill="white"/>
<path fill-rule="evenodd" clip-rule="evenodd" d="M22.8329 14.2395H24.45L24.2105 15.6282H25.1848L24.9742 16.9247L23.947 16.8957L23.3879 20.0969L23.3819 20.2118L23.4104 20.3103L23.4693 20.3845L23.5456 20.4474L23.6504 20.4876L23.7668 20.522L23.8946 20.5446L24.0348 20.5568L24.1631 20.5514L24.2794 20.5391L24.3856 20.522L24.4785 20.4994L24.5549 20.4758L24.6068 20.4591L24.6422 20.4474L24.6533 20.4419L24.45 21.5091L24.4086 21.5376L24.3677 21.5607L24.3263 21.5833L24.2863 21.6059L24.245 21.6235L24.1981 21.6407L24.1466 21.6579L24.0932 21.6755L24.0348 21.6923L23.976 21.704L23.907 21.7153L23.8376 21.7275L23.7612 21.7388L23.6734 21.7506L23.5792 21.7615L23.4803 21.7728H23.0366L22.803 21.7556L22.5993 21.7325L22.4136 21.699L22.2559 21.6579L22.1207 21.6059L22.0103 21.5498L21.9115 21.4806L21.8356 21.4056L21.7772 21.3255L21.7354 21.2279L21.7069 21.1297L21.6894 21.0216L21.6843 20.9005V20.7743L21.7009 20.6427L21.7193 20.4994L22.8329 14.2395Z" fill="white"/>
<path fill-rule="evenodd" clip-rule="evenodd" d="M40.3882 15.972L40.3128 15.9322L40.2374 15.8974L40.1546 15.8571L40.0673 15.8164L39.9795 15.7825L39.8815 15.7486L39.7817 15.7138L39.6778 15.6799L39.5666 15.6509L39.4539 15.6283L39.333 15.6048L39.2107 15.5876L39.0759 15.5754L38.9426 15.565H38.5104L38.3582 15.5754L38.2005 15.5935L38.0377 15.622L37.874 15.6672L37.7108 15.731L37.548 15.8114L37.3834 15.9141L37.2266 16.0412L37.074 16.1899L36.9278 16.3735L36.7894 16.5861L36.6606 16.8375L36.5383 17.1251L36.4275 17.4475L36.3346 17.8143L36.2983 18.02L36.2762 18.2208L36.2638 18.422L36.2707 18.6169L36.2868 18.8123L36.3277 18.9959L36.3806 19.1682L36.4445 19.3395L36.5319 19.4955L36.6367 19.6439L36.7604 19.7759L36.9002 19.8967L37.057 20.0007L37.2377 20.0857L37.4368 20.1607L37.6584 20.2118L37.7343 20.2286L37.8225 20.2462L37.9278 20.258L38.0437 20.2697L38.1715 20.2815H38.4511L38.5978 20.2697L38.7495 20.2521L38.9008 20.2231L39.0465 20.1833L39.1932 20.1381L39.338 20.0744L39.4718 20.0007L39.5951 19.9084L39.7118 19.8053L39.4502 21.3374L39.4144 21.3654L39.3794 21.4002L39.333 21.4414L39.2806 21.4735L39.2166 21.5201L39.1343 21.5608L39.0406 21.6006L38.9362 21.6345L38.8014 21.6756L38.6502 21.7041L38.4759 21.7276L38.2704 21.7507L38.0437 21.7615L37.7802 21.7679L37.4841 21.7615L37.1563 21.7444L36.8878 21.7154L36.6197 21.658L36.3512 21.5725L36.0831 21.4572L35.8266 21.3202L35.5806 21.147L35.3484 20.9467L35.1323 20.7179L34.9387 20.4592L34.7764 20.1729L34.6357 19.8514L34.5318 19.501L34.4614 19.1166L34.4375 18.7092L34.4499 18.2619L34.5129 17.7849L34.5607 17.5506L34.6118 17.3209L34.6711 17.0971L34.7304 16.8845L34.7925 16.6837L34.8688 16.4834L34.9456 16.2935L35.027 16.1158L35.1157 15.9376L35.2021 15.7712L35.3015 15.6111L35.4054 15.4619L35.5116 15.3176L35.6279 15.1806L35.7442 15.0545L35.867 14.9337L36.0008 14.8184L36.1355 14.7099L36.2762 14.6122L36.422 14.5199L36.5788 14.434L36.7365 14.3608L36.9002 14.2911L37.0689 14.2274L37.2505 14.1704L37.4299 14.1247L37.6175 14.084L37.8161 14.0497L38.0138 14.0203L38.2235 13.9986L38.4345 13.9873L38.6557 13.9805L38.8442 13.9873L39.024 13.9986L39.1992 14.0157L39.3734 14.0388L39.5371 14.0614L39.6948 14.0953L39.8461 14.1247L39.9859 14.1586L40.1206 14.193L40.2374 14.2274L40.3487 14.2622L40.4411 14.2966L40.5234 14.325L40.5928 14.3486L40.6452 14.3712L40.6806 14.3834L40.3882 15.972Z" fill="white"/>
<path fill-rule="evenodd" clip-rule="evenodd" d="M54.7523 21.7729H53.1361L53.2538 21.1366V21.0783L53.16 21.1941L53.0597 21.2962L52.9613 21.3885L52.857 21.469L52.7517 21.5441L52.6464 21.606L52.5411 21.658L52.4307 21.7105L52.3199 21.7507L52.2091 21.7792L52.0978 21.8068L51.9811 21.824L51.8656 21.8416L51.7539 21.8534L51.638 21.8592H51.5213L51.2178 21.8357L50.9373 21.7729L50.6803 21.6756L50.4467 21.5441L50.2366 21.3772L50.0503 21.1827L49.8862 20.9693L49.7464 20.7287L49.631 20.4696L49.5372 20.2015L49.4728 19.9202L49.426 19.6272L49.4089 19.3346L49.4145 19.0366L49.4429 18.7431L49.4963 18.4514L49.5837 18.1114L49.688 17.7912L49.8117 17.4982L49.957 17.2233L50.1078 16.9646L50.2835 16.7349L50.4637 16.5291L50.6573 16.3396L50.861 16.1723L51.0771 16.0294L51.2992 15.9033L51.5213 15.806L51.7539 15.7251L51.987 15.674L52.2197 15.6396L52.4588 15.6283L52.6294 15.6329L52.7921 15.6509L52.9448 15.6799L53.0836 15.7197L53.2184 15.7658L53.3356 15.8164L53.4519 15.8807L53.5572 15.9435L53.6501 16.0118L53.737 16.0873L53.8129 16.161L53.8828 16.2361L53.9416 16.3112L53.9945 16.3849L54.0414 16.4545L54.0754 16.5232L54.4851 14.2686H56.0714L54.7523 21.7729Z" fill="white"/>
<path fill-rule="evenodd" clip-rule="evenodd" d="M52.109 20.3846L52.2731 20.3733L52.4244 20.3389L52.5651 20.2991L52.6994 20.2358L52.8217 20.1675L52.9384 20.0798L53.0493 19.9835L53.1486 19.879L53.235 19.7646L53.3178 19.6385L53.3927 19.5064L53.458 19.3694L53.5159 19.2247L53.5628 19.0759L53.6033 18.9208L53.6327 18.7671L53.6612 18.6065L53.6792 18.4401V18.2837L53.6741 18.1245L53.6562 17.9744L53.6327 17.831L53.5918 17.6935L53.5449 17.561L53.4865 17.4475L53.4166 17.3381L53.3412 17.2449L53.2539 17.1658L53.1546 17.0971L53.0493 17.051L52.9384 17.022L52.8166 17.0103L52.658 17.022L52.5118 17.0446L52.3784 17.0912L52.2437 17.1482L52.1278 17.2232L52.0101 17.315L51.9117 17.4123L51.8119 17.5221L51.7251 17.6465L51.6428 17.7795L51.566 17.9169L51.503 18.0662L51.4446 18.2208L51.3986 18.3768L51.3512 18.5423L51.3167 18.7092L51.2869 18.962L51.2993 19.2369L51.3393 19.5173L51.4165 19.7872L51.5319 20.0233L51.6841 20.2119L51.8763 20.3389L52.109 20.3846Z" fill="#FBB231"/>
<path fill-rule="evenodd" clip-rule="evenodd" d="M16.2828 20.4994L16.0483 21.7728H14.5774L14.6183 21.5377L14.6491 21.3256L14.6707 21.165L14.6946 21.0782L14.6128 21.1705L14.5195 21.2627L14.4091 21.3491L14.2854 21.4282L14.1466 21.5092L14.0008 21.5774L13.8482 21.6466L13.6904 21.7041L13.5208 21.7556L13.3534 21.7963L13.1824 21.8302L13.009 21.8533L12.8389 21.865L12.6711 21.8705L12.5069 21.8533L12.3487 21.8302L12.1441 21.7791L11.9584 21.7208L11.7947 21.6466L11.6485 21.5607L11.5211 21.4689L11.4048 21.3654L11.3101 21.2559L11.2291 21.142L11.1597 21.0217L11.1004 20.8946L11.0544 20.7689L11.019 20.6427L10.9951 20.5107L10.9785 20.3787L10.967 20.252V20.1259L10.9836 19.902L11.019 19.6895L11.0774 19.4892L11.1537 19.2934L11.2466 19.1107L11.351 18.9443L11.4742 18.7842L11.614 18.6399L11.7607 18.5083L11.9239 18.3871L12.0931 18.2782L12.2674 18.1864L12.454 18.1077L12.6472 18.043L12.8453 17.9919L13.0499 17.9571H13.0605L13.0895 17.9512L13.1313 17.9458L13.1952 17.9399L13.2651 17.9286L13.3465 17.9223L13.4343 17.911L13.5332 17.8997L13.6325 17.8893L13.7323 17.8771L13.8376 17.8707L13.9305 17.8599L14.0243 17.8545L14.1102 17.8477L14.1935 17.8427H14.3916L14.5314 17.8477L14.6592 17.8545H14.7875L14.8928 17.8599L14.9751 17.8649L15.0326 17.8707H15.0505L15.062 17.8309L15.0974 17.7283L15.1255 17.6062L15.1374 17.4981L15.114 17.3719L15.062 17.2566L14.9921 17.1535L14.8983 17.0676L14.7875 16.9939L14.6652 16.9419L14.525 16.9071L14.3737 16.8958L14.2105 16.8899L14.0344 16.8845H13.8537L13.6679 16.8899L13.4753 16.9017L13.2877 16.9188L13.1019 16.9356L12.9217 16.9595L12.7455 16.9812L12.5763 17.0102L12.4246 17.0387L12.2848 17.0676L12.1565 17.1029L12.0512 17.1364L11.9699 17.177L11.9055 17.211L12.3193 15.8286L12.4485 15.777L12.5763 15.7309L12.717 15.6907L12.8568 15.6613L12.9975 15.6328L13.1488 15.6111L13.3005 15.5876L13.4578 15.5753L13.6206 15.5649L13.7898 15.5586L13.9649 15.5527H14.525L14.73 15.5586L14.9342 15.5649L15.0974 15.5753L15.2726 15.6047L15.4533 15.645L15.6391 15.697L15.8207 15.7657L15.9959 15.8462L16.1701 15.9434L16.3348 16.0524L16.4787 16.1795L16.6083 16.3161L16.726 16.4712L16.812 16.6434L16.8713 16.8279L16.9049 17.0219V17.2395L16.8713 17.4696L16.2828 20.4994Z" fill="white"/>
<path fill-rule="evenodd" clip-rule="evenodd" d="M14.8757 19.0013L14.8697 18.9733L14.8458 18.9443L14.8108 18.9271L14.7524 18.9154L14.6881 18.9045L14.6127 18.8982H14.437L14.3446 18.9045L14.2457 18.9154L14.1524 18.9271L14.0586 18.9389L13.9712 18.9507L13.8889 18.9669L13.8195 18.9841L13.7551 19.0013L13.7142 19.0126L13.6678 19.0307L13.6038 19.0528L13.5385 19.0818L13.4631 19.1166L13.3873 19.1569L13.3063 19.1971L13.23 19.2428L13.1486 19.2998L13.0728 19.3572L13.002 19.4268L12.939 19.4956L12.8796 19.5697L12.8387 19.6502L12.8052 19.742L12.7863 19.8333L12.7812 20.0292L12.8098 20.1834L12.8681 20.2991L12.9445 20.3846L13.0318 20.442L13.1312 20.4759L13.225 20.4931L13.3178 20.4994L13.4926 20.4931L13.6507 20.4759L13.802 20.4524L13.9367 20.4185L14.0526 20.3787L14.1634 20.3276L14.2623 20.2756L14.351 20.2118L14.4269 20.1544L14.4954 20.0857L14.5547 20.0233L14.6012 19.9545L14.6412 19.8854L14.6784 19.8166L14.7064 19.7533L14.723 19.6895L14.7704 19.524L14.8108 19.3346L14.8458 19.1505L14.8757 19.0013Z" fill="#EC1C2E"/>
<path fill-rule="evenodd" clip-rule="evenodd" d="M4.00504 21.7728H2.41919L3.74388 14.2395H6.50268L6.76614 18.7091L8.67385 14.2395H11.5563L10.2018 21.7728H8.61546L9.61828 16.1446H9.55576L7.1795 21.7728H5.3895L5.37755 21.5376L5.33663 20.9118L5.28421 20.0232L5.22489 19.0012L5.16696 17.9742L5.11454 17.0744L5.07407 16.4205L5.06166 16.1446H4.97476L4.00504 21.7728Z" fill="white"/>
<path fill-rule="evenodd" clip-rule="evenodd" d="M45.2377 20.4994L44.9981 21.7728H43.5341L43.5447 21.5377L43.5507 21.3314V21.1768L43.5627 21.1081L43.4868 21.194L43.3985 21.2794L43.295 21.3595L43.1773 21.4413L43.0559 21.5146L42.9152 21.5833L42.769 21.653L42.6228 21.7104L42.4656 21.7556L42.3019 21.8008L42.1396 21.8302L41.9759 21.8533L41.8062 21.865L41.6439 21.8705L41.4857 21.8533L41.328 21.8302L41.1184 21.7791L40.9321 21.7208L40.768 21.6466L40.6158 21.5607L40.488 21.4689L40.3762 21.3654L40.2838 21.2559L40.2029 21.142L40.1321 21.0217L40.0801 20.8946L40.0332 20.7689L40.0038 20.6427L39.9794 20.5107L39.9629 20.3787L39.9509 20.252V20.1259L39.9629 19.902L39.9983 19.6895L40.0498 19.4892L40.1266 19.2934L40.2139 19.1107L40.3243 18.9443L40.4471 18.7842L40.5809 18.6399L40.733 18.5083L40.8908 18.3871L41.06 18.2782L41.2411 18.1864L41.4218 18.1077L41.614 18.043L41.8062 17.9919L42.0044 17.9571H42.0168L42.0449 17.9512L42.0867 17.9458L42.1451 17.9399L42.221 17.9286L42.3019 17.9223L42.3902 17.911L42.4826 17.8997L42.5824 17.8893L42.6876 17.8771L42.787 17.8707L42.8858 17.8599L42.9787 17.8545L43.0605 17.8477L43.1429 17.8427H43.347L43.4868 17.8477L43.6206 17.8545H43.7489L43.8606 17.8599L43.9535 17.8649L44.0059 17.8707H44.0298L44.0418 17.8309L44.0588 17.7283L44.0758 17.6062L44.0873 17.4981L44.0652 17.3719L44.0192 17.2566L43.9429 17.1535L43.8537 17.0676L43.7489 16.9939L43.627 16.9419L43.4987 16.9071L43.358 16.8958L43.1943 16.8899L43.0205 16.8845H42.8389L42.6518 16.8899L42.46 16.9017L42.2734 16.9188L42.0867 16.9356L41.9051 16.9595L41.7299 16.9812L41.5616 17.0102L41.4099 17.0387L41.2696 17.0676L41.1414 17.1029L41.037 17.1364L40.9538 17.177L40.8908 17.211L41.2991 15.8286L41.4264 15.777L41.5616 15.7309L41.6963 15.6907L41.8352 15.6613L41.9814 15.6328L42.1281 15.6111L42.278 15.5876L42.4371 15.5753L42.5994 15.5649L42.769 15.5586L42.9382 15.5527H43.4868L43.6854 15.5586L43.8836 15.5649L44.0473 15.5753L44.2215 15.6047L44.4022 15.645L44.5898 15.697L44.7714 15.7657L44.9503 15.8462L45.126 15.9434L45.2892 16.0524L45.4363 16.1795L45.5692 16.3161L45.6855 16.4712L45.7733 16.6434L45.8382 16.8279L45.8796 17.0219V17.2395L45.8497 17.4696L45.2377 20.4994Z" fill="white"/>
<path fill-rule="evenodd" clip-rule="evenodd" d="M44.9978 21.8129L45.0321 21.779L45.2696 20.5047L45.2002 20.4929L44.9626 21.7677L44.9978 21.7324V21.8129L45.0262 21.8066L45.0321 21.779L44.9978 21.8129Z" fill="white"/>
<path fill-rule="evenodd" clip-rule="evenodd" d="M43.4987 21.7727L43.5341 21.8129H44.9981V21.7324H43.5341L43.569 21.7727H43.4987L43.4932 21.8129H43.5341L43.4987 21.7727Z" fill="white"/>
<path fill-rule="evenodd" clip-rule="evenodd" d="M43.59 21.1298L43.5381 21.0845L43.5158 21.1769L43.5091 21.3318V21.5384L43.4988 21.774H43.5672L43.5779 21.5384L43.59 21.3318L43.5838 21.1769V21.1298L43.5332 21.0845L43.59 21.1298Z" fill="white"/>
<path fill-rule="evenodd" clip-rule="evenodd" d="M41.3225 21.865L41.4857 21.888L41.6439 21.9043L41.8062 21.8998L41.9759 21.888L42.1451 21.865L42.3079 21.8356L42.472 21.7908L42.6348 21.7442L42.781 21.6868L42.9318 21.6185L43.0734 21.5498L43.1944 21.4688L43.3171 21.3884L43.4215 21.3088L43.5162 21.2156L43.5926 21.1297L43.5342 21.0845L43.4578 21.1704L43.3764 21.2509L43.2702 21.3314L43.1603 21.4114L43.0376 21.4806L42.8983 21.5498L42.7576 21.6185L42.6118 21.6755L42.4601 21.7207L42.2968 21.7677L42.1327 21.7962L41.9759 21.8184L41.8062 21.8302L41.6439 21.8356L41.4857 21.8184L41.334 21.7962L41.3225 21.865Z" fill="white"/>
<path fill-rule="evenodd" clip-rule="evenodd" d="M39.9109 20.1257L39.9159 20.2519L39.9274 20.3785L39.9463 20.5164L39.9693 20.648L39.9982 20.7742L40.0451 20.9067L40.0967 21.0378L40.1734 21.159L40.2544 21.2793L40.3486 21.3883L40.465 21.4968L40.5988 21.5891L40.7505 21.6813L40.9206 21.7555L41.1119 21.8129L41.3225 21.8649L41.334 21.7962L41.1234 21.7442L40.9436 21.6867L40.7854 21.6126L40.6332 21.5316L40.5109 21.4412L40.4056 21.3422L40.3128 21.2332L40.2305 21.1242L40.1675 21.0044L40.115 20.8832L40.0672 20.7638L40.0392 20.6367L40.0162 20.5047L39.9982 20.3785L39.9858 20.2519L39.9923 20.1257H39.9109Z" fill="white"/>
<path fill-rule="evenodd" clip-rule="evenodd" d="M42.0044 17.9224L41.8007 17.9572L41.6025 18.0096L41.4098 18.072L41.2236 18.1521L41.0415 18.2434L40.8677 18.3596L40.7091 18.4804L40.5578 18.6169L40.4181 18.7607L40.2948 18.9208L40.178 19.0931L40.0911 19.283L40.0162 19.4779L39.9628 19.6846L39.9274 19.9021L39.9109 20.1259H39.9923L39.9982 19.9021L40.0332 19.6959L40.0852 19.501L40.1615 19.3057L40.2479 19.1275L40.3528 18.967L40.4764 18.806L40.6038 18.6635L40.7555 18.5369L40.9137 18.4157L41.076 18.3135L41.2586 18.2208L41.4328 18.1417L41.6255 18.0784L41.8122 18.0259L42.0044 17.992V17.9224Z" fill="white"/>
<path fill-rule="evenodd" clip-rule="evenodd" d="M43.2068 17.802H43.1429L43.0606 17.8142L42.9787 17.821L42.8858 17.8255L42.787 17.8364L42.6877 17.8427L42.5824 17.8545L42.4826 17.8649L42.3902 17.8771L42.3019 17.8893L42.221 17.8938L42.1451 17.9056L42.0867 17.911L42.0398 17.9169L42.0168 17.9223H42.0044V17.9919H42.0168L42.0513 17.9851L42.0867 17.9806L42.1451 17.9743L42.221 17.9634L42.3019 17.9571L42.3902 17.9458L42.4826 17.9336L42.5824 17.9223L42.6877 17.911L42.787 17.9056L42.8858 17.8938L42.9787 17.8893L43.0606 17.8825H43.2068V17.802Z" fill="white"/>
<path fill-rule="evenodd" clip-rule="evenodd" d="M43.9944 17.8649L44.0298 17.8364H44.0059L43.9535 17.8309L43.8606 17.8255L43.7489 17.8142H43.4868L43.347 17.802H43.2068V17.8825H43.4868L43.6206 17.8938H43.8606L43.9535 17.8997L44.0059 17.9056H44.0298L44.0652 17.8771L44.0298 17.9056L44.0588 17.911L44.0652 17.8771L43.9944 17.8649Z" fill="white"/>
<path fill-rule="evenodd" clip-rule="evenodd" d="M44.0524 17.498H44.0469L44.0414 17.6061L44.0223 17.7219L44.0058 17.8254L43.9944 17.8648L44.0647 17.877L44.0752 17.8363L44.093 17.7327L44.1095 17.6061L44.1273 17.498H44.0524Z" fill="white"/>
<path fill-rule="evenodd" clip-rule="evenodd" d="M43.3579 16.9297V16.9355L43.4931 16.9419L43.6149 16.9767L43.7313 17.0273L43.8306 17.097L43.912 17.177L43.9819 17.2747L44.0297 17.3773L44.0527 17.4981H44.1226L44.0987 17.3665L44.0527 17.2394L43.9713 17.1318L43.878 17.0386L43.7667 16.9595L43.6384 16.9071L43.5037 16.8731L43.3579 16.856V16.9297Z" fill="white"/>
<path fill-rule="evenodd" clip-rule="evenodd" d="M40.8552 17.206L40.9136 17.2394L40.972 17.2109L41.0474 17.1707L41.1481 17.1363L41.275 17.1029L41.4162 17.0744L41.567 17.0445L41.7357 17.016L41.9049 16.9939L42.0866 16.9699L42.2732 16.9527L42.4599 16.9355L42.6517 16.9247H43.1942L43.3579 16.9297V16.8609L43.1942 16.856L43.0204 16.8438H42.8388L42.6517 16.856L42.4599 16.8664L42.2732 16.8844L42.0866 16.9016L41.9049 16.9247L41.7247 16.9464L41.5546 16.9767L41.4042 17.0056L41.2631 17.0341L41.1348 17.0676L41.0253 17.1029L40.9375 17.1422L40.8676 17.1825L40.926 17.2168L40.8552 17.206Z" fill="white"/>
<path fill-rule="evenodd" clip-rule="evenodd" d="M41.2863 15.7937L41.2615 15.8231L40.8552 17.2059L40.9258 17.2168L41.3321 15.8339L41.3087 15.8633L41.2863 15.7937L41.268 15.7996L41.2615 15.8231L41.2863 15.7937Z" fill="white"/>
<path fill-rule="evenodd" clip-rule="evenodd" d="M43.8837 15.5305L43.6855 15.5192L43.4868 15.5125H42.9383L42.7691 15.5247L42.5994 15.5305L42.4371 15.5428L42.278 15.5527L42.1212 15.5753L41.9759 15.5984L41.8302 15.6282L41.6895 15.6567L41.5502 15.6969L41.4164 15.7426L41.2881 15.7937L41.3106 15.8634L41.4394 15.8114L41.5727 15.7657L41.701 15.725L41.8412 15.6969L41.9884 15.6671L42.1327 15.6449L42.278 15.6219L42.4371 15.611L42.5994 15.5984L42.7691 15.5934H43.4868L43.6855 15.5984H43.8837V15.5305Z" fill="white"/>
<path fill-rule="evenodd" clip-rule="evenodd" d="M45.885 17.4754L45.9135 17.2394V17.0219L45.8735 16.8202L45.8092 16.6312L45.7158 16.4544L45.5977 16.2934L45.4583 16.1505L45.313 16.0234L45.1434 15.914L44.9682 15.8113L44.7824 15.7308L44.6004 15.6612L44.4095 15.611L44.227 15.5708L44.0472 15.5427L43.8835 15.5305V15.5983L44.0472 15.611L44.2155 15.6395L44.3967 15.6797L44.5769 15.7308L44.759 15.7996L44.9337 15.8805L45.1084 15.9719L45.2666 16.0808L45.4124 16.2066L45.5407 16.3395L45.6565 16.4878L45.7384 16.6556L45.8027 16.8329L45.8446 17.0219V17.2394L45.8142 17.4641L45.885 17.4754Z" fill="white"/>
<path fill-rule="evenodd" clip-rule="evenodd" d="M45.2715 20.5047L45.8826 17.4754L45.8121 17.4641L45.2019 20.493L45.2715 20.5047Z" fill="white"/>
<path fill-rule="evenodd" clip-rule="evenodd" d="M43.8251 19.0013L43.8136 18.9669L43.7915 18.9389L43.7488 18.9208L43.6917 18.9045L43.6269 18.8982L43.5506 18.8923H43.4632L43.3763 18.8982L43.2825 18.9095L43.1887 18.9208L43.0958 18.933L43.0071 18.9443L42.922 18.962L42.8453 18.9733L42.7689 18.9909L42.7105 19.0013L42.671 19.0072L42.6227 19.0244L42.5657 19.042L42.5004 19.0646L42.4236 19.0985L42.3547 19.1343L42.2733 19.1741L42.1974 19.2247L42.1211 19.2772L42.0448 19.3396L41.9813 19.4024L41.9178 19.4779L41.8645 19.5584L41.8236 19.6439L41.7891 19.7361L41.7721 19.8334L41.7661 20.0292L41.7937 20.1834L41.8411 20.2991L41.911 20.3846L41.9988 20.442L42.0981 20.476L42.1974 20.4931L42.2967 20.4995L42.4719 20.4931L42.6347 20.476L42.7869 20.4475L42.922 20.4081L43.0489 20.3615L43.1602 20.3104L43.2646 20.2521L43.3579 20.1834L43.4407 20.1205L43.5092 20.0464L43.5736 19.9772L43.6269 19.9021L43.6669 19.8334L43.6977 19.7646L43.7207 19.6959L43.7377 19.633L43.7616 19.4721L43.7915 19.3056L43.8136 19.1456L43.8251 19.0013Z" fill="#FBB231"/>
<path fill-rule="evenodd" clip-rule="evenodd" d="M55.843 20.9872L55.8564 20.8542L55.9005 20.6996L55.9833 20.5617L56.0821 20.4418L56.2049 20.3451L56.347 20.2754L56.4978 20.2284L56.6601 20.2117L56.8247 20.2284L56.9755 20.2754L57.1157 20.3451L57.239 20.4418L57.3378 20.5617L57.4197 20.6996L57.4656 20.8542L57.4781 20.9872H57.3029L57.2974 20.8832L57.261 20.757L57.2031 20.6426L57.1277 20.5445L57.0344 20.4645L56.924 20.4079L56.7957 20.3668L56.6601 20.3555L56.5263 20.3668L56.3989 20.4079L56.2877 20.4645L56.1939 20.5445L56.1184 20.6426L56.0605 20.757L56.0251 20.8832L56.0132 20.9872H55.843Z" fill="white"/>
<path fill-rule="evenodd" clip-rule="evenodd" d="M56.3684 20.9874V20.6428H56.6881L56.7587 20.6482L56.8228 20.6596L56.8686 20.6772L56.9094 20.6998L56.9382 20.7342L56.9611 20.769L56.9731 20.8088L56.979 20.8495L56.9731 20.9006L56.9611 20.9408L56.9442 20.9756L56.9323 20.9874H56.6881L56.711 20.9811L56.7523 20.9756L56.7866 20.9643L56.8169 20.953L56.8398 20.9359L56.8517 20.9173L56.8627 20.8902V20.8495L56.8562 20.8205L56.8448 20.797L56.8283 20.7866L56.8104 20.7744L56.7807 20.769L56.7523 20.764H56.5141V20.9874H56.3684Z" fill="white"/>
<path fill-rule="evenodd" clip-rule="evenodd" d="M55.843 20.9873L55.8389 21.0217L55.8563 21.1881L55.9005 21.3423L55.9833 21.4807L56.0821 21.5951L56.2049 21.6923L56.3469 21.7678L56.4978 21.813L56.6601 21.8302L56.8247 21.813L56.9755 21.7678L57.1157 21.6923L57.239 21.5951L57.3378 21.4807L57.4197 21.3423L57.4656 21.1881L57.4827 21.0217L57.478 20.9873H57.3029L57.3089 21.0217L57.2974 21.1591L57.261 21.2853L57.2031 21.3947L57.1277 21.4911L57.0343 21.5725L56.924 21.6344L56.7957 21.6756L56.6601 21.6869L56.5263 21.6756L56.3989 21.6344L56.2876 21.5725L56.1938 21.4911L56.1184 21.3947L56.0605 21.2853L56.0251 21.1591L56.0131 21.0217V20.9873H55.843Z" fill="white"/>
<path fill-rule="evenodd" clip-rule="evenodd" d="M56.3684 20.9873V21.3373H56.5141V21.0502H56.6588L56.8329 21.3373H56.9507L56.7761 21.0502H56.8169L56.8563 21.038L56.8916 21.0266L56.9218 21.0045L56.9323 20.9873H56.6882L56.6588 20.9927H56.5141V20.9873H56.3684Z" fill="white"/>
<path fill-rule="evenodd" clip-rule="evenodd" d="M45.6753 21.7728H47.3205L47.9095 18.5083L47.9325 18.3826L47.9679 18.256L48.0023 18.1294L48.0492 18.0032L48.1076 17.8771L48.1775 17.7563L48.2539 17.6419L48.3467 17.5325L48.452 17.4353L48.5679 17.3435L48.7026 17.2566L48.8544 17.1879L49.0231 17.1318L49.2098 17.0857L49.4144 17.0509L49.6411 17.0387H49.7873L50.0503 15.5649L49.8862 15.5753L49.7294 15.5934L49.5836 15.6219L49.4429 15.6613L49.3155 15.7074L49.1923 15.7657L49.0755 15.8286L48.9647 15.8973L48.8603 15.9783L48.7601 16.0583L48.6672 16.1505L48.5744 16.2414L48.4865 16.3396L48.3992 16.4476L48.3113 16.5512L48.2309 16.6661L48.4061 15.6282H46.766L45.6753 21.7728Z" fill="white"/>
<path fill-rule="evenodd" clip-rule="evenodd" d="M30.2256 21.7728H31.8997L32.4598 18.5083L32.4837 18.3826L32.5122 18.2619L32.5411 18.1416L32.5825 18.0258L32.6285 17.911L32.6874 17.802L32.7573 17.6993L32.8391 17.6017L32.9324 17.5139L33.0373 17.4294L33.166 17.3602L33.3058 17.2973L33.469 17.2449L33.6502 17.2006L33.8484 17.1707L34.0755 17.1535H34.0939L34.1169 17.1599L34.1463 17.1657H34.1753L34.2038 17.1707L34.2286 17.177L34.2447 17.1825H34.2516L34.2567 17.1599L34.2746 17.0911L34.2976 16.988L34.3275 16.861L34.3675 16.7122L34.4093 16.5512L34.4613 16.3911L34.5128 16.2292L34.5606 16.1212L34.619 16.0117L34.6774 15.9032L34.7349 15.806L34.7868 15.7196L34.8277 15.6509L34.8581 15.6111L34.8687 15.5934H34.8641L34.8402 15.5876L34.8116 15.5812L34.7703 15.5753H34.7303L34.6834 15.5708L34.642 15.5649H34.6011L34.4199 15.5753L34.2567 15.5934L34.1054 15.6219L33.9656 15.6567L33.8318 15.7024L33.7081 15.7603L33.5973 15.8164L33.492 15.8851L33.3936 15.9606L33.2998 16.047L33.2125 16.1334L33.1256 16.2292L33.0373 16.3283L32.9554 16.4377L32.8685 16.5512L32.7802 16.6661L32.9904 15.6282H31.3162L30.2256 21.7728Z" fill="white"/>
<path fill-rule="evenodd" clip-rule="evenodd" d="M55.8564 27.8093V27.7862L55.9006 27.637L55.9834 27.5049L56.0822 27.391L56.205 27.2987L56.3471 27.2291L56.4979 27.1898L56.6602 27.1721L56.8248 27.1898L56.9756 27.2291L57.1159 27.2987L57.2391 27.391L57.3379 27.5049L57.4198 27.637L57.4658 27.7862V27.8093H57.2975L57.2612 27.6894L57.2032 27.58L57.1278 27.4814L57.0345 27.4023L56.9241 27.3385L56.7958 27.2987L56.6602 27.2874L56.5264 27.2987L56.399 27.3385L56.2878 27.4023L56.194 27.4814L56.1185 27.58L56.0606 27.6894L56.0252 27.8093H55.8564Z" fill="#FBB231"/>
<path fill-rule="evenodd" clip-rule="evenodd" d="M56.3684 27.8092V27.6094H56.7587L56.8228 27.6207L56.8686 27.6306L56.9094 27.6537L56.9382 27.6835L56.9611 27.7174L56.9731 27.7577L56.979 27.8092H56.8627V27.7803L56.8562 27.7514L56.8448 27.7288L56.8283 27.7174L56.8104 27.7061L56.7807 27.6998L56.7523 27.6948H56.5141V27.8092H56.3684Z" fill="#FBB231"/>
<path fill-rule="evenodd" clip-rule="evenodd" d="M55.8389 27.935L55.8562 27.8093H56.0238V27.8139L56.012 27.935H55.8389Z" fill="#FBB231"/>
<path fill-rule="evenodd" clip-rule="evenodd" d="M56.3684 27.935V27.8093H56.5141V27.9237H56.6588L56.711 27.9129L56.7523 27.907L56.7866 27.8953L56.8169 27.8839L56.8398 27.8672L56.8517 27.8491L56.8627 27.822V27.8093H56.979L56.9731 27.8491L56.9611 27.8839L56.9442 27.9129L56.9218 27.935H56.3684Z" fill="#FBB231"/>
<path fill-rule="evenodd" clip-rule="evenodd" d="M57.3088 27.935L57.2974 27.8139V27.8093H57.4646L57.4815 27.935H57.3088Z" fill="#FBB231"/>
<path fill-rule="evenodd" clip-rule="evenodd" d="M55.8389 27.9351V27.9527L55.8563 28.1187L55.9005 28.2738L55.9833 28.4112L56.0821 28.5324L56.2049 28.6306L56.3469 28.6979L56.4978 28.7445L56.6601 28.7617L56.8247 28.7445L56.9755 28.6979L57.1157 28.6306L57.239 28.5324L57.3378 28.4112L57.4197 28.2738L57.4656 28.1187L57.4827 27.9527V27.9351H57.3089V27.9527L57.2974 28.0911L57.261 28.2172L57.2031 28.3253L57.1277 28.4221L57.0343 28.5044L56.924 28.5672L56.7957 28.607L56.6601 28.6183L56.5263 28.607L56.3989 28.5672L56.2876 28.5044L56.1938 28.4221L56.1184 28.3253L56.0605 28.2172L56.0251 28.0911L56.0131 27.9527V27.9351H55.8389Z" fill="#FBB231"/>
<path fill-rule="evenodd" clip-rule="evenodd" d="M56.3684 27.9351V28.2683H56.5141V27.9812H56.6588L56.8329 28.2683H56.9507L56.7761 27.9812H56.8169L56.8563 27.9699L56.8916 27.9586L56.9218 27.9351H56.3684Z" fill="#FBB231"/>
<path fill-rule="evenodd" clip-rule="evenodd" d="M28.8251 17.9852H26.6939L26.6958 17.9806L26.6926 17.9797L26.7073 17.8997L26.7307 17.7794L26.7652 17.6645L26.8061 17.5501L26.859 17.447L26.9119 17.3489L26.9749 17.2562L27.0457 17.1707L27.122 17.0907L27.196 17.0215L27.2852 16.9591L27.3712 16.9071L27.4715 16.861L27.5708 16.828L27.6696 16.8035L27.7745 16.7868L27.8862 16.7805L27.9906 16.7918L28.0899 16.809L28.1837 16.832L28.2766 16.8655L28.3639 16.9125L28.4513 16.9641L28.5281 17.0215L28.597 17.0907L28.6554 17.1707L28.7138 17.2562L28.7548 17.3543L28.7957 17.4642L28.8182 17.5786L28.8306 17.7048L28.8375 17.8427L28.8251 17.9852ZM30.4068 17.4574L30.3599 17.1147L30.2776 16.8099L30.1617 16.5467L30.0151 16.3161L29.8408 16.1212L29.6486 15.9611L29.4389 15.8236L29.2104 15.7201L28.9778 15.6332L28.7387 15.5758L28.4987 15.5365L28.26 15.513L28.0324 15.5071L27.5593 15.531L27.1399 15.5989L26.7597 15.7029L26.4222 15.8467L26.1302 16.019L25.8727 16.2139L25.6451 16.4318L25.4589 16.6616L25.2952 16.9026L25.1619 17.1545L25.0575 17.4023L24.9688 17.6474L24.9053 17.8902L24.8584 18.1127L24.8239 18.3257L24.8009 18.5093L24.772 18.9796L24.7894 19.4037L24.8529 19.7885L24.9513 20.1268L25.0929 20.4307L25.2621 20.6957L25.4594 20.9304L25.687 21.1257L25.932 21.2926L26.1955 21.4346L26.4691 21.5449L26.7546 21.6304L27.0466 21.7L27.3386 21.7398L27.6301 21.7687L27.9156 21.7737H28.1087L28.2908 21.7687H28.4471L28.5993 21.7624L28.7341 21.7511L28.8564 21.7398L28.9722 21.7285L29.078 21.7113L29.1773 21.6932L29.2702 21.6711L29.3649 21.6417L29.4523 21.6136L29.5392 21.5784L29.633 21.5449L29.7254 21.4979L29.8192 21.4522L30.0528 20.0413L29.884 20.1385L29.7199 20.2294L29.5516 20.3L29.387 20.3624L29.2302 20.4139L29.0665 20.4479L28.9088 20.4763L28.7515 20.4999L28.5938 20.5112L28.4425 20.5175H28.2853L28.134 20.5112L27.9827 20.4999L27.8306 20.4827L27.6848 20.4655L27.5335 20.4429L27.4167 20.4198L27.3 20.3796L27.1836 20.3289L27.0774 20.2647L26.973 20.1969L26.8792 20.1114L26.7923 20.0246L26.71 19.926L26.6406 19.8292L26.5771 19.7212L26.5293 19.6167L26.4889 19.5073L26.4659 19.3983L26.4544 19.2884L26.459 19.1916L26.4728 19.1175H30.2583L30.2868 18.7675L30.3751 18.2845L30.416 17.8486L30.4105 17.4583L30.4068 17.4574Z" fill="white"/>
</svg>
