<svg width="63" height="39" viewBox="0 0 63 39" fill="none" xmlns="http://www.w3.org/2000/svg">
<path d="M12.7662 0.369873H28.2896C30.4566 0.369873 31.8043 2.10679 31.2985 4.24526L24.0713 34.7613C23.5614 36.8921 21.3917 38.6308 19.2232 38.6308H3.70176C1.53794 38.6308 0.187026 36.8926 0.692806 34.7613L7.92271 4.24526C8.42849 2.10724 10.5965 0.369873 12.7658 0.369873H12.7662Z" fill="#E21836"/>
<path d="M26.9981 0.369873H44.8494C47.016 0.369873 46.0389 2.10679 45.5294 4.24526L38.3032 34.7613C37.7965 36.8921 37.9547 38.6308 35.7835 38.6308H17.9322C15.761 38.6308 14.4175 36.8926 14.9274 34.7613L22.1532 4.24526C22.6663 2.10724 24.8301 0.369873 26.9981 0.369873Z" fill="#00447C"/>
<path d="M44.1408 0.369873H59.6641C61.8339 0.369873 63.1816 2.10679 62.6721 4.24526L55.4463 34.7613C54.9364 36.8921 52.7652 38.6308 50.5959 38.6308H35.0799C32.9087 38.6308 31.5625 36.8926 32.071 34.7613L39.2981 4.24526C39.8039 2.10724 41.9705 0.369873 44.1412 0.369873H44.1408Z" fill="#007B84"/>
<path d="M16.8208 10.1493C15.2244 10.1651 14.7531 10.1493 14.6023 10.1145C14.5444 10.3853 13.467 15.2718 13.4638 15.2759C13.2321 16.2644 13.0633 16.9694 12.49 17.4243C12.1644 17.6889 11.7846 17.8168 11.3441 17.8168C10.6365 17.8168 10.2236 17.4709 10.1546 16.8152L10.1413 16.5905C10.1413 16.5905 10.357 15.266 10.357 15.2587C10.357 15.2587 11.4872 10.8054 11.6899 10.2166C11.7005 10.1832 11.7037 10.166 11.706 10.1497C9.5054 10.1687 9.1155 10.1497 9.08837 10.1149C9.07366 10.1628 9.0194 10.4391 9.0194 10.4391L7.86483 15.4586L7.76595 15.8846L7.57422 17.2769C7.57422 17.6898 7.65654 18.0271 7.82069 18.312C8.3467 19.216 9.84704 19.3516 10.6958 19.3516C11.7892 19.3516 12.8151 19.1233 13.508 18.7059C14.7113 18.0068 15.0257 16.9138 15.3067 15.9425L15.4368 15.4441C15.4368 15.4441 16.6015 10.819 16.7992 10.2171C16.807 10.1836 16.8098 10.1665 16.8203 10.1502L16.8208 10.1493ZM20.7829 13.8804C20.5024 13.8804 19.9893 13.9473 19.5281 14.1694C19.3608 14.2539 19.2031 14.3511 19.0357 14.4484L19.1865 13.9139L19.1042 13.8239C18.1271 14.0183 17.9082 14.0446 17.0052 14.1694L16.9298 14.2187C16.825 15.0733 16.7321 15.7159 16.3436 17.3963C16.1955 18.0154 16.0419 18.6403 15.8879 19.2585L15.9297 19.3367C16.8549 19.2888 17.1358 19.2888 17.9395 19.3019L18.0043 19.2322C18.1064 18.7176 18.1198 18.5973 18.346 17.5546C18.4522 17.0603 18.6738 15.9746 18.7832 15.5879C18.9842 15.4966 19.1824 15.4061 19.3713 15.4061C19.8219 15.4061 19.7672 15.7928 19.7498 15.947C19.7309 16.2052 19.5663 17.0499 19.398 17.7752L19.2858 18.2437C19.2076 18.5892 19.1217 18.9252 19.043 19.268L19.077 19.3362C19.9888 19.2883 20.267 19.2883 21.0459 19.3014L21.1374 19.2318C21.2781 18.4282 21.3195 18.213 21.5692 17.0427L21.6947 16.5045C21.9389 15.4523 22.0612 14.9187 21.8768 14.4841C21.6814 13.9971 21.2133 13.8795 20.7829 13.8795V13.8804ZM25.2094 14.9824C24.7248 15.0738 24.4153 15.1348 24.1082 15.1746C23.8033 15.2225 23.5068 15.266 23.0382 15.3302L23.001 15.3632L22.967 15.3899C22.9182 15.7331 22.8842 16.0293 22.8194 16.3784C22.7647 16.7388 22.68 17.1485 22.5426 17.7372C22.4363 18.1881 22.3812 18.345 22.321 18.5033C22.2621 18.662 22.1968 18.8162 22.0772 19.2589L22.1053 19.3001L22.1287 19.3376C22.5665 19.3172 22.8529 19.3028 23.1472 19.3001C23.441 19.2897 23.7459 19.3001 24.2171 19.3023L24.2585 19.2693L24.3027 19.2327C24.3707 18.8329 24.3809 18.7253 24.4227 18.5304C24.4641 18.3215 24.5353 18.0316 24.7096 17.2588C24.7919 16.8957 24.8839 16.5335 24.9694 16.1627C25.0581 15.7937 25.1515 15.4301 25.2402 15.0665L25.2269 15.0227L25.2094 14.982V14.9824ZM25.2195 13.4969C24.7791 13.241 24.0061 13.3224 23.4861 13.6756C22.9674 14.0215 22.9086 14.513 23.3472 14.7717C23.7803 15.0204 24.5561 14.9462 25.072 14.5904C25.5897 14.2367 25.654 13.7497 25.22 13.4969H25.2195ZM27.8827 19.4172C28.7738 19.4172 29.6874 19.1757 30.3748 18.459C30.904 17.8779 31.1464 17.0128 31.2305 16.6565C31.5036 15.4762 31.2907 14.9254 31.0236 14.5895C30.6171 14.0776 29.8989 13.9139 29.154 13.9139C28.7062 13.9139 27.639 13.9573 26.8059 14.7134C26.2072 15.2587 25.9304 15.9981 25.7639 16.7076C25.5952 17.4302 25.4016 18.7307 26.6183 19.215C26.9935 19.3738 27.5346 19.4172 27.8832 19.4172H27.8827ZM27.8132 16.7614C28.0188 15.8678 28.2611 15.1172 28.8804 15.1172C29.3655 15.1172 29.401 15.6757 29.1853 16.5724C29.1467 16.7713 28.9697 17.5116 28.7301 17.8268C28.5627 18.0592 28.365 18.2003 28.1462 18.2003C28.0813 18.2003 27.6942 18.2003 27.6882 17.635C27.685 17.3556 27.7429 17.0707 27.8137 16.7609L27.8132 16.7614ZM33.4578 19.3023L33.5272 19.2327C33.6261 18.7181 33.6421 18.5973 33.861 17.555C33.9704 17.0608 34.1967 15.975 34.3029 15.5884C34.5043 15.4966 34.6988 15.4061 34.8942 15.4061C35.342 15.4061 35.2873 15.7928 35.2694 15.947C35.2533 16.2061 35.0887 17.0499 34.9177 17.7752L34.8114 18.2437C34.73 18.5897 34.6418 18.9252 34.5636 19.2684L34.5976 19.3367C35.5122 19.2888 35.7798 19.2888 36.5633 19.3019L36.6575 19.2322C36.795 18.4282 36.8322 18.213 37.0893 17.0431L37.2116 16.505C37.4571 15.4527 37.5808 14.9196 37.3996 14.485C37.1987 13.998 36.7274 13.8804 36.303 13.8804C36.0216 13.8804 35.5062 13.9469 35.0482 14.1694C34.8841 14.2535 34.7204 14.3507 34.559 14.4484L34.6992 13.9139L34.6238 13.8234C33.6467 14.0183 33.4237 14.0446 32.5221 14.1694L32.4526 14.2187C32.3432 15.0733 32.2545 15.7154 31.866 17.3958C31.7179 18.0149 31.5643 18.6403 31.4107 19.258L31.4521 19.3367C32.3786 19.2888 32.6554 19.2888 33.4578 19.3019V19.3023ZM40.1796 19.3371C40.2371 19.0613 40.5787 17.4248 40.5819 17.4248C40.5819 17.4248 40.873 16.2242 40.8904 16.1803C40.8904 16.1803 40.9819 16.055 41.0739 16.0058H41.2086C42.4795 16.0058 43.9146 16.0058 45.0397 15.1922C45.8052 14.6338 46.3285 13.8099 46.5616 12.8082C46.6223 12.5622 46.6669 12.2701 46.6669 11.978C46.6669 11.5945 46.5887 11.2147 46.3621 10.918C45.7882 10.1289 44.6461 10.1145 43.3274 10.1081C43.3232 10.1081 42.6772 10.1145 42.6772 10.1145C40.9898 10.1348 40.3125 10.1289 40.0348 10.0955C40.0113 10.2162 39.9671 10.4314 39.9671 10.4314C39.9671 10.4314 39.3625 13.1872 39.3625 13.1917C39.3625 13.1917 37.9155 19.0509 37.8475 19.3267C39.3211 19.3096 39.9253 19.3096 40.1796 19.3367V19.3371ZM41.3001 14.4416C41.3001 14.4416 41.9429 11.6913 41.9402 11.7017L41.9609 11.5606L41.9701 11.453L42.2266 11.4787C42.2266 11.4787 43.5527 11.5909 43.5835 11.5936C44.1068 11.7926 44.3224 12.3058 44.1716 12.9755C44.0341 13.5874 43.6304 14.1024 43.1118 14.3507C42.6846 14.5614 42.1613 14.5791 41.6224 14.5791H41.2734L41.2997 14.4411L41.3001 14.4416ZM45.3027 16.8125C45.1325 17.5247 44.9376 18.8257 46.1478 19.2892C46.5336 19.4506 46.8794 19.4986 47.2306 19.4814C47.6017 19.4615 47.9461 19.2784 48.2643 19.0152C48.2353 19.1233 48.2068 19.2318 48.1778 19.3403L48.2326 19.4099C49.1034 19.3738 49.3733 19.3738 50.3168 19.381L50.4023 19.3172C50.5398 18.5209 50.6695 17.7476 51.0277 16.2242C51.2024 15.4943 51.3762 14.7721 51.5555 14.045L51.5274 13.965C50.5536 14.1422 50.2934 14.1802 49.3563 14.3109L49.285 14.3674C49.2754 14.4416 49.2657 14.5126 49.2565 14.584C49.1107 14.3525 48.8997 14.1549 48.5737 14.0314C48.1571 13.8705 47.1787 14.078 46.3377 14.8314C45.7469 15.3691 45.4632 16.1057 45.3018 16.8125H45.3027ZM47.3479 16.8559C47.5566 15.9782 47.7957 15.2352 48.4165 15.2352C48.8087 15.2352 49.0156 15.5915 48.9733 16.1989C48.9402 16.3503 48.9043 16.51 48.8615 16.6904C48.7995 16.9513 48.7319 17.21 48.6666 17.4686C48.6004 17.6459 48.5222 17.8128 48.4371 17.924C48.2776 18.1465 47.8978 18.2844 47.679 18.2844C47.6169 18.2844 47.2339 18.2844 47.221 17.7296C47.2178 17.4528 47.2757 17.1684 47.3479 16.8559ZM58.0295 13.9573L57.9541 13.8727C56.9904 14.0649 56.8156 14.0952 55.9305 14.2128L55.8657 14.2765C55.8625 14.2869 55.8602 14.3032 55.8556 14.3177L55.8524 14.3032C55.1935 15.7987 55.2128 15.4758 54.6762 16.6533C54.673 16.6 54.673 16.5665 54.6702 16.5095L54.5359 13.9573L54.4518 13.8727C53.4425 14.0649 53.4186 14.0952 52.4862 14.2128L52.4135 14.2765C52.4034 14.3068 52.4034 14.3403 52.3974 14.3769L52.4039 14.3896C52.5202 14.9752 52.4921 14.845 52.6094 15.7693C52.6636 16.2228 52.7367 16.6791 52.791 17.1272C52.883 17.877 52.9344 18.246 53.0466 19.3905C52.4172 20.4125 52.2677 20.7987 51.6617 21.6958L51.6659 21.7049L51.2392 22.3687C51.1904 22.4384 51.1463 22.4867 51.0842 22.5071C51.0162 22.5401 50.9274 22.546 50.8042 22.546H50.5679L50.2166 23.6959L51.4221 23.7167C52.1302 23.7136 52.5753 23.388 52.8144 22.9503L53.5727 21.6723H53.5607L53.6402 21.5823C54.1502 20.5029 58.0299 13.9573 58.0299 13.9573H58.0295ZM45.3027 29.0586H44.7909L46.6844 22.8996H47.3125L47.512 22.2652L47.5314 22.9706C47.5079 23.4065 47.8564 23.7936 48.7728 23.7294H49.8326L50.1973 22.5433H49.7982C49.5687 22.5433 49.4625 22.4863 49.4759 22.3642L49.4565 21.6466H47.4941V21.6502C46.8596 21.6633 44.9647 21.7103 44.5808 21.8107C44.1164 21.9283 43.6276 22.2742 43.6276 22.2742L43.8198 21.6389H41.9838L41.6013 22.8992L39.6826 29.1522H39.3106L38.9455 30.3298H42.6023L42.4795 30.7223H44.281L44.4005 30.3298H44.9059L45.3022 29.0582L45.3027 29.0586ZM43.8023 24.1513C43.5085 24.2313 42.9614 24.4737 42.9614 24.4737L43.4478 22.8996H44.9063L44.5546 24.0468C44.5546 24.0468 44.104 24.0726 43.8023 24.1513ZM43.8304 26.3997C43.8304 26.3997 43.3724 26.4562 43.0708 26.5231C42.7738 26.6117 42.217 26.8908 42.217 26.8908L42.7195 25.2529H44.1854L43.8304 26.3997ZM43.0129 29.0726H41.5498L41.9737 27.6907H43.4322L43.0124 29.0726H43.0129ZM46.5363 25.2529H48.6454L48.3424 26.2179H46.2053L45.8843 27.2733H47.7543L46.3386 29.2341C46.2393 29.3779 46.1505 29.429 46.0517 29.4697C45.9524 29.519 45.8223 29.5773 45.6719 29.5773H45.1528L44.7964 30.7327H46.1533C46.8586 30.7327 47.2752 30.4175 47.5828 30.0028L48.5535 28.696L48.7622 30.0227C48.8064 30.2714 48.988 30.417 49.1108 30.4736C49.2469 30.5405 49.3871 30.6553 49.5853 30.6725C49.7982 30.6816 49.9517 30.6884 50.0538 30.6884H50.7205L51.121 29.3951H50.858C50.7072 29.3951 50.4474 29.3697 50.4028 29.3236C50.3586 29.2671 50.3587 29.1798 50.3347 29.0473L50.1232 27.7174H49.257L49.6368 27.2724H51.7698L52.0976 26.217H50.1228L50.4304 25.252H52.3988L52.7639 24.0618H46.8945L46.5354 25.252L46.5363 25.2529ZM28.7237 29.3417L29.2156 27.7314H31.2388L31.6084 26.5335H29.5835L29.8925 25.5423H31.8715L32.2379 24.3824H27.2868L26.9277 25.5423H28.0523L27.7526 26.5335H26.6247L26.2509 27.7517H27.3751L26.7189 29.8825C26.6306 30.1643 26.7608 30.2719 26.8431 30.403C26.9277 30.5305 27.0132 30.6151 27.2054 30.663C27.4036 30.7064 27.5392 30.7327 27.7241 30.7327H30.0047L30.4111 29.4059L29.4 29.5425C29.2046 29.5425 28.6639 29.5194 28.7232 29.3417H28.7237ZM28.9559 21.6321L28.4432 22.5433C28.3337 22.7427 28.2344 22.8657 28.1457 22.9227C28.0675 22.9706 27.9121 22.991 27.6873 22.991H27.4201L27.0624 24.1567H27.9507C28.3779 24.1567 28.7062 24.0025 28.8625 23.9257C29.0308 23.837 29.0754 23.8877 29.2051 23.7642L29.5049 23.5087H32.2793L32.6472 22.295H30.6167L30.9712 21.6321H28.9554H28.9559ZM33.0513 29.3652C33.0039 29.2983 33.038 29.1803 33.1102 28.9347L33.8684 26.4666H36.5656C36.9587 26.4612 37.2424 26.4566 37.4268 26.4435C37.6249 26.4227 37.8406 26.3535 38.0755 26.2283C38.3183 26.0971 38.442 25.9592 38.5468 25.8009C38.6636 25.6427 38.8517 25.2967 39.0126 24.7631L39.9658 21.6398L37.167 21.6556C37.167 21.6556 36.3049 21.7804 35.9255 21.9183C35.5425 22.0725 34.9958 22.5026 34.9958 22.5026L35.2487 21.6461H33.5198L31.099 29.542C31.013 29.8486 30.9556 30.0711 30.9422 30.2045C30.9376 30.3488 31.1266 30.4912 31.2494 30.5988C31.3942 30.7064 31.6085 30.6888 31.814 30.7064C32.0301 30.7223 32.3372 30.7322 32.7612 30.7322H34.09L34.4979 29.3779L33.3084 29.4882C33.181 29.4882 33.089 29.4213 33.0508 29.3648L33.0513 29.3652ZM34.3576 24.7993H37.1909L37.0106 25.3546C36.9849 25.3673 36.9247 25.327 36.6364 25.3605H34.1829L34.3571 24.7993H34.3576ZM34.9255 22.9371H37.7822L37.5767 23.6059C37.5767 23.6059 36.2299 23.5928 36.0143 23.6317C35.0652 23.7932 34.5112 24.2919 34.5112 24.2919L34.925 22.9371H34.9255ZM37.0745 27.2136C37.0511 27.2964 37.0139 27.347 36.9624 27.385C36.9049 27.4216 36.8116 27.4343 36.6727 27.4343H36.269L36.2929 26.7583H34.6137L34.5456 30.0639C34.5433 30.3022 34.5668 30.4401 34.7443 30.5509C34.9218 30.6888 35.4685 30.7064 36.2042 30.7064H37.2567L37.6364 29.4692L36.7205 29.5185L36.4157 29.5357C36.3738 29.5185 36.3343 29.5022 36.2901 29.4588C36.2515 29.4213 36.1862 29.4443 36.1968 29.2056L36.2042 28.3586L37.1647 28.3197C37.6834 28.3197 37.905 28.1538 38.0944 27.9955C38.2746 27.844 38.3339 27.6699 38.402 27.4343L38.5629 26.6841H37.2428L37.0745 27.2132V27.2136Z" fill="#FEFEFE"/>
</svg>
