<svg width="59" height="35" viewBox="0 0 59 35" fill="none" xmlns="http://www.w3.org/2000/svg">
<path d="M41.152 34.5181L42.0449 34.495L42.9259 34.4281L43.7903 34.3214L44.6428 34.1704L45.4851 33.9813L46.31 33.7512L47.111 33.4835L47.9018 33.176L48.6688 32.835L49.4141 32.4592L50.1415 32.0509L50.8418 31.6045L51.5232 31.1288L52.1784 30.626L52.8093 30.0892L53.4121 29.524L53.979 28.9307L54.5253 28.3102L55.0435 27.6672L55.5271 27.0016L55.9759 26.3083L56.3916 25.5925L56.7769 24.859L57.1249 24.1047L57.4317 23.327L57.7043 22.5397L57.9379 21.728L58.1319 20.9068L58.2846 20.062L58.3922 19.2119L58.4607 18.345L58.4846 17.4669L58.4607 16.595L58.3922 15.7331L58.2846 14.8888L58.1319 14.0509L57.9379 13.2342L57.7043 12.4288L57.4317 11.6398L57.1249 10.8683L56.7769 10.1199L56.3916 9.38597L55.9759 8.67556L55.5271 7.98233L55.0435 7.31804L54.5253 6.67365L53.979 6.0582L53.4121 5.46672L52.8093 4.90644L52.1784 4.36967L51.5232 3.86637L50.8418 3.39065L50.1415 2.95021L49.4141 2.54187L48.6688 2.16021L47.9018 1.82015L47.111 1.51672L46.31 1.24947L45.4851 1.0202L44.6428 0.829824L43.7903 0.678786L42.9259 0.572971L42.0449 0.506046L41.152 0.483887L40.2595 0.506046L39.3781 0.572971L38.5141 0.678786L37.6603 0.829824L36.8188 1.0202L35.9999 1.24947L35.193 1.51672L34.4081 1.82015L33.6411 2.16021L32.8958 2.54187L32.173 2.95021L31.4686 3.39065L30.7918 3.86637L30.1375 4.36967L29.5131 4.90644L28.9149 5.46672L28.3406 6.0582L27.7952 6.67365L27.283 7.31804L26.8012 7.98233L26.3515 8.67556L25.9358 9.38597L25.5546 10.1199L25.2139 10.8683L24.9013 11.6398L24.6277 12.4288L24.4001 13.2342L24.2074 14.0509L24.0534 14.8888L23.9449 15.7331L23.8768 16.595L23.8552 17.4669L23.8768 18.345L23.9449 19.2119L24.0534 20.062L24.2074 20.9068L24.4001 21.728L24.6277 22.5397L24.9013 23.327L25.2139 24.1047L25.5546 24.859L25.9358 25.5925L26.3515 26.3083L26.8012 27.0016L27.283 27.6672L27.7952 28.3102L28.3406 28.9307L28.9149 29.524L29.5131 30.0892L30.1375 30.626L30.7918 31.1288L31.4686 31.6045L32.173 32.0509L32.8958 32.4592L33.6411 32.835L34.4081 33.176L35.193 33.4835L35.9999 33.7512L36.8188 33.9813L37.6603 34.1704L38.5141 34.3214L39.3781 34.4281L40.2595 34.495L41.152 34.5181Z" fill="#EC1C2E"/>
<path d="M18.2019 34.5181L19.0953 34.495L19.9767 34.4281L20.8416 34.3214L21.6936 34.1704L22.5355 33.9813L23.3549 33.7512L24.1618 33.4835L24.9467 33.176L25.7145 32.835L26.459 32.4592L27.1809 32.0509L27.8862 31.6045L28.5621 31.1288L29.2159 30.626L29.8426 30.0892L30.4445 29.524L31.0137 28.9307L31.56 28.3102L32.0713 27.6672L32.5541 27.0016L33.0028 26.3083L33.4194 25.5925L33.7992 24.859L34.1468 24.1047L34.454 23.327L34.7262 22.5397L34.9547 21.728L35.1473 20.9068L35.3014 20.062L35.4085 19.2119L35.477 18.345L35.4995 17.4669L35.477 16.595L35.4085 15.7331L35.3014 14.8888L35.1473 14.0509L34.9547 13.2342L34.7262 12.4288L34.454 11.6398L34.1468 10.8683L33.7992 10.1199L33.4194 9.38597L33.0028 8.67556L32.5541 7.98233L32.0713 7.31804L31.56 6.67365L31.0137 6.0582L30.4445 5.46672L29.8426 4.90644L29.2159 4.36967L28.5621 3.86637L27.8862 3.39065L27.1809 2.95021L26.459 2.54187L25.7145 2.16021L24.9467 1.82015L24.1618 1.51672L23.3549 1.24947L22.5355 1.0202L21.6936 0.829824L20.8416 0.678786L19.9767 0.572971L19.0953 0.506046L18.2019 0.483887L17.3099 0.506046L16.428 0.572971L15.564 0.678786L14.7111 0.829824L13.8701 1.0202L13.0448 1.24947L12.2429 1.51672L11.4534 1.82015L10.686 2.16021L9.94021 2.54187L9.21234 2.95021L8.51299 3.39065L7.83065 3.86637L7.17728 4.36967L6.5455 4.90644L5.94869 5.46672L5.37486 6.0582L4.82815 6.67365L4.31179 7.31804L3.82764 7.98233L3.37886 8.67556L2.96275 9.38597L2.57697 10.1199L2.22983 10.8683L1.92315 11.6398L1.65048 12.4288L1.41829 13.2342L1.22288 14.0509L1.06976 14.8888L0.96215 15.7331L0.89318 16.595L0.871582 17.4669L0.89318 18.345L0.96215 19.2119L1.06976 20.062L1.22288 20.9068L1.41829 21.728L1.65048 22.5397L1.92315 23.327L2.22983 24.1047L2.57697 24.859L2.96275 25.5925L3.37886 26.3083L3.82764 27.0016L4.31179 27.6672L4.82815 28.3102L5.37486 28.9307L5.94869 29.524L6.5455 30.0892L7.17728 30.626L7.83065 31.1288L8.51299 31.6045L9.21234 32.0509L9.94021 32.4592L10.686 32.835L11.4534 33.176L12.2429 33.4835L13.0448 33.7512L13.8701 33.9813L14.7111 34.1704L15.564 34.3214L16.428 34.4281L17.3099 34.495L18.2019 34.5181Z" fill="#0084C4"/>
<path d="M27.5452 6.96452H36.3191V6.01489H28.3926L27.5452 6.96452Z" fill="#EC1C2E"/>
<path d="M26.1689 8.97761H36.319V8.03296H26.7837L26.1689 8.97761Z" fill="#EC1C2E"/>
<path d="M25.1392 11.0247H36.3192V10.0737H25.6123L25.1392 11.0247Z" fill="#EC1C2E"/>
<path d="M24.4695 13.0383H36.319V12.0928H24.7651L24.4695 13.0383Z" fill="#EC1C2E"/>
<path d="M24.0312 15.0567H36.319V14.1057H24.2074L24.0312 15.0567Z" fill="#EC1C2E"/>
<path d="M23.9394 18.9654H36.319V18.0144H23.8552L23.9394 18.9654Z" fill="#EC1C2E"/>
<path d="M24.2364 21.0963H36.319V20.1453H24.0598L24.2364 21.0963Z" fill="#EC1C2E"/>
<path d="M24.8222 22.825H36.319V21.874H24.5256L24.8222 22.825Z" fill="#EC1C2E"/>
<path d="M25.6968 24.9273H36.319V23.9763H25.231L25.6968 24.9273Z" fill="#EC1C2E"/>
<path d="M26.9322 27.0577H36.319V26.1072H26.283L26.9322 27.0577Z" fill="#EC1C2E"/>
<path d="M28.4776 29.1039H36.2335V28.1533H27.6306L28.4776 29.1039Z" fill="#EC1C2E"/>
<path d="M55.6348 27.9195L55.6863 27.768L55.7709 27.6283L55.8798 27.5048L56.0049 27.4035L56.1465 27.3257L56.3001 27.276L56.4656 27.2593L56.6353 27.276L56.7944 27.3257L56.9365 27.4035L57.062 27.5048L57.1641 27.6283L57.2432 27.768L57.2956 27.9195H57.1195L57.0845 27.8128L57.0224 27.6947L56.9425 27.5939L56.8459 27.5152L56.7314 27.4551L56.6008 27.4157L56.4656 27.4035L56.3286 27.4157L56.1971 27.4551L56.0835 27.5152L55.9819 27.5939L55.901 27.6947L55.8398 27.8128L55.8054 27.9195H55.6348Z" fill="#EC1C2E"/>
<path d="M56.1694 27.9197V27.7175H56.4924L56.5652 27.7225L56.6271 27.7288L56.6848 27.746L56.7292 27.7682L56.7645 27.7962L56.7919 27.8292L56.8098 27.8686L56.8158 27.9197H56.6678L56.6619 27.8912L56.6504 27.8686L56.6335 27.846L56.6115 27.8292L56.5826 27.8179L56.5551 27.8129L56.5263 27.8075H56.3165V27.9197H56.1694Z" fill="#EC1C2E"/>
<path d="M55.6228 28.0644L55.6347 27.9247V27.9197H55.8041L55.7987 27.9473L55.7863 28.0644H55.6228Z" fill="#EC1C2E"/>
<path d="M56.1694 28.0644V27.9197H56.3165V28.0368H56.5606L56.5936 28.0314L56.622 28.0192L56.6399 28.0088L56.6564 27.9866L56.6678 27.9586V27.9197H56.8158L56.8098 27.9694L56.7974 28.0146L56.781 28.0477L56.7645 28.0644H56.1694Z" fill="#EC1C2E"/>
<path d="M57.1356 28.0644L57.1251 27.9473L57.1196 27.9197H57.2946V27.9247L57.311 28.0644H57.1356Z" fill="#EC1C2E"/>
<path d="M55.6227 28.0642L55.6182 28.0913L55.6347 28.2591L55.6862 28.4165L55.7708 28.5512L55.8798 28.6733L56.0048 28.7687L56.1465 28.842L56.3 28.8859L56.4656 28.9035L56.6352 28.8859L56.7943 28.842L56.9364 28.7687L57.0619 28.6733L57.164 28.5512L57.2431 28.4165L57.2955 28.2591L57.3121 28.0913V28.0642H57.1355V28.0913L57.1249 28.2374L57.0845 28.3717L57.0224 28.4893L56.9424 28.5901L56.8458 28.6733L56.7313 28.7357L56.6007 28.7742L56.4656 28.7855L56.3285 28.7742L56.197 28.7357L56.0835 28.6733L55.9819 28.5901L55.9009 28.4893L55.8398 28.3717L55.7998 28.2374L55.7874 28.0913V28.0642H55.6227Z" fill="#EC1C2E"/>
<path d="M56.1694 28.0642V28.4106H56.3165V28.1262H56.4644L56.6399 28.4106H56.7874L56.5767 28.1262L56.6271 28.1203L56.6784 28.1144L56.7191 28.0972L56.7531 28.0755L56.7645 28.0642H56.1694Z" fill="#EC1C2E"/>
<path d="M37.4042 16.0357L37.2911 16.0303L37.1776 16.019L37.0741 16.0018L36.973 15.9919L36.8709 15.9738L36.7683 15.9571L36.6603 15.9403L36.5467 15.9236L36.4272 15.9118L36.3012 15.901L36.1591 15.8901L36.0055 15.8838H35.8354L35.6478 15.8901L35.4372 15.901L35.2105 15.9177L35.045 15.9403L34.8914 15.9738L34.7503 16.019L34.6248 16.0697L34.5107 16.1303L34.4082 16.1985L34.3227 16.2759L34.2551 16.3541L34.2036 16.4441L34.17 16.5381L34.1521 16.6336V16.734L34.176 16.8407L34.2155 16.9465L34.2776 17.0532L34.3567 17.1599L34.5218 17.3055L34.7149 17.4227L34.9434 17.523L35.1876 17.6063L35.4432 17.6904L35.7113 17.7749L35.983 17.8699L36.2451 17.9825L36.4897 18.1159L36.7233 18.2782L36.927 18.4858L37.0976 18.7313L37.2281 19.033L37.3141 19.3911L37.3436 19.8162L37.3141 20.3195L37.2511 20.6934L37.1481 21.0294L37.0185 21.3315L36.8525 21.5992L36.6603 21.8344L36.4497 22.036L36.2157 22.2092L35.9669 22.3603L35.7039 22.4833L35.4322 22.5832L35.1531 22.6682L34.874 22.7293L34.5963 22.774L34.3227 22.8021L34.0624 22.8193L33.8059 22.8251H33.4518L33.1346 22.8193L32.8449 22.8134L32.5782 22.8079L32.3331 22.7971L32.117 22.7853L31.9124 22.7695L31.7303 22.746L31.5602 22.7238L31.4007 22.6954L31.2517 22.6682L31.1055 22.6289L30.9689 22.5895L30.8319 22.5506L30.6958 22.5005L30.5537 22.4498L30.9055 20.6934L30.9854 20.7111L31.0816 20.7382L31.2016 20.7662L31.3321 20.7997L31.4853 20.8282L31.6558 20.8675L31.8379 20.9001L32.032 20.934L32.2361 20.9621L32.4522 20.9905L32.6748 21.0122L32.9069 21.0349L33.141 21.0457L33.3801 21.0511H33.6187L33.8624 21.0398L34.09 21.0014L34.2776 20.9399L34.4197 20.8508L34.5328 20.7504L34.6188 20.6315L34.6809 20.5099L34.7324 20.3864L34.7664 20.2634L34.7834 20.135L34.7779 20.0224L34.7503 19.9166L34.7034 19.8275L34.6418 19.7375L34.5618 19.6593L34.4652 19.586L34.3567 19.5191L34.2376 19.4585L34.107 19.3965L33.9659 19.3355L33.8164 19.2794L33.6688 19.2233L33.5102 19.1614L33.3507 19.1003L33.1861 19.033L33.027 18.9656L32.8679 18.8932L32.7079 18.8091L32.5543 18.72L32.4067 18.6246L32.2697 18.5179L32.14 18.3949L32.0209 18.2674L31.9124 18.1213L31.8158 17.9649L31.7359 17.7912L31.6683 17.6063L31.6218 17.4L31.5938 17.1762L31.5873 16.9298L31.6053 16.6666L31.6218 16.5051L31.6453 16.3478L31.6683 16.1985L31.7014 16.0525L31.7359 15.9118L31.7759 15.7726L31.8269 15.6441L31.8779 15.5153L31.9404 15.3977L32.0034 15.2806L32.077 15.1743L32.157 15.068L32.2421 14.9676L32.3331 14.8718L32.4292 14.7822L32.5368 14.6986L32.6504 14.6208L32.7708 14.548L32.901 14.4806L33.0385 14.4137L33.1796 14.3576L33.3327 14.302L33.4937 14.2572L33.6629 14.2116L33.8454 14.1731L34.033 14.1401L34.227 14.1121L34.4312 14.089L34.6464 14.0727L34.874 14.0619L35.1085 14.051H35.6533L35.9269 14.0551L36.1711 14.0619L36.3982 14.0727L36.5982 14.084L36.7798 14.0953L36.9444 14.1121L37.087 14.1229L37.218 14.1401L37.3311 14.1564L37.4396 14.1672L37.5298 14.1844L37.6102 14.1957L37.6843 14.2061L37.7514 14.2179L37.8148 14.2238L37.4042 16.0357Z" fill="white"/>
<path d="M39.2747 12.2942H41.5617L41.2086 14.2522H42.6137L42.2946 16.0357L40.8568 16.0068L40.1005 20.4646L40.089 20.5591V20.6428L40.1005 20.7165L40.1234 20.7834L40.157 20.8395L40.1956 20.8956L40.2481 20.9399L40.3051 20.9724L40.3736 21.0072L40.4425 21.0348L40.5207 21.0574L40.6007 21.0692L40.6922 21.0859L40.7833 21.0905L40.8789 21.0963H41.158L41.3171 21.0859L41.4647 21.0633L41.5907 21.0348L41.6868 21.0072L41.7613 20.9788L41.8059 20.9561L41.8229 20.9516L41.5907 22.4774L41.5341 22.5113L41.4711 22.5398L41.4086 22.5674L41.3451 22.5954L41.2831 22.6175L41.2132 22.6402L41.1465 22.6619L41.0674 22.6845L40.9869 22.7066L40.9014 22.7238L40.8049 22.7405L40.7033 22.7564L40.5947 22.774L40.4816 22.7903L40.3501 22.8079L40.214 22.8251H39.5993L39.2747 22.802L38.985 22.7695L38.7303 22.7238L38.5077 22.6619L38.3192 22.5954L38.1615 22.5113L38.0304 22.4172L37.9228 22.3096L37.8369 22.192L37.7739 22.0631L37.7348 21.9234L37.7123 21.7679L37.7058 21.606L37.7123 21.4269L37.7288 21.2415L37.7578 21.0398L39.2747 12.2942Z" fill="white"/>
<path d="M25.3786 19.0827L25.3492 19.2233L25.3446 19.3635L25.3565 19.5136L25.3901 19.6592L25.4351 19.8107L25.5037 19.9608L25.5832 20.1065L25.6798 20.2462L25.7883 20.3805L25.9138 20.5098L26.0435 20.622L26.1865 20.7273L26.3387 20.8169L26.4987 20.8901L26.6697 20.9453L26.8389 20.9846L27.0449 21.0122L27.2495 21.0398L27.4592 21.0633L27.6698 21.0737L27.8863 21.0791H28.0965L28.319 21.0692L28.5342 21.0511L28.7558 21.0185L28.9834 20.9788L29.211 20.9227L29.4386 20.8508L29.6658 20.7662L29.9058 20.6663L30.1375 20.5433L30.3775 20.4085L30.0249 22.3941L29.8934 22.4611L29.7619 22.5221L29.6428 22.5737L29.5182 22.6175L29.3931 22.6619L29.268 22.6953L29.137 22.7238L28.9949 22.7518L28.8482 22.7695L28.6873 22.7853L28.5121 22.802L28.3245 22.8079L28.1195 22.8192H27.8909L27.6413 22.8251H27.17L26.9654 22.8133L26.7658 22.802L26.5612 22.7799L26.3515 22.7518L26.1465 22.7179L25.9414 22.6741L25.7377 22.6288L25.5377 22.5673L25.3395 22.5054L25.1455 22.433L24.9519 22.3498L24.7652 22.254L24.5822 22.1531L24.4126 22.0414L24.2411 21.9189L24.0829 21.7841L23.9288 21.639L23.7808 21.4821L23.6498 21.3143L23.5247 21.1298L23.412 20.9399L23.309 20.7337L23.218 20.5148L23.138 20.281L23.0759 20.0336L23.0244 19.7768L22.9904 19.4969L22.9692 19.2061V18.9045L22.9789 18.5807L23.0074 18.2434L23.0244 18.1272L23.0414 17.9929L23.0653 17.8581L23.0929 17.7138L23.1205 17.5619L23.1614 17.4054L23.207 17.2436L23.252 17.0758L23.309 16.9017L23.3711 16.7339L23.4456 16.5612L23.5247 16.3875L23.6153 16.2143L23.7123 16.0411L23.8203 15.8689L23.9334 15.7002L24.0649 15.5383L24.2015 15.3759L24.3491 15.2186L24.5137 15.0734L24.6848 14.9283L24.8728 14.7944L25.0719 14.6705L25.288 14.5534L25.5147 14.4525L25.7588 14.3576L26.015 14.2739L26.2872 14.2061L26.5787 14.1514L26.8853 14.112L27.204 14.089L27.5452 14.0781H27.7052L27.8633 14.089L28.0289 14.1003L28.1935 14.117L28.3572 14.1401L28.5291 14.1731L28.6933 14.2115L28.8588 14.2572L29.0225 14.3069L29.1885 14.3689L29.348 14.4354L29.5012 14.515L29.6497 14.604L29.7973 14.6985L29.9324 14.8111L30.0704 14.9283L30.1945 15.0567L30.3136 15.1973L30.4221 15.3529L30.5192 15.5152L30.6102 15.6943L30.6897 15.8838L30.7573 16.0918L30.8079 16.3102L30.8543 16.5449L30.8828 16.7895L30.8948 17.0532V17.3326L30.8773 17.6293L30.8493 17.9422L30.7982 18.2723L30.7288 18.6192L30.6392 19.1112H24.7312L25.0834 17.5565H28.6262L28.6427 17.3439V17.1481L28.6312 16.9641L28.5976 16.7954L28.5521 16.6457L28.4946 16.5051L28.4206 16.3817L28.3356 16.27L28.2385 16.1696L28.13 16.0864L28.0165 16.019L27.8974 15.9625L27.7668 15.9177L27.6307 15.8838L27.4886 15.8689L27.3401 15.8616H27.181L27.0334 15.8838L26.8853 15.9118L26.7488 15.957L26.6182 16.019L26.4931 16.0918L26.3741 16.175L26.2655 16.27L26.1635 16.3817L26.0729 16.4997L25.9864 16.6281L25.9074 16.7683L25.8398 16.9134L25.7827 17.0699L25.7377 17.2386L25.6968 17.4113L25.3786 19.0827Z" fill="white"/>
<path d="M22.2184 21.0397L21.8934 22.825H19.8413L19.8638 22.6563L19.8854 22.4886L19.9084 22.3384L19.9309 22.1978L19.9539 22.0798L19.9709 21.9803L19.9939 21.9129L20.0169 21.874L19.9084 21.9966L19.7718 22.1191L19.6196 22.2376L19.4426 22.3497L19.255 22.4556L19.05 22.5559L18.8338 22.6459L18.6118 22.7291L18.3791 22.8019L18.1405 22.8644L17.9009 22.9078L17.6632 22.9417L17.4236 22.9589L17.191 22.9643L16.9634 22.948L16.7422 22.9136L16.4512 22.8472L16.196 22.7563L15.9633 22.6505L15.7578 22.5333L15.5766 22.4049L15.4221 22.2598L15.286 22.1087L15.1725 21.9414L15.0754 21.7736L14.9963 21.5991L14.9333 21.42L14.8818 21.2364L14.8492 21.0573L14.8244 20.8728L14.8143 20.6933L14.8074 20.5206L14.8313 20.2077L14.8818 19.911L14.9563 19.6248L15.0639 19.3571L15.1945 19.1061L15.3421 18.8709L15.5191 18.6525L15.7067 18.4454L15.9178 18.2609L16.1385 18.099L16.3776 17.9489L16.6282 17.8191L16.8893 17.7079L17.1569 17.6174L17.4287 17.5514L17.7078 17.5003H17.7197L17.7598 17.4953L17.8218 17.4886L17.906 17.4782L18.0039 17.4668L18.1175 17.456L18.2439 17.4388L18.3791 17.4289L18.5161 17.4167L18.6527 17.3999L18.7943 17.3882L18.9309 17.3773L19.0555 17.366L19.1746 17.3606L19.284 17.3556H19.6647L19.7672 17.3606H19.8638L19.9539 17.366H20.136L20.216 17.3719H20.29L20.3526 17.3773H20.4096L20.4542 17.3836H20.5172L20.5351 17.3271L20.5737 17.1937L20.6032 17.0359V16.8971L20.5912 16.7953L20.5737 16.7008L20.5452 16.6108L20.5057 16.5276L20.4606 16.4489L20.4036 16.377L20.3466 16.3101L20.2781 16.2423L20.2045 16.1867L20.13 16.1414L20.0436 16.0967L19.9599 16.0573L19.8693 16.0302L19.7718 16.0067L19.6748 15.9918L19.5783 15.9796L19.3461 15.9737L19.1005 15.9796L18.844 15.985L18.5842 16.0017L18.3221 16.0189L18.0605 16.041L17.7998 16.0695L17.5436 16.0967L17.299 16.1356L17.0664 16.1695L16.8558 16.2088L16.6567 16.2531L16.4797 16.2979L16.3316 16.3422L16.2116 16.3874L16.1279 16.4376L16.7128 14.5366L16.8834 14.4588L17.0664 14.3864L17.2471 14.324L17.4407 14.2738L17.6407 14.2345L17.8448 14.201L18.0605 14.173L18.2821 14.1513L18.5106 14.14L18.7433 14.1282L18.9814 14.1228H19.7548L20.0284 14.1282L20.313 14.1346L20.5452 14.1563L20.7908 14.1897L21.0455 14.2521L21.3012 14.324L21.5582 14.419L21.8147 14.5366L22.052 14.6704L22.2796 14.8278L22.4902 15.006L22.6778 15.2018L22.8378 15.4202L22.9619 15.6598L23.0525 15.9235L23.104 16.2088L23.1105 16.5104L23.0654 16.8405L22.2184 21.0397Z" fill="white"/>
<path d="M20.255 18.9378L20.2495 18.893L20.2159 18.8591L20.1584 18.8315L20.0853 18.8152L19.9883 18.8035L19.8853 18.7976H19.6416L19.511 18.8089L19.3745 18.8256L19.2435 18.8419L19.1129 18.8654L18.9878 18.8867L18.8678 18.9093L18.7662 18.9378L18.6747 18.9654L18.6232 18.9767L18.5551 18.9984L18.471 19.0273L18.379 19.0658L18.282 19.106L18.174 19.1558L18.0659 19.2173L17.9588 19.2792L17.8503 19.357L17.7477 19.442L17.6503 19.5302L17.5666 19.6324L17.4857 19.7373L17.4286 19.8558L17.3845 19.9833L17.3555 20.1176L17.3445 20.3916L17.3845 20.6042L17.4521 20.7719L17.5542 20.8954L17.6797 20.9786L17.8103 21.0347L17.9523 21.0631L18.0894 21.069L18.3395 21.0631L18.562 21.0396L18.7717 21.0012L18.9593 20.9515L19.1299 20.8954L19.2839 20.828L19.4191 20.7502L19.5386 20.6661L19.6462 20.582L19.7377 20.487L19.8177 20.397L19.8853 20.3025L19.9428 20.2076L19.9883 20.1176L20.0228 20.029L20.0509 19.9444L20.0798 19.8209L20.1074 19.6916L20.1359 19.5582L20.1653 19.418L20.1865 19.2846L20.2104 19.1612L20.2329 19.0441L20.255 18.9378Z" fill="#0084C4"/>
<path d="M5.05678 22.8251H2.83228L4.7032 12.2942H8.57009L8.95127 18.5631L11.5836 12.2942H15.5986L13.7226 22.8251H11.499L12.9028 14.9391H12.8173L9.50855 22.8251H7.01827L6.99528 22.4941L6.9438 21.6164L6.86975 20.3746L6.78471 18.9497L6.70009 17.5113L6.62607 16.2424L6.57412 15.3249L6.55158 14.9391H6.43802H6.46101L5.05678 22.8251Z" fill="white"/>
<path d="M42.2046 22.825H44.5192L45.3092 18.2781L45.3432 18.099L45.3832 17.9253L45.4283 17.7522L45.4853 17.5907L45.5473 17.4288L45.6274 17.2769L45.7234 17.1317L45.832 16.9924L45.9634 16.8681L46.1101 16.7559L46.2867 16.656L46.4798 16.5665L46.7083 16.4937L46.9635 16.4376L47.2477 16.4046L47.5659 16.3815H47.5944L47.6288 16.3874L47.6748 16.3928H47.7194L47.7603 16.3983L47.7935 16.4046L47.8164 16.41H47.8284L47.8344 16.377L47.8565 16.2811L47.8854 16.1355L47.9305 15.9515L47.9875 15.7453L48.0496 15.5205L48.1241 15.2971L48.2082 15.0855L48.2716 14.9281L48.3452 14.7771L48.4188 14.6265L48.4988 14.4868L48.5673 14.3688L48.6243 14.2738L48.6634 14.2114L48.6758 14.1897H48.6634L48.6354 14.1784L48.5958 14.173L48.5379 14.1617L48.4813 14.1513L48.4128 14.1454L48.3517 14.1345H48.2946L48.044 14.1513L47.8164 14.1784L47.6068 14.2236L47.4123 14.2738L47.2307 14.3403L47.0665 14.4135L46.9074 14.5026L46.7654 14.5985L46.6219 14.7052L46.4913 14.8219L46.3722 14.9449L46.2462 15.0783L46.1281 15.2185L46.014 15.3704L45.8945 15.5269L45.7759 15.6887L46.0425 14.2521L43.7284 14.2236L42.2046 22.825Z" fill="white"/>
<path d="M52.2175 14.1345L52.4732 14.1399L52.7238 14.1562L52.9684 14.1784L53.207 14.2114L53.4346 14.2571L53.6553 14.3127L53.8668 14.3751L54.076 14.4465L54.2756 14.5307L54.4632 14.6206L54.6508 14.7156L54.8214 14.8219L54.9929 14.939L55.151 15.062L55.3005 15.1909L55.4416 15.3311L55.5777 15.4762L55.7023 15.6327L55.8178 15.79L55.9253 15.9569L56.0265 16.1301L56.1125 16.3155L56.1971 16.4995L56.2665 16.6944L56.3286 16.8912L56.3792 17.0983L56.4247 17.3108L56.4601 17.5283L56.4817 17.7463L56.4937 17.976L56.4992 18.2107L56.4937 18.4454L56.4762 18.7312L56.4426 19.0057L56.4022 19.2675L56.3507 19.5248L56.295 19.7712L56.2201 20.0055L56.141 20.2357L56.0555 20.4523L55.9529 20.6598L55.8513 20.861L55.7309 21.051L55.6122 21.23L55.4812 21.4037L55.3387 21.5656L55.1915 21.7171L55.0384 21.8627L54.8784 21.9965L54.7138 22.1259L54.5377 22.2421L54.3611 22.3497L54.1735 22.4496L53.979 22.5396L53.7868 22.6233L53.5818 22.6952L53.3781 22.7621L53.161 22.8191L52.9454 22.8643L52.7284 22.9027L52.5017 22.9312L52.275 22.9525L52.0414 22.9642L51.8074 22.9697L51.5743 22.9642L51.3412 22.9525L51.12 22.9312L50.8983 22.8969L50.6827 22.8575L50.4657 22.8132L50.2611 22.7562L50.0629 22.6907L49.8629 22.6174L49.6757 22.5333L49.4941 22.4442L49.3176 22.3438L49.1479 22.2376L48.9879 22.1191L48.8288 21.9965L48.6812 21.8627L48.5442 21.722L48.4072 21.5719L48.2876 21.4155L48.169 21.2477L48.066 21.0736L47.9639 20.89L47.8793 20.6987L47.7988 20.5034L47.7308 20.2967L47.6683 20.0792L47.6172 19.8558L47.5781 19.6247L47.5496 19.3855L47.5326 19.1386L47.5271 18.8822L47.5326 18.619L47.5496 18.3509L47.5781 18.0931L47.6172 17.8412L47.6683 17.6011L47.7253 17.366L47.7933 17.1362L47.8669 16.9187L47.9524 16.7067L48.0439 16.4995L48.1451 16.3037L48.2591 16.1188L48.3796 15.9352L48.5051 15.7674L48.6403 15.5992L48.7833 15.4477L48.9309 15.2971L49.0899 15.157L49.255 15.0285L49.4247 14.906L49.6017 14.7943L49.7884 14.693L49.9829 14.5935L50.1815 14.5085L50.3811 14.4303L50.5917 14.3642L50.8064 14.3018L51.0289 14.2521L51.2565 14.206L51.4897 14.1784L51.7278 14.1513L51.9729 14.1399L52.2175 14.1345Z" fill="white"/>
<path d="M55.6182 22.394H56.287V22.4773H56.0249V23.0253H55.8788V22.4773H55.6182V22.394Z" fill="white"/>
<path d="M56.3745 22.394H56.5782L56.8182 22.8806L57.0504 22.394H57.2555V23.0253H57.107V22.5397L56.8743 23.0253H56.7552L56.5207 22.5397V23.0253H56.3745V22.394Z" fill="white"/>
<path d="M50.4036 18.2433L50.3695 18.5571L50.3521 18.8484V19.1111L50.3695 19.3571L50.4036 19.5809L50.4532 19.7767L50.518 19.9558L50.5967 20.1177L50.6932 20.2565L50.8013 20.3745L50.9204 20.4749L51.0523 20.5545L51.1935 20.6147L51.353 20.6599L51.5172 20.6825L51.6947 20.6933L51.8873 20.6884L52.0758 20.6662L52.2519 20.6264L52.4221 20.5658L52.5816 20.4871L52.7347 20.3863L52.8768 20.2678L53.0134 20.1281L53.1325 19.9725L53.2474 19.7926L53.3541 19.5913L53.4456 19.3738L53.5311 19.1341L53.6047 18.871L53.6626 18.5852L53.7132 18.2781L53.7412 18.0371L53.7582 17.8078V17.5844L53.7412 17.3719L53.7132 17.1761L53.6676 16.9857L53.6047 16.8125L53.5311 16.6506L53.4401 16.505L53.3375 16.3816L53.218 16.2699L53.0874 16.1808L52.9398 16.1075L52.7802 16.0628L52.6101 16.0356H52.4221L52.189 16.0524L51.9728 16.0917L51.7737 16.1582L51.5857 16.2423L51.4156 16.354L51.2565 16.477L51.1144 16.6163L50.9884 16.7741L50.8698 16.9414L50.7677 17.1205L50.6753 17.2986L50.6026 17.4886L50.5341 17.679L50.478 17.8698L50.4371 18.0602L50.4036 18.2433Z" fill="#EC1C2E"/>
</svg>
