<svg width="241" height="36" viewBox="0 0 241 36" fill="none" xmlns="http://www.w3.org/2000/svg">
<path d="M15 0.757812V35H9.35156V7.46094L0.984375 10.2969V5.63281L14.3203 0.757812H15ZM49.1719 25.6953C49.1719 27.8203 48.6797 29.6094 47.6953 31.0625C46.7109 32.5156 45.3672 33.6172 43.6641 34.3672C41.9766 35.1016 40.0703 35.4688 37.9453 35.4688C35.8203 35.4688 33.9062 35.1016 32.2031 34.3672C30.5 33.6172 29.1562 32.5156 28.1719 31.0625C27.1875 29.6094 26.6953 27.8203 26.6953 25.6953C26.6953 24.2891 26.9688 23.0156 27.5156 21.875C28.0625 20.7188 28.8359 19.7266 29.8359 18.8984C30.8516 18.0547 32.0391 17.4062 33.3984 16.9531C34.7734 16.5 36.2734 16.2734 37.8984 16.2734C40.0547 16.2734 41.9844 16.6719 43.6875 17.4688C45.3906 18.2656 46.7266 19.3672 47.6953 20.7734C48.6797 22.1797 49.1719 23.8203 49.1719 25.6953ZM43.5 25.4141C43.5 24.2734 43.2656 23.2734 42.7969 22.4141C42.3281 21.5547 41.6719 20.8906 40.8281 20.4219C39.9844 19.9531 39.0078 19.7188 37.8984 19.7188C36.7734 19.7188 35.7969 19.9531 34.9688 20.4219C34.1406 20.8906 33.4922 21.5547 33.0234 22.4141C32.5703 23.2734 32.3438 24.2734 32.3438 25.4141C32.3438 26.5703 32.5703 27.5703 33.0234 28.4141C33.4766 29.2422 34.125 29.875 34.9688 30.3125C35.8125 30.75 36.8047 30.9688 37.9453 30.9688C39.0859 30.9688 40.0703 30.75 40.8984 30.3125C41.7266 29.875 42.3672 29.2422 42.8203 28.4141C43.2734 27.5703 43.5 26.5703 43.5 25.4141ZM48.3984 9.85156C48.3984 11.5547 47.9453 13.0703 47.0391 14.3984C46.1484 15.7266 44.9141 16.7734 43.3359 17.5391C41.7578 18.2891 39.9609 18.6641 37.9453 18.6641C35.9141 18.6641 34.1016 18.2891 32.5078 17.5391C30.9297 16.7734 29.6875 15.7266 28.7812 14.3984C27.8906 13.0703 27.4453 11.5547 27.4453 9.85156C27.4453 7.82031 27.8906 6.10938 28.7812 4.71875C29.6875 3.3125 30.9297 2.24219 32.5078 1.50781C34.0859 0.773438 35.8906 0.40625 37.9219 0.40625C39.9531 0.40625 41.7578 0.773438 43.3359 1.50781C44.9141 2.24219 46.1484 3.3125 47.0391 4.71875C47.9453 6.10938 48.3984 7.82031 48.3984 9.85156ZM42.75 10.0391C42.75 9.02344 42.5469 8.13281 42.1406 7.36719C41.75 6.58594 41.1953 5.97656 40.4766 5.53906C39.7578 5.10156 38.9062 4.88281 37.9219 4.88281C36.9375 4.88281 36.0859 5.09375 35.3672 5.51562C34.6484 5.9375 34.0938 6.53125 33.7031 7.29688C33.3125 8.0625 33.1172 8.97656 33.1172 10.0391C33.1172 11.0859 33.3125 12 33.7031 12.7812C34.0938 13.5469 34.6484 14.1484 35.3672 14.5859C36.1016 15.0234 36.9609 15.2422 37.9453 15.2422C38.9297 15.2422 39.7812 15.0234 40.5 14.5859C41.2188 14.1484 41.7734 13.5469 42.1641 12.7812C42.5547 12 42.75 11.0859 42.75 10.0391ZM77.6484 22.8359V27.3359H53.0391L52.8516 23.9375L67.5703 0.875H72.0938L67.1953 9.26562L58.7344 22.8359H77.6484ZM73.3828 0.875V35H67.7344V0.875H73.3828ZM98.4844 0.664062H99.1875V5.28125H98.7891C96.7734 5.28125 95.0312 5.59375 93.5625 6.21875C92.1094 6.84375 90.9141 7.70312 89.9766 8.79688C89.0391 9.89062 88.3359 11.1719 87.8672 12.6406C87.4141 14.0938 87.1875 15.6406 87.1875 17.2812V22.6484C87.1875 24.0078 87.3359 25.2109 87.6328 26.2578C87.9297 27.2891 88.3438 28.1562 88.875 28.8594C89.4219 29.5469 90.0469 30.0703 90.75 30.4297C91.4531 30.7891 92.2109 30.9688 93.0234 30.9688C93.8672 30.9688 94.6328 30.7969 95.3203 30.4531C96.0078 30.0938 96.5938 29.6016 97.0781 28.9766C97.5625 28.3516 97.9297 27.6094 98.1797 26.75C98.4297 25.8906 98.5547 24.9531 98.5547 23.9375C98.5547 22.9688 98.4297 22.0625 98.1797 21.2188C97.9453 20.3594 97.5938 19.6094 97.125 18.9688C96.6562 18.3125 96.0703 17.8047 95.3672 17.4453C94.6797 17.0703 93.8828 16.8828 92.9766 16.8828C91.8516 16.8828 90.8281 17.1484 89.9062 17.6797C89 18.2109 88.2656 18.9062 87.7031 19.7656C87.1562 20.6094 86.8594 21.5078 86.8125 22.4609L84.6562 21.7578C84.7812 20.3047 85.1016 19 85.6172 17.8438C86.1484 16.6875 86.8438 15.7031 87.7031 14.8906C88.5625 14.0781 89.5547 13.4609 90.6797 13.0391C91.8203 12.6016 93.0703 12.3828 94.4297 12.3828C96.0859 12.3828 97.5234 12.6953 98.7422 13.3203C99.9609 13.9453 100.969 14.7969 101.766 15.875C102.578 16.9375 103.18 18.1562 103.57 19.5312C103.977 20.8906 104.18 22.3125 104.18 23.7969C104.18 25.4375 103.93 26.9688 103.43 28.3906C102.93 29.7969 102.195 31.0312 101.227 32.0938C100.273 33.1562 99.1094 33.9844 97.7344 34.5781C96.375 35.1719 94.8281 35.4688 93.0938 35.4688C91.2656 35.4688 89.6328 35.1172 88.1953 34.4141C86.7734 33.7109 85.5625 32.7422 84.5625 31.5078C83.5781 30.2734 82.8281 28.8516 82.3125 27.2422C81.7969 25.6328 81.5391 23.9297 81.5391 22.1328V19.7891C81.5391 17.1953 81.8672 14.75 82.5234 12.4531C83.1797 10.1406 84.1875 8.10156 85.5469 6.33594C86.9219 4.57031 88.6797 3.1875 90.8203 2.1875C92.9609 1.17188 95.5156 0.664062 98.4844 0.664062ZM132.211 22.8359V27.3359H107.602L107.414 23.9375L122.133 0.875H126.656L121.758 9.26562L113.297 22.8359H132.211ZM127.945 0.875V35H122.297V0.875H127.945ZM141.914 19.1328L137.414 18.0312L139.266 0.875H157.664V5.65625H143.953L143.016 14.0234C143.547 13.7109 144.281 13.4062 145.219 13.1094C146.156 12.7969 147.227 12.6406 148.43 12.6406C150.039 12.6406 151.477 12.9062 152.742 13.4375C154.023 13.9531 155.109 14.7109 156 15.7109C156.891 16.6953 157.57 17.8984 158.039 19.3203C158.508 20.7266 158.742 22.3125 158.742 24.0781C158.742 25.6562 158.508 27.1328 158.039 28.5078C157.586 29.8828 156.898 31.0938 155.977 32.1406C155.055 33.1875 153.891 34.0078 152.484 34.6016C151.094 35.1797 149.445 35.4688 147.539 35.4688C146.117 35.4688 144.75 35.2656 143.438 34.8594C142.141 34.4375 140.977 33.8203 139.945 33.0078C138.914 32.1797 138.086 31.1641 137.461 29.9609C136.836 28.7422 136.477 27.3438 136.383 25.7656H141.914C142.055 26.875 142.359 27.8203 142.828 28.6016C143.312 29.3672 143.953 29.9531 144.75 30.3594C145.547 30.7656 146.469 30.9688 147.516 30.9688C148.469 30.9688 149.289 30.8047 149.977 30.4766C150.664 30.1328 151.234 29.6484 151.688 29.0234C152.156 28.3828 152.5 27.6328 152.719 26.7734C152.953 25.9141 153.07 24.9609 153.07 23.9141C153.07 22.9141 152.938 22 152.672 21.1719C152.422 20.3438 152.039 19.625 151.523 19.0156C151.023 18.4062 150.391 17.9375 149.625 17.6094C148.859 17.2656 147.977 17.0938 146.977 17.0938C145.633 17.0938 144.602 17.2891 143.883 17.6797C143.18 18.0703 142.523 18.5547 141.914 19.1328ZM167.812 30.5469H168.281C170.438 30.5469 172.234 30.2656 173.672 29.7031C175.125 29.125 176.281 28.3281 177.141 27.3125C178 26.2969 178.617 25.1016 178.992 23.7266C179.367 22.3516 179.555 20.8594 179.555 19.25V13.3672C179.555 11.9766 179.406 10.7578 179.109 9.71094C178.828 8.64844 178.422 7.76562 177.891 7.0625C177.375 6.34375 176.773 5.80469 176.086 5.44531C175.414 5.08594 174.688 4.90625 173.906 4.90625C173.047 4.90625 172.273 5.10156 171.586 5.49219C170.914 5.86719 170.344 6.39062 169.875 7.0625C169.422 7.71875 169.07 8.49219 168.82 9.38281C168.586 10.2578 168.469 11.1953 168.469 12.1953C168.469 13.1328 168.578 14.0391 168.797 14.9141C169.031 15.7734 169.375 16.5391 169.828 17.2109C170.281 17.8828 170.852 18.4141 171.539 18.8047C172.227 19.1953 173.031 19.3906 173.953 19.3906C174.828 19.3906 175.633 19.2266 176.367 18.8984C177.102 18.5547 177.742 18.0938 178.289 17.5156C178.836 16.9375 179.266 16.2891 179.578 15.5703C179.891 14.8516 180.062 14.1172 180.094 13.3672L182.25 14.0234C182.25 15.2109 182 16.3828 181.5 17.5391C181.016 18.6797 180.336 19.7266 179.461 20.6797C178.602 21.6172 177.594 22.3672 176.438 22.9297C175.297 23.4922 174.055 23.7734 172.711 23.7734C171.086 23.7734 169.648 23.4688 168.398 22.8594C167.164 22.2344 166.133 21.3906 165.305 20.3281C164.492 19.2656 163.883 18.0469 163.477 16.6719C163.07 15.2969 162.867 13.8516 162.867 12.3359C162.867 10.6953 163.117 9.15625 163.617 7.71875C164.117 6.28125 164.844 5.01562 165.797 3.92188C166.75 2.8125 167.906 1.95312 169.266 1.34375C170.641 0.71875 172.195 0.40625 173.93 0.40625C175.773 0.40625 177.391 0.765625 178.781 1.48438C180.172 2.20313 181.344 3.19531 182.297 4.46094C183.25 5.72656 183.969 7.19531 184.453 8.86719C184.938 10.5391 185.18 12.3359 185.18 14.2578V16.25C185.18 18.2656 185 20.2109 184.641 22.0859C184.281 23.9453 183.695 25.6719 182.883 27.2656C182.086 28.8438 181.031 30.2344 179.719 31.4375C178.422 32.625 176.828 33.5547 174.938 34.2266C173.062 34.8828 170.859 35.2109 168.328 35.2109H167.812V30.5469ZM214.055 22.8359V27.3359H189.445L189.258 23.9375L203.977 0.875H208.5L203.602 9.26562L195.141 22.8359H214.055ZM209.789 0.875V35H204.141V0.875H209.789ZM234.891 0.664062H235.594V5.28125H235.195C233.18 5.28125 231.438 5.59375 229.969 6.21875C228.516 6.84375 227.32 7.70312 226.383 8.79688C225.445 9.89062 224.742 11.1719 224.273 12.6406C223.82 14.0938 223.594 15.6406 223.594 17.2812V22.6484C223.594 24.0078 223.742 25.2109 224.039 26.2578C224.336 27.2891 224.75 28.1562 225.281 28.8594C225.828 29.5469 226.453 30.0703 227.156 30.4297C227.859 30.7891 228.617 30.9688 229.43 30.9688C230.273 30.9688 231.039 30.7969 231.727 30.4531C232.414 30.0938 233 29.6016 233.484 28.9766C233.969 28.3516 234.336 27.6094 234.586 26.75C234.836 25.8906 234.961 24.9531 234.961 23.9375C234.961 22.9688 234.836 22.0625 234.586 21.2188C234.352 20.3594 234 19.6094 233.531 18.9688C233.062 18.3125 232.477 17.8047 231.773 17.4453C231.086 17.0703 230.289 16.8828 229.383 16.8828C228.258 16.8828 227.234 17.1484 226.312 17.6797C225.406 18.2109 224.672 18.9062 224.109 19.7656C223.562 20.6094 223.266 21.5078 223.219 22.4609L221.062 21.7578C221.188 20.3047 221.508 19 222.023 17.8438C222.555 16.6875 223.25 15.7031 224.109 14.8906C224.969 14.0781 225.961 13.4609 227.086 13.0391C228.227 12.6016 229.477 12.3828 230.836 12.3828C232.492 12.3828 233.93 12.6953 235.148 13.3203C236.367 13.9453 237.375 14.7969 238.172 15.875C238.984 16.9375 239.586 18.1562 239.977 19.5312C240.383 20.8906 240.586 22.3125 240.586 23.7969C240.586 25.4375 240.336 26.9688 239.836 28.3906C239.336 29.7969 238.602 31.0312 237.633 32.0938C236.68 33.1562 235.516 33.9844 234.141 34.5781C232.781 35.1719 231.234 35.4688 229.5 35.4688C227.672 35.4688 226.039 35.1172 224.602 34.4141C223.18 33.7109 221.969 32.7422 220.969 31.5078C219.984 30.2734 219.234 28.8516 218.719 27.2422C218.203 25.6328 217.945 23.9297 217.945 22.1328V19.7891C217.945 17.1953 218.273 14.75 218.93 12.4531C219.586 10.1406 220.594 8.10156 221.953 6.33594C223.328 4.57031 225.086 3.1875 227.227 2.1875C229.367 1.17188 231.922 0.664062 234.891 0.664062Z" fill="#FA8176"/>
</svg>
