<svg height="50" width="50" xmlns="http://www.w3.org/2000/svg"><path d="M50 45.233A4.767 4.767 0 0145.233 50H4.767A4.767 4.767 0 010 45.233V4.767A4.767 4.767 0 014.767 0h40.466A4.767 4.767 0 0150 4.767v40.466z" fill="#2899C0"/><path d="M37.029 15.342L15.342 37.029 28.313 50h16.92A4.767 4.767 0 0050 45.233v-16.92L37.029 15.342z" opacity=".2"/><g fill="#FFF"><path d="M37.029 32.482a1.54 1.54 0 010 2.177l-2.371 2.371a1.54 1.54 0 01-2.177 0l-19.51-19.512a1.54 1.54 0 010-2.177l2.371-2.371a1.54 1.54 0 012.177 0l19.51 19.512z"/><path d="M32.482 12.971a1.54 1.54 0 012.177 0l2.371 2.371a1.54 1.54 0 010 2.177l-19.512 19.51a1.54 1.54 0 01-2.177 0l-2.371-2.371a1.54 1.54 0 010-2.177l19.512-19.51z"/></g></svg>