<svg width="37" height="49" viewBox="0 0 37 49" fill="none" xmlns="http://www.w3.org/2000/svg">
<path d="M33.3925 5.02989H25.4741V1.64344C25.4741 1.24503 25.1255 0.896423 24.7271 0.896423H12.9243C12.5259 0.896423 12.1773 1.24503 12.1773 1.64344V5.02989H3.81079C2.06776 5.02989 0.67334 6.42431 0.67334 8.16734V45.7171C0.67334 47.4602 2.06776 48.8546 3.81079 48.8546H33.4423C35.1853 48.8546 36.5797 47.4602 36.5797 45.7171V8.16734C36.5299 6.42431 35.1355 5.02989 33.3925 5.02989ZM12.9243 14.6912H24.7271C25.1255 14.6912 25.4741 14.3426 25.4741 13.9442V10.7072H30.7032V42.9283H6.50003V10.757H12.1773V13.9442C12.1773 14.3924 12.5259 14.6912 12.9243 14.6912ZM23.9801 2.39045V9.96017V13.1972H13.6713V9.96017V5.7271V2.39045H23.9801ZM35.0359 45.6673C35.0359 46.5637 34.2889 47.3108 33.3925 47.3108H3.81079C2.91438 47.3108 2.16736 46.5637 2.16736 45.6673V8.16734C2.16736 7.27092 2.91438 6.52391 3.81079 6.52391H12.1773V9.26296H5.75302C5.35462 9.26296 5.00601 9.61156 5.00601 10.01V43.7251C5.00601 44.1235 5.35462 44.4721 5.75302 44.4721H31.4502C31.8486 44.4721 32.1972 44.1235 32.1972 43.7251V10.01C32.1972 9.61156 31.8486 9.26296 31.4502 9.26296H25.4741V6.52391H33.3925C34.2889 6.52391 35.0359 7.27092 35.0359 8.16734V45.6673Z" fill="#C4E0FA"/>
<path d="M8.34277 23.1076C8.34277 23.506 8.69138 23.8546 9.08979 23.8546H28.2631C28.6615 23.8546 29.0101 23.506 29.0101 23.1076C29.0101 22.7092 28.6615 22.3606 28.2631 22.3606H9.08979C8.69138 22.3606 8.34277 22.7092 8.34277 23.1076Z" fill="#C4E0FA"/>
<path d="M28.2631 27.5897H9.08979C8.69138 27.5897 8.34277 27.9383 8.34277 28.3367C8.34277 28.7351 8.69138 29.0837 9.08979 29.0837H28.2631C28.6615 29.0837 29.0101 28.7351 29.0101 28.3367C29.0101 27.9383 28.6615 27.5897 28.2631 27.5897Z" fill="#C4E0FA"/>
<path d="M28.2631 33.0677H9.08979C8.69138 33.0677 8.34277 33.4164 8.34277 33.8148C8.34277 34.2132 8.69138 34.5618 9.08979 34.5618H28.2631C28.6615 34.5618 29.0101 34.2132 29.0101 33.8148C29.0101 33.4164 28.6615 33.0677 28.2631 33.0677Z" fill="#C4E0FA"/>
</svg>
