<svg width="43" height="49" viewBox="0 0 43 49" fill="none" xmlns="http://www.w3.org/2000/svg">
<g clip-path="url(#clip0_9_220)">
<path d="M22.5421 0C23.4706 0.16072 24.4126 0.26656 25.3256 0.49196C29.1572 1.44256 32.3345 3.40256 34.5467 6.77964C35.5543 8.3202 36.1507 10.0234 36.3245 11.8639C36.3534 12.1696 36.4461 12.3245 36.7453 12.4421C38.3783 13.083 39.3763 14.5491 39.3917 16.3209C39.4091 18.2025 39.44 20.0861 39.384 21.9657C39.328 23.7826 38.4729 25.1194 36.7723 25.823C36.475 25.9484 36.1353 25.9935 35.8091 26.019C35.4018 26.0523 34.9887 26.0308 34.5795 26.0288C33.0642 26.019 32.5411 25.6819 31.8597 24.2315C30.7073 27.4576 29.0993 30.3251 26.4529 32.4948C26.9972 33.8296 27.7269 35.0252 28.833 35.9562C29.3426 36.3854 29.9236 36.6285 30.578 36.7539C33.7938 37.3713 36.9364 38.2141 39.8453 39.7978C41.0074 40.4309 41.7776 41.3384 41.986 42.6555C42.1752 43.8491 42.2968 45.0526 42.4088 46.256C42.4628 46.8264 42.4281 47.4046 42.4281 47.9788C42.4281 48.7315 42.1771 48.9902 41.4436 48.9922C40.465 48.9941 39.4863 48.9922 38.5076 48.9922C26.0379 48.9922 13.5681 48.9902 1.09837 49C0.637023 49.002 0.266405 48.9098 0.00195312 48.5139C0.00195312 47.5261 0.00195312 46.5363 0.00195312 45.5484C0.096538 44.8076 0.189193 44.0667 0.285708 43.3278C0.509623 41.6304 1.28174 40.3309 2.89162 39.6253C3.29505 39.4489 3.67918 39.2235 4.08261 39.0452C6.50514 37.977 9.03577 37.2537 11.634 36.8049C12.7651 36.6089 13.6183 36.0483 14.348 35.2114C15.0545 34.4039 15.5776 33.4866 15.9771 32.4772C15.7552 32.291 15.5332 32.1166 15.3208 31.9264C14.8363 31.4913 14.4213 30.87 13.8557 30.6544C13.2766 30.4349 12.5489 30.6034 11.8868 30.6054C9.74033 30.6074 8.37947 29.549 7.85443 27.4498C7.74054 26.9912 7.67105 26.5208 7.58997 26.1072C6.95104 26.0268 6.30825 26.0562 5.74653 25.8563C4.04787 25.2546 3.03639 23.7258 3.0306 21.8893C3.02288 20.1037 3.03253 18.3201 3.0306 16.5346C3.02867 14.5785 3.95135 13.1653 5.75233 12.4205C5.99747 12.3186 6.06503 12.1932 6.0882 11.9403C6.21946 10.4664 6.61324 9.05912 7.31587 7.75768C9.45465 3.79652 12.8655 1.5582 17.1064 0.49196C18.0175 0.26068 18.9614 0.16072 19.8899 0C20.7739 0 21.658 0 22.5421 0ZM40.9553 47.4418C40.853 46.1913 40.7333 45.0036 40.6657 43.8138C40.5808 42.3086 39.8029 41.3893 38.469 40.7758C36.1739 39.7214 33.788 38.9746 31.3269 38.4689C30.0877 38.2141 28.8503 38.0083 27.8427 37.1244C26.3969 35.8582 25.4607 34.253 24.7639 32.487C24.6095 32.093 24.8179 31.8108 25.1248 31.5423C25.8275 30.9308 26.5552 30.333 27.171 29.6372C28.9295 27.6536 29.9603 25.2526 30.7903 22.7674C31.7632 19.8528 31.9774 16.8403 31.6068 13.7964C31.3771 11.9011 30.7247 10.1489 29.5819 8.61028C26.0803 3.89648 19.3668 3.60836 15.3421 6.27592C12.2845 8.30256 10.9526 11.3053 10.7036 14.8784C10.4545 18.4573 11.0433 21.903 12.5586 25.1546C13.1338 26.3875 13.8654 27.5478 14.5391 28.7336C14.6182 28.8708 14.7842 29.0492 14.9116 29.0531C15.9926 29.0786 17.0755 29.0668 18.1449 29.0668C18.3997 27.9574 18.8765 27.5654 19.9401 27.5556C20.3184 27.5517 20.6987 27.5537 21.077 27.5576C22.046 27.5635 22.7274 28.1907 22.7293 29.0766C22.7313 29.9704 22.0634 30.6132 21.0963 30.6172C19.6447 30.623 18.1912 30.6113 16.7396 30.6054C16.5794 30.6054 16.4211 30.6054 16.2609 30.6054C16.6006 31.0072 16.9558 31.2934 17.3245 31.5658C17.6758 31.8245 17.8013 32.142 17.6333 32.5615C17.0118 34.1118 16.2107 35.5466 15.0158 36.7284C14.2321 37.5046 13.321 38.0279 12.2304 38.2533C10.9352 38.5199 9.63803 38.8021 8.36209 39.151C6.54954 39.6469 4.79103 40.2917 3.14835 41.2384C2.44765 41.6422 2.03263 42.2106 1.91102 42.9965C1.79327 43.7668 1.67167 44.541 1.61762 45.3172C1.56743 46.0228 1.60797 46.7323 1.60797 47.4418C14.6838 47.4418 27.7636 47.4418 40.9553 47.4418ZM34.8227 12.1736C34.8266 12.1481 34.8362 12.1167 34.8343 12.0854C34.8285 12.005 34.8188 11.9266 34.8092 11.8482C34.4231 8.7024 32.9349 6.16224 30.4525 4.29632C25.7754 0.77812 20.633 0.27832 15.2668 2.36572C11.966 3.64952 9.52607 5.95448 8.2096 9.3492C7.8525 10.2684 7.64981 11.223 7.58611 12.2598C7.94515 12.2598 8.26365 12.2265 8.57057 12.2696C8.8717 12.3108 9.16317 12.4284 9.46623 12.5166C10.9815 6.77572 14.595 3.39472 20.494 3.12424C27.0378 2.82632 31.2053 6.13872 32.9542 12.4284C33.5834 12.3421 34.1838 12.2618 34.8227 12.1736ZM9.09561 19.1708C9.09561 19.1708 9.09561 19.1708 9.09754 19.1708C9.09754 17.7517 9.09947 16.3327 9.09754 14.9156C9.09561 14.0708 8.80027 13.7808 7.95094 13.7808C7.65174 13.7808 7.34676 13.82 7.05335 13.7768C5.87007 13.6044 4.6038 14.7314 4.56712 16.172C4.51886 18.132 4.53237 20.0939 4.56326 22.0539C4.58063 23.1809 5.28326 24.1668 6.2986 24.4255C6.84874 24.5647 7.45678 24.4902 8.0378 24.4941C8.78869 24.502 9.08982 24.1982 9.09368 23.4279C9.09947 22.0088 9.09561 20.5898 9.09561 19.1708ZM33.3306 19.1374C33.3306 19.1374 33.3306 19.1374 33.3325 19.1374C33.3325 20.5878 33.3325 22.0382 33.3306 23.4886C33.3306 23.9257 33.4695 24.3863 33.8981 24.4236C34.6856 24.4902 35.5311 24.5549 36.2723 24.3393C37.3263 24.0316 37.8378 23.1045 37.8648 22.0206C37.9112 20.0939 37.9035 18.1633 37.8687 16.2347C37.8436 14.8568 36.6796 13.5926 35.3477 13.771C35.037 13.8121 34.7185 13.7749 34.4019 13.7749C33.6317 13.7768 33.3306 14.0846 33.3306 14.8823C33.3286 16.2994 33.3306 17.7184 33.3306 19.1374ZM10.5549 24.4373C10.2731 24.7783 9.96811 25.2781 9.53958 25.6192C9.21529 25.8759 9.1207 26.0817 9.1844 26.4678C9.53379 28.5533 10.4951 29.3804 12.7362 29.0041C11.9969 27.4557 11.246 25.8857 10.5549 24.4373Z" fill="#C4E0FA"/>
</g>
<defs>
<clipPath id="clip0_9_220">
<rect width="42.4667" height="49" fill="white"/>
</clipPath>
</defs>
</svg>
