<svg width="59" height="35" viewBox="0 0 59 35" fill="none" xmlns="http://www.w3.org/2000/svg">
<path d="M19.529 33.5864C22.2254 33.5864 24.4112 31.4145 24.4112 28.7352C24.4112 26.0558 22.2254 23.884 19.529 23.884C16.8326 23.884 14.6467 26.0558 14.6467 28.7352C14.6467 31.4145 16.8326 33.5864 19.529 33.5864Z" stroke="#C4E0FA" stroke-width="2" stroke-miterlimit="1.5" stroke-linecap="round" stroke-linejoin="round"/>
<path d="M43.9403 33.5864C46.6368 33.5864 48.8226 31.4145 48.8226 28.7352C48.8226 26.0558 46.6368 23.884 43.9403 23.884C41.2439 23.884 39.0581 26.0558 39.0581 28.7352C39.0581 31.4145 41.2439 33.5864 43.9403 33.5864Z" stroke="#C4E0FA" stroke-width="2" stroke-miterlimit="1.5" stroke-linecap="round" stroke-linejoin="round"/>
<path d="M24.5333 28.7351H36.6169V3.50895C36.6169 2.70518 35.9612 2.05359 35.1522 2.05359H2.44116" stroke="#C4E0FA" stroke-width="2" stroke-linecap="round"/>
<path d="M13.7925 28.7351H8.78816C7.97924 28.7351 7.32349 28.0836 7.32349 27.2798V15.3943" stroke="#C4E0FA" stroke-width="2" stroke-linecap="round"/>
<path d="M4.88232 9.33038H14.6468" stroke="#C4E0FA" stroke-width="2" stroke-linecap="round" stroke-linejoin="round"/>
<path d="M36.6169 9.33038H50.3119C50.8907 9.33038 51.4153 9.66909 51.6504 10.1947L56.0197 19.9632C56.103 20.1495 56.1459 20.3508 56.1459 20.5543V27.2798C56.1459 28.0836 55.4902 28.7351 54.6812 28.7351H50.0431" stroke="#C4E0FA" stroke-width="2" stroke-linecap="round"/>
<path d="M36.6169 28.7351H39.0581" stroke="#C4E0FA" stroke-width="1.5" stroke-linecap="round"/>
</svg>
