<svg width="26" height="27" viewBox="0 0 26 27" fill="none" xmlns="http://www.w3.org/2000/svg">
<g clip-path="url(#clip0_106_165)">
<path d="M21.9375 7.74463H2.4375C1.54004 7.74463 0.8125 8.47217 0.8125 9.36963V23.9946C0.8125 24.8921 1.54004 25.6196 2.4375 25.6196H21.9375C22.835 25.6196 23.5625 24.8921 23.5625 23.9946V9.36963C23.5625 8.47217 22.835 7.74463 21.9375 7.74463Z" fill="#8BC4FF"/>
<path d="M19.9062 19.5259H25.1875V13.8384H19.9062C19.152 13.8384 18.4287 14.138 17.8954 14.6713C17.3621 15.2046 17.0625 15.9279 17.0625 16.6821C17.0625 17.4363 17.3621 18.1597 17.8954 18.693C18.4287 19.2263 19.152 19.5259 19.9062 19.5259Z" fill="#E8F3FF"/>
<path d="M21.125 7.74463L18.7647 2.34557C18.6204 2.01523 18.382 1.73469 18.0793 1.53892C17.7766 1.34314 17.423 1.24079 17.0625 1.24463C16.4613 1.24463 17.3469 0.903379 3.25 7.74463H21.125Z" fill="#D1E7FF"/>
<path d="M25.1875 13.0258H24.375V9.3696C24.375 8.72313 24.1182 8.10314 23.6611 7.64602C23.204 7.1889 22.584 6.9321 21.9375 6.9321H21.6572L19.5 2.02054C19.2922 1.54741 18.9509 1.14515 18.518 0.863025C18.0851 0.580896 17.5792 0.431141 17.0625 0.432098C16.1931 0.432098 16.8716 0.22491 3.04688 6.9321H2.4375C1.79103 6.9321 1.17105 7.1889 0.713927 7.64602C0.256807 8.10314 0 8.72313 0 9.3696L0 23.9946C0 24.6411 0.256807 25.261 0.713927 25.7182C1.17105 26.1753 1.79103 26.4321 2.4375 26.4321H21.9375C22.584 26.4321 23.204 26.1753 23.6611 25.7182C24.1182 25.261 24.375 24.6411 24.375 23.9946V20.3383H25.1875C25.403 20.3383 25.6097 20.2527 25.762 20.1004C25.9144 19.948 26 19.7413 26 19.5258V13.8383C26 13.6229 25.9144 13.4162 25.762 13.2638C25.6097 13.1114 25.403 13.0258 25.1875 13.0258ZM16.6278 2.15866C16.7522 2.09838 16.8875 2.06381 17.0256 2.05702C17.1636 2.05023 17.3016 2.07136 17.4313 2.11915C17.5611 2.16694 17.6798 2.2404 17.7805 2.33514C17.8811 2.42988 17.9616 2.54396 18.0172 2.67054L19.8819 6.9321H6.78844L16.6278 2.15866ZM22.75 23.9946C22.75 24.2101 22.6644 24.4167 22.512 24.5691C22.3597 24.7215 22.153 24.8071 21.9375 24.8071H2.4375C2.22201 24.8071 2.01535 24.7215 1.86298 24.5691C1.7106 24.4167 1.625 24.2101 1.625 23.9946V9.3696C1.625 9.15411 1.7106 8.94744 1.86298 8.79507C2.01535 8.6427 2.22201 8.5571 2.4375 8.5571H21.9375C22.153 8.5571 22.3597 8.6427 22.512 8.79507C22.6644 8.94744 22.75 9.15411 22.75 9.3696V13.0258H19.9062C18.9366 13.0258 18.0066 13.4111 17.3209 14.0967C16.6352 14.7824 16.25 15.7124 16.25 16.6821C16.25 17.6518 16.6352 18.5818 17.3209 19.2675C18.0066 19.9531 18.9366 20.3383 19.9062 20.3383H22.75V23.9946ZM24.375 18.7133H19.9062C19.3675 18.7133 18.8509 18.4993 18.4699 18.1184C18.089 17.7375 17.875 17.2208 17.875 16.6821C17.875 16.1434 18.089 15.6267 18.4699 15.2458C18.8509 14.8649 19.3675 14.6508 19.9062 14.6508H24.375V18.7133Z" fill="#2E58FF"/>
<path d="M19.9062 17.4946C20.355 17.4946 20.7188 17.1309 20.7188 16.6821C20.7188 16.2334 20.355 15.8696 19.9062 15.8696C19.4575 15.8696 19.0938 16.2334 19.0938 16.6821C19.0938 17.1309 19.4575 17.4946 19.9062 17.4946Z" fill="#8BC4FF"/>
</g>
<defs>
<clipPath id="clip0_106_165">
<rect width="26" height="26" fill="white" transform="translate(0 0.432129)"/>
</clipPath>
</defs>
</svg>
