<svg width="44" height="28" viewBox="0 0 44 28" fill="none" xmlns="http://www.w3.org/2000/svg">
<path d="M30.5551 27.1468L31.2315 27.129L31.8989 27.0773L32.5537 26.9948L33.1995 26.8781L33.8376 26.7321L34.4625 26.5542L35.0693 26.3474L35.6683 26.1098L36.2493 25.8463L36.814 25.556L37.365 25.2405L37.8955 24.8956L38.4117 24.528L38.908 24.1395L39.3859 23.7248L39.8426 23.288L40.272 22.8296L40.6858 22.3502L41.0784 21.8534L41.4448 21.3391L41.7848 20.8034L42.0996 20.2504L42.3915 19.6836L42.6552 19.1008L42.8875 18.4999L43.0941 17.8916L43.271 17.2644L43.418 16.6299L43.5337 15.9772L43.6152 15.3203L43.6671 14.6505L43.6852 13.972L43.6671 13.2984L43.6152 12.6324L43.5337 11.9801L43.418 11.3326L43.271 10.7016L43.0941 10.0793L42.8875 9.46965L42.6552 8.87357L42.3915 8.29532L42.0996 7.72824L41.7848 7.17934L41.4448 6.64371L41.0784 6.13044L40.6858 5.63255L40.272 5.15702L39.8426 4.7L39.3859 4.2671L38.908 3.85236L38.4117 3.46348L37.8955 3.09591L37.365 2.7556L36.814 2.44009L36.2493 2.1452L35.6683 1.88245L35.0693 1.648L34.4625 1.44151L33.8376 1.26436L33.1995 1.11727L32.5537 1.00057L31.8989 0.918807L31.2315 0.867097L30.5551 0.849976L29.879 0.867097L29.2113 0.918807L28.5568 1.00057L27.91 1.11727L27.2726 1.26436L26.6522 1.44151L26.0409 1.648L25.4463 1.88245L24.8653 2.1452L24.3007 2.44009L23.7532 2.7556L23.2196 3.09591L22.7068 3.46348L22.2112 3.85236L21.7382 4.2671L21.285 4.7L20.85 5.15702L20.4369 5.63255L20.0489 6.13044L19.6838 6.64371L19.3432 7.17934L19.0283 7.72824L18.7395 8.29532L18.4814 8.87357L18.2446 9.46965L18.0373 10.0793L17.8649 10.7016L17.719 11.3326L17.6023 11.9801L17.5201 12.6324L17.4685 13.2984L17.4521 13.972L17.4685 14.6505L17.5201 15.3203L17.6023 15.9772L17.719 16.6299L17.8649 17.2644L18.0373 17.8916L18.2446 18.4999L18.4814 19.1008L18.7395 19.6836L19.0283 20.2504L19.3432 20.8034L19.6838 21.3391L20.0489 21.8534L20.4369 22.3502L20.85 22.8296L21.285 23.288L21.7382 23.7248L22.2112 24.1395L22.7068 24.528L23.2196 24.8956L23.7532 25.2405L24.3007 25.556L24.8653 25.8463L25.4463 26.1098L26.0409 26.3474L26.6522 26.5542L27.2726 26.7321L27.91 26.8781L28.5568 26.9948L29.2113 27.0773L29.879 27.129L30.5551 27.1468Z" fill="#EC1C2E"/>
<path d="M13.1696 27.1468L13.8464 27.129L14.5141 27.0773L15.1693 26.9948L15.8147 26.8781L16.4525 26.7321L17.0732 26.5542L17.6845 26.3474L18.279 26.1098L18.8607 25.8463L19.4246 25.556L19.9715 25.2405L20.5058 24.8956L21.0178 24.528L21.5131 24.1395L21.9879 23.7248L22.4438 23.288L22.8751 22.8296L23.2889 22.3502L23.6762 21.8534L24.0419 21.3391L24.3819 20.8034L24.6975 20.2504L24.9852 19.6836L25.2485 19.1008L25.4812 18.4999L25.6874 17.8916L25.8605 17.2644L26.0064 16.6299L26.1231 15.9772L26.2043 15.3203L26.2562 14.6505L26.2732 13.972L26.2562 13.2984L26.2043 12.6324L26.1231 11.9801L26.0064 11.3326L25.8605 10.7016L25.6874 10.0793L25.4812 9.46965L25.2485 8.87357L24.9852 8.29532L24.6975 7.72824L24.3819 7.17934L24.0419 6.64371L23.6762 6.13044L23.2889 5.63255L22.8751 5.15702L22.4438 4.7L21.9879 4.2671L21.5131 3.85236L21.0178 3.46348L20.5058 3.09591L19.9715 2.7556L19.4246 2.44009L18.8607 2.1452L18.279 1.88245L17.6845 1.648L17.0732 1.44151L16.4525 1.26436L15.8147 1.11727L15.1693 1.00057L14.5141 0.918807L13.8464 0.867097L13.1696 0.849976L12.4939 0.867097L11.8258 0.918807L11.1713 1.00057L10.5252 1.11727L9.88812 1.26436L9.26291 1.44151L8.65545 1.648L8.05739 1.88245L7.47604 2.1452L6.91108 2.44009L6.35969 2.7556L5.82991 3.09591L5.31301 3.46348L4.81806 3.85236L4.33947 4.2671L3.88735 4.7L3.45266 5.15702L3.03851 5.63255L2.64735 6.13044L2.28058 6.64371L1.94062 7.17934L1.6254 7.72824L1.33316 8.29532L1.07018 8.87357L0.837861 9.46965L0.631304 10.0793L0.455411 10.7016L0.307377 11.3326L0.191386 11.9801L0.109868 12.6324L0.0576211 13.2984L0.0412598 13.972L0.0576211 14.6505L0.109868 15.3203L0.191386 15.9772L0.307377 16.6299L0.455411 17.2644L0.631304 17.8916L0.837861 18.4999L1.07018 19.1008L1.33316 19.6836L1.6254 20.2504L1.94062 20.8034L2.28058 21.3391L2.64735 21.8534L3.03851 22.3502L3.45266 22.8296L3.88735 23.288L4.33947 23.7248L4.81806 24.1395L5.31301 24.528L5.82991 24.8956L6.35969 25.2405L6.91108 25.556L7.47604 25.8463L8.05739 26.1098L8.65545 26.3474L9.26291 26.5542L9.88812 26.7321L10.5252 26.8781L11.1713 26.9948L11.8258 27.0773L12.4939 27.129L13.1696 27.1468Z" fill="#0084C4"/>
<path d="M20.2473 5.85715H26.8939V5.12341H20.8893L20.2473 5.85715Z" fill="#EC1C2E"/>
<path d="M19.2048 7.41275H26.8939V6.68286H19.6705L19.2048 7.41275Z" fill="#EC1C2E"/>
<path d="M18.4246 8.9943H26.8939V8.25952H18.783L18.4246 8.9943Z" fill="#EC1C2E"/>
<path d="M17.9175 10.5503H26.8939V9.8197H18.1415L17.9175 10.5503Z" fill="#EC1C2E"/>
<path d="M17.5854 12.1095H26.8938V11.3748H17.7189L17.5854 12.1095Z" fill="#EC1C2E"/>
<path d="M17.5159 15.1299H26.8939V14.3951H17.4521L17.5159 15.1299Z" fill="#EC1C2E"/>
<path d="M17.7409 16.7762H26.894V16.0414H17.6072L17.7409 16.7762Z" fill="#EC1C2E"/>
<path d="M18.1846 18.1119H26.8939V17.3771H17.96L18.1846 18.1119Z" fill="#EC1C2E"/>
<path d="M18.8472 19.7364H26.894V19.0016H18.4944L18.8472 19.7364Z" fill="#EC1C2E"/>
<path d="M19.7831 21.3823H26.8939V20.6478H19.2913L19.7831 21.3823Z" fill="#EC1C2E"/>
<path d="M20.9539 22.9634H26.8292V22.229H20.3123L20.9539 22.9634Z" fill="#EC1C2E"/>
<path d="M41.5264 22.0483L41.5654 21.9313L41.6295 21.8233L41.712 21.7279L41.8068 21.6497L41.914 21.5896L42.0304 21.5511L42.1558 21.5382L42.2843 21.5511L42.4048 21.5896L42.5125 21.6497L42.6076 21.7279L42.6849 21.8233L42.7448 21.9313L42.7845 22.0483H42.6511L42.6246 21.9659L42.5776 21.8747L42.517 21.7968L42.4438 21.736L42.3571 21.6895L42.2582 21.6591L42.1558 21.6497L42.052 21.6591L41.9524 21.6895L41.8663 21.736L41.7893 21.7968L41.728 21.8747L41.6817 21.9659L41.6556 22.0483H41.5264Z" fill="#EC1C2E"/>
<path d="M41.9314 22.0483V21.8921H42.1769L42.2323 21.8959L42.2794 21.9008L42.3232 21.9141L42.357 21.9312L42.3839 21.9529L42.4047 21.9784L42.4183 22.0088L42.4229 22.0483H42.3103L42.3058 22.0263L42.2971 22.0088L42.2842 21.9913L42.2675 21.9784L42.2456 21.9697L42.2247 21.9658L42.2027 21.9616H42.0432V22.0483H41.9314Z" fill="#EC1C2E"/>
<path d="M41.5173 22.1601L41.5264 22.0522V22.0483H41.6556L41.6514 22.0697L41.642 22.1601H41.5173Z" fill="#EC1C2E"/>
<path d="M41.9314 22.1601V22.0483H42.0432V22.1388H42.2289L42.2539 22.1346L42.2755 22.1252L42.2891 22.1172L42.3016 22.1001L42.3103 22.0784V22.0483H42.4229L42.4183 22.0868L42.4089 22.1217L42.3964 22.1472L42.3839 22.1601H41.9314Z" fill="#EC1C2E"/>
<path d="M42.6633 22.1601L42.6553 22.0697L42.6511 22.0483H42.7846V22.0522L42.7971 22.1601H42.6633Z" fill="#EC1C2E"/>
<path d="M41.5174 22.1602L41.5139 22.1811L41.5265 22.3107L41.5655 22.4323L41.6295 22.5365L41.7121 22.6308L41.8068 22.7045L41.9141 22.7611L42.0304 22.795L42.1558 22.8086L42.2844 22.795L42.4049 22.7611L42.5125 22.7045L42.6076 22.6308L42.6849 22.5365L42.7448 22.4323L42.7846 22.3107L42.7971 22.1811V22.1602H42.6633V22.1811L42.6553 22.294L42.6247 22.3977L42.5776 22.4886L42.517 22.5665L42.4439 22.6308L42.3572 22.679L42.2582 22.7087L42.1558 22.7175L42.052 22.7087L41.9524 22.679L41.8664 22.6308L41.7894 22.5665L41.7281 22.4886L41.6818 22.3977L41.6515 22.294L41.6421 22.1811V22.1602H41.5174Z" fill="#EC1C2E"/>
<path d="M41.9314 22.1602V22.4278H42.0432V22.208H42.1557L42.2891 22.4278H42.4013L42.241 22.208L42.2794 22.2035L42.3184 22.1989L42.3494 22.1857L42.3752 22.1689L42.3839 22.1602H41.9314Z" fill="#EC1C2E"/>
<path d="M27.7159 12.866L27.6302 12.8618L27.5442 12.8531L27.4658 12.8398L27.3892 12.8321L27.3118 12.8182L27.2342 12.8052L27.1523 12.7923L27.0663 12.7794L26.9757 12.7703L26.8803 12.7619L26.7727 12.7535L26.6563 12.7486H26.5275L26.3853 12.7535L26.2258 12.7619L26.0541 12.7748L25.9287 12.7923L25.8124 12.8182L25.7054 12.8531L25.6103 12.8922L25.524 12.9391L25.4463 12.9918L25.3815 13.0516L25.3303 13.112L25.2913 13.1815L25.2659 13.2542L25.2523 13.3279V13.4055L25.2704 13.488L25.3003 13.5697L25.3474 13.6522L25.4073 13.7346L25.5323 13.8471L25.6786 13.9376L25.8517 14.0152L26.0367 14.0795L26.2303 14.1445L26.4334 14.2098L26.6393 14.2832L26.8378 14.3702L27.0231 14.4733L27.2 14.5987L27.3543 14.7591L27.4836 14.9488L27.5825 15.1819L27.6476 15.4586L27.6699 15.787L27.6476 16.1759L27.5999 16.4648L27.5219 16.7244L27.4237 16.9578L27.2979 17.1647L27.1523 17.3464L26.9928 17.5022L26.8155 17.636L26.6271 17.7527L26.4278 17.8478L26.222 17.925L26.0105 17.9907L25.7991 18.0378L25.5887 18.0724L25.3815 18.0941L25.1844 18.1074L24.99 18.1119H24.7218L24.4815 18.1074L24.262 18.1028L24.06 18.0986L23.8743 18.0902L23.7106 18.0812L23.5556 18.0689L23.4177 18.0508L23.2888 18.0336L23.168 18.0116L23.0551 17.9907L22.9443 17.9603L22.8409 17.9299L22.7371 17.8998L22.634 17.861L22.5264 17.8219L22.7928 16.4648L22.8534 16.4785L22.9262 16.4994L23.0171 16.5211L23.1161 16.547L23.232 16.569L23.3613 16.5994L23.4992 16.6245L23.6462 16.6507L23.8008 16.6724L23.9646 16.6944L24.1331 16.7112L24.309 16.7286L24.4863 16.737L24.6674 16.7412H24.8482L25.0328 16.7325L25.2052 16.7028L25.3474 16.6553L25.455 16.5864L25.5407 16.5089L25.6058 16.417L25.6528 16.323L25.6918 16.2276L25.7176 16.1326L25.7305 16.0333L25.7263 15.9463L25.7054 15.8646L25.6699 15.7957L25.6232 15.7262L25.5626 15.6658L25.4895 15.6092L25.4073 15.5575L25.3171 15.5106L25.2181 15.4628L25.1112 15.4156L24.998 15.3723L24.8862 15.3289L24.766 15.2811L24.6452 15.2339L24.5205 15.1819L24.4 15.1298L24.2794 15.0739L24.1582 15.0089L24.0419 14.9401L23.9301 14.8663L23.8263 14.7839L23.7281 14.6888L23.6378 14.5903L23.5556 14.4775L23.4825 14.3566L23.4219 14.2224L23.3707 14.0795L23.3355 13.9202L23.3143 13.7472L23.3094 13.5568L23.323 13.3534L23.3355 13.2287L23.3533 13.1071L23.3707 12.9918L23.3958 12.879L23.4219 12.7703L23.4522 12.6627L23.4908 12.5635L23.5295 12.4639L23.5769 12.373L23.6246 12.2825L23.6803 12.2004L23.7409 12.1183L23.8054 12.0408L23.8743 11.9667L23.9471 11.8975L24.0286 11.8329L24.1147 11.7728L24.2059 11.7165L24.3045 11.6644L24.4087 11.6127L24.5156 11.5694L24.6316 11.5264L24.7535 11.4918L24.8817 11.4566L25.0199 11.4269L25.1621 11.4014L25.309 11.3797L25.4637 11.3619L25.6267 11.3493L25.7991 11.3409L25.9768 11.3325H26.3895L26.5968 11.3357L26.7817 11.3409L26.9538 11.3493L27.1053 11.358L27.2429 11.3668L27.3676 11.3797L27.4756 11.3881L27.5748 11.4014L27.6605 11.4139L27.7427 11.4223L27.811 11.4356L27.8719 11.4443L27.928 11.4524L27.9789 11.4614L28.0269 11.466L27.7159 12.866Z" fill="white"/>
<path d="M29.1328 9.9751H30.8653L30.5978 11.488H31.6622L31.4205 12.866L30.3313 12.8437L29.7584 16.288L29.7496 16.3611V16.4257L29.7584 16.4827L29.7758 16.5344L29.8012 16.5777L29.8305 16.621L29.8702 16.6553L29.9134 16.6804L29.9653 16.7073L30.0175 16.7286L30.0767 16.7461L30.1373 16.7552L30.2066 16.7681L30.2756 16.7716L30.3481 16.7761H30.5595L30.68 16.7681L30.7918 16.7506L30.8872 16.7286L30.96 16.7073L31.0165 16.6853L31.0502 16.6678L31.0631 16.6643L30.8872 17.8432L30.8444 17.8694L30.7967 17.8914L30.7493 17.9127L30.7012 17.9344L30.6542 17.9515L30.6013 17.969L30.5508 17.9858L30.4909 18.0032L30.4299 18.0204L30.3651 18.0336L30.292 18.0466L30.215 18.0588L30.1328 18.0724L30.0471 18.085L29.9475 18.0986L29.8444 18.1119H29.3787L29.1328 18.0941L28.9134 18.0689L28.7204 18.0336L28.5518 17.9858L28.409 17.9344L28.2895 17.8694L28.1902 17.7967L28.1087 17.7136L28.0436 17.6227L27.9959 17.5232L27.9663 17.4152L27.9492 17.295L27.9443 17.1699L27.9492 17.0316L27.9618 16.8883L27.9837 16.7325L29.1328 9.9751Z" fill="white"/>
<path d="M18.6062 15.2203L18.5839 15.329L18.5804 15.4373L18.5895 15.5533L18.6149 15.6658L18.649 15.7828L18.7009 15.8988L18.7612 16.0114L18.8343 16.1193L18.9165 16.2231L19.0116 16.323L19.1098 16.4097L19.2182 16.4911L19.3335 16.5603L19.4547 16.6169L19.5843 16.6595L19.7124 16.6899L19.8685 16.7112L20.0235 16.7325L20.1823 16.7507L20.3418 16.7587L20.5059 16.7629H20.6651L20.8337 16.7552L20.9967 16.7412L21.1646 16.7161L21.337 16.6853L21.5094 16.642L21.6818 16.5865L21.8539 16.5211L22.0357 16.4439L22.2113 16.3489L22.3931 16.2448L22.1259 17.779L22.0263 17.8307L21.9267 17.8778L21.8365 17.9177L21.7421 17.9516L21.6473 17.9858L21.5526 18.0117L21.4533 18.0337L21.3457 18.0553L21.2346 18.069L21.1127 18.0812L20.98 18.0941L20.8379 18.0987L20.6825 18.1074H20.5094L20.3202 18.1119H19.9632L19.8082 18.1029L19.6571 18.0941L19.5021 18.077L19.3432 18.0553L19.1879 18.0291L19.0325 17.9952L18.8782 17.9603L18.7267 17.9128L18.5766 17.8649L18.4296 17.809L18.283 17.7447L18.1415 17.6706L18.0029 17.5927L17.8744 17.5064L17.7445 17.4117L17.6246 17.3076L17.5079 17.1955L17.3958 17.0742L17.2965 16.9446L17.2018 16.802L17.1164 16.6553L17.0384 16.496L16.9695 16.3269L16.9088 16.1462L16.8618 15.9551L16.8228 15.7566L16.797 15.5404L16.781 15.3157V15.0827L16.7883 14.8325L16.8099 14.5718L16.8228 14.482L16.8357 14.3783L16.8538 14.2741L16.8747 14.1627L16.8956 14.0453L16.9266 13.9244L16.9611 13.7993L16.9952 13.6697L17.0384 13.5352L17.0854 13.4055L17.1419 13.2721L17.2018 13.1379L17.2704 13.0041L17.3439 12.8703L17.4257 12.7371L17.5114 12.6068L17.611 12.4817L17.7145 12.3563L17.8263 12.2347L17.951 12.1225L18.0806 12.0104L18.223 11.907L18.3739 11.8112L18.5376 11.7207L18.7093 11.6428L18.8942 11.5694L19.0883 11.5048L19.2945 11.4524L19.5153 11.4101L19.7476 11.3797L19.989 11.3619L20.2475 11.3535H20.3687L20.4885 11.3619L20.6139 11.3706L20.7386 11.3836L20.8626 11.4014L20.9928 11.4269L21.1172 11.4566L21.2426 11.4919L21.3666 11.5303L21.4923 11.5782L21.6132 11.6295L21.7292 11.691L21.8417 11.7599L21.9535 11.8329L22.0559 11.9199L22.1604 12.0104L22.2545 12.1096L22.3447 12.2183L22.4269 12.3385L22.5004 12.4639L22.5693 12.6023L22.6296 12.7487L22.6808 12.9094L22.7191 13.0781L22.7543 13.2595L22.7759 13.4485L22.7849 13.6522V13.8681L22.7717 14.0973L22.7505 14.3391L22.7118 14.5942L22.6592 14.8622L22.5913 15.2423H18.1158L18.3826 14.0411H21.0664L21.0789 13.8769V13.7256L21.0702 13.5834L21.0448 13.4531L21.0103 13.3374L20.9667 13.2287L20.9106 13.1334L20.8462 13.0471L20.7727 12.9695L20.6905 12.9052L20.6045 12.8531L20.5143 12.8095L20.4153 12.7749L20.3122 12.7487L20.2046 12.7371L20.0921 12.7315H19.9716L19.8598 12.7487L19.7476 12.7703L19.6442 12.8053L19.5452 12.8531L19.4505 12.9094L19.3603 12.9737L19.2781 13.0471L19.2008 13.1334L19.1321 13.2245L19.0667 13.3238L19.0067 13.4321L18.9556 13.5442L18.9124 13.6651L18.8782 13.7955L18.8472 13.9289L18.6062 15.2203Z" fill="white"/>
<path d="M16.2121 16.7326L15.9658 18.112H14.4113L14.4283 17.9817L14.4447 17.8521L14.4621 17.7361L14.4792 17.6274L14.4966 17.5362L14.5095 17.4593L14.5269 17.4073L14.5443 17.3772L14.4621 17.4719L14.3587 17.5666L14.2434 17.6581L14.1093 17.7448L13.9672 17.8266L13.8118 17.9041L13.6481 17.9737L13.4799 18.0379L13.3036 18.0942L13.1228 18.1424L12.9414 18.176L12.7613 18.2022L12.5798 18.2154L12.4036 18.2196L12.2311 18.207L12.0636 18.1805L11.8431 18.1291L11.6498 18.0589L11.4736 17.9771L11.3179 17.8867L11.1806 17.7874L11.0636 17.6753L10.9605 17.5586L10.8745 17.4293L10.801 17.2997L10.7411 17.1648L10.6933 17.0264L10.6543 16.8846L10.6296 16.7462L10.6108 16.6037L10.6031 16.4649L10.5979 16.3315L10.616 16.0897L10.6543 15.8605L10.7107 15.6393L10.7923 15.4325L10.8912 15.2386L11.003 15.0569L11.1371 14.8881L11.2792 14.7281L11.4391 14.5855L11.6063 14.4604L11.7874 14.3444L11.9772 14.2442L12.1751 14.1582L12.3778 14.0883L12.5836 14.0373L12.7951 13.9978H12.8041L12.8344 13.994L12.8815 13.9888L12.9452 13.9807L13.0194 13.972L13.1054 13.9636L13.2012 13.9503L13.3036 13.9426L13.4074 13.9332L13.5109 13.9203L13.6182 13.9112L13.7216 13.9028L13.816 13.8941L13.9062 13.8899L13.9891 13.886H14.2775L14.3552 13.8899H14.4283L14.4966 13.8941H14.6345L14.6951 13.8986H14.7512L14.7986 13.9028H14.8418L14.8756 13.9077H14.9233L14.9369 13.864L14.9661 13.7609L14.9884 13.639V13.5317L14.9794 13.4531L14.9661 13.3801L14.9445 13.3106L14.9146 13.2463L14.8804 13.1855L14.8373 13.1299L14.7941 13.0782L14.7422 13.0258L14.6864 12.9828L14.63 12.9479L14.5645 12.9133L14.5011 12.8829L14.4325 12.8619L14.3587 12.8438L14.2852 12.8322L14.212 12.8228L14.0361 12.8183L13.8501 12.8228L13.6558 12.827L13.459 12.8399L13.2604 12.8532L13.0622 12.8703L12.8647 12.8923L12.6707 12.9133L12.4854 12.9434L12.3092 12.9696L12.1496 13L11.9988 13.0342L11.8647 13.0688L11.7526 13.103L11.6617 13.138L11.5983 13.1768L12.0413 11.7079L12.1705 11.6478L12.3092 11.5919L12.4461 11.5437L12.5927 11.5049L12.7442 11.4745L12.8989 11.4486L13.0622 11.427L13.2301 11.4102L13.4032 11.4015L13.5795 11.3924L13.7599 11.3882H14.3458L14.553 11.3924L14.7686 11.3973L14.9445 11.414L15.1305 11.4399L15.3235 11.4881L15.5172 11.5437L15.7119 11.617L15.9062 11.7079L16.086 11.8113L16.2584 11.9329L16.4179 12.0706L16.56 12.2218L16.6812 12.3906L16.7753 12.5758L16.8439 12.7795L16.8829 13L16.8878 13.233L16.8537 13.4881L16.2121 16.7326Z" fill="white"/>
<path d="M14.7249 15.1086L14.7207 15.074L14.6953 15.0478L14.6517 15.0264L14.5963 15.0139L14.5228 15.0048L14.4448 15.0002H14.2602L14.1613 15.009L14.0578 15.0219L13.9586 15.0345L13.8596 15.0527L13.7649 15.0691L13.674 15.0865L13.597 15.1086L13.5277 15.1299L13.4887 15.1386L13.4371 15.1554L13.3734 15.1777L13.3037 15.2074L13.2302 15.2385L13.1484 15.277L13.0665 15.3245L12.9854 15.3724L12.9032 15.4325L12.8255 15.4981L12.7517 15.5663L12.6883 15.6452L12.627 15.7263L12.5838 15.8178L12.5503 15.9164L12.5284 16.0201L12.52 16.2319L12.5503 16.3961L12.6015 16.5257L12.6789 16.6211L12.7739 16.6854L12.8729 16.7287L12.9805 16.7507L13.0843 16.7553L13.2738 16.7507L13.4424 16.7326L13.6012 16.7029L13.7433 16.6644L13.8725 16.6211L13.9892 16.569L14.0916 16.5089L14.1822 16.444L14.2637 16.379L14.333 16.3056L14.3936 16.2361L14.4448 16.163L14.4884 16.0897L14.5228 16.0201L14.549 15.9517L14.5702 15.8863L14.5922 15.7909L14.6131 15.691L14.6346 15.5879L14.6569 15.4796L14.673 15.3765L14.6911 15.2812L14.7082 15.1907L14.7249 15.1086Z" fill="#0084C4"/>
<path d="M3.21151 18.1119H1.52637L2.94366 9.9751H5.87298L6.16173 14.8188L8.15584 9.9751H11.1973L9.7762 18.1119H8.09176L9.15517 12.0187H9.09037L6.5839 18.1119H4.69742L4.68 17.8561L4.641 17.178L4.58491 16.2185L4.52049 15.1176L4.45638 14.0061L4.40031 13.0257L4.36095 12.3168L4.34388 12.0187H4.25785H4.27527L3.21151 18.1119Z" fill="white"/>
<path d="M31.3523 18.1118H33.1057L33.7041 14.5986L33.7299 14.4603L33.7602 14.3261L33.7944 14.1923L33.8375 14.0675L33.8846 13.9425L33.9452 13.8251L34.018 13.7129L34.1002 13.6053L34.1998 13.5092L34.3109 13.4226L34.4447 13.3453L34.591 13.2762L34.7641 13.2199L34.9574 13.1766L35.1726 13.1511L35.4137 13.1333H35.4353L35.4614 13.1378L35.4962 13.142H35.53L35.561 13.1462L35.5861 13.1511L35.6035 13.1553H35.6125L35.6171 13.1298L35.6338 13.0557L35.6557 12.9432L35.6899 12.801L35.7331 12.6417L35.7801 12.468L35.8365 12.2954L35.9003 12.1319L35.9483 12.0103L36.0041 11.8936L36.0598 11.7772L36.1204 11.6693L36.1723 11.5781L36.2155 11.5047L36.2451 11.4565L36.2545 11.4397H36.2451L36.2239 11.431L36.1939 11.4268L36.15 11.4181L36.1072 11.41L36.0553 11.4055L36.0089 11.3971H35.9657L35.7759 11.41L35.6035 11.431L35.4447 11.4659L35.2973 11.5047L35.1597 11.5561L35.0354 11.6127L34.9149 11.6815L34.8073 11.7556L34.6986 11.838L34.5997 11.9282L34.5094 12.0232L34.414 12.1263L34.3245 12.2346L34.2381 12.352L34.1475 12.4729L34.0577 12.598L34.2597 11.4879L32.5066 11.4659L31.3523 18.1118Z" fill="white"/>
<path d="M38.9377 11.3971L39.1313 11.4013L39.3212 11.4139L39.5065 11.431L39.6873 11.4565L39.8597 11.4918L40.0269 11.5348L40.1871 11.583L40.3456 11.6382L40.4967 11.7032L40.6389 11.7727L40.781 11.8461L40.9102 11.9282L41.0401 12.0187L41.1599 12.1137L41.2731 12.2133L41.3801 12.3216L41.4832 12.4338L41.5776 12.5547L41.665 12.6762L41.7465 12.8052L41.8231 12.939L41.8883 13.0822L41.9524 13.2245L42.0049 13.375L42.052 13.527L42.0903 13.6871L42.1248 13.8513L42.1516 14.0193L42.168 14.1877L42.177 14.3652L42.1812 14.5466L42.177 14.7279L42.1638 14.9487L42.1384 15.1608L42.1077 15.3631L42.0687 15.5619L42.0265 15.7524L41.9698 15.9333L41.9099 16.1112L41.8451 16.2785L41.7674 16.4389L41.6904 16.5944L41.5992 16.7412L41.5093 16.8795L41.41 17.0137L41.3021 17.1388L41.1906 17.2558L41.0746 17.3683L40.9534 17.4717L40.8287 17.5717L40.6953 17.6615L40.5615 17.7446L40.4194 17.8218L40.2721 17.8914L40.1265 17.956L39.9711 18.0116L39.8168 18.0633L39.6524 18.1073L39.4891 18.1422L39.3247 18.1719L39.1529 18.1939L38.9812 18.2104L38.8043 18.2195L38.627 18.2236L38.4504 18.2195L38.2738 18.2104L38.1063 18.1939L37.9384 18.1674L37.775 18.137L37.6106 18.1028L37.4556 18.0587L37.3055 18.0081L37.154 17.9515L37.0122 17.8865L36.8746 17.8176L36.7409 17.7401L36.6123 17.658L36.4911 17.5664L36.3706 17.4717L36.2588 17.3683L36.155 17.2597L36.0512 17.1437L35.9606 17.0228L35.8708 16.8931L35.7928 16.7586L35.7154 16.6168L35.6513 16.469L35.5904 16.318L35.5388 16.1584L35.4914 15.9903L35.4528 15.8177L35.4232 15.6391L35.4016 15.4543L35.3887 15.2635L35.3845 15.0654L35.3887 14.8621L35.4016 14.6549L35.4232 14.4557L35.4528 14.2611L35.4914 14.0756L35.5346 13.8939L35.5862 13.7164L35.6419 13.5483L35.7067 13.3845L35.776 13.2245L35.8527 13.0732L35.939 12.9303L36.0303 12.7884L36.1254 12.6588L36.2278 12.5288L36.3361 12.4117L36.4479 12.2954L36.5684 12.1871L36.6935 12.0879L36.822 11.9932L36.9561 11.9069L37.0975 11.8286L37.2449 11.7517L37.3953 11.686L37.5465 11.6256L37.706 11.5746L37.8687 11.5264L38.0373 11.4879L38.2097 11.4523L38.3863 11.431L38.5667 11.41L38.7524 11.4013L38.9377 11.3971Z" fill="white"/>
<path d="M41.5139 17.7791H42.0224V17.8433H41.8232V18.2668H41.7121V17.8433H41.5139V17.7791Z" fill="white"/>
<path d="M42.0867 17.7791H42.241L42.4228 18.155L42.5987 17.7791H42.754V18.2668H42.6415V17.8916L42.4653 18.2668H42.3751L42.1974 17.8916V18.2668H42.0867V17.7791Z" fill="white"/>
<path d="M37.5637 14.572L37.5379 14.8145L37.5247 15.0395V15.2425L37.5379 15.4325L37.5637 15.6055L37.6013 15.7568L37.6504 15.8951L37.71 16.0202L37.7831 16.1275L37.865 16.2187L37.9552 16.2963L38.0551 16.3578L38.1621 16.4042L38.2829 16.4392L38.4073 16.4566L38.5417 16.465L38.6877 16.4612L38.8305 16.4441L38.9639 16.4133L39.0928 16.3665L39.2136 16.3057L39.3296 16.2278L39.4373 16.1362L39.5407 16.0283L39.6309 15.9081L39.718 15.769L39.7988 15.6135L39.8681 15.4455L39.9329 15.2603L39.9886 15.0569L40.0325 14.8361L40.0708 14.5989L40.0921 14.4127L40.105 14.2355V14.0629L40.0921 13.8987L40.0708 13.7474L40.0364 13.6003L39.9886 13.4665L39.9329 13.3414L39.8639 13.2289L39.7863 13.1335L39.6957 13.0472L39.5968 12.9784L39.485 12.9218L39.3641 12.8872L39.2352 12.8662H39.0928L38.9162 12.8791L38.7525 12.9095L38.6016 12.9609L38.4592 13.0259L38.3303 13.1122L38.2098 13.2072L38.1022 13.3148L38.0067 13.4368L37.9169 13.5661L37.8395 13.7044L37.7695 13.8421L37.7145 13.9888L37.6626 14.1359L37.6201 14.2834L37.5891 14.4305L37.5637 14.572Z" fill="#EC1C2E"/>
</svg>
