<svg width="44" height="15" viewBox="0 0 44 15" fill="none" xmlns="http://www.w3.org/2000/svg">
<path d="M18.9536 14.7303H15.3865L17.6164 0.984985H21.1845L18.9536 14.7303Z" fill="#0066B2"/>
<path d="M12.3852 0.984847L8.98424 10.4389L8.58159 8.40294V8.40329L7.38094 2.22242C7.38094 2.22242 7.23709 0.984847 5.68918 0.984847H0.0663183L0.000488281 1.2179C0.000488281 1.2179 1.72012 1.57568 3.73269 2.78809L6.832 14.7299H10.5489L16.2254 0.984497H12.3855L12.3852 0.984847Z" fill="#0066B2"/>
<path d="M36.5212 9.86832L38.3951 4.72342L39.4501 9.86832H36.5212ZM40.447 14.7299H43.7229L40.8667 0.984497H37.9987C36.6744 0.984497 36.3515 2.00824 36.3515 2.00824L31.031 14.7299H34.7493L35.4933 12.6887H40.0283L40.447 14.7299Z" fill="#0066B2"/>
<path d="M31.3097 4.2902L31.8186 1.33848C31.8186 1.33848 30.247 0.739258 28.6102 0.739258C26.839 0.739258 22.6349 1.51527 22.6349 5.28983C22.6349 8.84147 27.5698 8.88515 27.5698 10.7495C27.5698 12.6143 23.1438 12.2813 21.6822 11.1052L21.1521 14.1904C21.1521 14.1904 22.7446 14.9675 25.1793 14.9675C27.613 14.9675 31.287 13.7027 31.287 10.2618C31.287 6.68778 26.3075 6.3541 26.3075 4.80067C26.3075 3.24654 29.7823 3.4464 31.3086 4.2902H31.3097Z" fill="#0066B2"/>
<path d="M8.5811 8.40379L7.38046 2.22292C7.38046 2.22292 7.2366 0.985352 5.68869 0.985352H0.0658321L0 1.2184C0 1.2184 2.70328 1.77953 5.29509 3.88396C7.77371 5.8965 8.58075 8.40379 8.58075 8.40379H8.5811Z" fill="#F9A533"/>
</svg>
