<svg width="304" height="239" viewBox="0 0 304 239" fill="none" xmlns="http://www.w3.org/2000/svg">
<g opacity="0.39">
<path opacity="0.64" d="M231.727 63.1732C219.999 58.7274 199.944 37.5921 179.212 63.2914C160.786 86.1346 139.471 79.0035 128.878 72.4568C111.182 61.5261 86.8716 53.7301 75.9529 77.2565C65.0341 100.783 75.3574 122.808 34.8397 129.478C-5.678 136.148 -3.98143 186.782 34.0798 197.031C72.1411 207.279 85.4518 184.877 119.635 194.658C154.281 204.572 193.939 200.989 255.398 195.095C316.857 189.2 301.853 77.1563 231.722 63.1725C161.59 49.1888 231.727 63.1732 231.727 63.1732Z" fill="#C8C7C9"/>
<path opacity="0.31" d="M279.249 79.34C265.992 84.7326 221.098 85.1262 206.933 59.2056C192.036 31.9397 167.787 12.3289 143.998 45.5328C120.209 78.7367 122.669 92.9073 73.9043 76.4033C25.0453 59.8661 0.591355 104.889 29.6813 132.693C59.5489 161.246 62.9808 190.807 118.598 208.019C152.749 218.584 223.459 213.838 248.058 187.955C270.555 164.28 323.681 51.7779 279.25 79.3335C234.82 106.889 279.249 79.34 279.249 79.34Z" fill="#9C9C9C"/>
</g>
<g style="mix-blend-mode:overlay" opacity="0.24">
<g style="mix-blend-mode:overlay" opacity="0.24">
<g style="mix-blend-mode:overlay" opacity="0.24">
<g style="mix-blend-mode:overlay" opacity="0.24">
<path d="M162.906 72.5112L94.8921 140.283" stroke="white" stroke-width="1.59" stroke-miterlimit="10"/>
</g>
<g style="mix-blend-mode:overlay" opacity="0.24">
<path d="M166.467 72.5112L98.4531 140.283" stroke="white" stroke-width="1.59" stroke-miterlimit="10"/>
</g>
<g style="mix-blend-mode:overlay" opacity="0.24">
<path d="M170.022 72.5112L102.008 140.283" stroke="white" stroke-width="1.59" stroke-miterlimit="10"/>
</g>
<g style="mix-blend-mode:overlay" opacity="0.24">
<path d="M173.583 72.5112L105.569 140.283" stroke="white" stroke-width="1.59" stroke-miterlimit="10"/>
</g>
<g style="mix-blend-mode:overlay" opacity="0.24">
<path d="M177.144 72.5112L109.124 140.283" stroke="white" stroke-width="1.59" stroke-miterlimit="10"/>
</g>
<g style="mix-blend-mode:overlay" opacity="0.24">
<path d="M180.699 72.5112L112.685 140.283" stroke="white" stroke-width="1.59" stroke-miterlimit="10"/>
</g>
<g style="mix-blend-mode:overlay" opacity="0.24">
<path d="M184.261 72.5112L116.24 140.283" stroke="white" stroke-width="1.59" stroke-miterlimit="10"/>
</g>
<g style="mix-blend-mode:overlay" opacity="0.24">
<path d="M187.815 72.5112L119.801 140.283" stroke="white" stroke-width="1.59" stroke-miterlimit="10"/>
</g>
<g style="mix-blend-mode:overlay" opacity="0.24">
<path d="M191.377 72.5112L123.356 140.283" stroke="white" stroke-width="1.59" stroke-miterlimit="10"/>
</g>
<g style="mix-blend-mode:overlay" opacity="0.24">
<path d="M194.932 72.5112L126.917 140.283" stroke="white" stroke-width="1.59" stroke-miterlimit="10"/>
</g>
<g style="mix-blend-mode:overlay" opacity="0.24">
<path d="M198.493 72.5112L130.479 140.283" stroke="white" stroke-width="1.59" stroke-miterlimit="10"/>
</g>
<g style="mix-blend-mode:overlay" opacity="0.24">
<path d="M202.048 72.5112L134.033 140.283" stroke="white" stroke-width="1.59" stroke-miterlimit="10"/>
</g>
<g style="mix-blend-mode:overlay" opacity="0.24">
<path d="M205.609 72.5112L137.594 140.283" stroke="white" stroke-width="1.59" stroke-miterlimit="10"/>
</g>
<g style="mix-blend-mode:overlay" opacity="0.24">
<path d="M209.163 72.5112L141.149 140.283" stroke="white" stroke-width="1.59" stroke-miterlimit="10"/>
</g>
<g style="mix-blend-mode:overlay" opacity="0.24">
<path d="M212.725 72.5112L144.71 140.283" stroke="white" stroke-width="1.59" stroke-miterlimit="10"/>
</g>
<g style="mix-blend-mode:overlay" opacity="0.24">
<path d="M216.28 72.5112L148.266 140.283" stroke="white" stroke-width="1.59" stroke-miterlimit="10"/>
</g>
<g style="mix-blend-mode:overlay" opacity="0.24">
<path d="M219.841 72.5112L151.827 140.283" stroke="white" stroke-width="1.59" stroke-miterlimit="10"/>
</g>
<g style="mix-blend-mode:overlay" opacity="0.24">
<path d="M223.402 72.5112L155.382 140.283" stroke="white" stroke-width="1.59" stroke-miterlimit="10"/>
</g>
<g style="mix-blend-mode:overlay" opacity="0.24">
<path d="M226.957 72.5112L158.943 140.283" stroke="white" stroke-width="1.59" stroke-miterlimit="10"/>
</g>
<g style="mix-blend-mode:overlay" opacity="0.24">
<path d="M230.518 72.5112L162.498 140.283" stroke="white" stroke-width="1.59" stroke-miterlimit="10"/>
</g>
<g style="mix-blend-mode:overlay" opacity="0.24">
<path d="M234.073 72.5112L166.059 140.283" stroke="white" stroke-width="1.59" stroke-miterlimit="10"/>
</g>
<g style="mix-blend-mode:overlay" opacity="0.24">
<path d="M237.634 72.5112L169.62 140.283" stroke="white" stroke-width="1.59" stroke-miterlimit="10"/>
</g>
<g style="mix-blend-mode:overlay" opacity="0.24">
<path d="M241.189 72.5112L173.175 140.283" stroke="white" stroke-width="1.59" stroke-miterlimit="10"/>
</g>
<g style="mix-blend-mode:overlay" opacity="0.24">
<path d="M244.75 72.5112L176.736 140.283" stroke="white" stroke-width="1.59" stroke-miterlimit="10"/>
</g>
<g style="mix-blend-mode:overlay" opacity="0.24">
<path d="M248.305 72.5112L180.291 140.283" stroke="white" stroke-width="1.59" stroke-miterlimit="10"/>
</g>
<g style="mix-blend-mode:overlay" opacity="0.24">
<path d="M251.866 72.5112L183.852 140.283" stroke="white" stroke-width="1.59" stroke-miterlimit="10"/>
</g>
<g style="mix-blend-mode:overlay" opacity="0.24">
<path d="M255.421 72.5112L187.407 140.283" stroke="white" stroke-width="1.59" stroke-miterlimit="10"/>
</g>
<g style="mix-blend-mode:overlay" opacity="0.24">
<path d="M258.982 72.5112L190.968 140.283" stroke="white" stroke-width="1.59" stroke-miterlimit="10"/>
</g>
<g style="mix-blend-mode:overlay" opacity="0.24">
<path d="M262.543 72.5112L194.523 140.283" stroke="white" stroke-width="1.59" stroke-miterlimit="10"/>
</g>
<g style="mix-blend-mode:overlay" opacity="0.24">
<path d="M266.098 72.5112L198.084 140.283" stroke="white" stroke-width="1.59" stroke-miterlimit="10"/>
</g>
<g style="mix-blend-mode:overlay" opacity="0.24">
<path d="M269.659 72.5112L201.639 140.283" stroke="white" stroke-width="1.59" stroke-miterlimit="10"/>
</g>
<g style="mix-blend-mode:overlay" opacity="0.24">
<path d="M273.214 72.5112L205.2 140.283" stroke="white" stroke-width="1.59" stroke-miterlimit="10"/>
</g>
<g style="mix-blend-mode:overlay" opacity="0.24">
<path d="M276.775 72.5112L208.761 140.283" stroke="white" stroke-width="1.59" stroke-miterlimit="10"/>
</g>
<g style="mix-blend-mode:overlay" opacity="0.24">
<path d="M280.33 72.5112L212.316 140.283" stroke="white" stroke-width="1.59" stroke-miterlimit="10"/>
</g>
<g style="mix-blend-mode:overlay" opacity="0.24">
<path d="M283.892 72.5112L215.877 140.283" stroke="white" stroke-width="1.59" stroke-miterlimit="10"/>
</g>
<g style="mix-blend-mode:overlay" opacity="0.24">
<path d="M287.446 72.5112L219.432 140.283" stroke="white" stroke-width="1.59" stroke-miterlimit="10"/>
</g>
<g style="mix-blend-mode:overlay" opacity="0.24">
<path d="M291.008 72.5112L222.994 140.283" stroke="white" stroke-width="1.59" stroke-miterlimit="10"/>
</g>
</g>
</g>
<g style="mix-blend-mode:overlay" opacity="0.24">
<g style="mix-blend-mode:overlay" opacity="0.24">
<g style="mix-blend-mode:overlay" opacity="0.24">
<path d="M89.3673 95.9556L21.3533 163.727" stroke="white" stroke-width="1.59" stroke-miterlimit="10"/>
</g>
<g style="mix-blend-mode:overlay" opacity="0.24">
<path d="M92.9223 95.9556L24.9082 163.727" stroke="white" stroke-width="1.59" stroke-miterlimit="10"/>
</g>
<g style="mix-blend-mode:overlay" opacity="0.24">
<path d="M96.4833 95.9556L28.4692 163.727" stroke="white" stroke-width="1.59" stroke-miterlimit="10"/>
</g>
<g style="mix-blend-mode:overlay" opacity="0.24">
<path d="M100.038 95.9556L32.0244 163.727" stroke="white" stroke-width="1.59" stroke-miterlimit="10"/>
</g>
<g style="mix-blend-mode:overlay" opacity="0.24">
<path d="M103.6 95.9556L35.5854 163.727" stroke="white" stroke-width="1.59" stroke-miterlimit="10"/>
</g>
<g style="mix-blend-mode:overlay" opacity="0.24">
<path d="M107.154 95.9556L39.1404 163.727" stroke="white" stroke-width="1.59" stroke-miterlimit="10"/>
</g>
<g style="mix-blend-mode:overlay" opacity="0.24">
<path d="M110.716 95.9556L42.7017 163.727" stroke="white" stroke-width="1.59" stroke-miterlimit="10"/>
</g>
<g style="mix-blend-mode:overlay" opacity="0.24">
<path d="M114.277 95.9556L46.2566 163.727" stroke="white" stroke-width="1.59" stroke-miterlimit="10"/>
</g>
<g style="mix-blend-mode:overlay" opacity="0.24">
<path d="M117.831 95.9556L49.8174 163.727" stroke="white" stroke-width="1.59" stroke-miterlimit="10"/>
</g>
<g style="mix-blend-mode:overlay" opacity="0.24">
<path d="M121.393 95.9556L53.3726 163.727" stroke="white" stroke-width="1.59" stroke-miterlimit="10"/>
</g>
<g style="mix-blend-mode:overlay" opacity="0.24">
<path d="M124.948 95.9556L56.9336 163.727" stroke="white" stroke-width="1.59" stroke-miterlimit="10"/>
</g>
<g style="mix-blend-mode:overlay" opacity="0.24">
<path d="M128.509 95.9556L60.4946 163.727" stroke="white" stroke-width="1.59" stroke-miterlimit="10"/>
</g>
<g style="mix-blend-mode:overlay" opacity="0.24">
<path d="M132.064 95.9556L64.0496 163.727" stroke="white" stroke-width="1.59" stroke-miterlimit="10"/>
</g>
<g style="mix-blend-mode:overlay" opacity="0.24">
<path d="M135.625 95.9556L67.6108 163.727" stroke="white" stroke-width="1.59" stroke-miterlimit="10"/>
</g>
<g style="mix-blend-mode:overlay" opacity="0.24">
<path d="M139.18 95.9556L71.1658 163.727" stroke="white" stroke-width="1.59" stroke-miterlimit="10"/>
</g>
<g style="mix-blend-mode:overlay" opacity="0.24">
<path d="M142.741 95.9556L74.7268 163.727" stroke="white" stroke-width="1.59" stroke-miterlimit="10"/>
</g>
<g style="mix-blend-mode:overlay" opacity="0.24">
<path d="M146.296 95.9556L78.282 163.727" stroke="white" stroke-width="1.59" stroke-miterlimit="10"/>
</g>
<g style="mix-blend-mode:overlay" opacity="0.24">
<path d="M149.857 95.9556L81.8428 163.727" stroke="white" stroke-width="1.59" stroke-miterlimit="10"/>
</g>
<g style="mix-blend-mode:overlay" opacity="0.24">
<path d="M153.418 95.9556L85.3979 163.727" stroke="white" stroke-width="1.59" stroke-miterlimit="10"/>
</g>
<g style="mix-blend-mode:overlay" opacity="0.24">
<path d="M156.973 95.9556L88.959 163.727" stroke="white" stroke-width="1.59" stroke-miterlimit="10"/>
</g>
<g style="mix-blend-mode:overlay" opacity="0.24">
<path d="M160.534 95.9556L92.5139 163.727" stroke="white" stroke-width="1.59" stroke-miterlimit="10"/>
</g>
<g style="mix-blend-mode:overlay" opacity="0.24">
<path d="M164.089 95.9556L96.075 163.727" stroke="white" stroke-width="1.59" stroke-miterlimit="10"/>
</g>
<g style="mix-blend-mode:overlay" opacity="0.24">
<path d="M167.65 95.9556L99.6362 163.727" stroke="white" stroke-width="1.59" stroke-miterlimit="10"/>
</g>
<g style="mix-blend-mode:overlay" opacity="0.24">
<path d="M171.205 95.9556L103.191 163.727" stroke="white" stroke-width="1.59" stroke-miterlimit="10"/>
</g>
<g style="mix-blend-mode:overlay" opacity="0.24">
<path d="M174.766 95.9556L106.752 163.727" stroke="white" stroke-width="1.59" stroke-miterlimit="10"/>
</g>
<g style="mix-blend-mode:overlay" opacity="0.24">
<path d="M178.321 95.9556L110.307 163.727" stroke="white" stroke-width="1.59" stroke-miterlimit="10"/>
</g>
<g style="mix-blend-mode:overlay" opacity="0.24">
<path d="M181.882 95.9556L113.868 163.727" stroke="white" stroke-width="1.59" stroke-miterlimit="10"/>
</g>
<g style="mix-blend-mode:overlay" opacity="0.24">
<path d="M185.437 95.9556L117.423 163.727" stroke="white" stroke-width="1.59" stroke-miterlimit="10"/>
</g>
<g style="mix-blend-mode:overlay" opacity="0.24">
<path d="M188.998 95.9556L120.984 163.727" stroke="white" stroke-width="1.59" stroke-miterlimit="10"/>
</g>
<g style="mix-blend-mode:overlay" opacity="0.24">
<path d="M192.559 95.9556L124.539 163.727" stroke="white" stroke-width="1.59" stroke-miterlimit="10"/>
</g>
<g style="mix-blend-mode:overlay" opacity="0.24">
<path d="M196.114 95.9556L128.1 163.727" stroke="white" stroke-width="1.59" stroke-miterlimit="10"/>
</g>
<g style="mix-blend-mode:overlay" opacity="0.24">
<path d="M199.675 95.9556L131.655 163.727" stroke="white" stroke-width="1.59" stroke-miterlimit="10"/>
</g>
<g style="mix-blend-mode:overlay" opacity="0.24">
<path d="M203.231 95.9556L135.217 163.727" stroke="white" stroke-width="1.59" stroke-miterlimit="10"/>
</g>
<g style="mix-blend-mode:overlay" opacity="0.24">
<path d="M206.792 95.9556L138.778 163.727" stroke="white" stroke-width="1.59" stroke-miterlimit="10"/>
</g>
<g style="mix-blend-mode:overlay" opacity="0.24">
<path d="M210.347 95.9556L142.333 163.727" stroke="white" stroke-width="1.59" stroke-miterlimit="10"/>
</g>
<g style="mix-blend-mode:overlay" opacity="0.24">
<path d="M213.908 95.9556L145.894 163.727" stroke="white" stroke-width="1.59" stroke-miterlimit="10"/>
</g>
<g style="mix-blend-mode:overlay" opacity="0.24">
<path d="M217.463 95.9556L149.449 163.727" stroke="white" stroke-width="1.59" stroke-miterlimit="10"/>
</g>
</g>
</g>
<g style="mix-blend-mode:overlay" opacity="0.24">
<g style="mix-blend-mode:overlay" opacity="0.24">
<g style="mix-blend-mode:overlay" opacity="0.24">
<path d="M162.222 165.361L94.2075 233.133" stroke="white" stroke-width="1.59" stroke-miterlimit="10"/>
</g>
<g style="mix-blend-mode:overlay" opacity="0.24">
<path d="M165.783 165.361L97.7686 233.133" stroke="white" stroke-width="1.59" stroke-miterlimit="10"/>
</g>
<g style="mix-blend-mode:overlay" opacity="0.24">
<path d="M169.338 165.361L101.324 233.133" stroke="white" stroke-width="1.59" stroke-miterlimit="10"/>
</g>
<g style="mix-blend-mode:overlay" opacity="0.24">
<path d="M172.899 165.361L104.885 233.133" stroke="white" stroke-width="1.59" stroke-miterlimit="10"/>
</g>
<g style="mix-blend-mode:overlay" opacity="0.24">
<path d="M176.454 165.361L108.44 233.133" stroke="white" stroke-width="1.59" stroke-miterlimit="10"/>
</g>
<g style="mix-blend-mode:overlay" opacity="0.24">
<path d="M180.015 165.361L112.001 233.133" stroke="white" stroke-width="1.59" stroke-miterlimit="10"/>
</g>
<g style="mix-blend-mode:overlay" opacity="0.24">
<path d="M183.576 165.361L115.556 233.133" stroke="white" stroke-width="1.59" stroke-miterlimit="10"/>
</g>
<g style="mix-blend-mode:overlay" opacity="0.24">
<path d="M187.131 165.361L119.117 233.133" stroke="white" stroke-width="1.59" stroke-miterlimit="10"/>
</g>
<g style="mix-blend-mode:overlay" opacity="0.24">
<path d="M190.692 165.361L122.672 233.133" stroke="white" stroke-width="1.59" stroke-miterlimit="10"/>
</g>
<g style="mix-blend-mode:overlay" opacity="0.24">
<path d="M194.247 165.361L126.233 233.133" stroke="white" stroke-width="1.59" stroke-miterlimit="10"/>
</g>
<g style="mix-blend-mode:overlay" opacity="0.24">
<path d="M197.808 165.361L129.794 233.133" stroke="white" stroke-width="1.59" stroke-miterlimit="10"/>
</g>
<g style="mix-blend-mode:overlay" opacity="0.24">
<path d="M201.363 165.361L133.349 233.133" stroke="white" stroke-width="1.59" stroke-miterlimit="10"/>
</g>
<g style="mix-blend-mode:overlay" opacity="0.24">
<path d="M204.924 165.361L136.91 233.133" stroke="white" stroke-width="1.59" stroke-miterlimit="10"/>
</g>
<g style="mix-blend-mode:overlay" opacity="0.24">
<path d="M208.479 165.361L140.465 233.133" stroke="white" stroke-width="1.59" stroke-miterlimit="10"/>
</g>
<g style="mix-blend-mode:overlay" opacity="0.24">
<path d="M212.04 165.361L144.026 233.133" stroke="white" stroke-width="1.59" stroke-miterlimit="10"/>
</g>
<g style="mix-blend-mode:overlay" opacity="0.24">
<path d="M215.595 165.361L147.581 233.133" stroke="white" stroke-width="1.59" stroke-miterlimit="10"/>
</g>
<g style="mix-blend-mode:overlay" opacity="0.24">
<path d="M219.156 165.361L151.142 233.133" stroke="white" stroke-width="1.59" stroke-miterlimit="10"/>
</g>
<g style="mix-blend-mode:overlay" opacity="0.24">
<path d="M222.717 165.361L154.697 233.133" stroke="white" stroke-width="1.59" stroke-miterlimit="10"/>
</g>
<g style="mix-blend-mode:overlay" opacity="0.24">
<path d="M226.272 165.361L158.258 233.133" stroke="white" stroke-width="1.59" stroke-miterlimit="10"/>
</g>
<g style="mix-blend-mode:overlay" opacity="0.24">
<path d="M229.833 165.361L161.813 233.133" stroke="white" stroke-width="1.59" stroke-miterlimit="10"/>
</g>
<g style="mix-blend-mode:overlay" opacity="0.24">
<path d="M233.388 165.361L165.374 233.133" stroke="white" stroke-width="1.59" stroke-miterlimit="10"/>
</g>
<g style="mix-blend-mode:overlay" opacity="0.24">
<path d="M236.949 165.361L168.935 233.133" stroke="white" stroke-width="1.59" stroke-miterlimit="10"/>
</g>
<g style="mix-blend-mode:overlay" opacity="0.24">
<path d="M240.504 165.361L172.49 233.133" stroke="white" stroke-width="1.59" stroke-miterlimit="10"/>
</g>
<g style="mix-blend-mode:overlay" opacity="0.24">
<path d="M244.066 165.361L176.052 233.133" stroke="white" stroke-width="1.59" stroke-miterlimit="10"/>
</g>
<g style="mix-blend-mode:overlay" opacity="0.24">
<path d="M247.621 165.361L179.606 233.133" stroke="white" stroke-width="1.59" stroke-miterlimit="10"/>
</g>
<g style="mix-blend-mode:overlay" opacity="0.24">
<path d="M251.182 165.361L183.167 233.133" stroke="white" stroke-width="1.59" stroke-miterlimit="10"/>
</g>
<g style="mix-blend-mode:overlay" opacity="0.24">
<path d="M254.737 165.361L186.723 233.133" stroke="white" stroke-width="1.59" stroke-miterlimit="10"/>
</g>
<g style="mix-blend-mode:overlay" opacity="0.24">
<path d="M258.298 165.361L190.284 233.133" stroke="white" stroke-width="1.59" stroke-miterlimit="10"/>
</g>
<g style="mix-blend-mode:overlay" opacity="0.24">
<path d="M261.859 165.361L193.839 233.133" stroke="white" stroke-width="1.59" stroke-miterlimit="10"/>
</g>
<g style="mix-blend-mode:overlay" opacity="0.24">
<path d="M265.414 165.361L197.4 233.133" stroke="white" stroke-width="1.59" stroke-miterlimit="10"/>
</g>
<g style="mix-blend-mode:overlay" opacity="0.24">
<path d="M268.975 165.361L200.955 233.133" stroke="white" stroke-width="1.59" stroke-miterlimit="10"/>
</g>
<g style="mix-blend-mode:overlay" opacity="0.24">
<path d="M272.53 165.361L204.516 233.133" stroke="white" stroke-width="1.59" stroke-miterlimit="10"/>
</g>
<g style="mix-blend-mode:overlay" opacity="0.24">
<path d="M276.091 165.361L208.077 233.133" stroke="white" stroke-width="1.59" stroke-miterlimit="10"/>
</g>
<g style="mix-blend-mode:overlay" opacity="0.24">
<path d="M279.646 165.361L211.632 233.133" stroke="white" stroke-width="1.59" stroke-miterlimit="10"/>
</g>
<g style="mix-blend-mode:overlay" opacity="0.24">
<path d="M283.207 165.361L215.193 233.133" stroke="white" stroke-width="1.59" stroke-miterlimit="10"/>
</g>
<g style="mix-blend-mode:overlay" opacity="0.24">
<path d="M286.762 165.361L218.748 233.133" stroke="white" stroke-width="1.59" stroke-miterlimit="10"/>
</g>
<g style="mix-blend-mode:overlay" opacity="0.24">
<path d="M290.323 165.361L222.309 233.133" stroke="white" stroke-width="1.59" stroke-miterlimit="10"/>
</g>
</g>
</g>
</g>
<path opacity="0.3" d="M104.296 53.4889C103.828 52.4418 102.783 51.7118 101.558 51.7118C100.945 51.7118 100.381 51.8973 99.9064 52.2084C99.4259 51.1972 98.3991 50.4971 97.204 50.4971C96.3453 50.4971 95.5826 50.8561 95.0302 51.4305C94.1114 50.3774 92.7603 49.7132 91.253 49.7132C89.6676 49.7132 88.2624 50.4492 87.3436 51.5921C86.7912 50.9339 85.9745 50.503 85.0437 50.503C85.0076 50.503 84.9776 50.509 84.9476 50.515C83.8366 48.2532 81.5126 46.6914 78.8163 46.6914C76.12 46.6914 73.6279 48.3609 72.571 50.7484C72.2047 50.5928 71.8084 50.503 71.388 50.503C69.9528 50.503 68.7577 51.5083 68.4575 52.8487C67.9711 52.5076 67.3766 52.2982 66.734 52.2982C65.7552 52.2982 64.8965 52.7709 64.344 53.4949H104.302L104.296 53.4889Z" fill="#43A1F6"/>
<path opacity="0.3" d="M184.549 65.3787C184.939 64.499 185.822 63.8887 186.849 63.8887C187.359 63.8887 187.84 64.0443 188.236 64.3076C188.644 63.4579 189.503 62.8715 190.506 62.8715C191.227 62.8715 191.869 63.1766 192.331 63.6553C193.1 62.7698 194.235 62.2133 195.502 62.2133C196.829 62.2133 198.018 62.8296 198.787 63.787C199.249 63.2305 199.94 62.8715 200.721 62.8715C200.751 62.8715 200.775 62.8775 200.805 62.8775C201.736 60.9746 203.693 59.6642 205.957 59.6642C208.221 59.6642 210.311 61.0644 211.206 63.0749C211.512 62.9433 211.848 62.8715 212.202 62.8715C213.409 62.8715 214.412 63.7152 214.665 64.8401C215.073 64.5529 215.571 64.3794 216.112 64.3794C216.934 64.3794 217.655 64.7803 218.118 65.3846H184.555L184.549 65.3787Z" fill="#43A1F6"/>
<path d="M187.948 152.095C182.723 151.179 177.072 136.011 186.801 130.924C196.529 125.844 199.808 123.152 201.837 111.31C203.867 99.468 210.785 105.093 209.23 112.022C207.674 118.951 218.057 118.089 220.219 121.392C223.972 127.119 215.667 128.034 210.917 131.295C206.161 134.557 214.646 136.783 211.271 142.3C207.897 147.817 196.853 153.657 187.948 152.095Z" fill="#0373D8"/>
<path d="M187.413 151.951L189.263 148.702L191.154 145.483C192.415 143.335 193.736 141.222 195.076 139.122C196.427 137.028 197.79 134.946 199.237 132.911C199.958 131.894 200.69 130.883 201.429 129.883C202.192 128.896 202.948 127.909 203.759 126.957C203.423 127.484 203.08 127.998 202.726 128.513L201.711 130.081C201.033 131.122 200.348 132.163 199.688 133.216L195.67 139.505C194.319 141.593 192.986 143.694 191.611 145.77C190.235 147.846 188.896 149.947 187.413 151.951Z" fill="white"/>
<path d="M192.806 143.353C194.865 142.593 196.973 142.042 199.093 141.54C201.219 141.061 203.351 140.63 205.537 140.409C203.477 141.175 201.369 141.725 199.249 142.222C197.123 142.7 194.992 143.131 192.806 143.353Z" fill="white"/>
<path d="M197.976 135.287C197.742 134.012 197.724 132.743 197.754 131.475C197.808 130.206 197.916 128.944 198.24 127.687C198.475 128.962 198.499 130.23 198.463 131.499C198.409 132.767 198.3 134.03 197.976 135.287Z" fill="white"/>
<path d="M189.581 159.7C189.581 159.7 186.65 153.998 191.653 150.348C196.655 146.692 198.871 142 196.012 137.68C193.16 133.366 185.828 136.053 182.735 133.994C179.636 131.93 180.969 127.514 178.429 122.739C175.024 116.336 168.437 118.03 166.893 119.017C165.35 120.004 162.618 123.026 166.197 128.83C169.776 134.634 167.14 136.669 164.293 141.229C161.447 145.788 166.437 147.559 174.532 149.097C182.627 150.635 184.026 160.544 184.026 160.544L189.581 159.7Z" fill="#0055A3"/>
<path d="M187.521 165.427C187.473 163.536 187.287 161.663 187.023 159.802C186.746 157.941 186.434 156.092 185.99 154.267C185.564 152.442 185.071 150.629 184.507 148.846L183.618 146.177L182.591 143.562C182.279 142.677 181.858 141.839 181.474 140.983C181.078 140.133 180.723 139.266 180.267 138.446L178.964 135.951C178.76 135.526 178.495 135.143 178.255 134.736L177.535 133.527C175.643 130.278 173.349 127.286 171.037 124.289C171.68 124.977 172.322 125.677 172.953 126.383C173.577 127.095 174.256 127.765 174.814 128.531C175.955 130.045 177.156 131.523 178.153 133.138C180.303 136.274 181.99 139.709 183.468 143.209C184.927 146.722 185.984 150.396 186.692 154.123C187.053 155.99 187.293 157.869 187.473 159.76C187.581 161.651 187.671 163.548 187.509 165.433L187.521 165.427Z" fill="white"/>
<path d="M184.098 146.889C183.047 145.902 181.87 145.118 180.645 144.442C179.414 143.778 178.123 143.239 176.79 142.826C176.117 142.647 175.445 142.437 174.754 142.323C174.412 142.258 174.07 142.162 173.721 142.12C173.373 142.078 173.025 142.024 172.676 141.97C172.328 141.905 171.974 141.887 171.626 141.857L170.563 141.761C169.854 141.713 169.139 141.713 168.413 141.647C169.121 141.504 169.836 141.384 170.557 141.294C171.277 141.27 172.01 141.181 172.737 141.234C174.202 141.258 175.655 141.528 177.072 141.923C178.471 142.371 179.829 142.982 181.042 143.813C182.249 144.639 183.36 145.65 184.11 146.895L184.098 146.889Z" fill="white"/>
<path d="M185.335 150.437C184.879 149.217 184.729 147.882 184.807 146.56C184.885 145.232 185.263 143.909 185.924 142.724L186.176 142.282C186.266 142.138 186.38 142.006 186.476 141.875C186.692 141.611 186.867 141.318 187.113 141.085L187.851 140.391C188.098 140.157 188.398 139.996 188.668 139.804C189.203 139.392 189.845 139.176 190.434 138.895C191.052 138.667 191.701 138.524 192.325 138.38C191.761 138.727 191.172 138.979 190.638 139.314C190.115 139.679 189.557 139.972 189.106 140.403C188.128 141.163 187.341 142.126 186.752 143.185C186.146 144.238 185.762 145.423 185.539 146.644C185.329 147.87 185.257 149.139 185.329 150.431L185.335 150.437Z" fill="white"/>
<path d="M207.116 156.756C216.394 159.096 216.616 151.042 210.935 146.548C207.38 143.742 214.634 142.24 217.445 139.511C222.273 134.82 214.532 128.926 210.515 133.037C206.503 137.142 204.011 138.404 201.087 138.763C198.162 139.122 189.911 139.212 190.62 144.442C191.064 147.703 188.236 150.485 188.62 153.752C197.195 150.862 202.282 155.536 207.116 156.75V156.756Z" fill="#43A1F6"/>
<path d="M188.62 153.752C191.995 150.826 195.634 148.235 199.381 145.812C201.267 144.621 203.182 143.472 205.152 142.407C207.122 141.348 209.139 140.385 211.223 139.565C209.295 140.696 207.404 141.857 205.506 143.006C203.621 144.184 201.741 145.357 199.873 146.554L194.265 150.156C192.403 151.365 190.517 152.556 188.626 153.74L188.62 153.752Z" fill="white"/>
<path d="M198.15 147.146C198.066 146.524 198.066 145.914 198.096 145.309C198.12 144.705 198.192 144.107 198.288 143.514C198.384 142.922 198.51 142.329 198.678 141.749C198.841 141.169 199.033 140.588 199.315 140.026C199.405 140.648 199.399 141.258 199.369 141.863C199.345 142.467 199.273 143.065 199.177 143.658C199.081 144.25 198.955 144.843 198.787 145.423C198.624 146.003 198.432 146.584 198.15 147.146Z" fill="white"/>
<path d="M195.61 148.834C196.709 148.654 197.808 148.559 198.9 148.499C199.999 148.433 201.098 148.415 202.191 148.409C203.29 148.421 204.389 148.445 205.482 148.517C206.581 148.582 207.674 148.684 208.773 148.876C207.674 149.061 206.575 149.151 205.482 149.217C204.383 149.283 203.284 149.301 202.191 149.306C201.092 149.295 199.993 149.271 198.9 149.199C197.802 149.127 196.709 149.031 195.61 148.84V148.834Z" fill="white"/>
<path d="M198.498 168.802H184.921L181.762 155.284H201.657L198.498 168.802Z" fill="#003261"/>
<path d="M203.783 151.844H179.642V157.283H203.783V151.844Z" fill="#0B5BA5"/>
<g opacity="0.74">
<path opacity="0.74" d="M65.5211 153.519C66.488 151.132 68.8119 150.413 69.9469 148.259C71.9826 144.406 68.5597 143.413 68.1514 140.851C67.6109 137.441 70.013 137.746 71.25 135.67C72.7093 133.228 70.2412 130.338 71.7545 128.022C75.5197 122.26 81.6449 128.591 85.6323 129.925C88.0764 130.739 91.7335 131.086 93.6611 129.536C96.2013 127.49 98.7355 122.751 96.0452 120.016C92.2559 116.163 93.6431 114.182 97.7446 113.207C99.5582 112.776 100.393 111.394 98.3752 109.82C101.438 114.23 91.2291 110.215 89.4095 113.207C88.1484 115.283 89.7038 116.51 90.1422 118.107C91.2651 122.194 88.4487 125.707 82.5697 121.62C79.1888 119.268 79.477 115.08 75.892 114.008C72.5411 113.009 68.6498 116.001 67.4188 120.01C66.1997 123.977 64.7525 126.012 60.4588 125.563C55.3605 125.025 51.4271 128.178 53.703 132.726C55.7268 136.759 61.3296 134.467 64.17 136.777C67.3227 139.344 66.3438 142.874 62.2604 146.189C60.9933 147.218 59.0476 148.756 59.546 150.509C59.8703 151.646 61.9061 153.453 63.2212 153.501L65.5151 153.525L65.5211 153.519Z" fill="white"/>
</g>
<path d="M73.0695 155.111H71.9766V153.645C71.9766 153.016 71.4662 152.514 70.8416 152.514H57.9306C57.3001 152.514 56.7957 153.022 56.7957 153.645V162.638C56.7957 166.043 59.564 168.808 62.9869 168.808H65.7913C68.5057 168.808 70.8056 167.06 71.6403 164.637H73.0695C74.1625 164.637 75.0452 163.757 75.0452 162.668V157.085C75.0452 155.996 74.1625 155.117 73.0695 155.117V155.111ZM73.7842 162.668C73.7842 163.057 73.4659 163.38 73.0695 163.38H71.9286C71.9586 163.135 71.9766 162.89 71.9766 162.638V156.373H73.0695C73.4599 156.373 73.7842 156.69 73.7842 157.085V162.668Z" fill="#BDBCBA"/>
<path d="M70.3192 155.703C70.3192 154.584 70.085 153.513 69.6646 152.508H57.9306C57.3001 152.508 56.7957 153.016 56.7957 153.639V162.632C56.7957 163.721 57.0839 164.745 57.5763 165.63C57.7565 165.636 57.9306 165.654 58.1108 165.654C64.8545 165.654 70.3192 161.196 70.3192 155.697V155.703Z" fill="#CACACA"/>
<path d="M208.533 182.355H45.0436C43.2961 182.355 41.8789 180.943 41.8789 179.201C41.8789 177.46 43.2961 176.048 45.0436 176.048H208.533C210.281 176.048 211.698 177.46 211.698 179.201C211.698 180.943 210.281 182.355 208.533 182.355Z" fill="#0B5BA5"/>
<path d="M212.539 177.705H41.0381C38.57 177.705 36.5703 175.713 36.5703 173.253C36.5703 170.794 38.57 168.802 41.0381 168.802H212.539C215.007 168.802 217.006 170.794 217.006 173.253C217.006 175.713 215.007 177.705 212.539 177.705Z" fill="#003261"/>
<path d="M184.789 95.6144C191.196 95.6144 196.391 90.4386 196.391 84.0539C196.391 77.6691 191.196 72.4933 184.789 72.4933C178.381 72.4933 173.187 77.6691 173.187 84.0539C173.187 90.4386 178.381 95.6144 184.789 95.6144Z" fill="#123978"/>
<path d="M184.789 93.0654C189.784 93.0654 193.833 89.0308 193.833 84.0539C193.833 79.0769 189.784 75.0424 184.789 75.0424C179.794 75.0424 175.745 79.0769 175.745 84.0539C175.745 89.0308 179.794 93.0654 184.789 93.0654Z" fill="white"/>
<path d="M184.789 84.0538V78.6385" stroke="#4B4583" stroke-width="0.98" stroke-linecap="round" stroke-linejoin="round"/>
<path d="M184.789 84.0538L188.11 87.3688" stroke="#4B4583" stroke-width="0.98" stroke-linecap="round" stroke-linejoin="round"/>
<path d="M184.783 92.0481V90.983" stroke="#4B4583" stroke-width="0.68" stroke-linecap="round" stroke-linejoin="round"/>
<path d="M188.794 90.983L188.26 90.0496" stroke="#4B4583" stroke-width="0.68" stroke-linecap="round" stroke-linejoin="round"/>
<path d="M191.731 88.057L190.8 87.5184" stroke="#4B4583" stroke-width="0.68" stroke-linecap="round" stroke-linejoin="round"/>
<path d="M192.812 84.0598H191.731" stroke="#4B4583" stroke-width="0.68" stroke-linecap="round" stroke-linejoin="round"/>
<path d="M191.731 80.0627L190.806 80.5953" stroke="#4B4583" stroke-width="0.68" stroke-linecap="round" stroke-linejoin="round"/>
<path d="M188.794 77.1366L188.26 78.0581" stroke="#4B4583" stroke-width="0.68" stroke-linecap="round" stroke-linejoin="round"/>
<path d="M184.783 77.1366V76.0596" stroke="#4B4583" stroke-width="0.68" stroke-linecap="round" stroke-linejoin="round"/>
<path d="M181.312 78.0641L180.777 77.1366" stroke="#4B4583" stroke-width="0.68" stroke-linecap="round" stroke-linejoin="round"/>
<path d="M178.766 80.5953L177.841 80.0627" stroke="#4B4583" stroke-width="0.68" stroke-linecap="round" stroke-linejoin="round"/>
<path d="M177.841 84.0598H176.766" stroke="#4B4583" stroke-width="0.68" stroke-linecap="round" stroke-linejoin="round"/>
<path d="M178.772 87.5184L177.841 88.057" stroke="#4B4583" stroke-width="0.68" stroke-linecap="round" stroke-linejoin="round"/>
<path d="M181.312 90.0496L180.777 90.983" stroke="#4B4583" stroke-width="0.68" stroke-linecap="round" stroke-linejoin="round"/>
<path d="M184.789 84.5745C185.077 84.5745 185.311 84.3414 185.311 84.0539C185.311 83.7664 185.077 83.5333 184.789 83.5333C184.5 83.5333 184.266 83.7664 184.266 84.0539C184.266 84.3414 184.5 84.5745 184.789 84.5745Z" fill="#123978"/>
<path d="M100.735 71.6196C95.7989 66.701 87.7641 66.7548 82.8999 71.7812C78.4321 76.3946 78.2339 83.7845 82.4735 88.6134C86.5871 93.2987 93.3008 94.1244 98.3331 91.1027C98.7774 90.8334 99.3179 90.7735 99.8163 90.9231L102.975 91.8626C103.215 91.9344 103.437 91.713 103.371 91.4677L102.429 88.3202C102.278 87.8236 102.344 87.285 102.609 86.8362C105.497 82.0493 104.873 75.7484 100.729 71.6196H100.735Z" fill="#BDBCBA"/>
<path d="M84.8215 74.9764H98.9876" stroke="white" stroke-width="1.67" stroke-linecap="round" stroke-linejoin="round"/>
<path d="M95.5886 78.6086H98.9875" stroke="white" stroke-width="1.67" stroke-linecap="round" stroke-linejoin="round"/>
<path d="M84.8215 78.6086H92.2139" stroke="white" stroke-width="1.67" stroke-linecap="round" stroke-linejoin="round"/>
<path d="M91.2952 82.2407H98.9877" stroke="white" stroke-width="1.67" stroke-linecap="round" stroke-linejoin="round"/>
<path d="M84.8215 82.2407H88.5147" stroke="white" stroke-width="1.67" stroke-linecap="round" stroke-linejoin="round"/>
<path d="M95.5886 85.8728H98.9875" stroke="white" stroke-width="1.67" stroke-linecap="round" stroke-linejoin="round"/>
<path d="M84.8215 85.8728H92.0457" stroke="white" stroke-width="1.67" stroke-linecap="round" stroke-linejoin="round"/>
<path d="M126.882 77.5316C126.882 77.5316 125.621 71.9727 130.989 67.1976C136.358 62.4226 144.657 62.8594 149.209 65.3487C155.106 68.5739 160.895 77.1127 155.604 89.3135C150.314 101.514 174.562 96.4761 166.425 113.003C158.288 129.53 144.23 118.119 139.174 124.965C134.118 131.81 116.619 113.859 131.572 101.311C146.518 88.763 128.011 88.8169 126.882 77.5316Z" fill="#914E00"/>
<path d="M125.512 113.943C119.375 116.551 114.295 132.043 113.82 165.098H127.044C127.044 165.098 135.078 109.88 125.512 113.943Z" fill="#162F50"/>
<path d="M141.918 109.018C149.173 108.306 160.991 109.503 165.242 114.182C166.179 115.211 166.185 117.144 165.681 119.819C163.903 129.261 155.796 147.954 160.108 168.808H122.354C122.354 168.808 125.933 152.514 123.933 147.368C121.645 141.492 119.663 136.178 121.915 131.266C127.044 120.082 122.45 115.457 125.699 113.841C130.172 111.615 135.781 109.622 141.912 109.024L141.918 109.018Z" fill="#1C3658"/>
<path d="M157.502 136.687C155.922 145.818 145.311 146.943 139.991 145.16C139.991 145.16 147.731 149.827 153.31 147.206C153.31 147.206 154.733 151.664 152.607 165.69H159.549C159.549 165.69 159.549 165.66 159.549 165.618C158.45 158.282 158.793 151.263 159.754 144.891C159.934 143.275 160.174 141.809 160.492 140.624L160.504 140.588C161.387 136.118 162.486 132.031 163.471 128.459C163.891 126.042 164.053 123.924 164.053 121.267C164.053 121.267 159.075 127.562 157.496 136.693L157.502 136.687Z" fill="#162F50"/>
<path d="M157.898 156.284C157.898 156.284 151.304 164.356 148.116 162.172C143.894 159.275 140.417 159.329 137.625 160.993C134.73 162.716 133.625 165.696 133.625 165.696H156.259L162.846 160.017L157.898 156.29V156.284Z" fill="#F4AE98"/>
<path d="M165.488 114.511C165.488 114.511 171.307 129.656 176.298 142.042C180.327 152.035 156.036 165.66 156.036 165.66L152.025 160.305L166.017 144.855L157.46 126.879C157.46 126.879 152.499 117.072 160.03 113.596C164.221 111.663 165.488 114.517 165.488 114.517V114.511Z" fill="#1C3658"/>
<path d="M146.885 94.2681C146.885 94.2681 145.972 105.751 148.734 108.749C152.289 112.602 146.05 120.92 136.676 127.221C136.676 127.221 131.439 121.422 135.541 111.98C139.648 102.538 135.667 97.2001 135.667 97.2001L146.885 94.2681Z" fill="#F4AE98"/>
<path d="M148.734 89.3076C148.734 97.1762 143.173 103.549 138.471 103.549C133.769 103.549 127.902 98.3191 127.11 88.6374C126.467 80.7987 130.713 75.0663 137.12 75.0663C143.528 75.0663 148.728 81.4449 148.728 89.3136L148.734 89.3076Z" fill="#FFB99F"/>
<path d="M129.152 73.2233C128.491 73.6003 127.062 74.5277 125.392 75.6347C123.579 76.8375 121.639 78.9258 120.979 81.2056C119.838 85.1249 122.732 90.0915 128.485 88.3382C134.244 86.585 136.994 77.382 141.666 82.7015C147.473 89.3136 149.575 85.6276 149.575 85.6276C149.575 85.6276 148.41 77.3939 142.531 73.69C139.378 71.7034 134.628 70.0758 129.152 73.2233Z" fill="#914E00"/>
<path d="M152.607 86.4774C152.607 89.0444 151.082 91.1267 149.208 91.1267C147.335 91.1267 145.81 89.0444 145.81 86.4774C145.81 83.9103 147.335 81.828 149.208 81.828C151.082 81.828 152.607 83.9103 152.607 86.4774Z" fill="#151F2C"/>
<path d="M138.507 70.9854C133.277 69.9802 128.233 71.9488 125.392 75.6288C128.527 73.4926 132.634 72.5651 136.844 73.3729C143.792 74.7073 148.716 80.332 148.878 86.5731C149.004 86.1662 149.112 85.7533 149.196 85.3225C150.463 78.7763 145.677 72.3557 138.513 70.9794L138.507 70.9854Z" fill="#151F2C"/>
<path d="M148.47 87.9912C148.47 87.9912 149.419 98.4927 139.726 99.492" stroke="#151F2C" stroke-width="1.05" stroke-miterlimit="10"/>
<path d="M139.096 100.539H137.571C137.078 100.539 136.676 100.138 136.676 99.6476C136.676 99.1569 137.078 98.756 137.571 98.756H139.096C139.588 98.756 139.991 99.1569 139.991 99.6476C139.991 100.138 139.588 100.539 139.096 100.539Z" fill="#151F2C"/>
<path d="M161.729 165.654H106.746C105.977 165.654 105.353 166.276 105.353 167.042V167.413C105.353 168.18 105.977 168.801 106.746 168.801H161.729C162.499 168.801 163.122 168.18 163.122 167.413V167.042C163.122 166.276 162.499 165.654 161.729 165.654Z" fill="#004788"/>
<path d="M136.31 168.802H85.5242C84.143 168.802 82.912 167.94 82.4376 166.647L70.5955 134.228C69.8148 132.091 71.4001 129.835 73.6821 129.835H124.467C125.849 129.835 127.08 130.697 127.554 131.99L139.396 164.409C140.177 166.546 138.592 168.802 136.31 168.802Z" fill="#0055A2"/>
<path d="M72.5112 130.057C72.7034 149.217 98.4534 164.715 130.202 164.715C133.313 164.715 136.37 164.565 139.348 164.278L127.554 131.996C127.08 130.703 125.849 129.841 124.468 129.841H73.6822C73.2619 129.841 72.8715 129.919 72.5112 130.057Z" fill="#0B5BA5"/>
<path d="M108.085 148.678C108.085 150.796 106.362 152.508 104.242 152.508C102.122 152.508 100.399 150.79 100.399 148.678C100.399 146.566 102.122 144.849 104.242 144.849C106.362 144.849 108.085 146.566 108.085 148.678Z" fill="#1468B6"/>
<path d="M163.17 47.0983C166.749 43.532 172.58 43.5679 176.111 47.218C179.354 50.5629 179.492 55.9243 176.418 59.4248C173.433 62.8235 168.563 63.4219 164.912 61.2319C164.587 61.0404 164.197 60.9925 163.837 61.1002L161.543 61.7824C161.369 61.8362 161.207 61.6747 161.255 61.4952L161.939 59.2094C162.047 58.8503 161.999 58.4554 161.807 58.1323C159.711 54.6617 160.162 50.0902 163.17 47.0923V47.0983Z" fill="#BDBCBA"/>
<path d="M164.546 54.949C165.355 54.949 166.011 54.2953 166.011 53.489C166.011 52.6826 165.355 52.0289 164.546 52.0289C163.736 52.0289 163.08 52.6826 163.08 53.489C163.08 54.2953 163.736 54.949 164.546 54.949Z" fill="white"/>
<path d="M169.572 54.949C170.381 54.949 171.037 54.2953 171.037 53.489C171.037 52.6826 170.381 52.0289 169.572 52.0289C168.763 52.0289 168.107 52.6826 168.107 53.489C168.107 54.2953 168.763 54.949 169.572 54.949Z" fill="white"/>
<path d="M174.604 54.949C175.413 54.949 176.069 54.2953 176.069 53.489C176.069 52.6826 175.413 52.0289 174.604 52.0289C173.795 52.0289 173.139 52.6826 173.139 53.489C173.139 54.2953 173.795 54.949 174.604 54.949Z" fill="white"/>
<g opacity="0.07">
<g opacity="0.07">
<path opacity="0.07" d="M201.549 46.8291L202.84 48.1216" stroke="#4B4583" stroke-linecap="round" stroke-linejoin="round"/>
<path opacity="0.07" d="M202.84 46.8291L201.549 48.1216" stroke="#4B4583" stroke-linecap="round" stroke-linejoin="round"/>
</g>
<g opacity="0.07">
<path opacity="0.07" d="M40.0713 115.624L42.6655 118.203" stroke="#4B4583" stroke-width="2" stroke-linecap="round" stroke-linejoin="round"/>
<path opacity="0.07" d="M42.6655 115.624L40.0713 118.203" stroke="#4B4583" stroke-width="2" stroke-linecap="round" stroke-linejoin="round"/>
</g>
<g opacity="0.07">
<path opacity="0.07" d="M111.49 100.539L113.304 102.346" stroke="#4B4583" stroke-width="1.4" stroke-linecap="round" stroke-linejoin="round"/>
<path opacity="0.07" d="M113.304 100.539L111.49 102.346" stroke="#4B4583" stroke-width="1.4" stroke-linecap="round" stroke-linejoin="round"/>
</g>
<g opacity="0.07">
<path opacity="0.07" d="M213.721 163.733L215.535 165.534" stroke="#4B4583" stroke-width="1.4" stroke-linecap="round" stroke-linejoin="round"/>
<path opacity="0.07" d="M215.535 163.733L213.721 165.534" stroke="#4B4583" stroke-width="1.4" stroke-linecap="round" stroke-linejoin="round"/>
</g>
<path opacity="0.07" d="M142.969 53.489C142.969 54.0993 142.471 54.596 141.858 54.596C141.246 54.596 140.747 54.0993 140.747 53.489C140.747 52.8786 141.246 52.382 141.858 52.382C142.471 52.382 142.969 52.8786 142.969 53.489Z" stroke="#4B4583" stroke-width="1.4" stroke-linecap="round" stroke-linejoin="round"/>
<path opacity="0.07" d="M81.1281 98.7559C81.1281 99.3663 80.6297 99.8629 80.0172 99.8629C79.4047 99.8629 78.9062 99.3663 78.9062 98.7559C78.9062 98.1456 79.4047 97.6489 80.0172 97.6489C80.6297 97.6489 81.1281 98.1456 81.1281 98.7559Z" stroke="#4B4583" stroke-width="1.4" stroke-linecap="round" stroke-linejoin="round"/>
<path opacity="0.07" d="M215.739 84.7719C215.739 85.3823 215.241 85.8789 214.628 85.8789C214.016 85.8789 213.517 85.3823 213.517 84.7719C213.517 84.1616 214.016 83.6649 214.628 83.6649C215.241 83.6649 215.739 84.1616 215.739 84.7719Z" stroke="#4B4583" stroke-width="1.4" stroke-linecap="round" stroke-linejoin="round"/>
<path opacity="0.07" d="M45.9021 146.889C45.9021 148.337 44.7251 149.51 43.2719 149.51C41.8186 149.51 40.6416 148.337 40.6416 146.889C40.6416 145.441 41.8186 144.268 43.2719 144.268C44.7251 144.268 45.9021 145.441 45.9021 146.889Z" stroke="#4B4583" stroke-width="1.4" stroke-linecap="round" stroke-linejoin="round"/>
<path opacity="0.07" d="M190.74 113.799C190.74 115.247 189.563 116.42 188.109 116.42C186.656 116.42 185.479 115.247 185.479 113.799C185.479 112.351 186.656 111.178 188.109 111.178C189.563 111.178 190.74 112.351 190.74 113.799Z" stroke="#4B4583" stroke-width="1.4" stroke-linecap="round" stroke-linejoin="round"/>
</g>
</svg>
