<svg width="811" height="575" viewBox="0 0 811 575" fill="none" xmlns="http://www.w3.org/2000/svg">
<g opacity="0.39">
<path opacity="0.64" d="M618.284 104.616C587.027 92.7252 533.577 36.1956 478.325 104.932C429.217 166.03 372.408 146.957 344.178 129.447C297.014 100.211 232.224 79.3591 203.124 142.284C174.024 205.21 201.537 264.119 93.5521 281.959C-14.4331 299.799 -9.91152 435.23 91.5271 462.641C192.966 490.052 228.44 430.134 319.544 456.294C411.879 482.812 517.573 473.228 681.37 457.463C845.166 441.697 805.18 142.016 618.269 104.615C431.359 67.2128 618.284 104.616 618.284 104.616Z" fill="#C8C7C9"/>
<path opacity="0.31" d="M744.937 147.857C709.605 162.281 589.956 163.333 552.205 94.0044C512.502 21.0771 447.875 -31.3751 384.474 57.4342C321.072 146.244 327.63 184.145 197.665 140.002C67.4488 95.7709 2.27575 216.193 79.8044 290.559C159.406 366.927 168.552 445.993 316.78 492.029C407.796 520.289 596.248 507.594 661.809 438.365C721.767 375.043 863.355 74.1377 744.941 147.84C626.527 221.542 744.937 147.857 744.937 147.857Z" fill="#9C9C9C"/>
</g>
<g style="mix-blend-mode:overlay" opacity="0.24">
<g style="mix-blend-mode:overlay" opacity="0.24">
<g style="mix-blend-mode:overlay" opacity="0.24">
<g style="mix-blend-mode:overlay" opacity="0.24">
<path d="M434.867 129.592L253.6 310.859" stroke="white" stroke-width="1.59" stroke-miterlimit="10"/>
</g>
<g style="mix-blend-mode:overlay" opacity="0.24">
<path d="M444.357 129.592L263.091 310.859" stroke="white" stroke-width="1.59" stroke-miterlimit="10"/>
</g>
<g style="mix-blend-mode:overlay" opacity="0.24">
<path d="M453.832 129.592L272.565 310.859" stroke="white" stroke-width="1.59" stroke-miterlimit="10"/>
</g>
<g style="mix-blend-mode:overlay" opacity="0.24">
<path d="M463.323 129.592L282.056 310.859" stroke="white" stroke-width="1.59" stroke-miterlimit="10"/>
</g>
<g style="mix-blend-mode:overlay" opacity="0.24">
<path d="M472.814 129.592L291.531 310.859" stroke="white" stroke-width="1.59" stroke-miterlimit="10"/>
</g>
<g style="mix-blend-mode:overlay" opacity="0.24">
<path d="M482.288 129.592L301.021 310.859" stroke="white" stroke-width="1.59" stroke-miterlimit="10"/>
</g>
<g style="mix-blend-mode:overlay" opacity="0.24">
<path d="M491.779 129.592L310.496 310.859" stroke="white" stroke-width="1.59" stroke-miterlimit="10"/>
</g>
<g style="mix-blend-mode:overlay" opacity="0.24">
<path d="M501.254 129.592L319.987 310.859" stroke="white" stroke-width="1.59" stroke-miterlimit="10"/>
</g>
<g style="mix-blend-mode:overlay" opacity="0.24">
<path d="M510.744 129.592L329.461 310.859" stroke="white" stroke-width="1.59" stroke-miterlimit="10"/>
</g>
<g style="mix-blend-mode:overlay" opacity="0.24">
<path d="M520.219 129.592L338.952 310.859" stroke="white" stroke-width="1.59" stroke-miterlimit="10"/>
</g>
<g style="mix-blend-mode:overlay" opacity="0.24">
<path d="M529.71 129.592L348.443 310.859" stroke="white" stroke-width="1.59" stroke-miterlimit="10"/>
</g>
<g style="mix-blend-mode:overlay" opacity="0.24">
<path d="M539.184 129.592L357.917 310.859" stroke="white" stroke-width="1.59" stroke-miterlimit="10"/>
</g>
<g style="mix-blend-mode:overlay" opacity="0.24">
<path d="M548.675 129.592L367.408 310.859" stroke="white" stroke-width="1.59" stroke-miterlimit="10"/>
</g>
<g style="mix-blend-mode:overlay" opacity="0.24">
<path d="M558.149 129.592L376.883 310.859" stroke="white" stroke-width="1.59" stroke-miterlimit="10"/>
</g>
<g style="mix-blend-mode:overlay" opacity="0.24">
<path d="M567.64 129.592L386.373 310.859" stroke="white" stroke-width="1.59" stroke-miterlimit="10"/>
</g>
<g style="mix-blend-mode:overlay" opacity="0.24">
<path d="M577.115 129.592L395.848 310.859" stroke="white" stroke-width="1.59" stroke-miterlimit="10"/>
</g>
<g style="mix-blend-mode:overlay" opacity="0.24">
<path d="M586.606 129.592L405.339 310.859" stroke="white" stroke-width="1.59" stroke-miterlimit="10"/>
</g>
<g style="mix-blend-mode:overlay" opacity="0.24">
<path d="M596.096 129.592L414.813 310.859" stroke="white" stroke-width="1.59" stroke-miterlimit="10"/>
</g>
<g style="mix-blend-mode:overlay" opacity="0.24">
<path d="M605.571 129.592L424.304 310.859" stroke="white" stroke-width="1.59" stroke-miterlimit="10"/>
</g>
<g style="mix-blend-mode:overlay" opacity="0.24">
<path d="M615.062 129.592L433.779 310.859" stroke="white" stroke-width="1.59" stroke-miterlimit="10"/>
</g>
<g style="mix-blend-mode:overlay" opacity="0.24">
<path d="M624.536 129.592L443.269 310.859" stroke="white" stroke-width="1.59" stroke-miterlimit="10"/>
</g>
<g style="mix-blend-mode:overlay" opacity="0.24">
<path d="M634.027 129.592L452.76 310.859" stroke="white" stroke-width="1.59" stroke-miterlimit="10"/>
</g>
<g style="mix-blend-mode:overlay" opacity="0.24">
<path d="M643.502 129.592L462.235 310.859" stroke="white" stroke-width="1.59" stroke-miterlimit="10"/>
</g>
<g style="mix-blend-mode:overlay" opacity="0.24">
<path d="M652.992 129.592L471.725 310.859" stroke="white" stroke-width="1.59" stroke-miterlimit="10"/>
</g>
<g style="mix-blend-mode:overlay" opacity="0.24">
<path d="M662.467 129.592L481.2 310.859" stroke="white" stroke-width="1.59" stroke-miterlimit="10"/>
</g>
<g style="mix-blend-mode:overlay" opacity="0.24">
<path d="M671.957 129.592L490.69 310.859" stroke="white" stroke-width="1.59" stroke-miterlimit="10"/>
</g>
<g style="mix-blend-mode:overlay" opacity="0.24">
<path d="M681.432 129.592L500.166 310.859" stroke="white" stroke-width="1.59" stroke-miterlimit="10"/>
</g>
<g style="mix-blend-mode:overlay" opacity="0.24">
<path d="M690.923 129.592L509.656 310.859" stroke="white" stroke-width="1.59" stroke-miterlimit="10"/>
</g>
<g style="mix-blend-mode:overlay" opacity="0.24">
<path d="M700.413 129.592L519.13 310.859" stroke="white" stroke-width="1.59" stroke-miterlimit="10"/>
</g>
<g style="mix-blend-mode:overlay" opacity="0.24">
<path d="M709.888 129.592L528.621 310.859" stroke="white" stroke-width="1.59" stroke-miterlimit="10"/>
</g>
<g style="mix-blend-mode:overlay" opacity="0.24">
<path d="M719.379 129.592L538.096 310.859" stroke="white" stroke-width="1.59" stroke-miterlimit="10"/>
</g>
<g style="mix-blend-mode:overlay" opacity="0.24">
<path d="M728.853 129.592L547.586 310.859" stroke="white" stroke-width="1.59" stroke-miterlimit="10"/>
</g>
<g style="mix-blend-mode:overlay" opacity="0.24">
<path d="M738.344 129.592L557.077 310.859" stroke="white" stroke-width="1.59" stroke-miterlimit="10"/>
</g>
<g style="mix-blend-mode:overlay" opacity="0.24">
<path d="M747.819 129.592L566.552 310.859" stroke="white" stroke-width="1.59" stroke-miterlimit="10"/>
</g>
<g style="mix-blend-mode:overlay" opacity="0.24">
<path d="M757.309 129.592L576.042 310.859" stroke="white" stroke-width="1.59" stroke-miterlimit="10"/>
</g>
<g style="mix-blend-mode:overlay" opacity="0.24">
<path d="M766.784 129.592L585.517 310.859" stroke="white" stroke-width="1.59" stroke-miterlimit="10"/>
</g>
<g style="mix-blend-mode:overlay" opacity="0.24">
<path d="M776.275 129.592L595.008 310.859" stroke="white" stroke-width="1.59" stroke-miterlimit="10"/>
</g>
</g>
</g>
<g style="mix-blend-mode:overlay" opacity="0.24">
<g style="mix-blend-mode:overlay" opacity="0.24">
<g style="mix-blend-mode:overlay" opacity="0.24">
<path d="M238.876 192.298L57.6094 373.565" stroke="white" stroke-width="1.59" stroke-miterlimit="10"/>
</g>
<g style="mix-blend-mode:overlay" opacity="0.24">
<path d="M248.351 192.298L67.084 373.565" stroke="white" stroke-width="1.59" stroke-miterlimit="10"/>
</g>
<g style="mix-blend-mode:overlay" opacity="0.24">
<path d="M257.841 192.298L76.5745 373.565" stroke="white" stroke-width="1.59" stroke-miterlimit="10"/>
</g>
<g style="mix-blend-mode:overlay" opacity="0.24">
<path d="M267.316 192.298L86.0493 373.565" stroke="white" stroke-width="1.59" stroke-miterlimit="10"/>
</g>
<g style="mix-blend-mode:overlay" opacity="0.24">
<path d="M276.807 192.298L95.54 373.565" stroke="white" stroke-width="1.59" stroke-miterlimit="10"/>
</g>
<g style="mix-blend-mode:overlay" opacity="0.24">
<path d="M286.281 192.298L105.015 373.565" stroke="white" stroke-width="1.59" stroke-miterlimit="10"/>
</g>
<g style="mix-blend-mode:overlay" opacity="0.24">
<path d="M295.773 192.298L114.506 373.565" stroke="white" stroke-width="1.59" stroke-miterlimit="10"/>
</g>
<g style="mix-blend-mode:overlay" opacity="0.24">
<path d="M305.263 192.298L123.98 373.565" stroke="white" stroke-width="1.59" stroke-miterlimit="10"/>
</g>
<g style="mix-blend-mode:overlay" opacity="0.24">
<path d="M314.737 192.298L133.47 373.565" stroke="white" stroke-width="1.59" stroke-miterlimit="10"/>
</g>
<g style="mix-blend-mode:overlay" opacity="0.24">
<path d="M324.228 192.298L142.945 373.565" stroke="white" stroke-width="1.59" stroke-miterlimit="10"/>
</g>
<g style="mix-blend-mode:overlay" opacity="0.24">
<path d="M333.703 192.298L152.436 373.565" stroke="white" stroke-width="1.59" stroke-miterlimit="10"/>
</g>
<g style="mix-blend-mode:overlay" opacity="0.24">
<path d="M343.193 192.298L161.927 373.565" stroke="white" stroke-width="1.59" stroke-miterlimit="10"/>
</g>
<g style="mix-blend-mode:overlay" opacity="0.24">
<path d="M352.668 192.298L171.401 373.565" stroke="white" stroke-width="1.59" stroke-miterlimit="10"/>
</g>
<g style="mix-blend-mode:overlay" opacity="0.24">
<path d="M362.159 192.298L180.892 373.565" stroke="white" stroke-width="1.59" stroke-miterlimit="10"/>
</g>
<g style="mix-blend-mode:overlay" opacity="0.24">
<path d="M371.633 192.298L190.366 373.565" stroke="white" stroke-width="1.59" stroke-miterlimit="10"/>
</g>
<g style="mix-blend-mode:overlay" opacity="0.24">
<path d="M381.124 192.298L199.857 373.565" stroke="white" stroke-width="1.59" stroke-miterlimit="10"/>
</g>
<g style="mix-blend-mode:overlay" opacity="0.24">
<path d="M390.599 192.298L209.332 373.565" stroke="white" stroke-width="1.59" stroke-miterlimit="10"/>
</g>
<g style="mix-blend-mode:overlay" opacity="0.24">
<path d="M400.089 192.298L218.823 373.565" stroke="white" stroke-width="1.59" stroke-miterlimit="10"/>
</g>
<g style="mix-blend-mode:overlay" opacity="0.24">
<path d="M409.58 192.298L228.297 373.565" stroke="white" stroke-width="1.59" stroke-miterlimit="10"/>
</g>
<g style="mix-blend-mode:overlay" opacity="0.24">
<path d="M419.055 192.298L237.788 373.565" stroke="white" stroke-width="1.59" stroke-miterlimit="10"/>
</g>
<g style="mix-blend-mode:overlay" opacity="0.24">
<path d="M428.546 192.298L247.263 373.565" stroke="white" stroke-width="1.59" stroke-miterlimit="10"/>
</g>
<g style="mix-blend-mode:overlay" opacity="0.24">
<path d="M438.02 192.298L256.753 373.565" stroke="white" stroke-width="1.59" stroke-miterlimit="10"/>
</g>
<g style="mix-blend-mode:overlay" opacity="0.24">
<path d="M447.511 192.298L266.244 373.565" stroke="white" stroke-width="1.59" stroke-miterlimit="10"/>
</g>
<g style="mix-blend-mode:overlay" opacity="0.24">
<path d="M456.986 192.298L275.719 373.565" stroke="white" stroke-width="1.59" stroke-miterlimit="10"/>
</g>
<g style="mix-blend-mode:overlay" opacity="0.24">
<path d="M466.476 192.298L285.209 373.565" stroke="white" stroke-width="1.59" stroke-miterlimit="10"/>
</g>
<g style="mix-blend-mode:overlay" opacity="0.24">
<path d="M475.95 192.298L294.684 373.565" stroke="white" stroke-width="1.59" stroke-miterlimit="10"/>
</g>
<g style="mix-blend-mode:overlay" opacity="0.24">
<path d="M485.442 192.298L304.175 373.565" stroke="white" stroke-width="1.59" stroke-miterlimit="10"/>
</g>
<g style="mix-blend-mode:overlay" opacity="0.24">
<path d="M494.916 192.298L313.649 373.565" stroke="white" stroke-width="1.59" stroke-miterlimit="10"/>
</g>
<g style="mix-blend-mode:overlay" opacity="0.24">
<path d="M504.407 192.298L323.14 373.565" stroke="white" stroke-width="1.59" stroke-miterlimit="10"/>
</g>
<g style="mix-blend-mode:overlay" opacity="0.24">
<path d="M513.898 192.298L332.615 373.565" stroke="white" stroke-width="1.59" stroke-miterlimit="10"/>
</g>
<g style="mix-blend-mode:overlay" opacity="0.24">
<path d="M523.372 192.298L342.105 373.565" stroke="white" stroke-width="1.59" stroke-miterlimit="10"/>
</g>
<g style="mix-blend-mode:overlay" opacity="0.24">
<path d="M532.863 192.298L351.58 373.565" stroke="white" stroke-width="1.59" stroke-miterlimit="10"/>
</g>
<g style="mix-blend-mode:overlay" opacity="0.24">
<path d="M542.337 192.298L361.071 373.565" stroke="white" stroke-width="1.59" stroke-miterlimit="10"/>
</g>
<g style="mix-blend-mode:overlay" opacity="0.24">
<path d="M551.828 192.298L370.561 373.565" stroke="white" stroke-width="1.59" stroke-miterlimit="10"/>
</g>
<g style="mix-blend-mode:overlay" opacity="0.24">
<path d="M561.303 192.298L380.036 373.565" stroke="white" stroke-width="1.59" stroke-miterlimit="10"/>
</g>
<g style="mix-blend-mode:overlay" opacity="0.24">
<path d="M570.793 192.298L389.526 373.565" stroke="white" stroke-width="1.59" stroke-miterlimit="10"/>
</g>
<g style="mix-blend-mode:overlay" opacity="0.24">
<path d="M580.268 192.298L399.001 373.565" stroke="white" stroke-width="1.59" stroke-miterlimit="10"/>
</g>
</g>
</g>
<g style="mix-blend-mode:overlay" opacity="0.24">
<g style="mix-blend-mode:overlay" opacity="0.24">
<g style="mix-blend-mode:overlay" opacity="0.24">
<path d="M433.043 377.934L251.776 559.201" stroke="white" stroke-width="1.59" stroke-miterlimit="10"/>
</g>
<g style="mix-blend-mode:overlay" opacity="0.24">
<path d="M442.533 377.934L261.266 559.201" stroke="white" stroke-width="1.59" stroke-miterlimit="10"/>
</g>
<g style="mix-blend-mode:overlay" opacity="0.24">
<path d="M452.008 377.934L270.741 559.201" stroke="white" stroke-width="1.59" stroke-miterlimit="10"/>
</g>
<g style="mix-blend-mode:overlay" opacity="0.24">
<path d="M461.499 377.934L280.232 559.201" stroke="white" stroke-width="1.59" stroke-miterlimit="10"/>
</g>
<g style="mix-blend-mode:overlay" opacity="0.24">
<path d="M470.973 377.934L289.707 559.201" stroke="white" stroke-width="1.59" stroke-miterlimit="10"/>
</g>
<g style="mix-blend-mode:overlay" opacity="0.24">
<path d="M480.464 377.934L299.197 559.201" stroke="white" stroke-width="1.59" stroke-miterlimit="10"/>
</g>
<g style="mix-blend-mode:overlay" opacity="0.24">
<path d="M489.955 377.934L308.672 559.201" stroke="white" stroke-width="1.59" stroke-miterlimit="10"/>
</g>
<g style="mix-blend-mode:overlay" opacity="0.24">
<path d="M499.429 377.934L318.163 559.201" stroke="white" stroke-width="1.59" stroke-miterlimit="10"/>
</g>
<g style="mix-blend-mode:overlay" opacity="0.24">
<path d="M508.92 377.934L327.637 559.201" stroke="white" stroke-width="1.59" stroke-miterlimit="10"/>
</g>
<g style="mix-blend-mode:overlay" opacity="0.24">
<path d="M518.395 377.934L337.128 559.201" stroke="white" stroke-width="1.59" stroke-miterlimit="10"/>
</g>
<g style="mix-blend-mode:overlay" opacity="0.24">
<path d="M527.886 377.934L346.619 559.201" stroke="white" stroke-width="1.59" stroke-miterlimit="10"/>
</g>
<g style="mix-blend-mode:overlay" opacity="0.24">
<path d="M537.36 377.934L356.093 559.201" stroke="white" stroke-width="1.59" stroke-miterlimit="10"/>
</g>
<g style="mix-blend-mode:overlay" opacity="0.24">
<path d="M546.851 377.934L365.584 559.201" stroke="white" stroke-width="1.59" stroke-miterlimit="10"/>
</g>
<g style="mix-blend-mode:overlay" opacity="0.24">
<path d="M556.325 377.934L375.058 559.201" stroke="white" stroke-width="1.59" stroke-miterlimit="10"/>
</g>
<g style="mix-blend-mode:overlay" opacity="0.24">
<path d="M565.816 377.934L384.549 559.201" stroke="white" stroke-width="1.59" stroke-miterlimit="10"/>
</g>
<g style="mix-blend-mode:overlay" opacity="0.24">
<path d="M575.291 377.934L394.024 559.201" stroke="white" stroke-width="1.59" stroke-miterlimit="10"/>
</g>
<g style="mix-blend-mode:overlay" opacity="0.24">
<path d="M584.782 377.934L403.515 559.201" stroke="white" stroke-width="1.59" stroke-miterlimit="10"/>
</g>
<g style="mix-blend-mode:overlay" opacity="0.24">
<path d="M594.272 377.934L412.989 559.201" stroke="white" stroke-width="1.59" stroke-miterlimit="10"/>
</g>
<g style="mix-blend-mode:overlay" opacity="0.24">
<path d="M603.747 377.934L422.48 559.201" stroke="white" stroke-width="1.59" stroke-miterlimit="10"/>
</g>
<g style="mix-blend-mode:overlay" opacity="0.24">
<path d="M613.238 377.934L431.955 559.201" stroke="white" stroke-width="1.59" stroke-miterlimit="10"/>
</g>
<g style="mix-blend-mode:overlay" opacity="0.24">
<path d="M622.712 377.934L441.445 559.201" stroke="white" stroke-width="1.59" stroke-miterlimit="10"/>
</g>
<g style="mix-blend-mode:overlay" opacity="0.24">
<path d="M632.203 377.934L450.936 559.201" stroke="white" stroke-width="1.59" stroke-miterlimit="10"/>
</g>
<g style="mix-blend-mode:overlay" opacity="0.24">
<path d="M641.677 377.934L460.41 559.201" stroke="white" stroke-width="1.59" stroke-miterlimit="10"/>
</g>
<g style="mix-blend-mode:overlay" opacity="0.24">
<path d="M651.168 377.934L469.901 559.201" stroke="white" stroke-width="1.59" stroke-miterlimit="10"/>
</g>
<g style="mix-blend-mode:overlay" opacity="0.24">
<path d="M660.643 377.934L479.376 559.201" stroke="white" stroke-width="1.59" stroke-miterlimit="10"/>
</g>
<g style="mix-blend-mode:overlay" opacity="0.24">
<path d="M670.134 377.934L488.867 559.201" stroke="white" stroke-width="1.59" stroke-miterlimit="10"/>
</g>
<g style="mix-blend-mode:overlay" opacity="0.24">
<path d="M679.608 377.934L498.341 559.201" stroke="white" stroke-width="1.59" stroke-miterlimit="10"/>
</g>
<g style="mix-blend-mode:overlay" opacity="0.24">
<path d="M689.099 377.934L507.832 559.201" stroke="white" stroke-width="1.59" stroke-miterlimit="10"/>
</g>
<g style="mix-blend-mode:overlay" opacity="0.24">
<path d="M698.59 377.934L517.307 559.201" stroke="white" stroke-width="1.59" stroke-miterlimit="10"/>
</g>
<g style="mix-blend-mode:overlay" opacity="0.24">
<path d="M708.064 377.934L526.797 559.201" stroke="white" stroke-width="1.59" stroke-miterlimit="10"/>
</g>
<g style="mix-blend-mode:overlay" opacity="0.24">
<path d="M717.555 377.934L536.272 559.201" stroke="white" stroke-width="1.59" stroke-miterlimit="10"/>
</g>
<g style="mix-blend-mode:overlay" opacity="0.24">
<path d="M727.029 377.934L545.762 559.201" stroke="white" stroke-width="1.59" stroke-miterlimit="10"/>
</g>
<g style="mix-blend-mode:overlay" opacity="0.24">
<path d="M736.52 377.934L555.253 559.201" stroke="white" stroke-width="1.59" stroke-miterlimit="10"/>
</g>
<g style="mix-blend-mode:overlay" opacity="0.24">
<path d="M745.995 377.934L564.728 559.201" stroke="white" stroke-width="1.59" stroke-miterlimit="10"/>
</g>
<g style="mix-blend-mode:overlay" opacity="0.24">
<path d="M755.485 377.934L574.218 559.201" stroke="white" stroke-width="1.59" stroke-miterlimit="10"/>
</g>
<g style="mix-blend-mode:overlay" opacity="0.24">
<path d="M764.96 377.934L583.693 559.201" stroke="white" stroke-width="1.59" stroke-miterlimit="10"/>
</g>
<g style="mix-blend-mode:overlay" opacity="0.24">
<path d="M774.451 377.934L593.184 559.201" stroke="white" stroke-width="1.59" stroke-miterlimit="10"/>
</g>
</g>
</g>
</g>
<path opacity="0.3" d="M278.663 78.7142C277.415 75.9134 274.63 73.9608 271.365 73.9608C269.733 73.9608 268.228 74.457 266.964 75.2892C265.684 72.5845 262.947 70.7119 259.762 70.7119C257.473 70.7119 255.441 71.6722 253.968 73.2086C251.52 70.3918 247.919 68.6154 243.901 68.6154C239.676 68.6154 235.931 70.5839 233.482 73.6408C232.01 71.8803 229.833 70.7279 227.353 70.7279C227.257 70.7279 227.177 70.7439 227.097 70.76C224.136 64.7103 217.942 60.5331 210.756 60.5331C203.57 60.5331 196.928 64.9983 194.111 71.3841C193.135 70.968 192.079 70.7279 190.959 70.7279C187.133 70.7279 183.949 73.4167 183.148 77.0017C181.852 76.0894 180.268 75.5293 178.555 75.5293C175.946 75.5293 173.658 76.7936 172.185 78.7302H278.679L278.663 78.7142Z" fill="#43A1F6"/>
<path opacity="0.3" d="M492.548 110.515C493.588 108.162 495.941 106.53 498.677 106.53C500.038 106.53 501.318 106.946 502.374 107.65C503.463 105.378 505.751 103.809 508.424 103.809C510.345 103.809 512.057 104.625 513.289 105.906C515.338 103.537 518.363 102.049 521.74 102.049C525.277 102.049 528.446 103.697 530.494 106.258C531.727 104.769 533.567 103.809 535.648 103.809C535.728 103.809 535.792 103.825 535.872 103.825C538.352 98.7358 543.57 95.2308 549.604 95.2308C555.637 95.2308 561.207 98.9758 563.592 104.353C564.408 104.001 565.304 103.809 566.248 103.809C569.465 103.809 572.138 106.066 572.81 109.075C573.898 108.306 575.227 107.842 576.667 107.842C578.86 107.842 580.78 108.915 582.013 110.531H492.564L492.548 110.515Z" fill="#43A1F6"/>
<path d="M501.606 342.452C487.682 340.004 472.622 299.432 498.549 285.828C524.477 272.24 533.215 265.038 538.625 233.366C544.034 201.693 562.471 216.737 558.326 235.27C554.181 253.803 581.853 251.499 587.614 260.333C597.617 275.649 575.483 278.098 562.824 286.821C550.148 295.543 572.762 301.497 563.768 316.253C554.773 331.009 525.341 346.629 501.606 342.452V342.452Z" fill="#0373D8"/>
<path d="M500.182 342.068L505.112 333.378L510.153 324.767C513.514 319.022 517.035 313.372 520.604 307.754C524.205 302.153 527.838 296.583 531.695 291.142C533.616 288.421 535.568 285.716 537.537 283.044C539.569 280.403 541.586 277.762 543.746 275.217C542.85 276.626 541.938 278.002 540.994 279.379L538.289 283.572C536.48 286.356 534.656 289.141 532.895 291.958L522.188 308.779C518.587 314.364 515.034 319.982 511.369 325.535C507.704 331.089 504.135 336.707 500.182 342.068V342.068Z" fill="white"/>
<path d="M514.554 319.07C520.044 317.037 525.661 315.565 531.311 314.22C536.977 312.94 542.658 311.788 548.484 311.195C542.994 313.244 537.377 314.716 531.727 316.045C526.061 317.325 520.38 318.477 514.554 319.07Z" fill="white"/>
<path d="M528.334 297.496C527.71 294.087 527.662 290.694 527.742 287.301C527.886 283.908 528.174 280.531 529.038 277.17C529.662 280.579 529.726 283.972 529.63 287.365C529.486 290.758 529.198 294.135 528.334 297.496Z" fill="white"/>
<path d="M505.959 362.794C505.959 362.794 498.149 347.542 511.481 337.779C524.812 328 530.718 315.453 523.1 303.897C515.498 292.358 495.956 299.544 487.714 294.039C479.456 288.517 483.009 276.706 476.239 263.934C467.164 246.809 449.607 251.339 445.494 253.979C441.381 256.62 434.099 264.702 443.638 280.227C453.176 295.751 446.15 301.193 438.564 313.388C430.978 325.583 444.278 330.321 465.852 334.434C487.426 338.547 491.155 365.051 491.155 365.051L505.959 362.794" fill="#0055A3"/>
<path d="M500.47 378.11C500.342 373.053 499.846 368.043 499.142 363.066C498.405 358.089 497.573 353.143 496.389 348.262C495.253 343.38 493.94 338.531 492.436 333.762L490.067 326.624L487.33 319.63C486.498 317.261 485.378 315.021 484.353 312.732C483.297 310.459 482.353 308.139 481.136 305.946L477.664 299.272C477.119 298.136 476.415 297.111 475.775 296.023L473.854 292.79C468.813 284.1 462.699 276.098 456.538 268.079C458.25 269.92 459.963 271.792 461.643 273.681C463.308 275.585 465.116 277.378 466.604 279.427C469.645 283.476 472.846 287.429 475.503 291.75C481.233 300.136 485.73 309.323 489.667 318.686C493.556 328.08 496.373 337.907 498.261 347.878C499.222 352.871 499.862 357.897 500.342 362.954C500.63 368.011 500.87 373.085 500.438 378.126L500.47 378.11Z" fill="white"/>
<path d="M491.347 328.528C488.546 325.888 485.409 323.791 482.144 321.982C478.863 320.206 475.423 318.766 471.87 317.661C470.077 317.181 468.284 316.621 466.444 316.317C465.532 316.141 464.619 315.885 463.691 315.773C462.763 315.661 461.835 315.517 460.906 315.373C459.978 315.197 459.034 315.149 458.106 315.069L455.273 314.812C453.384 314.684 451.48 314.684 449.543 314.508C451.432 314.124 453.336 313.804 455.257 313.564C457.177 313.5 459.13 313.26 461.066 313.404C464.972 313.468 468.845 314.188 472.622 315.245C476.351 316.445 479.968 318.077 483.201 320.302C486.418 322.511 489.378 325.215 491.379 328.544L491.347 328.528Z" fill="white"/>
<path d="M494.644 338.019C493.428 334.754 493.028 331.185 493.236 327.648C493.444 324.095 494.452 320.558 496.213 317.389L496.885 316.205C497.125 315.821 497.429 315.469 497.685 315.117C498.261 314.412 498.725 313.628 499.382 313.004L501.35 311.147C502.006 310.523 502.806 310.091 503.527 309.579C504.951 308.475 506.663 307.899 508.232 307.146C509.88 306.538 511.609 306.154 513.273 305.77C511.769 306.698 510.201 307.37 508.776 308.267C507.384 309.243 505.895 310.027 504.695 311.179C502.086 313.212 499.99 315.789 498.421 318.622C496.805 321.438 495.78 324.607 495.188 327.872C494.628 331.153 494.436 334.546 494.628 338.003L494.644 338.019Z" fill="white"/>
<path d="M552.692 354.92C577.419 361.177 578.011 339.635 562.871 327.616C553.396 320.11 572.73 316.093 580.22 308.795C593.087 296.247 572.458 280.483 561.751 291.478C551.06 302.457 544.418 305.834 536.623 306.794C528.829 307.755 506.839 307.995 508.728 321.982C509.912 330.705 502.374 338.147 503.398 346.885C526.253 339.155 539.808 351.655 552.692 354.904V354.92Z" fill="#43A1F6"/>
<path d="M503.398 346.885C512.393 339.059 522.091 332.129 532.078 325.648C537.104 322.463 542.209 319.39 547.459 316.541C552.708 313.708 558.085 311.131 563.639 308.939C558.502 311.964 553.46 315.069 548.403 318.141C543.377 321.294 538.368 324.431 533.391 327.632L518.442 337.267C513.481 340.5 508.456 343.685 503.414 346.853L503.398 346.885Z" fill="white"/>
<path d="M528.797 329.216C528.573 327.552 528.573 325.92 528.653 324.303C528.717 322.687 528.909 321.086 529.165 319.502C529.421 317.917 529.758 316.333 530.206 314.78C530.638 313.228 531.15 311.676 531.902 310.171C532.142 311.836 532.126 313.468 532.046 315.085C531.982 316.701 531.79 318.301 531.534 319.886C531.278 321.47 530.942 323.055 530.494 324.607C530.062 326.16 529.549 327.712 528.797 329.216Z" fill="white"/>
<path d="M522.027 333.73C524.956 333.25 527.885 332.994 530.798 332.834C533.726 332.657 536.655 332.609 539.568 332.593C542.497 332.625 545.426 332.689 548.338 332.882C551.267 333.058 554.18 333.33 557.109 333.842C554.18 334.338 551.251 334.578 548.338 334.754C545.41 334.93 542.481 334.978 539.568 334.994C536.639 334.962 533.71 334.898 530.798 334.706C527.869 334.514 524.956 334.258 522.027 333.746V333.73Z" fill="white"/>
<path d="M529.726 387.137H493.54L485.121 350.983H538.144L529.726 387.137Z" fill="#003261"/>
<path d="M543.81 341.78H479.472V356.328H543.81V341.78Z" fill="#0B5BA5"/>
<g opacity="0.74">
<path opacity="0.74" d="M175.323 346.261C177.899 339.875 184.093 337.955 187.118 332.193C192.544 321.886 183.421 319.23 182.333 312.38C180.892 303.257 187.294 304.073 190.591 298.52C194.48 291.99 187.902 284.26 191.935 278.066C201.97 262.654 218.295 279.587 228.922 283.156C235.436 285.332 245.182 286.26 250.32 282.115C257.09 276.642 263.844 263.966 256.674 256.652C246.575 246.345 250.272 241.048 261.203 238.439C266.036 237.287 268.261 233.59 262.883 229.38C271.046 241.176 243.838 230.437 238.989 238.439C235.628 243.993 239.773 247.273 240.941 251.547C243.934 262.478 236.428 271.872 220.759 260.941C211.749 254.652 212.517 243.448 202.962 240.584C194.032 237.911 183.661 245.913 180.38 256.636C177.131 267.247 173.274 272.689 161.831 271.488C148.243 270.048 137.76 278.482 143.826 290.646C149.219 301.433 164.152 295.303 171.722 301.481C180.124 308.347 177.515 317.789 166.632 326.656C163.255 329.409 158.07 333.522 159.398 338.211C160.262 341.252 165.688 346.085 169.193 346.213L175.307 346.277L175.323 346.261Z" fill="white"/>
</g>
<path d="M195.44 350.518H192.527V346.597C192.527 344.917 191.167 343.573 189.503 343.573H155.093C153.412 343.573 152.068 344.933 152.068 346.597V370.652C152.068 379.759 159.446 387.153 168.569 387.153H176.043C183.277 387.153 189.407 382.479 191.631 375.998H195.44C198.353 375.998 200.706 373.645 200.706 370.732V355.8C200.706 352.887 198.353 350.535 195.44 350.535V350.518ZM197.345 370.732C197.345 371.772 196.497 372.637 195.44 372.637H192.399C192.479 371.981 192.527 371.324 192.527 370.652V353.895H195.44C196.481 353.895 197.345 354.744 197.345 355.8V370.732V370.732Z" fill="#BDBCBA"/>
<path d="M188.11 352.103C188.11 349.11 187.486 346.245 186.366 343.557H155.093C153.412 343.557 152.068 344.917 152.068 346.581V370.636C152.068 373.549 152.836 376.286 154.149 378.654C154.629 378.67 155.093 378.718 155.573 378.718C173.546 378.718 188.11 366.795 188.11 352.087V352.103Z" fill="#CACACA"/>
<path d="M556.469 423.387H120.747C116.09 423.387 112.313 419.61 112.313 414.953C112.313 410.295 116.09 406.518 120.747 406.518H556.469C561.127 406.518 564.904 410.295 564.904 414.953C564.904 419.61 561.127 423.387 556.469 423.387Z" fill="#0B5BA5"/>
<path d="M567.144 410.951H110.072C103.494 410.951 98.1648 405.622 98.1648 399.044C98.1648 392.466 103.494 387.137 110.072 387.137H567.144C573.722 387.137 579.052 392.466 579.052 399.044C579.052 405.622 573.722 410.951 567.144 410.951Z" fill="#003261"/>
<path d="M493.188 191.386C510.265 191.386 524.108 177.542 524.108 160.465C524.108 143.388 510.265 129.544 493.188 129.544C476.111 129.544 462.267 143.388 462.267 160.465C462.267 177.542 476.111 191.386 493.188 191.386Z" fill="#123978"/>
<path d="M493.188 184.568C506.499 184.568 517.29 173.777 517.29 160.465C517.29 147.154 506.499 136.362 493.188 136.362C479.876 136.362 469.085 147.154 469.085 160.465C469.085 173.777 479.876 184.568 493.188 184.568Z" fill="white"/>
<path d="M493.188 160.465V145.981" stroke="#4B4583" stroke-width="0.98" stroke-linecap="round" stroke-linejoin="round"/>
<path d="M493.188 160.465L502.038 169.332" stroke="#4B4583" stroke-width="0.98" stroke-linecap="round" stroke-linejoin="round"/>
<path d="M493.172 181.847V178.998" stroke="#4B4583" stroke-width="0.68" stroke-linecap="round" stroke-linejoin="round"/>
<path d="M503.863 178.998L502.438 176.502" stroke="#4B4583" stroke-width="0.68" stroke-linecap="round" stroke-linejoin="round"/>
<path d="M511.689 171.172L509.208 169.732" stroke="#4B4583" stroke-width="0.68" stroke-linecap="round" stroke-linejoin="round"/>
<path d="M514.57 160.481H511.689" stroke="#4B4583" stroke-width="0.68" stroke-linecap="round" stroke-linejoin="round"/>
<path d="M511.689 149.79L509.224 151.215" stroke="#4B4583" stroke-width="0.68" stroke-linecap="round" stroke-linejoin="round"/>
<path d="M503.863 141.964L502.438 144.429" stroke="#4B4583" stroke-width="0.68" stroke-linecap="round" stroke-linejoin="round"/>
<path d="M493.172 141.964V139.083" stroke="#4B4583" stroke-width="0.68" stroke-linecap="round" stroke-linejoin="round"/>
<path d="M483.921 144.445L482.497 141.964" stroke="#4B4583" stroke-width="0.68" stroke-linecap="round" stroke-linejoin="round"/>
<path d="M477.136 151.215L474.671 149.79" stroke="#4B4583" stroke-width="0.68" stroke-linecap="round" stroke-linejoin="round"/>
<path d="M474.671 160.481H471.806" stroke="#4B4583" stroke-width="0.68" stroke-linecap="round" stroke-linejoin="round"/>
<path d="M477.152 169.732L474.671 171.172" stroke="#4B4583" stroke-width="0.68" stroke-linecap="round" stroke-linejoin="round"/>
<path d="M483.921 176.502L482.497 178.998" stroke="#4B4583" stroke-width="0.68" stroke-linecap="round" stroke-linejoin="round"/>
<path d="M493.188 161.857C493.957 161.857 494.58 161.234 494.58 160.465C494.58 159.696 493.957 159.073 493.188 159.073C492.419 159.073 491.795 159.696 491.795 160.465C491.795 161.234 492.419 161.857 493.188 161.857Z" fill="#123978"/>
<path d="M269.173 127.208C256.017 114.052 234.603 114.196 221.639 127.64C209.732 139.979 209.204 159.745 220.503 172.661C231.466 185.192 249.359 187.401 262.771 179.318C263.955 178.598 265.396 178.438 266.724 178.838L275.142 181.351C275.783 181.543 276.375 180.951 276.199 180.295L273.686 171.876C273.286 170.548 273.462 169.108 274.166 167.907C281.864 155.104 280.2 138.251 269.157 127.208H269.173Z" fill="#BDBCBA"/>
<path d="M226.761 136.186H264.516" stroke="white" stroke-width="1.67" stroke-linecap="round" stroke-linejoin="round"/>
<path d="M255.457 145.901H264.516" stroke="white" stroke-width="1.67" stroke-linecap="round" stroke-linejoin="round"/>
<path d="M226.761 145.901H246.463" stroke="white" stroke-width="1.67" stroke-linecap="round" stroke-linejoin="round"/>
<path d="M244.014 155.616H264.516" stroke="white" stroke-width="1.67" stroke-linecap="round" stroke-linejoin="round"/>
<path d="M226.761 155.616H236.604" stroke="white" stroke-width="1.67" stroke-linecap="round" stroke-linejoin="round"/>
<path d="M255.457 165.33H264.516" stroke="white" stroke-width="1.67" stroke-linecap="round" stroke-linejoin="round"/>
<path d="M226.761 165.33H246.014" stroke="white" stroke-width="1.67" stroke-linecap="round" stroke-linejoin="round"/>
<path d="M338.857 143.02C338.857 143.02 335.496 128.152 349.804 115.38C364.112 102.609 386.23 103.777 398.361 110.435C414.078 119.061 429.506 141.9 415.406 174.533C401.306 207.166 465.932 193.69 444.246 237.895C422.56 282.099 385.094 251.579 371.618 269.888C358.142 288.197 311.505 240.183 351.356 206.622C391.191 173.061 341.866 173.205 338.857 143.02V143.02Z" fill="#914E00"/>
<path d="M335.207 240.408C318.851 247.386 305.311 288.821 304.047 377.23H339.289C339.289 377.23 360.703 229.541 335.207 240.408V240.408Z" fill="#162F50"/>
<path d="M378.932 227.236C398.265 225.331 429.762 228.532 441.093 241.048C443.59 243.801 443.606 248.97 442.261 256.124C437.524 281.379 415.918 331.377 427.409 387.153H326.789C326.789 387.153 336.328 343.573 330.998 329.809C324.9 314.092 319.619 299.88 325.621 286.741C339.289 256.828 327.045 244.457 335.704 240.136C347.627 234.182 362.575 228.852 378.916 227.252L378.932 227.236Z" fill="#1C3658"/>
<path d="M420.464 301.241C416.254 325.664 387.974 328.672 373.794 323.903C373.794 323.903 394.424 336.387 409.292 329.377C409.292 329.377 413.085 341.3 407.42 378.815H425.921C425.921 378.815 425.921 378.734 425.921 378.622C422.992 359.001 423.905 340.228 426.465 323.183C426.945 318.862 427.586 314.941 428.434 311.772L428.466 311.676C430.818 299.72 433.747 288.789 436.372 279.235C437.492 272.769 437.924 267.103 437.924 259.997C437.924 259.997 424.657 276.834 420.448 301.257L420.464 301.241Z" fill="#162F50"/>
<path d="M421.519 353.655C421.519 353.655 403.947 375.245 395.448 369.404C384.197 361.658 374.93 361.802 367.488 366.251C359.774 370.86 356.829 378.83 356.829 378.83H417.15L434.707 363.642L421.519 353.671V353.655Z" fill="#F4AE98"/>
<path d="M441.749 241.928C441.749 241.928 457.258 282.435 470.558 315.565C481.297 342.292 416.558 378.734 416.558 378.734L405.867 364.41L443.158 323.087L420.351 275.009C420.351 275.009 407.132 248.778 427.201 239.479C438.372 234.31 441.749 241.944 441.749 241.944V241.928Z" fill="#1C3658"/>
<path d="M392.168 187.785C392.168 187.785 389.735 218.497 397.097 226.516C406.572 236.823 389.943 259.069 364.96 275.922C364.96 275.922 351.004 260.413 361.935 235.158C372.882 209.903 362.271 195.627 362.271 195.627L392.168 187.785Z" fill="#F4AE98"/>
<path d="M397.097 174.517C397.097 195.563 382.277 212.608 369.745 212.608C357.214 212.608 341.577 198.62 339.465 172.725C337.752 151.759 349.068 136.426 366.144 136.426C383.221 136.426 397.081 153.487 397.081 174.533L397.097 174.517Z" fill="#FFB99F"/>
<path d="M344.906 131.497C343.146 132.505 339.337 134.986 334.887 137.947C330.054 141.164 324.885 146.749 323.124 152.847C320.083 163.33 327.797 176.614 343.13 171.924C358.478 167.235 365.808 142.62 378.26 156.848C393.736 174.533 399.338 164.674 399.338 164.674C399.338 164.674 396.233 142.652 380.564 132.745C372.162 127.432 359.502 123.079 344.906 131.497V131.497Z" fill="#914E00"/>
<path d="M407.42 166.947C407.42 173.813 403.355 179.382 398.362 179.382C393.368 179.382 389.303 173.813 389.303 166.947C389.303 160.081 393.368 154.512 398.362 154.512C403.355 154.512 407.42 160.081 407.42 166.947Z" fill="#151F2C"/>
<path d="M369.841 125.511C355.901 122.823 342.457 128.088 334.887 137.931C343.242 132.217 354.189 129.737 365.408 131.897C383.925 135.466 397.049 150.51 397.481 167.203C397.817 166.115 398.105 165.01 398.329 163.858C401.706 146.349 388.95 129.176 369.857 125.495L369.841 125.511Z" fill="#151F2C"/>
<path d="M396.393 170.996C396.393 170.996 398.921 199.084 373.09 201.757" stroke="#151F2C" stroke-width="1.05" stroke-miterlimit="10"/>
<path d="M371.41 204.558H367.345C366.032 204.558 364.96 203.485 364.96 202.173C364.96 200.861 366.032 199.788 367.345 199.788H371.41C372.722 199.788 373.794 200.861 373.794 202.173C373.794 203.485 372.722 204.558 371.41 204.558Z" fill="#151F2C"/>
<path d="M431.731 378.718H285.194C283.143 378.718 281.48 380.381 281.48 382.431V383.424C281.48 385.474 283.143 387.137 285.194 387.137H431.731C433.781 387.137 435.444 385.474 435.444 383.424V382.431C435.444 380.381 433.781 378.718 431.731 378.718Z" fill="#004788"/>
<path d="M363.984 387.137H228.634C224.953 387.137 221.672 384.832 220.408 381.375L188.847 294.663C186.766 288.949 190.991 282.916 197.073 282.916H332.423C336.104 282.916 339.385 285.22 340.649 288.677L372.21 375.389C374.291 381.103 370.066 387.137 363.984 387.137Z" fill="#0055A2"/>
<path d="M193.952 283.508C194.464 334.754 263.092 376.206 347.707 376.206C355.998 376.206 364.144 375.806 372.082 375.037L340.649 288.693C339.385 285.236 336.104 282.932 332.423 282.932H197.073C195.953 282.932 194.912 283.14 193.952 283.508Z" fill="#0B5BA5"/>
<path d="M288.762 333.314C288.762 338.979 284.169 343.557 278.52 343.557C272.87 343.557 268.277 338.963 268.277 333.314C268.277 327.664 272.87 323.071 278.52 323.071C284.169 323.071 288.762 327.664 288.762 333.314Z" fill="#1468B6"/>
<path d="M435.572 61.6213C445.11 52.0827 460.651 52.1787 470.061 61.9414C478.704 70.888 479.072 85.228 470.878 94.5906C462.923 103.681 449.944 105.282 440.213 99.424C439.349 98.9118 438.308 98.7838 437.348 99.0719L431.234 100.896C430.77 101.04 430.338 100.608 430.466 100.128L432.291 94.0144C432.579 93.0542 432.451 91.9979 431.939 91.1336C426.353 81.851 427.553 69.6236 435.572 61.6053V61.6213Z" fill="#BDBCBA"/>
<path d="M439.237 82.6193C441.393 82.6193 443.142 80.8709 443.142 78.7142C443.142 76.5575 441.393 74.8091 439.237 74.8091C437.08 74.8091 435.332 76.5575 435.332 78.7142C435.332 80.8709 437.08 82.6193 439.237 82.6193Z" fill="white"/>
<path d="M452.633 82.6193C454.79 82.6193 456.538 80.8709 456.538 78.7142C456.538 76.5575 454.79 74.8091 452.633 74.8091C450.476 74.8091 448.728 76.5575 448.728 78.7142C448.728 80.8709 450.476 82.6193 452.633 82.6193Z" fill="white"/>
<path d="M466.044 82.6193C468.201 82.6193 469.949 80.8709 469.949 78.7142C469.949 76.5575 468.201 74.8091 466.044 74.8091C463.888 74.8091 462.139 76.5575 462.139 78.7142C462.139 80.8709 463.888 82.6193 466.044 82.6193Z" fill="white"/>
<g opacity="0.07">
<g opacity="0.07">
<path opacity="0.07" d="M537.856 60.9012L541.297 64.3582" stroke="#4B4583" stroke-linecap="round" stroke-linejoin="round"/>
<path opacity="0.07" d="M541.297 60.9012L537.856 64.3582" stroke="#4B4583" stroke-linecap="round" stroke-linejoin="round"/>
</g>
<g opacity="0.07">
<path opacity="0.07" d="M107.495 244.905L114.409 251.803" stroke="#4B4583" stroke-width="2" stroke-linecap="round" stroke-linejoin="round"/>
<path opacity="0.07" d="M114.409 244.905L107.495 251.803" stroke="#4B4583" stroke-width="2" stroke-linecap="round" stroke-linejoin="round"/>
</g>
<g opacity="0.07">
<path opacity="0.07" d="M297.837 204.557L302.67 209.391" stroke="#4B4583" stroke-width="1.4" stroke-linecap="round" stroke-linejoin="round"/>
<path opacity="0.07" d="M302.67 204.557L297.837 209.391" stroke="#4B4583" stroke-width="1.4" stroke-linecap="round" stroke-linejoin="round"/>
</g>
<g opacity="0.07">
<path opacity="0.07" d="M570.297 373.581L575.131 378.398" stroke="#4B4583" stroke-width="1.4" stroke-linecap="round" stroke-linejoin="round"/>
<path opacity="0.07" d="M575.131 373.581L570.297 378.398" stroke="#4B4583" stroke-width="1.4" stroke-linecap="round" stroke-linejoin="round"/>
</g>
<path opacity="0.07" d="M381.732 78.7142C381.732 80.3467 380.404 81.675 378.771 81.675C377.139 81.675 375.811 80.3467 375.811 78.7142C375.811 77.0817 377.139 75.7534 378.771 75.7534C380.404 75.7534 381.732 77.0817 381.732 78.7142Z" stroke="#4B4583" stroke-width="1.4" stroke-linecap="round" stroke-linejoin="round"/>
<path opacity="0.07" d="M216.918 199.788C216.918 201.421 215.589 202.749 213.957 202.749C212.324 202.749 210.996 201.421 210.996 199.788C210.996 198.156 212.324 196.827 213.957 196.827C215.589 196.827 216.918 198.156 216.918 199.788Z" stroke="#4B4583" stroke-width="1.4" stroke-linecap="round" stroke-linejoin="round"/>
<path opacity="0.07" d="M575.675 162.386C575.675 164.018 574.347 165.347 572.714 165.347C571.082 165.347 569.753 164.018 569.753 162.386C569.753 160.753 571.082 159.425 572.714 159.425C574.347 159.425 575.675 160.753 575.675 162.386Z" stroke="#4B4583" stroke-width="1.4" stroke-linecap="round" stroke-linejoin="round"/>
<path opacity="0.07" d="M123.035 328.528C123.035 332.401 119.898 335.538 116.025 335.538C112.152 335.538 109.015 332.401 109.015 328.528C109.015 324.655 112.152 321.518 116.025 321.518C119.898 321.518 123.035 324.655 123.035 328.528Z" stroke="#4B4583" stroke-width="1.4" stroke-linecap="round" stroke-linejoin="round"/>
<path opacity="0.07" d="M509.048 240.023C509.048 243.897 505.911 247.033 502.038 247.033C498.165 247.033 495.028 243.897 495.028 240.023C495.028 236.15 498.165 233.013 502.038 233.013C505.911 233.013 509.048 236.15 509.048 240.023Z" stroke="#4B4583" stroke-width="1.4" stroke-linecap="round" stroke-linejoin="round"/>
</g>
</svg>
