<svg width="362" height="285" viewBox="0 0 362 285" fill="none" xmlns="http://www.w3.org/2000/svg">
<g opacity="0.39">
<path opacity="0.64" d="M275.938 75.332C261.972 70.0305 238.091 44.8275 213.404 75.473C191.463 102.713 166.08 94.2093 153.467 86.4024C132.394 73.368 103.446 64.0714 90.4438 92.126C77.4419 120.181 89.7347 146.444 41.4867 154.398C-6.76136 162.352 -4.7411 222.732 40.5819 234.953C85.9048 247.174 101.755 220.46 142.46 232.124C183.716 243.946 230.94 239.674 304.125 232.645C377.309 225.616 359.444 92.0065 275.931 75.3313C192.419 58.6561 275.938 75.332 275.938 75.332Z" fill="#C8C7C9"/>
<path opacity="0.31" d="M332.527 94.6105C316.74 101.041 263.281 101.51 246.414 70.6009C228.675 38.0871 199.799 14.7019 171.471 54.2965C143.143 93.8911 146.073 110.789 88.0045 91.1086C29.8237 71.3884 0.704234 125.077 35.3442 158.232C70.9103 192.28 74.9969 227.531 141.225 248.056C181.892 260.655 266.092 254.995 295.385 224.13C322.174 195.899 385.436 61.7435 332.529 94.6027C279.621 127.462 332.527 94.6105 332.527 94.6105Z" fill="#9C9C9C"/>
</g>
<g style="mix-blend-mode:overlay" opacity="0.24">
<g style="mix-blend-mode:overlay" opacity="0.24">
<g style="mix-blend-mode:overlay" opacity="0.24">
<g style="mix-blend-mode:overlay" opacity="0.24">
<path d="M193.987 86.4674L112.996 167.283" stroke="white" stroke-width="1.59" stroke-miterlimit="10"/>
</g>
<g style="mix-blend-mode:overlay" opacity="0.24">
<path d="M198.227 86.4674L117.237 167.283" stroke="white" stroke-width="1.59" stroke-miterlimit="10"/>
</g>
<g style="mix-blend-mode:overlay" opacity="0.24">
<path d="M202.461 86.4674L121.47 167.283" stroke="white" stroke-width="1.59" stroke-miterlimit="10"/>
</g>
<g style="mix-blend-mode:overlay" opacity="0.24">
<path d="M206.701 86.4674L125.71 167.283" stroke="white" stroke-width="1.59" stroke-miterlimit="10"/>
</g>
<g style="mix-blend-mode:overlay" opacity="0.24">
<path d="M210.941 86.4674L129.944 167.283" stroke="white" stroke-width="1.59" stroke-miterlimit="10"/>
</g>
<g style="mix-blend-mode:overlay" opacity="0.24">
<path d="M215.175 86.4674L134.184 167.283" stroke="white" stroke-width="1.59" stroke-miterlimit="10"/>
</g>
<g style="mix-blend-mode:overlay" opacity="0.24">
<path d="M219.415 86.4674L138.418 167.283" stroke="white" stroke-width="1.59" stroke-miterlimit="10"/>
</g>
<g style="mix-blend-mode:overlay" opacity="0.24">
<path d="M223.648 86.4674L142.658 167.283" stroke="white" stroke-width="1.59" stroke-miterlimit="10"/>
</g>
<g style="mix-blend-mode:overlay" opacity="0.24">
<path d="M227.889 86.4674L146.891 167.283" stroke="white" stroke-width="1.59" stroke-miterlimit="10"/>
</g>
<g style="mix-blend-mode:overlay" opacity="0.24">
<path d="M232.122 86.4674L151.132 167.283" stroke="white" stroke-width="1.59" stroke-miterlimit="10"/>
</g>
<g style="mix-blend-mode:overlay" opacity="0.24">
<path d="M236.362 86.4674L155.372 167.283" stroke="white" stroke-width="1.59" stroke-miterlimit="10"/>
</g>
<g style="mix-blend-mode:overlay" opacity="0.24">
<path d="M240.596 86.4674L159.605 167.283" stroke="white" stroke-width="1.59" stroke-miterlimit="10"/>
</g>
<g style="mix-blend-mode:overlay" opacity="0.24">
<path d="M244.836 86.4674L163.846 167.283" stroke="white" stroke-width="1.59" stroke-miterlimit="10"/>
</g>
<g style="mix-blend-mode:overlay" opacity="0.24">
<path d="M249.07 86.4674L168.079 167.283" stroke="white" stroke-width="1.59" stroke-miterlimit="10"/>
</g>
<g style="mix-blend-mode:overlay" opacity="0.24">
<path d="M253.31 86.4674L172.32 167.283" stroke="white" stroke-width="1.59" stroke-miterlimit="10"/>
</g>
<g style="mix-blend-mode:overlay" opacity="0.24">
<path d="M257.543 86.4674L176.553 167.283" stroke="white" stroke-width="1.59" stroke-miterlimit="10"/>
</g>
<g style="mix-blend-mode:overlay" opacity="0.24">
<path d="M261.784 86.4674L180.793 167.283" stroke="white" stroke-width="1.59" stroke-miterlimit="10"/>
</g>
<g style="mix-blend-mode:overlay" opacity="0.24">
<path d="M266.024 86.4674L185.027 167.283" stroke="white" stroke-width="1.59" stroke-miterlimit="10"/>
</g>
<g style="mix-blend-mode:overlay" opacity="0.24">
<path d="M270.258 86.4674L189.267 167.283" stroke="white" stroke-width="1.59" stroke-miterlimit="10"/>
</g>
<g style="mix-blend-mode:overlay" opacity="0.24">
<path d="M274.498 86.4674L193.5 167.283" stroke="white" stroke-width="1.59" stroke-miterlimit="10"/>
</g>
<g style="mix-blend-mode:overlay" opacity="0.24">
<path d="M278.731 86.4674L197.741 167.283" stroke="white" stroke-width="1.59" stroke-miterlimit="10"/>
</g>
<g style="mix-blend-mode:overlay" opacity="0.24">
<path d="M282.972 86.4674L201.981 167.283" stroke="white" stroke-width="1.59" stroke-miterlimit="10"/>
</g>
<g style="mix-blend-mode:overlay" opacity="0.24">
<path d="M287.205 86.4674L206.215 167.283" stroke="white" stroke-width="1.59" stroke-miterlimit="10"/>
</g>
<g style="mix-blend-mode:overlay" opacity="0.24">
<path d="M291.446 86.4674L210.455 167.283" stroke="white" stroke-width="1.59" stroke-miterlimit="10"/>
</g>
<g style="mix-blend-mode:overlay" opacity="0.24">
<path d="M295.679 86.4674L214.688 167.283" stroke="white" stroke-width="1.59" stroke-miterlimit="10"/>
</g>
<g style="mix-blend-mode:overlay" opacity="0.24">
<path d="M299.919 86.4674L218.929 167.283" stroke="white" stroke-width="1.59" stroke-miterlimit="10"/>
</g>
<g style="mix-blend-mode:overlay" opacity="0.24">
<path d="M304.152 86.4674L223.162 167.283" stroke="white" stroke-width="1.59" stroke-miterlimit="10"/>
</g>
<g style="mix-blend-mode:overlay" opacity="0.24">
<path d="M308.393 86.4674L227.403 167.283" stroke="white" stroke-width="1.59" stroke-miterlimit="10"/>
</g>
<g style="mix-blend-mode:overlay" opacity="0.24">
<path d="M312.633 86.4674L231.636 167.283" stroke="white" stroke-width="1.59" stroke-miterlimit="10"/>
</g>
<g style="mix-blend-mode:overlay" opacity="0.24">
<path d="M316.867 86.4674L235.876 167.283" stroke="white" stroke-width="1.59" stroke-miterlimit="10"/>
</g>
<g style="mix-blend-mode:overlay" opacity="0.24">
<path d="M321.107 86.4674L240.11 167.283" stroke="white" stroke-width="1.59" stroke-miterlimit="10"/>
</g>
<g style="mix-blend-mode:overlay" opacity="0.24">
<path d="M325.341 86.4674L244.35 167.283" stroke="white" stroke-width="1.59" stroke-miterlimit="10"/>
</g>
<g style="mix-blend-mode:overlay" opacity="0.24">
<path d="M329.581 86.4674L248.591 167.283" stroke="white" stroke-width="1.59" stroke-miterlimit="10"/>
</g>
<g style="mix-blend-mode:overlay" opacity="0.24">
<path d="M333.814 86.4674L252.824 167.283" stroke="white" stroke-width="1.59" stroke-miterlimit="10"/>
</g>
<g style="mix-blend-mode:overlay" opacity="0.24">
<path d="M338.055 86.4674L257.064 167.283" stroke="white" stroke-width="1.59" stroke-miterlimit="10"/>
</g>
<g style="mix-blend-mode:overlay" opacity="0.24">
<path d="M342.288 86.4674L261.298 167.283" stroke="white" stroke-width="1.59" stroke-miterlimit="10"/>
</g>
<g style="mix-blend-mode:overlay" opacity="0.24">
<path d="M346.529 86.4674L265.538 167.283" stroke="white" stroke-width="1.59" stroke-miterlimit="10"/>
</g>
</g>
</g>
<g style="mix-blend-mode:overlay" opacity="0.24">
<g style="mix-blend-mode:overlay" opacity="0.24">
<g style="mix-blend-mode:overlay" opacity="0.24">
<path d="M106.418 114.424L25.4272 195.24" stroke="white" stroke-width="1.59" stroke-miterlimit="10"/>
</g>
<g style="mix-blend-mode:overlay" opacity="0.24">
<path d="M110.651 114.424L29.6604 195.24" stroke="white" stroke-width="1.59" stroke-miterlimit="10"/>
</g>
<g style="mix-blend-mode:overlay" opacity="0.24">
<path d="M114.891 114.424L33.9009 195.24" stroke="white" stroke-width="1.59" stroke-miterlimit="10"/>
</g>
<g style="mix-blend-mode:overlay" opacity="0.24">
<path d="M119.125 114.424L38.1343 195.24" stroke="white" stroke-width="1.59" stroke-miterlimit="10"/>
</g>
<g style="mix-blend-mode:overlay" opacity="0.24">
<path d="M123.365 114.424L42.3748 195.24" stroke="white" stroke-width="1.59" stroke-miterlimit="10"/>
</g>
<g style="mix-blend-mode:overlay" opacity="0.24">
<path d="M127.598 114.424L46.6079 195.24" stroke="white" stroke-width="1.59" stroke-miterlimit="10"/>
</g>
<g style="mix-blend-mode:overlay" opacity="0.24">
<path d="M131.839 114.424L50.8486 195.24" stroke="white" stroke-width="1.59" stroke-miterlimit="10"/>
</g>
<g style="mix-blend-mode:overlay" opacity="0.24">
<path d="M136.079 114.424L55.0818 195.24" stroke="white" stroke-width="1.59" stroke-miterlimit="10"/>
</g>
<g style="mix-blend-mode:overlay" opacity="0.24">
<path d="M140.312 114.424L59.322 195.24" stroke="white" stroke-width="1.59" stroke-miterlimit="10"/>
</g>
<g style="mix-blend-mode:overlay" opacity="0.24">
<path d="M144.553 114.424L63.5554 195.24" stroke="white" stroke-width="1.59" stroke-miterlimit="10"/>
</g>
<g style="mix-blend-mode:overlay" opacity="0.24">
<path d="M148.786 114.424L67.7959 195.24" stroke="white" stroke-width="1.59" stroke-miterlimit="10"/>
</g>
<g style="mix-blend-mode:overlay" opacity="0.24">
<path d="M153.027 114.424L72.0364 195.24" stroke="white" stroke-width="1.59" stroke-miterlimit="10"/>
</g>
<g style="mix-blend-mode:overlay" opacity="0.24">
<path d="M157.26 114.424L76.2695 195.24" stroke="white" stroke-width="1.59" stroke-miterlimit="10"/>
</g>
<g style="mix-blend-mode:overlay" opacity="0.24">
<path d="M161.501 114.424L80.5103 195.24" stroke="white" stroke-width="1.59" stroke-miterlimit="10"/>
</g>
<g style="mix-blend-mode:overlay" opacity="0.24">
<path d="M165.734 114.424L84.7434 195.24" stroke="white" stroke-width="1.59" stroke-miterlimit="10"/>
</g>
<g style="mix-blend-mode:overlay" opacity="0.24">
<path d="M169.974 114.424L88.9839 195.24" stroke="white" stroke-width="1.59" stroke-miterlimit="10"/>
</g>
<g style="mix-blend-mode:overlay" opacity="0.24">
<path d="M174.208 114.424L93.2173 195.24" stroke="white" stroke-width="1.59" stroke-miterlimit="10"/>
</g>
<g style="mix-blend-mode:overlay" opacity="0.24">
<path d="M178.448 114.424L97.4575 195.24" stroke="white" stroke-width="1.59" stroke-miterlimit="10"/>
</g>
<g style="mix-blend-mode:overlay" opacity="0.24">
<path d="M182.689 114.424L101.691 195.24" stroke="white" stroke-width="1.59" stroke-miterlimit="10"/>
</g>
<g style="mix-blend-mode:overlay" opacity="0.24">
<path d="M186.922 114.424L105.931 195.24" stroke="white" stroke-width="1.59" stroke-miterlimit="10"/>
</g>
<g style="mix-blend-mode:overlay" opacity="0.24">
<path d="M191.162 114.424L110.165 195.24" stroke="white" stroke-width="1.59" stroke-miterlimit="10"/>
</g>
<g style="mix-blend-mode:overlay" opacity="0.24">
<path d="M195.395 114.424L114.405 195.24" stroke="white" stroke-width="1.59" stroke-miterlimit="10"/>
</g>
<g style="mix-blend-mode:overlay" opacity="0.24">
<path d="M199.636 114.424L118.646 195.24" stroke="white" stroke-width="1.59" stroke-miterlimit="10"/>
</g>
<g style="mix-blend-mode:overlay" opacity="0.24">
<path d="M203.869 114.424L122.879 195.24" stroke="white" stroke-width="1.59" stroke-miterlimit="10"/>
</g>
<g style="mix-blend-mode:overlay" opacity="0.24">
<path d="M208.11 114.424L127.119 195.24" stroke="white" stroke-width="1.59" stroke-miterlimit="10"/>
</g>
<g style="mix-blend-mode:overlay" opacity="0.24">
<path d="M212.343 114.424L131.353 195.24" stroke="white" stroke-width="1.59" stroke-miterlimit="10"/>
</g>
<g style="mix-blend-mode:overlay" opacity="0.24">
<path d="M216.584 114.424L135.593 195.24" stroke="white" stroke-width="1.59" stroke-miterlimit="10"/>
</g>
<g style="mix-blend-mode:overlay" opacity="0.24">
<path d="M220.817 114.424L139.826 195.24" stroke="white" stroke-width="1.59" stroke-miterlimit="10"/>
</g>
<g style="mix-blend-mode:overlay" opacity="0.24">
<path d="M225.057 114.424L144.067 195.24" stroke="white" stroke-width="1.59" stroke-miterlimit="10"/>
</g>
<g style="mix-blend-mode:overlay" opacity="0.24">
<path d="M229.298 114.424L148.3 195.24" stroke="white" stroke-width="1.59" stroke-miterlimit="10"/>
</g>
<g style="mix-blend-mode:overlay" opacity="0.24">
<path d="M233.531 114.424L152.541 195.24" stroke="white" stroke-width="1.59" stroke-miterlimit="10"/>
</g>
<g style="mix-blend-mode:overlay" opacity="0.24">
<path d="M237.771 114.424L156.774 195.24" stroke="white" stroke-width="1.59" stroke-miterlimit="10"/>
</g>
<g style="mix-blend-mode:overlay" opacity="0.24">
<path d="M242.005 114.424L161.014 195.24" stroke="white" stroke-width="1.59" stroke-miterlimit="10"/>
</g>
<g style="mix-blend-mode:overlay" opacity="0.24">
<path d="M246.245 114.424L165.255 195.24" stroke="white" stroke-width="1.59" stroke-miterlimit="10"/>
</g>
<g style="mix-blend-mode:overlay" opacity="0.24">
<path d="M250.478 114.424L169.488 195.24" stroke="white" stroke-width="1.59" stroke-miterlimit="10"/>
</g>
<g style="mix-blend-mode:overlay" opacity="0.24">
<path d="M254.719 114.424L173.729 195.24" stroke="white" stroke-width="1.59" stroke-miterlimit="10"/>
</g>
<g style="mix-blend-mode:overlay" opacity="0.24">
<path d="M258.952 114.424L177.962 195.24" stroke="white" stroke-width="1.59" stroke-miterlimit="10"/>
</g>
</g>
</g>
<g style="mix-blend-mode:overlay" opacity="0.24">
<g style="mix-blend-mode:overlay" opacity="0.24">
<g style="mix-blend-mode:overlay" opacity="0.24">
<path d="M193.172 197.188L112.181 278.003" stroke="white" stroke-width="1.59" stroke-miterlimit="10"/>
</g>
<g style="mix-blend-mode:overlay" opacity="0.24">
<path d="M197.412 197.188L116.422 278.003" stroke="white" stroke-width="1.59" stroke-miterlimit="10"/>
</g>
<g style="mix-blend-mode:overlay" opacity="0.24">
<path d="M201.646 197.188L120.655 278.003" stroke="white" stroke-width="1.59" stroke-miterlimit="10"/>
</g>
<g style="mix-blend-mode:overlay" opacity="0.24">
<path d="M205.886 197.188L124.896 278.003" stroke="white" stroke-width="1.59" stroke-miterlimit="10"/>
</g>
<g style="mix-blend-mode:overlay" opacity="0.24">
<path d="M210.119 197.188L129.129 278.003" stroke="white" stroke-width="1.59" stroke-miterlimit="10"/>
</g>
<g style="mix-blend-mode:overlay" opacity="0.24">
<path d="M214.36 197.188L133.369 278.003" stroke="white" stroke-width="1.59" stroke-miterlimit="10"/>
</g>
<g style="mix-blend-mode:overlay" opacity="0.24">
<path d="M218.6 197.188L137.603 278.003" stroke="white" stroke-width="1.59" stroke-miterlimit="10"/>
</g>
<g style="mix-blend-mode:overlay" opacity="0.24">
<path d="M222.833 197.188L141.843 278.003" stroke="white" stroke-width="1.59" stroke-miterlimit="10"/>
</g>
<g style="mix-blend-mode:overlay" opacity="0.24">
<path d="M227.074 197.188L146.076 278.003" stroke="white" stroke-width="1.59" stroke-miterlimit="10"/>
</g>
<g style="mix-blend-mode:overlay" opacity="0.24">
<path d="M231.307 197.188L150.317 278.003" stroke="white" stroke-width="1.59" stroke-miterlimit="10"/>
</g>
<g style="mix-blend-mode:overlay" opacity="0.24">
<path d="M235.548 197.188L154.557 278.003" stroke="white" stroke-width="1.59" stroke-miterlimit="10"/>
</g>
<g style="mix-blend-mode:overlay" opacity="0.24">
<path d="M239.781 197.188L158.791 278.003" stroke="white" stroke-width="1.59" stroke-miterlimit="10"/>
</g>
<g style="mix-blend-mode:overlay" opacity="0.24">
<path d="M244.021 197.188L163.031 278.003" stroke="white" stroke-width="1.59" stroke-miterlimit="10"/>
</g>
<g style="mix-blend-mode:overlay" opacity="0.24">
<path d="M248.255 197.188L167.264 278.003" stroke="white" stroke-width="1.59" stroke-miterlimit="10"/>
</g>
<g style="mix-blend-mode:overlay" opacity="0.24">
<path d="M252.495 197.188L171.505 278.003" stroke="white" stroke-width="1.59" stroke-miterlimit="10"/>
</g>
<g style="mix-blend-mode:overlay" opacity="0.24">
<path d="M256.728 197.188L175.738 278.003" stroke="white" stroke-width="1.59" stroke-miterlimit="10"/>
</g>
<g style="mix-blend-mode:overlay" opacity="0.24">
<path d="M260.969 197.188L179.979 278.003" stroke="white" stroke-width="1.59" stroke-miterlimit="10"/>
</g>
<g style="mix-blend-mode:overlay" opacity="0.24">
<path d="M265.21 197.188L184.212 278.003" stroke="white" stroke-width="1.59" stroke-miterlimit="10"/>
</g>
<g style="mix-blend-mode:overlay" opacity="0.24">
<path d="M269.443 197.188L188.452 278.003" stroke="white" stroke-width="1.59" stroke-miterlimit="10"/>
</g>
<g style="mix-blend-mode:overlay" opacity="0.24">
<path d="M273.683 197.188L192.686 278.003" stroke="white" stroke-width="1.59" stroke-miterlimit="10"/>
</g>
<g style="mix-blend-mode:overlay" opacity="0.24">
<path d="M277.916 197.188L196.926 278.003" stroke="white" stroke-width="1.59" stroke-miterlimit="10"/>
</g>
<g style="mix-blend-mode:overlay" opacity="0.24">
<path d="M282.157 197.188L201.167 278.003" stroke="white" stroke-width="1.59" stroke-miterlimit="10"/>
</g>
<g style="mix-blend-mode:overlay" opacity="0.24">
<path d="M286.39 197.188L205.4 278.003" stroke="white" stroke-width="1.59" stroke-miterlimit="10"/>
</g>
<g style="mix-blend-mode:overlay" opacity="0.24">
<path d="M290.631 197.188L209.64 278.003" stroke="white" stroke-width="1.59" stroke-miterlimit="10"/>
</g>
<g style="mix-blend-mode:overlay" opacity="0.24">
<path d="M294.864 197.188L213.874 278.003" stroke="white" stroke-width="1.59" stroke-miterlimit="10"/>
</g>
<g style="mix-blend-mode:overlay" opacity="0.24">
<path d="M299.104 197.188L218.114 278.003" stroke="white" stroke-width="1.59" stroke-miterlimit="10"/>
</g>
<g style="mix-blend-mode:overlay" opacity="0.24">
<path d="M303.338 197.188L222.347 278.003" stroke="white" stroke-width="1.59" stroke-miterlimit="10"/>
</g>
<g style="mix-blend-mode:overlay" opacity="0.24">
<path d="M307.578 197.188L226.588 278.003" stroke="white" stroke-width="1.59" stroke-miterlimit="10"/>
</g>
<g style="mix-blend-mode:overlay" opacity="0.24">
<path d="M311.819 197.188L230.821 278.003" stroke="white" stroke-width="1.59" stroke-miterlimit="10"/>
</g>
<g style="mix-blend-mode:overlay" opacity="0.24">
<path d="M316.052 197.188L235.062 278.003" stroke="white" stroke-width="1.59" stroke-miterlimit="10"/>
</g>
<g style="mix-blend-mode:overlay" opacity="0.24">
<path d="M320.292 197.188L239.295 278.003" stroke="white" stroke-width="1.59" stroke-miterlimit="10"/>
</g>
<g style="mix-blend-mode:overlay" opacity="0.24">
<path d="M324.526 197.188L243.535 278.003" stroke="white" stroke-width="1.59" stroke-miterlimit="10"/>
</g>
<g style="mix-blend-mode:overlay" opacity="0.24">
<path d="M328.766 197.188L247.776 278.003" stroke="white" stroke-width="1.59" stroke-miterlimit="10"/>
</g>
<g style="mix-blend-mode:overlay" opacity="0.24">
<path d="M332.999 197.188L252.009 278.003" stroke="white" stroke-width="1.59" stroke-miterlimit="10"/>
</g>
<g style="mix-blend-mode:overlay" opacity="0.24">
<path d="M337.24 197.188L256.249 278.003" stroke="white" stroke-width="1.59" stroke-miterlimit="10"/>
</g>
<g style="mix-blend-mode:overlay" opacity="0.24">
<path d="M341.473 197.188L260.483 278.003" stroke="white" stroke-width="1.59" stroke-miterlimit="10"/>
</g>
<g style="mix-blend-mode:overlay" opacity="0.24">
<path d="M345.714 197.188L264.723 278.003" stroke="white" stroke-width="1.59" stroke-miterlimit="10"/>
</g>
</g>
</g>
</g>
<path opacity="0.3" d="M124.195 63.7839C123.637 62.5352 122.393 61.6647 120.934 61.6647C120.204 61.6647 119.532 61.8859 118.967 62.2569C118.395 61.0511 117.173 60.2162 115.75 60.2162C114.727 60.2162 113.819 60.6443 113.161 61.3293C112.067 60.0735 110.458 59.2815 108.663 59.2815C106.775 59.2815 105.102 60.1591 104.008 61.522C103.35 60.7371 102.377 60.2234 101.269 60.2234C101.226 60.2234 101.19 60.2305 101.155 60.2376C99.8317 57.5404 97.0644 55.6781 93.8536 55.6781C90.6429 55.6781 87.6753 57.6689 86.4168 60.5159C85.9806 60.3304 85.5086 60.2234 85.008 60.2234C83.299 60.2234 81.876 61.4221 81.5184 63.0204C80.9392 62.6137 80.2313 62.364 79.4661 62.364C78.3006 62.364 77.278 62.9277 76.6201 63.7911H124.202L124.195 63.7839Z" fill="#43A1F6"/>
<path opacity="0.3" d="M219.759 77.9619C220.224 76.913 221.275 76.1852 222.498 76.1852C223.105 76.1852 223.677 76.3707 224.149 76.6847C224.636 75.6714 225.658 74.9722 226.852 74.9722C227.711 74.9722 228.476 75.3361 229.026 75.9069C229.942 74.8509 231.293 74.1873 232.802 74.1873C234.382 74.1873 235.798 74.9222 236.713 76.0639C237.264 75.4003 238.086 74.9722 239.016 74.9722C239.052 74.9722 239.08 74.9793 239.116 74.9793C240.225 72.7102 242.556 71.1476 245.252 71.1476C247.947 71.1476 250.436 72.8173 251.501 75.2148C251.866 75.0578 252.267 74.9722 252.688 74.9722C254.126 74.9722 255.32 75.9783 255.62 77.3197C256.107 76.9772 256.7 76.7703 257.344 76.7703C258.323 76.7703 259.181 77.2484 259.732 77.9691H219.766L219.759 77.9619Z" fill="#43A1F6"/>
<path d="M223.806 181.368C217.585 180.277 210.856 162.188 222.44 156.123C234.025 150.065 237.929 146.854 240.346 132.733C242.763 118.612 251.001 125.32 249.149 133.583C247.297 141.845 259.66 140.818 262.235 144.757C266.704 151.585 256.814 152.677 251.158 156.566C245.495 160.455 255.599 163.109 251.58 169.688C247.561 176.267 234.411 183.231 223.806 181.368V181.368Z" fill="#0373D8"/>
<path d="M223.17 181.197L225.372 177.323L227.625 173.484C229.127 170.922 230.7 168.403 232.294 165.899C233.903 163.401 235.527 160.918 237.25 158.492C238.108 157.279 238.98 156.073 239.86 154.882C240.768 153.704 241.669 152.527 242.634 151.393C242.234 152.02 241.826 152.634 241.405 153.248L240.196 155.117C239.388 156.359 238.573 157.6 237.786 158.856L233.002 166.356C231.393 168.846 229.806 171.35 228.168 173.826C226.531 176.302 224.936 178.807 223.17 181.197V181.197Z" fill="white"/>
<path d="M229.591 170.944C232.044 170.037 234.554 169.381 237.078 168.782C239.61 168.211 242.148 167.697 244.751 167.433C242.298 168.346 239.788 169.003 237.264 169.595C234.733 170.166 232.194 170.68 229.591 170.944Z" fill="white"/>
<path d="M235.748 161.325C235.469 159.805 235.448 158.292 235.484 156.78C235.548 155.267 235.677 153.761 236.063 152.263C236.342 153.783 236.37 155.296 236.327 156.808C236.263 158.321 236.134 159.827 235.748 161.325Z" fill="white"/>
<path d="M225.751 190.438C225.751 190.438 222.261 183.637 228.218 179.285C234.175 174.925 236.813 169.331 233.409 164.179C230.013 159.035 221.282 162.238 217.599 159.784C213.909 157.322 215.497 152.056 212.472 146.362C208.417 138.727 200.573 140.746 198.735 141.924C196.897 143.101 193.644 146.705 197.905 153.626C202.167 160.547 199.028 162.973 195.639 168.41C192.249 173.848 198.192 175.96 207.831 177.794C217.47 179.627 219.136 191.444 219.136 191.444L225.751 190.438" fill="#0055A3"/>
<path d="M223.298 197.266C223.241 195.011 223.019 192.778 222.705 190.559C222.376 188.34 222.004 186.135 221.475 183.959C220.967 181.782 220.381 179.62 219.708 177.494L218.65 174.311L217.427 171.193C217.056 170.137 216.555 169.138 216.097 168.118C215.625 167.105 215.203 166.07 214.66 165.092L213.108 162.117C212.865 161.61 212.551 161.154 212.265 160.669L211.406 159.227C209.154 155.353 206.422 151.785 203.669 148.21C204.434 149.031 205.199 149.865 205.95 150.707C206.694 151.557 207.502 152.356 208.167 153.269C209.526 155.074 210.956 156.837 212.143 158.763C214.703 162.502 216.712 166.598 218.471 170.772C220.209 174.961 221.468 179.342 222.311 183.787C222.74 186.013 223.026 188.254 223.241 190.509C223.37 192.764 223.477 195.026 223.284 197.273L223.298 197.266Z" fill="white"/>
<path d="M219.222 175.16C217.971 173.983 216.569 173.048 215.11 172.242C213.645 171.45 212.107 170.808 210.52 170.316C209.719 170.101 208.918 169.852 208.095 169.716C207.688 169.638 207.28 169.524 206.866 169.474C206.451 169.424 206.036 169.359 205.621 169.295C205.207 169.217 204.785 169.195 204.37 169.16L203.104 169.045C202.26 168.988 201.409 168.988 200.544 168.91C201.388 168.739 202.239 168.596 203.097 168.489C203.955 168.46 204.828 168.353 205.693 168.418C207.438 168.446 209.168 168.767 210.856 169.238C212.522 169.773 214.138 170.501 215.582 171.493C217.02 172.478 218.343 173.683 219.236 175.168L219.222 175.16Z" fill="white"/>
<path d="M220.695 179.392C220.152 177.936 219.973 176.345 220.066 174.768C220.159 173.184 220.609 171.607 221.396 170.194L221.696 169.666C221.804 169.495 221.939 169.338 222.054 169.181C222.311 168.867 222.519 168.517 222.812 168.239L223.691 167.411C223.985 167.133 224.342 166.94 224.664 166.712C225.3 166.22 226.065 165.963 226.766 165.628C227.503 165.356 228.275 165.185 229.019 165.014C228.347 165.428 227.646 165.727 227.009 166.127C226.387 166.562 225.722 166.912 225.186 167.426C224.02 168.332 223.084 169.481 222.383 170.744C221.661 171.999 221.203 173.412 220.938 174.868C220.688 176.331 220.602 177.843 220.688 179.385L220.695 179.392Z" fill="white"/>
<path d="M246.631 186.927C257.68 189.717 257.944 180.113 251.179 174.754C246.946 171.407 255.584 169.616 258.931 166.363C264.68 160.769 255.463 153.74 250.679 158.642C245.902 163.537 242.934 165.043 239.452 165.471C235.97 165.899 226.144 166.006 226.988 172.242C227.517 176.131 224.149 179.449 224.607 183.345C234.818 179.899 240.875 185.471 246.631 186.92V186.927Z" fill="#43A1F6"/>
<path d="M224.607 183.345C228.625 179.856 232.959 176.766 237.421 173.876C239.666 172.456 241.947 171.086 244.293 169.816C246.638 168.553 249.041 167.404 251.522 166.427C249.227 167.775 246.974 169.16 244.715 170.53C242.469 171.935 240.231 173.334 238.007 174.761L231.328 179.057C229.112 180.498 226.866 181.918 224.614 183.331L224.607 183.345Z" fill="white"/>
<path d="M235.955 175.467C235.855 174.725 235.855 173.998 235.891 173.277C235.919 172.556 236.005 171.843 236.119 171.136C236.234 170.43 236.384 169.723 236.584 169.031C236.777 168.339 237.006 167.647 237.342 166.976C237.45 167.718 237.442 168.446 237.407 169.167C237.378 169.888 237.292 170.601 237.178 171.308C237.063 172.014 236.913 172.72 236.713 173.412C236.52 174.105 236.291 174.797 235.955 175.467Z" fill="white"/>
<path d="M232.93 177.48C234.239 177.266 235.547 177.151 236.849 177.08C238.157 177.002 239.466 176.98 240.767 176.973C242.076 176.987 243.385 177.016 244.686 177.101C245.995 177.18 247.296 177.301 248.605 177.53C247.296 177.751 245.988 177.858 244.686 177.936C243.378 178.015 242.069 178.036 240.767 178.043C239.459 178.029 238.15 178.001 236.849 177.915C235.54 177.829 234.239 177.715 232.93 177.487V177.48Z" fill="white"/>
<path d="M236.37 201.291H220.202L216.44 185.172H240.131L236.37 201.291Z" fill="#003261"/>
<path d="M242.663 181.069H213.916V187.555H242.663V181.069Z" fill="#0B5BA5"/>
<g opacity="0.74">
<path opacity="0.74" d="M78.0218 183.067C79.1731 180.22 81.9405 179.363 83.292 176.795C85.7161 172.199 81.6402 171.015 81.1539 167.961C80.5103 163.894 83.3707 164.258 84.8438 161.782C86.5814 158.87 83.6424 155.424 85.4444 152.663C89.928 145.791 97.2218 153.34 101.97 154.932C104.88 155.902 109.235 156.316 111.531 154.468C114.555 152.028 117.573 146.376 114.37 143.115C109.857 138.52 111.509 136.158 116.393 134.995C118.553 134.482 119.547 132.833 117.144 130.957C120.791 136.215 108.635 131.428 106.468 134.995C104.966 137.471 106.818 138.934 107.34 140.839C108.678 145.713 105.324 149.901 98.3231 145.028C94.2971 142.223 94.6404 137.229 90.3713 135.951C86.3812 134.76 81.7474 138.328 80.2815 143.108C78.8299 147.839 77.1065 150.265 71.9937 149.73C65.9226 149.088 61.2388 152.848 63.949 158.271C66.3588 163.08 73.0306 160.347 76.4129 163.102C80.1671 166.163 79.0015 170.373 74.1389 174.326C72.6301 175.553 70.3132 177.387 70.9067 179.477C71.2929 180.833 73.717 182.988 75.2831 183.045L78.0147 183.074L78.0218 183.067Z" fill="white"/>
</g>
<path d="M87.0104 184.965H85.7089V183.217C85.7089 182.467 85.1011 181.868 84.3574 181.868H68.9831C68.2323 181.868 67.6316 182.474 67.6316 183.217V193.941C67.6316 198.001 70.9281 201.298 75.0041 201.298H78.3436C81.5757 201.298 84.3145 199.214 85.3085 196.324H87.0104C88.3118 196.324 89.363 195.275 89.363 193.977V187.319C89.363 186.021 88.3118 184.972 87.0104 184.972V184.965ZM87.8613 193.977C87.8613 194.441 87.4823 194.826 87.0104 194.826H85.6517C85.6875 194.533 85.7089 194.241 85.7089 193.941V186.47H87.0104C87.4752 186.47 87.8613 186.848 87.8613 187.319V193.977V193.977Z" fill="#BDBCBA"/>
<path d="M83.7353 185.671C83.7353 184.337 83.4564 183.059 82.9558 181.861H68.9831C68.2323 181.861 67.6316 182.467 67.6316 183.209V193.934C67.6316 195.233 67.9748 196.453 68.5612 197.509C68.7757 197.516 68.9831 197.537 69.1976 197.537C77.228 197.537 83.7353 192.221 83.7353 185.664V185.671Z" fill="#CACACA"/>
<path d="M248.319 217.452H53.6374C51.5565 217.452 49.8689 215.768 49.8689 213.692C49.8689 211.615 51.5565 209.932 53.6374 209.932H248.319C250.4 209.932 252.087 211.615 252.087 213.692C252.087 215.768 250.4 217.452 248.319 217.452Z" fill="#0B5BA5"/>
<path d="M253.089 211.908H48.8678C45.9288 211.908 43.5476 209.532 43.5476 206.599C43.5476 203.667 45.9288 201.291 48.8678 201.291H253.089C256.028 201.291 258.409 203.667 258.409 206.599C258.409 209.532 256.028 211.908 253.089 211.908Z" fill="#003261"/>
<path d="M220.045 114.017C227.675 114.017 233.86 107.845 233.86 100.232C233.86 92.618 227.675 86.4459 220.045 86.4459C212.415 86.4459 206.229 92.618 206.229 100.232C206.229 107.845 212.415 114.017 220.045 114.017Z" fill="#123978"/>
<path d="M220.045 110.977C225.992 110.977 230.814 106.166 230.814 100.232C230.814 94.2967 225.992 89.4856 220.045 89.4856C214.097 89.4856 209.276 94.2967 209.276 100.232C209.276 106.166 214.097 110.977 220.045 110.977Z" fill="white"/>
<path d="M220.045 100.232V93.774" stroke="#4B4583" stroke-width="0.98" stroke-linecap="round" stroke-linejoin="round"/>
<path d="M220.045 100.232L223.999 104.185" stroke="#4B4583" stroke-width="0.98" stroke-linecap="round" stroke-linejoin="round"/>
<path d="M220.038 109.764V108.494" stroke="#4B4583" stroke-width="0.68" stroke-linecap="round" stroke-linejoin="round"/>
<path d="M224.814 108.494L224.178 107.381" stroke="#4B4583" stroke-width="0.68" stroke-linecap="round" stroke-linejoin="round"/>
<path d="M228.311 105.005L227.203 104.363" stroke="#4B4583" stroke-width="0.68" stroke-linecap="round" stroke-linejoin="round"/>
<path d="M229.598 100.239H228.311" stroke="#4B4583" stroke-width="0.68" stroke-linecap="round" stroke-linejoin="round"/>
<path d="M228.311 95.4722L227.21 96.1072" stroke="#4B4583" stroke-width="0.68" stroke-linecap="round" stroke-linejoin="round"/>
<path d="M224.814 91.9829L224.178 93.0817" stroke="#4B4583" stroke-width="0.68" stroke-linecap="round" stroke-linejoin="round"/>
<path d="M220.038 91.983V90.6986" stroke="#4B4583" stroke-width="0.68" stroke-linecap="round" stroke-linejoin="round"/>
<path d="M215.904 93.0889L215.268 91.9829" stroke="#4B4583" stroke-width="0.68" stroke-linecap="round" stroke-linejoin="round"/>
<path d="M212.873 96.1072L211.771 95.4722" stroke="#4B4583" stroke-width="0.68" stroke-linecap="round" stroke-linejoin="round"/>
<path d="M211.771 100.239H210.491" stroke="#4B4583" stroke-width="0.68" stroke-linecap="round" stroke-linejoin="round"/>
<path d="M212.88 104.363L211.771 105.005" stroke="#4B4583" stroke-width="0.68" stroke-linecap="round" stroke-linejoin="round"/>
<path d="M215.904 107.381L215.268 108.494" stroke="#4B4583" stroke-width="0.68" stroke-linecap="round" stroke-linejoin="round"/>
<path d="M220.045 100.852C220.388 100.852 220.667 100.574 220.667 100.232C220.667 99.8887 220.388 99.6107 220.045 99.6107C219.701 99.6107 219.423 99.8887 219.423 100.232C219.423 100.574 219.701 100.852 220.045 100.852Z" fill="#123978"/>
<path d="M119.954 85.4042C114.076 79.5389 104.509 79.6031 98.7165 85.5969C93.3962 91.0983 93.1603 99.9105 98.2088 105.669C103.107 111.256 111.102 112.241 117.094 108.637C117.623 108.316 118.267 108.245 118.86 108.423L122.622 109.543C122.908 109.629 123.172 109.365 123.094 109.072L121.971 105.319C121.792 104.727 121.871 104.085 122.186 103.55C125.625 97.8412 124.881 90.3276 119.947 85.4042H119.954Z" fill="#BDBCBA"/>
<path d="M101.005 89.4072H117.874" stroke="white" stroke-width="1.67" stroke-linecap="round" stroke-linejoin="round"/>
<path d="M113.826 93.7384H117.874" stroke="white" stroke-width="1.67" stroke-linecap="round" stroke-linejoin="round"/>
<path d="M101.005 93.7384H109.808" stroke="white" stroke-width="1.67" stroke-linecap="round" stroke-linejoin="round"/>
<path d="M108.714 98.0696H117.874" stroke="white" stroke-width="1.67" stroke-linecap="round" stroke-linejoin="round"/>
<path d="M101.005 98.0696H105.403" stroke="white" stroke-width="1.67" stroke-linecap="round" stroke-linejoin="round"/>
<path d="M113.826 102.401H117.874" stroke="white" stroke-width="1.67" stroke-linecap="round" stroke-linejoin="round"/>
<path d="M101.005 102.401H109.607" stroke="white" stroke-width="1.67" stroke-linecap="round" stroke-linejoin="round"/>
<path d="M151.089 92.454C151.089 92.454 149.588 85.8252 155.98 80.1311C162.373 74.437 172.256 74.9579 177.676 77.9263C184.698 81.7722 191.592 91.9545 185.292 106.504C178.992 121.053 207.867 115.045 198.178 134.753C188.488 154.461 171.748 140.854 165.727 149.016C159.706 157.179 138.869 135.773 156.674 120.81C174.473 105.847 152.434 105.911 151.089 92.454V92.454Z" fill="#914E00"/>
<path d="M149.459 135.873C142.151 138.984 136.101 157.458 135.536 196.874H151.282C151.282 196.874 160.85 131.028 149.459 135.873V135.873Z" fill="#162F50"/>
<path d="M168.995 130.001C177.633 129.151 191.706 130.578 196.769 136.158C197.884 137.386 197.891 139.69 197.291 142.88C195.174 154.14 185.52 176.431 190.655 201.298H145.697C145.697 201.298 149.959 181.868 147.578 175.731C144.854 168.724 142.494 162.388 145.175 156.53C151.282 143.194 145.812 137.678 149.68 135.752C155.008 133.097 161.687 130.721 168.988 130.008L168.995 130.001Z" fill="#1C3658"/>
<path d="M187.551 162.995C185.671 173.883 173.035 175.225 166.699 173.099C166.699 173.099 175.917 178.664 182.56 175.539C182.56 175.539 184.255 180.855 181.723 197.58H189.99C189.99 197.58 189.99 197.544 189.99 197.495C188.681 188.747 189.089 180.377 190.233 172.777C190.447 170.851 190.733 169.103 191.112 167.69L191.127 167.647C192.178 162.317 193.487 157.443 194.659 153.184C195.16 150.301 195.353 147.775 195.353 144.607C195.353 144.607 189.425 152.113 187.544 163.002L187.551 162.995Z" fill="#162F50"/>
<path d="M188.023 186.363C188.023 186.363 180.172 195.989 176.375 193.385C171.348 189.931 167.207 189.995 163.882 191.979C160.435 194.034 159.12 197.587 159.12 197.587H186.071L193.916 190.816L188.023 186.37V186.363Z" fill="#F4AE98"/>
<path d="M197.062 136.551C197.062 136.551 203.991 154.611 209.933 169.381C214.732 181.297 185.807 197.544 185.807 197.544L181.03 191.158L197.691 172.735L187.501 151.3C187.501 151.3 181.595 139.605 190.562 135.459C195.553 133.154 197.062 136.558 197.062 136.558V136.551Z" fill="#1C3658"/>
<path d="M174.909 112.412C174.909 112.412 173.822 126.105 177.111 129.679C181.344 134.275 173.915 144.193 162.752 151.707C162.752 151.707 156.517 144.792 161.401 133.533C166.292 122.273 161.551 115.908 161.551 115.908L174.909 112.412Z" fill="#F4AE98"/>
<path d="M177.111 106.496C177.111 115.88 170.49 123.479 164.89 123.479C159.291 123.479 152.305 117.242 151.361 105.697C150.596 96.3499 155.652 89.5142 163.281 89.5142C170.911 89.5142 177.104 97.1205 177.104 106.504L177.111 106.496Z" fill="#FFB99F"/>
<path d="M153.792 87.3165C153.006 87.766 151.304 88.872 149.316 90.192C147.156 91.6263 144.847 94.1165 144.06 96.8351C142.701 101.509 146.148 107.431 152.999 105.341C159.856 103.25 163.131 92.2756 168.695 98.619C175.61 106.504 178.112 102.108 178.112 102.108C178.112 102.108 176.725 92.2899 169.724 87.873C165.97 85.5041 160.314 83.5632 153.792 87.3165V87.3165Z" fill="#914E00"/>
<path d="M181.724 103.121C181.724 106.183 179.907 108.666 177.676 108.666C175.445 108.666 173.629 106.183 173.629 103.121C173.629 100.06 175.445 97.5773 177.676 97.5773C179.907 97.5773 181.724 100.06 181.724 103.121Z" fill="#151F2C"/>
<path d="M164.933 84.6479C158.705 83.4492 152.698 85.7967 149.316 90.185C153.049 87.6376 157.94 86.5316 162.953 87.4949C171.226 89.0861 177.09 95.7934 177.283 103.236C177.433 102.75 177.562 102.258 177.662 101.744C179.171 93.9382 173.471 86.2819 164.941 84.6408L164.933 84.6479Z" fill="#151F2C"/>
<path d="M176.797 104.927C176.797 104.927 177.926 117.449 166.385 118.641" stroke="#151F2C" stroke-width="1.05" stroke-miterlimit="10"/>
<path d="M165.634 119.89H163.818C163.232 119.89 162.752 119.412 162.752 118.827C162.752 118.242 163.232 117.763 163.818 117.763H165.634C166.221 117.763 166.7 118.242 166.7 118.827C166.7 119.412 166.221 119.89 165.634 119.89Z" fill="#151F2C"/>
<path d="M192.586 197.537H127.113C126.196 197.537 125.454 198.278 125.454 199.193V199.635C125.454 200.549 126.196 201.291 127.113 201.291H192.586C193.502 201.291 194.245 200.549 194.245 199.635V199.193C194.245 198.278 193.502 197.537 192.586 197.537Z" fill="#004788"/>
<path d="M162.316 201.291H101.842C100.197 201.291 98.7309 200.263 98.166 198.722L84.0646 160.062C83.135 157.515 85.0228 154.825 87.7401 154.825H148.215C149.859 154.825 151.325 155.852 151.89 157.393L165.992 196.053C166.921 198.6 165.034 201.291 162.316 201.291Z" fill="#0055A2"/>
<path d="M86.3457 155.089C86.5745 177.936 117.237 196.417 155.044 196.417C158.748 196.417 162.388 196.239 165.935 195.896L151.89 157.401C151.325 155.859 149.859 154.832 148.215 154.832H87.7401C87.2396 154.832 86.7748 154.925 86.3457 155.089Z" fill="#0B5BA5"/>
<path d="M128.707 177.294C128.707 179.82 126.655 181.861 124.131 181.861C121.606 181.861 119.554 179.813 119.554 177.294C119.554 174.775 121.606 172.728 124.131 172.728C126.655 172.728 128.707 174.775 128.707 177.294Z" fill="#1468B6"/>
<path d="M194.302 56.1632C198.563 51.9105 205.507 51.9533 209.712 56.3059C213.573 60.2946 213.738 66.688 210.076 70.8622C206.522 74.9151 200.723 75.6286 196.375 73.0171C195.989 72.7887 195.524 72.7317 195.095 72.8601L192.364 73.6735C192.156 73.7378 191.963 73.5451 192.02 73.331L192.836 70.6053C192.964 70.1772 192.907 69.7062 192.678 69.3209C190.183 65.1824 190.719 59.7309 194.302 56.1561V56.1632Z" fill="#BDBCBA"/>
<path d="M195.939 65.5249C196.903 65.5249 197.684 64.7454 197.684 63.7839C197.684 62.8223 196.903 62.0428 195.939 62.0428C194.976 62.0428 194.194 62.8223 194.194 63.7839C194.194 64.7454 194.976 65.5249 195.939 65.5249Z" fill="white"/>
<path d="M201.924 65.5249C202.888 65.5249 203.669 64.7454 203.669 63.7839C203.669 62.8223 202.888 62.0428 201.924 62.0428C200.961 62.0428 200.18 62.8223 200.18 63.7839C200.18 64.7454 200.961 65.5249 201.924 65.5249Z" fill="white"/>
<path d="M207.917 65.5249C208.881 65.5249 209.662 64.7454 209.662 63.7839C209.662 62.8223 208.881 62.0428 207.917 62.0428C206.953 62.0428 206.172 62.8223 206.172 63.7839C206.172 64.7454 206.953 65.5249 207.917 65.5249Z" fill="white"/>
<g opacity="0.07">
<g opacity="0.07">
<path opacity="0.07" d="M240.002 55.8422L241.54 57.3834" stroke="#4B4583" stroke-linecap="round" stroke-linejoin="round"/>
<path opacity="0.07" d="M241.54 55.8422L240.002 57.3834" stroke="#4B4583" stroke-linecap="round" stroke-linejoin="round"/>
</g>
<g opacity="0.07">
<path opacity="0.07" d="M47.7166 137.878L50.8057 140.953" stroke="#4B4583" stroke-width="2" stroke-linecap="round" stroke-linejoin="round"/>
<path opacity="0.07" d="M50.8057 137.878L47.7166 140.953" stroke="#4B4583" stroke-width="2" stroke-linecap="round" stroke-linejoin="round"/>
</g>
<g opacity="0.07">
<path opacity="0.07" d="M132.761 119.89L134.921 122.045" stroke="#4B4583" stroke-width="1.4" stroke-linecap="round" stroke-linejoin="round"/>
<path opacity="0.07" d="M134.921 119.89L132.761 122.045" stroke="#4B4583" stroke-width="1.4" stroke-linecap="round" stroke-linejoin="round"/>
</g>
<g opacity="0.07">
<path opacity="0.07" d="M254.497 195.247L256.657 197.395" stroke="#4B4583" stroke-width="1.4" stroke-linecap="round" stroke-linejoin="round"/>
<path opacity="0.07" d="M256.657 195.247L254.497 197.395" stroke="#4B4583" stroke-width="1.4" stroke-linecap="round" stroke-linejoin="round"/>
</g>
<path opacity="0.07" d="M170.246 63.7839C170.246 64.5117 169.653 65.104 168.923 65.104C168.194 65.104 167.6 64.5117 167.6 63.7839C167.6 63.0561 168.194 62.4639 168.923 62.4639C169.653 62.4639 170.246 63.0561 170.246 63.7839Z" stroke="#4B4583" stroke-width="1.4" stroke-linecap="round" stroke-linejoin="round"/>
<path opacity="0.07" d="M96.6067 117.763C96.6067 118.491 96.0132 119.083 95.2838 119.083C94.5544 119.083 93.9609 118.491 93.9609 117.763C93.9609 117.035 94.5544 116.443 95.2838 116.443C96.0132 116.443 96.6067 117.035 96.6067 117.763Z" stroke="#4B4583" stroke-width="1.4" stroke-linecap="round" stroke-linejoin="round"/>
<path opacity="0.07" d="M256.9 101.088C256.9 101.816 256.307 102.408 255.577 102.408C254.848 102.408 254.254 101.816 254.254 101.088C254.254 100.36 254.848 99.7678 255.577 99.7678C256.307 99.7678 256.9 100.36 256.9 101.088Z" stroke="#4B4583" stroke-width="1.4" stroke-linecap="round" stroke-linejoin="round"/>
<path opacity="0.07" d="M54.6599 175.161C54.6599 176.887 53.2583 178.286 51.5278 178.286C49.7973 178.286 48.3958 176.887 48.3958 175.161C48.3958 173.434 49.7973 172.035 51.5278 172.035C53.2583 172.035 54.6599 173.434 54.6599 175.161Z" stroke="#4B4583" stroke-width="1.4" stroke-linecap="round" stroke-linejoin="round"/>
<path opacity="0.07" d="M227.131 135.702C227.131 137.428 225.73 138.827 223.999 138.827C222.269 138.827 220.867 137.428 220.867 135.702C220.867 133.975 222.269 132.576 223.999 132.576C225.73 132.576 227.131 133.975 227.131 135.702Z" stroke="#4B4583" stroke-width="1.4" stroke-linecap="round" stroke-linejoin="round"/>
</g>
</svg>
