<svg width="572" height="421" viewBox="0 0 572 421" fill="none" xmlns="http://www.w3.org/2000/svg">
<g opacity="0.39">
<path opacity="0.64" d="M436.012 89.2095C413.945 80.8202 376.21 40.9374 337.202 89.4326C302.532 132.538 262.425 119.082 242.494 106.728C209.197 86.1016 163.456 71.3901 142.911 115.785C122.367 160.18 141.791 201.742 65.5534 214.328C-10.6838 226.915 -7.4916 322.464 64.1237 341.803C135.739 361.142 160.784 318.869 225.103 337.325C290.291 356.034 364.911 349.273 480.55 338.15C596.19 327.027 567.96 115.596 436.002 89.2084C304.044 62.8207 436.012 89.2095 436.012 89.2095Z" fill="#C8C7C9"/>
<path opacity="0.31" d="M525.429 119.717C500.485 129.893 416.013 130.636 389.361 81.7228C361.331 30.2712 315.704 -6.73494 270.943 55.9218C226.182 118.579 230.812 145.319 139.057 114.175C47.1246 82.9691 1.11267 167.929 55.8477 220.396C112.046 274.275 118.503 330.058 223.152 362.537C287.409 382.475 420.455 373.518 466.741 324.676C509.071 280.001 609.032 67.7064 525.432 119.705C441.832 171.703 525.429 119.717 525.429 119.717Z" fill="#9C9C9C"/>
</g>
<g style="mix-blend-mode:overlay" opacity="0.24">
<g style="mix-blend-mode:overlay" opacity="0.24">
<g style="mix-blend-mode:overlay" opacity="0.24">
<g style="mix-blend-mode:overlay" opacity="0.24">
<path d="M306.521 106.831L178.547 234.718" stroke="white" stroke-width="1.59" stroke-miterlimit="10"/>
</g>
<g style="mix-blend-mode:overlay" opacity="0.24">
<path d="M313.221 106.831L185.247 234.718" stroke="white" stroke-width="1.59" stroke-miterlimit="10"/>
</g>
<g style="mix-blend-mode:overlay" opacity="0.24">
<path d="M319.91 106.831L191.936 234.718" stroke="white" stroke-width="1.59" stroke-miterlimit="10"/>
</g>
<g style="mix-blend-mode:overlay" opacity="0.24">
<path d="M326.61 106.831L198.637 234.718" stroke="white" stroke-width="1.59" stroke-miterlimit="10"/>
</g>
<g style="mix-blend-mode:overlay" opacity="0.24">
<path d="M333.311 106.831L205.326 234.718" stroke="white" stroke-width="1.59" stroke-miterlimit="10"/>
</g>
<g style="mix-blend-mode:overlay" opacity="0.24">
<path d="M340 106.831L212.026 234.718" stroke="white" stroke-width="1.59" stroke-miterlimit="10"/>
</g>
<g style="mix-blend-mode:overlay" opacity="0.24">
<path d="M346.701 106.831L218.716 234.718" stroke="white" stroke-width="1.59" stroke-miterlimit="10"/>
</g>
<g style="mix-blend-mode:overlay" opacity="0.24">
<path d="M353.389 106.831L225.416 234.718" stroke="white" stroke-width="1.59" stroke-miterlimit="10"/>
</g>
<g style="mix-blend-mode:overlay" opacity="0.24">
<path d="M360.09 106.831L232.105 234.718" stroke="white" stroke-width="1.59" stroke-miterlimit="10"/>
</g>
<g style="mix-blend-mode:overlay" opacity="0.24">
<path d="M366.779 106.831L238.805 234.718" stroke="white" stroke-width="1.59" stroke-miterlimit="10"/>
</g>
<g style="mix-blend-mode:overlay" opacity="0.24">
<path d="M373.479 106.831L245.505 234.718" stroke="white" stroke-width="1.59" stroke-miterlimit="10"/>
</g>
<g style="mix-blend-mode:overlay" opacity="0.24">
<path d="M380.168 106.831L252.194 234.718" stroke="white" stroke-width="1.59" stroke-miterlimit="10"/>
</g>
<g style="mix-blend-mode:overlay" opacity="0.24">
<path d="M386.869 106.831L258.895 234.718" stroke="white" stroke-width="1.59" stroke-miterlimit="10"/>
</g>
<g style="mix-blend-mode:overlay" opacity="0.24">
<path d="M393.558 106.831L265.584 234.718" stroke="white" stroke-width="1.59" stroke-miterlimit="10"/>
</g>
<g style="mix-blend-mode:overlay" opacity="0.24">
<path d="M400.258 106.831L272.284 234.718" stroke="white" stroke-width="1.59" stroke-miterlimit="10"/>
</g>
<g style="mix-blend-mode:overlay" opacity="0.24">
<path d="M406.947 106.831L278.973 234.718" stroke="white" stroke-width="1.59" stroke-miterlimit="10"/>
</g>
<g style="mix-blend-mode:overlay" opacity="0.24">
<path d="M413.648 106.831L285.674 234.718" stroke="white" stroke-width="1.59" stroke-miterlimit="10"/>
</g>
<g style="mix-blend-mode:overlay" opacity="0.24">
<path d="M420.348 106.831L292.363 234.718" stroke="white" stroke-width="1.59" stroke-miterlimit="10"/>
</g>
<g style="mix-blend-mode:overlay" opacity="0.24">
<path d="M427.037 106.831L299.063 234.718" stroke="white" stroke-width="1.59" stroke-miterlimit="10"/>
</g>
<g style="mix-blend-mode:overlay" opacity="0.24">
<path d="M433.738 106.831L305.752 234.718" stroke="white" stroke-width="1.59" stroke-miterlimit="10"/>
</g>
<g style="mix-blend-mode:overlay" opacity="0.24">
<path d="M440.426 106.831L312.453 234.718" stroke="white" stroke-width="1.59" stroke-miterlimit="10"/>
</g>
<g style="mix-blend-mode:overlay" opacity="0.24">
<path d="M447.127 106.831L319.153 234.718" stroke="white" stroke-width="1.59" stroke-miterlimit="10"/>
</g>
<g style="mix-blend-mode:overlay" opacity="0.24">
<path d="M453.816 106.831L325.842 234.718" stroke="white" stroke-width="1.59" stroke-miterlimit="10"/>
</g>
<g style="mix-blend-mode:overlay" opacity="0.24">
<path d="M460.516 106.831L332.542 234.718" stroke="white" stroke-width="1.59" stroke-miterlimit="10"/>
</g>
<g style="mix-blend-mode:overlay" opacity="0.24">
<path d="M467.205 106.831L339.232 234.718" stroke="white" stroke-width="1.59" stroke-miterlimit="10"/>
</g>
<g style="mix-blend-mode:overlay" opacity="0.24">
<path d="M473.905 106.831L345.932 234.718" stroke="white" stroke-width="1.59" stroke-miterlimit="10"/>
</g>
<g style="mix-blend-mode:overlay" opacity="0.24">
<path d="M480.595 106.831L352.621 234.718" stroke="white" stroke-width="1.59" stroke-miterlimit="10"/>
</g>
<g style="mix-blend-mode:overlay" opacity="0.24">
<path d="M487.295 106.831L359.321 234.718" stroke="white" stroke-width="1.59" stroke-miterlimit="10"/>
</g>
<g style="mix-blend-mode:overlay" opacity="0.24">
<path d="M493.995 106.831L366.01 234.718" stroke="white" stroke-width="1.59" stroke-miterlimit="10"/>
</g>
<g style="mix-blend-mode:overlay" opacity="0.24">
<path d="M500.685 106.831L372.711 234.718" stroke="white" stroke-width="1.59" stroke-miterlimit="10"/>
</g>
<g style="mix-blend-mode:overlay" opacity="0.24">
<path d="M507.385 106.831L379.4 234.718" stroke="white" stroke-width="1.59" stroke-miterlimit="10"/>
</g>
<g style="mix-blend-mode:overlay" opacity="0.24">
<path d="M514.074 106.831L386.1 234.718" stroke="white" stroke-width="1.59" stroke-miterlimit="10"/>
</g>
<g style="mix-blend-mode:overlay" opacity="0.24">
<path d="M520.774 106.831L392.801 234.718" stroke="white" stroke-width="1.59" stroke-miterlimit="10"/>
</g>
<g style="mix-blend-mode:overlay" opacity="0.24">
<path d="M527.464 106.831L399.49 234.718" stroke="white" stroke-width="1.59" stroke-miterlimit="10"/>
</g>
<g style="mix-blend-mode:overlay" opacity="0.24">
<path d="M534.164 106.831L406.19 234.718" stroke="white" stroke-width="1.59" stroke-miterlimit="10"/>
</g>
<g style="mix-blend-mode:overlay" opacity="0.24">
<path d="M540.853 106.831L412.879 234.718" stroke="white" stroke-width="1.59" stroke-miterlimit="10"/>
</g>
<g style="mix-blend-mode:overlay" opacity="0.24">
<path d="M547.554 106.831L419.58 234.718" stroke="white" stroke-width="1.59" stroke-miterlimit="10"/>
</g>
</g>
</g>
<g style="mix-blend-mode:overlay" opacity="0.24">
<g style="mix-blend-mode:overlay" opacity="0.24">
<g style="mix-blend-mode:overlay" opacity="0.24">
<path d="M168.152 151.071L40.178 278.958" stroke="white" stroke-width="1.59" stroke-miterlimit="10"/>
</g>
<g style="mix-blend-mode:overlay" opacity="0.24">
<path d="M174.841 151.071L46.8669 278.958" stroke="white" stroke-width="1.59" stroke-miterlimit="10"/>
</g>
<g style="mix-blend-mode:overlay" opacity="0.24">
<path d="M181.541 151.071L53.5674 278.958" stroke="white" stroke-width="1.59" stroke-miterlimit="10"/>
</g>
<g style="mix-blend-mode:overlay" opacity="0.24">
<path d="M188.23 151.071L60.2566 278.958" stroke="white" stroke-width="1.59" stroke-miterlimit="10"/>
</g>
<g style="mix-blend-mode:overlay" opacity="0.24">
<path d="M194.931 151.071L66.9568 278.958" stroke="white" stroke-width="1.59" stroke-miterlimit="10"/>
</g>
<g style="mix-blend-mode:overlay" opacity="0.24">
<path d="M201.62 151.071L73.646 278.958" stroke="white" stroke-width="1.59" stroke-miterlimit="10"/>
</g>
<g style="mix-blend-mode:overlay" opacity="0.24">
<path d="M208.32 151.071L80.3467 278.958" stroke="white" stroke-width="1.59" stroke-miterlimit="10"/>
</g>
<g style="mix-blend-mode:overlay" opacity="0.24">
<path d="M215.021 151.071L87.0354 278.958" stroke="white" stroke-width="1.59" stroke-miterlimit="10"/>
</g>
<g style="mix-blend-mode:overlay" opacity="0.24">
<path d="M221.709 151.071L93.7356 278.958" stroke="white" stroke-width="1.59" stroke-miterlimit="10"/>
</g>
<g style="mix-blend-mode:overlay" opacity="0.24">
<path d="M228.41 151.071L100.425 278.958" stroke="white" stroke-width="1.59" stroke-miterlimit="10"/>
</g>
<g style="mix-blend-mode:overlay" opacity="0.24">
<path d="M235.099 151.071L107.125 278.958" stroke="white" stroke-width="1.59" stroke-miterlimit="10"/>
</g>
<g style="mix-blend-mode:overlay" opacity="0.24">
<path d="M241.799 151.071L113.825 278.958" stroke="white" stroke-width="1.59" stroke-miterlimit="10"/>
</g>
<g style="mix-blend-mode:overlay" opacity="0.24">
<path d="M248.488 151.071L120.514 278.958" stroke="white" stroke-width="1.59" stroke-miterlimit="10"/>
</g>
<g style="mix-blend-mode:overlay" opacity="0.24">
<path d="M255.189 151.071L127.215 278.958" stroke="white" stroke-width="1.59" stroke-miterlimit="10"/>
</g>
<g style="mix-blend-mode:overlay" opacity="0.24">
<path d="M261.878 151.071L133.904 278.958" stroke="white" stroke-width="1.59" stroke-miterlimit="10"/>
</g>
<g style="mix-blend-mode:overlay" opacity="0.24">
<path d="M268.578 151.071L140.604 278.958" stroke="white" stroke-width="1.59" stroke-miterlimit="10"/>
</g>
<g style="mix-blend-mode:overlay" opacity="0.24">
<path d="M275.267 151.071L147.294 278.958" stroke="white" stroke-width="1.59" stroke-miterlimit="10"/>
</g>
<g style="mix-blend-mode:overlay" opacity="0.24">
<path d="M281.968 151.071L153.994 278.958" stroke="white" stroke-width="1.59" stroke-miterlimit="10"/>
</g>
<g style="mix-blend-mode:overlay" opacity="0.24">
<path d="M288.668 151.071L160.683 278.958" stroke="white" stroke-width="1.59" stroke-miterlimit="10"/>
</g>
<g style="mix-blend-mode:overlay" opacity="0.24">
<path d="M295.357 151.071L167.384 278.958" stroke="white" stroke-width="1.59" stroke-miterlimit="10"/>
</g>
<g style="mix-blend-mode:overlay" opacity="0.24">
<path d="M302.058 151.071L174.073 278.958" stroke="white" stroke-width="1.59" stroke-miterlimit="10"/>
</g>
<g style="mix-blend-mode:overlay" opacity="0.24">
<path d="M308.747 151.071L180.773 278.958" stroke="white" stroke-width="1.59" stroke-miterlimit="10"/>
</g>
<g style="mix-blend-mode:overlay" opacity="0.24">
<path d="M315.447 151.071L187.473 278.958" stroke="white" stroke-width="1.59" stroke-miterlimit="10"/>
</g>
<g style="mix-blend-mode:overlay" opacity="0.24">
<path d="M322.136 151.071L194.162 278.958" stroke="white" stroke-width="1.59" stroke-miterlimit="10"/>
</g>
<g style="mix-blend-mode:overlay" opacity="0.24">
<path d="M328.837 151.071L200.863 278.958" stroke="white" stroke-width="1.59" stroke-miterlimit="10"/>
</g>
<g style="mix-blend-mode:overlay" opacity="0.24">
<path d="M335.525 151.071L207.552 278.958" stroke="white" stroke-width="1.59" stroke-miterlimit="10"/>
</g>
<g style="mix-blend-mode:overlay" opacity="0.24">
<path d="M342.226 151.071L214.252 278.958" stroke="white" stroke-width="1.59" stroke-miterlimit="10"/>
</g>
<g style="mix-blend-mode:overlay" opacity="0.24">
<path d="M348.915 151.071L220.941 278.958" stroke="white" stroke-width="1.59" stroke-miterlimit="10"/>
</g>
<g style="mix-blend-mode:overlay" opacity="0.24">
<path d="M355.615 151.071L227.642 278.958" stroke="white" stroke-width="1.59" stroke-miterlimit="10"/>
</g>
<g style="mix-blend-mode:overlay" opacity="0.24">
<path d="M362.316 151.071L234.331 278.958" stroke="white" stroke-width="1.59" stroke-miterlimit="10"/>
</g>
<g style="mix-blend-mode:overlay" opacity="0.24">
<path d="M369.005 151.071L241.031 278.958" stroke="white" stroke-width="1.59" stroke-miterlimit="10"/>
</g>
<g style="mix-blend-mode:overlay" opacity="0.24">
<path d="M375.705 151.071L247.72 278.958" stroke="white" stroke-width="1.59" stroke-miterlimit="10"/>
</g>
<g style="mix-blend-mode:overlay" opacity="0.24">
<path d="M382.394 151.071L254.421 278.958" stroke="white" stroke-width="1.59" stroke-miterlimit="10"/>
</g>
<g style="mix-blend-mode:overlay" opacity="0.24">
<path d="M389.095 151.071L261.121 278.958" stroke="white" stroke-width="1.59" stroke-miterlimit="10"/>
</g>
<g style="mix-blend-mode:overlay" opacity="0.24">
<path d="M395.784 151.071L267.81 278.958" stroke="white" stroke-width="1.59" stroke-miterlimit="10"/>
</g>
<g style="mix-blend-mode:overlay" opacity="0.24">
<path d="M402.484 151.071L274.51 278.958" stroke="white" stroke-width="1.59" stroke-miterlimit="10"/>
</g>
<g style="mix-blend-mode:overlay" opacity="0.24">
<path d="M409.174 151.071L281.2 278.958" stroke="white" stroke-width="1.59" stroke-miterlimit="10"/>
</g>
</g>
</g>
<g style="mix-blend-mode:overlay" opacity="0.24">
<g style="mix-blend-mode:overlay" opacity="0.24">
<g style="mix-blend-mode:overlay" opacity="0.24">
<path d="M305.233 282.041L177.259 409.928" stroke="white" stroke-width="1.59" stroke-miterlimit="10"/>
</g>
<g style="mix-blend-mode:overlay" opacity="0.24">
<path d="M311.933 282.041L183.959 409.928" stroke="white" stroke-width="1.59" stroke-miterlimit="10"/>
</g>
<g style="mix-blend-mode:overlay" opacity="0.24">
<path d="M318.622 282.041L190.648 409.928" stroke="white" stroke-width="1.59" stroke-miterlimit="10"/>
</g>
<g style="mix-blend-mode:overlay" opacity="0.24">
<path d="M325.323 282.041L197.349 409.928" stroke="white" stroke-width="1.59" stroke-miterlimit="10"/>
</g>
<g style="mix-blend-mode:overlay" opacity="0.24">
<path d="M332.012 282.041L204.038 409.928" stroke="white" stroke-width="1.59" stroke-miterlimit="10"/>
</g>
<g style="mix-blend-mode:overlay" opacity="0.24">
<path d="M338.712 282.041L210.738 409.928" stroke="white" stroke-width="1.59" stroke-miterlimit="10"/>
</g>
<g style="mix-blend-mode:overlay" opacity="0.24">
<path d="M345.413 282.041L217.427 409.928" stroke="white" stroke-width="1.59" stroke-miterlimit="10"/>
</g>
<g style="mix-blend-mode:overlay" opacity="0.24">
<path d="M352.102 282.041L224.128 409.928" stroke="white" stroke-width="1.59" stroke-miterlimit="10"/>
</g>
<g style="mix-blend-mode:overlay" opacity="0.24">
<path d="M358.802 282.041L230.817 409.928" stroke="white" stroke-width="1.59" stroke-miterlimit="10"/>
</g>
<g style="mix-blend-mode:overlay" opacity="0.24">
<path d="M365.491 282.041L237.517 409.928" stroke="white" stroke-width="1.59" stroke-miterlimit="10"/>
</g>
<g style="mix-blend-mode:overlay" opacity="0.24">
<path d="M372.192 282.041L244.218 409.928" stroke="white" stroke-width="1.59" stroke-miterlimit="10"/>
</g>
<g style="mix-blend-mode:overlay" opacity="0.24">
<path d="M378.88 282.041L250.906 409.928" stroke="white" stroke-width="1.59" stroke-miterlimit="10"/>
</g>
<g style="mix-blend-mode:overlay" opacity="0.24">
<path d="M385.581 282.041L257.607 409.928" stroke="white" stroke-width="1.59" stroke-miterlimit="10"/>
</g>
<g style="mix-blend-mode:overlay" opacity="0.24">
<path d="M392.27 282.041L264.296 409.928" stroke="white" stroke-width="1.59" stroke-miterlimit="10"/>
</g>
<g style="mix-blend-mode:overlay" opacity="0.24">
<path d="M398.97 282.041L270.996 409.928" stroke="white" stroke-width="1.59" stroke-miterlimit="10"/>
</g>
<g style="mix-blend-mode:overlay" opacity="0.24">
<path d="M405.659 282.041L277.686 409.928" stroke="white" stroke-width="1.59" stroke-miterlimit="10"/>
</g>
<g style="mix-blend-mode:overlay" opacity="0.24">
<path d="M412.36 282.041L284.386 409.928" stroke="white" stroke-width="1.59" stroke-miterlimit="10"/>
</g>
<g style="mix-blend-mode:overlay" opacity="0.24">
<path d="M419.06 282.041L291.075 409.928" stroke="white" stroke-width="1.59" stroke-miterlimit="10"/>
</g>
<g style="mix-blend-mode:overlay" opacity="0.24">
<path d="M425.75 282.041L297.776 409.928" stroke="white" stroke-width="1.59" stroke-miterlimit="10"/>
</g>
<g style="mix-blend-mode:overlay" opacity="0.24">
<path d="M432.45 282.041L304.465 409.928" stroke="white" stroke-width="1.59" stroke-miterlimit="10"/>
</g>
<g style="mix-blend-mode:overlay" opacity="0.24">
<path d="M439.139 282.041L311.165 409.928" stroke="white" stroke-width="1.59" stroke-miterlimit="10"/>
</g>
<g style="mix-blend-mode:overlay" opacity="0.24">
<path d="M445.839 282.041L317.865 409.928" stroke="white" stroke-width="1.59" stroke-miterlimit="10"/>
</g>
<g style="mix-blend-mode:overlay" opacity="0.24">
<path d="M452.528 282.041L324.554 409.928" stroke="white" stroke-width="1.59" stroke-miterlimit="10"/>
</g>
<g style="mix-blend-mode:overlay" opacity="0.24">
<path d="M459.229 282.041L331.255 409.928" stroke="white" stroke-width="1.59" stroke-miterlimit="10"/>
</g>
<g style="mix-blend-mode:overlay" opacity="0.24">
<path d="M465.918 282.041L337.944 409.928" stroke="white" stroke-width="1.59" stroke-miterlimit="10"/>
</g>
<g style="mix-blend-mode:overlay" opacity="0.24">
<path d="M472.618 282.041L344.644 409.928" stroke="white" stroke-width="1.59" stroke-miterlimit="10"/>
</g>
<g style="mix-blend-mode:overlay" opacity="0.24">
<path d="M479.307 282.041L351.333 409.928" stroke="white" stroke-width="1.59" stroke-miterlimit="10"/>
</g>
<g style="mix-blend-mode:overlay" opacity="0.24">
<path d="M486.008 282.041L358.034 409.928" stroke="white" stroke-width="1.59" stroke-miterlimit="10"/>
</g>
<g style="mix-blend-mode:overlay" opacity="0.24">
<path d="M492.708 282.041L364.723 409.928" stroke="white" stroke-width="1.59" stroke-miterlimit="10"/>
</g>
<g style="mix-blend-mode:overlay" opacity="0.24">
<path d="M499.397 282.041L371.423 409.928" stroke="white" stroke-width="1.59" stroke-miterlimit="10"/>
</g>
<g style="mix-blend-mode:overlay" opacity="0.24">
<path d="M506.097 282.041L378.112 409.928" stroke="white" stroke-width="1.59" stroke-miterlimit="10"/>
</g>
<g style="mix-blend-mode:overlay" opacity="0.24">
<path d="M512.786 282.041L384.812 409.928" stroke="white" stroke-width="1.59" stroke-miterlimit="10"/>
</g>
<g style="mix-blend-mode:overlay" opacity="0.24">
<path d="M519.487 282.041L391.513 409.928" stroke="white" stroke-width="1.59" stroke-miterlimit="10"/>
</g>
<g style="mix-blend-mode:overlay" opacity="0.24">
<path d="M526.176 282.041L398.202 409.928" stroke="white" stroke-width="1.59" stroke-miterlimit="10"/>
</g>
<g style="mix-blend-mode:overlay" opacity="0.24">
<path d="M532.876 282.041L404.902 409.928" stroke="white" stroke-width="1.59" stroke-miterlimit="10"/>
</g>
<g style="mix-blend-mode:overlay" opacity="0.24">
<path d="M539.565 282.041L411.592 409.928" stroke="white" stroke-width="1.59" stroke-miterlimit="10"/>
</g>
<g style="mix-blend-mode:overlay" opacity="0.24">
<path d="M546.266 282.041L418.292 409.928" stroke="white" stroke-width="1.59" stroke-miterlimit="10"/>
</g>
</g>
</g>
</g>
<path opacity="0.3" d="M196.241 70.9353C195.36 68.9593 193.394 67.5817 191.089 67.5817C189.936 67.5817 188.874 67.9317 187.981 68.5189C187.078 66.6106 185.145 65.2895 182.897 65.2895C181.281 65.2895 179.846 65.967 178.807 67.051C177.078 65.0637 174.536 63.8104 171.699 63.8104C168.716 63.8104 166.072 65.1992 164.344 67.3559C163.304 66.1138 161.768 65.3008 160.016 65.3008C159.948 65.3008 159.892 65.3121 159.835 65.3234C157.745 61.0552 153.372 58.1082 148.299 58.1082C143.226 58.1082 138.537 61.2585 136.548 65.7638C135.859 65.4702 135.113 65.3008 134.322 65.3008C131.621 65.3008 129.373 67.1978 128.808 69.7271C127.893 69.0835 126.774 68.6883 125.565 68.6883C123.723 68.6883 122.108 69.5803 121.068 70.9466H196.252L196.241 70.9353Z" fill="#43A1F6"/>
<path opacity="0.3" d="M347.243 93.3713C347.977 91.7114 349.638 90.5597 351.57 90.5597C352.531 90.5597 353.435 90.8533 354.181 91.3501C354.949 89.7467 356.565 88.6401 358.452 88.6401C359.808 88.6401 361.017 89.216 361.887 90.1193C363.333 88.4482 365.468 87.3981 367.852 87.3981C370.35 87.3981 372.587 88.5611 374.033 90.3677C374.903 89.3176 376.203 88.6401 377.671 88.6401C377.728 88.6401 377.773 88.6514 377.83 88.6514C379.581 85.0607 383.265 82.5879 387.524 82.5879C391.784 82.5879 395.716 85.2301 397.4 89.024C397.976 88.7756 398.609 88.6401 399.275 88.6401C401.546 88.6401 403.433 90.2322 403.908 92.355C404.676 91.813 405.614 91.4856 406.631 91.4856C408.179 91.4856 409.535 92.2421 410.405 93.3826H347.254L347.243 93.3713Z" fill="#43A1F6"/>
<path d="M353.638 257.008C343.808 255.28 333.176 226.656 351.48 217.058C369.785 207.472 375.954 202.391 379.773 180.045C383.592 157.699 396.609 168.313 393.683 181.388C390.756 194.464 410.292 192.838 414.36 199.071C421.422 209.877 405.795 211.605 396.858 217.758C387.909 223.912 403.874 228.113 397.524 238.523C391.174 248.934 370.395 259.955 353.638 257.008Z" fill="#0373D8"/>
<path d="M352.633 256.737L356.113 250.605L359.672 244.53C362.045 240.477 364.531 236.491 367.051 232.528C369.593 228.576 372.158 224.646 374.881 220.807C376.237 218.888 377.615 216.979 379.005 215.094C380.44 213.23 381.864 211.367 383.389 209.572C382.756 210.566 382.112 211.537 381.446 212.508L379.536 215.466C378.259 217.431 376.971 219.396 375.728 221.383L368.169 233.25C365.627 237.191 363.119 241.154 360.531 245.072C357.944 248.991 355.424 252.954 352.633 256.737Z" fill="white"/>
<path d="M362.78 240.511C366.655 239.077 370.621 238.038 374.61 237.089C378.61 236.186 382.621 235.373 386.734 234.955C382.858 236.401 378.892 237.439 374.903 238.377C370.904 239.28 366.892 240.093 362.78 240.511Z" fill="white"/>
<path d="M372.508 225.29C372.068 222.885 372.034 220.491 372.09 218.097C372.192 215.703 372.395 213.321 373.005 210.95C373.446 213.355 373.491 215.749 373.423 218.142C373.322 220.536 373.118 222.919 372.508 225.29Z" fill="white"/>
<path d="M356.712 271.359C356.712 271.359 351.198 260.598 360.61 253.71C370.022 246.811 374.191 237.959 368.813 229.806C363.446 221.665 349.65 226.735 343.831 222.851C338 218.955 340.509 210.622 335.729 201.612C329.323 189.53 316.927 192.725 314.024 194.588C311.12 196.451 305.979 202.154 312.713 213.106C319.447 224.059 314.487 227.898 309.131 236.502C303.775 245.106 313.165 248.449 328.396 251.351C343.627 254.252 346.26 272.951 346.26 272.951L356.712 271.359Z" fill="#0055A3"/>
<path d="M352.836 282.165C352.746 278.597 352.396 275.063 351.899 271.551C351.379 268.039 350.791 264.55 349.955 261.106C349.153 257.663 348.226 254.241 347.164 250.876L345.492 245.84L343.56 240.906C342.972 239.235 342.181 237.654 341.458 236.039C340.712 234.436 340.046 232.799 339.187 231.252L336.735 226.543C336.351 225.742 335.854 225.019 335.402 224.251L334.046 221.97C330.487 215.839 326.17 210.193 321.82 204.536C323.029 205.835 324.238 207.156 325.425 208.488C326.6 209.832 327.877 211.096 328.927 212.542C331.074 215.399 333.334 218.188 335.21 221.236C339.255 227.153 342.43 233.634 345.209 240.24C347.955 246.868 349.944 253.801 351.277 260.835C351.955 264.358 352.407 267.904 352.746 271.472C352.949 275.04 353.119 278.62 352.814 282.176L352.836 282.165Z" fill="white"/>
<path d="M346.396 247.184C344.418 245.321 342.204 243.842 339.899 242.566C337.582 241.313 335.153 240.296 332.645 239.517C331.379 239.178 330.114 238.783 328.814 238.569C328.17 238.444 327.526 238.264 326.871 238.185C326.215 238.106 325.56 238.004 324.905 237.902C324.249 237.778 323.583 237.744 322.927 237.688L320.927 237.507C319.594 237.417 318.25 237.417 316.882 237.293C318.216 237.022 319.56 236.796 320.916 236.627C322.272 236.581 323.651 236.412 325.018 236.514C327.775 236.559 330.509 237.067 333.176 237.812C335.808 238.659 338.362 239.811 340.644 241.38C342.916 242.939 345.006 244.847 346.418 247.195L346.396 247.184Z" fill="white"/>
<path d="M348.723 253.88C347.864 251.576 347.582 249.058 347.729 246.563C347.876 244.056 348.588 241.561 349.831 239.325L350.305 238.489C350.475 238.218 350.689 237.97 350.87 237.722C351.277 237.225 351.605 236.672 352.068 236.231L353.458 234.921C353.921 234.481 354.486 234.176 354.994 233.815C356 233.036 357.209 232.629 358.316 232.099C359.48 231.669 360.7 231.398 361.875 231.127C360.813 231.782 359.706 232.257 358.7 232.889C357.717 233.578 356.667 234.131 355.819 234.944C353.977 236.378 352.497 238.196 351.39 240.194C350.249 242.182 349.525 244.418 349.107 246.721C348.712 249.036 348.576 251.43 348.712 253.868L348.723 253.88Z" fill="white"/>
<path d="M389.705 265.804C407.162 270.219 407.58 255.02 396.891 246.54C390.202 241.245 403.851 238.41 409.139 233.261C418.224 224.409 403.659 213.287 396.1 221.044C388.552 228.79 383.863 231.173 378.361 231.85C372.858 232.528 357.333 232.697 358.666 242.566C359.502 248.72 354.181 253.97 354.904 260.135C371.039 254.681 380.609 263.5 389.705 265.792V265.804Z" fill="#43A1F6"/>
<path d="M354.904 260.135C361.254 254.614 368.101 249.724 375.152 245.151C378.699 242.904 382.304 240.736 386.01 238.726C389.716 236.728 393.513 234.91 397.433 233.363C393.806 235.497 390.247 237.688 386.677 239.856C383.129 242.08 379.592 244.293 376.078 246.551L365.525 253.349C362.022 255.63 358.474 257.877 354.915 260.113L354.904 260.135Z" fill="white"/>
<path d="M372.835 247.669C372.677 246.495 372.677 245.343 372.733 244.203C372.779 243.062 372.914 241.933 373.095 240.815C373.276 239.698 373.513 238.58 373.829 237.484C374.134 236.389 374.496 235.294 375.027 234.232C375.197 235.407 375.185 236.558 375.129 237.699C375.084 238.839 374.948 239.969 374.767 241.086C374.586 242.204 374.349 243.322 374.033 244.417C373.728 245.513 373.366 246.608 372.835 247.669Z" fill="white"/>
<path d="M368.056 250.853C370.123 250.515 372.191 250.334 374.248 250.221C376.315 250.097 378.383 250.063 380.439 250.052C382.507 250.074 384.575 250.119 386.631 250.255C388.699 250.379 390.756 250.571 392.823 250.932C390.756 251.283 388.688 251.452 386.631 251.576C384.564 251.7 382.496 251.734 380.439 251.745C378.372 251.723 376.304 251.678 374.248 251.542C372.18 251.407 370.123 251.226 368.056 250.865V250.853Z" fill="white"/>
<path d="M373.491 288.533H347.944L342 263.026H379.434L373.491 288.533Z" fill="#003261"/>
<path d="M383.434 256.533H338.012V266.797H383.434V256.533Z" fill="#0B5BA5"/>
<g opacity="0.74">
<path opacity="0.74" d="M123.283 259.695C125.102 255.19 129.475 253.835 131.611 249.77C135.441 242.498 129.001 240.624 128.232 235.791C127.215 229.355 131.735 229.931 134.063 226.012C136.808 221.405 132.164 215.952 135.012 211.582C142.096 200.708 153.621 212.655 161.124 215.173C165.723 216.708 172.604 217.363 176.231 214.439C181.01 210.577 185.779 201.634 180.717 196.474C173.587 189.202 176.197 185.465 183.914 183.624C187.327 182.811 188.897 180.203 185.101 177.233C190.863 185.555 171.655 177.978 168.231 183.624C165.858 187.542 168.785 189.857 169.61 192.872C171.723 200.584 166.423 207.212 155.361 199.5C149 195.062 149.542 187.158 142.797 185.137C136.492 183.252 129.17 188.897 126.854 196.463C124.56 203.949 121.837 207.788 113.758 206.941C104.165 205.925 96.7642 211.875 101.047 220.457C104.854 228.067 115.396 223.743 120.741 228.101C126.673 232.945 124.831 239.607 117.148 245.863C114.764 247.805 111.103 250.707 112.041 254.015C112.651 256.161 116.481 259.571 118.956 259.661L123.272 259.706L123.283 259.695Z" fill="white"/>
</g>
<path d="M137.486 262.698H135.43V259.932C135.43 258.746 134.469 257.798 133.294 257.798H109.001C107.815 257.798 106.866 258.758 106.866 259.932V276.903C106.866 283.328 112.075 288.545 118.515 288.545H123.792C128.899 288.545 133.227 285.247 134.797 280.674H137.486C139.543 280.674 141.204 279.015 141.204 276.96V266.425C141.204 264.37 139.543 262.71 137.486 262.71V262.698ZM138.831 276.96C138.831 277.693 138.232 278.303 137.486 278.303H135.34C135.396 277.84 135.43 277.377 135.43 276.903V265.081H137.486C138.221 265.081 138.831 265.679 138.831 266.425V276.96Z" fill="#BDBCBA"/>
<path d="M132.311 263.816C132.311 261.705 131.871 259.684 131.08 257.787H109.001C107.815 257.787 106.866 258.746 106.866 259.921V276.892C106.866 278.947 107.408 280.878 108.335 282.549C108.674 282.56 109.001 282.594 109.34 282.594C122.029 282.594 132.311 274.182 132.311 263.805V263.816Z" fill="#CACACA"/>
<path d="M392.372 314.109H84.7532C81.4652 314.109 78.7986 311.444 78.7986 308.158C78.7986 304.872 81.4652 302.208 84.7532 302.208H392.372C395.66 302.208 398.326 304.872 398.326 308.158C398.326 311.444 395.66 314.109 392.372 314.109Z" fill="#0B5BA5"/>
<path d="M399.908 305.335H77.2166C72.5727 305.335 68.8101 301.575 68.8101 296.934C68.8101 292.294 72.5727 288.533 77.2166 288.533H399.908C404.552 288.533 408.315 292.294 408.315 296.934C408.315 301.575 404.552 305.335 399.908 305.335Z" fill="#003261"/>
<path d="M347.695 150.427C359.751 150.427 369.525 140.66 369.525 128.612C369.525 116.564 359.751 106.797 347.695 106.797C335.638 106.797 325.865 116.564 325.865 128.612C325.865 140.66 335.638 150.427 347.695 150.427Z" fill="#123978"/>
<path d="M347.695 145.617C357.093 145.617 364.711 138.003 364.711 128.612C364.711 119.22 357.093 111.607 347.695 111.607C338.297 111.607 330.678 119.22 330.678 128.612C330.678 138.003 338.297 145.617 347.695 145.617Z" fill="white"/>
<path d="M347.695 128.612V118.393" stroke="#4B4583" stroke-width="0.98" stroke-linecap="round" stroke-linejoin="round"/>
<path d="M347.695 128.612L353.943 134.868" stroke="#4B4583" stroke-width="0.98" stroke-linecap="round" stroke-linejoin="round"/>
<path d="M347.684 143.697V141.688" stroke="#4B4583" stroke-width="0.68" stroke-linecap="round" stroke-linejoin="round"/>
<path d="M355.231 141.688L354.226 139.926" stroke="#4B4583" stroke-width="0.68" stroke-linecap="round" stroke-linejoin="round"/>
<path d="M360.757 136.166L359.005 135.15" stroke="#4B4583" stroke-width="0.68" stroke-linecap="round" stroke-linejoin="round"/>
<path d="M362.791 128.623H360.757" stroke="#4B4583" stroke-width="0.68" stroke-linecap="round" stroke-linejoin="round"/>
<path d="M360.757 121.081L359.017 122.086" stroke="#4B4583" stroke-width="0.68" stroke-linecap="round" stroke-linejoin="round"/>
<path d="M355.231 115.559L354.226 117.298" stroke="#4B4583" stroke-width="0.68" stroke-linecap="round" stroke-linejoin="round"/>
<path d="M347.684 115.559V113.527" stroke="#4B4583" stroke-width="0.68" stroke-linecap="round" stroke-linejoin="round"/>
<path d="M341.153 117.309L340.147 115.559" stroke="#4B4583" stroke-width="0.68" stroke-linecap="round" stroke-linejoin="round"/>
<path d="M336.362 122.086L334.622 121.081" stroke="#4B4583" stroke-width="0.68" stroke-linecap="round" stroke-linejoin="round"/>
<path d="M334.622 128.623H332.599" stroke="#4B4583" stroke-width="0.68" stroke-linecap="round" stroke-linejoin="round"/>
<path d="M336.373 135.15L334.622 136.166" stroke="#4B4583" stroke-width="0.68" stroke-linecap="round" stroke-linejoin="round"/>
<path d="M341.153 139.926L340.147 141.688" stroke="#4B4583" stroke-width="0.68" stroke-linecap="round" stroke-linejoin="round"/>
<path d="M347.695 129.594C348.238 129.594 348.678 129.155 348.678 128.612C348.678 128.069 348.238 127.63 347.695 127.63C347.152 127.63 346.712 128.069 346.712 128.612C346.712 129.155 347.152 129.594 347.695 129.594Z" fill="#123978"/>
<path d="M189.541 105.148C180.253 95.8667 165.135 95.9683 155.983 105.453C147.576 114.159 147.203 128.104 155.181 137.216C162.921 146.057 175.553 147.616 185.022 141.913C185.858 141.405 186.875 141.292 187.812 141.575L193.756 143.347C194.208 143.483 194.626 143.065 194.502 142.602L192.728 136.663C192.445 135.726 192.569 134.709 193.067 133.863C198.501 124.829 197.326 112.939 189.53 105.148H189.541Z" fill="#BDBCBA"/>
<path d="M159.599 111.483H186.253" stroke="white" stroke-width="1.67" stroke-linecap="round" stroke-linejoin="round"/>
<path d="M179.858 118.337H186.253" stroke="white" stroke-width="1.67" stroke-linecap="round" stroke-linejoin="round"/>
<path d="M159.599 118.337H173.508" stroke="white" stroke-width="1.67" stroke-linecap="round" stroke-linejoin="round"/>
<path d="M171.779 125.191H186.253" stroke="white" stroke-width="1.67" stroke-linecap="round" stroke-linejoin="round"/>
<path d="M159.599 125.191H166.548" stroke="white" stroke-width="1.67" stroke-linecap="round" stroke-linejoin="round"/>
<path d="M179.858 132.045H186.253" stroke="white" stroke-width="1.67" stroke-linecap="round" stroke-linejoin="round"/>
<path d="M159.599 132.045H173.192" stroke="white" stroke-width="1.67" stroke-linecap="round" stroke-linejoin="round"/>
<path d="M238.738 116.304C238.738 116.304 236.365 105.814 246.466 96.8039C256.568 87.7933 272.183 88.6176 280.748 93.3148C291.843 99.4009 302.736 115.514 292.781 138.537C282.827 161.561 328.453 152.053 313.142 183.24C297.832 214.427 271.381 192.894 261.867 205.812C252.353 218.729 219.427 184.855 247.562 161.177C275.686 137.498 240.862 137.6 238.738 116.304Z" fill="#914E00"/>
<path d="M236.161 185.013C224.614 189.936 215.054 219.17 214.162 281.544H239.043C239.043 281.544 254.161 177.346 236.161 185.013Z" fill="#162F50"/>
<path d="M267.03 175.72C280.68 174.376 302.916 176.635 310.916 185.465C312.679 187.407 312.69 191.054 311.741 196.101C308.396 213.919 293.143 249.194 301.255 288.545H230.218C230.218 288.545 236.952 257.798 233.189 248.087C228.884 236.999 225.156 226.972 229.393 217.702C239.042 196.598 230.399 187.87 236.511 184.821C244.929 180.621 255.483 176.861 267.019 175.731L267.03 175.72Z" fill="#1C3658"/>
<path d="M296.352 227.932C293.38 245.163 273.415 247.286 263.404 243.921C263.404 243.921 277.968 252.728 288.465 247.782C288.465 247.782 291.143 256.195 287.143 282.662H300.205C300.205 282.662 300.205 282.605 300.205 282.526C298.137 268.683 298.781 255.438 300.589 243.413C300.928 240.364 301.38 237.597 301.979 235.362L302.001 235.294C303.662 226.859 305.73 219.147 307.583 212.406C308.374 207.844 308.679 203.847 308.679 198.834C308.679 198.834 299.312 210.712 296.341 227.943L296.352 227.932Z" fill="#162F50"/>
<path d="M297.097 264.912C297.097 264.912 284.691 280.144 278.691 276.022C270.748 270.557 264.206 270.659 258.951 273.798C253.505 277.05 251.426 282.673 251.426 282.673H294.013L306.408 271.957L297.097 264.923V264.912Z" fill="#F4AE98"/>
<path d="M311.38 186.086C311.38 186.086 322.329 214.664 331.718 238.038C339.3 256.895 293.595 282.605 293.595 282.605L286.047 272.499L312.374 243.345L296.273 209.425C296.273 209.425 286.94 190.918 301.109 184.358C308.996 180.711 311.38 186.097 311.38 186.097V186.086Z" fill="#1C3658"/>
<path d="M276.375 147.887C276.375 147.887 274.657 169.555 279.855 175.212C286.544 182.484 274.804 198.179 257.166 210.069C257.166 210.069 247.314 199.128 255.031 181.31C262.76 163.492 255.268 153.42 255.268 153.42L276.375 147.887Z" fill="#F4AE98"/>
<path d="M279.855 138.526C279.855 153.374 269.392 165.4 260.545 165.4C251.698 165.4 240.659 155.531 239.167 137.261C237.958 122.47 245.947 111.652 258.003 111.652C270.059 111.652 279.844 123.689 279.844 138.537L279.855 138.526Z" fill="#FFB99F"/>
<path d="M243.009 108.174C241.766 108.886 239.077 110.636 235.936 112.725C232.523 114.994 228.874 118.935 227.631 123.237C225.484 130.633 230.93 140.005 241.755 136.697C252.59 133.388 257.765 116.022 266.556 126.06C277.482 138.537 281.437 131.582 281.437 131.582C281.437 131.582 279.245 116.045 268.183 109.055C262.251 105.306 253.314 102.235 243.009 108.174Z" fill="#914E00"/>
<path d="M287.143 133.185C287.143 138.029 284.273 141.959 280.748 141.959C277.223 141.959 274.353 138.029 274.353 133.185C274.353 128.341 277.223 124.412 280.748 124.412C284.273 124.412 287.143 128.341 287.143 133.185Z" fill="#151F2C"/>
<path d="M260.613 103.951C250.771 102.054 241.28 105.769 235.935 112.714C241.833 108.682 249.562 106.932 257.483 108.457C270.556 110.975 279.821 121.589 280.126 133.366C280.363 132.598 280.567 131.819 280.725 131.006C283.109 118.653 274.104 106.537 260.624 103.94L260.613 103.951Z" fill="#151F2C"/>
<path d="M279.358 136.042C279.358 136.042 281.143 155.858 262.906 157.744" stroke="#151F2C" stroke-width="1.05" stroke-miterlimit="10"/>
<path d="M261.72 159.72H258.85C257.924 159.72 257.167 158.964 257.167 158.038C257.167 157.112 257.924 156.355 258.85 156.355H261.72C262.647 156.355 263.404 157.112 263.404 158.038C263.404 158.964 262.647 159.72 261.72 159.72Z" fill="#151F2C"/>
<path d="M304.306 282.594H200.852C199.404 282.594 198.23 283.767 198.23 285.214V285.914C198.23 287.36 199.404 288.533 200.852 288.533H304.306C305.754 288.533 306.928 287.36 306.928 285.914V285.214C306.928 283.767 305.754 282.594 304.306 282.594Z" fill="#004788"/>
<path d="M256.477 288.533H160.921C158.322 288.533 156.006 286.907 155.113 284.468L132.831 223.291C131.362 219.26 134.345 215.003 138.639 215.003H234.196C236.794 215.003 239.111 216.629 240.003 219.068L262.285 280.245C263.754 284.276 260.771 288.533 256.477 288.533Z" fill="#0055A2"/>
<path d="M136.436 215.421C136.797 251.576 185.248 280.821 244.986 280.821C250.839 280.821 256.59 280.539 262.195 279.997L240.003 219.079C239.111 216.64 236.794 215.014 234.196 215.014H138.639C137.848 215.014 137.113 215.161 136.436 215.421Z" fill="#0B5BA5"/>
<path d="M203.371 250.56C203.371 254.557 200.128 257.787 196.14 257.787C192.151 257.787 188.908 254.546 188.908 250.56C188.908 246.574 192.151 243.333 196.14 243.333C200.128 243.333 203.371 246.574 203.371 250.56Z" fill="#1468B6"/>
<path d="M307.018 58.8758C313.753 52.1461 324.724 52.2139 331.368 59.1017C337.469 65.4136 337.729 75.5308 331.944 82.1363C326.328 88.5499 317.165 89.679 310.295 85.5463C309.685 85.185 308.95 85.0947 308.272 85.2979L303.956 86.5852C303.628 86.6868 303.323 86.3819 303.414 86.0432L304.702 81.7298C304.905 81.0523 304.815 80.3071 304.453 79.6973C300.51 73.1483 301.357 64.5216 307.018 58.8646V58.8758Z" fill="#BDBCBA"/>
<path d="M309.606 73.6904C311.128 73.6904 312.363 72.4569 312.363 70.9353C312.363 69.4137 311.128 68.1802 309.606 68.1802C308.083 68.1802 306.849 69.4137 306.849 70.9353C306.849 72.4569 308.083 73.6904 309.606 73.6904Z" fill="white"/>
<path d="M319.063 73.6904C320.586 73.6904 321.82 72.4569 321.82 70.9353C321.82 69.4137 320.586 68.1802 319.063 68.1802C317.541 68.1802 316.306 69.4137 316.306 70.9353C316.306 72.4569 317.541 73.6904 319.063 73.6904Z" fill="white"/>
<path d="M328.532 73.6904C330.054 73.6904 331.289 72.4569 331.289 70.9353C331.289 69.4137 330.054 68.1802 328.532 68.1802C327.009 68.1802 325.775 69.4137 325.775 70.9353C325.775 72.4569 327.009 73.6904 328.532 73.6904Z" fill="white"/>
<g opacity="0.07">
<g opacity="0.07">
<path opacity="0.07" d="M379.23 58.3679L381.66 60.8069" stroke="#4B4583" stroke-linecap="round" stroke-linejoin="round"/>
<path opacity="0.07" d="M381.66 58.3679L379.23 60.8069" stroke="#4B4583" stroke-linecap="round" stroke-linejoin="round"/>
</g>
<g opacity="0.07">
<path opacity="0.07" d="M75.3975 188.186L80.2787 193.053" stroke="#4B4583" stroke-width="2" stroke-linecap="round" stroke-linejoin="round"/>
<path opacity="0.07" d="M80.2787 188.186L75.3975 193.053" stroke="#4B4583" stroke-width="2" stroke-linecap="round" stroke-linejoin="round"/>
</g>
<g opacity="0.07">
<path opacity="0.07" d="M209.778 159.72L213.19 163.13" stroke="#4B4583" stroke-width="1.4" stroke-linecap="round" stroke-linejoin="round"/>
<path opacity="0.07" d="M213.19 159.72L209.778 163.13" stroke="#4B4583" stroke-width="1.4" stroke-linecap="round" stroke-linejoin="round"/>
</g>
<g opacity="0.07">
<path opacity="0.07" d="M402.134 278.97L405.546 282.368" stroke="#4B4583" stroke-width="1.4" stroke-linecap="round" stroke-linejoin="round"/>
<path opacity="0.07" d="M405.546 278.97L402.134 282.368" stroke="#4B4583" stroke-width="1.4" stroke-linecap="round" stroke-linejoin="round"/>
</g>
<path opacity="0.07" d="M269.008 70.9354C269.008 72.0871 268.07 73.0243 266.918 73.0243C265.765 73.0243 264.827 72.0871 264.827 70.9354C264.827 69.7836 265.765 68.8464 266.918 68.8464C268.07 68.8464 269.008 69.7836 269.008 70.9354Z" stroke="#4B4583" stroke-width="1.4" stroke-linecap="round" stroke-linejoin="round"/>
<path opacity="0.07" d="M152.649 156.356C152.649 157.507 151.712 158.444 150.559 158.444C149.407 158.444 148.469 157.507 148.469 156.356C148.469 155.204 149.407 154.267 150.559 154.267C151.712 154.267 152.649 155.204 152.649 156.356Z" stroke="#4B4583" stroke-width="1.4" stroke-linecap="round" stroke-linejoin="round"/>
<path opacity="0.07" d="M405.931 129.967C405.931 131.119 404.993 132.056 403.84 132.056C402.688 132.056 401.75 131.119 401.75 129.967C401.75 128.816 402.688 127.878 403.84 127.878C404.993 127.878 405.931 128.816 405.931 129.967Z" stroke="#4B4583" stroke-width="1.4" stroke-linecap="round" stroke-linejoin="round"/>
<path opacity="0.07" d="M86.3687 247.184C86.3687 249.917 84.1541 252.13 81.4197 252.13C78.6853 252.13 76.4707 249.917 76.4707 247.184C76.4707 244.452 78.6853 242.239 81.4197 242.239C84.1541 242.239 86.3687 244.452 86.3687 247.184Z" stroke="#4B4583" stroke-width="1.4" stroke-linecap="round" stroke-linejoin="round"/>
<path opacity="0.07" d="M358.892 184.742C358.892 187.475 356.678 189.688 353.943 189.688C351.209 189.688 348.994 187.475 348.994 184.742C348.994 182.01 351.209 179.797 353.943 179.797C356.678 179.797 358.892 182.01 358.892 184.742Z" stroke="#4B4583" stroke-width="1.4" stroke-linecap="round" stroke-linejoin="round"/>
</g>
</svg>
