<svg width="305" height="240" viewBox="0 0 305 240" fill="none" xmlns="http://www.w3.org/2000/svg">
<g opacity="0.39">
<path opacity="0.64" d="M232.489 63.4375C220.722 58.9731 200.601 37.7494 179.802 63.5562C161.315 86.495 139.929 79.3341 129.302 72.7599C111.547 61.7836 87.1573 53.9549 76.2026 77.5798C65.248 101.205 75.6052 123.322 34.9542 130.02C-5.69674 136.717 -3.99458 187.564 34.1919 197.855C72.3784 208.147 85.7328 185.651 120.029 195.472C154.788 205.428 194.577 201.83 256.238 195.911C317.899 189.992 302.846 77.4791 232.484 63.4369C162.121 49.3946 232.489 63.4375 232.489 63.4375Z" fill="#C8C7C9"/>
<path opacity="0.31" d="M280.168 79.672C266.867 85.0872 221.825 85.4824 207.614 59.4534C192.668 32.0733 168.339 12.3805 144.471 45.7234C120.604 79.0662 123.073 93.296 74.1474 76.723C25.1277 60.1166 0.5933 105.328 29.7789 133.248C59.7448 161.92 63.1879 191.605 118.988 208.889C153.251 219.499 224.194 214.733 248.874 188.741C271.445 164.967 324.746 51.9945 280.169 79.6655C235.592 107.336 280.168 79.672 280.168 79.672Z" fill="#9C9C9C"/>
</g>
<g style="mix-blend-mode:overlay" opacity="0.24">
<g style="mix-blend-mode:overlay" opacity="0.24">
<g style="mix-blend-mode:overlay" opacity="0.24">
<g style="mix-blend-mode:overlay" opacity="0.24">
<path d="M163.442 72.8146L95.2042 140.87" stroke="white" stroke-width="1.59" stroke-miterlimit="10"/>
</g>
<g style="mix-blend-mode:overlay" opacity="0.24">
<path d="M167.015 72.8146L98.7769 140.87" stroke="white" stroke-width="1.59" stroke-miterlimit="10"/>
</g>
<g style="mix-blend-mode:overlay" opacity="0.24">
<path d="M170.581 72.8146L102.344 140.87" stroke="white" stroke-width="1.59" stroke-miterlimit="10"/>
</g>
<g style="mix-blend-mode:overlay" opacity="0.24">
<path d="M174.154 72.8146L105.916 140.87" stroke="white" stroke-width="1.59" stroke-miterlimit="10"/>
</g>
<g style="mix-blend-mode:overlay" opacity="0.24">
<path d="M177.727 72.8146L109.483 140.87" stroke="white" stroke-width="1.59" stroke-miterlimit="10"/>
</g>
<g style="mix-blend-mode:overlay" opacity="0.24">
<path d="M181.294 72.8146L113.056 140.87" stroke="white" stroke-width="1.59" stroke-miterlimit="10"/>
</g>
<g style="mix-blend-mode:overlay" opacity="0.24">
<path d="M184.867 72.8146L116.623 140.87" stroke="white" stroke-width="1.59" stroke-miterlimit="10"/>
</g>
<g style="mix-blend-mode:overlay" opacity="0.24">
<path d="M188.433 72.8146L120.195 140.87" stroke="white" stroke-width="1.59" stroke-miterlimit="10"/>
</g>
<g style="mix-blend-mode:overlay" opacity="0.24">
<path d="M192.006 72.8146L123.762 140.87" stroke="white" stroke-width="1.59" stroke-miterlimit="10"/>
</g>
<g style="mix-blend-mode:overlay" opacity="0.24">
<path d="M195.573 72.8146L127.335 140.87" stroke="white" stroke-width="1.59" stroke-miterlimit="10"/>
</g>
<g style="mix-blend-mode:overlay" opacity="0.24">
<path d="M199.145 72.8146L130.908 140.87" stroke="white" stroke-width="1.59" stroke-miterlimit="10"/>
</g>
<g style="mix-blend-mode:overlay" opacity="0.24">
<path d="M202.712 72.8146L134.474 140.87" stroke="white" stroke-width="1.59" stroke-miterlimit="10"/>
</g>
<g style="mix-blend-mode:overlay" opacity="0.24">
<path d="M206.285 72.8146L138.047 140.87" stroke="white" stroke-width="1.59" stroke-miterlimit="10"/>
</g>
<g style="mix-blend-mode:overlay" opacity="0.24">
<path d="M209.852 72.8146L141.614 140.87" stroke="white" stroke-width="1.59" stroke-miterlimit="10"/>
</g>
<g style="mix-blend-mode:overlay" opacity="0.24">
<path d="M213.424 72.8146L145.187 140.87" stroke="white" stroke-width="1.59" stroke-miterlimit="10"/>
</g>
<g style="mix-blend-mode:overlay" opacity="0.24">
<path d="M216.991 72.8146L148.753 140.87" stroke="white" stroke-width="1.59" stroke-miterlimit="10"/>
</g>
<g style="mix-blend-mode:overlay" opacity="0.24">
<path d="M220.564 72.8146L152.326 140.87" stroke="white" stroke-width="1.59" stroke-miterlimit="10"/>
</g>
<g style="mix-blend-mode:overlay" opacity="0.24">
<path d="M224.137 72.8146L155.893 140.87" stroke="white" stroke-width="1.59" stroke-miterlimit="10"/>
</g>
<g style="mix-blend-mode:overlay" opacity="0.24">
<path d="M227.703 72.8146L159.466 140.87" stroke="white" stroke-width="1.59" stroke-miterlimit="10"/>
</g>
<g style="mix-blend-mode:overlay" opacity="0.24">
<path d="M231.276 72.8146L163.032 140.87" stroke="white" stroke-width="1.59" stroke-miterlimit="10"/>
</g>
<g style="mix-blend-mode:overlay" opacity="0.24">
<path d="M234.843 72.8146L166.605 140.87" stroke="white" stroke-width="1.59" stroke-miterlimit="10"/>
</g>
<g style="mix-blend-mode:overlay" opacity="0.24">
<path d="M238.416 72.8146L170.178 140.87" stroke="white" stroke-width="1.59" stroke-miterlimit="10"/>
</g>
<g style="mix-blend-mode:overlay" opacity="0.24">
<path d="M241.982 72.8146L173.745 140.87" stroke="white" stroke-width="1.59" stroke-miterlimit="10"/>
</g>
<g style="mix-blend-mode:overlay" opacity="0.24">
<path d="M245.555 72.8146L177.317 140.87" stroke="white" stroke-width="1.59" stroke-miterlimit="10"/>
</g>
<g style="mix-blend-mode:overlay" opacity="0.24">
<path d="M249.122 72.8146L180.884 140.87" stroke="white" stroke-width="1.59" stroke-miterlimit="10"/>
</g>
<g style="mix-blend-mode:overlay" opacity="0.24">
<path d="M252.694 72.8146L184.457 140.87" stroke="white" stroke-width="1.59" stroke-miterlimit="10"/>
</g>
<g style="mix-blend-mode:overlay" opacity="0.24">
<path d="M256.261 72.8146L188.024 140.87" stroke="white" stroke-width="1.59" stroke-miterlimit="10"/>
</g>
<g style="mix-blend-mode:overlay" opacity="0.24">
<path d="M259.834 72.8146L191.596 140.87" stroke="white" stroke-width="1.59" stroke-miterlimit="10"/>
</g>
<g style="mix-blend-mode:overlay" opacity="0.24">
<path d="M263.407 72.8146L195.163 140.87" stroke="white" stroke-width="1.59" stroke-miterlimit="10"/>
</g>
<g style="mix-blend-mode:overlay" opacity="0.24">
<path d="M266.973 72.8146L198.736 140.87" stroke="white" stroke-width="1.59" stroke-miterlimit="10"/>
</g>
<g style="mix-blend-mode:overlay" opacity="0.24">
<path d="M270.546 72.8146L202.302 140.87" stroke="white" stroke-width="1.59" stroke-miterlimit="10"/>
</g>
<g style="mix-blend-mode:overlay" opacity="0.24">
<path d="M274.113 72.8146L205.875 140.87" stroke="white" stroke-width="1.59" stroke-miterlimit="10"/>
</g>
<g style="mix-blend-mode:overlay" opacity="0.24">
<path d="M277.686 72.8146L209.448 140.87" stroke="white" stroke-width="1.59" stroke-miterlimit="10"/>
</g>
<g style="mix-blend-mode:overlay" opacity="0.24">
<path d="M281.252 72.8146L213.015 140.87" stroke="white" stroke-width="1.59" stroke-miterlimit="10"/>
</g>
<g style="mix-blend-mode:overlay" opacity="0.24">
<path d="M284.825 72.8146L216.587 140.87" stroke="white" stroke-width="1.59" stroke-miterlimit="10"/>
</g>
<g style="mix-blend-mode:overlay" opacity="0.24">
<path d="M288.392 72.8146L220.154 140.87" stroke="white" stroke-width="1.59" stroke-miterlimit="10"/>
</g>
<g style="mix-blend-mode:overlay" opacity="0.24">
<path d="M291.965 72.8146L223.727 140.87" stroke="white" stroke-width="1.59" stroke-miterlimit="10"/>
</g>
</g>
</g>
<g style="mix-blend-mode:overlay" opacity="0.24">
<g style="mix-blend-mode:overlay" opacity="0.24">
<g style="mix-blend-mode:overlay" opacity="0.24">
<path d="M89.6614 96.357L21.4236 164.412" stroke="white" stroke-width="1.59" stroke-miterlimit="10"/>
</g>
<g style="mix-blend-mode:overlay" opacity="0.24">
<path d="M93.2281 96.357L24.9903 164.412" stroke="white" stroke-width="1.59" stroke-miterlimit="10"/>
</g>
<g style="mix-blend-mode:overlay" opacity="0.24">
<path d="M96.8008 96.357L28.563 164.412" stroke="white" stroke-width="1.59" stroke-miterlimit="10"/>
</g>
<g style="mix-blend-mode:overlay" opacity="0.24">
<path d="M100.368 96.357L32.1298 164.412" stroke="white" stroke-width="1.59" stroke-miterlimit="10"/>
</g>
<g style="mix-blend-mode:overlay" opacity="0.24">
<path d="M103.94 96.357L35.7026 164.412" stroke="white" stroke-width="1.59" stroke-miterlimit="10"/>
</g>
<g style="mix-blend-mode:overlay" opacity="0.24">
<path d="M107.507 96.357L39.2693 164.412" stroke="white" stroke-width="1.59" stroke-miterlimit="10"/>
</g>
<g style="mix-blend-mode:overlay" opacity="0.24">
<path d="M111.08 96.357L42.8422 164.412" stroke="white" stroke-width="1.59" stroke-miterlimit="10"/>
</g>
<g style="mix-blend-mode:overlay" opacity="0.24">
<path d="M114.653 96.357L46.4088 164.412" stroke="white" stroke-width="1.59" stroke-miterlimit="10"/>
</g>
<g style="mix-blend-mode:overlay" opacity="0.24">
<path d="M118.219 96.357L49.9814 164.412" stroke="white" stroke-width="1.59" stroke-miterlimit="10"/>
</g>
<g style="mix-blend-mode:overlay" opacity="0.24">
<path d="M121.792 96.357L53.5482 164.412" stroke="white" stroke-width="1.59" stroke-miterlimit="10"/>
</g>
<g style="mix-blend-mode:overlay" opacity="0.24">
<path d="M125.359 96.357L57.121 164.412" stroke="white" stroke-width="1.59" stroke-miterlimit="10"/>
</g>
<g style="mix-blend-mode:overlay" opacity="0.24">
<path d="M128.931 96.357L60.6937 164.412" stroke="white" stroke-width="1.59" stroke-miterlimit="10"/>
</g>
<g style="mix-blend-mode:overlay" opacity="0.24">
<path d="M132.498 96.357L64.2604 164.412" stroke="white" stroke-width="1.59" stroke-miterlimit="10"/>
</g>
<g style="mix-blend-mode:overlay" opacity="0.24">
<path d="M136.071 96.357L67.8333 164.412" stroke="white" stroke-width="1.59" stroke-miterlimit="10"/>
</g>
<g style="mix-blend-mode:overlay" opacity="0.24">
<path d="M139.638 96.357L71.3999 164.412" stroke="white" stroke-width="1.59" stroke-miterlimit="10"/>
</g>
<g style="mix-blend-mode:overlay" opacity="0.24">
<path d="M143.21 96.357L74.9727 164.412" stroke="white" stroke-width="1.59" stroke-miterlimit="10"/>
</g>
<g style="mix-blend-mode:overlay" opacity="0.24">
<path d="M146.777 96.357L78.5396 164.412" stroke="white" stroke-width="1.59" stroke-miterlimit="10"/>
</g>
<g style="mix-blend-mode:overlay" opacity="0.24">
<path d="M150.35 96.357L82.1122 164.412" stroke="white" stroke-width="1.59" stroke-miterlimit="10"/>
</g>
<g style="mix-blend-mode:overlay" opacity="0.24">
<path d="M153.923 96.357L85.6789 164.412" stroke="white" stroke-width="1.59" stroke-miterlimit="10"/>
</g>
<g style="mix-blend-mode:overlay" opacity="0.24">
<path d="M157.49 96.357L89.2517 164.412" stroke="white" stroke-width="1.59" stroke-miterlimit="10"/>
</g>
<g style="mix-blend-mode:overlay" opacity="0.24">
<path d="M161.062 96.357L92.8184 164.412" stroke="white" stroke-width="1.59" stroke-miterlimit="10"/>
</g>
<g style="mix-blend-mode:overlay" opacity="0.24">
<path d="M164.629 96.357L96.3912 164.412" stroke="white" stroke-width="1.59" stroke-miterlimit="10"/>
</g>
<g style="mix-blend-mode:overlay" opacity="0.24">
<path d="M168.202 96.357L99.964 164.412" stroke="white" stroke-width="1.59" stroke-miterlimit="10"/>
</g>
<g style="mix-blend-mode:overlay" opacity="0.24">
<path d="M171.768 96.357L103.531 164.412" stroke="white" stroke-width="1.59" stroke-miterlimit="10"/>
</g>
<g style="mix-blend-mode:overlay" opacity="0.24">
<path d="M175.341 96.357L107.103 164.412" stroke="white" stroke-width="1.59" stroke-miterlimit="10"/>
</g>
<g style="mix-blend-mode:overlay" opacity="0.24">
<path d="M178.908 96.357L110.67 164.412" stroke="white" stroke-width="1.59" stroke-miterlimit="10"/>
</g>
<g style="mix-blend-mode:overlay" opacity="0.24">
<path d="M182.481 96.357L114.243 164.412" stroke="white" stroke-width="1.59" stroke-miterlimit="10"/>
</g>
<g style="mix-blend-mode:overlay" opacity="0.24">
<path d="M186.047 96.357L117.81 164.412" stroke="white" stroke-width="1.59" stroke-miterlimit="10"/>
</g>
<g style="mix-blend-mode:overlay" opacity="0.24">
<path d="M189.62 96.357L121.382 164.412" stroke="white" stroke-width="1.59" stroke-miterlimit="10"/>
</g>
<g style="mix-blend-mode:overlay" opacity="0.24">
<path d="M193.193 96.357L124.949 164.412" stroke="white" stroke-width="1.59" stroke-miterlimit="10"/>
</g>
<g style="mix-blend-mode:overlay" opacity="0.24">
<path d="M196.76 96.357L128.522 164.412" stroke="white" stroke-width="1.59" stroke-miterlimit="10"/>
</g>
<g style="mix-blend-mode:overlay" opacity="0.24">
<path d="M200.332 96.357L132.089 164.412" stroke="white" stroke-width="1.59" stroke-miterlimit="10"/>
</g>
<g style="mix-blend-mode:overlay" opacity="0.24">
<path d="M203.899 96.357L135.661 164.412" stroke="white" stroke-width="1.59" stroke-miterlimit="10"/>
</g>
<g style="mix-blend-mode:overlay" opacity="0.24">
<path d="M207.472 96.357L139.234 164.412" stroke="white" stroke-width="1.59" stroke-miterlimit="10"/>
</g>
<g style="mix-blend-mode:overlay" opacity="0.24">
<path d="M211.039 96.357L142.801 164.412" stroke="white" stroke-width="1.59" stroke-miterlimit="10"/>
</g>
<g style="mix-blend-mode:overlay" opacity="0.24">
<path d="M214.611 96.357L146.374 164.412" stroke="white" stroke-width="1.59" stroke-miterlimit="10"/>
</g>
<g style="mix-blend-mode:overlay" opacity="0.24">
<path d="M218.178 96.357L149.94 164.412" stroke="white" stroke-width="1.59" stroke-miterlimit="10"/>
</g>
</g>
</g>
<g style="mix-blend-mode:overlay" opacity="0.24">
<g style="mix-blend-mode:overlay" opacity="0.24">
<g style="mix-blend-mode:overlay" opacity="0.24">
<path d="M162.755 166.053L94.5175 234.108" stroke="white" stroke-width="1.59" stroke-miterlimit="10"/>
</g>
<g style="mix-blend-mode:overlay" opacity="0.24">
<path d="M166.328 166.053L98.0902 234.108" stroke="white" stroke-width="1.59" stroke-miterlimit="10"/>
</g>
<g style="mix-blend-mode:overlay" opacity="0.24">
<path d="M169.895 166.053L101.657 234.108" stroke="white" stroke-width="1.59" stroke-miterlimit="10"/>
</g>
<g style="mix-blend-mode:overlay" opacity="0.24">
<path d="M173.468 166.053L105.23 234.108" stroke="white" stroke-width="1.59" stroke-miterlimit="10"/>
</g>
<g style="mix-blend-mode:overlay" opacity="0.24">
<path d="M177.034 166.053L108.796 234.108" stroke="white" stroke-width="1.59" stroke-miterlimit="10"/>
</g>
<g style="mix-blend-mode:overlay" opacity="0.24">
<path d="M180.607 166.053L112.369 234.108" stroke="white" stroke-width="1.59" stroke-miterlimit="10"/>
</g>
<g style="mix-blend-mode:overlay" opacity="0.24">
<path d="M184.18 166.053L115.936 234.108" stroke="white" stroke-width="1.59" stroke-miterlimit="10"/>
</g>
<g style="mix-blend-mode:overlay" opacity="0.24">
<path d="M187.746 166.053L119.509 234.108" stroke="white" stroke-width="1.59" stroke-miterlimit="10"/>
</g>
<g style="mix-blend-mode:overlay" opacity="0.24">
<path d="M191.319 166.053L123.075 234.108" stroke="white" stroke-width="1.59" stroke-miterlimit="10"/>
</g>
<g style="mix-blend-mode:overlay" opacity="0.24">
<path d="M194.886 166.053L126.648 234.108" stroke="white" stroke-width="1.59" stroke-miterlimit="10"/>
</g>
<g style="mix-blend-mode:overlay" opacity="0.24">
<path d="M198.459 166.053L130.221 234.108" stroke="white" stroke-width="1.59" stroke-miterlimit="10"/>
</g>
<g style="mix-blend-mode:overlay" opacity="0.24">
<path d="M202.025 166.053L133.788 234.108" stroke="white" stroke-width="1.59" stroke-miterlimit="10"/>
</g>
<g style="mix-blend-mode:overlay" opacity="0.24">
<path d="M205.598 166.053L137.36 234.108" stroke="white" stroke-width="1.59" stroke-miterlimit="10"/>
</g>
<g style="mix-blend-mode:overlay" opacity="0.24">
<path d="M209.165 166.053L140.927 234.108" stroke="white" stroke-width="1.59" stroke-miterlimit="10"/>
</g>
<g style="mix-blend-mode:overlay" opacity="0.24">
<path d="M212.738 166.053L144.5 234.108" stroke="white" stroke-width="1.59" stroke-miterlimit="10"/>
</g>
<g style="mix-blend-mode:overlay" opacity="0.24">
<path d="M216.304 166.053L148.067 234.108" stroke="white" stroke-width="1.59" stroke-miterlimit="10"/>
</g>
<g style="mix-blend-mode:overlay" opacity="0.24">
<path d="M219.877 166.053L151.639 234.108" stroke="white" stroke-width="1.59" stroke-miterlimit="10"/>
</g>
<g style="mix-blend-mode:overlay" opacity="0.24">
<path d="M223.45 166.053L155.206 234.108" stroke="white" stroke-width="1.59" stroke-miterlimit="10"/>
</g>
<g style="mix-blend-mode:overlay" opacity="0.24">
<path d="M227.017 166.053L158.779 234.108" stroke="white" stroke-width="1.59" stroke-miterlimit="10"/>
</g>
<g style="mix-blend-mode:overlay" opacity="0.24">
<path d="M230.59 166.053L162.346 234.108" stroke="white" stroke-width="1.59" stroke-miterlimit="10"/>
</g>
<g style="mix-blend-mode:overlay" opacity="0.24">
<path d="M234.156 166.053L165.918 234.108" stroke="white" stroke-width="1.59" stroke-miterlimit="10"/>
</g>
<g style="mix-blend-mode:overlay" opacity="0.24">
<path d="M237.729 166.053L169.491 234.108" stroke="white" stroke-width="1.59" stroke-miterlimit="10"/>
</g>
<g style="mix-blend-mode:overlay" opacity="0.24">
<path d="M241.296 166.053L173.058 234.108" stroke="white" stroke-width="1.59" stroke-miterlimit="10"/>
</g>
<g style="mix-blend-mode:overlay" opacity="0.24">
<path d="M244.868 166.053L176.631 234.108" stroke="white" stroke-width="1.59" stroke-miterlimit="10"/>
</g>
<g style="mix-blend-mode:overlay" opacity="0.24">
<path d="M248.435 166.053L180.197 234.108" stroke="white" stroke-width="1.59" stroke-miterlimit="10"/>
</g>
<g style="mix-blend-mode:overlay" opacity="0.24">
<path d="M252.008 166.053L183.77 234.108" stroke="white" stroke-width="1.59" stroke-miterlimit="10"/>
</g>
<g style="mix-blend-mode:overlay" opacity="0.24">
<path d="M255.575 166.053L187.337 234.108" stroke="white" stroke-width="1.59" stroke-miterlimit="10"/>
</g>
<g style="mix-blend-mode:overlay" opacity="0.24">
<path d="M259.147 166.053L190.91 234.108" stroke="white" stroke-width="1.59" stroke-miterlimit="10"/>
</g>
<g style="mix-blend-mode:overlay" opacity="0.24">
<path d="M262.72 166.053L194.476 234.108" stroke="white" stroke-width="1.59" stroke-miterlimit="10"/>
</g>
<g style="mix-blend-mode:overlay" opacity="0.24">
<path d="M266.287 166.053L198.049 234.108" stroke="white" stroke-width="1.59" stroke-miterlimit="10"/>
</g>
<g style="mix-blend-mode:overlay" opacity="0.24">
<path d="M269.86 166.053L201.616 234.108" stroke="white" stroke-width="1.59" stroke-miterlimit="10"/>
</g>
<g style="mix-blend-mode:overlay" opacity="0.24">
<path d="M273.426 166.053L205.188 234.108" stroke="white" stroke-width="1.59" stroke-miterlimit="10"/>
</g>
<g style="mix-blend-mode:overlay" opacity="0.24">
<path d="M276.999 166.053L208.761 234.108" stroke="white" stroke-width="1.59" stroke-miterlimit="10"/>
</g>
<g style="mix-blend-mode:overlay" opacity="0.24">
<path d="M280.566 166.053L212.328 234.108" stroke="white" stroke-width="1.59" stroke-miterlimit="10"/>
</g>
<g style="mix-blend-mode:overlay" opacity="0.24">
<path d="M284.138 166.053L215.901 234.108" stroke="white" stroke-width="1.59" stroke-miterlimit="10"/>
</g>
<g style="mix-blend-mode:overlay" opacity="0.24">
<path d="M287.705 166.053L219.467 234.108" stroke="white" stroke-width="1.59" stroke-miterlimit="10"/>
</g>
<g style="mix-blend-mode:overlay" opacity="0.24">
<path d="M291.278 166.053L223.04 234.108" stroke="white" stroke-width="1.59" stroke-miterlimit="10"/>
</g>
</g>
</g>
</g>
<path opacity="0.3" d="M104.639 53.7128C104.169 52.6612 103.121 51.9282 101.892 51.9282C101.277 51.9282 100.711 52.1144 100.235 52.4269C99.7529 51.4114 98.7227 50.7084 97.5237 50.7084C96.6622 50.7084 95.897 51.0689 95.3427 51.6458C94.4209 50.5882 93.0653 49.9212 91.5531 49.9212C89.9625 49.9212 88.5527 50.6603 87.6309 51.808C87.0766 51.147 86.2572 50.7144 85.3234 50.7144C85.2872 50.7144 85.2571 50.7204 85.227 50.7264C84.1124 48.4551 81.7807 46.8868 79.0755 46.8868C76.3704 46.8868 73.8701 48.5633 72.8097 50.9608C72.4422 50.8045 72.0445 50.7144 71.6228 50.7144C70.1828 50.7144 68.9839 51.7239 68.6826 53.0698C68.1946 52.7273 67.5982 52.517 66.9535 52.517C65.9714 52.517 65.1099 52.9917 64.5556 53.7188H104.645L104.639 53.7128Z" fill="#43A1F6"/>
<path opacity="0.3" d="M185.156 65.6522C185.547 64.7689 186.433 64.156 187.463 64.156C187.975 64.156 188.457 64.3122 188.855 64.5766C189.265 63.7233 190.126 63.1345 191.132 63.1345C191.855 63.1345 192.5 63.4409 192.964 63.9216C193.735 63.0323 194.874 62.4735 196.145 62.4735C197.477 62.4735 198.67 63.0924 199.441 64.0538C199.905 63.495 200.598 63.1345 201.381 63.1345C201.411 63.1345 201.435 63.1405 201.465 63.1405C202.399 61.2297 204.363 59.9138 206.635 59.9138C208.906 59.9138 211.003 61.3198 211.9 63.3388C212.208 63.2066 212.545 63.1345 212.9 63.1345C214.111 63.1345 215.118 63.9817 215.371 65.1114C215.78 64.823 216.28 64.6487 216.823 64.6487C217.648 64.6487 218.371 65.0513 218.835 65.6582H185.162L185.156 65.6522Z" fill="#43A1F6"/>
<path d="M188.566 152.731C183.324 151.812 177.655 136.58 187.415 131.472C197.175 126.371 200.465 123.667 202.501 111.776C204.538 99.8842 211.478 105.532 209.918 112.491C208.358 119.449 218.775 118.583 220.944 121.9C224.709 127.651 216.377 128.57 211.611 131.845C206.839 135.12 215.352 137.355 211.966 142.895C208.58 148.435 197.501 154.3 188.566 152.731Z" fill="#0373D8"/>
<path d="M188.03 152.587L189.885 149.324L191.783 146.092C193.048 143.935 194.374 141.813 195.717 139.704C197.073 137.601 198.441 135.51 199.893 133.467C200.616 132.446 201.351 131.43 202.092 130.427C202.857 129.435 203.616 128.444 204.429 127.488C204.092 128.017 203.749 128.534 203.393 129.051L202.375 130.625C201.694 131.671 201.007 132.716 200.345 133.774L196.314 140.089C194.958 142.186 193.621 144.295 192.241 146.38C190.861 148.465 189.518 150.574 188.03 152.587Z" fill="white"/>
<path d="M193.44 143.953C195.507 143.189 197.621 142.637 199.748 142.132C201.881 141.651 204.02 141.219 206.213 140.996C204.146 141.765 202.031 142.318 199.905 142.817C197.772 143.298 195.633 143.73 193.44 143.953Z" fill="white"/>
<path d="M198.627 135.853C198.392 134.573 198.374 133.299 198.405 132.025C198.459 130.751 198.567 129.483 198.893 128.222C199.127 129.501 199.152 130.775 199.115 132.049C199.061 133.323 198.953 134.591 198.627 135.853Z" fill="white"/>
<path d="M190.204 160.369C190.204 160.369 187.264 154.642 192.283 150.977C197.302 147.305 199.525 142.595 196.657 138.256C193.795 133.924 186.439 136.622 183.336 134.555C180.227 132.482 181.565 128.047 179.016 123.252C175.6 116.823 168.991 118.523 167.443 119.515C165.894 120.506 163.153 123.541 166.744 129.369C170.334 135.198 167.69 137.241 164.834 141.819C161.978 146.398 166.985 148.177 175.106 149.721C183.228 151.265 184.631 161.216 184.631 161.216L190.204 160.369Z" fill="#0055A3"/>
<path d="M188.138 166.119C188.09 164.22 187.903 162.339 187.638 160.471C187.361 158.602 187.048 156.745 186.602 154.913C186.174 153.08 185.68 151.259 185.114 149.469L184.222 146.789L183.192 144.163C182.878 143.274 182.457 142.432 182.071 141.573C181.673 140.72 181.318 139.849 180.86 139.025L179.553 136.52C179.348 136.093 179.083 135.708 178.842 135.3L178.119 134.086C176.221 130.823 173.919 127.819 171.6 124.809C172.244 125.5 172.889 126.203 173.522 126.912C174.148 127.627 174.829 128.3 175.389 129.069C176.534 130.589 177.739 132.073 178.739 133.696C180.896 136.844 182.589 140.293 184.071 143.808C185.535 147.335 186.596 151.025 187.307 154.768C187.668 156.643 187.909 158.53 188.09 160.429C188.198 162.327 188.289 164.232 188.126 166.125L188.138 166.119Z" fill="white"/>
<path d="M184.704 147.504C183.649 146.512 182.468 145.725 181.239 145.046C180.004 144.379 178.709 143.838 177.371 143.424C176.697 143.243 176.022 143.033 175.329 142.919C174.986 142.853 174.642 142.757 174.293 142.715C173.943 142.673 173.594 142.619 173.244 142.564C172.895 142.498 172.539 142.48 172.19 142.45L171.124 142.354C170.413 142.306 169.696 142.306 168.967 142.24C169.678 142.096 170.395 141.976 171.118 141.885C171.841 141.861 172.576 141.771 173.305 141.825C174.775 141.849 176.233 142.12 177.655 142.516C179.058 142.967 180.42 143.58 181.637 144.415C182.848 145.244 183.963 146.26 184.716 147.51L184.704 147.504Z" fill="white"/>
<path d="M185.945 151.067C185.487 149.841 185.336 148.501 185.415 147.173C185.493 145.839 185.873 144.511 186.535 143.322L186.788 142.877C186.879 142.733 186.993 142.601 187.09 142.468C187.307 142.204 187.481 141.91 187.728 141.675L188.469 140.978C188.716 140.744 189.018 140.582 189.289 140.389C189.825 139.975 190.47 139.758 191.06 139.476C191.681 139.248 192.331 139.103 192.958 138.959C192.392 139.308 191.801 139.56 191.265 139.897C190.741 140.263 190.18 140.558 189.729 140.99C188.747 141.753 187.957 142.721 187.367 143.784C186.758 144.842 186.373 146.032 186.15 147.257C185.939 148.489 185.867 149.763 185.939 151.061L185.945 151.067Z" fill="white"/>
<path d="M207.797 157.412C217.105 159.762 217.328 151.674 211.629 147.161C208.062 144.343 215.34 142.835 218.16 140.095C223.004 135.384 215.238 129.465 211.207 133.593C207.182 137.715 204.682 138.983 201.748 139.344C198.814 139.704 190.536 139.794 191.247 145.046C191.693 148.321 188.855 151.115 189.24 154.396C197.844 151.494 202.947 156.186 207.797 157.406V157.412Z" fill="#43A1F6"/>
<path d="M189.24 154.396C192.626 151.457 196.277 148.856 200.037 146.422C201.929 145.226 203.851 144.073 205.827 143.003C207.803 141.94 209.827 140.972 211.918 140.149C209.984 141.285 208.086 142.45 206.182 143.604C204.291 144.788 202.405 145.965 200.531 147.167L194.904 150.784C193.036 151.998 191.144 153.194 189.246 154.384L189.24 154.396Z" fill="white"/>
<path d="M198.802 147.762C198.717 147.137 198.717 146.524 198.748 145.917C198.772 145.311 198.844 144.71 198.94 144.115C199.037 143.52 199.163 142.925 199.332 142.342C199.495 141.759 199.687 141.176 199.971 140.612C200.061 141.237 200.055 141.849 200.025 142.456C200.001 143.063 199.928 143.664 199.832 144.259C199.736 144.854 199.609 145.449 199.44 146.032C199.278 146.614 199.085 147.197 198.802 147.762Z" fill="white"/>
<path d="M196.253 149.457C197.356 149.276 198.458 149.18 199.555 149.12C200.657 149.054 201.76 149.036 202.856 149.03C203.959 149.042 205.062 149.066 206.158 149.138C207.261 149.204 208.357 149.306 209.46 149.499C208.357 149.685 207.255 149.775 206.158 149.841C205.056 149.907 203.953 149.925 202.856 149.931C201.754 149.919 200.651 149.895 199.555 149.823C198.452 149.751 197.356 149.655 196.253 149.463V149.457Z" fill="white"/>
<path d="M199.152 169.508H185.529L182.36 155.934H202.321L199.152 169.508Z" fill="#003261"/>
<path d="M204.453 152.479H180.233V157.941H204.453V152.479Z" fill="#0B5BA5"/>
<g opacity="0.74">
<path opacity="0.74" d="M65.7366 154.161C66.7066 151.764 69.0383 151.043 70.177 148.88C72.2194 145.01 68.7852 144.013 68.3755 141.441C67.8333 138.016 70.2433 138.322 71.4844 136.237C72.9484 133.786 70.4722 130.883 71.9905 128.558C75.7681 122.772 81.9134 129.129 85.914 130.469C88.3661 131.286 92.0352 131.635 93.9692 130.078C96.5178 128.023 99.0603 123.264 96.3611 120.518C92.5594 116.649 93.9512 114.66 98.0662 113.68C99.8857 113.248 100.723 111.86 98.6988 110.279C101.771 114.708 91.5292 110.676 89.7036 113.68C88.4384 115.765 89.9988 116.997 90.4387 118.601C91.5653 122.705 88.7396 126.233 82.8413 122.129C79.4493 119.767 79.7385 115.561 76.1416 114.485C72.7797 113.482 68.8756 116.486 67.6405 120.512C66.4175 124.496 64.9655 126.539 60.6577 126.088C55.5425 125.548 51.5962 128.714 53.8797 133.281C55.9101 137.331 61.5313 135.029 64.381 137.349C67.5441 139.927 66.5621 143.472 62.4651 146.801C61.1939 147.834 59.2418 149.378 59.7419 151.139C60.0672 152.281 62.1097 154.095 63.4291 154.143L65.7306 154.167L65.7366 154.161Z" fill="white"/>
</g>
<path d="M73.3099 155.76H72.2134V154.288C72.2134 153.657 71.7013 153.152 71.0747 153.152H58.1212C57.4886 153.152 56.9825 153.663 56.9825 154.288V163.319C56.9825 166.738 59.76 169.514 63.1942 169.514H66.0078C68.731 169.514 71.0385 167.759 71.876 165.326H73.3099C74.4065 165.326 75.2921 164.442 75.2921 163.349V157.743C75.2921 156.649 74.4065 155.766 73.3099 155.766V155.76ZM74.0269 163.349C74.0269 163.739 73.7076 164.064 73.3099 164.064H72.1652C72.1953 163.818 72.2134 163.571 72.2134 163.319V157.028H73.3099C73.7015 157.028 74.0269 157.346 74.0269 157.743V163.349Z" fill="#BDBCBA"/>
<path d="M70.5505 156.355C70.5505 155.231 70.3156 154.155 69.8938 153.146H58.1212C57.4886 153.146 56.9825 153.657 56.9825 154.282V163.313C56.9825 164.406 57.2717 165.434 57.7657 166.323C57.9465 166.329 58.1212 166.347 58.302 166.347C65.0679 166.347 70.5505 161.871 70.5505 156.349V156.355Z" fill="#CACACA"/>
<path d="M209.219 183.118H45.1918C43.4385 183.118 42.0167 181.7 42.0167 179.951C42.0167 178.203 43.4385 176.784 45.1918 176.784H209.219C210.972 176.784 212.394 178.203 212.394 179.951C212.394 181.7 210.972 183.118 209.219 183.118Z" fill="#0B5BA5"/>
<path d="M213.238 178.449H41.1731C38.6969 178.449 36.6906 176.448 36.6906 173.978C36.6906 171.509 38.6969 169.508 41.1731 169.508H213.238C215.714 169.508 217.72 171.509 217.72 173.978C217.72 176.448 215.714 178.449 213.238 178.449Z" fill="#003261"/>
<path d="M185.397 96.0145C191.825 96.0145 197.037 90.817 197.037 84.4056C197.037 77.9941 191.825 72.7966 185.397 72.7966C178.968 72.7966 173.757 77.9941 173.757 84.4056C173.757 90.817 178.968 96.0145 185.397 96.0145Z" fill="#123978"/>
<path d="M185.397 93.4548C190.408 93.4548 194.47 89.4033 194.47 84.4056C194.47 79.4078 190.408 75.3564 185.397 75.3564C180.386 75.3564 176.323 79.4078 176.323 84.4056C176.323 89.4033 180.386 93.4548 185.397 93.4548Z" fill="white"/>
<path d="M185.397 84.4056V78.9677" stroke="#4B4583" stroke-width="0.98" stroke-linecap="round" stroke-linejoin="round"/>
<path d="M185.397 84.4056L188.728 87.7344" stroke="#4B4583" stroke-width="0.98" stroke-linecap="round" stroke-linejoin="round"/>
<path d="M185.391 92.4333V91.3637" stroke="#4B4583" stroke-width="0.68" stroke-linecap="round" stroke-linejoin="round"/>
<path d="M189.415 91.3638L188.879 90.4264" stroke="#4B4583" stroke-width="0.68" stroke-linecap="round" stroke-linejoin="round"/>
<path d="M192.361 88.4255L191.428 87.8847" stroke="#4B4583" stroke-width="0.68" stroke-linecap="round" stroke-linejoin="round"/>
<path d="M193.446 84.4116H192.362" stroke="#4B4583" stroke-width="0.68" stroke-linecap="round" stroke-linejoin="round"/>
<path d="M192.362 80.3978L191.434 80.9325" stroke="#4B4583" stroke-width="0.68" stroke-linecap="round" stroke-linejoin="round"/>
<path d="M189.415 77.4594L188.879 78.3848" stroke="#4B4583" stroke-width="0.68" stroke-linecap="round" stroke-linejoin="round"/>
<path d="M185.391 77.4594V76.3779" stroke="#4B4583" stroke-width="0.68" stroke-linecap="round" stroke-linejoin="round"/>
<path d="M181.908 78.3908L181.372 77.4594" stroke="#4B4583" stroke-width="0.68" stroke-linecap="round" stroke-linejoin="round"/>
<path d="M179.354 80.9325L178.426 80.3978" stroke="#4B4583" stroke-width="0.68" stroke-linecap="round" stroke-linejoin="round"/>
<path d="M178.426 84.4116H177.347" stroke="#4B4583" stroke-width="0.68" stroke-linecap="round" stroke-linejoin="round"/>
<path d="M179.36 87.8847L178.426 88.4255" stroke="#4B4583" stroke-width="0.68" stroke-linecap="round" stroke-linejoin="round"/>
<path d="M181.908 90.4264L181.372 91.3638" stroke="#4B4583" stroke-width="0.68" stroke-linecap="round" stroke-linejoin="round"/>
<path d="M185.397 84.9283C185.686 84.9283 185.921 84.6943 185.921 84.4056C185.921 84.1169 185.686 83.8828 185.397 83.8828C185.107 83.8828 184.873 84.1169 184.873 84.4056C184.873 84.6943 185.107 84.9283 185.397 84.9283Z" fill="#123978"/>
<path d="M101.066 71.9193C96.114 66.9801 88.0527 67.0342 83.1726 72.0816C78.6901 76.7143 78.4913 84.1352 82.7448 88.9843C86.8719 93.6891 93.6077 94.5183 98.6565 91.4839C99.1024 91.2135 99.6446 91.1534 100.145 91.3036L103.314 92.247C103.555 92.3191 103.778 92.0968 103.711 91.8504L102.765 88.6898C102.615 88.1911 102.681 87.6503 102.946 87.1996C105.844 82.3926 105.218 76.0654 101.06 71.9193H101.066Z" fill="#BDBCBA"/>
<path d="M85.1006 75.2903H99.3133" stroke="white" stroke-width="1.67" stroke-linecap="round" stroke-linejoin="round"/>
<path d="M95.9032 78.9376H99.3132" stroke="white" stroke-width="1.67" stroke-linecap="round" stroke-linejoin="round"/>
<path d="M85.1006 78.9376H92.5173" stroke="white" stroke-width="1.67" stroke-linecap="round" stroke-linejoin="round"/>
<path d="M91.5955 82.5849H99.3134" stroke="white" stroke-width="1.67" stroke-linecap="round" stroke-linejoin="round"/>
<path d="M85.1006 82.5849H88.806" stroke="white" stroke-width="1.67" stroke-linecap="round" stroke-linejoin="round"/>
<path d="M95.9032 86.2322H99.3132" stroke="white" stroke-width="1.67" stroke-linecap="round" stroke-linejoin="round"/>
<path d="M85.1006 86.2322H92.3486" stroke="white" stroke-width="1.67" stroke-linecap="round" stroke-linejoin="round"/>
<path d="M127.299 77.856C127.299 77.856 126.034 72.2739 131.42 67.4789C136.806 62.6839 145.133 63.1225 149.699 65.6221C155.616 68.8609 161.424 77.4354 156.116 89.6873C150.808 101.939 175.136 96.8798 166.973 113.476C158.809 130.072 144.705 118.614 139.632 125.488C134.559 132.362 117.002 114.335 132.004 101.735C147 89.1345 128.432 89.1885 127.299 77.856Z" fill="#914E00"/>
<path d="M125.925 114.419C119.768 117.039 114.671 132.596 114.195 165.788H127.462C127.462 165.788 135.523 110.339 125.925 114.419Z" fill="#162F50"/>
<path d="M142.385 109.474C149.663 108.759 161.52 109.961 165.786 114.66C166.726 115.693 166.732 117.634 166.226 120.32C164.442 129.802 156.309 148.573 160.634 169.514H122.756C122.756 169.514 126.347 153.152 124.341 147.984C122.045 142.084 120.057 136.748 122.316 131.815C127.462 120.584 122.852 115.94 126.112 114.317C130.6 112.082 136.228 110.081 142.379 109.48L142.385 109.474Z" fill="#1C3658"/>
<path d="M158.02 137.259C156.435 146.428 145.789 147.558 140.451 145.767C140.451 145.767 148.217 150.454 153.814 147.822C153.814 147.822 155.242 152.299 153.109 166.383H160.074C160.074 166.383 160.074 166.353 160.074 166.311C158.972 158.944 159.315 151.896 160.279 145.497C160.46 143.874 160.701 142.402 161.02 141.213L161.032 141.176C161.918 136.688 163.02 132.584 164.008 128.997C164.43 126.569 164.593 124.442 164.593 121.774C164.593 121.774 159.598 128.095 158.014 137.265L158.02 137.259Z" fill="#162F50"/>
<path d="M158.417 156.938C158.417 156.938 151.802 165.043 148.603 162.85C144.367 159.942 140.879 159.996 138.077 161.666C135.173 163.397 134.065 166.389 134.065 166.389H156.772L163.382 160.687L158.417 156.943V156.938Z" fill="#F4AE98"/>
<path d="M166.033 114.99C166.033 114.99 171.871 130.198 176.878 142.637C180.92 152.671 156.55 166.353 156.55 166.353L152.525 160.975L166.563 145.461L157.978 127.41C157.978 127.41 153.001 117.562 160.556 114.071C164.762 112.13 166.033 114.996 166.033 114.996V114.99Z" fill="#1C3658"/>
<path d="M147.368 94.6626C147.368 94.6626 146.452 106.193 149.223 109.204C152.79 113.073 146.53 121.426 137.125 127.753C137.125 127.753 131.872 121.93 135.987 112.449C140.108 102.967 136.113 97.6069 136.113 97.6069L147.368 94.6626Z" fill="#F4AE98"/>
<path d="M149.223 89.6813C149.223 97.5828 143.644 103.982 138.927 103.982C134.209 103.982 128.323 98.7305 127.528 89.0083C126.883 81.1368 131.143 75.3804 137.571 75.3804C144 75.3804 149.217 81.7858 149.217 89.6873L149.223 89.6813Z" fill="#FFB99F"/>
<path d="M129.576 73.5297C128.914 73.9083 127.48 74.8396 125.805 75.9513C123.985 77.159 122.039 79.2561 121.376 81.5454C120.232 85.4812 123.136 90.4685 128.908 88.7079C134.685 86.9473 137.445 77.7058 142.132 83.0476C147.958 89.6873 150.067 85.9859 150.067 85.9859C150.067 85.9859 148.898 77.7178 143 73.9984C139.837 72.0035 135.071 70.3691 129.576 73.5297Z" fill="#914E00"/>
<path d="M153.11 86.8391C153.11 89.4169 151.579 91.5079 149.7 91.5079C147.82 91.5079 146.289 89.4169 146.289 86.8391C146.289 84.2614 147.82 82.1703 149.7 82.1703C151.579 82.1703 153.11 84.2614 153.11 86.8391Z" fill="#151F2C"/>
<path d="M138.963 71.2824C133.715 70.2729 128.654 72.2498 125.805 75.9452C128.95 73.8001 133.071 72.8687 137.294 73.6799C144.265 75.0199 149.205 80.6681 149.368 86.9353C149.494 86.5267 149.603 86.1121 149.687 85.6794C150.959 79.1058 146.157 72.6584 138.969 71.2764L138.963 71.2824Z" fill="#151F2C"/>
<path d="M148.958 88.3593C148.958 88.3593 149.91 98.9048 140.186 99.9082" stroke="#151F2C" stroke-width="1.05" stroke-miterlimit="10"/>
<path d="M139.554 100.96H138.023C137.529 100.96 137.126 100.557 137.126 100.064C137.126 99.5717 137.529 99.1691 138.023 99.1691H139.554C140.048 99.1691 140.451 99.5717 140.451 100.064C140.451 100.557 140.048 100.96 139.554 100.96Z" fill="#151F2C"/>
<path d="M162.261 166.347H107.097C106.326 166.347 105.7 166.971 105.7 167.741V168.114C105.7 168.884 106.326 169.508 107.097 169.508H162.261C163.033 169.508 163.659 168.884 163.659 168.114V167.741C163.659 166.971 163.033 166.347 162.261 166.347Z" fill="#004788"/>
<path d="M136.758 169.508H85.8056C84.4199 169.508 83.1848 168.643 82.7088 167.345L70.8278 134.789C70.0445 132.644 71.6351 130.379 73.9245 130.379H124.877C126.263 130.379 127.498 131.244 127.974 132.542L139.855 165.097C140.638 167.243 139.047 169.508 136.758 169.508Z" fill="#0055A2"/>
<path d="M72.7497 130.601C72.9425 149.841 98.7772 165.404 130.631 165.404C133.752 165.404 136.818 165.254 139.807 164.965L127.974 132.548C127.498 131.25 126.263 130.385 124.877 130.385H73.9246C73.5028 130.385 73.1112 130.463 72.7497 130.601Z" fill="#0B5BA5"/>
<path d="M108.441 149.3C108.441 151.427 106.712 153.146 104.585 153.146C102.458 153.146 100.729 151.421 100.729 149.3C100.729 147.179 102.458 145.455 104.585 145.455C106.712 145.455 108.441 147.179 108.441 149.3Z" fill="#1468B6"/>
<path d="M163.707 47.2954C167.298 43.7142 173.148 43.7502 176.691 47.4156C179.944 50.7745 180.083 56.1583 176.998 59.6735C174.004 63.0865 169.118 63.6873 165.454 61.4881C165.129 61.2958 164.737 61.2478 164.376 61.3559L162.074 62.0409C161.9 62.095 161.737 61.9328 161.785 61.7525L162.472 59.4572C162.581 59.0966 162.532 58.7 162.34 58.3756C160.237 54.8905 160.689 50.2998 163.707 47.2894V47.2954Z" fill="#BDBCBA"/>
<path d="M165.087 55.1789C165.899 55.1789 166.557 54.5225 166.557 53.7128C166.557 52.9031 165.899 52.2466 165.087 52.2466C164.275 52.2466 163.617 52.9031 163.617 53.7128C163.617 54.5225 164.275 55.1789 165.087 55.1789Z" fill="white"/>
<path d="M170.13 55.1789C170.942 55.1789 171.6 54.5225 171.6 53.7128C171.6 52.9031 170.942 52.2466 170.13 52.2466C169.318 52.2466 168.66 52.9031 168.66 53.7128C168.66 54.5225 169.318 55.1789 170.13 55.1789Z" fill="white"/>
<path d="M175.179 55.1789C175.991 55.1789 176.649 54.5225 176.649 53.7128C176.649 52.9031 175.991 52.2466 175.179 52.2466C174.367 52.2466 173.709 52.9031 173.709 53.7128C173.709 54.5225 174.367 55.1789 175.179 55.1789Z" fill="white"/>
<g opacity="0.07">
<g opacity="0.07">
<path opacity="0.07" d="M202.212 47.025L203.507 48.3229" stroke="#4B4583" stroke-linecap="round" stroke-linejoin="round"/>
<path opacity="0.07" d="M203.507 47.025L202.212 48.3229" stroke="#4B4583" stroke-linecap="round" stroke-linejoin="round"/>
</g>
<g opacity="0.07">
<path opacity="0.07" d="M40.2032 116.108L42.8059 118.698" stroke="#4B4583" stroke-width="2" stroke-linecap="round" stroke-linejoin="round"/>
<path opacity="0.07" d="M42.8059 116.108L40.2032 118.698" stroke="#4B4583" stroke-width="2" stroke-linecap="round" stroke-linejoin="round"/>
</g>
<g opacity="0.07">
<path opacity="0.07" d="M111.857 100.96L113.677 102.774" stroke="#4B4583" stroke-width="1.4" stroke-linecap="round" stroke-linejoin="round"/>
<path opacity="0.07" d="M113.677 100.96L111.857 102.774" stroke="#4B4583" stroke-width="1.4" stroke-linecap="round" stroke-linejoin="round"/>
</g>
<g opacity="0.07">
<path opacity="0.07" d="M214.424 164.418L216.244 166.227" stroke="#4B4583" stroke-width="1.4" stroke-linecap="round" stroke-linejoin="round"/>
<path opacity="0.07" d="M216.244 164.418L214.424 166.227" stroke="#4B4583" stroke-width="1.4" stroke-linecap="round" stroke-linejoin="round"/>
</g>
<path opacity="0.07" d="M143.439 53.7128C143.439 54.3257 142.939 54.8244 142.325 54.8244C141.71 54.8244 141.21 54.3257 141.21 53.7128C141.21 53.0999 141.71 52.6011 142.325 52.6011C142.939 52.6011 143.439 53.0999 143.439 53.7128Z" stroke="#4B4583" stroke-width="1.4" stroke-linecap="round" stroke-linejoin="round"/>
<path opacity="0.07" d="M81.3952 99.1691C81.3952 99.782 80.8951 100.281 80.2805 100.281C79.666 100.281 79.166 99.782 79.166 99.1691C79.166 98.5562 79.666 98.0575 80.2805 98.0575C80.8951 98.0575 81.3952 98.5562 81.3952 99.1691Z" stroke="#4B4583" stroke-width="1.4" stroke-linecap="round" stroke-linejoin="round"/>
<path opacity="0.07" d="M216.449 85.1266C216.449 85.7395 215.949 86.2383 215.334 86.2383C214.72 86.2383 214.22 85.7395 214.22 85.1266C214.22 84.5137 214.72 84.015 215.334 84.015C215.949 84.015 216.449 84.5137 216.449 85.1266Z" stroke="#4B4583" stroke-width="1.4" stroke-linecap="round" stroke-linejoin="round"/>
<path opacity="0.07" d="M46.0532 147.504C46.0532 148.958 44.8723 150.136 43.4143 150.136C41.9563 150.136 40.7754 148.958 40.7754 147.504C40.7754 146.05 41.9563 144.872 43.4143 144.872C44.8723 144.872 46.0532 146.05 46.0532 147.504Z" stroke="#4B4583" stroke-width="1.4" stroke-linecap="round" stroke-linejoin="round"/>
<path opacity="0.07" d="M191.367 114.275C191.367 115.729 190.186 116.907 188.728 116.907C187.27 116.907 186.09 115.729 186.09 114.275C186.09 112.821 187.27 111.643 188.728 111.643C190.186 111.643 191.367 112.821 191.367 114.275Z" stroke="#4B4583" stroke-width="1.4" stroke-linecap="round" stroke-linejoin="round"/>
</g>
</svg>
