<svg width="496" height="392" viewBox="0 0 496 392" fill="none" xmlns="http://www.w3.org/2000/svg">
<g opacity="0.39">
<path opacity="0.64" d="M378.081 103.615C358.945 96.3227 326.224 61.6574 292.399 103.808C262.335 141.275 227.558 129.579 210.275 118.841C181.402 100.913 141.738 88.1263 123.923 126.714C106.108 165.301 122.951 201.425 56.8436 212.365C-9.26416 223.305 -6.49607 306.354 55.6039 323.164C117.704 339.973 139.421 303.229 195.194 319.272C251.721 335.533 316.426 329.656 416.701 319.988C516.976 310.32 492.497 126.549 378.072 103.614C263.646 80.6779 378.081 103.615 378.081 103.615Z" fill="#C8C7C9"/>
<path opacity="0.31" d="M455.617 130.131C433.987 138.976 360.738 139.621 337.628 97.1071C313.322 52.3865 273.757 20.2215 234.944 74.6815C196.13 129.141 200.145 152.383 120.581 125.314C40.8633 98.1904 0.964779 172.036 48.4273 217.639C97.1586 264.47 102.758 312.955 193.502 341.185C249.222 358.515 364.59 350.73 404.726 308.277C441.432 269.446 528.111 84.9244 455.619 130.12C383.127 175.316 455.617 130.131 455.617 130.131Z" fill="#9C9C9C"/>
</g>
<g style="mix-blend-mode:overlay" opacity="0.24">
<g style="mix-blend-mode:overlay" opacity="0.24">
<g style="mix-blend-mode:overlay" opacity="0.24">
<g style="mix-blend-mode:overlay" opacity="0.24">
<path d="M265.794 118.931L154.824 230.088" stroke="white" stroke-width="1.59" stroke-miterlimit="10"/>
</g>
<g style="mix-blend-mode:overlay" opacity="0.24">
<path d="M271.604 118.931L160.634 230.088" stroke="white" stroke-width="1.59" stroke-miterlimit="10"/>
</g>
<g style="mix-blend-mode:overlay" opacity="0.24">
<path d="M277.405 118.931L166.434 230.088" stroke="white" stroke-width="1.59" stroke-miterlimit="10"/>
</g>
<g style="mix-blend-mode:overlay" opacity="0.24">
<path d="M283.215 118.931L172.244 230.088" stroke="white" stroke-width="1.59" stroke-miterlimit="10"/>
</g>
<g style="mix-blend-mode:overlay" opacity="0.24">
<path d="M289.025 118.931L178.045 230.088" stroke="white" stroke-width="1.59" stroke-miterlimit="10"/>
</g>
<g style="mix-blend-mode:overlay" opacity="0.24">
<path d="M294.825 118.931L183.855 230.088" stroke="white" stroke-width="1.59" stroke-miterlimit="10"/>
</g>
<g style="mix-blend-mode:overlay" opacity="0.24">
<path d="M300.636 118.931L189.655 230.088" stroke="white" stroke-width="1.59" stroke-miterlimit="10"/>
</g>
<g style="mix-blend-mode:overlay" opacity="0.24">
<path d="M306.436 118.931L195.465 230.088" stroke="white" stroke-width="1.59" stroke-miterlimit="10"/>
</g>
<g style="mix-blend-mode:overlay" opacity="0.24">
<path d="M312.246 118.931L201.266 230.088" stroke="white" stroke-width="1.59" stroke-miterlimit="10"/>
</g>
<g style="mix-blend-mode:overlay" opacity="0.24">
<path d="M318.046 118.931L207.076 230.088" stroke="white" stroke-width="1.59" stroke-miterlimit="10"/>
</g>
<g style="mix-blend-mode:overlay" opacity="0.24">
<path d="M323.856 118.931L212.886 230.088" stroke="white" stroke-width="1.59" stroke-miterlimit="10"/>
</g>
<g style="mix-blend-mode:overlay" opacity="0.24">
<path d="M329.656 118.931L218.686 230.088" stroke="white" stroke-width="1.59" stroke-miterlimit="10"/>
</g>
<g style="mix-blend-mode:overlay" opacity="0.24">
<path d="M335.467 118.931L224.496 230.088" stroke="white" stroke-width="1.59" stroke-miterlimit="10"/>
</g>
<g style="mix-blend-mode:overlay" opacity="0.24">
<path d="M341.267 118.931L230.297 230.088" stroke="white" stroke-width="1.59" stroke-miterlimit="10"/>
</g>
<g style="mix-blend-mode:overlay" opacity="0.24">
<path d="M347.077 118.931L236.107 230.088" stroke="white" stroke-width="1.59" stroke-miterlimit="10"/>
</g>
<g style="mix-blend-mode:overlay" opacity="0.24">
<path d="M352.877 118.931L241.907 230.088" stroke="white" stroke-width="1.59" stroke-miterlimit="10"/>
</g>
<g style="mix-blend-mode:overlay" opacity="0.24">
<path d="M358.688 118.931L247.717 230.088" stroke="white" stroke-width="1.59" stroke-miterlimit="10"/>
</g>
<g style="mix-blend-mode:overlay" opacity="0.24">
<path d="M364.498 118.931L253.518 230.088" stroke="white" stroke-width="1.59" stroke-miterlimit="10"/>
</g>
<g style="mix-blend-mode:overlay" opacity="0.24">
<path d="M370.298 118.931L259.328 230.088" stroke="white" stroke-width="1.59" stroke-miterlimit="10"/>
</g>
<g style="mix-blend-mode:overlay" opacity="0.24">
<path d="M376.108 118.931L265.128 230.088" stroke="white" stroke-width="1.59" stroke-miterlimit="10"/>
</g>
<g style="mix-blend-mode:overlay" opacity="0.24">
<path d="M381.908 118.931L270.938 230.088" stroke="white" stroke-width="1.59" stroke-miterlimit="10"/>
</g>
<g style="mix-blend-mode:overlay" opacity="0.24">
<path d="M387.718 118.931L276.748 230.088" stroke="white" stroke-width="1.59" stroke-miterlimit="10"/>
</g>
<g style="mix-blend-mode:overlay" opacity="0.24">
<path d="M393.519 118.931L282.549 230.088" stroke="white" stroke-width="1.59" stroke-miterlimit="10"/>
</g>
<g style="mix-blend-mode:overlay" opacity="0.24">
<path d="M399.329 118.931L288.359 230.088" stroke="white" stroke-width="1.59" stroke-miterlimit="10"/>
</g>
<g style="mix-blend-mode:overlay" opacity="0.24">
<path d="M405.129 118.931L294.159 230.088" stroke="white" stroke-width="1.59" stroke-miterlimit="10"/>
</g>
<g style="mix-blend-mode:overlay" opacity="0.24">
<path d="M410.939 118.931L299.969 230.088" stroke="white" stroke-width="1.59" stroke-miterlimit="10"/>
</g>
<g style="mix-blend-mode:overlay" opacity="0.24">
<path d="M416.74 118.931L305.769 230.088" stroke="white" stroke-width="1.59" stroke-miterlimit="10"/>
</g>
<g style="mix-blend-mode:overlay" opacity="0.24">
<path d="M422.55 118.931L311.579 230.088" stroke="white" stroke-width="1.59" stroke-miterlimit="10"/>
</g>
<g style="mix-blend-mode:overlay" opacity="0.24">
<path d="M428.36 118.931L317.38 230.088" stroke="white" stroke-width="1.59" stroke-miterlimit="10"/>
</g>
<g style="mix-blend-mode:overlay" opacity="0.24">
<path d="M434.16 118.931L323.19 230.088" stroke="white" stroke-width="1.59" stroke-miterlimit="10"/>
</g>
<g style="mix-blend-mode:overlay" opacity="0.24">
<path d="M439.97 118.931L328.99 230.088" stroke="white" stroke-width="1.59" stroke-miterlimit="10"/>
</g>
<g style="mix-blend-mode:overlay" opacity="0.24">
<path d="M445.77 118.931L334.8 230.088" stroke="white" stroke-width="1.59" stroke-miterlimit="10"/>
</g>
<g style="mix-blend-mode:overlay" opacity="0.24">
<path d="M451.581 118.931L340.61 230.088" stroke="white" stroke-width="1.59" stroke-miterlimit="10"/>
</g>
<g style="mix-blend-mode:overlay" opacity="0.24">
<path d="M457.381 118.931L346.411 230.088" stroke="white" stroke-width="1.59" stroke-miterlimit="10"/>
</g>
<g style="mix-blend-mode:overlay" opacity="0.24">
<path d="M463.191 118.931L352.221 230.088" stroke="white" stroke-width="1.59" stroke-miterlimit="10"/>
</g>
<g style="mix-blend-mode:overlay" opacity="0.24">
<path d="M468.991 118.931L358.021 230.088" stroke="white" stroke-width="1.59" stroke-miterlimit="10"/>
</g>
<g style="mix-blend-mode:overlay" opacity="0.24">
<path d="M474.802 118.931L363.832 230.088" stroke="white" stroke-width="1.59" stroke-miterlimit="10"/>
</g>
</g>
</g>
<g style="mix-blend-mode:overlay" opacity="0.24">
<g style="mix-blend-mode:overlay" opacity="0.24">
<g style="mix-blend-mode:overlay" opacity="0.24">
<path d="M145.81 157.383L34.8397 268.54" stroke="white" stroke-width="1.59" stroke-miterlimit="10"/>
</g>
<g style="mix-blend-mode:overlay" opacity="0.24">
<path d="M151.61 157.383L40.64 268.54" stroke="white" stroke-width="1.59" stroke-miterlimit="10"/>
</g>
<g style="mix-blend-mode:overlay" opacity="0.24">
<path d="M157.42 157.383L46.4501 268.54" stroke="white" stroke-width="1.59" stroke-miterlimit="10"/>
</g>
<g style="mix-blend-mode:overlay" opacity="0.24">
<path d="M163.221 157.383L52.2505 268.54" stroke="white" stroke-width="1.59" stroke-miterlimit="10"/>
</g>
<g style="mix-blend-mode:overlay" opacity="0.24">
<path d="M169.031 157.383L58.0605 268.54" stroke="white" stroke-width="1.59" stroke-miterlimit="10"/>
</g>
<g style="mix-blend-mode:overlay" opacity="0.24">
<path d="M174.831 157.383L63.8608 268.54" stroke="white" stroke-width="1.59" stroke-miterlimit="10"/>
</g>
<g style="mix-blend-mode:overlay" opacity="0.24">
<path d="M180.642 157.383L69.6713 268.54" stroke="white" stroke-width="1.59" stroke-miterlimit="10"/>
</g>
<g style="mix-blend-mode:overlay" opacity="0.24">
<path d="M186.451 157.383L75.4713 268.54" stroke="white" stroke-width="1.59" stroke-miterlimit="10"/>
</g>
<g style="mix-blend-mode:overlay" opacity="0.24">
<path d="M192.252 157.383L81.2812 268.54" stroke="white" stroke-width="1.59" stroke-miterlimit="10"/>
</g>
<g style="mix-blend-mode:overlay" opacity="0.24">
<path d="M198.062 157.383L87.0818 268.54" stroke="white" stroke-width="1.59" stroke-miterlimit="10"/>
</g>
<g style="mix-blend-mode:overlay" opacity="0.24">
<path d="M203.862 157.383L92.8918 268.54" stroke="white" stroke-width="1.59" stroke-miterlimit="10"/>
</g>
<g style="mix-blend-mode:overlay" opacity="0.24">
<path d="M209.672 157.383L98.7019 268.54" stroke="white" stroke-width="1.59" stroke-miterlimit="10"/>
</g>
<g style="mix-blend-mode:overlay" opacity="0.24">
<path d="M215.473 157.383L104.502 268.54" stroke="white" stroke-width="1.59" stroke-miterlimit="10"/>
</g>
<g style="mix-blend-mode:overlay" opacity="0.24">
<path d="M221.283 157.383L110.312 268.54" stroke="white" stroke-width="1.59" stroke-miterlimit="10"/>
</g>
<g style="mix-blend-mode:overlay" opacity="0.24">
<path d="M227.083 157.383L116.113 268.54" stroke="white" stroke-width="1.59" stroke-miterlimit="10"/>
</g>
<g style="mix-blend-mode:overlay" opacity="0.24">
<path d="M232.893 157.383L121.923 268.54" stroke="white" stroke-width="1.59" stroke-miterlimit="10"/>
</g>
<g style="mix-blend-mode:overlay" opacity="0.24">
<path d="M238.694 157.383L127.723 268.54" stroke="white" stroke-width="1.59" stroke-miterlimit="10"/>
</g>
<g style="mix-blend-mode:overlay" opacity="0.24">
<path d="M244.504 157.383L133.533 268.54" stroke="white" stroke-width="1.59" stroke-miterlimit="10"/>
</g>
<g style="mix-blend-mode:overlay" opacity="0.24">
<path d="M250.314 157.383L139.334 268.54" stroke="white" stroke-width="1.59" stroke-miterlimit="10"/>
</g>
<g style="mix-blend-mode:overlay" opacity="0.24">
<path d="M256.114 157.383L145.144 268.54" stroke="white" stroke-width="1.59" stroke-miterlimit="10"/>
</g>
<g style="mix-blend-mode:overlay" opacity="0.24">
<path d="M261.924 157.383L150.944 268.54" stroke="white" stroke-width="1.59" stroke-miterlimit="10"/>
</g>
<g style="mix-blend-mode:overlay" opacity="0.24">
<path d="M267.724 157.383L156.754 268.54" stroke="white" stroke-width="1.59" stroke-miterlimit="10"/>
</g>
<g style="mix-blend-mode:overlay" opacity="0.24">
<path d="M273.535 157.383L162.564 268.54" stroke="white" stroke-width="1.59" stroke-miterlimit="10"/>
</g>
<g style="mix-blend-mode:overlay" opacity="0.24">
<path d="M279.335 157.383L168.365 268.54" stroke="white" stroke-width="1.59" stroke-miterlimit="10"/>
</g>
<g style="mix-blend-mode:overlay" opacity="0.24">
<path d="M285.145 157.383L174.175 268.54" stroke="white" stroke-width="1.59" stroke-miterlimit="10"/>
</g>
<g style="mix-blend-mode:overlay" opacity="0.24">
<path d="M290.945 157.383L179.975 268.54" stroke="white" stroke-width="1.59" stroke-miterlimit="10"/>
</g>
<g style="mix-blend-mode:overlay" opacity="0.24">
<path d="M296.756 157.383L185.785 268.54" stroke="white" stroke-width="1.59" stroke-miterlimit="10"/>
</g>
<g style="mix-blend-mode:overlay" opacity="0.24">
<path d="M302.556 157.383L191.585 268.54" stroke="white" stroke-width="1.59" stroke-miterlimit="10"/>
</g>
<g style="mix-blend-mode:overlay" opacity="0.24">
<path d="M308.366 157.383L197.396 268.54" stroke="white" stroke-width="1.59" stroke-miterlimit="10"/>
</g>
<g style="mix-blend-mode:overlay" opacity="0.24">
<path d="M314.176 157.383L203.196 268.54" stroke="white" stroke-width="1.59" stroke-miterlimit="10"/>
</g>
<g style="mix-blend-mode:overlay" opacity="0.24">
<path d="M319.976 157.383L209.006 268.54" stroke="white" stroke-width="1.59" stroke-miterlimit="10"/>
</g>
<g style="mix-blend-mode:overlay" opacity="0.24">
<path d="M325.786 157.383L214.806 268.54" stroke="white" stroke-width="1.59" stroke-miterlimit="10"/>
</g>
<g style="mix-blend-mode:overlay" opacity="0.24">
<path d="M331.587 157.383L220.616 268.54" stroke="white" stroke-width="1.59" stroke-miterlimit="10"/>
</g>
<g style="mix-blend-mode:overlay" opacity="0.24">
<path d="M337.397 157.383L226.427 268.54" stroke="white" stroke-width="1.59" stroke-miterlimit="10"/>
</g>
<g style="mix-blend-mode:overlay" opacity="0.24">
<path d="M343.197 157.383L232.227 268.54" stroke="white" stroke-width="1.59" stroke-miterlimit="10"/>
</g>
<g style="mix-blend-mode:overlay" opacity="0.24">
<path d="M349.007 157.383L238.037 268.54" stroke="white" stroke-width="1.59" stroke-miterlimit="10"/>
</g>
<g style="mix-blend-mode:overlay" opacity="0.24">
<path d="M354.808 157.383L243.838 268.54" stroke="white" stroke-width="1.59" stroke-miterlimit="10"/>
</g>
</g>
</g>
<g style="mix-blend-mode:overlay" opacity="0.24">
<g style="mix-blend-mode:overlay" opacity="0.24">
<g style="mix-blend-mode:overlay" opacity="0.24">
<path d="M264.677 271.219L153.707 382.377" stroke="white" stroke-width="1.59" stroke-miterlimit="10"/>
</g>
<g style="mix-blend-mode:overlay" opacity="0.24">
<path d="M270.487 271.219L159.517 382.377" stroke="white" stroke-width="1.59" stroke-miterlimit="10"/>
</g>
<g style="mix-blend-mode:overlay" opacity="0.24">
<path d="M276.288 271.219L165.318 382.377" stroke="white" stroke-width="1.59" stroke-miterlimit="10"/>
</g>
<g style="mix-blend-mode:overlay" opacity="0.24">
<path d="M282.098 271.219L171.128 382.377" stroke="white" stroke-width="1.59" stroke-miterlimit="10"/>
</g>
<g style="mix-blend-mode:overlay" opacity="0.24">
<path d="M287.898 271.219L176.928 382.377" stroke="white" stroke-width="1.59" stroke-miterlimit="10"/>
</g>
<g style="mix-blend-mode:overlay" opacity="0.24">
<path d="M293.708 271.219L182.738 382.377" stroke="white" stroke-width="1.59" stroke-miterlimit="10"/>
</g>
<g style="mix-blend-mode:overlay" opacity="0.24">
<path d="M299.519 271.219L188.539 382.377" stroke="white" stroke-width="1.59" stroke-miterlimit="10"/>
</g>
<g style="mix-blend-mode:overlay" opacity="0.24">
<path d="M305.319 271.219L194.349 382.377" stroke="white" stroke-width="1.59" stroke-miterlimit="10"/>
</g>
<g style="mix-blend-mode:overlay" opacity="0.24">
<path d="M311.129 271.219L200.149 382.377" stroke="white" stroke-width="1.59" stroke-miterlimit="10"/>
</g>
<g style="mix-blend-mode:overlay" opacity="0.24">
<path d="M316.929 271.219L205.959 382.377" stroke="white" stroke-width="1.59" stroke-miterlimit="10"/>
</g>
<g style="mix-blend-mode:overlay" opacity="0.24">
<path d="M322.74 271.219L211.769 382.377" stroke="white" stroke-width="1.59" stroke-miterlimit="10"/>
</g>
<g style="mix-blend-mode:overlay" opacity="0.24">
<path d="M328.54 271.219L217.569 382.377" stroke="white" stroke-width="1.59" stroke-miterlimit="10"/>
</g>
<g style="mix-blend-mode:overlay" opacity="0.24">
<path d="M334.35 271.219L223.38 382.377" stroke="white" stroke-width="1.59" stroke-miterlimit="10"/>
</g>
<g style="mix-blend-mode:overlay" opacity="0.24">
<path d="M340.15 271.219L229.18 382.377" stroke="white" stroke-width="1.59" stroke-miterlimit="10"/>
</g>
<g style="mix-blend-mode:overlay" opacity="0.24">
<path d="M345.96 271.219L234.99 382.377" stroke="white" stroke-width="1.59" stroke-miterlimit="10"/>
</g>
<g style="mix-blend-mode:overlay" opacity="0.24">
<path d="M351.76 271.219L240.79 382.377" stroke="white" stroke-width="1.59" stroke-miterlimit="10"/>
</g>
<g style="mix-blend-mode:overlay" opacity="0.24">
<path d="M357.571 271.219L246.601 382.377" stroke="white" stroke-width="1.59" stroke-miterlimit="10"/>
</g>
<g style="mix-blend-mode:overlay" opacity="0.24">
<path d="M363.381 271.219L252.401 382.377" stroke="white" stroke-width="1.59" stroke-miterlimit="10"/>
</g>
<g style="mix-blend-mode:overlay" opacity="0.24">
<path d="M369.181 271.219L258.211 382.377" stroke="white" stroke-width="1.59" stroke-miterlimit="10"/>
</g>
<g style="mix-blend-mode:overlay" opacity="0.24">
<path d="M374.991 271.219L264.011 382.377" stroke="white" stroke-width="1.59" stroke-miterlimit="10"/>
</g>
<g style="mix-blend-mode:overlay" opacity="0.24">
<path d="M380.792 271.219L269.821 382.377" stroke="white" stroke-width="1.59" stroke-miterlimit="10"/>
</g>
<g style="mix-blend-mode:overlay" opacity="0.24">
<path d="M386.602 271.219L275.631 382.377" stroke="white" stroke-width="1.59" stroke-miterlimit="10"/>
</g>
<g style="mix-blend-mode:overlay" opacity="0.24">
<path d="M392.402 271.219L281.432 382.377" stroke="white" stroke-width="1.59" stroke-miterlimit="10"/>
</g>
<g style="mix-blend-mode:overlay" opacity="0.24">
<path d="M398.212 271.219L287.242 382.377" stroke="white" stroke-width="1.59" stroke-miterlimit="10"/>
</g>
<g style="mix-blend-mode:overlay" opacity="0.24">
<path d="M404.013 271.219L293.042 382.377" stroke="white" stroke-width="1.59" stroke-miterlimit="10"/>
</g>
<g style="mix-blend-mode:overlay" opacity="0.24">
<path d="M409.823 271.219L298.852 382.377" stroke="white" stroke-width="1.59" stroke-miterlimit="10"/>
</g>
<g style="mix-blend-mode:overlay" opacity="0.24">
<path d="M415.623 271.219L304.653 382.377" stroke="white" stroke-width="1.59" stroke-miterlimit="10"/>
</g>
<g style="mix-blend-mode:overlay" opacity="0.24">
<path d="M421.433 271.219L310.463 382.377" stroke="white" stroke-width="1.59" stroke-miterlimit="10"/>
</g>
<g style="mix-blend-mode:overlay" opacity="0.24">
<path d="M427.243 271.219L316.263 382.377" stroke="white" stroke-width="1.59" stroke-miterlimit="10"/>
</g>
<g style="mix-blend-mode:overlay" opacity="0.24">
<path d="M433.044 271.219L322.073 382.377" stroke="white" stroke-width="1.59" stroke-miterlimit="10"/>
</g>
<g style="mix-blend-mode:overlay" opacity="0.24">
<path d="M438.854 271.219L327.873 382.377" stroke="white" stroke-width="1.59" stroke-miterlimit="10"/>
</g>
<g style="mix-blend-mode:overlay" opacity="0.24">
<path d="M444.654 271.219L333.683 382.377" stroke="white" stroke-width="1.59" stroke-miterlimit="10"/>
</g>
<g style="mix-blend-mode:overlay" opacity="0.24">
<path d="M450.464 271.219L339.494 382.377" stroke="white" stroke-width="1.59" stroke-miterlimit="10"/>
</g>
<g style="mix-blend-mode:overlay" opacity="0.24">
<path d="M456.264 271.219L345.294 382.377" stroke="white" stroke-width="1.59" stroke-miterlimit="10"/>
</g>
<g style="mix-blend-mode:overlay" opacity="0.24">
<path d="M462.074 271.219L351.104 382.377" stroke="white" stroke-width="1.59" stroke-miterlimit="10"/>
</g>
<g style="mix-blend-mode:overlay" opacity="0.24">
<path d="M467.875 271.219L356.905 382.377" stroke="white" stroke-width="1.59" stroke-miterlimit="10"/>
</g>
<g style="mix-blend-mode:overlay" opacity="0.24">
<path d="M473.685 271.219L362.715 382.377" stroke="white" stroke-width="1.59" stroke-miterlimit="10"/>
</g>
</g>
</g>
</g>
<path opacity="0.3" d="M170.167 87.7309C169.403 86.0134 167.698 84.816 165.699 84.816C164.7 84.816 163.779 85.1203 163.005 85.6306C162.221 83.972 160.546 82.8237 158.596 82.8237C157.195 82.8237 155.95 83.4126 155.049 84.3547C153.55 82.6274 151.346 81.538 148.886 81.538C146.3 81.538 144.007 82.7452 142.508 84.6197C141.606 83.5401 140.274 82.8335 138.755 82.8335C138.697 82.8335 138.648 82.8433 138.599 82.8531C136.786 79.1433 132.994 76.5818 128.595 76.5818C124.196 76.5818 120.13 79.32 118.405 83.2359C117.808 82.9807 117.161 82.8335 116.475 82.8335C114.133 82.8335 112.184 84.4823 111.694 86.6807C110.9 86.1213 109.93 85.7778 108.882 85.7778C107.285 85.7778 105.884 86.5531 104.982 87.7407H170.177L170.167 87.7309Z" fill="#43A1F6"/>
<path opacity="0.3" d="M301.106 107.232C301.743 105.789 303.183 104.788 304.858 104.788C305.691 104.788 306.475 105.043 307.122 105.475C307.788 104.081 309.189 103.12 310.825 103.12C312.001 103.12 313.049 103.62 313.804 104.405C315.058 102.953 316.91 102.04 318.977 102.04C321.142 102.04 323.082 103.051 324.337 104.621C325.091 103.709 326.218 103.12 327.491 103.12C327.54 103.12 327.58 103.129 327.629 103.129C329.147 100.009 332.341 97.8592 336.035 97.8592C339.729 97.8592 343.139 100.156 344.598 103.453C345.098 103.237 345.647 103.12 346.225 103.12C348.194 103.12 349.831 104.503 350.242 106.349C350.908 105.877 351.721 105.593 352.603 105.593C353.946 105.593 355.121 106.25 355.876 107.242H301.116L301.106 107.232Z" fill="#43A1F6"/>
<path d="M306.651 249.461C298.127 247.96 288.908 223.08 304.78 214.738C320.652 206.406 326.002 201.989 329.314 182.567C332.625 163.144 343.913 172.37 341.375 183.735C338.837 195.1 355.778 193.686 359.305 199.104C365.429 208.496 351.878 209.998 344.128 215.347C336.368 220.695 350.213 224.346 344.706 233.395C339.2 242.444 321.182 252.023 306.651 249.461V249.461Z" fill="#0373D8"/>
<path d="M305.78 249.226L308.797 243.896L311.884 238.616C313.941 235.093 316.097 231.628 318.282 228.184C320.486 224.749 322.71 221.333 325.071 217.996C326.247 216.328 327.443 214.669 328.648 213.03C329.892 211.411 331.127 209.792 332.449 208.231C331.901 209.095 331.342 209.939 330.764 210.783L329.108 213.354C328.001 215.062 326.884 216.77 325.806 218.497L319.252 228.812C317.047 232.237 314.872 235.682 312.628 239.087C310.385 242.493 308.2 245.938 305.78 249.226V249.226Z" fill="white"/>
<path d="M314.578 235.122C317.939 233.876 321.378 232.973 324.836 232.149C328.305 231.364 331.783 230.657 335.349 230.294C331.989 231.55 328.55 232.453 325.091 233.268C321.623 234.053 318.144 234.759 314.578 235.122Z" fill="white"/>
<path d="M323.014 221.893C322.632 219.802 322.602 217.722 322.651 215.641C322.74 213.56 322.916 211.49 323.445 209.428C323.827 211.519 323.866 213.6 323.807 215.68C323.719 217.761 323.543 219.832 323.014 221.893Z" fill="white"/>
<path d="M309.316 261.935C309.316 261.935 304.535 252.582 312.696 246.595C320.858 240.599 324.473 232.904 319.81 225.818C315.156 218.742 303.192 223.149 298.147 219.773C293.091 216.387 295.266 209.144 291.122 201.312C285.566 190.811 274.818 193.588 272.3 195.208C269.782 196.827 265.324 201.783 271.163 211.303C277.003 220.823 272.702 224.16 268.057 231.638C263.413 239.117 271.555 242.022 284.763 244.544C297.97 247.066 300.253 263.319 300.253 263.319L309.316 261.935" fill="#0055A3"/>
<path d="M305.956 271.327C305.877 268.226 305.574 265.154 305.142 262.102C304.692 259.05 304.182 256.017 303.457 253.024C302.762 250.03 301.958 247.057 301.037 244.132L299.587 239.755L297.912 235.466C297.402 234.013 296.716 232.639 296.089 231.236C295.443 229.842 294.865 228.419 294.12 227.075L291.994 222.982C291.661 222.285 291.23 221.657 290.838 220.99L289.662 219.007C286.576 213.678 282.833 208.771 279.061 203.854C280.109 204.983 281.157 206.131 282.186 207.289C283.205 208.457 284.312 209.556 285.223 210.812C287.085 213.295 289.045 215.719 290.671 218.369C294.179 223.512 296.932 229.145 299.342 234.887C301.723 240.648 303.447 246.674 304.604 252.788C305.191 255.85 305.583 258.932 305.877 262.033C306.054 265.135 306.201 268.246 305.936 271.337L305.956 271.327Z" fill="white"/>
<path d="M300.371 240.923C298.656 239.303 296.736 238.018 294.737 236.909C292.728 235.819 290.622 234.936 288.447 234.259C287.349 233.964 286.252 233.621 285.125 233.434C284.567 233.326 284.008 233.169 283.44 233.101C282.872 233.032 282.304 232.944 281.735 232.855C281.167 232.747 280.589 232.718 280.021 232.669L278.286 232.512C277.13 232.433 275.964 232.433 274.779 232.325C275.935 232.09 277.101 231.893 278.277 231.746C279.452 231.707 280.648 231.56 281.833 231.648C284.224 231.687 286.595 232.129 288.907 232.777C291.19 233.513 293.405 234.514 295.384 235.878C297.353 237.232 299.166 238.891 300.39 240.932L300.371 240.923Z" fill="white"/>
<path d="M302.389 246.743C301.645 244.74 301.4 242.552 301.527 240.383C301.654 238.204 302.272 236.035 303.349 234.092L303.761 233.366C303.908 233.13 304.094 232.914 304.251 232.698C304.604 232.266 304.888 231.785 305.289 231.403L306.494 230.264C306.896 229.882 307.386 229.617 307.827 229.302C308.699 228.625 309.747 228.272 310.708 227.811C311.717 227.438 312.775 227.202 313.794 226.967C312.873 227.536 311.913 227.948 311.041 228.498C310.188 229.096 309.277 229.577 308.542 230.284C306.945 231.53 305.662 233.11 304.701 234.848C303.712 236.575 303.085 238.518 302.722 240.52C302.379 242.532 302.262 244.613 302.379 246.733L302.389 246.743Z" fill="white"/>
<path d="M337.926 257.106C353.063 260.944 353.426 247.734 344.157 240.363C338.357 235.76 350.193 233.297 354.778 228.822C362.655 221.127 350.026 211.46 343.471 218.203C336.926 224.935 332.86 227.006 328.089 227.595C323.317 228.184 309.855 228.331 311.011 236.909C311.736 242.257 307.121 246.821 307.748 252.18C321.74 247.439 330.038 255.104 337.926 257.097V257.106Z" fill="#43A1F6"/>
<path d="M307.748 252.18C313.255 247.38 319.192 243.131 325.306 239.156C328.383 237.203 331.508 235.319 334.722 233.572C337.935 231.835 341.227 230.254 344.627 228.91C341.482 230.765 338.396 232.669 335.3 234.553C332.223 236.487 329.157 238.41 326.109 240.373L316.958 246.281C313.921 248.264 310.844 250.217 307.758 252.16L307.748 252.18Z" fill="white"/>
<path d="M323.297 241.345C323.16 240.324 323.16 239.323 323.209 238.332C323.248 237.34 323.366 236.359 323.523 235.387C323.679 234.416 323.885 233.444 324.16 232.492C324.424 231.54 324.738 230.588 325.198 229.666C325.345 230.686 325.335 231.687 325.286 232.679C325.247 233.67 325.13 234.651 324.973 235.623C324.816 236.595 324.61 237.566 324.336 238.518C324.071 239.47 323.758 240.422 323.297 241.345Z" fill="white"/>
<path d="M319.153 244.112C320.946 243.818 322.739 243.661 324.522 243.563C326.315 243.455 328.108 243.425 329.891 243.415C331.684 243.435 333.477 243.474 335.26 243.592C337.053 243.7 338.837 243.867 340.63 244.181C338.837 244.485 337.044 244.632 335.26 244.74C333.467 244.848 331.674 244.878 329.891 244.888C328.098 244.868 326.305 244.829 324.522 244.711C322.729 244.593 320.946 244.436 319.153 244.122V244.112Z" fill="white"/>
<path d="M323.866 276.863H301.713L296.559 254.692H329.02L323.866 276.863Z" fill="#003261"/>
<path d="M332.488 249.049H293.101V257.97H332.488V249.049Z" fill="#0B5BA5"/>
<g opacity="0.74">
<path opacity="0.74" d="M106.903 251.797C108.48 247.881 112.272 246.703 114.124 243.17C117.445 236.85 111.86 235.221 111.194 231.02C110.312 225.426 114.232 225.926 116.25 222.521C118.631 218.517 114.604 213.776 117.073 209.978C123.216 200.527 133.21 210.91 139.716 213.099C143.703 214.434 149.67 215.003 152.815 212.461C156.96 209.105 161.095 201.332 156.705 196.847C150.523 190.526 152.786 187.278 159.478 185.678C162.437 184.971 163.799 182.704 160.507 180.123C165.504 187.356 148.847 180.771 145.879 185.678C143.821 189.083 146.359 191.095 147.074 193.716C148.906 200.419 144.311 206.18 134.719 199.477C129.203 195.62 129.673 188.75 123.824 186.993C118.356 185.354 112.007 190.261 109.999 196.837C108.01 203.344 105.649 206.68 98.6432 205.944C90.3248 205.061 83.9073 210.233 87.6206 217.692C90.9225 224.307 100.064 220.548 104.698 224.336C109.842 228.547 108.245 234.337 101.583 239.774C99.5152 241.462 96.3407 243.985 97.1539 246.86C97.683 248.725 101.004 251.689 103.15 251.767L106.893 251.807L106.903 251.797Z" fill="white"/>
</g>
<path d="M119.219 254.408H117.436V252.003C117.436 250.973 116.603 250.148 115.584 250.148H94.5184C93.4896 250.148 92.6666 250.982 92.6666 252.003V266.754C92.6666 272.338 97.1834 276.873 102.768 276.873H107.344C111.772 276.873 115.525 274.007 116.887 270.032H119.219C121.002 270.032 122.442 268.589 122.442 266.803V257.646C122.442 255.86 121.002 254.417 119.219 254.417V254.408ZM120.385 266.803C120.385 267.441 119.865 267.971 119.219 267.971H117.357C117.406 267.569 117.436 267.166 117.436 266.754V256.478H119.219C119.856 256.478 120.385 256.999 120.385 257.646V266.803V266.803Z" fill="#BDBCBA"/>
<path d="M114.731 255.379C114.731 253.544 114.349 251.787 113.663 250.138H94.5184C93.4896 250.138 92.6666 250.973 92.6666 251.993V266.744C92.6666 268.53 93.1369 270.209 93.9403 271.661C94.2343 271.671 94.5184 271.7 94.8124 271.7C105.815 271.7 114.731 264.389 114.731 255.369V255.379Z" fill="#CACACA"/>
<path d="M340.238 299.092H73.4922C70.641 299.092 68.3287 296.776 68.3287 293.92C68.3287 291.064 70.641 288.748 73.4922 288.748H340.238C343.089 288.748 345.402 291.064 345.402 293.92C345.402 296.776 343.089 299.092 340.238 299.092Z" fill="#0B5BA5"/>
<path d="M346.773 291.466H66.957C62.93 291.466 59.6674 288.198 59.6674 284.165C59.6674 280.131 62.93 276.863 66.957 276.863H346.773C350.8 276.863 354.063 280.131 354.063 284.165C354.063 288.198 350.8 291.466 346.773 291.466Z" fill="#003261"/>
<path d="M301.497 156.824C311.952 156.824 320.427 148.334 320.427 137.862C320.427 127.39 311.952 118.901 301.497 118.901C291.043 118.901 282.568 127.39 282.568 137.862C282.568 148.334 291.043 156.824 301.497 156.824Z" fill="#123978"/>
<path d="M301.498 152.643C309.647 152.643 316.253 146.025 316.253 137.862C316.253 129.699 309.647 123.082 301.498 123.082C293.348 123.082 286.742 129.699 286.742 137.862C286.742 146.025 293.348 152.643 301.498 152.643Z" fill="white"/>
<path d="M301.497 137.862V128.98" stroke="#4B4583" stroke-width="0.98" stroke-linecap="round" stroke-linejoin="round"/>
<path d="M301.497 137.862L306.916 143.3" stroke="#4B4583" stroke-width="0.98" stroke-linecap="round" stroke-linejoin="round"/>
<path d="M301.488 150.974V149.227" stroke="#4B4583" stroke-width="0.68" stroke-linecap="round" stroke-linejoin="round"/>
<path d="M308.033 149.227L307.161 147.696" stroke="#4B4583" stroke-width="0.68" stroke-linecap="round" stroke-linejoin="round"/>
<path d="M312.824 144.428L311.305 143.545" stroke="#4B4583" stroke-width="0.68" stroke-linecap="round" stroke-linejoin="round"/>
<path d="M314.588 137.872H312.824" stroke="#4B4583" stroke-width="0.68" stroke-linecap="round" stroke-linejoin="round"/>
<path d="M312.824 131.316L311.315 132.19" stroke="#4B4583" stroke-width="0.68" stroke-linecap="round" stroke-linejoin="round"/>
<path d="M308.033 126.517L307.161 128.028" stroke="#4B4583" stroke-width="0.68" stroke-linecap="round" stroke-linejoin="round"/>
<path d="M301.488 126.517V124.75" stroke="#4B4583" stroke-width="0.68" stroke-linecap="round" stroke-linejoin="round"/>
<path d="M295.825 128.038L294.953 126.517" stroke="#4B4583" stroke-width="0.68" stroke-linecap="round" stroke-linejoin="round"/>
<path d="M291.67 132.19L290.162 131.316" stroke="#4B4583" stroke-width="0.68" stroke-linecap="round" stroke-linejoin="round"/>
<path d="M290.161 137.872H288.408" stroke="#4B4583" stroke-width="0.68" stroke-linecap="round" stroke-linejoin="round"/>
<path d="M291.68 143.545L290.162 144.428" stroke="#4B4583" stroke-width="0.68" stroke-linecap="round" stroke-linejoin="round"/>
<path d="M295.825 147.696L294.953 149.227" stroke="#4B4583" stroke-width="0.68" stroke-linecap="round" stroke-linejoin="round"/>
<path d="M301.498 138.716C301.968 138.716 302.35 138.334 302.35 137.862C302.35 137.391 301.968 137.009 301.498 137.009C301.027 137.009 300.645 137.391 300.645 137.862C300.645 138.334 301.027 138.716 301.498 138.716Z" fill="#123978"/>
<path d="M164.357 117.468C156.303 109.401 143.194 109.489 135.258 117.733C127.968 125.3 127.645 137.421 134.562 145.341C141.274 153.026 152.228 154.38 160.438 149.424C161.163 148.982 162.045 148.884 162.858 149.129L168.012 150.67C168.404 150.788 168.766 150.425 168.658 150.022L167.12 144.86C166.875 144.045 166.983 143.162 167.414 142.426C172.127 134.575 171.108 124.24 164.347 117.468H164.357Z" fill="#BDBCBA"/>
<path d="M138.393 122.974H161.506" stroke="white" stroke-width="1.67" stroke-linecap="round" stroke-linejoin="round"/>
<path d="M155.96 128.931H161.506" stroke="white" stroke-width="1.67" stroke-linecap="round" stroke-linejoin="round"/>
<path d="M138.393 128.931H150.454" stroke="white" stroke-width="1.67" stroke-linecap="round" stroke-linejoin="round"/>
<path d="M148.955 134.889H161.506" stroke="white" stroke-width="1.67" stroke-linecap="round" stroke-linejoin="round"/>
<path d="M138.393 134.889H144.419" stroke="white" stroke-width="1.67" stroke-linecap="round" stroke-linejoin="round"/>
<path d="M155.96 140.846H161.506" stroke="white" stroke-width="1.67" stroke-linecap="round" stroke-linejoin="round"/>
<path d="M138.393 140.846H150.18" stroke="white" stroke-width="1.67" stroke-linecap="round" stroke-linejoin="round"/>
<path d="M207.017 127.165C207.017 127.165 204.96 118.047 213.719 110.215C222.478 102.384 236.019 103.1 243.446 107.183C253.067 112.473 262.512 126.478 253.88 146.489C245.248 166.501 284.812 158.237 271.536 185.344C258.26 212.451 235.323 193.735 227.073 204.963C218.824 216.191 190.273 186.748 214.669 166.167C239.056 145.586 208.859 145.675 207.017 127.165V127.165Z" fill="#914E00"/>
<path d="M204.783 186.885C194.77 191.164 186.481 216.573 185.707 270.788H207.282C207.282 270.788 220.391 180.221 204.783 186.885V186.885Z" fill="#162F50"/>
<path d="M231.551 178.808C243.387 177.64 262.669 179.603 269.606 187.278C271.134 188.966 271.144 192.136 270.321 196.523C267.421 212.01 254.194 242.67 261.229 276.873H199.63C199.63 276.873 205.469 250.148 202.206 241.708C198.473 232.07 195.24 223.355 198.914 215.298C207.282 196.955 199.786 189.368 205.087 186.718C212.386 183.067 221.538 179.799 231.541 178.818L231.551 178.808Z" fill="#1C3658"/>
<path d="M256.976 224.189C254.4 239.166 237.087 241.011 228.406 238.086C228.406 238.086 241.035 245.742 250.137 241.443C250.137 241.443 252.46 248.755 248.991 271.759H260.317C260.317 271.759 260.317 271.71 260.317 271.642C258.524 259.609 259.083 248.097 260.651 237.645C260.945 234.995 261.336 232.59 261.856 230.647L261.875 230.588C263.316 223.257 265.109 216.554 266.715 210.695C267.401 206.73 267.666 203.255 267.666 198.898C267.666 198.898 259.543 209.222 256.967 224.199L256.976 224.189Z" fill="#162F50"/>
<path d="M257.623 256.331C257.623 256.331 246.865 269.571 241.662 265.989C234.774 261.238 229.101 261.327 224.545 264.055C219.823 266.882 218.02 271.769 218.02 271.769H254.948L265.696 262.455L257.623 256.341V256.331Z" fill="#F4AE98"/>
<path d="M270.008 187.817C270.008 187.817 279.502 212.657 287.644 232.973C294.218 249.363 254.586 271.71 254.586 271.71L248.041 262.926L270.87 237.586L256.908 208.104C256.908 208.104 248.815 192.018 261.101 186.316C267.94 183.146 270.008 187.827 270.008 187.827V187.817Z" fill="#1C3658"/>
<path d="M239.654 154.616C239.654 154.616 238.164 173.449 242.671 178.366C248.472 184.687 238.292 198.329 222.997 208.663C222.997 208.663 214.454 199.153 221.146 183.666C227.847 168.179 221.351 159.425 221.351 159.425L239.654 154.616Z" fill="#F4AE98"/>
<path d="M242.672 146.479C242.672 159.385 233.599 169.838 225.927 169.838C218.255 169.838 208.683 161.26 207.39 145.38C206.341 132.523 213.268 123.121 223.723 123.121C234.177 123.121 242.662 133.583 242.662 146.489L242.672 146.479Z" fill="#FFB99F"/>
<path d="M210.721 120.099C209.643 120.717 207.311 122.238 204.587 124.054C201.628 126.026 198.464 129.452 197.386 133.191C195.524 139.619 200.247 147.765 209.633 144.89C219.029 142.014 223.517 126.92 231.139 135.644C240.614 146.489 244.043 140.444 244.043 140.444C244.043 140.444 242.142 126.939 232.55 120.864C227.406 117.606 219.656 114.936 210.721 120.099V120.099Z" fill="#914E00"/>
<path d="M248.991 141.837C248.991 146.048 246.503 149.463 243.446 149.463C240.389 149.463 237.9 146.048 237.9 141.837C237.9 137.627 240.389 134.212 243.446 134.212C246.503 134.212 248.991 137.627 248.991 141.837Z" fill="#151F2C"/>
<path d="M225.986 116.428C217.452 114.779 209.222 118.008 204.587 124.044C209.702 120.54 216.403 119.019 223.272 120.344C234.608 122.532 242.642 131.758 242.907 141.994C243.112 141.327 243.289 140.65 243.426 139.943C245.493 129.206 237.684 118.675 225.995 116.418L225.986 116.428Z" fill="#151F2C"/>
<path d="M242.24 144.32C242.24 144.32 243.788 161.544 227.975 163.183" stroke="#151F2C" stroke-width="1.05" stroke-miterlimit="10"/>
<path d="M226.946 164.901H224.457C223.654 164.901 222.998 164.243 222.998 163.439C222.998 162.634 223.654 161.976 224.457 161.976H226.946C227.75 161.976 228.406 162.634 228.406 163.439C228.406 164.243 227.75 164.901 226.946 164.901Z" fill="#151F2C"/>
<path d="M263.874 271.701H174.165C172.91 271.701 171.892 272.72 171.892 273.977V274.586C171.892 275.843 172.91 276.863 174.165 276.863H263.874C265.129 276.863 266.147 275.843 266.147 274.586V273.977C266.147 272.72 265.129 271.701 263.874 271.701Z" fill="#004788"/>
<path d="M222.4 276.863H139.54C137.286 276.863 135.278 275.449 134.503 273.33L115.182 220.156C113.908 216.652 116.495 212.952 120.218 212.952H203.079C205.332 212.952 207.341 214.365 208.115 216.485L227.436 269.659C228.71 273.163 226.123 276.863 222.4 276.863Z" fill="#0055A2"/>
<path d="M118.308 213.315C118.621 244.741 160.634 270.16 212.436 270.16C217.511 270.16 222.498 269.914 227.358 269.443L208.115 216.495C207.341 214.375 205.332 212.962 203.079 212.962H120.218C119.532 212.962 118.896 213.089 118.308 213.315Z" fill="#0B5BA5"/>
<path d="M176.35 243.857C176.35 247.331 173.538 250.138 170.079 250.138C166.621 250.138 163.809 247.322 163.809 243.857C163.809 240.393 166.621 237.576 170.079 237.576C173.538 237.576 176.35 240.393 176.35 243.857Z" fill="#1468B6"/>
<path d="M266.225 77.2491C272.065 71.3997 281.579 71.4586 287.34 77.4454C292.631 82.9316 292.856 91.7252 287.84 97.4666C282.97 103.041 275.024 104.023 269.067 100.431C268.538 100.116 267.901 100.038 267.313 100.215L263.57 101.333C263.286 101.422 263.022 101.157 263.1 100.862L264.217 97.1133C264.393 96.5244 264.315 95.8767 264.001 95.3467C260.582 89.6544 261.317 82.1562 266.225 77.2393V77.2491Z" fill="#BDBCBA"/>
<path d="M268.469 90.1255C269.789 90.1255 270.86 89.0534 270.86 87.7308C270.86 86.4083 269.789 85.3361 268.469 85.3361C267.149 85.3361 266.078 86.4083 266.078 87.7308C266.078 89.0534 267.149 90.1255 268.469 90.1255Z" fill="white"/>
<path d="M276.67 90.1255C277.991 90.1255 279.061 89.0534 279.061 87.7308C279.061 86.4083 277.991 85.3361 276.67 85.3361C275.35 85.3361 274.28 86.4083 274.28 87.7308C274.28 89.0534 275.35 90.1255 276.67 90.1255Z" fill="white"/>
<path d="M284.881 90.1255C286.201 90.1255 287.271 89.0534 287.271 87.7308C287.271 86.4083 286.201 85.3361 284.881 85.3361C283.56 85.3361 282.49 86.4083 282.49 87.7308C282.49 89.0534 283.56 90.1255 284.881 90.1255Z" fill="white"/>
<g opacity="0.07">
<g opacity="0.07">
<path opacity="0.07" d="M328.843 76.8075L330.95 78.9274" stroke="#4B4583" stroke-linecap="round" stroke-linejoin="round"/>
<path opacity="0.07" d="M330.95 76.8075L328.843 78.9274" stroke="#4B4583" stroke-linecap="round" stroke-linejoin="round"/>
</g>
<g opacity="0.07">
<path opacity="0.07" d="M65.3795 189.643L69.6122 193.873" stroke="#4B4583" stroke-width="2" stroke-linecap="round" stroke-linejoin="round"/>
<path opacity="0.07" d="M69.6122 189.643L65.3795 193.873" stroke="#4B4583" stroke-width="2" stroke-linecap="round" stroke-linejoin="round"/>
</g>
<g opacity="0.07">
<path opacity="0.07" d="M181.905 164.901L184.864 167.865" stroke="#4B4583" stroke-width="1.4" stroke-linecap="round" stroke-linejoin="round"/>
<path opacity="0.07" d="M184.864 164.901L181.905 167.865" stroke="#4B4583" stroke-width="1.4" stroke-linecap="round" stroke-linejoin="round"/>
</g>
<g opacity="0.07">
<path opacity="0.07" d="M348.703 268.55L351.662 271.504" stroke="#4B4583" stroke-width="1.4" stroke-linecap="round" stroke-linejoin="round"/>
<path opacity="0.07" d="M351.662 268.55L348.703 271.504" stroke="#4B4583" stroke-width="1.4" stroke-linecap="round" stroke-linejoin="round"/>
</g>
<path opacity="0.07" d="M233.265 87.7309C233.265 88.7319 232.452 89.5465 231.453 89.5465C230.453 89.5465 229.64 88.7319 229.64 87.7309C229.64 86.7298 230.453 85.9152 231.453 85.9152C232.452 85.9152 233.265 86.7298 233.265 87.7309Z" stroke="#4B4583" stroke-width="1.4" stroke-linecap="round" stroke-linejoin="round"/>
<path opacity="0.07" d="M132.367 161.976C132.367 162.977 131.554 163.792 130.555 163.792C129.555 163.792 128.742 162.977 128.742 161.976C128.742 160.975 129.555 160.161 130.555 160.161C131.554 160.161 132.367 160.975 132.367 161.976Z" stroke="#4B4583" stroke-width="1.4" stroke-linecap="round" stroke-linejoin="round"/>
<path opacity="0.07" d="M351.996 139.04C351.996 140.041 351.183 140.856 350.183 140.856C349.184 140.856 348.37 140.041 348.37 139.04C348.37 138.039 349.184 137.224 350.183 137.224C351.183 137.224 351.996 138.039 351.996 139.04Z" stroke="#4B4583" stroke-width="1.4" stroke-linecap="round" stroke-linejoin="round"/>
<path opacity="0.07" d="M74.893 240.923C74.893 243.298 72.9726 245.221 70.6015 245.221C68.2304 245.221 66.3101 243.298 66.3101 240.923C66.3101 238.548 68.2304 236.624 70.6015 236.624C72.9726 236.624 74.893 238.548 74.893 240.923Z" stroke="#4B4583" stroke-width="1.4" stroke-linecap="round" stroke-linejoin="round"/>
<path opacity="0.07" d="M311.207 186.649C311.207 189.025 309.287 190.948 306.916 190.948C304.545 190.948 302.624 189.025 302.624 186.649C302.624 184.274 304.545 182.351 306.916 182.351C309.287 182.351 311.207 184.274 311.207 186.649Z" stroke="#4B4583" stroke-width="1.4" stroke-linecap="round" stroke-linejoin="round"/>
</g>
</svg>
