<svg width="45" height="28" viewBox="0 0 45 28" fill="none" xmlns="http://www.w3.org/2000/svg">
<path fill-rule="evenodd" clip-rule="evenodd" d="M31.5085 27.1364L32.1839 27.1186L32.852 27.07L33.5061 26.9862L34.1554 26.8705L34.7872 26.7245L35.4107 26.547L36.0203 26.3384L36.6176 26.1036L37.2007 25.8381L37.7667 25.5495L38.3143 25.2298L38.8496 24.8887L39.3624 24.5212L39.8566 24.1305L40.3342 23.7183L40.7898 23.2798L41.2269 22.8231L41.6379 22.3434L42.0277 21.8476L42.3941 21.3329L42.7347 20.7969L43.0514 20.2463L43.3391 19.6789L43.6048 19.0943L43.8389 18.4951L44.0462 17.8836L44.2241 17.2593L44.3694 16.6251L44.484 15.9735L44.5679 15.3166L44.6174 14.6472L44.6341 13.9693L44.6174 13.2953L44.5679 12.6301L44.484 11.9743L44.3694 11.331L44.2241 10.6976L44.0462 10.0767L43.8389 9.46488L43.6048 8.87055L43.3391 8.29055L43.0514 7.72208L42.7347 7.17736L42.3941 6.64138L42.0277 6.12672L41.6379 5.63442L41.2269 5.15644L40.7898 4.69943L40.3342 4.26477L39.8566 3.85213L39.3624 3.4622L38.8496 3.09429L38.3143 2.75257L37.7667 2.43846L37.2007 2.15056L36.6176 1.88362L36.0203 1.64882L35.4107 1.44058L34.7872 1.26309L34.1554 1.11634L33.5061 1.00209L32.852 0.917531L32.1839 0.868266L31.5085 0.850098L30.8356 0.868266L30.1682 0.917531L29.5151 1.00209L28.8693 1.11634L28.2375 1.26309L27.6151 1.44058L27.009 1.64882L26.4116 1.88362L25.8327 2.15056L25.2716 2.43846L24.7237 2.75257L24.1939 3.09429L23.6815 3.4622L23.1862 3.85213L22.7132 4.26477L22.2573 4.69943L21.8247 5.15644L21.4129 5.63442L21.0246 6.12672L20.6627 6.64138L20.322 7.17736L20.0082 7.72208L19.7163 8.29055L19.4558 8.87055L19.221 9.46488L19.0183 10.0767L18.8406 10.6976L18.695 11.331L18.5804 11.9743L18.4972 12.6301L18.4477 13.2953L18.4296 13.9693L18.4477 14.6472L18.4972 15.3166L18.5804 15.9735L18.695 16.6251L18.8406 17.2593L19.0183 17.8836L19.221 18.4951L19.4558 19.0943L19.7163 19.6789L20.0082 20.2463L20.322 20.7969L20.6627 21.3329L21.0246 21.8476L21.4129 22.3434L21.8247 22.8231L22.2573 23.2798L22.7132 23.7183L23.1862 24.1305L23.6815 24.5212L24.1939 24.8887L24.7237 25.2298L25.2716 25.5495L25.8327 25.8381L26.4116 26.1036L27.009 26.3384L27.6151 26.547L28.2375 26.7245L28.8693 26.8705L29.5151 26.9862L30.1682 27.07L30.8356 27.1186L31.5085 27.1364Z" fill="#FBB231"/>
<path fill-rule="evenodd" clip-rule="evenodd" d="M13.9803 27.1364L14.6508 27.1186L15.3188 27.07L15.9733 26.9862L16.6184 26.8705L17.2499 26.7245L17.873 26.547L18.4791 26.3384L19.0754 26.1036L19.654 25.8381L20.2161 25.5495L20.7637 25.2298L21.2938 24.8887L21.8073 24.5212L22.3022 24.1305L22.7745 23.7183L23.2298 23.2798L23.6634 22.8231L24.0744 22.3434L24.4628 21.8476L24.8251 21.3329L25.1661 20.7969L25.4802 20.2463L25.7711 19.6789L26.032 19.0943L26.2667 18.4951L26.4695 17.8836L26.6464 17.2593L26.7923 16.6251L26.9073 15.9735L26.9909 15.3166L27.0393 14.6472L27.0574 13.9693L27.0393 13.2953L26.9909 12.6301L26.9073 11.9743L26.7923 11.331L26.6464 10.6976L26.4695 10.0767L26.2667 9.46488L26.032 8.87055L25.7711 8.29055L25.4802 7.72208L25.1661 7.17736L24.8251 6.64138L24.4628 6.12672L24.0744 5.63442L23.6634 5.15644L23.2298 4.69943L22.7745 4.26477L22.3022 3.85213L21.8073 3.4622L21.2938 3.09429L20.7637 2.75257L20.2161 2.43846L19.654 2.15056L19.0754 1.88362L18.4791 1.64882L17.873 1.44058L17.2499 1.26309L16.6184 1.11634L15.9733 1.00209L15.3188 0.917531L14.6508 0.868266L13.9803 0.850098L13.3031 0.868266L12.6364 0.917531L11.9816 1.00209L11.3313 1.11634L10.6998 1.26309L10.0767 1.44058L9.46643 1.64882L8.87046 1.88362L8.28703 2.15056L7.72102 2.43846L7.17312 2.75257L6.6381 3.09429L6.12573 3.4622L5.63078 3.85213L5.15324 4.26477L4.69869 4.69943L4.26085 5.15644L3.84984 5.63442L3.46077 6.12672L3.09399 6.64138L2.75369 7.17736L2.43533 7.72208L2.14832 8.29055L1.8829 8.87055L1.64883 9.46488L1.44159 10.0767L1.26464 10.6976L1.11835 11.331L1.00375 11.9743L0.919112 12.6301L0.87104 13.2953L0.852936 13.9693L0.87104 14.6472L0.919112 15.3166L1.00375 15.9735L1.11835 16.6251L1.26464 17.2593L1.44159 17.8836L1.64883 18.4951L1.8829 19.0943L2.14832 19.6789L2.43533 20.2463L2.75369 20.7969L3.09399 21.3329L3.46077 21.8476L3.84984 22.3434L4.26085 22.8231L4.69869 23.2798L5.15324 23.7183L5.63078 24.1305L6.12573 24.5212L6.6381 24.8887L7.17312 25.2298L7.72102 25.5495L8.28703 25.8381L8.87046 26.1036L9.46643 26.3384L10.0767 26.547L10.6998 26.7245L11.3313 26.8705L11.9816 26.9862L12.6364 27.07L13.3031 27.1186L13.9803 27.1364Z" fill="#EC1C2E"/>
<path fill-rule="evenodd" clip-rule="evenodd" d="M21.2102 5.89201H28.1713V5.17749H21.8114L21.2102 5.89201Z" fill="#FBB231"/>
<path fill-rule="evenodd" clip-rule="evenodd" d="M20.167 7.47893H28.1713V6.7644H20.5867L20.167 7.47893Z" fill="#FBB231"/>
<path fill-rule="evenodd" clip-rule="evenodd" d="M19.3896 9.06145H28.1713V8.34692H19.6989L19.3896 9.06145Z" fill="#FBB231"/>
<path fill-rule="evenodd" clip-rule="evenodd" d="M18.8546 10.6482H28.1713V9.93506H19.0754L18.8546 10.6482Z" fill="#FBB231"/>
<path fill-rule="evenodd" clip-rule="evenodd" d="M19.1646 18.3187H28.1933V17.6045H18.9427L19.1646 18.3187Z" fill="#FBB231"/>
<path fill-rule="evenodd" clip-rule="evenodd" d="M19.8313 19.9057H28.1933V19.1919H19.4997L19.8313 19.9057Z" fill="#FBB231"/>
<path fill-rule="evenodd" clip-rule="evenodd" d="M20.7672 21.4885H28.1933V20.7747H20.322L20.7672 21.4885Z" fill="#FBB231"/>
<path fill-rule="evenodd" clip-rule="evenodd" d="M22.0587 23.0749H28.1933V22.3569H21.4356L22.0587 23.0749Z" fill="#FBB231"/>
<path fill-rule="evenodd" clip-rule="evenodd" d="M18.5407 12.2311H28.1713V11.5176H18.6776L18.5407 12.2311Z" fill="#FBB231"/>
<path fill-rule="evenodd" clip-rule="evenodd" d="M24.4099 16.7359H28.0825V16.0217H24.5426L24.4099 16.7359Z" fill="#FBB231"/>
<path fill-rule="evenodd" clip-rule="evenodd" d="M24.7021 15.1528H28.0825V14.4348H24.8341L24.7021 15.1528Z" fill="#FBB231"/>
<path fill-rule="evenodd" clip-rule="evenodd" d="M18.2976 14.4348H19.253V15.1528H18.3425L18.2976 14.4348Z" fill="#FBB231"/>
<path fill-rule="evenodd" clip-rule="evenodd" d="M16.5159 13.57L16.4543 13.5651L16.393 13.5567L16.3352 13.5484L16.2784 13.5396L16.2248 13.5305L16.1673 13.5214L16.1105 13.5134L16.0478 13.5033L15.9865 13.4952L15.9155 13.4904L15.8357 13.4858L15.7524 13.4809H15.6594L15.5574 13.4858L15.4421 13.4952L15.3146 13.5033L15.2261 13.5173L15.1422 13.5305L15.0666 13.5567L15.0008 13.5833L14.9384 13.6144L14.882 13.65L14.8367 13.6951L14.7963 13.7346L14.7705 13.7831L14.7486 13.8321L14.7392 13.8848V13.9383L14.7528 13.9963L14.7705 14.0536L14.8057 14.1112L14.85 14.1692L14.9384 14.2527L15.045 14.3191L15.1687 14.3771L15.3014 14.4257L15.4421 14.4708L15.5877 14.5186L15.7336 14.5728L15.8754 14.6301L16.0081 14.7052L16.1321 14.7982L16.2422 14.9096L16.3352 15.0469L16.4055 15.215L16.4505 15.4141L16.4675 15.6542L16.4505 15.9337L16.4195 16.1419L16.3662 16.3236L16.2951 16.4917L16.2073 16.6381L16.106 16.767L15.99 16.8774L15.8663 16.9749L15.7305 17.0595L15.5877 17.1262L15.4421 17.1835L15.292 17.2279L15.1377 17.2632L14.9868 17.2904L14.8419 17.303L14.6964 17.3124L14.5588 17.3159H14.3679L14.1916 17.3124H14.0366L13.891 17.3082L13.7583 17.303L13.6396 17.2943L13.5337 17.2855L13.4316 17.2722L13.3386 17.2632L13.255 17.246L13.1707 17.2321L13.0958 17.2101L13.0199 17.1922L12.9502 17.1653L12.8792 17.1395L12.804 17.1126L13.0025 16.1329L13.0426 16.1419L13.0903 16.1556L13.1526 16.1723L13.2285 16.1912L13.3076 16.208L13.3961 16.2261L13.4933 16.2478L13.5988 16.266L13.7099 16.2834L13.8252 16.3013L13.944 16.3145L14.068 16.3278L14.1955 16.332L14.325 16.3366H14.4518L14.5804 16.332L14.7092 16.3055L14.8109 16.2702L14.8897 16.2216L14.9517 16.1598L14.9962 16.0969L15.0318 16.0256L15.0541 15.9557L15.0711 15.8893L15.0805 15.76L15.0408 15.6493L14.9649 15.5602L14.8545 15.4858L14.7218 15.419L14.5675 15.3523L14.3954 15.2901L14.223 15.2192L14.0457 15.1395L13.8782 15.0469L13.7235 14.9313L13.5817 14.794L13.4713 14.6252L13.3919 14.4257L13.3519 14.1867L13.356 13.9033L13.3787 13.73L13.41 13.5651L13.4536 13.4152L13.5062 13.2734L13.5772 13.1406L13.657 13.025L13.7503 12.9138L13.8607 12.8171L13.9893 12.7329L14.1303 12.6616L14.2885 12.5948L14.4658 12.5466L14.6653 12.5057L14.882 12.4753L15.1195 12.4572L15.3815 12.4526H15.5438L15.6943 12.4572L15.8315 12.4624L15.9552 12.4666L16.0656 12.4753L16.1673 12.4841L16.2554 12.4928L16.3352 12.5023L16.4104 12.5103L16.4728 12.5236L16.5299 12.5333L16.5832 12.5417L16.6274 12.5501L16.6671 12.5554L16.7061 12.5641L16.7417 12.5686L16.5159 13.57Z" fill="white"/>
<path fill-rule="evenodd" clip-rule="evenodd" d="M17.5637 11.4736H18.7888L18.6073 12.5466H19.3454L19.1858 13.5484L18.4077 13.526L17.9841 15.9994L17.9796 16.0881L18.0012 16.1643L18.0458 16.2216L18.1036 16.2702L18.183 16.3013L18.2712 16.3278L18.368 16.3453L18.4742 16.3547L18.5714 16.3505L18.6595 16.3411L18.74 16.3278L18.8103 16.3104L18.8682 16.2922L18.9075 16.2793L18.9343 16.2702L18.9427 16.266L18.7888 17.0906L18.7574 17.1126L18.7264 17.1304L18.6951 17.1479L18.6648 17.1653L18.6334 17.179L18.5979 17.1922L18.5589 17.2055L18.5185 17.2191L18.4742 17.2321L18.4296 17.2412L18.3774 17.2499L18.3248 17.2593L18.267 17.2681L18.2004 17.2771L18.129 17.2855L18.0542 17.2943H17.718L17.5411 17.281L17.3868 17.2632L17.2461 17.2373L17.1266 17.2055L17.0242 17.1653L16.9406 17.122L16.8657 17.0686L16.8082 17.0106L16.764 16.9487L16.7323 16.8732L16.7107 16.7974L16.6975 16.7139L16.6936 16.6203V16.5228L16.7062 16.4211L16.7201 16.3104L17.5637 11.4736Z" fill="white"/>
<path fill-rule="evenodd" clip-rule="evenodd" d="M30.8624 12.8119L30.8053 12.7812L30.7481 12.7543L30.6854 12.7232L30.6193 12.6918L30.5527 12.6655L30.4785 12.6393L30.403 12.6124L30.3242 12.5862L30.2399 12.5639L30.1546 12.5464L30.063 12.5282L29.9703 12.515L29.8683 12.5055L29.7673 12.4975H29.4399L29.3246 12.5055L29.2051 12.5195L29.0818 12.5415L28.9578 12.5765L28.8341 12.6257L28.7108 12.6879L28.5861 12.7672L28.4674 12.8654L28.3517 12.9804L28.241 13.1222L28.1361 13.2864L28.0386 13.4807L27.9459 13.7029L27.862 13.952L27.7916 14.2354L27.7641 14.3944L27.7474 14.5495L27.738 14.705L27.7432 14.8556L27.7554 15.0065L27.7864 15.1484L27.8265 15.2815L27.8749 15.4139L27.9411 15.5345L28.0205 15.6491L28.1142 15.7511L28.2201 15.8444L28.3388 15.9247L28.4757 15.9904L28.6265 16.0484L28.7944 16.0879L28.8519 16.1008L28.9188 16.1145L28.9985 16.1236L29.0863 16.1326L29.1832 16.1417H29.3949L29.506 16.1326L29.621 16.119L29.7356 16.0966L29.846 16.0659L29.9571 16.031L30.0668 15.9817L30.1682 15.9247L30.2615 15.8535L30.35 15.7738L30.1518 16.9576L30.1246 16.9792L30.0982 17.0061L30.063 17.0379L30.0233 17.0627L29.9749 17.0987L29.9125 17.1302L29.8415 17.1609L29.7624 17.1871L29.6603 17.2189L29.5457 17.2409L29.4137 17.2591L29.258 17.2769L29.0863 17.2853L28.8867 17.2902L28.6624 17.2853L28.4141 17.272L28.2107 17.2497L28.0076 17.2053L27.8042 17.1393L27.6011 17.0502L27.4067 16.9443L27.2204 16.8105L27.0445 16.6557L26.8808 16.4789L26.7342 16.279L26.6112 16.0579L26.5046 15.8094L26.4259 15.5387L26.3726 15.2417L26.3545 14.9269L26.3639 14.5813L26.4116 14.2127L26.4478 14.0317L26.4865 13.8542L26.5314 13.6813L26.5764 13.517L26.6234 13.3619L26.6812 13.2071L26.7394 13.0604L26.801 12.9231L26.8683 12.7854L26.9337 12.6568L27.009 12.5331L27.0877 12.4178L27.1682 12.3064L27.2563 12.2005L27.3444 12.103L27.4374 12.0097L27.5388 11.9206L27.6408 11.8368L27.7474 11.7613L27.8578 11.69L27.9766 11.6236L28.0961 11.567L28.2201 11.5132L28.3479 11.464L28.4855 11.4199L28.6213 11.3847L28.7634 11.3532L28.9139 11.3267L29.0637 11.3039L29.2225 11.2872L29.3824 11.2784L29.5499 11.2732L29.6927 11.2784L29.8289 11.2872L29.9616 11.3004L30.0937 11.3183L30.2176 11.3357L30.3371 11.3619L30.4517 11.3847L30.5576 11.4109L30.6597 11.4374L30.7481 11.464L30.8324 11.4909L30.9024 11.5174L30.9648 11.5394L31.0174 11.5576L31.0571 11.5751L31.0839 11.5845L30.8624 12.8119Z" fill="white"/>
<path fill-rule="evenodd" clip-rule="evenodd" d="M41.7438 17.2941H40.5195L40.6086 16.8025V16.7574L40.5376 16.8469L40.4616 16.9259L40.3871 16.9971L40.308 17.0593L40.2283 17.1173L40.1485 17.1652L40.0687 17.2054L39.9851 17.2459L39.9012 17.277L39.8172 17.299L39.733 17.3203L39.6445 17.3336L39.5571 17.3472L39.4724 17.3563L39.3846 17.3609H39.2962L39.0663 17.3427L38.8538 17.2941L38.6591 17.219L38.4822 17.1173L38.323 16.9884L38.1819 16.8382L38.0576 16.6732L37.9517 16.4874L37.8643 16.2872L37.7932 16.08L37.7444 15.8626L37.7089 15.6362L37.696 15.4102L37.7002 15.1799L37.7218 14.9532L37.7622 14.7278L37.8284 14.465L37.9074 14.2177L38.0011 13.9913L38.1112 13.7788L38.2254 13.579L38.3585 13.4015L38.495 13.2425L38.6417 13.0961L38.796 12.9668L38.9597 12.8564L39.1279 12.7589L39.2962 12.6838L39.4724 12.6213L39.649 12.5818L39.8253 12.5552L40.0064 12.5465L40.1356 12.55L40.2589 12.564L40.3746 12.5863L40.4797 12.6171L40.5818 12.6527L40.6706 12.6918L40.7587 12.7415L40.8385 12.79L40.9089 12.8428L40.9747 12.9011L41.0322 12.9581L41.0851 13.0161L41.1297 13.0741L41.1698 13.131L41.2053 13.1848L41.2311 13.238L41.5414 11.4958H42.7431L41.7438 17.2941Z" fill="white"/>
<path fill-rule="evenodd" clip-rule="evenodd" d="M39.7413 16.2215L39.8657 16.2127L39.9803 16.1862L40.0868 16.1554L40.1886 16.1065L40.2812 16.0538L40.3697 15.986L40.4536 15.9116L40.5289 15.8308L40.5943 15.7425L40.657 15.645L40.7138 15.5429L40.7633 15.4371L40.8072 15.3253L40.8427 15.2103L40.8733 15.0905L40.8956 14.9717L40.9172 14.8476L40.9308 14.7191V14.5982L40.927 14.4752L40.9134 14.3592L40.8956 14.2484L40.8646 14.1422L40.8291 14.0398L40.7849 13.9521L40.7319 13.8676L40.6748 13.7956L40.6086 13.7345L40.5334 13.6813L40.4536 13.6457L40.3697 13.6233L40.2774 13.6143L40.1572 13.6233L40.0464 13.6408L39.9454 13.6768L39.8434 13.7208L39.7556 13.7788L39.6664 13.8498L39.5919 13.9249L39.5163 14.0098L39.4505 14.1059L39.3881 14.2086L39.33 14.3148L39.2822 14.4301L39.238 14.5496L39.2032 14.6701L39.1673 14.798L39.1412 14.927L39.1185 15.1223L39.1279 15.3347L39.1582 15.5513L39.2167 15.7599L39.3042 15.9423L39.4195 16.088L39.5651 16.1862L39.7413 16.2215Z" fill="#FBB231"/>
<path fill-rule="evenodd" clip-rule="evenodd" d="M12.6016 16.3104L12.424 17.2943H11.3097L11.3407 17.1126L11.364 16.9487L11.3804 16.8247L11.3985 16.7576L11.3365 16.8289L11.2658 16.9001L11.1822 16.9669L11.0885 17.028L10.9833 17.0906L10.8729 17.1433L10.7573 17.1968L10.6378 17.2412L10.5093 17.281L10.3825 17.3124L10.2529 17.3386L10.1216 17.3565L9.99273 17.3655L9.8656 17.3697L9.74124 17.3565L9.62143 17.3386L9.46642 17.2992L9.32571 17.2541L9.2017 17.1968L9.09093 17.1304L8.99446 17.0595L8.90633 16.9795L8.83458 16.8949L8.77328 16.8068L8.72068 16.7139L8.67575 16.6157L8.64091 16.5186L8.61409 16.4211L8.59598 16.3191L8.58345 16.2171L8.57474 16.1192V16.0218L8.58727 15.8488L8.61409 15.6846L8.65833 15.5298L8.71616 15.3785L8.78651 15.2373L8.86558 15.1088L8.95893 14.9851L9.06481 14.8736L9.17593 14.772L9.29958 14.6783L9.42776 14.5941L9.55977 14.5232L9.70118 14.4624L9.84748 14.4124L9.9976 14.3729L10.1526 14.346H10.1606L10.1826 14.3415L10.2143 14.3373L10.2627 14.3328L10.3156 14.324L10.3773 14.3191L10.4438 14.3104L10.5187 14.3017L10.5939 14.2936L10.6695 14.2842L10.7493 14.2793L10.8196 14.2709L10.8907 14.2667L10.9558 14.2615L11.0189 14.2576H11.169L11.2749 14.2615L11.3717 14.2667H11.4689L11.5486 14.2709L11.611 14.2748L11.6545 14.2793H11.6681L11.6768 14.2486L11.7036 14.1692L11.7249 14.0749L11.734 13.9914L11.7162 13.8939L11.6768 13.8048L11.6239 13.7252L11.5528 13.6588L11.4689 13.6018L11.3762 13.5616L11.27 13.5347L11.1554 13.526L11.0318 13.5215L10.8983 13.5173H10.7615L10.6207 13.5215L10.4748 13.5305L10.3327 13.5438L10.192 13.5567L10.0554 13.5753L9.92202 13.592L9.79384 13.6144L9.67889 13.6364L9.57301 13.6588L9.47582 13.686L9.39606 13.7119L9.33441 13.7433L9.28565 13.7695L9.59913 12.7014L9.69701 12.6616L9.79384 12.6259L9.90043 12.5948L10.0063 12.5721L10.1129 12.5501L10.2275 12.5334L10.3424 12.5152L10.4616 12.5058L10.5849 12.4977L10.713 12.4928L10.8458 12.4883H11.27L11.4253 12.4928L11.58 12.4977L11.7036 12.5058L11.8364 12.5285L11.9732 12.5596L12.114 12.5997L12.2516 12.6528L12.3843 12.715L12.5163 12.7902L12.641 12.8744L12.75 12.9725L12.8482 13.0781L12.9374 13.1979L13.0025 13.331L13.0474 13.4736L13.0729 13.6235V13.7915L13.0474 13.9694L12.6016 16.3104Z" fill="white"/>
<path fill-rule="evenodd" clip-rule="evenodd" d="M11.5358 15.1527L11.5313 15.131L11.5131 15.1086L11.4867 15.0954L11.4424 15.0863L11.3937 15.0779L11.3366 15.073H11.2035L11.1335 15.0779L11.0586 15.0863L10.9879 15.0954L10.9168 15.1044L10.8507 15.1135L10.7883 15.1261L10.7357 15.1394L10.6869 15.1527L10.6559 15.1614L10.6208 15.1754L10.5723 15.1925L10.5229 15.2149L10.4658 15.2418L10.4083 15.2729L10.347 15.304L10.2892 15.3392L10.2275 15.3833L10.1701 15.4276L10.1164 15.4814L10.0687 15.5346L10.0238 15.5919L9.99276 15.654L9.96733 15.725L9.95305 15.7956L9.94922 15.9468L9.97081 16.066L10.015 16.1554L10.0729 16.2215L10.139 16.2658L10.2143 16.2921L10.2853 16.3053L10.3557 16.3102L10.4881 16.3053L10.6079 16.2921L10.7225 16.2739L10.8245 16.2477L10.9123 16.2169L10.9963 16.1775L11.0711 16.1373L11.1384 16.088L11.1958 16.0436L11.2477 15.9905L11.2927 15.9423L11.3278 15.8892L11.3581 15.8357L11.3864 15.7826L11.4076 15.7337L11.4201 15.6844L11.456 15.5566L11.4867 15.4102L11.5131 15.268L11.5358 15.1527Z" fill="#EC1C2E"/>
<path fill-rule="evenodd" clip-rule="evenodd" d="M3.30089 17.2943H2.09955L3.10305 11.4736H5.19294L5.39252 14.9271L6.83768 11.4736H9.02127L7.99513 17.2943H6.79345L7.55312 12.9457H7.50576L5.70566 17.2943H4.34967L4.34061 17.1126L4.30962 16.629L4.2699 15.9424L4.22497 15.1528L4.18108 14.3593L4.14138 13.664L4.11072 13.1588L4.10132 12.9457H4.03549L3.30089 17.2943Z" fill="white"/>
<path fill-rule="evenodd" clip-rule="evenodd" d="M34.5361 16.3104L34.3546 17.2943H33.2456L33.2536 17.1126L33.2581 16.9532V16.8338L33.2672 16.7806L33.2097 16.847L33.1428 16.9131L33.0645 16.9749L32.9753 17.0381L32.8833 17.0948L32.7767 17.1479L32.666 17.2017L32.5552 17.246L32.4361 17.281L32.3121 17.3159L32.1891 17.3386L32.0651 17.3565L31.9366 17.3655L31.8137 17.3697L31.6938 17.3565L31.5744 17.3386L31.4155 17.2992L31.2745 17.2541L31.1501 17.1968L31.0348 17.1304L30.938 17.0595L30.8534 16.9795L30.7833 16.8949L30.722 16.8068L30.6684 16.7139L30.629 16.6157L30.5935 16.5186L30.5712 16.4211L30.5528 16.3191L30.5402 16.2171L30.5312 16.1192V16.0218L30.5402 15.8488L30.567 15.6846L30.6061 15.5298L30.6642 15.3785L30.7304 15.2373L30.814 15.1088L30.907 14.9851L31.0084 14.8736L31.1236 14.772L31.2431 14.6783L31.3713 14.5941L31.5085 14.5232L31.6454 14.4624L31.791 14.4124L31.9366 14.3729L32.0867 14.346H32.0961L32.1174 14.3415L32.1491 14.3373L32.1933 14.3328L32.2508 14.324L32.3121 14.3191L32.379 14.3104L32.449 14.3017L32.5246 14.2936L32.6043 14.2842L32.6796 14.2793L32.7545 14.2709L32.8248 14.2667L32.8868 14.2615L32.9492 14.2576H33.1038L33.2097 14.2615L33.3111 14.2667H33.4082L33.4929 14.2709L33.5633 14.2748L33.603 14.2793H33.6211L33.6301 14.2486L33.643 14.1692L33.6559 14.0749L33.6646 13.9914L33.6479 13.8939L33.6131 13.8048L33.5552 13.7252L33.4877 13.6588L33.4082 13.6018L33.3159 13.5616L33.2188 13.5347L33.1122 13.526L32.9882 13.5215L32.8565 13.5173H32.7189L32.5772 13.5215L32.4319 13.5305L32.2905 13.5438L32.1491 13.5567L32.0115 13.5753L31.8788 13.592L31.7513 13.6144L31.6364 13.6364L31.5301 13.6588L31.433 13.686L31.3539 13.7119L31.2908 13.7433L31.2431 13.7695L31.5524 12.7014L31.6489 12.6616L31.7513 12.6259L31.8534 12.5948L31.9586 12.5721L32.0693 12.5501L32.1804 12.5334L32.294 12.5152L32.4145 12.5058L32.5375 12.4977L32.666 12.4928L32.7942 12.4883H33.2097L33.3602 12.4928L33.5103 12.4977L33.6343 12.5058L33.7663 12.5285L33.9032 12.5596L34.0453 12.5997L34.1829 12.6528L34.3184 12.715L34.4515 12.7902L34.5751 12.8744L34.6866 12.9725L34.7872 13.0781L34.8754 13.1979L34.9419 13.331L34.991 13.4736L35.0223 13.6235V13.7915L34.9997 13.9694L34.5361 16.3104Z" fill="white"/>
<path fill-rule="evenodd" clip-rule="evenodd" d="M34.3546 17.3253L34.3807 17.2991L34.5619 16.3145L34.5089 16.3054L34.3278 17.2904L34.3546 17.2631V17.3253L34.3762 17.3204L34.3807 17.2991L34.3546 17.3253Z" fill="white"/>
<path fill-rule="evenodd" clip-rule="evenodd" d="M33.2188 17.2943L33.2456 17.3254H34.3546V17.2632H33.2456L33.272 17.2943H33.2188L33.2146 17.3254H33.2456L33.2188 17.2943Z" fill="white"/>
<path fill-rule="evenodd" clip-rule="evenodd" d="M31.5702 17.3655L31.6938 17.3833L31.8137 17.3959L31.9366 17.3924L32.0651 17.3833L32.1933 17.3655L32.3166 17.3428L32.441 17.3082L32.5643 17.2722L32.675 17.2278L32.7893 17.1751L32.8966 17.122L32.9882 17.0594L33.0812 16.9972L33.1602 16.9358L33.232 16.8638L33.2898 16.7974L33.2456 16.7625L33.1878 16.8288L33.1261 16.891L33.0457 16.9532L32.9624 17.0151L32.8694 17.0685L32.7639 17.122L32.6573 17.1751L32.5469 17.2191L32.4319 17.2541L32.3083 17.2904L32.1839 17.3124L32.0651 17.3295L31.9366 17.3386L31.8137 17.3428L31.6938 17.3295L31.5789 17.3124L31.5702 17.3655Z" fill="white"/>
<path fill-rule="evenodd" clip-rule="evenodd" d="M30.5009 16.0217L30.5047 16.1192L30.5134 16.217L30.5277 16.3236L30.5451 16.4253L30.567 16.5228L30.6026 16.6251L30.6416 16.7265L30.6997 16.8201L30.761 16.913L30.8325 16.9973L30.9206 17.0811L31.0219 17.1524L31.1369 17.2237L31.2658 17.281L31.4107 17.3253L31.5702 17.3655L31.5789 17.3124L31.4194 17.2722L31.2832 17.2279L31.1634 17.1706L31.0481 17.108L30.9554 17.0381L30.8756 16.9616L30.8053 16.8774L30.7429 16.7932L30.6952 16.7006L30.6555 16.607L30.6193 16.5147L30.598 16.4165L30.5806 16.3145L30.567 16.217L30.5576 16.1192L30.5625 16.0217H30.5009Z" fill="white"/>
<path fill-rule="evenodd" clip-rule="evenodd" d="M32.0868 14.3188L31.9324 14.3457L31.7823 14.3863L31.6364 14.4345L31.4953 14.4963L31.3574 14.5669L31.2257 14.6567L31.1055 14.75L30.9909 14.8555L30.8851 14.9666L30.7917 15.0903L30.7032 15.2234L30.6374 15.3702L30.5806 15.5208L30.5402 15.6805L30.5134 15.8485L30.5009 16.0215H30.5625L30.567 15.8485L30.5935 15.6892L30.6329 15.5386L30.6907 15.3877L30.7562 15.25L30.8356 15.126L30.9293 15.0016L31.0258 14.8915L31.1407 14.7937L31.2605 14.7L31.3835 14.6211L31.5218 14.5495L31.6538 14.4883L31.7997 14.4394L31.9412 14.3989L32.0868 14.3727V14.3188Z" fill="white"/>
<path fill-rule="evenodd" clip-rule="evenodd" d="M32.9976 14.2261H32.9492L32.8868 14.2355L32.8248 14.2407L32.7545 14.2442L32.6796 14.2526L32.6044 14.2575L32.5246 14.2666L32.449 14.2746L32.379 14.2841L32.3121 14.2935L32.2508 14.297L32.1933 14.3061L32.1491 14.3103L32.1136 14.3148L32.0962 14.319H32.0868V14.3728H32.0962L32.1223 14.3676L32.1491 14.3641L32.1933 14.3592L32.2508 14.3508L32.3121 14.3459L32.379 14.3372L32.449 14.3278L32.5246 14.319L32.6044 14.3103L32.6796 14.3061L32.7545 14.297L32.8248 14.2935L32.8868 14.2883H32.9976V14.2261Z" fill="white"/>
<path fill-rule="evenodd" clip-rule="evenodd" d="M33.5943 14.2746L33.6211 14.2526H33.603L33.5633 14.2484L33.4929 14.2442L33.4083 14.2355H33.2097L33.1038 14.2261H32.9976V14.2883H33.2097L33.3111 14.297H33.4929L33.5633 14.3015L33.603 14.3061H33.6211L33.6479 14.2841L33.6211 14.3061L33.643 14.3103L33.6479 14.2841L33.5943 14.2746Z" fill="white"/>
<path fill-rule="evenodd" clip-rule="evenodd" d="M33.1122 13.5523V13.5569L33.2146 13.5617L33.3069 13.5887L33.395 13.6278L33.4702 13.6816L33.5319 13.7434L33.5848 13.8189L33.6211 13.8982L33.6385 13.9915H33.6914L33.6733 13.8898L33.6385 13.7917L33.5768 13.7085L33.5061 13.6365L33.4218 13.5754L33.3247 13.5348L33.2226 13.5086L33.1122 13.4954V13.5523Z" fill="white"/>
<path fill-rule="evenodd" clip-rule="evenodd" d="M31.2163 13.7657L31.2605 13.7916L31.3047 13.7696L31.3619 13.7385L31.4382 13.7119L31.5343 13.686L31.6412 13.664L31.7555 13.641L31.8833 13.619L32.0115 13.6018L32.1491 13.5833L32.2905 13.57L32.4319 13.5568L32.5771 13.5484H32.9882L33.1122 13.5522V13.4991L32.9882 13.4953L32.8565 13.4858H32.7189L32.5771 13.4953L32.4319 13.5033L32.2905 13.5173L32.1491 13.5306L32.0115 13.5484L31.8749 13.5652L31.7461 13.5886L31.6322 13.6109L31.5252 13.6329L31.428 13.6588L31.3452 13.686L31.2786 13.7164L31.2257 13.7475L31.2699 13.7741L31.2163 13.7657Z" fill="white"/>
<path fill-rule="evenodd" clip-rule="evenodd" d="M31.544 12.6746L31.5252 12.6973L31.2163 13.7657L31.2699 13.7741L31.5789 12.7057L31.5611 12.7284L31.544 12.6746L31.5301 12.6791L31.5252 12.6973L31.544 12.6746Z" fill="white"/>
<path fill-rule="evenodd" clip-rule="evenodd" d="M33.5103 12.471L33.3602 12.4623L33.2097 12.457H32.7941L32.666 12.4665L32.5374 12.471L32.4145 12.4804L32.294 12.4881L32.1752 12.5056L32.0651 12.5234L31.9547 12.5465L31.8481 12.5685L31.7426 12.5996L31.6412 12.6349L31.544 12.6744L31.5611 12.7282L31.6586 12.688L31.7596 12.6527L31.8568 12.6212L31.9631 12.5996L32.0745 12.5765L32.1839 12.5594L32.294 12.5416L32.4145 12.5332L32.5374 12.5234L32.666 12.5196H33.2097L33.3602 12.5234H33.5103V12.471Z" fill="white"/>
<path fill-rule="evenodd" clip-rule="evenodd" d="M35.0265 13.9737L35.0481 13.7913V13.6233L35.0178 13.4674L34.969 13.3214L34.8983 13.1848L34.8088 13.0604L34.7033 12.95L34.5932 12.8518L34.4647 12.7672L34.332 12.6879L34.1912 12.6257L34.0533 12.5719L33.9088 12.5331L33.7705 12.502L33.6343 12.4804L33.5103 12.4709V12.5234L33.6343 12.5331L33.7618 12.5552L33.899 12.5862L34.0355 12.6257L34.1735 12.6788L34.3058 12.7414L34.4382 12.812L34.558 12.8962L34.6684 12.9933L34.7656 13.096L34.8534 13.2106L34.9154 13.3403L34.9641 13.4772L34.9958 13.6233V13.7913L34.9728 13.965L35.0265 13.9737Z" fill="white"/>
<path fill-rule="evenodd" clip-rule="evenodd" d="M34.5619 16.3144L35.0265 13.9738L34.9729 13.9651L34.5089 16.3054L34.5619 16.3144Z" fill="white"/>
<path fill-rule="evenodd" clip-rule="evenodd" d="M33.4661 15.1528L33.4573 15.1263L33.4406 15.1046L33.4082 15.0906L33.365 15.078L33.3159 15.0731L33.2581 15.0686H33.1919L33.1261 15.0731L33.055 15.0819L32.984 15.0906L32.9136 15.1001L32.8464 15.1088L32.782 15.1224L32.7238 15.1311L32.666 15.1448L32.6217 15.1528L32.5918 15.1574L32.5552 15.1706L32.512 15.1843L32.4626 15.2017L32.4044 15.2279L32.3522 15.2555L32.2905 15.2863L32.233 15.3254L32.1752 15.3659L32.1174 15.4142L32.0693 15.4627L32.0213 15.5211L31.9809 15.5833L31.9498 15.6493L31.9237 15.7206L31.9108 15.7957L31.9063 15.947L31.9272 16.0661L31.9631 16.1556L32.016 16.2216L32.0826 16.266L32.1578 16.2922L32.233 16.3055L32.3083 16.3104L32.441 16.3055L32.5643 16.2922L32.6796 16.2702L32.782 16.2398L32.8781 16.2038L32.9624 16.1643L33.0415 16.1192L33.1122 16.0661L33.1749 16.0176L33.2268 15.9603L33.2755 15.9068L33.3159 15.8488L33.3462 15.7957L33.3696 15.7426L33.387 15.6895L33.3999 15.6409L33.418 15.5165L33.4406 15.388L33.4573 15.2643L33.4661 15.1528Z" fill="#FBB231"/>
<path fill-rule="evenodd" clip-rule="evenodd" d="M42.5699 16.6874L42.58 16.5846L42.6135 16.4651L42.6762 16.3586L42.7511 16.266L42.8441 16.1912L42.9517 16.1374L43.066 16.1011L43.1889 16.0881L43.3136 16.1011L43.4279 16.1374L43.5341 16.1912L43.6274 16.266L43.7023 16.3586L43.7643 16.4651L43.7992 16.5846L43.8086 16.6874H43.6759L43.6717 16.607L43.6442 16.5095L43.6003 16.4211L43.5432 16.3453L43.4724 16.2834L43.3888 16.2398L43.2917 16.208L43.1889 16.1992L43.0876 16.208L42.9911 16.2398L42.9068 16.2834L42.8357 16.3453L42.7786 16.4211L42.7347 16.5095L42.7079 16.607L42.6988 16.6874H42.5699Z" fill="white"/>
<path fill-rule="evenodd" clip-rule="evenodd" d="M42.9681 16.6871V16.4209H43.2112L43.2649 16.4251L43.3136 16.4338L43.3485 16.4475L43.3795 16.4649L43.4014 16.4915L43.4188 16.5184L43.4279 16.5491L43.4324 16.5806L43.4279 16.6201L43.4188 16.6512L43.4059 16.6781L43.3969 16.6871H43.2112L43.2286 16.6822L43.26 16.6781L43.2861 16.6693L43.3091 16.6606L43.3265 16.6473L43.3356 16.633L43.3439 16.612V16.5806L43.339 16.5582L43.3303 16.54L43.3178 16.532L43.3042 16.5226L43.2816 16.5184L43.26 16.5145H43.0789V16.6871H42.9681Z" fill="white"/>
<path fill-rule="evenodd" clip-rule="evenodd" d="M42.57 16.6873L42.5668 16.7138L42.5801 16.8424L42.6135 16.9615L42.6762 17.0685L42.7511 17.1568L42.8441 17.232L42.9517 17.2903L43.066 17.3253L43.1889 17.3385L43.3136 17.3253L43.4279 17.2903L43.5341 17.232L43.6275 17.1568L43.7024 17.0685L43.7644 16.9615L43.7992 16.8424L43.8121 16.7138L43.8086 16.6873H43.6759L43.6804 16.7138L43.6717 16.82L43.6442 16.9175L43.6003 17.0021L43.5432 17.0765L43.4725 17.1394L43.3889 17.1872L43.2917 17.219L43.1889 17.2278L43.0876 17.219L42.9911 17.1872L42.9068 17.1394L42.8357 17.0765L42.7786 17.0021L42.7347 16.9175L42.7079 16.82L42.6988 16.7138V16.6873H42.57Z" fill="white"/>
<path fill-rule="evenodd" clip-rule="evenodd" d="M42.9681 16.6873V16.9577H43.0788V16.7358H43.1889L43.3213 16.9577H43.4108L43.2781 16.7358H43.3091L43.339 16.7264L43.3659 16.7177L43.3888 16.7005L43.3969 16.6873H43.2112L43.1889 16.6914H43.0788V16.6873H42.9681Z" fill="white"/>
<path fill-rule="evenodd" clip-rule="evenodd" d="M34.8677 17.2941H36.114L36.5601 14.7718L36.5776 14.6747L36.6044 14.5768L36.6305 14.479L36.666 14.3815L36.7103 14.284L36.7632 14.1907L36.821 14.1023L36.8914 14.0178L36.9712 13.9427L37.0589 13.8717L37.161 13.8047L37.2759 13.7515L37.4038 13.7082L37.5452 13.6726L37.7002 13.6457L37.8719 13.6362H37.9827L38.1819 12.4976L38.0575 12.5056L37.9388 12.5196L37.8284 12.5416L37.7218 12.572L37.6253 12.6076L37.5319 12.6527L37.4435 12.7013L37.3595 12.7544L37.2805 12.8169L37.2045 12.8788L37.1342 12.95L37.0638 13.0203L36.9973 13.0961L36.9311 13.1796L36.8646 13.2596L36.8036 13.3483L36.9363 12.5465H35.6939L34.8677 17.2941Z" fill="white"/>
<path fill-rule="evenodd" clip-rule="evenodd" d="M23.1639 17.2941H24.4321L24.8564 14.7718L24.8745 14.6747L24.8961 14.5814L24.918 14.4884L24.9494 14.399L24.9842 14.3102L25.0288 14.226L25.0817 14.1467L25.1437 14.0713L25.2144 14.0035L25.2939 13.9381L25.3914 13.8847L25.4973 13.8361L25.6209 13.7956L25.7582 13.7613L25.9083 13.7383L26.0803 13.725H26.0943L26.1117 13.7299L26.134 13.7344H26.1559L26.1775 13.7383L26.1963 13.7432L26.2085 13.7474H26.2138L26.2176 13.7299L26.2312 13.6768L26.2486 13.5971L26.2712 13.4989L26.3015 13.384L26.3332 13.2596L26.3726 13.1359L26.4116 13.0108L26.4478 12.9273L26.4921 12.8428L26.5363 12.7589L26.5798 12.6838L26.6192 12.6171L26.6502 12.5639L26.6732 12.5332L26.6812 12.5196H26.6777L26.6596 12.515L26.638 12.5101L26.6067 12.5056H26.5763L26.5408 12.5021L26.5095 12.4976H26.4785L26.3412 12.5056L26.2176 12.5196L26.103 12.5416L25.9971 12.5685L25.8957 12.6038L25.802 12.6485L25.7181 12.6918L25.6383 12.7449L25.5638 12.8033L25.4927 12.87L25.4266 12.9368L25.3607 13.0108L25.2939 13.0873L25.2319 13.1719L25.166 13.2596L25.0991 13.3483L25.2583 12.5465H23.9901L23.1639 17.2941Z" fill="white"/>
<path fill-rule="evenodd" clip-rule="evenodd" d="M42.5801 21.9584V21.9406L42.6135 21.8252L42.6762 21.7232L42.7511 21.6352L42.8441 21.5639L42.9517 21.5101L43.066 21.4797L43.1889 21.4661L43.3136 21.4797L43.4279 21.5101L43.5341 21.5639L43.6275 21.6352L43.7024 21.7232L43.7644 21.8252L43.7992 21.9406V21.9584H43.6717L43.6442 21.8658L43.6003 21.7812L43.5432 21.7051L43.4725 21.6439L43.3889 21.5946L43.2917 21.5639L43.1889 21.5552L43.0876 21.5639L42.9911 21.5946L42.9068 21.6439L42.8358 21.7051L42.7786 21.7812L42.7347 21.8658L42.7079 21.9584H42.5801Z" fill="#FBB231"/>
<path fill-rule="evenodd" clip-rule="evenodd" d="M42.9681 21.9584V21.804H43.2649L43.3136 21.8127L43.3485 21.8204L43.3795 21.8382L43.4014 21.8613L43.4188 21.8875L43.4279 21.9186L43.4324 21.9584H43.3439V21.936L43.339 21.9137L43.3303 21.8962L43.3178 21.8875L43.3042 21.8787L43.2816 21.8738L43.26 21.87H43.0789V21.9584H42.9681Z" fill="#FBB231"/>
<path fill-rule="evenodd" clip-rule="evenodd" d="M42.5668 22.0554L42.5801 21.9583H42.7079V21.9617L42.6989 22.0554H42.5668Z" fill="#FBB231"/>
<path fill-rule="evenodd" clip-rule="evenodd" d="M42.9681 22.0554V21.9583H43.0789V22.0467H43.1889L43.2286 22.0383L43.26 22.0337L43.2861 22.0246L43.3091 22.0159L43.3265 22.003L43.3356 21.989L43.3439 21.968V21.9583H43.4324L43.4279 21.989L43.4188 22.0159L43.4059 22.0383L43.3889 22.0554H42.9681Z" fill="#FBB231"/>
<path fill-rule="evenodd" clip-rule="evenodd" d="M43.6804 22.0554L43.6717 21.9617V21.9583H43.7992L43.8121 22.0554H43.6804Z" fill="#FBB231"/>
<path fill-rule="evenodd" clip-rule="evenodd" d="M42.5668 22.0554V22.069L42.5801 22.1973L42.6135 22.3171L42.6762 22.4233L42.7511 22.517L42.8441 22.5928L42.9517 22.6449L43.066 22.6808L43.1889 22.6941L43.3136 22.6808L43.4279 22.6449L43.5341 22.5928L43.6275 22.517L43.7024 22.4233L43.7644 22.3171L43.7992 22.1973L43.8121 22.069V22.0554H43.6804V22.069L43.6717 22.176L43.6442 22.2734L43.6003 22.357L43.5432 22.4317L43.4725 22.4953L43.3889 22.5439L43.2917 22.5746L43.1889 22.5834L43.0876 22.5746L42.9911 22.5439L42.9068 22.4953L42.8357 22.4317L42.7786 22.357L42.7347 22.2734L42.7079 22.176L42.6988 22.069V22.0554H42.5668Z" fill="#FBB231"/>
<path fill-rule="evenodd" clip-rule="evenodd" d="M42.9681 22.0554V22.3129H43.0788V22.0911H43.1889L43.3213 22.3129H43.4108L43.2781 22.0911H43.3091L43.339 22.0823L43.3659 22.0736L43.3888 22.0554H42.9681Z" fill="#FBB231"/>
<path fill-rule="evenodd" clip-rule="evenodd" d="M22.103 14.3676H20.4885L20.4899 14.3641L20.4875 14.3634L20.4986 14.3016L20.5164 14.2086L20.5425 14.1199L20.5735 14.0315L20.6136 13.9518L20.6536 13.876L20.7013 13.8044L20.755 13.7383L20.8128 13.6765L20.8689 13.623L20.9365 13.5748L21.0016 13.5346L21.0775 13.499L21.1528 13.4735L21.2277 13.4546L21.3071 13.4417L21.3917 13.4368L21.4708 13.4455L21.546 13.4588L21.6171 13.4766L21.6874 13.5025L21.7536 13.5388L21.8198 13.5786L21.878 13.623L21.9302 13.6765L21.9744 13.7383L22.0187 13.8044L22.0497 13.8802L22.0807 13.9651L22.0977 14.0535L22.1072 14.151L22.1124 14.2575L22.103 14.3676ZM23.3012 13.9598L23.2657 13.695L23.2033 13.4595L23.1155 13.2561L23.0044 13.078L22.8724 12.9274L22.7268 12.8037L22.568 12.6975L22.3949 12.6174L22.2186 12.5504L22.0375 12.506L21.8557 12.4756L21.6749 12.4574L21.5025 12.4529L21.1441 12.4714L20.8264 12.5238L20.5383 12.6042L20.2827 12.7153L20.0615 12.8484L19.8664 12.999L19.694 13.1674L19.5529 13.3449L19.4289 13.5311L19.3279 13.7257L19.2489 13.9172L19.1816 14.1066L19.1336 14.2942L19.098 14.4661L19.0719 14.6307L19.0545 14.7725L19.0326 15.1359L19.0458 15.4637L19.0939 15.761L19.1684 16.0223L19.2757 16.2571L19.4039 16.4619L19.5533 16.6432L19.7257 16.7942L19.9114 16.9231L20.1109 17.0328L20.3182 17.1181L20.5345 17.1841L20.7557 17.2379L20.9769 17.2687L21.1977 17.291L21.414 17.2949H21.5603L21.6982 17.291H21.8167L21.9319 17.2861L22.034 17.2774L22.1266 17.2687L22.2144 17.2599L22.2945 17.2466L22.3698 17.2327L22.4401 17.2155L22.5119 17.1928L22.5781 17.1712L22.6439 17.1439L22.715 17.1181L22.785 17.0817L22.856 17.0464L23.033 15.9563L22.9051 16.0314L22.7808 16.1017L22.6533 16.1562L22.5286 16.2044L22.4098 16.2442L22.2858 16.2704L22.1664 16.2924L22.0472 16.3106L21.9278 16.3193L21.8132 16.3242H21.694L21.5794 16.3193L21.4648 16.3106L21.3496 16.2973L21.2391 16.284L21.1246 16.2666L21.0361 16.2488L20.9476 16.2177L20.8595 16.1785L20.779 16.1289L20.6999 16.0765L20.6289 16.0105L20.5631 15.9434L20.5007 15.8672L20.4481 15.7924L20.4001 15.7089L20.3638 15.6282L20.3332 15.5437L20.3158 15.4595L20.307 15.3746L20.3105 15.2998L20.321 15.2425H23.1887L23.2103 14.972L23.2771 14.5989L23.3081 14.2621L23.304 13.9605L23.3012 13.9598Z" fill="white"/>
</svg>
