<svg width="44" height="28" viewBox="0 0 44 28" fill="none" xmlns="http://www.w3.org/2000/svg">
<path d="M30.5552 27.1469L31.2316 27.1291L31.899 27.0774L32.5538 26.9949L33.1996 26.8782L33.8377 26.7322L34.4626 26.5543L35.0693 26.3475L35.6684 26.1099L36.2494 25.8464L36.8141 25.5561L37.3651 25.2406L37.8956 24.8957L38.4118 24.5282L38.9081 24.1396L39.386 23.7249L39.8426 23.2881L40.2721 22.8297L40.6859 22.3504L41.0785 21.8535L41.4449 21.3392L41.7849 20.8036L42.0997 20.2505L42.3916 19.6837L42.6553 19.101L42.8876 18.5L43.0942 17.8917L43.2711 17.2645L43.4181 16.63L43.5338 15.9773L43.6153 15.3205L43.6672 14.6507L43.6853 13.9721L43.6672 13.2985L43.6153 12.6325L43.5338 11.9802L43.4181 11.3328L43.2711 10.7017L43.0942 10.0795L42.8876 9.46977L42.6553 8.87369L42.3916 8.29544L42.0997 7.72837L41.7849 7.17946L41.4449 6.64383L41.0785 6.13056L40.6859 5.63267L40.2721 5.15714L39.8426 4.70012L39.386 4.26722L38.9081 3.85248L38.4118 3.4636L37.8956 3.09603L37.3651 2.75572L36.8141 2.44021L36.2494 2.14532L35.6684 1.88257L35.0693 1.64812L34.4626 1.44163L33.8377 1.26449L33.1996 1.11739L32.5538 1.00069L31.899 0.918929L31.2316 0.867219L30.5552 0.850098L29.8791 0.867219L29.2114 0.918929L28.5569 1.00069L27.9101 1.11739L27.2726 1.26449L26.6523 1.44163L26.041 1.64812L25.4464 1.88257L24.8654 2.14532L24.3008 2.44021L23.7533 2.75572L23.2196 3.09603L22.7069 3.4636L22.2113 3.85248L21.7383 4.26722L21.2851 4.70012L20.8501 5.15714L20.437 5.63267L20.0489 6.13056L19.6839 6.64383L19.3432 7.17946L19.0284 7.72837L18.7396 8.29544L18.4815 8.87369L18.2447 9.46977L18.0374 10.0795L17.865 10.7017L17.7191 11.3328L17.6024 11.9802L17.5202 12.6325L17.4686 13.2985L17.4522 13.9721L17.4686 14.6507L17.5202 15.3205L17.6024 15.9773L17.7191 16.63L17.865 17.2645L18.0374 17.8917L18.2447 18.5L18.4815 19.101L18.7396 19.6837L19.0284 20.2505L19.3432 20.8036L19.6839 21.3392L20.0489 21.8535L20.437 22.3504L20.8501 22.8297L21.2851 23.2881L21.7383 23.7249L22.2113 24.1396L22.7069 24.5282L23.2196 24.8957L23.7533 25.2406L24.3008 25.5561L24.8654 25.8464L25.4464 26.1099L26.041 26.3475L26.6523 26.5543L27.2726 26.7322L27.9101 26.8782L28.5569 26.9949L29.2114 27.0774L29.8791 27.1291L30.5552 27.1469Z" fill="#EC1C2E"/>
<path d="M13.1697 27.1469L13.8465 27.1291L14.5142 27.0774L15.1694 26.9949L15.8148 26.8782L16.4526 26.7322L17.0733 26.5543L17.6846 26.3475L18.2791 26.1099L18.8608 25.8464L19.4247 25.5561L19.9716 25.2406L20.5059 24.8957L21.0179 24.5282L21.5132 24.1396L21.988 23.7249L22.4439 23.2881L22.8752 22.8297L23.2889 22.3504L23.6763 21.8535L24.042 21.3392L24.382 20.8036L24.6975 20.2505L24.9852 19.6837L25.2486 19.101L25.4813 18.5L25.6875 17.8917L25.8606 17.2645L26.0065 16.63L26.1232 15.9773L26.2043 15.3205L26.2563 14.6507L26.2733 13.9721L26.2563 13.2985L26.2043 12.6325L26.1232 11.9802L26.0065 11.3328L25.8606 10.7017L25.6875 10.0795L25.4813 9.46977L25.2486 8.87369L24.9852 8.29544L24.6975 7.72837L24.382 7.17946L24.042 6.64383L23.6763 6.13056L23.2889 5.63267L22.8752 5.15714L22.4439 4.70012L21.988 4.26722L21.5132 3.85248L21.0179 3.4636L20.5059 3.09603L19.9716 2.75572L19.4247 2.44021L18.8608 2.14532L18.2791 1.88257L17.6846 1.64812L17.0733 1.44163L16.4526 1.26449L15.8148 1.11739L15.1694 1.00069L14.5142 0.918929L13.8465 0.867219L13.1697 0.850098L12.494 0.867219L11.8259 0.918929L11.1714 1.00069L10.5253 1.11739L9.88821 1.26449L9.263 1.44163L8.65554 1.64812L8.05748 1.88257L7.47613 2.14532L6.91117 2.44021L6.35979 2.75572L5.83 3.09603L5.31311 3.4636L4.81815 3.85248L4.33956 4.26722L3.88745 4.70012L3.45275 5.15714L3.0386 5.63267L2.64744 6.13056L2.28067 6.64383L1.94071 7.17946L1.62549 7.72837L1.33325 8.29544L1.07028 8.87369L0.837952 9.46977L0.631395 10.0795L0.455503 10.7017L0.307469 11.3328L0.191477 11.9802L0.10996 12.6325L0.0577126 13.2985L0.0413513 13.9721L0.0577126 14.6507L0.10996 15.3205L0.191477 15.9773L0.307469 16.63L0.455503 17.2645L0.631395 17.8917L0.837952 18.5L1.07028 19.101L1.33325 19.6837L1.62549 20.2505L1.94071 20.8036L2.28067 21.3392L2.64744 21.8535L3.0386 22.3504L3.45275 22.8297L3.88745 23.2881L4.33956 23.7249L4.81815 24.1396L5.31311 24.5282L5.83 24.8957L6.35979 25.2406L6.91117 25.5561L7.47613 25.8464L8.05748 26.1099L8.65554 26.3475L9.263 26.5543L9.88821 26.7322L10.5253 26.8782L11.1714 26.9949L11.8259 27.0774L12.494 27.1291L13.1697 27.1469Z" fill="#0084C4"/>
<path d="M20.2475 5.85727H26.894V5.12354H20.8894L20.2475 5.85727Z" fill="#EC1C2E"/>
<path d="M19.205 7.413H26.894V6.68311H19.6707L19.205 7.413Z" fill="#EC1C2E"/>
<path d="M18.4247 8.9943H26.894V8.25952H18.7832L18.4247 8.9943Z" fill="#EC1C2E"/>
<path d="M17.9176 10.5504H26.8941V9.81982H18.1416L17.9176 10.5504Z" fill="#EC1C2E"/>
<path d="M17.5856 12.1098H26.894V11.375H17.719L17.5856 12.1098Z" fill="#EC1C2E"/>
<path d="M17.516 15.13H26.894V14.3953H17.4522L17.516 15.13Z" fill="#EC1C2E"/>
<path d="M17.741 16.7763H26.894V16.0415H17.6072L17.741 16.7763Z" fill="#EC1C2E"/>
<path d="M18.1848 18.112H26.894V17.3772H17.9601L18.1848 18.112Z" fill="#EC1C2E"/>
<path d="M18.8472 19.7365H26.894V19.0017H18.4944L18.8472 19.7365Z" fill="#EC1C2E"/>
<path d="M19.7832 21.3824H26.894V20.6479H19.2914L19.7832 21.3824Z" fill="#EC1C2E"/>
<path d="M20.9539 22.9637H26.8292V22.2292H20.3123L20.9539 22.9637Z" fill="#EC1C2E"/>
<path d="M41.5264 22.0485L41.5654 21.9314L41.6295 21.8234L41.7121 21.7281L41.8068 21.6498L41.9141 21.5897L42.0304 21.5513L42.1558 21.5383L42.2843 21.5513L42.4048 21.5897L42.5125 21.6498L42.6076 21.7281L42.6849 21.8234L42.7448 21.9314L42.7845 22.0485H42.6511L42.6246 21.966L42.5776 21.8748L42.517 21.7969L42.4439 21.7361L42.3571 21.6896L42.2582 21.6592L42.1558 21.6498L42.052 21.6592L41.9524 21.6896L41.8663 21.7361L41.7894 21.7969L41.7281 21.8748L41.6817 21.966L41.6556 22.0485H41.5264Z" fill="#EC1C2E"/>
<path d="M41.9315 22.0483V21.8921H42.1771L42.2325 21.8959L42.2795 21.9008L42.3234 21.9141L42.3572 21.9312L42.384 21.9529L42.4049 21.9784L42.4184 22.0088L42.423 22.0483H42.3105L42.3059 22.0263L42.2972 22.0088L42.2843 21.9913L42.2676 21.9784L42.2457 21.9697L42.2248 21.9658L42.2029 21.9616H42.0433V22.0483H41.9315Z" fill="#EC1C2E"/>
<path d="M41.5174 22.1601L41.5264 22.0522V22.0483H41.6556L41.6515 22.0697L41.6421 22.1601H41.5174Z" fill="#EC1C2E"/>
<path d="M41.9315 22.1601V22.0483H42.0433V22.1388H42.229L42.2541 22.1346L42.2756 22.1252L42.2892 22.1172L42.3018 22.1001L42.3105 22.0784V22.0483H42.423L42.4184 22.0868L42.409 22.1217L42.3965 22.1472L42.384 22.1601H41.9315Z" fill="#EC1C2E"/>
<path d="M42.6633 22.1601L42.6553 22.0697L42.6511 22.0483H42.7846V22.0522L42.7971 22.1601H42.6633Z" fill="#EC1C2E"/>
<path d="M41.5174 22.1604L41.5139 22.1814L41.5265 22.311L41.5655 22.4326L41.6295 22.5367L41.7121 22.631L41.8068 22.7048L41.9141 22.7614L42.0304 22.7953L42.1558 22.8089L42.2844 22.7953L42.4049 22.7614L42.5125 22.7048L42.6076 22.631L42.6849 22.5367L42.7448 22.4326L42.7846 22.311L42.7971 22.1814V22.1604H42.6633V22.1814L42.6553 22.2942L42.6247 22.398L42.5776 22.4888L42.517 22.5668L42.4439 22.631L42.3572 22.6793L42.2582 22.709L42.1558 22.7177L42.052 22.709L41.9524 22.6793L41.8664 22.631L41.7894 22.5668L41.7281 22.4888L41.6818 22.398L41.6515 22.2942L41.6421 22.1814V22.1604H41.5174Z" fill="#EC1C2E"/>
<path d="M41.9315 22.1604V22.428H42.0433V22.2083H42.1558L42.2892 22.428H42.4014L42.2412 22.2083L42.2795 22.2037L42.3185 22.1992L42.3495 22.1859L42.3753 22.1691L42.384 22.1604H41.9315Z" fill="#EC1C2E"/>
<path d="M27.716 12.8663L27.6303 12.8621L27.5443 12.8533L27.4659 12.8401L27.3893 12.8324L27.312 12.8184L27.2343 12.8055L27.1525 12.7926L27.0664 12.7796L26.9758 12.7705L26.8804 12.7622L26.7728 12.7538L26.6564 12.7489H26.5276L26.3855 12.7538L26.2259 12.7622L26.0542 12.7751L25.9288 12.7926L25.8125 12.8184L25.7056 12.8533L25.6105 12.8925L25.5241 12.9393L25.4464 12.9921L25.3816 13.0518L25.3304 13.1123L25.2914 13.1818L25.266 13.2545L25.2524 13.3282V13.4057L25.2705 13.4882L25.3005 13.57L25.3475 13.6524L25.4074 13.7349L25.5324 13.8474L25.6787 13.9379L25.8518 14.0155L26.0368 14.0797L26.2305 14.1447L26.4335 14.2101L26.6394 14.2834L26.8379 14.3704L27.0232 14.4735L27.2002 14.5989L27.3545 14.7593L27.4837 14.949L27.5826 15.1821L27.6477 15.4588L27.67 15.7873L27.6477 16.1761L27.6 16.4651L27.522 16.7247L27.4238 16.9581L27.298 17.1649L27.1525 17.3466L26.9929 17.5025L26.8156 17.6363L26.6272 17.753L26.428 17.848L26.2221 17.9252L26.0107 17.9909L25.7993 18.0381L25.5889 18.0727L25.3816 18.0943L25.1845 18.1076L24.9901 18.1122H24.7219L24.4816 18.1076L24.2621 18.1031L24.0601 18.0989L23.8745 18.0905L23.7108 18.0814L23.5558 18.0692L23.4178 18.051L23.2889 18.0339L23.1681 18.0119L23.0552 17.9909L22.9445 17.9605L22.841 17.9301L22.7372 17.9001L22.6341 17.8613L22.5265 17.8222L22.7929 16.4651L22.8535 16.4787L22.9264 16.4997L23.0173 16.5213L23.1162 16.5472L23.2322 16.5692L23.3614 16.5996L23.4993 16.6248L23.6463 16.651L23.801 16.6726L23.9647 16.6946L24.1333 16.7114L24.3092 16.7289L24.4865 16.7373L24.6676 16.7415H24.8483L25.033 16.7327L25.2054 16.703L25.3475 16.6555L25.4551 16.5867L25.5408 16.5091L25.6059 16.4172L25.653 16.3232L25.692 16.2278L25.7178 16.1328L25.7306 16.0336L25.7265 15.9466L25.7056 15.8648L25.67 15.796L25.6233 15.7265L25.5627 15.666L25.4896 15.6094L25.4074 15.5577L25.3172 15.5109L25.2183 15.463L25.1113 15.4158L24.9981 15.3725L24.8863 15.3292L24.7661 15.2813L24.6453 15.2342L24.5206 15.1821L24.4001 15.13L24.2796 15.0741L24.1583 15.0091L24.042 14.9403L23.9302 14.8666L23.8264 14.7841L23.7282 14.6891L23.6379 14.5906L23.5558 14.4777L23.4826 14.3568L23.422 14.2226L23.3708 14.0797L23.3356 13.9204L23.3144 13.7475L23.3095 13.557L23.3231 13.3537L23.3356 13.229L23.3534 13.1074L23.3708 12.9921L23.3959 12.8792L23.422 12.7705L23.4523 12.6629L23.491 12.5637L23.5296 12.4641L23.577 12.3733L23.6247 12.2828L23.6805 12.2007L23.7411 12.1186L23.8055 12.041L23.8745 11.9669L23.9473 11.8977L24.0288 11.8331L24.1148 11.773L24.2061 11.7168L24.3046 11.6647L24.4088 11.613L24.5157 11.5697L24.6317 11.5267L24.7536 11.4921L24.8818 11.4568L25.0201 11.4271L25.1622 11.4016L25.3092 11.3799L25.4638 11.3621L25.6268 11.3495L25.7993 11.3412L25.9769 11.3328H26.3896L26.5969 11.3359L26.7818 11.3412L26.9539 11.3495L27.1054 11.3583L27.243 11.367L27.3677 11.3799L27.4757 11.3883L27.575 11.4016L27.6606 11.4142L27.7428 11.4226L27.8111 11.4358L27.8721 11.4446L27.9282 11.4526L27.979 11.4617L28.0271 11.4662L27.716 12.8663Z" fill="white"/>
<path d="M29.133 9.97534H30.8655L30.598 11.4882H31.6624L31.4207 12.8663L30.3315 12.8439L29.7585 16.2883L29.7498 16.3613V16.4259L29.7585 16.4829L29.776 16.5346L29.8014 16.5779L29.8306 16.6213L29.8703 16.6555L29.9135 16.6807L29.9654 16.7076L30.0177 16.7289L30.0769 16.7463L30.1375 16.7554L30.2068 16.7684L30.2758 16.7719L30.3482 16.7764H30.5597L30.6802 16.7684L30.792 16.7509L30.8874 16.7289L30.9602 16.7076L31.0167 16.6855L31.0504 16.6681L31.0633 16.6646L30.8874 17.8435L30.8446 17.8697L30.7969 17.8917L30.7495 17.913L30.7014 17.9346L30.6544 17.9518L30.6015 17.9692L30.551 17.986L30.491 18.0035L30.4301 18.0206L30.3653 18.0339L30.2922 18.0468L30.2152 18.059L30.133 18.0727L30.0473 18.0852L29.9477 18.0989L29.8446 18.1121H29.3789L29.133 18.0943L28.9135 18.0692L28.7206 18.0339L28.552 17.986L28.4092 17.9346L28.2897 17.8697L28.1904 17.797L28.1089 17.7138L28.0438 17.623L27.9961 17.5234L27.9665 17.4154L27.9494 17.2952L27.9445 17.1702L27.9494 17.0318L27.9619 16.8885L27.9839 16.7327L29.133 9.97534Z" fill="white"/>
<path d="M18.6062 15.2206L18.5839 15.3292L18.5804 15.4375L18.5895 15.5535L18.6149 15.666L18.6491 15.7831L18.701 15.8991L18.7612 16.0116L18.8344 16.1196L18.9166 16.2233L19.0117 16.3233L19.1099 16.4099L19.2182 16.4913L19.3335 16.5605L19.4547 16.6171L19.5843 16.6597L19.7125 16.6901L19.8685 16.7114L20.0235 16.7328L20.1823 16.7509L20.3419 16.759L20.5059 16.7632H20.6651L20.8337 16.7555L20.9967 16.7415L21.1646 16.7163L21.337 16.6856L21.5094 16.6423L21.6819 16.5867L21.8539 16.5214L22.0357 16.4442L22.2113 16.3491L22.3931 16.245L22.126 17.7792L22.0263 17.8309L21.9267 17.8781L21.8365 17.9179L21.7421 17.9518L21.6474 17.9861L21.5526 18.0119L21.4534 18.0339L21.3457 18.0556L21.2346 18.0692L21.1127 18.0814L20.98 18.0944L20.8379 18.0989L20.6825 18.1076H20.5094L20.3203 18.1122H19.9633L19.8083 18.1031L19.6571 18.0944L19.5021 18.0772L19.3433 18.0556L19.1879 18.0294L19.0326 17.9955L18.8782 17.9605L18.7267 17.913L18.5766 17.8652L18.4296 17.8093L18.283 17.745L18.1416 17.6709L18.0029 17.593L17.8744 17.5067L17.7445 17.412L17.6247 17.3079L17.508 17.1957L17.3958 17.0745L17.2966 16.9448L17.2018 16.8023L17.1165 16.6555L17.0384 16.4962L16.9695 16.3271L16.9089 16.1465L16.8619 15.9553L16.8228 15.7569L16.7971 15.5406L16.781 15.3159V15.0829L16.7883 14.8327L16.8099 14.5721L16.8228 14.4823L16.8357 14.3785L16.8538 14.2744L16.8747 14.1629L16.8956 14.0455L16.9266 13.9246L16.9611 13.7996L16.9952 13.6699L17.0384 13.5354L17.0855 13.4058L17.1419 13.2723L17.2018 13.1381L17.2704 13.0043L17.3439 12.8705L17.4258 12.7374L17.5115 12.6071L17.6111 12.482L17.7145 12.3565L17.8263 12.2349L17.951 12.1228L18.0806 12.0106L18.2231 11.9072L18.3739 11.8115L18.5376 11.721L18.7093 11.6431L18.8943 11.5697L19.0883 11.505L19.2945 11.4526L19.5153 11.4104L19.7476 11.38L19.989 11.3621L20.2475 11.3538H20.3687L20.4885 11.3621L20.6139 11.3709L20.7386 11.3838L20.8626 11.4016L20.9929 11.4271L21.1172 11.4568L21.2426 11.4921L21.3666 11.5306L21.4924 11.5784L21.6132 11.6298L21.7292 11.6913L21.8417 11.7601L21.9535 11.8331L22.0559 11.9201L22.1604 12.0106L22.2545 12.1099L22.3447 12.2185L22.4269 12.3387L22.5004 12.4641L22.5694 12.6025L22.6296 12.7489L22.6808 12.9096L22.7191 13.0784L22.7543 13.2597L22.7759 13.4488L22.785 13.6525V13.8684L22.7717 14.0976L22.7505 14.3394L22.7118 14.5944L22.6592 14.8624L22.5913 15.2426H18.1158L18.3826 14.0413H21.0664L21.0789 13.8771V13.7258L21.0702 13.5836L21.0448 13.4533L21.0103 13.3376L20.9668 13.229L20.9107 13.1336L20.8462 13.0473L20.7727 12.9697L20.6905 12.9054L20.6045 12.8534L20.5143 12.8097L20.4154 12.7751L20.3123 12.7489L20.2046 12.7374L20.0921 12.7318H19.9716L19.8598 12.7489L19.7476 12.7706L19.6442 12.8055L19.5453 12.8534L19.4505 12.9096L19.3603 12.9739L19.2781 13.0473L19.2008 13.1336L19.1322 13.2248L19.0667 13.324L19.0068 13.4323L18.9556 13.5445L18.9124 13.6654L18.8782 13.7957L18.8473 13.9292L18.6062 15.2206Z" fill="white"/>
<path d="M16.2122 16.7328L15.966 18.1123H14.4115L14.4285 17.9819L14.4449 17.8523L14.4623 17.7363L14.4794 17.6276L14.4968 17.5364L14.5097 17.4596L14.5271 17.4075L14.5445 17.3775L14.4623 17.4722L14.3588 17.5668L14.2436 17.6584L14.1095 17.745L13.9673 17.8268L13.812 17.9044L13.6483 17.9739L13.48 18.0382L13.3038 18.0944L13.123 18.1427L12.9415 18.1762L12.7615 18.2024L12.58 18.2157L12.4038 18.2199L12.2313 18.2073L12.0638 18.1807L11.8433 18.1294L11.65 18.0591L11.4737 17.9774L11.3181 17.8869L11.1808 17.7877L11.0638 17.6755L10.9607 17.5588L10.8746 17.4295L10.8012 17.2999L10.7412 17.165L10.6935 17.0267L10.6545 16.8848L10.6298 16.7465L10.611 16.6039L10.6033 16.4652L10.5981 16.3317L10.6162 16.0899L10.6545 15.8607L10.7109 15.6396L10.7924 15.4327L10.8914 15.2388L11.0032 15.0571L11.1373 14.8884L11.2794 14.7283L11.4393 14.5858L11.6064 14.4607L11.7876 14.3447L11.9774 14.2444L12.1753 14.1585L12.378 14.0886L12.5838 14.0376L12.7953 13.9981H12.8043L12.8346 13.9942L12.8816 13.989L12.9454 13.981L13.0196 13.9722L13.1056 13.9638L13.2014 13.9506L13.3038 13.9429L13.4076 13.9334L13.511 13.9205L13.6183 13.9114L13.7218 13.903L13.8162 13.8943L13.9064 13.8901L13.9893 13.8863H14.2777L14.3554 13.8901H14.4285L14.4968 13.8943H14.6347L14.6953 13.8989H14.7514L14.7988 13.903H14.842L14.8758 13.9079H14.9235L14.9371 13.8643L14.9663 13.7612L14.9886 13.6393V13.532L14.9796 13.4534L14.9663 13.3804L14.9447 13.3108L14.9148 13.2465L14.8806 13.1857L14.8374 13.1302L14.7942 13.0785L14.7424 13.0261L14.6866 12.9831L14.6302 12.9481L14.5647 12.9136L14.5013 12.8832L14.4327 12.8622L14.3588 12.844L14.2854 12.8325L14.2122 12.8231L14.0363 12.8185L13.8503 12.8231L13.656 12.8273L13.4591 12.8402L13.2606 12.8535L13.0624 12.8706L12.8649 12.8926L12.6709 12.9136L12.4856 12.9436L12.3094 12.9698L12.1498 13.0002L11.999 13.0344L11.8649 13.069L11.7527 13.1033L11.6618 13.1382L11.5984 13.177L12.0415 11.7081L12.1707 11.648L12.3094 11.5921L12.4463 11.5439L12.5929 11.5051L12.7444 11.4747L12.8991 11.4489L13.0624 11.4272L13.2303 11.4104L13.4034 11.4017L13.5797 11.3926L13.7601 11.3884H14.346L14.5532 11.3926L14.7688 11.3975L14.9447 11.4143L15.1307 11.4401L15.3237 11.4884L15.5174 11.5439L15.7121 11.6173L15.9064 11.7081L16.0862 11.8115L16.2586 11.9331L16.4181 12.0708L16.5602 12.2221L16.6814 12.3909L16.7755 12.576L16.8441 12.7797L16.8831 13.0002L16.888 13.2333L16.8538 13.4883L16.2122 16.7328Z" fill="white"/>
<path d="M14.7249 15.1086L14.7207 15.074L14.6953 15.0478L14.6518 15.0264L14.5964 15.0139L14.5229 15.0048L14.4449 15.0002H14.2603L14.1613 15.009L14.0579 15.0219L13.9586 15.0345L13.8597 15.0527L13.765 15.0691L13.6741 15.0865L13.5971 15.1086L13.5278 15.1299L13.4887 15.1386L13.4372 15.1554L13.3735 15.1777L13.3038 15.2074L13.2303 15.2385L13.1484 15.277L13.0666 15.3245L12.9854 15.3724L12.9032 15.4325L12.8256 15.4981L12.7517 15.5663L12.6883 15.6452L12.627 15.7263L12.5838 15.8178L12.5504 15.9164L12.5284 16.0201L12.5201 16.2319L12.5504 16.3961L12.6016 16.5257L12.6789 16.6211L12.774 16.6854L12.8729 16.7287L12.9806 16.7507L13.0844 16.7553L13.2738 16.7507L13.4424 16.7326L13.6013 16.7029L13.7434 16.6644L13.8726 16.6211L13.9893 16.569L14.0917 16.5089L14.1823 16.444L14.2638 16.379L14.3331 16.3056L14.3937 16.2361L14.4449 16.163L14.4884 16.0897L14.5229 16.0201L14.549 15.9517L14.5703 15.8863L14.5922 15.7909L14.6131 15.691L14.6347 15.5879L14.657 15.4796L14.673 15.3765L14.6911 15.2812L14.7082 15.1907L14.7249 15.1086Z" fill="#0084C4"/>
<path d="M3.2117 18.1121H1.52655L2.94384 9.97534H5.87316L6.16192 14.8191L8.15602 9.97534H11.1975L9.77639 18.1121H8.09194L9.15536 12.019H9.09056L6.58408 18.1121H4.6976L4.68018 17.8564L4.64118 17.1782L4.58509 16.2188L4.52067 15.1178L4.45657 14.0064L4.40049 13.0259L4.36114 12.317L4.34406 12.019H4.25804H4.27545L3.2117 18.1121Z" fill="white"/>
<path d="M31.3524 18.112H33.1059L33.7043 14.5988L33.7301 14.4604L33.7604 14.3262L33.7945 14.1924L33.8377 14.0677L33.8847 13.9426L33.9453 13.8252L34.0181 13.713L34.1003 13.6054L34.1999 13.5093L34.3111 13.4227L34.4448 13.3455L34.5911 13.2763L34.7642 13.22L34.9575 13.1767L35.1728 13.1512L35.4138 13.1334H35.4354L35.4615 13.1379L35.4964 13.1421H35.5302L35.5612 13.1463L35.5862 13.1512L35.6037 13.1554H35.6127L35.6172 13.1299L35.634 13.0558L35.6559 12.9433L35.69 12.8011L35.7332 12.6418L35.7802 12.4681L35.8367 12.2955L35.9004 12.132L35.9485 12.0104L36.0042 11.8937L36.06 11.7774L36.1205 11.6694L36.1725 11.5782L36.2156 11.5048L36.2452 11.4566L36.2547 11.4398H36.2452L36.224 11.4311L36.194 11.4269L36.1502 11.4182L36.1073 11.4101L36.0554 11.4056L36.0091 11.3972H35.9659L35.7761 11.4101L35.6037 11.4311L35.4448 11.466L35.2975 11.5048L35.1599 11.5562L35.0355 11.6128L34.915 11.6816L34.8074 11.7557L34.6987 11.8382L34.5998 11.9283L34.5096 12.0233L34.4142 12.1264L34.3246 12.2347L34.2382 12.3521L34.1477 12.473L34.0578 12.5981L34.2598 11.4881L32.5068 11.466L31.3524 18.112Z" fill="white"/>
<path d="M38.9377 11.3972L39.1314 11.4014L39.3212 11.414L39.5065 11.4311L39.6873 11.4566L39.8597 11.4919L40.0269 11.5349L40.1872 11.5831L40.3456 11.6383L40.4968 11.7033L40.6389 11.7728L40.781 11.8462L40.9103 11.9283L41.0402 12.0188L41.16 12.1138L41.2732 12.2134L41.3801 12.3217L41.4832 12.4339L41.5776 12.5548L41.6651 12.6764L41.7466 12.8053L41.8232 12.9391L41.8883 13.0824L41.9524 13.2246L42.005 13.3752L42.052 13.5272L42.0904 13.6872L42.1248 13.8514L42.1516 14.0195L42.168 14.1879L42.1771 14.3654L42.1813 14.5467L42.1771 14.728L42.1638 14.9489L42.1384 15.1609L42.1078 15.3632L42.0688 15.5621L42.0266 15.7525L41.9698 15.9335L41.9099 16.1113L41.8451 16.2787L41.7675 16.439L41.6905 16.5945L41.5992 16.7413L41.5094 16.8796L41.4101 17.0138L41.3021 17.1389L41.1907 17.2559L41.0747 17.3684L40.9534 17.4719L40.8287 17.5718L40.6954 17.6616L40.5616 17.7447L40.4195 17.822L40.2721 17.8915L40.1266 17.9561L39.9712 18.0117L39.8169 18.0634L39.6525 18.1074L39.4891 18.1424L39.3247 18.1721L39.153 18.1941L38.9813 18.2105L38.8044 18.2196L38.627 18.2238L38.4505 18.2196L38.2739 18.2105L38.1063 18.1941L37.9384 18.1675L37.7751 18.1371L37.6107 18.1029L37.4557 18.0589L37.3055 18.0082L37.154 17.9516L37.0123 17.8866L36.8747 17.8178L36.7409 17.7402L36.6124 17.6581L36.4912 17.5666L36.3707 17.4719L36.2589 17.3684L36.1551 17.2598L36.0513 17.1438L35.9607 17.0229L35.8708 16.8933L35.7928 16.7587L35.7155 16.6169L35.6514 16.4691L35.5904 16.3181L35.5389 16.1585L35.4915 15.9904L35.4529 15.8178L35.4232 15.6393L35.4016 15.4544L35.3888 15.2637L35.3846 15.0656L35.3888 14.8622L35.4016 14.655L35.4232 14.4559L35.4529 14.2612L35.4915 14.0757L35.5347 13.894L35.5863 13.7165L35.642 13.5485L35.7068 13.3846L35.7761 13.2246L35.8527 13.0733L35.9391 12.9304L36.0304 12.7885L36.1255 12.6589L36.2279 12.5289L36.3362 12.4119L36.448 12.2955L36.5685 12.1872L36.6936 12.088L36.8221 11.9933L36.9562 11.907L37.0976 11.8287L37.2449 11.7519L37.3954 11.6862L37.5466 11.6257L37.7061 11.5747L37.8688 11.5265L38.0374 11.4881L38.2098 11.4524L38.3864 11.4311L38.5668 11.4101L38.7524 11.4014L38.9377 11.3972Z" fill="white"/>
<path d="M41.5139 17.7793H42.0224V17.8436H41.8232V18.2671H41.7121V17.8436H41.5139V17.7793Z" fill="white"/>
<path d="M42.0869 17.7793H42.2412L42.423 18.1552L42.5989 17.7793H42.7542V18.2671H42.6417V17.8918L42.4655 18.2671H42.3753L42.1976 17.8918V18.2671H42.0869V17.7793Z" fill="white"/>
<path d="M37.5637 14.572L37.5379 14.8145L37.5247 15.0395V15.2425L37.5379 15.4325L37.5637 15.6055L37.6013 15.7568L37.6504 15.8951L37.71 16.0202L37.7831 16.1275L37.865 16.2187L37.9552 16.2963L38.0551 16.3578L38.1621 16.4042L38.2829 16.4392L38.4073 16.4566L38.5417 16.465L38.6877 16.4612L38.8305 16.4441L38.9639 16.4133L39.0928 16.3665L39.2136 16.3057L39.3296 16.2278L39.4373 16.1362L39.5407 16.0283L39.6309 15.9081L39.718 15.769L39.7988 15.6135L39.8681 15.4455L39.9329 15.2603L39.9886 15.0569L40.0325 14.8361L40.0708 14.5989L40.0921 14.4127L40.105 14.2355V14.0629L40.0921 13.8987L40.0708 13.7474L40.0364 13.6003L39.9886 13.4665L39.9329 13.3414L39.8639 13.2289L39.7863 13.1335L39.6957 13.0472L39.5968 12.9784L39.485 12.9218L39.3641 12.8872L39.2352 12.8662H39.0928L38.9162 12.8791L38.7525 12.9095L38.6016 12.9609L38.4592 13.0259L38.3303 13.1122L38.2098 13.2072L38.1022 13.3148L38.0067 13.4368L37.9169 13.5661L37.8395 13.7044L37.7695 13.8421L37.7145 13.9888L37.6626 14.1359L37.6201 14.2834L37.5891 14.4305L37.5637 14.572Z" fill="#EC1C2E"/>
</svg>
