<svg width="44" height="15" viewBox="0 0 44 15" fill="none" xmlns="http://www.w3.org/2000/svg">
<path d="M18.9536 14.7305H15.3865L17.6165 0.985107H21.1846L18.9536 14.7305Z" fill="#0066B2"/>
<path d="M12.3851 0.984969L8.98415 10.439L8.5815 8.40306V8.40341L7.38085 2.22254C7.38085 2.22254 7.237 0.984969 5.68909 0.984969H0.0662267L0.000396729 1.21802C0.000396729 1.21802 1.72003 1.5758 3.7326 2.78822L6.83191 14.73H10.5488L16.2253 0.984619H12.3855L12.3851 0.984969Z" fill="#0066B2"/>
<path d="M36.5212 9.86844L38.3952 4.72354L39.4502 9.86844H36.5212ZM40.4471 14.73H43.723L40.8668 0.984619H37.9988C36.6745 0.984619 36.3516 2.00836 36.3516 2.00836L31.0311 14.73H34.7494L35.4934 12.6888H40.0284L40.4471 14.73Z" fill="#0066B2"/>
<path d="M31.3098 4.2902L31.8187 1.33848C31.8187 1.33848 30.2471 0.739258 28.6104 0.739258C26.8392 0.739258 22.635 1.51527 22.635 5.28983C22.635 8.84147 27.5699 8.88515 27.5699 10.7495C27.5699 12.6143 23.1439 12.2813 21.6824 11.1052L21.1522 14.1904C21.1522 14.1904 22.7447 14.9675 25.1794 14.9675C27.6131 14.9675 31.2872 13.7027 31.2872 10.2618C31.2872 6.68778 26.3076 6.3541 26.3076 4.80067C26.3076 3.24654 29.7824 3.4464 31.3088 4.2902H31.3098Z" fill="#0066B2"/>
<path d="M8.5811 8.40379L7.38046 2.22292C7.38046 2.22292 7.2366 0.985352 5.68869 0.985352H0.0658321L0 1.2184C0 1.2184 2.70328 1.77953 5.29509 3.88396C7.77371 5.8965 8.58075 8.40379 8.58075 8.40379H8.5811Z" fill="#F9A533"/>
</svg>
