<svg width="46" height="53" viewBox="0 0 46 53" fill="none" xmlns="http://www.w3.org/2000/svg">
<g clip-path="url(#clip0_107_5)">
<path d="M9.6744 1.06049C8.6374 1.89676 8.27546 3.53936 8.62705 5.83174C8.91857 7.70676 9.91039 10.0416 11.0246 11.4416L11.202 11.6684L10.7559 11.9476C5.53827 15.2167 1.83187 20.4757 0.862084 25.975C0.690823 26.9536 0.628924 27.6031 0.607607 28.6305C0.582938 30.0181 0.702587 31.1576 1.01122 32.5575C1.27121 33.7162 1.59236 34.2748 2.31157 34.8137C2.71692 35.1146 3.24354 35.3655 3.80163 35.5271L4.24171 35.6536L5.04757 37.255C5.84743 38.8545 6.13138 39.348 6.89978 40.4963C9.91835 45.0086 14.211 48.6855 18.6727 50.5842C19.9862 51.144 21.635 51.5874 23.2068 51.8036C25.5224 52.1191 28.2727 52.1119 31.2447 51.789C32.2951 51.6731 34.2077 51.3968 34.7761 51.2733C35.9389 51.0283 37.5655 50.1219 38.7262 49.0772C39.4755 48.4026 40.3611 47.3414 41.0191 46.3288C42.3183 44.3413 43.6162 41.3621 44.4093 38.5536C45.8042 33.65 45.9343 28.8258 44.7939 24.4569C44.2333 22.3021 43.4023 20.5068 42.2367 18.9111L41.967 18.5383L42.1414 18.0248C42.347 17.4419 42.3977 17.0042 42.319 16.488C42.2062 15.6988 41.8493 15.1086 41.025 14.3466C37.4499 11.0522 33.3003 8.96996 28.7356 8.18814C25.1387 7.57192 21.2962 7.80404 17.7308 8.85229C17.3091 8.97703 16.9095 9.09572 16.847 9.11185L16.728 9.14607L16.456 8.65649C16.0528 7.94189 15.5834 6.81789 15.5443 6.47367C15.4505 5.62102 15.665 4.84212 16.372 3.50071C17.0563 2.20493 17.1402 1.96701 17.09 1.5595C17.0384 1.10846 16.6316 0.773913 15.8279 0.512519C14.3865 0.0404 12.6417 -0.0264833 11.2582 0.332445C10.7843 0.453468 9.95292 0.83945 9.6744 1.06049ZM11.4167 1.9686C12.0349 1.73209 13.0446 1.65601 14.0072 1.77018C14.6127 1.84448 15.2654 1.99377 15.2725 2.05906C15.2742 2.0828 15.1126 2.40818 14.9121 2.7872C14.0044 4.51752 13.7184 5.78368 13.9715 6.99977C14.0598 7.41303 14.298 8.00767 14.768 8.95947L15.1521 9.74739L14.8267 9.87364C14.6468 9.94774 14.0887 10.1939 13.585 10.4278C13.0834 10.6559 12.6588 10.8361 12.6389 10.8263C12.6249 10.8184 12.4829 10.6429 12.3253 10.4358C10.8886 8.56629 9.98796 5.77378 10.1532 3.7125C10.1836 3.29471 10.3298 2.78532 10.4799 2.54906C10.5827 2.39022 10.8611 2.17908 11.0732 2.0989C11.1338 2.07882 11.2854 2.01871 11.4167 1.9686ZM19.7655 23.3215C23.3031 21.7072 26.5863 20.4545 29.9707 19.417C34.4024 18.0637 37.1959 17.7258 38.9929 18.3268C39.8365 18.6078 40.3028 19.0015 41.0304 20.0569C41.7247 21.0552 42.2702 22.0581 42.5756 22.8701C43.5181 25.4111 43.9548 28.0593 43.9111 30.9988C43.8672 34.0809 43.3156 36.9912 42.184 40.1338C41.4883 42.069 40.8466 43.4715 40.0471 44.8192C38.7202 47.0464 37.4109 48.361 35.6624 49.2244C34.8731 49.6142 34.7903 49.6403 33.8941 49.793C29.1227 50.6115 24.8453 50.6359 21.6426 49.8594C19.8631 49.4265 17.7799 48.4805 15.8938 47.2405C13.3473 45.5702 10.8578 43.1693 8.9363 40.5321C7.91445 39.1356 7.24981 38.0343 6.46585 36.4466C5.62923 34.7523 5.3536 33.9698 5.40413 33.4095C5.46316 32.6828 5.83646 32.0317 6.6153 31.264C7.46129 30.4385 8.48663 29.7112 11.5024 27.7946C14.212 26.0735 16.778 24.6837 19.7655 23.3215Z" fill="#FF5858"/>
</g>
<defs>
<clipPath id="clip0_107_5">
<rect width="46" height="53" fill="white"/>
</clipPath>
</defs>
</svg>
