<svg width="14" height="15" viewBox="0 0 14 15" fill="none" xmlns="http://www.w3.org/2000/svg">
<path d="M2.25244 3.79791L2.86015 13.2911" stroke="#FF5858" stroke-width="0.5" stroke-miterlimit="2.6131" stroke-linecap="round" stroke-linejoin="round"/>
<path d="M2.85986 13.2911C2.85986 13.6271 3.13247 13.9001 3.46761 13.9001" stroke="#FF5858" stroke-width="0.5" stroke-miterlimit="2.6131" stroke-linecap="round" stroke-linejoin="round"/>
<path d="M3.46777 13.9001H10.5322" stroke="#FF5858" stroke-width="0.5" stroke-miterlimit="2.6131" stroke-linecap="round" stroke-linejoin="round"/>
<path d="M10.5322 13.9001C10.8674 13.9001 11.1396 13.6271 11.1396 13.2911" stroke="#FF5858" stroke-width="0.5" stroke-miterlimit="2.6131" stroke-linecap="round" stroke-linejoin="round"/>
<path d="M11.1396 13.2911L11.7482 3.79791H2.25244" stroke="#FF5858" stroke-width="0.5" stroke-miterlimit="2.6131" stroke-linecap="round" stroke-linejoin="round"/>
<path d="M12.8486 3.21115C12.8486 3.53304 12.588 3.79403 12.2666 3.79403" stroke="#FF5858" stroke-width="0.5" stroke-miterlimit="2.6131" stroke-linecap="round" stroke-linejoin="round"/>
<path d="M12.2668 3.79404H1.73291" stroke="#FF5858" stroke-width="0.5" stroke-miterlimit="2.6131" stroke-linecap="round" stroke-linejoin="round"/>
<path d="M1.73289 3.79403C1.41232 3.79403 1.15088 3.53304 1.15088 3.21115" stroke="#FF5858" stroke-width="0.5" stroke-miterlimit="2.6131" stroke-linecap="round" stroke-linejoin="round"/>
<path d="M1.15088 3.21114C1.15088 2.89053 1.41232 2.62912 1.73289 2.62912" stroke="#FF5858" stroke-width="0.5" stroke-miterlimit="2.6131" stroke-linecap="round" stroke-linejoin="round"/>
<path d="M1.73291 2.62909H12.2668" stroke="#FF5858" stroke-width="0.5" stroke-miterlimit="2.6131" stroke-linecap="round" stroke-linejoin="round"/>
<path d="M12.2666 2.62909C12.588 2.62909 12.8486 2.89053 12.8486 3.21111" stroke="#FF5858" stroke-width="0.5" stroke-miterlimit="2.6131" stroke-linecap="round" stroke-linejoin="round"/>
<path d="M8.83545 2.61971V1.70764" stroke="#FF5858" stroke-width="0.5" stroke-miterlimit="2.6131" stroke-linecap="round" stroke-linejoin="round"/>
<path d="M8.8354 1.70763C8.8354 1.37246 8.56324 1.09991 8.22852 1.09991" stroke="#FF5858" stroke-width="0.5" stroke-miterlimit="2.6131" stroke-linecap="round" stroke-linejoin="round"/>
<path d="M8.22865 1.09991H5.77197" stroke="#FF5858" stroke-width="0.5" stroke-miterlimit="2.6131" stroke-linecap="round" stroke-linejoin="round"/>
<path d="M5.77188 1.09991C5.43629 1.09991 5.16455 1.37249 5.16455 1.70763" stroke="#FF5858" stroke-width="0.5" stroke-miterlimit="2.6131" stroke-linecap="round" stroke-linejoin="round"/>
<path d="M5.16455 1.70764V2.61971H8.83543" stroke="#FF5858" stroke-width="0.5" stroke-miterlimit="2.6131" stroke-linecap="round" stroke-linejoin="round"/>
<path d="M4.32227 5.01291V12.4939" stroke="#FF5858" stroke-width="0.5" stroke-miterlimit="2.6131" stroke-linecap="round" stroke-linejoin="round"/>
<path d="M6.10693 5.01291V12.4939" stroke="#FF5858" stroke-width="0.5" stroke-miterlimit="2.6131" stroke-linecap="round" stroke-linejoin="round"/>
<path d="M7.89307 5.01291V12.4939" stroke="#FF5858" stroke-width="0.5" stroke-miterlimit="2.6131" stroke-linecap="round" stroke-linejoin="round"/>
<path d="M9.67725 5.01291V12.4939" stroke="#FF5858" stroke-width="0.5" stroke-miterlimit="2.6131" stroke-linecap="round" stroke-linejoin="round"/>
</svg>
