<svg width="77" height="46" viewBox="0 0 77 46" fill="none" xmlns="http://www.w3.org/2000/svg">
<path d="M25.6667 44.142C29.2105 44.142 32.0833 41.2875 32.0833 37.7662C32.0833 34.2448 29.2105 31.3903 25.6667 31.3903C22.1228 31.3903 19.25 34.2448 19.25 37.7662C19.25 41.2875 22.1228 44.142 25.6667 44.142Z" stroke="#4570B4" stroke-width="2" stroke-miterlimit="1.5" stroke-linecap="round" stroke-linejoin="round"/>
<path d="M57.7499 44.142C61.2938 44.142 64.1666 41.2875 64.1666 37.7662C64.1666 34.2448 61.2938 31.3903 57.7499 31.3903C54.206 31.3903 51.3333 34.2448 51.3333 37.7662C51.3333 41.2875 54.206 44.142 57.7499 44.142Z" stroke="#4570B4" stroke-width="2" stroke-miterlimit="1.5" stroke-linecap="round" stroke-linejoin="round"/>
<path d="M32.2437 37.7662H48.1249V4.61173C48.1249 3.55535 47.2632 2.69897 46.1999 2.69897H3.20825" stroke="#4570B4" stroke-width="2" stroke-linecap="round"/>
<path d="M18.1271 37.7661H11.55C10.4869 37.7661 9.625 36.9099 9.625 35.8534V20.2325" stroke="#4570B4" stroke-width="2" stroke-linecap="round"/>
<path d="M6.4165 12.2628H19.2498" stroke="#4570B4" stroke-width="2" stroke-linecap="round" stroke-linejoin="round"/>
<path d="M48.125 12.2628H66.1241C66.8848 12.2628 67.5742 12.7079 67.8832 13.3987L73.6258 26.2373C73.7352 26.4822 73.7917 26.7468 73.7917 27.0142V35.8534C73.7917 36.9099 72.9299 37.7662 71.8667 37.7662H65.7708" stroke="#4570B4" stroke-width="2" stroke-linecap="round"/>
<path d="M48.125 37.7661H51.3333" stroke="#4570B4" stroke-width="1.5" stroke-linecap="round"/>
</svg>
