<svg width="45" height="60" viewBox="0 0 45 60" fill="none" xmlns="http://www.w3.org/2000/svg">
<path d="M40.8466 5.23704H31.0279V1.03784C31.0279 0.543813 30.5956 0.111542 30.1016 0.111542H15.4661C14.9721 0.111542 14.5398 0.543813 14.5398 1.03784V5.23704H4.16534C2.00399 5.23704 0.274902 6.96612 0.274902 9.12748V55.6892C0.274902 57.8506 2.00399 59.5797 4.16534 59.5797H40.9084C43.0697 59.5797 44.7988 57.8506 44.7988 55.6892V9.12748C44.7371 6.96612 43.008 5.23704 40.8466 5.23704ZM15.4661 17.2171H30.1016C30.5956 17.2171 31.0279 16.7848 31.0279 16.2908V12.2769H37.512V52.2311H7.5V12.3386H14.5398V16.2908C14.5398 16.8466 14.9721 17.2171 15.4661 17.2171ZM29.1753 1.96413V11.3506V15.3645H16.3924V11.3506V6.10158V1.96413H29.1753ZM42.8845 55.6275C42.8845 56.739 41.9582 57.6653 40.8466 57.6653H4.16534C3.05379 57.6653 2.12749 56.739 2.12749 55.6275V9.12748C2.12749 8.01592 3.05379 7.08963 4.16534 7.08963H14.5398V10.486H6.57371C6.07968 10.486 5.64741 10.9183 5.64741 11.4123V53.2191C5.64741 53.7131 6.07968 54.1454 6.57371 54.1454H38.4382C38.9323 54.1454 39.3645 53.7131 39.3645 53.2191V11.4123C39.3645 10.9183 38.9323 10.486 38.4382 10.486H31.0279V7.08963H40.8466C41.9582 7.08963 42.8845 8.01592 42.8845 9.12748V55.6275Z" fill="#4570B4"/>
<path d="M9.78491 27.6533C9.78491 28.1474 10.2172 28.5796 10.7112 28.5796H34.4861C34.9801 28.5796 35.4124 28.1474 35.4124 27.6533C35.4124 27.1593 34.9801 26.7271 34.4861 26.7271H10.7112C10.2172 26.7271 9.78491 27.1593 9.78491 27.6533Z" fill="#4570B4"/>
<path d="M34.4861 33.2111H10.7112C10.2172 33.2111 9.78491 33.6434 9.78491 34.1374C9.78491 34.6314 10.2172 35.0637 10.7112 35.0637H34.4861C34.9801 35.0637 35.4124 34.6314 35.4124 34.1374C35.4124 33.6434 34.9801 33.2111 34.4861 33.2111Z" fill="#4570B4"/>
<path d="M34.4861 40.004H10.7112C10.2172 40.004 9.78491 40.4362 9.78491 40.9303C9.78491 41.4243 10.2172 41.8566 10.7112 41.8566H34.4861C34.9801 41.8566 35.4124 41.4243 35.4124 40.9303C35.4124 40.4362 34.9801 40.004 34.4861 40.004Z" fill="#4570B4"/>
</svg>
