<svg width="45" height="28" viewBox="0 0 45 28" fill="none" xmlns="http://www.w3.org/2000/svg">
<path fill-rule="evenodd" clip-rule="evenodd" d="M31.5086 27.1364L32.184 27.1186L32.8521 27.07L33.5062 26.9862L34.1555 26.8705L34.7873 26.7245L35.4108 26.547L36.0203 26.3384L36.6177 26.1036L37.2008 25.8381L37.7668 25.5495L38.3143 25.2298L38.8497 24.8887L39.3624 24.5212L39.8567 24.1305L40.3342 23.7183L40.7898 23.2798L41.227 22.8231L41.638 22.3434L42.0277 21.8476L42.3942 21.3329L42.7348 20.7969L43.0514 20.2463L43.3391 19.6789L43.6049 19.0943L43.839 18.4951L44.0462 17.8836L44.2242 17.2593L44.3695 16.6251L44.4841 15.9735L44.568 15.3166L44.6175 14.6472L44.6342 13.9693L44.6175 13.2953L44.568 12.6301L44.4841 11.9743L44.3695 11.331L44.2242 10.6976L44.0462 10.0767L43.839 9.46488L43.6049 8.87055L43.3391 8.29055L43.0514 7.72208L42.7348 7.17736L42.3942 6.64138L42.0277 6.12672L41.638 5.63442L41.227 5.15644L40.7898 4.69943L40.3342 4.26477L39.8567 3.85213L39.3624 3.4622L38.8497 3.09429L38.3143 2.75257L37.7668 2.43846L37.2008 2.15056L36.6177 1.88362L36.0203 1.64882L35.4108 1.44058L34.7873 1.26309L34.1555 1.11634L33.5062 1.00209L32.8521 0.917531L32.184 0.868266L31.5086 0.850098L30.8356 0.868266L30.1683 0.917531L29.5152 1.00209L28.8694 1.11634L28.2376 1.26309L27.6151 1.44058L27.0091 1.64882L26.4117 1.88362L25.8328 2.15056L25.2717 2.43846L24.7238 2.75257L24.194 3.09429L23.6816 3.4622L23.1863 3.85213L22.7133 4.26477L22.2573 4.69943L21.8247 5.15644L21.413 5.63442L21.0246 6.12672L20.6627 6.64138L20.3221 7.17736L20.0083 7.72208L19.7164 8.29055L19.4558 8.87055L19.2211 9.46488L19.0183 10.0767L18.8407 10.6976L18.6951 11.331L18.5805 11.9743L18.4973 12.6301L18.4478 13.2953L18.4297 13.9693L18.4478 14.6472L18.4973 15.3166L18.5805 15.9735L18.6951 16.6251L18.8407 17.2593L19.0183 17.8836L19.2211 18.4951L19.4558 19.0943L19.7164 19.6789L20.0083 20.2463L20.3221 20.7969L20.6627 21.3329L21.0246 21.8476L21.413 22.3434L21.8247 22.8231L22.2573 23.2798L22.7133 23.7183L23.1863 24.1305L23.6816 24.5212L24.194 24.8887L24.7238 25.2298L25.2717 25.5495L25.8328 25.8381L26.4117 26.1036L27.0091 26.3384L27.6151 26.547L28.2376 26.7245L28.8694 26.8705L29.5152 26.9862L30.1683 27.07L30.8356 27.1186L31.5086 27.1364Z" fill="#FBB231"/>
<path fill-rule="evenodd" clip-rule="evenodd" d="M13.9803 27.1364L14.6509 27.1186L15.3189 27.07L15.9734 26.9862L16.6185 26.8705L17.25 26.7245L17.8731 26.547L18.4792 26.3384L19.0755 26.1036L19.6541 25.8381L20.2162 25.5495L20.7638 25.2298L21.2939 24.8887L21.8073 24.5212L22.3023 24.1305L22.7746 23.7183L23.2299 23.2798L23.6635 22.8231L24.0745 22.3434L24.4629 21.8476L24.8252 21.3329L25.1661 20.7969L25.4803 20.2463L25.7712 19.6789L26.0321 19.0943L26.2668 18.4951L26.4696 17.8836L26.6465 17.2593L26.7924 16.6251L26.9074 15.9735L26.991 15.3166L27.0394 14.6472L27.0575 13.9693L27.0394 13.2953L26.991 12.6301L26.9074 11.9743L26.7924 11.331L26.6465 10.6976L26.4696 10.0767L26.2668 9.46488L26.0321 8.87055L25.7712 8.29055L25.4803 7.72208L25.1661 7.17736L24.8252 6.64138L24.4629 6.12672L24.0745 5.63442L23.6635 5.15644L23.2299 4.69943L22.7746 4.26477L22.3023 3.85213L21.8073 3.4622L21.2939 3.09429L20.7638 2.75257L20.2162 2.43846L19.6541 2.15056L19.0755 1.88362L18.4792 1.64882L17.8731 1.44058L17.25 1.26309L16.6185 1.11634L15.9734 1.00209L15.3189 0.917531L14.6509 0.868266L13.9803 0.850098L13.3032 0.868266L12.6365 0.917531L11.9817 1.00209L11.3314 1.11634L10.6999 1.26309L10.0768 1.44058L9.46652 1.64882L8.87055 1.88362L8.28713 2.15056L7.72111 2.43846L7.17321 2.75257L6.6382 3.09429L6.12583 3.4622L5.63087 3.85213L5.15333 4.26477L4.69878 4.69943L4.26094 5.15644L3.84993 5.63442L3.46086 6.12672L3.09408 6.64138L2.75378 7.17736L2.43542 7.72208L2.14841 8.29055L1.88299 8.87055L1.64892 9.46488L1.44168 10.0767L1.26473 10.6976L1.11844 11.331L1.00384 11.9743L0.919204 12.6301L0.871132 13.2953L0.853027 13.9693L0.871132 14.6472L0.919204 15.3166L1.00384 15.9735L1.11844 16.6251L1.26473 17.2593L1.44168 17.8836L1.64892 18.4951L1.88299 19.0943L2.14841 19.6789L2.43542 20.2463L2.75378 20.7969L3.09408 21.3329L3.46086 21.8476L3.84993 22.3434L4.26094 22.8231L4.69878 23.2798L5.15333 23.7183L5.63087 24.1305L6.12583 24.5212L6.6382 24.8887L7.17321 25.2298L7.72111 25.5495L8.28713 25.8381L8.87055 26.1036L9.46652 26.3384L10.0768 26.547L10.6999 26.7245L11.3314 26.8705L11.9817 26.9862L12.6365 27.07L13.3032 27.1186L13.9803 27.1364Z" fill="#EC1C2E"/>
<path fill-rule="evenodd" clip-rule="evenodd" d="M21.2102 5.89189H28.1713V5.17737H21.8114L21.2102 5.89189Z" fill="#FBB231"/>
<path fill-rule="evenodd" clip-rule="evenodd" d="M20.167 7.47905H28.1713V6.76453H20.5867L20.167 7.47905Z" fill="#FBB231"/>
<path fill-rule="evenodd" clip-rule="evenodd" d="M19.3896 9.06157H28.1714V8.34705H19.6989L19.3896 9.06157Z" fill="#FBB231"/>
<path fill-rule="evenodd" clip-rule="evenodd" d="M18.8547 10.6483H28.1715V9.93518H19.0756L18.8547 10.6483Z" fill="#FBB231"/>
<path fill-rule="evenodd" clip-rule="evenodd" d="M19.1648 18.3187H28.1934V17.6045H18.9429L19.1648 18.3187Z" fill="#FBB231"/>
<path fill-rule="evenodd" clip-rule="evenodd" d="M19.8314 19.9056H28.1934V19.1918H19.4998L19.8314 19.9056Z" fill="#FBB231"/>
<path fill-rule="evenodd" clip-rule="evenodd" d="M20.7672 21.4885H28.1933V20.7747H20.322L20.7672 21.4885Z" fill="#FBB231"/>
<path fill-rule="evenodd" clip-rule="evenodd" d="M22.0589 23.0748H28.1935V22.3568H21.4358L22.0589 23.0748Z" fill="#FBB231"/>
<path fill-rule="evenodd" clip-rule="evenodd" d="M18.5408 12.2312H28.1713V11.5177H18.6777L18.5408 12.2312Z" fill="#FBB231"/>
<path fill-rule="evenodd" clip-rule="evenodd" d="M24.4099 16.7358H28.0826V16.0216H24.5426L24.4099 16.7358Z" fill="#FBB231"/>
<path fill-rule="evenodd" clip-rule="evenodd" d="M24.7021 15.1528H28.0825V14.4348H24.8342L24.7021 15.1528Z" fill="#FBB231"/>
<path fill-rule="evenodd" clip-rule="evenodd" d="M18.2976 14.4348H19.253V15.1528H18.3425L18.2976 14.4348Z" fill="#FBB231"/>
<path fill-rule="evenodd" clip-rule="evenodd" d="M16.5159 13.57L16.4543 13.5651L16.393 13.5567L16.3352 13.5484L16.2784 13.5396L16.2248 13.5305L16.1673 13.5214L16.1105 13.5134L16.0478 13.5033L15.9865 13.4952L15.9155 13.4904L15.8357 13.4858L15.7524 13.4809H15.6594L15.5574 13.4858L15.4421 13.4952L15.3146 13.5033L15.2261 13.5173L15.1422 13.5305L15.0666 13.5567L15.0008 13.5833L14.9384 13.6144L14.882 13.65L14.8367 13.6951L14.7963 13.7346L14.7705 13.7831L14.7486 13.8321L14.7392 13.8848V13.9383L14.7528 13.9963L14.7705 14.0536L14.8057 14.1112L14.85 14.1692L14.9384 14.2527L15.045 14.3191L15.1687 14.3771L15.3014 14.4257L15.4421 14.4708L15.5877 14.5186L15.7336 14.5728L15.8754 14.6301L16.0081 14.7052L16.1321 14.7982L16.2422 14.9096L16.3352 15.0469L16.4055 15.215L16.4505 15.4141L16.4675 15.6542L16.4505 15.9337L16.4195 16.1419L16.3662 16.3236L16.2951 16.4917L16.2073 16.6381L16.106 16.767L15.99 16.8774L15.8663 16.9749L15.7305 17.0595L15.5877 17.1262L15.4421 17.1835L15.292 17.2279L15.1377 17.2632L14.9868 17.2904L14.8419 17.303L14.6964 17.3124L14.5588 17.3159H14.3679L14.1916 17.3124H14.0366L13.891 17.3082L13.7583 17.303L13.6396 17.2943L13.5337 17.2855L13.4316 17.2722L13.3386 17.2632L13.255 17.246L13.1707 17.2321L13.0958 17.2101L13.0199 17.1922L12.9502 17.1653L12.8792 17.1395L12.804 17.1126L13.0025 16.1329L13.0426 16.1419L13.0903 16.1556L13.1526 16.1723L13.2285 16.1912L13.3076 16.208L13.3961 16.2261L13.4933 16.2478L13.5988 16.266L13.7099 16.2834L13.8252 16.3013L13.944 16.3145L14.068 16.3278L14.1955 16.332L14.325 16.3366H14.4518L14.5804 16.332L14.7092 16.3055L14.8109 16.2702L14.8897 16.2216L14.9517 16.1598L14.9962 16.0969L15.0318 16.0256L15.0541 15.9557L15.0711 15.8893L15.0805 15.76L15.0408 15.6493L14.9649 15.5602L14.8545 15.4858L14.7218 15.419L14.5675 15.3523L14.3954 15.2901L14.223 15.2192L14.0457 15.1395L13.8782 15.0469L13.7235 14.9313L13.5817 14.794L13.4713 14.6252L13.3919 14.4257L13.3519 14.1867L13.356 13.9033L13.3787 13.73L13.41 13.5651L13.4536 13.4152L13.5062 13.2734L13.5772 13.1406L13.657 13.025L13.7503 12.9138L13.8607 12.8171L13.9893 12.7329L14.1303 12.6616L14.2885 12.5948L14.4658 12.5466L14.6653 12.5057L14.882 12.4753L15.1195 12.4572L15.3815 12.4526H15.5438L15.6943 12.4572L15.8315 12.4624L15.9552 12.4666L16.0656 12.4753L16.1673 12.4841L16.2554 12.4928L16.3352 12.5023L16.4104 12.5103L16.4728 12.5236L16.5299 12.5333L16.5832 12.5417L16.6274 12.5501L16.6671 12.5554L16.7061 12.5641L16.7417 12.5686L16.5159 13.57Z" fill="white"/>
<path fill-rule="evenodd" clip-rule="evenodd" d="M17.5639 11.4736H18.789L18.6075 12.5466H19.3456L19.186 13.5484L18.4079 13.526L17.9844 15.9994L17.9798 16.0881L18.0014 16.1643L18.046 16.2216L18.1038 16.2702L18.1832 16.3013L18.2714 16.3278L18.3682 16.3453L18.4744 16.3547L18.5716 16.3505L18.6597 16.3411L18.7402 16.3278L18.8106 16.3104L18.8684 16.2922L18.9077 16.2793L18.9346 16.2702L18.9429 16.266L18.789 17.0906L18.7576 17.1126L18.7266 17.1304L18.6953 17.1479L18.665 17.1653L18.6336 17.179L18.5981 17.1922L18.5591 17.2055L18.5187 17.2191L18.4744 17.2321L18.4299 17.2412L18.3776 17.2499L18.325 17.2593L18.2672 17.2681L18.2007 17.2771L18.1293 17.2855L18.0544 17.2943H17.7182L17.5413 17.281L17.387 17.2632L17.2463 17.2373L17.1268 17.2055L17.0244 17.1653L16.9408 17.122L16.8659 17.0686L16.8084 17.0106L16.7642 16.9487L16.7325 16.8732L16.7109 16.7974L16.6977 16.7139L16.6938 16.6203V16.5228L16.7064 16.4211L16.7203 16.3104L17.5639 11.4736Z" fill="white"/>
<path fill-rule="evenodd" clip-rule="evenodd" d="M30.8624 12.8121L30.8053 12.7813L30.7481 12.7544L30.6854 12.7233L30.6193 12.6919L30.5527 12.6657L30.4785 12.6395L30.403 12.6126L30.3242 12.5864L30.2399 12.564L30.1546 12.5465L30.063 12.5284L29.9703 12.5151L29.8683 12.5056L29.7673 12.4976H29.4399L29.3246 12.5056L29.2051 12.5196L29.0818 12.5416L28.9578 12.5766L28.8341 12.6258L28.7108 12.688L28.5861 12.7673L28.4674 12.8655L28.3517 12.9805L28.241 13.1223L28.1361 13.2866L28.0386 13.4808L27.9459 13.703L27.862 13.9522L27.7916 14.2355L27.7641 14.3945L27.7474 14.5496L27.738 14.7051L27.7432 14.8557L27.7554 15.0066L27.7864 15.1485L27.8265 15.2816L27.8749 15.414L27.9411 15.5346L28.0205 15.6492L28.1142 15.7512L28.2201 15.8445L28.3388 15.9249L28.4757 15.9906L28.6265 16.0486L28.7944 16.088L28.8519 16.101L28.9188 16.1146L28.9985 16.1237L29.0863 16.1328L29.1832 16.1418H29.3949L29.506 16.1328L29.621 16.1191L29.7356 16.0968L29.846 16.066L29.9571 16.0311L30.0668 15.9818L30.1682 15.9249L30.2615 15.8536L30.35 15.7739L30.1518 16.9577L30.1246 16.9794L30.0982 17.0063L30.063 17.038L30.0233 17.0629L29.9749 17.0988L29.9125 17.1303L29.8415 17.161L29.7624 17.1872L29.6603 17.219L29.5457 17.2411L29.4137 17.2592L29.258 17.277L29.0863 17.2854L28.8867 17.2903L28.6624 17.2854L28.4141 17.2721L28.2107 17.2498L28.0076 17.2054L27.8042 17.1394L27.6011 17.0503L27.4067 16.9444L27.2204 16.8106L27.0445 16.6558L26.8808 16.479L26.7342 16.2792L26.6112 16.058L26.5046 15.8096L26.4259 15.5388L26.3726 15.2418L26.3545 14.927L26.3639 14.5814L26.4116 14.2128L26.4478 14.0318L26.4865 13.8543L26.5314 13.6814L26.5764 13.5172L26.6234 13.362L26.6812 13.2072L26.7394 13.0605L26.801 12.9232L26.8683 12.7855L26.9337 12.6569L27.009 12.5332L27.0877 12.4179L27.1682 12.3065L27.2563 12.2006L27.3444 12.1031L27.4374 12.0098L27.5388 11.9208L27.6408 11.8369L27.7474 11.7614L27.8578 11.6901L27.9766 11.6238L28.0961 11.5672L28.2201 11.5134L28.3479 11.4641L28.4855 11.4201L28.6213 11.3848L28.7634 11.3533L28.9139 11.3268L29.0637 11.3041L29.2225 11.2873L29.3824 11.2786L29.5499 11.2733L29.6927 11.2786L29.8289 11.2873L29.9616 11.3006L30.0937 11.3184L30.2176 11.3359L30.3371 11.3621L30.4517 11.3848L30.5576 11.411L30.6597 11.4375L30.7481 11.4641L30.8324 11.491L30.9024 11.5175L30.9648 11.5396L31.0174 11.5577L31.0571 11.5752L31.0839 11.5846L30.8624 12.8121Z" fill="white"/>
<path fill-rule="evenodd" clip-rule="evenodd" d="M41.7438 17.2942H40.5195L40.6087 16.8026V16.7576L40.5376 16.847L40.4617 16.926L40.3871 16.9973L40.3081 17.0595L40.2283 17.1174L40.1485 17.1653L40.0688 17.2055L39.9852 17.246L39.9012 17.2771L39.8173 17.2991L39.733 17.3205L39.6445 17.3337L39.5571 17.3474L39.4725 17.3564L39.3847 17.361H39.2962L39.0663 17.3428L38.8538 17.2942L38.6591 17.2191L38.4822 17.1174L38.323 16.9885L38.1819 16.8383L38.0576 16.6734L37.9517 16.4875L37.8643 16.2873L37.7932 16.0801L37.7444 15.8628L37.7089 15.6363L37.696 15.4103L37.7002 15.18L37.7218 14.9533L37.7622 14.7279L37.8284 14.4652L37.9075 14.2178L38.0012 13.9914L38.1112 13.7789L38.2255 13.5791L38.3585 13.4016L38.4951 13.2426L38.6417 13.0962L38.796 12.9669L38.9597 12.8565L39.128 12.759L39.2962 12.6839L39.4725 12.6214L39.649 12.5819L39.8253 12.5553L40.0064 12.5466L40.1356 12.5501L40.2589 12.5641L40.3746 12.5864L40.4798 12.6172L40.5818 12.6528L40.6707 12.692L40.7588 12.7416L40.8385 12.7901L40.9089 12.8429L40.9747 12.9013L41.0322 12.9582L41.0851 13.0162L41.1297 13.0742L41.1698 13.1312L41.2053 13.185L41.2311 13.2381L41.5414 11.496H42.7431L41.7438 17.2942Z" fill="white"/>
<path fill-rule="evenodd" clip-rule="evenodd" d="M39.7414 16.2216L39.8658 16.2129L39.9804 16.1863L40.087 16.1556L40.1887 16.1066L40.2813 16.0539L40.3698 15.9861L40.4537 15.9117L40.529 15.831L40.5945 15.7426L40.6572 15.6451L40.7139 15.5431L40.7634 15.4372L40.8073 15.3254L40.8428 15.2104L40.8735 15.0906L40.8958 14.9718L40.9174 14.8478L40.9309 14.7192V14.5983L40.9271 14.4753L40.9135 14.3593L40.8958 14.2485L40.8648 14.1423L40.8292 14.0399L40.785 13.9523L40.732 13.8677L40.6749 13.7957L40.6088 13.7346L40.5335 13.6815L40.4537 13.6458L40.3698 13.6235L40.2775 13.6144L40.1573 13.6235L40.0466 13.6409L39.9456 13.6769L39.8435 13.7209L39.7557 13.7789L39.6666 13.8499L39.592 13.925L39.5164 14.0099L39.4506 14.106L39.3883 14.2087L39.3301 14.3149L39.2824 14.4302L39.2381 14.5497L39.2033 14.6703L39.1674 14.7981L39.1413 14.9271L39.1187 15.1224L39.1281 15.3348L39.1584 15.5515L39.2169 15.76L39.3043 15.9424L39.4196 16.0881L39.5652 16.1863L39.7414 16.2216Z" fill="#FBB231"/>
<path fill-rule="evenodd" clip-rule="evenodd" d="M12.6018 16.3102L12.4242 17.2941H11.3099L11.3409 17.1124L11.3643 16.9486L11.3806 16.8245L11.3987 16.7575L11.3367 16.8287L11.266 16.9L11.1824 16.9668L11.0887 17.0279L10.9835 17.0904L10.8731 17.1432L10.7575 17.1967L10.638 17.241L10.5095 17.2809L10.3827 17.3123L10.2531 17.3385L10.1218 17.3563L9.99294 17.3654L9.86581 17.3696L9.74146 17.3563L9.62164 17.3385L9.46663 17.299L9.32592 17.254L9.20192 17.1967L9.09115 17.1303L8.99467 17.0593L8.90655 16.9793L8.83479 16.8948L8.77349 16.8067L8.72089 16.7138L8.67596 16.6156L8.64113 16.5185L8.61431 16.421L8.59619 16.319L8.58366 16.2169L8.57495 16.1191V16.0216L8.58749 15.8487L8.61431 15.6845L8.65854 15.5297L8.71637 15.3784L8.78672 15.2372L8.86579 15.1086L8.95914 14.985L9.06502 14.8735L9.17614 14.7718L9.2998 14.6782L9.42797 14.594L9.55999 14.5231L9.7014 14.4623L9.8477 14.4123L9.99781 14.3728L10.1528 14.3459H10.1608L10.1828 14.3414L10.2145 14.3372L10.2629 14.3326L10.3158 14.3239L10.3775 14.319L10.444 14.3103L10.5189 14.3015L10.5941 14.2935L10.6697 14.2841L10.7495 14.2792L10.8198 14.2708L10.8909 14.2666L10.956 14.2614L11.0191 14.2575H11.1692L11.2751 14.2614L11.3719 14.2666H11.4691L11.5489 14.2708L11.6112 14.2746L11.6548 14.2792H11.6683L11.677 14.2484L11.7039 14.1691L11.7251 14.0748L11.7342 13.9913L11.7164 13.8938L11.677 13.8047L11.6241 13.725L11.553 13.6586L11.4691 13.6017L11.3764 13.5615L11.2702 13.5346L11.1556 13.5259L11.032 13.5213L10.8986 13.5171H10.7617L10.621 13.5213L10.475 13.5304L10.3329 13.5437L10.1922 13.5566L10.0556 13.5751L9.92223 13.5919L9.79405 13.6143L9.67911 13.6363L9.57322 13.6586L9.47604 13.6859L9.39627 13.7118L9.33463 13.7432L9.28586 13.7694L9.59934 12.7013L9.69722 12.6615L9.79405 12.6258L9.90064 12.5947L10.0065 12.572L10.1131 12.55L10.2277 12.5332L10.3427 12.5151L10.4618 12.5056L10.5851 12.4976L10.7133 12.4927L10.846 12.4882H11.2702L11.4256 12.4927L11.5802 12.4976L11.7039 12.5056L11.8366 12.5283L11.9735 12.5594L12.1142 12.5996L12.2518 12.6527L12.3845 12.7149L12.5165 12.79L12.6412 12.8742L12.7502 12.9724L12.8484 13.0779L12.9376 13.1978L13.0027 13.3309L13.0477 13.4735L13.0731 13.6234V13.7914L13.0477 13.9693L12.6018 16.3102Z" fill="white"/>
<path fill-rule="evenodd" clip-rule="evenodd" d="M11.5358 15.1525L11.5313 15.1309L11.5131 15.1085L11.4867 15.0952L11.4424 15.0862L11.3937 15.0778L11.3366 15.0729H11.2035L11.1335 15.0778L11.0586 15.0862L10.9879 15.0952L10.9168 15.1043L10.8507 15.1134L10.7883 15.126L10.7357 15.1393L10.6869 15.1525L10.6559 15.1613L10.6208 15.1752L10.5723 15.1924L10.5229 15.2147L10.4658 15.2416L10.4083 15.2727L10.347 15.3038L10.2892 15.3391L10.2275 15.3831L10.1701 15.4275L10.1164 15.4813L10.0687 15.5344L10.0238 15.5917L9.99276 15.6539L9.96733 15.7249L9.95305 15.7954L9.94922 15.9467L9.97081 16.0659L10.015 16.1553L10.0729 16.2214L10.139 16.2657L10.2143 16.2919L10.2853 16.3052L10.3557 16.3101L10.4881 16.3052L10.6079 16.2919L10.7225 16.2738L10.8245 16.2476L10.9123 16.2168L10.9963 16.1773L11.0711 16.1371L11.1384 16.0879L11.1958 16.0435L11.2477 15.9904L11.2927 15.9422L11.3278 15.8891L11.3581 15.8356L11.3864 15.7825L11.4076 15.7336L11.4201 15.6843L11.456 15.5564L11.4867 15.41L11.5131 15.2678L11.5358 15.1525Z" fill="#EC1C2E"/>
<path fill-rule="evenodd" clip-rule="evenodd" d="M3.30095 17.2943H2.09961L3.10311 11.4736H5.193L5.39258 14.9271L6.83774 11.4736H9.02133L7.9952 17.2943H6.79351L7.55319 12.9457H7.50582L5.70572 17.2943H4.34973L4.34067 17.1126L4.30968 16.629L4.26996 15.9424L4.22503 15.1528L4.18114 14.3593L4.14144 13.664L4.11078 13.1588L4.10138 12.9457H4.03555L3.30095 17.2943Z" fill="white"/>
<path fill-rule="evenodd" clip-rule="evenodd" d="M34.5362 16.3102L34.3547 17.2941H33.2457L33.2537 17.1124L33.2582 16.9531V16.8336L33.2673 16.7805L33.2098 16.8469L33.1429 16.9129L33.0645 16.9748L32.9754 17.038L32.8834 17.0946L32.7768 17.1477L32.6661 17.2015L32.5553 17.2459L32.4362 17.2809L32.3122 17.3158L32.1892 17.3385L32.0652 17.3563L31.9367 17.3654L31.8138 17.3696L31.6939 17.3563L31.5745 17.3385L31.4156 17.299L31.2746 17.254L31.1502 17.1967L31.0349 17.1303L30.9381 17.0593L30.8534 16.9793L30.7834 16.8948L30.7221 16.8067L30.6685 16.7138L30.6291 16.6156L30.5936 16.5185L30.5713 16.421L30.5528 16.319L30.5403 16.2169L30.5312 16.1191V16.0216L30.5403 15.8487L30.5671 15.6845L30.6061 15.5297L30.6643 15.3784L30.7305 15.2372L30.8141 15.1086L30.9071 14.985L31.0084 14.8735L31.1237 14.7718L31.2432 14.6782L31.3714 14.594L31.5086 14.5231L31.6455 14.4623L31.7911 14.4123L31.9367 14.3728L32.0868 14.3459H32.0962L32.1175 14.3414L32.1492 14.3372L32.1934 14.3326L32.2509 14.3239L32.3122 14.319L32.3791 14.3103L32.4491 14.3015L32.5247 14.2935L32.6044 14.2841L32.6797 14.2792L32.7546 14.2708L32.8249 14.2666L32.8869 14.2614L32.9493 14.2575H33.1039L33.2098 14.2614L33.3112 14.2666H33.4083L33.493 14.2708L33.5633 14.2746L33.603 14.2792H33.6212L33.6302 14.2484L33.6431 14.1691L33.656 14.0748L33.6647 13.9913L33.648 13.8938L33.6131 13.8047L33.5553 13.725L33.4877 13.6586L33.4083 13.6017L33.316 13.5615L33.2189 13.5346L33.1123 13.5259L32.9883 13.5213L32.8566 13.5171H32.719L32.5773 13.5213L32.432 13.5304L32.2906 13.5437L32.1492 13.5566L32.0116 13.5751L31.8789 13.5919L31.7514 13.6143L31.6365 13.6363L31.5302 13.6586L31.433 13.6859L31.354 13.7118L31.2909 13.7432L31.2432 13.7694L31.5525 12.7013L31.649 12.6615L31.7514 12.6258L31.8535 12.5947L31.9586 12.572L32.0694 12.55L32.1805 12.5332L32.2941 12.5151L32.4146 12.5056L32.5376 12.4976L32.6661 12.4927L32.7943 12.4882H33.2098L33.3603 12.4927L33.5104 12.4976L33.6344 12.5056L33.7664 12.5283L33.9033 12.5594L34.0454 12.5996L34.183 12.6527L34.3185 12.7149L34.4516 12.79L34.5752 12.8742L34.6867 12.9724L34.7873 13.0779L34.8755 13.1978L34.942 13.3309L34.9911 13.4735L35.0224 13.6234V13.7914L34.9998 13.9693L34.5362 16.3102Z" fill="white"/>
<path fill-rule="evenodd" clip-rule="evenodd" d="M34.3547 17.3252L34.3808 17.299L34.562 16.3144L34.509 16.3053L34.3279 17.2903L34.3547 17.263V17.3252L34.3763 17.3203L34.3808 17.299L34.3547 17.3252Z" fill="white"/>
<path fill-rule="evenodd" clip-rule="evenodd" d="M33.2188 17.2943L33.2456 17.3254H34.3547V17.2632H33.2456L33.2721 17.2943H33.2188L33.2146 17.3254H33.2456L33.2188 17.2943Z" fill="white"/>
<path fill-rule="evenodd" clip-rule="evenodd" d="M31.5703 17.3655L31.694 17.3833L31.8138 17.3959L31.9367 17.3924L32.0653 17.3833L32.1934 17.3655L32.3167 17.3428L32.4411 17.3082L32.5644 17.2722L32.6752 17.2278L32.7894 17.1751L32.8967 17.122L32.9883 17.0594L33.0813 16.9972L33.1604 16.9358L33.2321 16.8638L33.2899 16.7974L33.2457 16.7625L33.1879 16.8288L33.1262 16.891L33.0458 16.9532L32.9625 17.0151L32.8695 17.0685L32.764 17.122L32.6574 17.1751L32.547 17.2191L32.432 17.2541L32.3084 17.2904L32.184 17.3124L32.0653 17.3295L31.9367 17.3386L31.8138 17.3428L31.694 17.3295L31.579 17.3124L31.5703 17.3655Z" fill="white"/>
<path fill-rule="evenodd" clip-rule="evenodd" d="M30.501 16.0216L30.5048 16.1191L30.5135 16.2169L30.5278 16.3235L30.5452 16.4252L30.5672 16.5226L30.6027 16.625L30.6417 16.7263L30.6999 16.82L30.7612 16.9129L30.8326 16.9971L30.9207 17.081L31.0221 17.1523L31.137 17.2235L31.2659 17.2808L31.4108 17.3252L31.5703 17.3654L31.579 17.3123L31.4195 17.2721L31.2833 17.2277L31.1635 17.1704L31.0482 17.1079L30.9555 17.038L30.8758 16.9615L30.8054 16.8773L30.7431 16.7931L30.6953 16.7005L30.6556 16.6069L30.6194 16.5146L30.5982 16.4164L30.5807 16.3144L30.5672 16.2169L30.5577 16.1191L30.5626 16.0216H30.501Z" fill="white"/>
<path fill-rule="evenodd" clip-rule="evenodd" d="M32.0869 14.319L31.9326 14.3459L31.7824 14.3864L31.6365 14.4346L31.4954 14.4965L31.3575 14.567L31.2258 14.6568L31.1057 14.7501L30.9911 14.8556L30.8852 14.9668L30.7918 15.0904L30.7034 15.2236L30.6375 15.3703L30.5807 15.5209L30.5403 15.6806L30.5135 15.8486L30.501 16.0216H30.5626L30.5672 15.8486L30.5936 15.6893L30.633 15.5387L30.6908 15.3878L30.7563 15.2501L30.8357 15.1261L30.9294 15.0017L31.0259 14.8916L31.1408 14.7938L31.2607 14.7002L31.3836 14.6212L31.5219 14.5496L31.6539 14.4884L31.7999 14.4395L31.9413 14.399L32.0869 14.3728V14.319Z" fill="white"/>
<path fill-rule="evenodd" clip-rule="evenodd" d="M32.9978 14.2262H32.9494L32.887 14.2356L32.825 14.2409L32.7546 14.2444L32.6798 14.2528L32.6045 14.2576L32.5247 14.2667L32.4492 14.2748L32.3791 14.2842L32.3123 14.2936L32.251 14.2971L32.1935 14.3062L32.1493 14.3104L32.1137 14.3149L32.0963 14.3191H32.0869V14.3729H32.0963L32.1224 14.3677L32.1493 14.3642L32.1935 14.3593L32.251 14.3509L32.3123 14.346L32.3791 14.3373L32.4492 14.3279L32.5247 14.3191L32.6045 14.3104L32.6798 14.3062L32.7546 14.2971L32.825 14.2936L32.887 14.2884H32.9978V14.2262Z" fill="white"/>
<path fill-rule="evenodd" clip-rule="evenodd" d="M33.5942 14.2748L33.621 14.2528H33.6029L33.5632 14.2486L33.4929 14.2444L33.4082 14.2356H33.2097L33.1038 14.2262H32.9976V14.2884H33.2097L33.311 14.2971H33.4929L33.5632 14.3017L33.6029 14.3062H33.621L33.6479 14.2842L33.621 14.3062L33.643 14.3104L33.6479 14.2842L33.5942 14.2748Z" fill="white"/>
<path fill-rule="evenodd" clip-rule="evenodd" d="M33.1123 13.5522V13.5567L33.2147 13.5616L33.307 13.5885L33.3951 13.6277L33.4704 13.6815L33.532 13.7433L33.585 13.8188L33.6212 13.8981L33.6386 13.9914H33.6916L33.6734 13.8897L33.6386 13.7915L33.577 13.7084L33.5063 13.6364L33.422 13.5753L33.3248 13.5347L33.2227 13.5085L33.1123 13.4952V13.5522Z" fill="white"/>
<path fill-rule="evenodd" clip-rule="evenodd" d="M31.2163 13.7657L31.2605 13.7916L31.3048 13.7696L31.3619 13.7385L31.4382 13.7119L31.5343 13.686L31.6413 13.664L31.7555 13.641L31.8833 13.619L32.0115 13.6018L32.1491 13.5833L32.2905 13.57L32.4319 13.5568L32.5772 13.5484H32.9882L33.1122 13.5522V13.4991L32.9882 13.4953L32.8565 13.4858H32.7189L32.5772 13.4953L32.4319 13.5033L32.2905 13.5173L32.1491 13.5306L32.0115 13.5484L31.875 13.5652L31.7461 13.5886L31.6322 13.6109L31.5253 13.6329L31.4281 13.6588L31.3452 13.686L31.2787 13.7164L31.2257 13.7475L31.2699 13.7741L31.2163 13.7657Z" fill="white"/>
<path fill-rule="evenodd" clip-rule="evenodd" d="M31.5441 12.6746L31.5253 12.6973L31.2163 13.7657L31.2699 13.7741L31.5789 12.7057L31.5611 12.7284L31.5441 12.6746L31.5301 12.6791L31.5253 12.6973L31.5441 12.6746Z" fill="white"/>
<path fill-rule="evenodd" clip-rule="evenodd" d="M33.5105 12.471L33.3603 12.4623L33.2098 12.457H32.7943L32.6661 12.4665L32.5376 12.471L32.4146 12.4804L32.2941 12.4881L32.1753 12.5056L32.0653 12.5234L31.9549 12.5465L31.8483 12.5685L31.7427 12.5996L31.6414 12.6349L31.5442 12.6744L31.5613 12.7282L31.6588 12.688L31.7598 12.6527L31.857 12.6212L31.9632 12.5996L32.0747 12.5765L32.1841 12.5594L32.2941 12.5416L32.4146 12.5332L32.5376 12.5234L32.6661 12.5196H33.2098L33.3603 12.5234H33.5105V12.471Z" fill="white"/>
<path fill-rule="evenodd" clip-rule="evenodd" d="M35.0267 13.9737L35.0483 13.7913V13.6233L35.018 13.4674L34.9692 13.3214L34.8985 13.1848L34.809 13.0604L34.7035 12.95L34.5934 12.8518L34.4649 12.7672L34.3322 12.6879L34.1914 12.6257L34.0535 12.5719L33.909 12.5331L33.7707 12.502L33.6345 12.4804L33.5105 12.4709V12.5234L33.6345 12.5331L33.762 12.5552L33.8992 12.5862L34.0357 12.6257L34.1737 12.6788L34.306 12.7414L34.4384 12.812L34.5582 12.8962L34.6686 12.9933L34.7658 13.096L34.8536 13.2106L34.9156 13.3403L34.9644 13.4772L34.9961 13.6233V13.7913L34.9731 13.965L35.0267 13.9737Z" fill="white"/>
<path fill-rule="evenodd" clip-rule="evenodd" d="M34.562 16.3144L35.0266 13.9738L34.973 13.9651L34.509 16.3054L34.562 16.3144Z" fill="white"/>
<path fill-rule="evenodd" clip-rule="evenodd" d="M33.4662 15.1528L33.4575 15.1263L33.4408 15.1046L33.4084 15.0906L33.3652 15.078L33.3161 15.0731L33.2583 15.0686H33.1921L33.1263 15.0731L33.0552 15.0819L32.9842 15.0906L32.9138 15.1001L32.8466 15.1088L32.7822 15.1224L32.724 15.1311L32.6662 15.1448L32.6219 15.1528L32.592 15.1574L32.5554 15.1706L32.5122 15.1843L32.4628 15.2017L32.4046 15.2279L32.3523 15.2555L32.2907 15.2863L32.2332 15.3254L32.1754 15.3659L32.1176 15.4142L32.0695 15.4627L32.0214 15.5211L31.981 15.5833L31.95 15.6493L31.9239 15.7206L31.911 15.7957L31.9065 15.947L31.9274 16.0661L31.9633 16.1556L32.0162 16.2216L32.0827 16.266L32.158 16.2922L32.2332 16.3055L32.3084 16.3104L32.4412 16.3055L32.5645 16.2922L32.6798 16.2702L32.7822 16.2398L32.8783 16.2038L32.9626 16.1643L33.0416 16.1192L33.1124 16.0661L33.175 16.0176L33.2269 15.9603L33.2757 15.9068L33.3161 15.8488L33.3464 15.7957L33.3698 15.7426L33.3872 15.6895L33.4 15.6409L33.4182 15.5165L33.4408 15.388L33.4575 15.2643L33.4662 15.1528Z" fill="#FBB231"/>
<path fill-rule="evenodd" clip-rule="evenodd" d="M42.5701 16.6872L42.5802 16.5845L42.6136 16.465L42.6763 16.3584L42.7512 16.2659L42.8442 16.1911L42.9518 16.1373L43.0661 16.1009L43.189 16.088L43.3137 16.1009L43.428 16.1373L43.5342 16.1911L43.6276 16.2659L43.7025 16.3584L43.7644 16.465L43.7993 16.5845L43.8087 16.6872H43.676L43.6718 16.6069L43.6443 16.5094L43.6004 16.421L43.5433 16.3452L43.4726 16.2833L43.389 16.2397L43.2918 16.2079L43.189 16.1991L43.0877 16.2079L42.9912 16.2397L42.9069 16.2833L42.8358 16.3452L42.7787 16.421L42.7348 16.5094L42.708 16.6069L42.699 16.6872H42.5701Z" fill="white"/>
<path fill-rule="evenodd" clip-rule="evenodd" d="M42.9683 16.6873V16.421H43.2114L43.265 16.4252L43.3138 16.4339L43.3486 16.4476L43.3796 16.465L43.4016 16.4916L43.419 16.5185L43.4281 16.5492L43.4326 16.5807L43.4281 16.6202L43.419 16.6513L43.4061 16.6782L43.3971 16.6873H43.2114L43.2288 16.6824L43.2602 16.6782L43.2863 16.6694L43.3093 16.6607L43.3267 16.6474L43.3357 16.6331L43.3441 16.6121V16.5807L43.3392 16.5583L43.3305 16.5402L43.318 16.5321L43.3044 16.5227L43.2818 16.5185L43.2602 16.5147H43.079V16.6873H42.9683Z" fill="white"/>
<path fill-rule="evenodd" clip-rule="evenodd" d="M42.57 16.6873L42.5669 16.7138L42.5801 16.8424L42.6136 16.9615L42.6763 17.0685L42.7512 17.1568L42.8442 17.232L42.9518 17.2903L43.066 17.3253L43.189 17.3385L43.3137 17.3253L43.428 17.2903L43.5342 17.232L43.6275 17.1568L43.7024 17.0685L43.7644 16.9615L43.7993 16.8424L43.8121 16.7138L43.8087 16.6873H43.6759L43.6805 16.7138L43.6718 16.82L43.6443 16.9175L43.6004 17.0021L43.5433 17.0765L43.4725 17.1394L43.3889 17.1872L43.2918 17.219L43.189 17.2278L43.0876 17.219L42.9912 17.1872L42.9069 17.1394L42.8358 17.0765L42.7787 17.0021L42.7348 16.9175L42.708 16.82L42.6989 16.7138V16.6873H42.57Z" fill="white"/>
<path fill-rule="evenodd" clip-rule="evenodd" d="M42.9683 16.6873V16.9577H43.079V16.7358H43.1891L43.3215 16.9577H43.411L43.2783 16.7358H43.3093L43.3392 16.7264L43.366 16.7177L43.389 16.7005L43.397 16.6873H43.2114L43.1891 16.6914H43.079V16.6873H42.9683Z" fill="white"/>
<path fill-rule="evenodd" clip-rule="evenodd" d="M34.8677 17.2941H36.114L36.5601 14.7718L36.5776 14.6747L36.6044 14.5768L36.6305 14.479L36.666 14.3815L36.7103 14.284L36.7632 14.1907L36.821 14.1023L36.8914 14.0178L36.9712 13.9427L37.0589 13.8717L37.161 13.8047L37.2759 13.7515L37.4038 13.7082L37.5452 13.6726L37.7002 13.6457L37.8719 13.6362H37.9827L38.1819 12.4976L38.0575 12.5056L37.9388 12.5196L37.8284 12.5416L37.7218 12.572L37.6253 12.6076L37.5319 12.6527L37.4435 12.7013L37.3595 12.7544L37.2805 12.8169L37.2045 12.8788L37.1342 12.95L37.0638 13.0203L36.9973 13.0961L36.9311 13.1796L36.8646 13.2596L36.8036 13.3483L36.9363 12.5465H35.6939L34.8677 17.2941Z" fill="white"/>
<path fill-rule="evenodd" clip-rule="evenodd" d="M23.1641 17.2941H24.4323L24.8565 14.7718L24.8746 14.6747L24.8962 14.5814L24.9182 14.4884L24.9495 14.399L24.9844 14.3102L25.0289 14.226L25.0819 14.1467L25.1439 14.0713L25.2146 14.0035L25.294 13.9381L25.3915 13.8847L25.4974 13.8361L25.6211 13.7956L25.7583 13.7613L25.9084 13.7383L26.0805 13.725H26.0944L26.1119 13.7299L26.1341 13.7344H26.1561L26.1777 13.7383L26.1965 13.7432L26.2087 13.7474H26.2139L26.2177 13.7299L26.2313 13.6768L26.2487 13.5971L26.2714 13.4989L26.3017 13.384L26.3334 13.2596L26.3727 13.1359L26.4117 13.0108L26.448 12.9273L26.4922 12.8428L26.5364 12.7589L26.58 12.6838L26.6194 12.6171L26.6503 12.5639L26.6733 12.5332L26.6813 12.5196H26.6779L26.6598 12.515L26.6382 12.5101L26.6068 12.5056H26.5765L26.541 12.5021L26.5096 12.4976H26.4786L26.3414 12.5056L26.2177 12.5196L26.1031 12.5416L25.9973 12.5685L25.8959 12.6038L25.8022 12.6485L25.7183 12.6918L25.6385 12.7449L25.564 12.8033L25.4929 12.87L25.4267 12.9368L25.3609 13.0108L25.294 13.0873L25.232 13.1719L25.1662 13.2596L25.0993 13.3483L25.2585 12.5465H23.9903L23.1641 17.2941Z" fill="white"/>
<path fill-rule="evenodd" clip-rule="evenodd" d="M42.5801 21.9582V21.9404L42.6135 21.8251L42.6762 21.7231L42.7511 21.6351L42.8441 21.5638L42.9517 21.51L43.066 21.4796L43.1889 21.4659L43.3136 21.4796L43.4279 21.51L43.5341 21.5638L43.6275 21.6351L43.7024 21.7231L43.7644 21.8251L43.7992 21.9404V21.9582H43.6717L43.6442 21.8657L43.6003 21.7811L43.5432 21.7049L43.4725 21.6438L43.3889 21.5945L43.2917 21.5638L43.1889 21.555L43.0876 21.5638L42.9911 21.5945L42.9068 21.6438L42.8358 21.7049L42.7786 21.7811L42.7347 21.8657L42.7079 21.9582H42.5801Z" fill="#FBB231"/>
<path fill-rule="evenodd" clip-rule="evenodd" d="M42.9683 21.9584V21.804H43.265L43.3138 21.8127L43.3486 21.8204L43.3796 21.8382L43.4016 21.8613L43.419 21.8875L43.4281 21.9186L43.4326 21.9584H43.3441V21.936L43.3392 21.9137L43.3305 21.8962L43.318 21.8875L43.3044 21.8787L43.2818 21.8738L43.2602 21.87H43.079V21.9584H42.9683Z" fill="#FBB231"/>
<path fill-rule="evenodd" clip-rule="evenodd" d="M42.5669 22.0555L42.5801 21.9584H42.708V21.9619L42.6989 22.0555H42.5669Z" fill="#FBB231"/>
<path fill-rule="evenodd" clip-rule="evenodd" d="M42.9683 22.0555V21.9584H43.079V22.0468H43.1891L43.2288 22.0384L43.2602 22.0338L43.2863 22.0248L43.3093 22.016L43.3267 22.0031L43.3357 21.9891L43.3441 21.9682V21.9584H43.4326L43.4281 21.9891L43.419 22.016L43.4061 22.0384L43.389 22.0555H42.9683Z" fill="#FBB231"/>
<path fill-rule="evenodd" clip-rule="evenodd" d="M43.6806 22.0555L43.6719 21.9619V21.9584H43.7994L43.8122 22.0555H43.6806Z" fill="#FBB231"/>
<path fill-rule="evenodd" clip-rule="evenodd" d="M42.5669 22.0554V22.069L42.5801 22.1973L42.6136 22.3171L42.6763 22.4233L42.7512 22.517L42.8442 22.5928L42.9518 22.6449L43.066 22.6808L43.189 22.6941L43.3137 22.6808L43.428 22.6449L43.5342 22.5928L43.6275 22.517L43.7024 22.4233L43.7644 22.3171L43.7993 22.1973L43.8121 22.069V22.0554H43.6805V22.069L43.6718 22.176L43.6443 22.2734L43.6004 22.357L43.5433 22.4317L43.4725 22.4953L43.3889 22.5439L43.2918 22.5746L43.189 22.5834L43.0876 22.5746L42.9912 22.5439L42.9069 22.4953L42.8358 22.4317L42.7787 22.357L42.7348 22.2734L42.708 22.176L42.6989 22.069V22.0554H42.5669Z" fill="#FBB231"/>
<path fill-rule="evenodd" clip-rule="evenodd" d="M42.9683 22.0554V22.3129H43.079V22.0911H43.1891L43.3215 22.3129H43.411L43.2783 22.0911H43.3093L43.3392 22.0823L43.366 22.0736L43.389 22.0554H42.9683Z" fill="#FBB231"/>
<path fill-rule="evenodd" clip-rule="evenodd" d="M22.1031 14.3677H20.4887L20.4901 14.3642L20.4876 14.3635L20.4988 14.3017L20.5165 14.2087L20.5427 14.12L20.5737 14.0316L20.6137 13.9519L20.6538 13.8761L20.7015 13.8045L20.7551 13.7384L20.813 13.6766L20.869 13.6231L20.9366 13.5749L21.0017 13.5347L21.0777 13.4991L21.1529 13.4736L21.2278 13.4547L21.3072 13.4418L21.3919 13.4369L21.4709 13.4456L21.5462 13.4589L21.6172 13.4767L21.6876 13.5026L21.7538 13.5389L21.8199 13.5788L21.8781 13.6231L21.9304 13.6766L21.9746 13.7384L22.0188 13.8045L22.0498 13.8803L22.0808 13.9652L22.0979 14.0536L22.1073 14.1511L22.1125 14.2577L22.1031 14.3677ZM23.3013 13.96L23.2658 13.6951L23.2035 13.4596L23.1157 13.2563L23.0046 13.0781L22.8726 12.9275L22.727 12.8038L22.5681 12.6976L22.395 12.6176L22.2188 12.5505L22.0376 12.5061L21.8558 12.4757L21.675 12.4575L21.5026 12.453L21.1442 12.4715L20.8265 12.5239L20.5385 12.6043L20.2828 12.7154L20.0616 12.8485L19.8666 12.9991L19.6942 13.1675L19.5531 13.345L19.4291 13.5312L19.3281 13.7259L19.249 13.9173L19.1818 14.1067L19.1337 14.2943L19.0982 14.4662L19.0721 14.6308L19.0547 14.7727L19.0327 15.136L19.0459 15.4638L19.094 15.7611L19.1686 16.0225L19.2758 16.2573L19.404 16.462L19.5534 16.6433L19.7259 16.7943L19.9115 16.9232L20.1111 17.0329L20.3183 17.1182L20.5346 17.1842L20.7558 17.238L20.977 17.2688L21.1978 17.2911L21.4141 17.295H21.5604L21.6984 17.2911H21.8168L21.9321 17.2862L22.0342 17.2775L22.1268 17.2688L22.2146 17.26L22.2947 17.2468L22.3699 17.2328L22.4403 17.2157L22.512 17.193L22.5782 17.1713L22.6441 17.144L22.7151 17.1182L22.7851 17.0818L22.8562 17.0466L23.0331 15.9564L22.9053 16.0315L22.7809 16.1018L22.6535 16.1563L22.5288 16.2045L22.41 16.2443L22.286 16.2705L22.1665 16.2926L22.0474 16.3107L21.9279 16.3195L21.8133 16.3243H21.6942L21.5796 16.3195L21.465 16.3107L21.3497 16.2974L21.2393 16.2842L21.1247 16.2667L21.0362 16.2489L20.9478 16.2178L20.8596 16.1786L20.7792 16.129L20.7001 16.0766L20.629 16.0106L20.5632 15.9435L20.5009 15.8673L20.4483 15.7926L20.4002 15.7091L20.364 15.6283L20.3333 15.5438L20.3159 15.4596L20.3072 15.3747L20.3107 15.2999L20.3211 15.2426H23.1888L23.2104 14.9722L23.2773 14.599L23.3083 14.2622L23.3041 13.9607L23.3013 13.96Z" fill="white"/>
</svg>
