<svg width="615" height="337" viewBox="0 0 615 337" fill="none" xmlns="http://www.w3.org/2000/svg">
<mask id="mask0_319_39" style="mask-type:alpha" maskUnits="userSpaceOnUse" x="0" y="0" width="615" height="337">
<rect width="615" height="337" fill="#F8F8F8"/>
</mask>
<g mask="url(#mask0_319_39)">
<path d="M336.561 14.0575C311.789 34.9746 291.783 41.4903 277.788 78.0294C261.006 121.846 290.205 159.863 277.788 206.7C267.435 245.754 254.779 265.16 231.911 290.3C206.602 318.122 184.961 313.275 156.275 332.826C-19.2682 452.467 652 332.826 652 332.826V14.0575C652 14.0575 443.302 -76.0719 336.561 14.0575Z" fill="#DEF2FC"/>
</g>
<g clip-path="url(#clip0_319_39)">
<path d="M223.058 309.507C214.28 306.371 204.658 307.273 195.327 307.142C186.001 307.011 171.448 305.497 167.936 295.172C164.221 284.246 169.607 272.916 169.651 261.876C169.662 258.854 169.344 255.795 168.298 252.96C163.41 239.679 147.038 236.462 141.301 223.225C137.017 213.337 139.23 201.532 144.863 192.343C149.756 184.361 156.928 178.085 164.512 172.72C171.421 167.836 176.703 159.942 179.41 151.917C184.467 136.932 181.36 120.543 187.031 105.93C192.111 92.8404 201.836 81.7506 213.984 75.8943C235.178 65.6676 260.229 74.7635 275.341 92.2559C283.445 101.636 295.094 107.082 306.951 108.049C329.981 109.929 353.969 97.4512 375.305 111.535C386.182 118.713 393.864 131.442 396.258 144.875C397.606 152.441 397.453 160.86 394.521 168C391.639 175.031 386.669 180.761 382.395 186.836C375.3 196.926 371.415 210.414 378.05 221.783C380.954 226.754 385.146 230.819 389.124 234.981C399.305 245.645 403.074 261.34 399.568 275.555C395.59 291.692 382.976 302.285 366.555 304.312C354.402 305.814 340.945 303.853 329.926 310.256" stroke="#DFF3FD" stroke-width="10" stroke-miterlimit="10"/>
<path d="M420.725 161.844H396.835V336.991H420.725V161.844Z" fill="#DEF2FC"/>
<path d="M391.758 215.604H360.723V337H391.758V215.604Z" fill="#C2E7FA"/>
<path d="M436.252 251.745H406.123V337H436.252V251.745Z" fill="#DEF2FC"/>
<path d="M416.232 153.293H396.83V161.853H416.232V153.293Z" fill="#DEF2FC"/>
<path d="M412.708 144.733H396.835V153.293H412.708V144.733Z" fill="#DEF2FC"/>
<path d="M409.34 136.173H396.835V144.733H409.34V136.173Z" fill="#DEF2FC"/>
<path d="M326.406 161.844H302.516V336.991H326.406V161.844Z" fill="#C2E7FA"/>
<path d="M391.759 105.139H367.868V336.991H391.759V105.139Z" fill="#C2E7FA"/>
<path d="M302.516 269.214H254.729V336.991H302.516V269.214Z" fill="#C2E7FA"/>
<path d="M362.461 77.8031H314.461V337H362.461V77.8031Z" fill="#C2E7FA"/>
<path d="M321.912 153.293H302.51V161.853H321.912V153.293Z" fill="#C2E7FA"/>
<path d="M318.389 144.733H302.516V153.293H318.389V144.733Z" fill="#C2E7FA"/>
<path d="M315.021 136.173H302.516V144.733H315.021V136.173Z" fill="#C2E7FA"/>
<path d="M280.63 161.844H256.739V336.991H280.63V161.844Z" fill="#C2E7FA"/>
<path d="M304.52 191.457H280.63V337H304.52V191.457Z" fill="#C2E7FA"/>
<path d="M256.74 122.57H220.685V336.991H256.74V122.57Z" fill="#C2E7FA"/>
<path d="M276.136 153.293H256.733V161.853H276.136V153.293Z" fill="#C2E7FA"/>
<path d="M272.612 144.733H256.739V153.293H272.612V144.733Z" fill="#C2E7FA"/>
<path d="M269.245 136.173H256.739V144.733H269.245V136.173Z" fill="#C2E7FA"/>
<path d="M186.31 161.844H162.42V336.991H186.31V161.844Z" fill="#C2E7FA"/>
<path d="M162.421 191.457H138.53V337H162.421V191.457Z" fill="#C2E7FA"/>
<path d="M215.827 167.178H191.937V337H215.827V167.178Z" fill="#C2E7FA"/>
<path d="M138.524 252.442H114.634V336.991H138.524V252.442Z" fill="#DEF2FC"/>
<path d="M222.365 209.123H174.365V337H222.365V209.123Z" fill="#C2E7FA"/>
<path d="M181.816 153.293H162.414V161.853H181.816V153.293Z" fill="#C2E7FA"/>
<path d="M156.009 299.899H136.606V308.46H156.009V299.899Z" fill="#C2E7FA"/>
<path d="M178.293 144.733H162.42V153.293H178.293V144.733Z" fill="#C2E7FA"/>
<path d="M174.925 136.173H162.42V144.733H174.925V136.173Z" fill="#C2E7FA"/>
<path d="M296.976 207.872H265.565V216.432H296.976V207.872Z" fill="#C2E7FA"/>
<path d="M296.976 238.548H265.565V247.108H296.976V238.548Z" fill="#C2E7FA"/>
<path d="M296.976 269.214H265.565V277.774H296.976V269.214Z" fill="#C2E7FA"/>
<path d="M176.59 269.214H145.179V277.774H176.59V269.214Z" fill="#C2E7FA"/>
<path d="M176.59 299.899H145.179V308.46H176.59V299.899Z" fill="#C2E7FA"/>
<path d="M443.302 277.575C434.749 280.591 424.431 280.285 416.645 275.308C408.996 270.413 402.021 266.879 392.607 267.053C384.197 267.206 377.238 271.741 369.09 272.708C362.63 273.472 356.066 270.665 351.381 266.158C346.812 261.76 343.776 255.057 345.76 249.042C346.801 245.89 349.075 243.295 350.373 240.241C353.365 233.199 345.486 228.955 347.442 221.541C349.107 215.237 356.044 210.741 355.946 204.224C355.869 199.455 352.165 195.756 350.861 191.342C349.546 186.89 349.836 181.902 352.159 177.832C353.863 174.844 356.609 172.397 359.781 171.047C362.636 169.834 365.819 169.813 368.027 167.327C371.956 162.897 373.403 158.1 378.794 154.86C383.358 152.118 389.391 151.943 394.629 152.424C406.267 153.489 417.566 159.613 424.124 169.37C426.448 172.828 428.124 176.368 428.184 180.476C428.25 184.967 428.245 189.485 431.006 193.303C433.324 196.51 437.044 198.384 440.732 199.832C444.42 201.279 448.288 202.448 451.526 204.726C454.764 207.005 457.334 210.725 456.956 214.658C456.638 217.952 454.354 220.815 454.047 224.109C453.493 230.097 459.279 234.45 462.846 239.302C467.844 246.092 468.671 255.696 464.912 263.235C460.584 271.916 452.721 273.877 444.48 277.144C444.096 277.286 443.702 277.433 443.302 277.575Z" fill="#0B2D4E"/>
<path d="M381.106 165.59C383.934 163.94 387.221 163.186 390.492 163.055C393.769 162.929 397.057 163.35 400.24 164.142C406.623 165.743 412.437 169.534 416.492 174.746C418.497 177.368 420.048 180.345 420.968 183.525C421.894 186.715 422.081 190.047 422.042 193.314C422.009 196.587 421.774 199.837 421.883 203.055C421.949 204.65 422.152 206.245 422.639 207.737C423.116 209.222 423.949 210.594 425.182 211.484C426.398 212.402 427.954 212.79 429.532 212.981C431.116 213.167 432.765 213.178 434.409 213.396C437.669 213.833 440.984 214.609 443.828 216.472C445.225 217.401 446.48 218.695 447.088 220.334C447.718 221.968 447.592 223.754 447.17 225.387C446.677 227.037 445.74 228.419 445.088 229.862C444.436 231.304 444.014 232.855 443.872 234.44C443.57 237.619 444.387 240.809 445.526 243.83C446.639 246.873 447.981 249.872 448.759 253.068C449.143 254.663 449.373 256.308 449.351 257.952C449.329 259.597 449.028 261.235 448.491 262.781C447.417 265.879 445.395 268.632 442.781 270.577C445.351 268.567 447.291 265.786 448.277 262.705C449.307 259.618 449.17 256.275 448.321 253.172C447.504 250.042 446.146 247.081 444.978 244.033C443.795 241.001 442.891 237.723 443.165 234.374C443.291 232.713 443.713 231.069 444.381 229.539C445.061 228.015 445.97 226.655 446.403 225.163C446.781 223.656 446.885 222.055 446.321 220.629C445.784 219.203 444.666 218.04 443.362 217.177C440.716 215.445 437.483 214.685 434.31 214.281C432.721 214.074 431.094 214.074 429.434 213.888C427.79 213.697 426.053 213.298 424.634 212.238C423.215 211.195 422.289 209.627 421.785 208.026C421.264 206.415 421.072 204.743 421.007 203.093C420.913 199.799 421.16 196.548 421.204 193.309C421.253 190.075 421.083 186.835 420.201 183.749C419.314 180.673 417.851 177.761 415.933 175.183C412.048 170.053 406.393 166.256 400.136 164.59C397.013 163.738 393.764 163.246 390.509 163.295C387.254 163.334 383.972 164.005 381.106 165.59Z" fill="#73B8D4"/>
<path d="M422.284 237.783C422.585 245.142 420.876 250.67 414.125 254.314C408.75 257.215 402.307 258.165 396.373 258.313C386.422 258.559 375.332 255.996 367.886 249.026C366.532 247.758 365.239 246.212 365.141 244.366C365.053 242.689 365.979 241.11 366.061 239.427C366.198 236.597 363.99 234.254 363.004 231.599C361.7 228.092 362.587 224.175 363.754 220.618C364.927 217.062 366.39 213.473 366.215 209.736C365.984 204.89 363.064 200.657 360.724 196.401C358.385 192.145 356.544 186.966 358.544 182.541C359.859 179.624 363.004 177.384 366.215 177.029C369.606 176.652 372.653 180.52 374.828 182.645C377.754 185.508 381.009 188.037 384.51 190.157C389.354 193.09 394.674 195.254 399.233 198.613C401.989 200.646 404.948 203.437 406.268 206.677C407.753 210.326 405.156 213.861 408.295 217.215C410.323 219.378 413.435 220.116 415.884 221.793C421.139 225.36 422.043 231.97 422.284 237.783Z" fill="#061F33"/>
<path d="M367.321 278.968C374.307 268.233 378.658 255.057 372.587 242.934C371.973 241.705 371.234 240.367 369.924 239.93C367.113 238.996 363.3 240.001 360.856 241.432C352.374 246.387 347.19 255.723 342.423 264.027C337.476 272.653 333.174 281.634 328.205 290.249C326.188 293.74 324.156 297.275 323.076 301.153C322.128 304.551 322.024 308.441 323.317 311.768C328.901 326.141 344.248 308.534 348.922 303.218C355.59 295.625 361.815 287.43 367.321 278.968Z" fill="#EFB126"/>
<path d="M430.552 266.955C432.563 258.477 433.604 249.801 429.05 244.022C426.996 241.41 423.33 239.597 420.333 238.307C414.486 235.789 408.508 232.402 402.251 231.304C395.654 230.146 388.317 229.43 381.737 231.091C377.561 232.14 373.655 234.09 369.918 236.188C366.68 238.007 362.702 239.58 361.129 242.967C357.315 251.184 353.935 259.755 351.124 268.359C348.773 275.559 346.198 283.109 349.897 290.408C351.096 292.773 352.839 294.794 354.209 297.056C355.737 299.574 356.307 301.94 356.505 304.841C356.959 311.467 356.784 318.11 356.762 324.742C356.757 326.654 356.784 328.643 357.622 330.358C359.277 333.745 363.776 333.794 367.014 333.789C377.693 333.773 388.372 333.751 399.051 333.734C403.495 333.729 406.892 334.27 411.062 335.122C414.574 335.843 417.588 334.073 419.27 330.817C420.864 327.736 420.985 324.136 421.155 320.667C421.818 307.184 423.735 293.767 426.875 280.64C427.785 276.931 429.341 272.068 430.552 266.955Z" fill="#FFC73C"/>
<path d="M405.818 242.29C408.333 238.072 408.903 232.806 405.61 228.742C404.103 226.884 401.44 226.677 399.16 226.633C394.678 226.551 390.185 227.026 385.818 228.042C381.66 229.015 377.413 230.654 375.61 234.844C374.274 237.958 374.739 241.558 376.504 244.404C378.104 246.988 380.761 248.906 383.731 249.61C388.52 250.747 394.125 250.594 398.695 248.682C401.56 247.48 404.125 245.12 405.818 242.29Z" fill="#EFB126"/>
<path d="M434.338 305.835C434.305 299.334 434.272 292.828 434.239 286.327C434.228 284.065 435.702 270.282 432.168 270.441C431.785 270.457 431.439 270.654 431.127 270.872C429.368 272.123 428.47 274.226 427.648 276.215C425.073 282.459 422.914 292.462 417.555 296.832C412.109 301.279 403.731 303.153 396.964 304.218C389.057 305.464 381.025 305.556 373.036 306.043C367.869 306.354 362.17 307.097 358.773 310.992C356.351 313.773 355.113 317.946 353.82 321.344C352.691 324.316 351.787 327.845 354.083 330.533C355.064 331.68 356.423 332.434 357.787 333.079C362.773 335.422 368.219 336.602 373.655 337.509C388.865 340.05 404.372 340.574 419.78 339.842C423.073 339.684 426.645 339.356 429.072 337.138C430.881 335.483 431.73 333.052 432.338 330.681C434.409 322.606 434.376 314.166 434.338 305.835Z" fill="#EFB126"/>
<path d="M361.496 194.784C355.666 200.76 360.954 215.368 370.247 213.254C380.235 210.982 378.729 195.467 369.699 192.921C366.181 191.927 363.37 192.861 361.496 194.784Z" fill="#57B8E8"/>
<path d="M441.044 276.592C446.885 277.335 453.038 276.821 458.255 274.101C464.896 270.637 468.222 264.278 468.359 256.969C468.457 251.675 467.433 246.152 464.222 241.929C460.737 237.335 454.89 234.516 452.726 229.179C451.323 225.721 451.658 221.017 454.436 218.34C456.205 216.636 457.586 214.718 457.362 212.167C457.027 208.414 454.271 204.803 451.197 202.776C446.682 199.804 441.072 198.712 435.79 198.045C432.212 197.592 428.65 196.592 427.543 192.752C426.946 190.681 427.067 188.496 426.952 186.365C426.716 181.826 426.382 177.286 425.702 172.785C424.919 167.6 421.538 162.58 417.774 159.007C417.231 158.493 416.672 158.002 416.092 157.532C406.377 149.687 388.399 146.906 377.687 154.178C374.033 156.658 371.474 160.449 370.663 164.787C370.12 167.688 369.331 168.31 366.493 169.19C361.332 170.785 355.48 171.921 351.381 175.691C348.176 178.641 346.702 183.11 347.129 187.398C347.672 192.872 351.513 195.489 354.263 199.832C357.069 204.262 354.861 209.834 351.606 213.489C349.096 216.303 345.535 218.362 344.116 221.853C342.812 225.065 343.677 228.78 345.25 231.867C345.891 233.118 346.642 234.314 347.206 235.598C348.921 239.515 348.746 244.202 346.74 247.977" stroke="#0B2D4E" stroke-width="15" stroke-miterlimit="10"/>
<path d="M457.603 285.065C459.389 288.277 461.165 291.495 462.907 294.734C466.447 301.306 473.016 315.909 462.496 319.52C457.198 321.339 454.168 319.558 450.661 315.712C437.412 301.153 426.114 284.83 417.155 267.316C413.824 260.798 404.974 243.814 415.719 239.93C419.111 238.706 423.023 238.99 426.201 240.695C427.653 241.476 428.946 242.525 430.174 243.617C437.932 250.512 443.456 259.411 448.365 268.441C451.417 274.019 454.529 279.531 457.603 285.065Z" fill="#FFC73C"/>
<path d="M396.712 244.437C399.911 243.415 402.547 241.432 403.533 238.275C404.432 235.412 403.018 232.194 402.766 229.304C402.525 226.535 402.492 223.754 402.678 220.984C402.848 218.422 403.095 215.756 402.695 213.2C402.47 211.741 401.665 211.992 400.185 211.408C398.706 210.829 397.046 210.823 395.435 210.829C392.142 210.834 383.55 210.599 381.517 213.478C380.58 214.8 380.509 216.466 380.465 218.04C380.411 219.941 380.076 222.405 379.764 225.06C379.627 226.24 379.709 227.42 379.528 228.589C379.326 229.905 378.827 231.162 378.389 232.418C376.734 237.177 378.285 241.705 383.446 243.88C387.145 245.458 392.432 245.808 396.712 244.437Z" fill="#F8A17A"/>
<path d="M402.679 213.205C402.454 211.746 401.649 211.998 400.169 211.413C398.69 210.834 397.03 210.829 395.419 210.834C392.126 210.84 383.534 210.605 381.501 213.484C380.564 214.806 380.493 216.472 380.449 218.045C380.394 219.946 380.06 222.41 379.748 225.065C379.611 226.245 379.693 227.425 379.512 228.594C379.359 229.594 379.03 230.561 378.69 231.522C381.885 232.702 385.49 232.97 388.822 232.151C394.821 230.676 399.369 226.955 402.607 222.11C402.624 221.733 402.635 221.356 402.662 220.979C402.827 218.428 403.073 215.756 402.679 213.205Z" fill="#E5785C"/>
<path d="M407.463 194.451C407.435 190.064 406.827 185.907 405.698 182.448C400.816 167.54 382.165 163.858 370.932 174.56C358.406 186.491 363.201 215.024 376.395 225.043C379.924 227.72 384.713 228.665 388.997 227.518C401.956 224.054 407.545 208.152 407.463 194.451Z" fill="#F8A17A"/>
<path d="M405.008 194.822C410.745 191.692 412.514 199.613 411.523 203.557C411.117 205.185 410.471 206.775 409.457 208.114C408.093 209.916 404.186 212.91 401.939 210.938C400.92 210.042 400.816 208.523 400.783 207.168C400.701 203.53 401.118 196.942 405.008 194.822Z" fill="#F8A17A"/>
<path d="M386.317 220.913C384.909 220.913 383.495 220.809 382.076 220.602L382.328 218.886C387.479 219.646 392.613 218.93 397.183 216.816C398.421 216.242 399.473 215.641 400.399 214.975C402.076 213.762 403.517 212.183 404.563 210.402L406.064 211.277C404.897 213.265 403.292 215.03 401.424 216.379C400.41 217.111 399.265 217.767 397.922 218.389C394.3 220.061 390.355 220.913 386.317 220.913Z" fill="#2F95D2"/>
<path d="M377.047 217.515C379.145 215.718 383.808 215.876 385.348 217.739C386.488 219.121 386.142 220.875 384.882 222.044C383.397 223.426 381.562 223.344 379.71 222.929C377.397 222.405 374.521 219.679 377.047 217.515Z" fill="#2F95D2"/>
<path d="M407.49 183.066C402.35 167.371 382.712 163.497 370.888 174.762C368.274 177.253 366.39 180.433 365.135 184.005C365.398 184.41 365.694 184.819 366.044 185.229C367.666 187.103 369.907 188.327 372.159 189.365C378.74 192.397 385.836 194.178 392.964 195.511C393.49 195.609 394.016 195.707 394.542 195.811C396.504 196.199 398.454 196.68 400.164 197.685C405.008 200.531 402.925 206.792 406.476 209.534C406.799 209.78 407.123 209.944 407.446 210.058C408.755 205.382 409.369 200.422 409.342 195.707C409.32 191.085 408.679 186.704 407.49 183.066Z" fill="#E5785C"/>
<path d="M395.057 194.014C396.931 194.707 398.778 195.494 400.307 196.756C404.635 200.334 401.578 206.185 404.641 209.457C407.358 212.358 411.479 208.523 412.558 205.846C414.547 200.913 414.432 195.423 414.284 190.102C414.202 187.136 414.114 184.131 413.243 181.296C412.29 178.204 410.438 175.445 408.235 173.069C401.868 166.218 392.258 162.656 382.954 163.241C375.677 163.7 362.91 169.796 368.62 179.029C369.924 181.137 371.935 182.7 373.995 184.082C380.006 188.125 386.729 191.009 393.551 193.456C394.044 193.648 394.553 193.828 395.057 194.014Z" fill="#0B2D4E"/>
<path d="M407.419 192.566C399.32 194.636 396.192 209.851 405.227 212.877C414.936 216.133 421.769 202.11 415.397 195.243C412.909 192.566 410.027 191.899 407.419 192.566Z" fill="#57B8E8"/>
<path d="M410.075 194.522C404.487 195.418 401.04 207.261 406.804 210.517C412.996 214.019 418.804 203.475 415.166 197.401C413.741 195.03 411.873 194.232 410.075 194.522Z" fill="#2F95D2"/>
<path d="M411.204 193.631L409.045 193.38C410.508 180.755 409.884 164.623 398.591 159.471C393.243 157.029 377.923 154.325 371.183 163.394C370.373 164.301 369.83 165.065 369.83 165.065C374.011 152.206 393.725 154.866 399.495 157.499C411.977 163.197 412.749 180.291 411.204 193.631Z" fill="#57B8E8"/>
<path d="M534.691 318.871H229.604V340.148H534.691V318.871Z" fill="white"/>
<path d="M370.411 312.462H326.198V321.093H370.411V312.462Z" fill="#2F95D2"/>
<path d="M333.787 313.298L322.631 256.663C322.335 255.166 321.02 254.09 319.491 254.09H245.313C244.239 254.09 243.318 254.62 242.743 255.406L242.732 255.395L239.308 259.433L242.349 258.766L253.335 314.527C253.63 316.024 254.945 317.1 256.474 317.1H330.647C332.658 317.105 334.171 315.27 333.787 313.298Z" fill="#2F95D2"/>
<path d="M253.083 321.093H327.256C329.272 321.093 330.785 319.258 330.396 317.291L319.24 260.656C318.944 259.16 317.629 258.083 316.1 258.083H241.922C239.905 258.083 238.393 259.919 238.782 261.886L249.938 318.52C250.234 320.011 251.549 321.093 253.083 321.093Z" fill="#0B2D4E"/>
<path d="M276.414 288.179C277.099 291.997 280.759 295.095 284.589 295.095C288.419 295.095 290.928 291.997 290.189 288.179C289.449 284.36 285.789 281.263 282.013 281.263C278.233 281.263 275.729 284.36 276.414 288.179Z" fill="#2F95D2"/>
<path d="M489.421 287.277C490.237 285.595 490.095 283.819 489.574 282.213C489.081 280.569 488.194 279.159 487.235 277.608C486.265 276.084 485.279 274.423 484.676 272.418C484.062 270.397 484.238 268.124 484.802 266.207C486.018 262.295 488.517 259.411 490.232 256.455C491.092 254.964 491.799 253.445 492.078 251.768C492.391 250.107 492.287 248.337 491.465 246.666C492.884 247.906 493.574 249.911 493.667 251.856C493.755 253.822 493.256 255.811 492.506 257.564C491.015 261.121 488.78 264.005 487.909 267.125C487.416 268.671 487.295 270.167 487.646 271.664C487.936 273.199 488.742 274.751 489.47 276.428C490.237 278.067 490.972 279.962 491.136 281.913C491.295 283.847 490.856 286.021 489.421 287.277Z" fill="white"/>
<path d="M496.079 320.907H484.287C481.454 320.907 479.164 318.618 479.164 315.8V289.43H501.207V315.8C501.202 318.624 498.906 320.907 496.079 320.907Z" fill="#57B8E8"/>
<path d="M502.741 296.548C497.454 296.548 493.169 300.886 493.169 306.228C493.169 311.571 497.454 315.909 502.741 315.909C508.029 315.909 512.314 311.571 512.314 306.228C512.314 300.886 508.029 296.548 502.741 296.548ZM502.741 312.462C499.339 312.462 496.583 309.67 496.583 306.234C496.583 302.798 499.339 300.006 502.741 300.006C506.144 300.006 508.9 302.798 508.9 306.234C508.9 309.67 506.144 312.462 502.741 312.462Z" fill="#57B8E8"/>
<path opacity="0.2" d="M482.457 308.96C481.8 308.96 481.263 308.424 481.263 307.774V292.456C481.263 291.801 481.8 291.271 482.457 291.271C483.115 291.271 483.646 291.806 483.646 292.456V307.774C483.646 308.424 483.109 308.96 482.457 308.96Z" fill="white"/>
<path d="M496.112 289.43V315.346C496.112 318.422 493.613 320.913 490.528 320.913H495.619C498.703 320.913 501.202 318.422 501.202 315.346V289.43H496.112Z" fill="#2F95D2"/>
<path d="M442.837 174.549H519.481C523.24 174.549 526.314 171.484 526.314 167.737V126.688C526.314 122.94 523.24 119.876 519.481 119.876H442.837C439.078 119.876 436.004 122.94 436.004 126.688V167.737C436.004 171.484 439.078 174.549 442.837 174.549Z" fill="#0098D7"/>
<path d="M447.889 188.944V163.814L467.625 174.549L447.889 188.944Z" fill="#0098D7"/>
<path d="M492.073 149.676H452.151C450.836 149.676 449.757 148.605 449.757 147.289C449.757 145.978 450.831 144.902 452.151 144.902H492.073C493.388 144.902 494.468 145.972 494.468 147.289C494.462 148.6 493.388 149.676 492.073 149.676Z" fill="#E1F4FD"/>
<path d="M510.166 149.676H500.298C498.983 149.676 497.903 148.605 497.903 147.289C497.903 145.978 498.977 144.902 500.298 144.902H510.166C511.481 144.902 512.56 145.972 512.56 147.289C512.555 148.6 511.481 149.676 510.166 149.676Z" fill="#E1F4FD"/>
<path d="M470.244 134.068H510.166C511.481 134.068 512.561 135.139 512.561 136.456C512.561 137.767 511.487 138.843 510.166 138.843H470.244C468.929 138.843 467.85 137.772 467.85 136.456C467.85 135.145 468.924 134.068 470.244 134.068Z" fill="#E1F4FD"/>
<path d="M452.151 134.068H462.02C463.335 134.068 464.414 135.139 464.414 136.456C464.414 137.767 463.34 138.843 462.02 138.843H452.151C450.836 138.843 449.757 137.772 449.757 136.456C449.757 135.145 450.836 134.068 452.151 134.068Z" fill="#E1F4FD"/>
<path d="M478.764 159.575H452.151C450.836 159.575 449.757 158.504 449.757 157.188C449.757 155.877 450.831 154.8 452.151 154.8H478.764C480.079 154.8 481.159 155.871 481.159 157.188C481.159 158.504 480.079 159.575 478.764 159.575Z" fill="#E1F4FD"/>
<path d="M405.873 308.015C406.778 307.862 407.682 307.714 408.591 307.572C413.002 306.884 417.396 306.064 421.769 305.114C430.426 303.24 439.127 301.629 447.938 300.793C448.869 300.705 449.806 300.623 450.743 300.552C454.694 300.257 458.831 300.159 462.447 302.038C466.063 303.923 468.94 308.375 468.058 312.669C467.439 315.685 465.121 317.957 462.551 319.105C459.981 320.252 457.149 320.448 454.371 320.634C445.374 321.241 436.382 321.842 427.385 322.448C422.931 322.743 418.476 323.049 414.027 323.36C409.775 323.655 405.457 324.256 401.194 324.251C399.391 324.251 397.375 323.912 395.863 322.71C393.753 321.044 392.488 317.493 392.285 314.712C392.181 313.27 392.46 311.522 393.567 310.632C394.159 310.156 394.915 310.009 395.638 309.878C399.052 309.249 402.454 308.594 405.873 308.015Z" fill="#FFC73C"/>
<path d="M395.78 321.678C393.605 322.126 391.906 324.032 389.742 324.666C388.197 325.119 386.542 324.879 385.057 324.322C383.693 323.814 382.306 323.541 380.904 323.093C379.813 322.743 378.339 322.011 377.161 322.251C374.087 322.89 371.019 325.07 368.23 326.485C367.605 326.802 366.915 327.13 366.225 326.999C365.534 326.867 364.959 326.032 365.348 325.453C364.548 326.201 363.485 327.692 362.192 327.113C361.66 326.878 361.343 326.179 361.638 325.677C361.195 326.163 360.729 326.665 360.115 326.906C359.502 327.146 358.696 327.042 358.334 326.491C358.165 326.234 358.115 325.911 358.099 325.606C358.044 324.54 358.367 323.491 358.811 322.524C361.008 317.75 365.973 314.204 370.197 311.358C370.942 310.856 371.704 310.342 372.57 310.08C373.342 309.845 374.159 309.818 374.97 309.818C380.208 309.796 385.451 310.637 390.416 312.303C391.49 312.664 392.673 312.358 393.742 312.156C394.536 312.008 395.363 311.861 396.136 312.085C397.002 312.336 397.676 313.019 398.202 313.751C399.172 315.095 399.917 316.87 399.796 318.558C399.709 319.837 399.61 321.219 398.098 321.492C397.484 321.601 396.854 321.536 396.235 321.596C396.081 321.623 395.933 321.645 395.78 321.678Z" fill="#F8A17A"/>
</g>
<defs>
<clipPath id="clip0_319_39">
<rect width="650" height="290" fill="white" transform="translate(77.8125 47)"/>
</clipPath>
</defs>
</svg>
