<svg width="512" height="329" viewBox="0 0 512 329" fill="none" xmlns="http://www.w3.org/2000/svg">
<path d="M132.752 295.535C122.07 291.718 110.361 292.815 99.0059 292.655C87.6571 292.496 69.9473 290.654 65.6732 278.086C61.1523 264.786 67.7069 250.994 67.7602 237.555C67.7735 233.878 67.3868 230.154 66.1132 226.703C60.1655 210.537 40.2419 206.621 33.2606 190.508C28.0464 178.472 30.7402 164.102 37.5948 152.917C43.5492 143.202 52.2774 135.562 61.5057 129.031C69.9139 123.087 76.3418 113.478 79.6357 103.709C85.7901 85.469 82.0095 65.5197 88.9107 47.7317C95.0918 31.7989 106.927 18.2999 121.71 11.1714C147.501 -1.27698 177.987 9.79485 196.377 31.0873C206.239 42.505 220.414 49.1348 234.844 50.3118C262.869 52.5993 292.061 37.4113 318.025 54.5543C331.261 63.2921 340.61 78.786 343.523 95.1377C345.164 104.348 344.977 114.595 341.41 123.286C337.902 131.844 331.855 138.82 326.654 146.214C318.019 158.496 313.291 174.915 321.366 188.753C324.9 194.804 330.001 199.752 334.842 204.819C347.231 217.799 351.818 236.904 347.551 254.206C342.71 273.85 327.36 286.744 307.377 289.211C292.588 291.039 276.211 288.652 262.802 296.446" stroke="#DFF3FD" stroke-width="10" stroke-miterlimit="10"/>
<path d="M373.299 115.793H344.226V328.989H373.299V115.793Z" fill="#DEF2FC"/>
<path d="M338.047 181.232H300.28V329H338.047V181.232Z" fill="#C2E7FA"/>
<path d="M392.193 225.225H355.529V329H392.193V225.225Z" fill="#DEF2FC"/>
<path d="M367.83 105.384H344.219V115.804H367.83V105.384Z" fill="#DEF2FC"/>
<path d="M363.542 94.9645H344.226V105.384H363.542V94.9645Z" fill="#DEF2FC"/>
<path d="M359.444 84.5446H344.226V94.9646H359.444V84.5446Z" fill="#DEF2FC"/>
<path d="M258.519 115.793H229.446V328.989H258.519V115.793Z" fill="#C2E7FA"/>
<path d="M338.047 46.7696H308.975V328.989H338.047V46.7696Z" fill="#C2E7FA"/>
<path d="M229.446 246.488H171.294V328.989H229.446V246.488Z" fill="#C2E7FA"/>
<path d="M302.395 13.4948H243.983V329H302.395V13.4948Z" fill="#C2E7FA"/>
<path d="M253.05 105.384H229.439V115.804H253.05V105.384Z" fill="#C2E7FA"/>
<path d="M248.762 94.9645H229.446V105.384H248.762V94.9645Z" fill="#C2E7FA"/>
<path d="M244.664 84.5446H229.446V94.9646H244.664V84.5446Z" fill="#C2E7FA"/>
<path d="M202.813 115.793H173.74V328.989H202.813V115.793Z" fill="#C2E7FA"/>
<path d="M231.886 151.839H202.813V329H231.886V151.839Z" fill="#C2E7FA"/>
<path d="M173.74 67.9873H129.864V328.989H173.74V67.9873Z" fill="#C2E7FA"/>
<path d="M197.344 105.384H173.733V115.804H197.344V105.384Z" fill="#C2E7FA"/>
<path d="M193.056 94.9646H173.74V105.384H193.056V94.9646Z" fill="#C2E7FA"/>
<path d="M188.958 84.5447H173.74V94.9646H188.958V84.5447Z" fill="#C2E7FA"/>
<path d="M88.0332 115.793H58.9604V328.989H88.0332V115.793Z" fill="#C2E7FA"/>
<path d="M58.9606 151.839H29.8879V329H58.9606V151.839Z" fill="#C2E7FA"/>
<path d="M123.952 122.285H94.8796V329H123.952V122.285Z" fill="#C2E7FA"/>
<path d="M29.8808 226.072H0.808105V328.989H29.8808V226.072Z" fill="#DEF2FC"/>
<path d="M131.909 173.343H73.4968V329H131.909V173.343Z" fill="#C2E7FA"/>
<path d="M82.5647 105.384H58.9536V115.804H82.5647V105.384Z" fill="#C2E7FA"/>
<path d="M51.1581 283.839H27.5471V294.259H51.1581V283.839Z" fill="#C2E7FA"/>
<path d="M78.2767 94.9646H58.9604V105.384H78.2767V94.9646Z" fill="#C2E7FA"/>
<path d="M74.1786 84.5447H58.9604V94.9646H74.1786V84.5447Z" fill="#C2E7FA"/>
<path d="M222.705 171.82H184.481V182.24H222.705V171.82Z" fill="#C2E7FA"/>
<path d="M222.705 209.16H184.481V219.58H222.705V209.16Z" fill="#C2E7FA"/>
<path d="M222.705 246.488H184.481V256.908H222.705V246.488Z" fill="#C2E7FA"/>
<path d="M76.2032 246.488H37.9785V256.908H76.2032V246.488Z" fill="#C2E7FA"/>
<path d="M76.2032 283.84H37.9785V294.259H76.2032V283.84Z" fill="#C2E7FA"/>
<path d="M400.773 256.666C390.364 260.336 377.808 259.964 368.333 253.906C359.025 247.948 350.537 243.645 339.081 243.858C328.846 244.044 320.378 249.564 310.463 250.741C302.602 251.672 294.613 248.254 288.912 242.768C283.351 237.415 279.657 229.255 282.071 221.934C283.338 218.097 286.105 214.938 287.686 211.221C291.326 202.65 281.738 197.483 284.118 188.459C286.145 180.785 294.587 175.313 294.467 167.379C294.373 161.574 289.866 157.072 288.279 151.699C286.679 146.28 287.032 140.209 289.859 135.254C291.933 131.617 295.274 128.638 299.134 126.995C302.608 125.519 306.482 125.493 309.169 122.467C313.95 117.074 315.711 111.236 322.272 107.292C327.826 103.954 335.167 103.741 341.542 104.326C355.704 105.623 369.454 113.078 377.435 124.954C380.262 129.163 382.303 133.472 382.376 138.473C382.456 143.939 382.449 149.438 385.81 154.087C388.63 157.99 393.158 160.271 397.645 162.033C402.133 163.795 406.84 165.218 410.781 167.991C414.722 170.764 417.849 175.293 417.389 180.08C417.002 184.09 414.222 187.575 413.848 191.585C413.175 198.873 420.216 204.173 424.557 210.077C430.638 218.343 431.645 230.033 427.071 239.21C421.803 249.777 412.235 252.164 402.206 256.14C401.739 256.313 401.259 256.493 400.773 256.666Z" fill="#0B2D4E"/>
<path d="M325.086 120.352C328.526 118.344 332.527 117.426 336.508 117.267C340.495 117.114 344.496 117.626 348.37 118.59C356.138 120.539 363.213 125.153 368.147 131.497C370.587 134.689 372.474 138.313 373.594 142.183C374.721 146.067 374.948 150.123 374.901 154.1C374.861 158.083 374.575 162.04 374.708 165.956C374.788 167.898 375.035 169.84 375.628 171.655C376.208 173.464 377.222 175.133 378.722 176.217C380.202 177.334 382.096 177.806 384.016 178.039C385.943 178.265 387.95 178.278 389.951 178.544C393.918 179.076 397.952 180.021 401.413 182.288C403.113 183.419 404.64 184.995 405.38 186.99C406.147 188.978 405.994 191.152 405.48 193.141C404.88 195.149 403.74 196.831 402.946 198.587C402.153 200.342 401.639 202.231 401.466 204.159C401.099 208.029 402.093 211.913 403.48 215.59C404.833 219.294 406.467 222.945 407.414 226.835C407.881 228.777 408.161 230.778 408.134 232.78C408.107 234.781 407.741 236.776 407.087 238.658C405.78 242.428 403.32 245.78 400.139 248.147C403.266 245.7 405.627 242.315 406.827 238.565C408.081 234.808 407.914 230.738 406.88 226.961C405.887 223.151 404.233 219.547 402.813 215.836C401.373 212.146 400.273 208.156 400.606 204.079C400.759 202.058 401.273 200.056 402.086 198.194C402.913 196.339 404.02 194.683 404.547 192.868C405.007 191.033 405.133 189.084 404.447 187.349C403.793 185.613 402.433 184.197 400.846 183.146C397.625 181.038 393.691 180.114 389.831 179.622C387.897 179.369 385.917 179.369 383.896 179.143C381.896 178.91 379.782 178.425 378.055 177.135C376.328 175.864 375.201 173.956 374.588 172.008C373.954 170.046 373.721 168.011 373.641 166.003C373.528 161.993 373.828 158.036 373.881 154.093C373.941 150.157 373.734 146.213 372.661 142.456C371.581 138.712 369.8 135.168 367.467 132.029C362.739 125.785 355.858 121.164 348.243 119.135C344.443 118.098 340.488 117.5 336.528 117.559C332.567 117.606 328.573 118.424 325.086 120.352Z" fill="#73B8D4"/>
<path d="M375.195 208.229C375.561 217.186 373.481 223.916 365.266 228.351C358.725 231.882 350.884 233.039 343.662 233.219C331.553 233.518 318.058 230.399 308.996 221.914C307.349 220.371 305.775 218.489 305.655 216.242C305.549 214.2 306.676 212.279 306.776 210.23C306.942 206.786 304.255 203.933 303.055 200.701C301.468 196.432 302.548 191.664 303.968 187.335C305.395 183.006 307.176 178.637 306.962 174.089C306.682 168.191 303.128 163.037 300.281 157.857C297.434 152.677 295.194 146.373 297.627 140.987C299.228 137.436 303.055 134.709 306.962 134.277C311.09 133.818 314.797 138.526 317.444 141.113C321.005 144.597 324.966 147.676 329.226 150.256C335.121 153.827 341.595 156.461 347.143 160.55C350.497 163.024 354.098 166.422 355.704 170.365C357.511 174.807 354.351 179.11 358.172 183.193C360.639 185.826 364.426 186.724 367.407 188.765C373.801 193.107 374.901 201.153 375.195 208.229Z" fill="#061F33"/>
<path d="M308.309 258.361C316.811 245.295 322.105 229.255 314.717 214.5C313.97 213.003 313.07 211.374 311.477 210.842C308.056 209.705 303.415 210.929 300.441 212.671C290.119 218.702 283.812 230.067 278.011 240.174C271.989 250.674 266.755 261.606 260.707 272.093C258.254 276.342 255.78 280.645 254.466 285.366C253.313 289.502 253.186 294.237 254.76 298.286C261.554 315.782 280.231 294.35 285.919 287.88C294.033 278.636 301.608 268.662 308.309 258.361Z" fill="#EFB126"/>
<path d="M385.256 243.739C387.704 233.418 388.97 222.858 383.429 215.823C380.929 212.644 376.468 210.437 372.821 208.867C365.706 205.802 358.432 201.679 350.817 200.342C342.789 198.932 333.86 198.061 325.852 200.083C320.771 201.36 316.017 203.734 311.47 206.287C307.529 208.501 302.688 210.417 300.774 214.539C296.134 224.541 292.02 234.974 288.599 245.447C285.738 254.212 282.605 263.402 287.105 272.286C288.566 275.165 290.686 277.626 292.353 280.379C294.213 283.444 294.907 286.323 295.147 289.855C295.7 297.921 295.487 306.007 295.46 314.08C295.454 316.407 295.487 318.827 296.507 320.915C298.521 325.038 303.995 325.098 307.936 325.092C320.931 325.072 333.927 325.045 346.923 325.025C352.33 325.018 356.465 325.677 361.539 326.714C365.813 327.592 369.48 325.437 371.527 321.474C373.468 317.724 373.614 313.341 373.821 309.119C374.628 292.707 376.962 276.375 380.782 260.396C381.889 255.881 383.783 249.963 385.256 243.739Z" fill="#FFC73C"/>
<path d="M355.158 213.715C358.218 208.581 358.912 202.171 354.904 197.224C353.071 194.963 349.83 194.71 347.056 194.657C341.602 194.557 336.134 195.136 330.82 196.372C325.759 197.556 320.591 199.551 318.398 204.651C316.771 208.442 317.338 212.824 319.485 216.288C321.432 219.434 324.666 221.768 328.279 222.626C334.107 224.009 340.928 223.823 346.489 221.495C349.977 220.032 353.097 217.159 355.158 213.715Z" fill="#EFB126"/>
<path d="M389.864 291.065C389.824 283.152 389.784 275.232 389.744 267.318C389.73 264.565 391.524 247.788 387.223 247.981C386.757 248.001 386.337 248.24 385.956 248.506C383.816 250.029 382.723 252.589 381.722 255.01C378.588 262.61 375.961 274.786 369.44 280.106C362.812 285.519 352.617 287.8 344.382 289.096C334.761 290.613 324.985 290.726 315.264 291.317C308.976 291.696 302.041 292.601 297.907 297.342C294.96 300.727 293.453 305.807 291.879 309.943C290.506 313.561 289.406 317.857 292.2 321.128C293.393 322.525 295.047 323.442 296.707 324.227C302.775 327.08 309.403 328.516 316.017 329.62C334.527 332.712 353.397 333.35 372.147 332.459C376.155 332.267 380.502 331.868 383.456 329.168C385.656 327.153 386.69 324.194 387.43 321.308C389.951 311.479 389.911 301.206 389.864 291.065Z" fill="#EFB126"/>
<path d="M301.221 155.889C294.127 163.163 300.561 180.945 311.87 178.371C324.025 175.605 322.192 156.72 311.203 153.621C306.922 152.411 303.502 153.548 301.221 155.889Z" fill="#57B8E8"/>
<path d="M398.026 255.469C405.133 256.373 412.621 255.748 418.969 252.436C427.051 248.22 431.098 240.48 431.265 231.583C431.385 225.139 430.138 218.416 426.231 213.276C421.99 207.684 414.875 204.252 412.241 197.756C410.534 193.546 410.941 187.821 414.322 184.562C416.476 182.488 418.156 180.154 417.882 177.048C417.476 172.48 414.122 168.084 410.381 165.617C404.887 162 398.059 160.67 391.631 159.859C387.277 159.307 382.943 158.09 381.596 153.415C380.869 150.895 381.016 148.235 380.876 145.641C380.589 140.115 380.182 134.59 379.355 129.11C378.402 122.8 374.288 116.688 369.707 112.339C369.047 111.714 368.367 111.116 367.66 110.544C355.838 100.995 333.961 97.6103 320.925 106.461C316.477 109.48 313.364 114.095 312.377 119.375C311.717 122.906 310.756 123.664 307.302 124.735C301.021 126.676 293.9 128.059 288.912 132.648C285.012 136.239 283.218 141.678 283.738 146.898C284.398 153.561 289.072 156.746 292.42 162.033C295.834 167.426 293.147 174.209 289.186 178.657C286.132 182.082 281.798 184.589 280.071 188.838C278.484 192.748 279.537 197.27 281.451 201.027C282.231 202.55 283.145 204.006 283.831 205.569C285.919 210.337 285.705 216.042 283.265 220.637" stroke="#0B2D4E" stroke-width="15" stroke-miterlimit="10"/>
<path d="M418.176 265.782C420.35 269.692 422.51 273.609 424.63 277.553C428.938 285.552 436.933 303.327 424.13 307.722C417.682 309.937 413.995 307.769 409.728 303.088C393.605 285.366 379.856 265.496 368.954 244.177C364.899 236.244 354.131 215.57 367.207 210.842C371.334 209.353 376.095 209.698 379.962 211.773C381.729 212.724 383.303 214.001 384.796 215.331C394.238 223.723 400.959 234.555 406.934 245.547C410.648 252.337 414.435 259.046 418.176 265.782Z" fill="#FFC73C"/>
<path d="M344.076 216.328C347.97 215.085 351.177 212.671 352.377 208.827C353.471 205.343 351.75 201.426 351.444 197.908C351.15 194.537 351.11 191.152 351.337 187.781C351.544 184.662 351.844 181.417 351.357 178.305C351.084 176.53 350.103 176.835 348.303 176.124C346.503 175.419 344.482 175.412 342.522 175.419C338.515 175.426 328.059 175.14 325.586 178.644C324.445 180.253 324.359 182.282 324.305 184.197C324.239 186.511 323.832 189.51 323.452 192.742C323.285 194.178 323.385 195.614 323.165 197.037C322.918 198.64 322.312 200.169 321.778 201.699C319.765 207.491 321.652 213.003 327.933 215.65C332.433 217.572 338.868 217.997 344.076 216.328Z" fill="#F8A17A"/>
<path d="M351.337 178.312C351.064 176.536 350.083 176.842 348.283 176.131C346.483 175.426 344.462 175.419 342.502 175.426C338.495 175.432 328.039 175.146 325.566 178.651C324.425 180.26 324.339 182.288 324.285 184.203C324.219 186.517 323.812 189.516 323.432 192.748C323.265 194.185 323.365 195.621 323.145 197.044C322.958 198.261 322.558 199.438 322.145 200.608C326.032 202.045 330.42 202.37 334.474 201.373C341.775 199.577 347.31 195.049 351.25 189.151C351.27 188.692 351.284 188.233 351.317 187.774C351.517 184.669 351.817 181.417 351.337 178.312Z" fill="#E5785C"/>
<path d="M357.158 155.483C357.125 150.143 356.385 145.083 355.011 140.874C349.07 122.726 326.373 118.244 312.703 131.271C297.461 145.794 303.295 180.526 319.351 192.722C323.645 195.98 329.473 197.13 334.687 195.734C350.457 191.518 357.258 172.161 357.158 155.483Z" fill="#F8A17A"/>
<path d="M354.171 155.935C361.152 152.125 363.306 161.767 362.099 166.568C361.605 168.55 360.819 170.485 359.585 172.114C357.925 174.308 353.171 177.952 350.437 175.552C349.197 174.461 349.07 172.613 349.03 170.964C348.93 166.535 349.437 158.515 354.171 155.935Z" fill="#F8A17A"/>
<path d="M331.427 187.694C329.713 187.694 327.993 187.568 326.266 187.315L326.573 185.227C332.84 186.152 339.088 185.281 344.649 182.707C346.156 182.009 347.436 181.277 348.563 180.466C350.604 178.99 352.357 177.068 353.631 174.9L355.458 175.964C354.038 178.385 352.084 180.533 349.81 182.175C348.577 183.066 347.183 183.864 345.549 184.622C341.142 186.657 336.341 187.694 331.427 187.694Z" fill="#2F95D2"/>
<path d="M320.145 183.558C322.699 181.37 328.373 181.563 330.247 183.831C331.634 185.513 331.214 187.648 329.68 189.071C327.873 190.753 325.639 190.654 323.385 190.148C320.572 189.51 317.071 186.192 320.145 183.558Z" fill="#2F95D2"/>
<path d="M357.191 141.625C350.937 122.52 327.039 117.806 312.65 131.517C309.469 134.55 307.176 138.42 305.649 142.769C305.969 143.261 306.329 143.76 306.756 144.258C308.729 146.539 311.456 148.029 314.197 149.292C322.205 152.983 330.84 155.151 339.515 156.773C340.155 156.893 340.795 157.013 341.435 157.139C343.822 157.611 346.196 158.196 348.276 159.42C354.171 162.884 351.637 170.505 355.958 173.843C356.351 174.142 356.745 174.342 357.138 174.481C358.732 168.789 359.478 162.751 359.445 157.013C359.418 151.387 358.638 146.054 357.191 141.625Z" fill="#E5785C"/>
<path d="M342.062 154.951C344.343 155.796 346.59 156.753 348.45 158.289C353.718 162.645 349.997 169.767 353.724 173.75C357.032 177.281 362.046 172.613 363.359 169.354C365.78 163.35 365.64 156.667 365.46 150.19C365.36 146.579 365.253 142.922 364.193 139.47C363.033 135.707 360.779 132.349 358.098 129.456C350.35 121.117 338.655 116.781 327.333 117.493C318.478 118.052 302.942 125.473 309.89 136.711C311.477 139.278 313.924 141.179 316.431 142.862C323.745 147.783 331.927 151.294 340.229 154.273C340.829 154.506 341.449 154.725 342.062 154.951Z" fill="#0B2D4E"/>
<path d="M357.105 153.189C347.25 155.709 343.442 174.229 354.438 177.913C366.253 181.876 374.568 164.806 366.813 156.447C363.786 153.189 360.279 152.378 357.105 153.189Z" fill="#57B8E8"/>
<path d="M360.339 155.569C353.537 156.66 349.343 171.077 356.358 175.04C363.893 179.302 370.961 166.468 366.533 159.074C364.8 156.188 362.526 155.217 360.339 155.569Z" fill="#2F95D2"/>
<path d="M361.712 154.486L359.085 154.18C360.866 138.812 360.105 119.175 346.363 112.905C339.855 109.932 321.212 106.641 313.01 117.679C312.023 118.783 311.363 119.714 311.363 119.714C316.451 104.061 340.442 107.299 347.463 110.504C362.653 117.44 363.593 138.247 361.712 154.486Z" fill="#57B8E8"/>
<path d="M511.986 306.932H140.719V332.832H511.986V306.932Z" fill="white"/>
<path d="M312.07 299.131H258.267V309.638H312.07V299.131Z" fill="#2F95D2"/>
<path d="M267.502 300.148L253.926 231.21C253.566 229.388 251.966 228.078 250.105 228.078H159.836C158.529 228.078 157.409 228.723 156.709 229.681L156.695 229.668L152.528 234.582L156.228 233.77L169.598 301.645C169.958 303.467 171.558 304.777 173.418 304.777H263.681C266.128 304.783 267.969 302.549 267.502 300.148Z" fill="#2F95D2"/>
<path d="M169.291 309.638H259.554C262.007 309.638 263.848 307.403 263.374 305.009L249.799 236.071C249.439 234.249 247.838 232.939 245.978 232.939H155.708C153.254 232.939 151.414 235.174 151.888 237.568L165.463 306.505C165.823 308.321 167.424 309.638 169.291 309.638Z" fill="#0B2D4E"/>
<path d="M197.682 269.573C198.516 274.221 202.97 277.991 207.631 277.991C212.292 277.991 215.346 274.221 214.446 269.573C213.545 264.925 209.091 261.154 204.497 261.154C199.896 261.154 196.849 264.925 197.682 269.573Z" fill="#2F95D2"/>
<path d="M456.896 268.476C457.89 266.427 457.716 264.266 457.083 262.311C456.483 260.31 455.402 258.594 454.236 256.706C453.055 254.85 451.855 252.829 451.122 250.388C450.375 247.928 450.588 245.162 451.275 242.827C452.755 238.066 455.796 234.555 457.883 230.958C458.93 229.142 459.79 227.294 460.13 225.252C460.51 223.231 460.383 221.076 459.383 219.041C461.11 220.551 461.95 222.991 462.064 225.359C462.17 227.752 461.564 230.173 460.65 232.308C458.836 236.637 456.116 240.148 455.056 243.945C454.456 245.827 454.309 247.649 454.736 249.471C455.089 251.339 456.069 253.228 456.956 255.269C457.89 257.264 458.783 259.572 458.983 261.946C459.176 264.3 458.643 266.946 456.896 268.476Z" fill="white"/>
<path d="M464.998 309.411H450.648C447.201 309.411 444.414 306.625 444.414 303.194V271.096H471.239V303.194C471.232 306.632 468.438 309.411 464.998 309.411Z" fill="#57B8E8"/>
<path d="M473.106 279.76C466.671 279.76 461.457 285.04 461.457 291.544C461.457 298.047 466.671 303.327 473.106 303.327C479.54 303.327 484.754 298.047 484.754 291.544C484.754 285.04 479.54 279.76 473.106 279.76ZM473.106 299.131C468.965 299.131 465.611 295.733 465.611 291.55C465.611 287.368 468.965 283.969 473.106 283.969C477.246 283.969 480.6 287.368 480.6 291.55C480.6 295.733 477.246 299.131 473.106 299.131Z" fill="#57B8E8"/>
<path opacity="0.2" d="M448.421 294.868C447.621 294.868 446.968 294.217 446.968 293.425V274.78C446.968 273.982 447.621 273.337 448.421 273.337C449.221 273.337 449.868 273.988 449.868 274.78V293.425C449.868 294.217 449.215 294.868 448.421 294.868Z" fill="white"/>
<path d="M465.037 271.096V302.642C465.037 306.386 461.997 309.418 458.243 309.418H464.437C468.191 309.418 471.232 306.386 471.232 302.642V271.096H465.037Z" fill="#2F95D2"/>
<path d="M400.206 131.258H493.476C498.05 131.258 501.791 127.527 501.791 122.966V72.9995C501.791 68.4378 498.05 64.7073 493.476 64.7073H400.206C395.632 64.7073 391.891 68.4378 391.891 72.9995V122.966C391.891 127.527 395.632 131.258 400.206 131.258Z" fill="#0098D7"/>
<path d="M406.354 148.78V118.191L430.371 131.258L406.354 148.78Z" fill="#0098D7"/>
<path d="M460.123 100.982H411.541C409.941 100.982 408.627 99.6783 408.627 98.0757C408.627 96.4798 409.934 95.1698 411.541 95.1698H460.123C461.724 95.1698 463.037 96.4731 463.037 98.0757C463.031 99.6717 461.724 100.982 460.123 100.982Z" fill="#E1F4FD"/>
<path d="M482.141 100.982H470.132C468.532 100.982 467.218 99.6783 467.218 98.0757C467.218 96.4798 468.525 95.1698 470.132 95.1698H482.141C483.741 95.1698 485.055 96.4731 485.055 98.0757C485.048 99.6717 483.741 100.982 482.141 100.982Z" fill="#E1F4FD"/>
<path d="M433.559 81.9833H482.141C483.741 81.9833 485.055 83.2867 485.055 84.8893C485.055 86.4852 483.748 87.7952 482.141 87.7952H433.559C431.958 87.7952 430.645 86.4919 430.645 84.8893C430.645 83.2933 431.952 81.9833 433.559 81.9833Z" fill="#E1F4FD"/>
<path d="M411.541 81.9833H423.55C425.15 81.9833 426.464 83.2867 426.464 84.8893C426.464 86.4852 425.157 87.7952 423.55 87.7952H411.541C409.941 87.7952 408.627 86.4919 408.627 84.8893C408.627 83.2933 409.941 81.9833 411.541 81.9833Z" fill="#E1F4FD"/>
<path d="M443.927 113.031H411.541C409.941 113.031 408.627 111.728 408.627 110.125C408.627 108.529 409.934 107.219 411.541 107.219H443.927C445.527 107.219 446.841 108.522 446.841 110.125C446.841 111.728 445.527 113.031 443.927 113.031Z" fill="#E1F4FD"/>
<path d="M355.224 293.718C356.325 293.532 357.425 293.352 358.532 293.179C363.899 292.342 369.247 291.344 374.568 290.187C385.103 287.906 395.692 285.944 406.414 284.927C407.547 284.821 408.687 284.721 409.828 284.634C414.635 284.275 419.669 284.156 424.07 286.443C428.471 288.737 431.972 294.157 430.898 299.384C430.145 303.054 427.324 305.821 424.197 307.217C421.07 308.613 417.622 308.853 414.242 309.079C403.293 309.817 392.351 310.548 381.403 311.287C375.982 311.646 370.561 312.018 365.146 312.397C359.972 312.756 354.718 313.488 349.53 313.481C347.336 313.481 344.883 313.069 343.042 311.606C340.475 309.578 338.935 305.255 338.688 301.871C338.561 300.115 338.902 297.987 340.248 296.903C340.969 296.325 341.889 296.145 342.769 295.986C346.923 295.221 351.064 294.423 355.224 293.718Z" fill="#FFC73C"/>
<path d="M342.942 310.349C340.295 310.894 338.228 313.215 335.594 313.986C333.714 314.538 331.7 314.246 329.893 313.567C328.233 312.949 326.546 312.617 324.839 312.071C323.512 311.646 321.718 310.755 320.285 311.047C316.544 311.825 312.81 314.478 309.416 316.201C308.656 316.586 307.816 316.985 306.976 316.826C306.136 316.666 305.435 315.649 305.909 314.944C304.935 315.855 303.642 317.67 302.068 316.965C301.421 316.68 301.035 315.828 301.395 315.217C300.855 315.808 300.288 316.42 299.541 316.713C298.794 317.005 297.814 316.879 297.374 316.207C297.167 315.895 297.107 315.503 297.087 315.13C297.021 313.833 297.414 312.557 297.954 311.38C300.628 305.568 306.669 301.252 311.81 297.788C312.717 297.176 313.644 296.551 314.697 296.232C315.637 295.946 316.631 295.912 317.618 295.912C323.992 295.886 330.373 296.91 336.414 298.938C337.721 299.377 339.162 299.005 340.462 298.758C341.429 298.579 342.435 298.399 343.376 298.672C344.429 298.978 345.249 299.809 345.889 300.7C347.07 302.336 347.976 304.497 347.83 306.552C347.723 308.108 347.603 309.79 345.763 310.123C345.016 310.256 344.249 310.176 343.496 310.249C343.309 310.282 343.129 310.309 342.942 310.349Z" fill="#F8A17A"/>
</svg>
