<svg width="289" height="192" viewBox="0 0 289 192" fill="none" xmlns="http://www.w3.org/2000/svg">
<path d="M67.7887 172.66C61.5768 170.454 54.7676 171.088 48.164 170.996C41.5642 170.904 31.2652 169.839 28.7796 162.576C26.1505 154.891 29.9623 146.92 29.9933 139.154C30.001 137.029 29.7761 134.877 29.0355 132.882C25.5766 123.54 13.9902 121.277 9.93033 111.965C6.89801 105.01 8.46458 96.705 12.4508 90.2412C15.9135 84.6267 20.9894 80.2112 26.3561 76.4375C31.2458 73.0019 34.9838 67.4489 36.8994 61.8036C40.4785 51.2625 38.2798 39.7338 42.2932 29.454C45.8878 20.2464 52.7706 12.4453 61.3674 8.32567C76.3661 1.13173 94.0947 7.53018 104.789 19.8352C110.524 26.4335 118.768 30.2649 127.159 30.9451C143.457 32.267 160.434 23.4898 175.533 33.3968C183.23 38.4464 188.667 47.4004 190.361 56.8501C191.315 62.1726 191.207 68.0945 189.132 73.1172C187.092 78.063 183.575 82.0942 180.551 86.3675C175.529 93.4654 172.78 102.954 177.476 110.951C179.531 114.448 182.497 117.307 185.313 120.235C192.517 127.737 195.185 138.777 192.703 148.776C189.888 160.128 180.962 167.58 169.341 169.006C160.74 170.062 151.216 168.683 143.418 173.187" stroke="#DFF3FD" stroke-width="10" stroke-miterlimit="10"/>
<path d="M207.677 68.7869H190.77V191.993H207.677V68.7869Z" fill="#DEF2FC"/>
<path d="M187.176 106.604H165.213V192H187.176V106.604Z" fill="#C2E7FA"/>
<path d="M218.665 132.028H197.343V192H218.665V132.028Z" fill="#DEF2FC"/>
<path d="M204.496 62.7717H190.766V68.7934H204.496V62.7717Z" fill="#DEF2FC"/>
<path d="M202.003 56.7501H190.77V62.7717H202.003V56.7501Z" fill="#DEF2FC"/>
<path d="M199.62 50.7284H190.77V56.7501H199.62V50.7284Z" fill="#DEF2FC"/>
<path d="M140.928 68.7869H124.021V191.993H140.928V68.7869Z" fill="#C2E7FA"/>
<path d="M187.177 28.898H170.27V191.993H187.177V28.898Z" fill="#C2E7FA"/>
<path d="M124.02 144.316H90.2021V191.993H124.02V144.316Z" fill="#C2E7FA"/>
<path d="M166.443 9.6684H132.474V192H166.443V9.6684Z" fill="#C2E7FA"/>
<path d="M137.747 62.7718H124.017V68.7934H137.747V62.7718Z" fill="#C2E7FA"/>
<path d="M135.254 56.7501H124.021V62.7718H135.254V56.7501Z" fill="#C2E7FA"/>
<path d="M132.871 50.7284H124.021V56.7501H132.871V50.7284Z" fill="#C2E7FA"/>
<path d="M108.532 68.7869H91.625V191.993H108.532V68.7869Z" fill="#C2E7FA"/>
<path d="M125.439 89.618H108.532V192H125.439V89.618Z" fill="#C2E7FA"/>
<path d="M91.6252 41.1598H66.1094V191.993H91.6252V41.1598Z" fill="#C2E7FA"/>
<path d="M105.352 62.7718H91.6211V68.7934H105.352V62.7718Z" fill="#C2E7FA"/>
<path d="M102.858 56.7501H91.625V62.7718H102.858V56.7501Z" fill="#C2E7FA"/>
<path d="M100.475 50.7284H91.625V56.7501H100.475V50.7284Z" fill="#C2E7FA"/>
<path d="M41.783 68.7869H24.876V191.993H41.783V68.7869Z" fill="#C2E7FA"/>
<path d="M24.8758 89.618H7.96875V192H24.8758V89.618Z" fill="#C2E7FA"/>
<path d="M62.6717 72.5388H45.7646V192H62.6717V72.5388Z" fill="#C2E7FA"/>
<path d="M7.96463 132.518H-8.94238V191.993H7.96463V132.518Z" fill="#DEF2FC"/>
<path d="M67.2985 102.045H33.3291V192H67.2985V102.045Z" fill="#C2E7FA"/>
<path d="M38.6029 62.7718H24.8721V68.7934H38.6029V62.7718Z" fill="#C2E7FA"/>
<path d="M20.3382 165.902H6.60742V171.923H20.3382V165.902Z" fill="#C2E7FA"/>
<path d="M36.1092 56.7501H24.876V62.7718H36.1092V56.7501Z" fill="#C2E7FA"/>
<path d="M33.726 50.7284H24.876V56.7501H33.726V50.7284Z" fill="#C2E7FA"/>
<path d="M120.1 101.165H97.8711V107.187H120.1V101.165Z" fill="#C2E7FA"/>
<path d="M120.1 122.744H97.8711V128.766H120.1V122.744Z" fill="#C2E7FA"/>
<path d="M120.1 144.316H97.8711V150.338H120.1V144.316Z" fill="#C2E7FA"/>
<path d="M34.9031 144.316H12.6738V150.338H34.9031V144.316Z" fill="#C2E7FA"/>
<path d="M34.9031 165.902H12.6738V171.923H34.9031V165.902Z" fill="#C2E7FA"/>
<path d="M223.654 150.198C217.601 152.319 210.299 152.104 204.789 148.603C199.376 145.16 194.44 142.673 187.778 142.796C181.826 142.904 176.901 146.093 171.135 146.774C166.563 147.312 161.918 145.336 158.602 142.166C155.368 139.072 153.22 134.357 154.624 130.126C155.361 127.909 156.97 126.083 157.889 123.935C160.006 118.982 154.43 115.996 155.814 110.781C156.993 106.346 161.902 103.183 161.832 98.5989C161.778 95.244 159.157 92.6424 158.234 89.5373C157.303 86.4053 157.509 82.8967 159.153 80.0337C160.359 77.9317 162.302 76.21 164.547 75.2608C166.567 74.4077 168.82 74.3923 170.383 72.6438C173.163 69.5272 174.187 66.1531 178.002 63.8743C181.232 61.9451 185.502 61.8222 189.209 62.1603C197.445 62.9097 205.44 67.2176 210.082 74.0811C211.726 76.5136 212.913 79.0038 212.955 81.8937C213.002 85.0526 212.998 88.2307 214.952 90.9169C216.593 93.1727 219.226 94.4908 221.835 95.5092C224.445 96.5275 227.182 97.3499 229.474 98.9524C231.766 100.555 233.584 103.172 233.317 105.939C233.092 108.256 231.475 110.27 231.258 112.587C230.866 116.799 234.961 119.862 237.485 123.274C241.022 128.051 241.607 134.807 238.947 140.11C235.884 146.216 230.319 147.596 224.487 149.894C224.216 149.994 223.937 150.098 223.654 150.198Z" fill="#0B2D4E"/>
<path d="M179.639 71.4218C181.64 70.2612 183.966 69.7309 186.281 69.6386C188.6 69.5503 190.927 69.8462 193.179 70.4034C197.697 71.5294 201.811 74.1963 204.681 77.8625C206.1 79.7071 207.197 81.8015 207.849 84.038C208.504 86.2823 208.636 88.6265 208.609 90.9246C208.585 93.2265 208.419 95.513 208.496 97.7765C208.543 98.8986 208.686 100.021 209.031 101.07C209.369 102.115 209.958 103.08 210.83 103.706C211.691 104.352 212.793 104.625 213.909 104.759C215.03 104.89 216.197 104.897 217.36 105.051C219.668 105.359 222.014 105.904 224.026 107.215C225.015 107.868 225.903 108.779 226.333 109.932C226.779 111.081 226.69 112.337 226.391 113.486C226.043 114.647 225.379 115.619 224.918 116.634C224.457 117.648 224.158 118.74 224.057 119.854C223.844 122.091 224.422 124.335 225.228 126.46C226.015 128.601 226.965 130.71 227.516 132.958C227.787 134.081 227.95 135.237 227.935 136.394C227.919 137.551 227.706 138.704 227.326 139.791C226.566 141.97 225.135 143.907 223.286 145.275C225.104 143.861 226.477 141.905 227.175 139.737C227.904 137.566 227.807 135.214 227.206 133.031C226.628 130.829 225.666 128.747 224.84 126.602C224.003 124.469 223.363 122.164 223.557 119.808C223.646 118.64 223.945 117.483 224.418 116.407C224.899 115.335 225.542 114.378 225.849 113.329C226.116 112.268 226.19 111.142 225.79 110.139C225.41 109.136 224.619 108.318 223.697 107.71C221.824 106.492 219.536 105.958 217.291 105.674C216.166 105.528 215.014 105.528 213.84 105.397C212.676 105.262 211.447 104.982 210.443 104.236C209.438 103.502 208.783 102.4 208.426 101.274C208.058 100.14 207.922 98.9639 207.876 97.8034C207.81 95.4861 207.984 93.1996 208.015 90.9207C208.05 88.6457 207.93 86.3669 207.306 84.1956C206.678 82.032 205.642 79.9838 204.285 78.1699C201.536 74.5614 197.534 71.8906 193.106 70.7185C190.895 70.119 188.596 69.7731 186.293 69.8077C183.989 69.8346 181.667 70.3073 179.639 71.4218Z" fill="#73B8D4"/>
<path d="M208.78 122.206C208.993 127.382 207.783 131.271 203.006 133.835C199.202 135.875 194.642 136.544 190.442 136.648C183.401 136.82 175.552 135.018 170.283 130.115C169.325 129.223 168.41 128.136 168.34 126.837C168.278 125.657 168.933 124.546 168.991 123.363C169.088 121.372 167.526 119.723 166.828 117.856C165.905 115.389 166.533 112.633 167.359 110.131C168.189 107.63 169.224 105.105 169.1 102.476C168.937 99.0677 166.87 96.0895 165.214 93.0958C163.559 90.1022 162.256 86.4591 163.671 83.3464C164.602 81.2942 166.828 79.7186 169.1 79.4689C171.5 79.2037 173.656 81.9245 175.196 83.4194C177.266 85.4331 179.569 87.2123 182.047 88.7034C185.475 90.767 189.24 92.2888 192.467 94.6522C194.417 96.0818 196.511 98.0455 197.445 100.324C198.496 102.891 196.658 105.378 198.88 107.737C200.315 109.259 202.517 109.778 204.251 110.958C207.969 113.467 208.609 118.117 208.78 122.206Z" fill="#061F33"/>
<path d="M169.883 151.178C174.827 143.626 177.905 134.357 173.609 125.83C173.175 124.965 172.651 124.024 171.724 123.716C169.735 123.059 167.036 123.766 165.307 124.773C159.304 128.258 155.636 134.826 152.263 140.667C148.761 146.735 145.717 153.053 142.2 159.113C140.773 161.569 139.334 164.055 138.571 166.784C137.9 169.174 137.826 171.91 138.741 174.25C142.692 184.361 153.554 171.975 156.861 168.236C161.581 162.895 165.986 157.13 169.883 151.178Z" fill="#EFB126"/>
<path d="M214.631 142.727C216.054 136.763 216.79 130.66 213.568 126.595C212.114 124.758 209.52 123.482 207.399 122.575C203.261 120.803 199.031 118.421 194.602 117.648C189.934 116.834 184.742 116.33 180.085 117.498C177.13 118.236 174.365 119.608 171.72 121.084C169.429 122.363 166.614 123.47 165.501 125.853C162.802 131.633 160.409 137.662 158.42 143.715C156.757 148.78 154.934 154.091 157.552 159.225C158.401 160.889 159.634 162.311 160.603 163.902C161.685 165.673 162.088 167.337 162.228 169.378C162.55 174.039 162.426 178.712 162.41 183.377C162.406 184.722 162.426 186.121 163.019 187.328C164.19 189.711 167.374 189.745 169.665 189.741C177.223 189.73 184.78 189.714 192.338 189.703C195.483 189.699 197.887 190.079 200.838 190.679C203.323 191.186 205.456 189.941 206.646 187.651C207.775 185.483 207.86 182.951 207.98 180.511C208.45 171.026 209.807 161.588 212.029 152.354C212.672 149.744 213.774 146.324 214.631 142.727Z" fill="#FFC73C"/>
<path d="M197.127 125.376C198.907 122.41 199.31 118.705 196.979 115.846C195.913 114.539 194.028 114.393 192.415 114.363C189.243 114.305 186.064 114.639 182.973 115.354C180.03 116.038 177.025 117.191 175.749 120.138C174.803 122.329 175.133 124.861 176.381 126.864C177.514 128.681 179.394 130.03 181.496 130.526C184.885 131.325 188.852 131.218 192.086 129.873C194.114 129.027 195.928 127.367 197.127 125.376Z" fill="#EFB126"/>
<path d="M217.31 170.077C217.287 165.504 217.264 160.927 217.241 156.354C217.233 154.763 218.276 145.067 215.775 145.179C215.503 145.19 215.259 145.329 215.038 145.482C213.793 146.362 213.157 147.842 212.576 149.241C210.753 153.633 209.226 160.67 205.433 163.744C201.579 166.872 195.65 168.19 190.861 168.94C185.266 169.816 179.581 169.881 173.927 170.223C170.271 170.442 166.238 170.965 163.834 173.705C162.12 175.661 161.244 178.597 160.328 180.987C159.53 183.078 158.89 185.56 160.515 187.451C161.209 188.258 162.17 188.788 163.136 189.242C166.664 190.89 170.519 191.72 174.365 192.358C185.13 194.145 196.104 194.514 207.008 193.999C209.338 193.888 211.866 193.657 213.584 192.097C214.864 190.933 215.465 189.222 215.895 187.555C217.361 181.875 217.338 175.938 217.31 170.077Z" fill="#EFB126"/>
<path d="M165.76 91.9583C161.635 96.1624 165.377 106.438 171.953 104.951C179.022 103.353 177.956 92.4387 171.565 90.6479C169.076 89.9484 167.087 90.6056 165.76 91.9583Z" fill="#57B8E8"/>
<path d="M222.057 149.506C226.19 150.029 230.545 149.667 234.237 147.754C238.936 145.317 241.29 140.844 241.387 135.702C241.457 131.978 240.732 128.093 238.459 125.123C235.993 121.891 231.856 119.908 230.324 116.153C229.331 113.721 229.568 110.412 231.534 108.529C232.786 107.33 233.764 105.981 233.605 104.186C233.368 101.546 231.418 99.0062 229.242 97.5805C226.047 95.49 222.076 94.7214 218.338 94.2526C215.806 93.9336 213.286 93.2303 212.502 90.5288C212.08 89.0723 212.165 87.5351 212.084 86.0364C211.917 82.8429 211.68 79.6495 211.199 76.4829C210.645 72.836 208.252 69.3044 205.589 66.7911C205.205 66.4299 204.809 66.084 204.398 65.7535C197.523 60.2351 184.8 58.279 177.22 63.3939C174.633 65.1386 172.822 67.8056 172.248 70.8569C171.865 72.8975 171.306 73.3356 169.298 73.9543C165.645 75.0764 161.503 75.8757 158.603 78.5273C156.335 80.6025 155.291 83.746 155.594 86.7627C155.978 90.6133 158.696 92.4541 160.643 95.5092C162.628 98.6258 161.065 102.546 158.762 105.116C156.986 107.096 154.466 108.544 153.461 111C152.538 113.26 153.151 115.873 154.264 118.044C154.718 118.924 155.249 119.766 155.648 120.669C156.862 123.424 156.738 126.721 155.319 129.377" stroke="#0B2D4E" stroke-width="15" stroke-miterlimit="10"/>
<path d="M233.775 155.466C235.039 157.726 236.296 159.989 237.529 162.268C240.034 166.891 244.683 177.163 237.238 179.704C233.488 180.983 231.344 179.731 228.862 177.025C219.486 166.784 211.49 155.301 205.15 142.981C202.793 138.396 196.53 126.448 204.134 123.716C206.535 122.855 209.303 123.055 211.552 124.254C212.58 124.804 213.495 125.542 214.364 126.31C219.854 131.16 223.763 137.42 227.237 143.772C229.397 147.696 231.6 151.573 233.775 155.466Z" fill="#FFC73C"/>
<path d="M190.682 126.887C192.947 126.168 194.812 124.773 195.51 122.552C196.146 120.538 195.145 118.275 194.967 116.242C194.796 114.293 194.773 112.337 194.905 110.389C195.025 108.587 195.2 106.711 194.916 104.913C194.757 103.887 194.187 104.064 193.14 103.652C192.094 103.245 190.919 103.241 189.779 103.245C187.448 103.249 181.368 103.084 179.929 105.109C179.266 106.039 179.216 107.211 179.185 108.318C179.146 109.655 178.91 111.388 178.688 113.256C178.592 114.086 178.65 114.916 178.522 115.738C178.378 116.664 178.025 117.548 177.715 118.432C176.544 121.779 177.642 124.965 181.294 126.495C183.912 127.605 187.654 127.851 190.682 126.887Z" fill="#F8A17A"/>
<path d="M194.905 104.917C194.746 103.891 194.176 104.067 193.129 103.656C192.082 103.249 190.907 103.245 189.767 103.249C187.437 103.253 181.357 103.087 179.918 105.113C179.255 106.043 179.204 107.215 179.173 108.321C179.135 109.659 178.898 111.392 178.677 113.26C178.58 114.09 178.638 114.92 178.51 115.742C178.402 116.445 178.169 117.126 177.929 117.802C180.189 118.632 182.741 118.82 185.098 118.244C189.344 117.206 192.563 114.589 194.855 111.181C194.866 110.915 194.874 110.65 194.893 110.385C195.01 108.59 195.184 106.711 194.905 104.917Z" fill="#E5785C"/>
<path d="M198.291 91.7239C198.271 88.638 197.841 85.7136 197.042 83.281C193.587 72.7937 180.388 70.2036 172.438 77.7318C163.574 86.1248 166.967 106.196 176.304 113.244C178.802 115.127 182.191 115.792 185.223 114.985C194.394 112.549 198.349 101.362 198.291 91.7239Z" fill="#F8A17A"/>
<path d="M196.554 91.9852C200.613 89.7832 201.866 95.3555 201.164 98.13C200.877 99.2752 200.42 100.394 199.702 101.335C198.737 102.603 195.972 104.709 194.382 103.322C193.661 102.692 193.587 101.623 193.564 100.67C193.506 98.1108 193.8 93.4763 196.554 91.9852Z" fill="#F8A17A"/>
<path d="M183.326 110.339C182.33 110.339 181.33 110.266 180.325 110.12L180.504 108.913C184.149 109.447 187.782 108.944 191.016 107.457C191.892 107.053 192.637 106.631 193.292 106.162C194.479 105.309 195.498 104.198 196.239 102.945L197.302 103.56C196.476 104.959 195.339 106.2 194.017 107.149C193.3 107.664 192.489 108.125 191.539 108.564C188.976 109.739 186.184 110.339 183.326 110.339Z" fill="#2F95D2"/>
<path d="M176.765 107.949C178.251 106.684 181.551 106.796 182.64 108.106C183.447 109.079 183.202 110.312 182.311 111.134C181.26 112.107 179.961 112.049 178.65 111.757C177.014 111.388 174.978 109.47 176.765 107.949Z" fill="#2F95D2"/>
<path d="M198.31 83.7153C194.673 72.6746 180.775 69.9499 172.407 77.8741C170.558 79.6264 169.224 81.863 168.336 84.3763C168.522 84.6606 168.731 84.9489 168.98 85.2371C170.127 86.5552 171.713 87.416 173.307 88.1462C177.964 90.279 182.986 91.5318 188.031 92.4695C188.403 92.5386 188.775 92.6078 189.147 92.6808C190.535 92.9537 191.916 93.2919 193.126 93.999C196.554 96.0011 195.08 100.405 197.593 102.334C197.822 102.507 198.05 102.622 198.279 102.703C199.206 99.4136 199.64 95.9242 199.621 92.6078C199.605 89.3567 199.152 86.2747 198.31 83.7153Z" fill="#E5785C"/>
<path d="M189.512 91.4165C190.838 91.9045 192.145 92.4579 193.226 93.3456C196.29 95.8627 194.126 99.9785 196.294 102.28C198.217 104.321 201.133 101.623 201.897 99.7402C203.304 96.2701 203.223 92.408 203.118 88.665C203.06 86.5783 202.998 84.4647 202.382 82.4702C201.707 80.2951 200.396 78.3544 198.837 76.6828C194.332 71.8637 187.53 69.3582 180.946 69.7694C175.796 70.0922 166.761 74.3808 170.802 80.8754C171.725 82.3587 173.148 83.4578 174.606 84.4301C178.86 87.2738 183.618 89.3029 188.445 91.0245C188.794 91.159 189.155 91.2858 189.512 91.4165Z" fill="#0B2D4E"/>
<path d="M198.259 90.3981C192.528 91.8545 190.314 102.557 196.708 104.686C203.579 106.976 208.414 97.1117 203.905 92.2811C202.144 90.3981 200.105 89.9292 198.259 90.3981Z" fill="#57B8E8"/>
<path d="M200.14 91.7739C196.184 92.4041 193.745 100.736 197.825 103.026C202.206 105.489 206.317 98.0724 203.742 93.7991C202.734 92.1312 201.411 91.5702 200.14 91.7739Z" fill="#2F95D2"/>
<path d="M200.939 91.1475L199.412 90.9707C200.447 82.0897 200.005 70.7416 192.013 67.1177C188.228 65.3999 177.386 63.4977 172.617 69.8769C172.043 70.5149 171.659 71.0529 171.659 71.0529C174.618 62.0067 188.57 63.8782 192.653 65.7304C201.486 69.7386 202.033 81.7631 200.939 91.1475Z" fill="#57B8E8"/>
<path d="M288.329 179.247H72.4219V194.214H288.329V179.247Z" fill="white"/>
<path d="M172.07 174.739H140.781V180.81H172.07V174.739Z" fill="#2F95D2"/>
<path d="M146.152 175.327L138.257 135.487C138.048 134.434 137.117 133.677 136.036 133.677H83.5399C82.7799 133.677 82.1285 134.05 81.7213 134.603L81.7136 134.595L79.29 137.435L81.4421 136.966L89.2168 176.191C89.4262 177.244 90.3568 178.001 91.4387 178.001H143.93C145.354 178.005 146.424 176.714 146.152 175.327Z" fill="#2F95D2"/>
<path d="M89.0381 180.81H141.53C142.957 180.81 144.027 179.519 143.752 178.136L135.857 138.296C135.647 137.243 134.717 136.486 133.635 136.486H81.1393C79.7123 136.486 78.6421 137.777 78.9174 139.161L86.8123 179C87.0217 180.049 87.9523 180.81 89.0381 180.81Z" fill="#0B2D4E"/>
<path d="M105.55 157.657C106.034 160.343 108.625 162.522 111.335 162.522C114.046 162.522 115.821 160.343 115.298 157.657C114.775 154.971 112.184 152.792 109.513 152.792C106.837 152.792 105.065 154.971 105.55 157.657Z" fill="#2F95D2"/>
<path d="M256.292 157.023C256.87 155.839 256.769 154.59 256.401 153.46C256.052 152.304 255.424 151.312 254.745 150.221C254.059 149.149 253.361 147.98 252.934 146.57C252.5 145.148 252.624 143.549 253.023 142.201C253.884 139.449 255.652 137.42 256.866 135.341C257.475 134.292 257.975 133.224 258.173 132.044C258.394 130.876 258.32 129.63 257.739 128.454C258.743 129.327 259.231 130.737 259.297 132.105C259.359 133.489 259.007 134.888 258.475 136.121C257.421 138.623 255.839 140.652 255.222 142.846C254.873 143.934 254.788 144.987 255.036 146.04C255.241 147.12 255.811 148.211 256.327 149.391C256.87 150.544 257.39 151.877 257.506 153.249C257.618 154.609 257.308 156.139 256.292 157.023Z" fill="white"/>
<path d="M261.004 180.68H252.659C250.654 180.68 249.033 179.07 249.033 177.087V158.537H264.633V177.087C264.629 179.073 263.004 180.68 261.004 180.68Z" fill="#57B8E8"/>
<path d="M265.719 163.544C261.977 163.544 258.944 166.595 258.944 170.354C258.944 174.112 261.977 177.163 265.719 177.163C269.461 177.163 272.493 174.112 272.493 170.354C272.493 166.595 269.461 163.544 265.719 163.544ZM265.719 174.739C263.311 174.739 261.36 172.775 261.36 170.358C261.36 167.94 263.311 165.977 265.719 165.977C268.127 165.977 270.077 167.94 270.077 170.358C270.077 172.775 268.127 174.739 265.719 174.739Z" fill="#57B8E8"/>
<path opacity="0.2" d="M251.364 172.275C250.899 172.275 250.519 171.899 250.519 171.441V160.666C250.519 160.205 250.899 159.832 251.364 159.832C251.829 159.832 252.205 160.208 252.205 160.666V171.441C252.205 171.899 251.825 172.275 251.364 172.275Z" fill="white"/>
<path d="M261.027 158.537V176.768C261.027 178.931 259.258 180.683 257.075 180.683H260.678C262.861 180.683 264.629 178.931 264.629 176.768V158.537H261.027Z" fill="#2F95D2"/>
<path d="M223.325 77.7242H277.565C280.225 77.7242 282.401 75.5683 282.401 72.9321V44.0564C282.401 41.4201 280.225 39.2643 277.565 39.2643H223.325C220.665 39.2643 218.489 41.4201 218.489 44.0564V72.9321C218.489 75.5683 220.665 77.7242 223.325 77.7242Z" fill="#0098D7"/>
<path d="M226.899 87.8502V70.1728L240.867 77.7241L226.899 87.8502Z" fill="#0098D7"/>
<path d="M258.169 60.2274H229.916C228.986 60.2274 228.222 59.4742 228.222 58.548C228.222 57.6257 228.982 56.8687 229.916 56.8687H258.169C259.099 56.8687 259.863 57.6219 259.863 58.548C259.859 59.4703 259.099 60.2274 258.169 60.2274Z" fill="#E1F4FD"/>
<path d="M270.973 60.2274H263.989C263.059 60.2274 262.295 59.4742 262.295 58.548C262.295 57.6257 263.055 56.8687 263.989 56.8687H270.973C271.904 56.8687 272.668 57.6219 272.668 58.548C272.664 59.4703 271.904 60.2274 270.973 60.2274Z" fill="#E1F4FD"/>
<path d="M242.721 49.2482H270.973C271.904 49.2482 272.668 50.0014 272.668 50.9275C272.668 51.8498 271.908 52.6069 270.973 52.6069H242.721C241.79 52.6069 241.026 51.8537 241.026 50.9275C241.026 50.0052 241.786 49.2482 242.721 49.2482Z" fill="#E1F4FD"/>
<path d="M229.916 49.2482H236.9C237.831 49.2482 238.594 50.0014 238.594 50.9275C238.594 51.8498 237.834 52.6069 236.9 52.6069H229.916C228.986 52.6069 228.222 51.8537 228.222 50.9275C228.222 50.0052 228.986 49.2482 229.916 49.2482Z" fill="#E1F4FD"/>
<path d="M248.75 67.1907H229.916C228.986 67.1907 228.222 66.4375 228.222 65.5114C228.222 64.5891 228.982 63.832 229.916 63.832H248.75C249.681 63.832 250.444 64.5852 250.444 65.5114C250.444 66.4375 249.681 67.1907 248.75 67.1907Z" fill="#E1F4FD"/>
<path d="M197.166 171.61C197.806 171.503 198.446 171.399 199.089 171.299C202.211 170.815 205.321 170.238 208.415 169.57C214.542 168.252 220.699 167.118 226.935 166.53C227.594 166.469 228.257 166.411 228.92 166.361C231.716 166.153 234.643 166.084 237.203 167.406C239.762 168.732 241.798 171.864 241.173 174.885C240.735 177.006 239.095 178.605 237.276 179.412C235.458 180.219 233.453 180.357 231.487 180.488C225.12 180.914 218.757 181.337 212.39 181.763C209.237 181.971 206.085 182.186 202.936 182.405C199.927 182.613 196.871 183.035 193.855 183.032C192.579 183.032 191.152 182.793 190.082 181.948C188.589 180.776 187.693 178.278 187.549 176.322C187.476 175.307 187.674 174.078 188.457 173.451C188.876 173.117 189.411 173.013 189.923 172.921C192.338 172.479 194.746 172.018 197.166 171.61Z" fill="#FFC73C"/>
<path d="M190.023 181.222C188.484 181.537 187.282 182.878 185.75 183.324C184.657 183.643 183.486 183.473 182.435 183.081C181.469 182.724 180.488 182.532 179.496 182.217C178.724 181.971 177.681 181.456 176.847 181.625C174.672 182.075 172.5 183.608 170.527 184.603C170.085 184.826 169.596 185.057 169.107 184.965C168.619 184.872 168.212 184.284 168.487 183.877C167.921 184.403 167.169 185.453 166.253 185.045C165.877 184.88 165.652 184.388 165.862 184.035C165.548 184.377 165.218 184.73 164.784 184.899C164.349 185.068 163.779 184.995 163.524 184.607C163.403 184.426 163.368 184.2 163.357 183.985C163.318 183.235 163.547 182.497 163.861 181.817C165.416 178.458 168.929 175.964 171.919 173.962C172.446 173.609 172.985 173.247 173.598 173.063C174.144 172.898 174.722 172.879 175.296 172.879C179.003 172.863 182.714 173.455 186.227 174.627C186.987 174.881 187.825 174.666 188.581 174.523C189.143 174.42 189.729 174.316 190.275 174.473C190.888 174.65 191.365 175.131 191.737 175.645C192.424 176.591 192.951 177.84 192.866 179.027C192.804 179.926 192.734 180.899 191.664 181.091C191.229 181.168 190.783 181.122 190.345 181.164C190.237 181.183 190.132 181.198 190.023 181.222Z" fill="#F8A17A"/>
</svg>
