<svg width="421" height="271" viewBox="0 0 421 271" fill="none" xmlns="http://www.w3.org/2000/svg">
<path d="M109.058 243.507C100.28 240.371 90.6583 241.273 81.3271 241.142C72.0013 241.011 57.4484 239.497 53.9361 229.172C50.2212 218.246 55.6073 206.916 55.6511 195.876C55.6621 192.854 55.3443 189.795 54.2978 186.96C49.4102 173.679 33.0381 170.462 27.3013 157.225C23.0165 147.337 25.2301 135.532 30.8628 126.343C35.7559 118.361 42.9282 112.085 50.5116 106.72C57.421 101.836 62.703 93.942 65.4098 85.9169C70.4671 70.932 67.3604 54.5431 73.0314 39.9297C78.1107 26.8404 87.8365 15.7506 99.9841 9.89431C121.178 -0.332358 146.229 8.76348 161.341 26.2559C169.445 35.6358 181.094 41.0824 192.951 42.0493C215.981 43.9286 239.969 31.4512 261.305 45.5347C272.182 52.713 279.864 65.4417 282.258 78.8752C283.606 86.4414 283.453 94.8598 280.521 102C277.639 109.031 272.669 114.761 268.395 120.836C261.3 130.926 257.415 144.414 264.05 155.783C266.954 160.754 271.146 164.819 275.124 168.981C285.305 179.645 289.074 195.34 285.568 209.555C281.59 225.692 268.976 236.285 252.555 238.312C240.402 239.814 226.945 237.853 215.926 244.256" stroke="#DFF3FD" stroke-width="10" stroke-miterlimit="10"/>
<path d="M306.725 95.8441H282.835V270.991H306.725V95.8441Z" fill="#DEF2FC"/>
<path d="M277.758 149.604H246.723V271H277.758V149.604Z" fill="#C2E7FA"/>
<path d="M322.252 185.745H292.123V271H322.252V185.745Z" fill="#DEF2FC"/>
<path d="M302.232 87.2932H282.83V95.8534H302.232V87.2932Z" fill="#DEF2FC"/>
<path d="M298.708 78.7329H282.835V87.2931H298.708V78.7329Z" fill="#DEF2FC"/>
<path d="M295.34 70.1727H282.835V78.733H295.34V70.1727Z" fill="#DEF2FC"/>
<path d="M212.406 95.8441H188.516V270.991H212.406V95.8441Z" fill="#C2E7FA"/>
<path d="M277.759 39.1393H253.868V270.991H277.759V39.1393Z" fill="#C2E7FA"/>
<path d="M188.516 203.214H140.729V270.991H188.516V203.214Z" fill="#C2E7FA"/>
<path d="M248.461 11.8031H200.461V271H248.461V11.8031Z" fill="#C2E7FA"/>
<path d="M207.912 87.2932H188.51V95.8534H207.912V87.2932Z" fill="#C2E7FA"/>
<path d="M204.389 78.7329H188.516V87.2932H204.389V78.7329Z" fill="#C2E7FA"/>
<path d="M201.021 70.1727H188.516V78.7329H201.021V70.1727Z" fill="#C2E7FA"/>
<path d="M166.63 95.8441H142.739V270.991H166.63V95.8441Z" fill="#C2E7FA"/>
<path d="M190.52 125.457H166.63V271H190.52V125.457Z" fill="#C2E7FA"/>
<path d="M142.74 56.5703H106.685V270.991H142.74V56.5703Z" fill="#C2E7FA"/>
<path d="M162.136 87.2932H142.733V95.8534H162.136V87.2932Z" fill="#C2E7FA"/>
<path d="M158.612 78.7329H142.739V87.2932H158.612V78.7329Z" fill="#C2E7FA"/>
<path d="M155.245 70.1727H142.739V78.7329H155.245V70.1727Z" fill="#C2E7FA"/>
<path d="M72.3103 95.8441H48.4199V270.991H72.3103V95.8441Z" fill="#C2E7FA"/>
<path d="M48.4206 125.457H24.5303V271H48.4206V125.457Z" fill="#C2E7FA"/>
<path d="M101.827 101.178H77.9365V271H101.827V101.178Z" fill="#C2E7FA"/>
<path d="M24.5241 186.442H0.633789V270.991H24.5241V186.442Z" fill="#DEF2FC"/>
<path d="M108.365 143.123H60.3652V271H108.365V143.123Z" fill="#C2E7FA"/>
<path d="M67.8163 87.2932H48.4141V95.8534H67.8163V87.2932Z" fill="#C2E7FA"/>
<path d="M42.0087 233.899H22.6064V242.46H42.0087V233.899Z" fill="#C2E7FA"/>
<path d="M64.2929 78.7329H48.4199V87.2931H64.2929V78.7329Z" fill="#C2E7FA"/>
<path d="M60.9254 70.1726H48.4199V78.7329H60.9254V70.1726Z" fill="#C2E7FA"/>
<path d="M182.976 141.872H151.565V150.432H182.976V141.872Z" fill="#C2E7FA"/>
<path d="M182.976 172.548H151.565V181.108H182.976V172.548Z" fill="#C2E7FA"/>
<path d="M182.976 203.214H151.565V211.774H182.976V203.214Z" fill="#C2E7FA"/>
<path d="M62.5897 203.214H31.1787V211.774H62.5897V203.214Z" fill="#C2E7FA"/>
<path d="M62.5897 233.899H31.1787V242.46H62.5897V233.899Z" fill="#C2E7FA"/>
<path d="M329.302 211.575C320.749 214.591 310.431 214.285 302.645 209.308C294.996 204.413 288.021 200.879 278.607 201.053C270.197 201.206 263.238 205.741 255.09 206.708C248.63 207.472 242.066 204.665 237.381 200.158C232.812 195.76 229.776 189.057 231.76 183.042C232.801 179.89 235.075 177.295 236.373 174.241C239.365 167.199 231.486 162.955 233.442 155.541C235.107 149.237 242.044 144.741 241.946 138.224C241.869 133.455 238.165 129.756 236.861 125.342C235.546 120.89 235.836 115.902 238.159 111.832C239.863 108.844 242.609 106.397 245.781 105.047C248.636 103.834 251.819 103.813 254.027 101.327C257.956 96.8965 259.403 92.1 264.794 88.8605C269.358 86.1181 275.391 85.9433 280.629 86.424C292.267 87.4893 303.566 93.6133 310.124 103.37C312.448 106.828 314.124 110.368 314.184 114.476C314.25 118.967 314.245 123.485 317.006 127.303C319.324 130.51 323.044 132.384 326.732 133.832C330.42 135.279 334.288 136.448 337.526 138.726C340.764 141.005 343.334 144.725 342.956 148.658C342.638 151.952 340.354 154.815 340.047 158.109C339.493 164.097 345.279 168.45 348.846 173.302C353.844 180.092 354.671 189.696 350.912 197.235C346.584 205.916 338.721 207.877 330.48 211.144C330.096 211.286 329.702 211.433 329.302 211.575Z" fill="#0B2D4E"/>
<path d="M267.106 99.5898C269.934 97.9399 273.221 97.186 276.492 97.0549C279.769 96.9293 283.057 97.3499 286.24 98.1421C292.623 99.7427 298.437 103.534 302.492 108.746C304.497 111.368 306.048 114.345 306.968 117.525C307.894 120.715 308.081 124.047 308.042 127.314C308.009 130.587 307.774 133.837 307.883 137.055C307.949 138.65 308.152 140.245 308.639 141.737C309.116 143.222 309.949 144.594 311.182 145.484C312.398 146.402 313.954 146.79 315.532 146.981C317.116 147.167 318.765 147.178 320.409 147.396C323.669 147.833 326.984 148.609 329.828 150.472C331.225 151.401 332.48 152.695 333.088 154.334C333.718 155.968 333.592 157.754 333.17 159.387C332.677 161.037 331.74 162.419 331.088 163.862C330.436 165.304 330.014 166.855 329.872 168.44C329.57 171.619 330.387 174.809 331.526 177.83C332.639 180.873 333.981 183.872 334.759 187.068C335.143 188.663 335.373 190.308 335.351 191.952C335.329 193.597 335.028 195.235 334.491 196.781C333.417 199.879 331.395 202.632 328.781 204.577C331.351 202.567 333.291 199.786 334.277 196.705C335.307 193.618 335.17 190.275 334.321 187.172C333.504 184.042 332.146 181.081 330.978 178.033C329.795 175.001 328.891 171.723 329.165 168.374C329.291 166.713 329.713 165.069 330.381 163.539C331.061 162.015 331.97 160.655 332.403 159.163C332.781 157.656 332.885 156.055 332.321 154.629C331.784 153.203 330.666 152.04 329.362 151.177C326.716 149.445 323.483 148.685 320.31 148.281C318.721 148.074 317.094 148.074 315.434 147.888C313.79 147.697 312.053 147.298 310.634 146.238C309.215 145.195 308.289 143.627 307.785 142.026C307.264 140.415 307.072 138.743 307.007 137.093C306.913 133.799 307.16 130.548 307.204 127.309C307.253 124.075 307.083 120.835 306.201 117.749C305.314 114.673 303.851 111.761 301.933 109.183C298.048 104.053 292.393 100.256 286.136 98.59C283.013 97.7378 279.764 97.2461 276.509 97.2953C273.254 97.3335 269.972 98.0055 267.106 99.5898Z" fill="#73B8D4"/>
<path d="M308.284 171.783C308.585 179.142 306.876 184.67 300.125 188.314C294.75 191.215 288.307 192.165 282.373 192.313C272.422 192.559 261.332 189.996 253.886 183.026C252.532 181.758 251.239 180.212 251.141 178.366C251.053 176.689 251.979 175.11 252.061 173.427C252.198 170.597 249.99 168.254 249.004 165.599C247.7 162.092 248.587 158.175 249.754 154.618C250.927 151.062 252.39 147.473 252.215 143.736C251.984 138.89 249.064 134.657 246.724 130.401C244.385 126.145 242.544 120.966 244.544 116.541C245.859 113.624 249.004 111.384 252.215 111.029C255.606 110.652 258.653 114.52 260.828 116.645C263.754 119.508 267.009 122.037 270.51 124.157C275.354 127.09 280.674 129.254 285.233 132.613C287.989 134.646 290.948 137.437 292.268 140.677C293.753 144.326 291.156 147.861 294.295 151.215C296.323 153.378 299.435 154.116 301.884 155.793C307.139 159.36 308.043 165.97 308.284 171.783Z" fill="#061F33"/>
<path d="M253.321 212.968C260.307 202.233 264.658 189.057 258.587 176.934C257.973 175.705 257.234 174.367 255.924 173.93C253.113 172.996 249.3 174.001 246.856 175.432C238.374 180.387 233.19 189.723 228.423 198.027C223.476 206.653 219.174 215.634 214.205 224.249C212.188 227.74 210.156 231.275 209.076 235.153C208.128 238.551 208.024 242.441 209.317 245.768C214.901 260.141 230.248 242.534 234.922 237.218C241.59 229.625 247.815 221.43 253.321 212.968Z" fill="#EFB126"/>
<path d="M316.552 200.955C318.563 192.477 319.604 183.801 315.05 178.022C312.996 175.41 309.33 173.597 306.333 172.307C300.486 169.789 294.508 166.402 288.251 165.304C281.654 164.146 274.317 163.43 267.737 165.091C263.561 166.14 259.655 168.09 255.918 170.188C252.68 172.007 248.702 173.58 247.129 176.967C243.315 185.184 239.935 193.755 237.124 202.359C234.773 209.559 232.198 217.109 235.897 224.408C237.096 226.773 238.839 228.794 240.209 231.056C241.737 233.574 242.307 235.94 242.505 238.841C242.959 245.467 242.784 252.11 242.762 258.742C242.757 260.654 242.784 262.643 243.622 264.358C245.277 267.745 249.776 267.794 253.014 267.789C263.693 267.773 274.372 267.751 285.051 267.734C289.495 267.729 292.892 268.27 297.062 269.122C300.574 269.843 303.588 268.073 305.27 264.817C306.864 261.736 306.985 258.136 307.155 254.667C307.818 241.184 309.735 227.767 312.875 214.64C313.785 210.93 315.341 206.068 316.552 200.955Z" fill="#FFC73C"/>
<path d="M291.818 176.29C294.333 172.072 294.903 166.806 291.61 162.742C290.103 160.884 287.44 160.677 285.16 160.633C280.678 160.551 276.185 161.026 271.818 162.042C267.66 163.015 263.413 164.654 261.61 168.844C260.274 171.958 260.739 175.558 262.504 178.404C264.104 180.988 266.761 182.906 269.731 183.61C274.52 184.747 280.125 184.594 284.695 182.682C287.56 181.48 290.125 179.12 291.818 176.29Z" fill="#EFB126"/>
<path d="M320.338 239.835C320.305 233.334 320.272 226.828 320.239 220.327C320.228 218.065 321.702 204.282 318.168 204.441C317.785 204.457 317.439 204.654 317.127 204.872C315.368 206.123 314.47 208.226 313.648 210.215C311.073 216.459 308.914 226.462 303.555 230.832C298.109 235.279 289.731 237.153 282.964 238.218C275.057 239.464 267.025 239.556 259.036 240.043C253.869 240.354 248.17 241.097 244.773 244.992C242.351 247.773 241.113 251.946 239.82 255.344C238.691 258.316 237.787 261.845 240.083 264.533C241.064 265.68 242.423 266.434 243.787 267.079C248.773 269.422 254.219 270.602 259.655 271.509C274.865 274.05 290.372 274.574 305.78 273.842C309.073 273.684 312.645 273.356 315.072 271.138C316.881 269.483 317.73 267.052 318.338 264.681C320.409 256.606 320.376 248.166 320.338 239.835Z" fill="#EFB126"/>
<path d="M247.496 128.784C241.666 134.76 246.954 149.368 256.247 147.254C266.235 144.982 264.729 129.467 255.699 126.921C252.181 125.927 249.37 126.861 247.496 128.784Z" fill="#57B8E8"/>
<path d="M327.044 210.592C332.885 211.335 339.038 210.821 344.255 208.101C350.896 204.637 354.222 198.278 354.359 190.969C354.457 185.675 353.433 180.152 350.222 175.929C346.737 171.335 340.89 168.516 338.726 163.179C337.323 159.721 337.658 155.017 340.436 152.34C342.205 150.636 343.586 148.718 343.362 146.167C343.027 142.414 340.271 138.803 337.197 136.776C332.682 133.804 327.072 132.712 321.79 132.045C318.212 131.592 314.65 130.592 313.543 126.752C312.946 124.681 313.067 122.496 312.952 120.365C312.716 115.826 312.382 111.286 311.702 106.785C310.919 101.6 307.538 96.5797 303.774 93.0069C303.231 92.4934 302.672 92.0017 302.092 91.5319C292.377 83.6871 274.399 80.9065 263.687 88.1777C260.033 90.6579 257.474 94.4492 256.663 98.7868C256.12 101.688 255.331 102.31 252.493 103.19C247.332 104.785 241.48 105.921 237.381 109.691C234.176 112.641 232.702 117.11 233.129 121.398C233.672 126.872 237.513 129.489 240.263 133.832C243.069 138.262 240.861 143.834 237.606 147.489C235.096 150.303 231.535 152.362 230.116 155.853C228.812 159.065 229.677 162.78 231.25 165.867C231.891 167.118 232.642 168.314 233.206 169.598C234.921 173.515 234.746 178.202 232.74 181.977" stroke="#0B2D4E" stroke-width="15" stroke-miterlimit="10"/>
<path d="M343.603 219.065C345.389 222.277 347.165 225.495 348.907 228.734C352.447 235.306 359.016 249.909 348.496 253.52C343.198 255.339 340.168 253.558 336.661 249.712C323.412 235.153 312.114 218.83 303.155 201.316C299.824 194.798 290.974 177.814 301.719 173.93C305.111 172.706 309.023 172.99 312.201 174.695C313.653 175.476 314.946 176.525 316.174 177.617C323.932 184.512 329.456 193.411 334.365 202.441C337.417 208.019 340.529 213.531 343.603 219.065Z" fill="#FFC73C"/>
<path d="M282.712 178.437C285.911 177.415 288.547 175.432 289.533 172.275C290.432 169.412 289.018 166.194 288.766 163.304C288.525 160.535 288.492 157.754 288.678 154.984C288.848 152.422 289.095 149.756 288.695 147.2C288.47 145.741 287.665 145.992 286.185 145.408C284.706 144.829 283.046 144.823 281.435 144.829C278.142 144.834 269.55 144.599 267.517 147.478C266.58 148.8 266.509 150.466 266.465 152.04C266.411 153.941 266.076 156.405 265.764 159.06C265.627 160.24 265.709 161.42 265.528 162.589C265.326 163.905 264.827 165.162 264.389 166.418C262.734 171.177 264.285 175.705 269.446 177.88C273.145 179.458 278.432 179.808 282.712 178.437Z" fill="#F8A17A"/>
<path d="M288.679 147.205C288.454 145.746 287.649 145.998 286.169 145.413C284.69 144.834 283.03 144.829 281.419 144.834C278.126 144.84 269.534 144.605 267.501 147.484C266.564 148.806 266.493 150.472 266.449 152.045C266.394 153.946 266.06 156.41 265.748 159.065C265.611 160.245 265.693 161.425 265.512 162.594C265.359 163.594 265.03 164.561 264.69 165.522C267.885 166.702 271.49 166.97 274.822 166.151C280.821 164.676 285.369 160.955 288.607 156.11C288.624 155.733 288.635 155.356 288.662 154.979C288.827 152.428 289.073 149.756 288.679 147.205Z" fill="#E5785C"/>
<path d="M293.463 128.451C293.435 124.064 292.827 119.907 291.698 116.448C286.816 101.54 268.165 97.858 256.932 108.56C244.406 120.491 249.201 149.024 262.395 159.043C265.924 161.72 270.713 162.665 274.997 161.518C287.956 158.054 293.545 142.152 293.463 128.451Z" fill="#F8A17A"/>
<path d="M291.008 128.822C296.745 125.692 298.514 133.613 297.523 137.557C297.117 139.185 296.471 140.775 295.457 142.114C294.093 143.916 290.186 146.91 287.939 144.938C286.92 144.042 286.816 142.523 286.783 141.168C286.701 137.53 287.118 130.942 291.008 128.822Z" fill="#F8A17A"/>
<path d="M272.317 154.913C270.909 154.913 269.495 154.809 268.076 154.602L268.328 152.886C273.479 153.646 278.613 152.93 283.183 150.816C284.421 150.242 285.473 149.641 286.399 148.975C288.076 147.762 289.517 146.183 290.563 144.402L292.064 145.277C290.897 147.265 289.292 149.03 287.424 150.379C286.41 151.111 285.265 151.767 283.922 152.389C280.3 154.061 276.355 154.913 272.317 154.913Z" fill="#2F95D2"/>
<path d="M263.047 151.515C265.145 149.718 269.808 149.876 271.348 151.739C272.488 153.121 272.142 154.875 270.882 156.044C269.397 157.426 267.562 157.344 265.71 156.929C263.397 156.405 260.521 153.679 263.047 151.515Z" fill="#2F95D2"/>
<path d="M293.49 117.066C288.35 101.371 268.712 97.4975 256.888 108.762C254.274 111.253 252.39 114.433 251.135 118.005C251.398 118.41 251.694 118.819 252.044 119.229C253.666 121.103 255.907 122.327 258.159 123.365C264.74 126.397 271.836 128.178 278.964 129.511C279.49 129.609 280.016 129.707 280.542 129.811C282.504 130.199 284.454 130.68 286.164 131.685C291.008 134.531 288.925 140.792 292.476 143.534C292.799 143.78 293.123 143.944 293.446 144.058C294.755 139.382 295.369 134.422 295.342 129.707C295.32 125.085 294.679 120.704 293.49 117.066Z" fill="#E5785C"/>
<path d="M281.057 128.014C282.931 128.707 284.778 129.494 286.307 130.756C290.635 134.334 287.578 140.185 290.641 143.457C293.358 146.358 297.479 142.523 298.558 139.846C300.547 134.913 300.432 129.423 300.284 124.102C300.202 121.136 300.114 118.131 299.243 115.296C298.29 112.204 296.438 109.445 294.235 107.069C287.868 100.218 278.258 96.6562 268.954 97.2407C261.677 97.6996 248.91 103.796 254.62 113.029C255.924 115.137 257.935 116.7 259.995 118.082C266.006 122.125 272.729 125.009 279.551 127.456C280.044 127.648 280.553 127.828 281.057 128.014Z" fill="#0B2D4E"/>
<path d="M293.419 126.566C285.32 128.636 282.192 143.851 291.227 146.877C300.936 150.133 307.769 136.11 301.397 129.243C298.909 126.566 296.027 125.899 293.419 126.566Z" fill="#57B8E8"/>
<path d="M296.075 128.522C290.487 129.418 287.04 141.261 292.804 144.517C298.996 148.019 304.804 137.475 301.166 131.401C299.741 129.03 297.873 128.232 296.075 128.522Z" fill="#2F95D2"/>
<path d="M297.204 127.631L295.045 127.38C296.508 114.755 295.884 98.6228 284.591 93.4713C279.243 91.0293 263.923 88.3252 257.183 97.3937C256.373 98.3005 255.83 99.0653 255.83 99.0653C260.011 86.2055 279.725 88.866 285.495 91.4991C297.977 97.197 298.749 114.291 297.204 127.631Z" fill="#57B8E8"/>
<path d="M420.691 252.871H115.604V274.148H420.691V252.871Z" fill="white"/>
<path d="M256.411 246.462H212.198V255.093H256.411V246.462Z" fill="#2F95D2"/>
<path d="M219.787 247.298L208.631 190.663C208.335 189.166 207.02 188.09 205.491 188.09H131.313C130.239 188.09 129.318 188.62 128.743 189.406L128.732 189.395L125.308 193.433L128.349 192.766L139.335 248.527C139.63 250.024 140.945 251.1 142.474 251.1H216.647C218.658 251.105 220.171 249.27 219.787 247.298Z" fill="#2F95D2"/>
<path d="M139.083 255.093H213.256C215.272 255.093 216.785 253.258 216.396 251.291L205.24 194.656C204.944 193.16 203.629 192.083 202.1 192.083H127.922C125.905 192.083 124.393 193.919 124.782 195.886L135.938 252.52C136.234 254.011 137.549 255.093 139.083 255.093Z" fill="#0B2D4E"/>
<path d="M162.414 222.179C163.099 225.997 166.759 229.095 170.589 229.095C174.419 229.095 176.928 225.997 176.189 222.179C175.449 218.36 171.789 215.263 168.013 215.263C164.233 215.263 161.729 218.36 162.414 222.179Z" fill="#2F95D2"/>
<path d="M375.421 221.277C376.237 219.595 376.095 217.819 375.574 216.213C375.081 214.569 374.194 213.159 373.235 211.608C372.265 210.084 371.279 208.423 370.676 206.418C370.062 204.397 370.238 202.124 370.802 200.207C372.018 196.295 374.517 193.411 376.232 190.455C377.092 188.964 377.799 187.445 378.078 185.768C378.391 184.107 378.287 182.337 377.465 180.666C378.884 181.906 379.574 183.911 379.667 185.856C379.755 187.822 379.256 189.811 378.506 191.564C377.015 195.121 374.78 198.005 373.909 201.125C373.416 202.671 373.295 204.167 373.646 205.664C373.936 207.199 374.742 208.751 375.47 210.428C376.237 212.067 376.972 213.962 377.136 215.913C377.295 217.847 376.856 220.021 375.421 221.277Z" fill="white"/>
<path d="M382.079 254.907H370.287C367.454 254.907 365.164 252.618 365.164 249.8V223.43H387.207V249.8C387.202 252.624 384.906 254.907 382.079 254.907Z" fill="#57B8E8"/>
<path d="M388.741 230.548C383.454 230.548 379.169 234.886 379.169 240.228C379.169 245.571 383.454 249.909 388.741 249.909C394.029 249.909 398.314 245.571 398.314 240.228C398.314 234.886 394.029 230.548 388.741 230.548ZM388.741 246.462C385.339 246.462 382.583 243.67 382.583 240.234C382.583 236.798 385.339 234.006 388.741 234.006C392.144 234.006 394.9 236.798 394.9 240.234C394.9 243.67 392.144 246.462 388.741 246.462Z" fill="#57B8E8"/>
<path opacity="0.2" d="M368.457 242.96C367.8 242.96 367.263 242.424 367.263 241.774V226.456C367.263 225.801 367.8 225.271 368.457 225.271C369.115 225.271 369.646 225.806 369.646 226.456V241.774C369.646 242.424 369.109 242.96 368.457 242.96Z" fill="white"/>
<path d="M382.112 223.43V249.346C382.112 252.422 379.613 254.913 376.528 254.913H381.619C384.703 254.913 387.202 252.422 387.202 249.346V223.43H382.112Z" fill="#2F95D2"/>
<path d="M328.837 108.549H405.481C409.24 108.549 412.314 105.484 412.314 101.737V60.688C412.314 56.9404 409.24 53.8757 405.481 53.8757H328.837C325.078 53.8757 322.004 56.9404 322.004 60.688V101.737C322.004 105.484 325.078 108.549 328.837 108.549Z" fill="#0098D7"/>
<path d="M333.889 122.944V97.8143L353.625 108.549L333.889 122.944Z" fill="#0098D7"/>
<path d="M378.073 83.6762H338.151C336.836 83.6762 335.757 82.6054 335.757 81.2889C335.757 79.9777 336.831 78.9016 338.151 78.9016H378.073C379.388 78.9016 380.468 79.9723 380.468 81.2889C380.462 82.6 379.388 83.6762 378.073 83.6762Z" fill="#E1F4FD"/>
<path d="M396.166 83.6762H386.298C384.983 83.6762 383.903 82.6054 383.903 81.2889C383.903 79.9777 384.977 78.9016 386.298 78.9016H396.166C397.481 78.9016 398.56 79.9723 398.56 81.2889C398.555 82.6 397.481 83.6762 396.166 83.6762Z" fill="#E1F4FD"/>
<path d="M356.244 68.0685H396.166C397.481 68.0685 398.561 69.1392 398.561 70.4558C398.561 71.7669 397.487 72.8431 396.166 72.8431H356.244C354.929 72.8431 353.85 71.7724 353.85 70.4558C353.85 69.1447 354.924 68.0685 356.244 68.0685Z" fill="#E1F4FD"/>
<path d="M338.151 68.0685H348.02C349.335 68.0685 350.414 69.1392 350.414 70.4558C350.414 71.7669 349.34 72.8431 348.02 72.8431H338.151C336.836 72.8431 335.757 71.7724 335.757 70.4558C335.757 69.1447 336.836 68.0685 338.151 68.0685Z" fill="#E1F4FD"/>
<path d="M364.764 93.575H338.151C336.836 93.575 335.757 92.5043 335.757 91.1877C335.757 89.8766 336.831 88.8004 338.151 88.8004H364.764C366.079 88.8004 367.159 89.8712 367.159 91.1877C367.159 92.5043 366.079 93.575 364.764 93.575Z" fill="#E1F4FD"/>
<path d="M291.873 242.015C292.778 241.862 293.682 241.714 294.591 241.572C299.002 240.884 303.396 240.064 307.769 239.114C316.426 237.24 325.127 235.629 333.938 234.793C334.869 234.705 335.806 234.623 336.743 234.552C340.694 234.257 344.831 234.159 348.447 236.038C352.063 237.923 354.94 242.375 354.058 246.669C353.439 249.685 351.121 251.957 348.551 253.105C345.981 254.252 343.149 254.448 340.371 254.634C331.374 255.241 322.382 255.842 313.385 256.448C308.931 256.743 304.476 257.049 300.027 257.36C295.775 257.655 291.457 258.256 287.194 258.251C285.391 258.251 283.375 257.912 281.863 256.71C279.753 255.044 278.488 251.493 278.285 248.712C278.181 247.27 278.46 245.522 279.567 244.632C280.159 244.156 280.915 244.009 281.638 243.878C285.052 243.249 288.454 242.594 291.873 242.015Z" fill="#FFC73C"/>
<path d="M281.78 255.678C279.605 256.126 277.906 258.032 275.742 258.666C274.197 259.119 272.542 258.879 271.057 258.322C269.693 257.814 268.306 257.541 266.904 257.093C265.813 256.743 264.339 256.011 263.161 256.251C260.087 256.89 257.019 259.07 254.23 260.485C253.605 260.802 252.915 261.13 252.225 260.999C251.534 260.867 250.959 260.032 251.348 259.453C250.548 260.201 249.485 261.692 248.192 261.113C247.66 260.878 247.343 260.179 247.638 259.677C247.195 260.163 246.729 260.665 246.115 260.906C245.502 261.146 244.696 261.042 244.334 260.491C244.165 260.234 244.115 259.911 244.099 259.606C244.044 258.54 244.367 257.491 244.811 256.524C247.008 251.75 251.973 248.204 256.197 245.358C256.942 244.856 257.704 244.342 258.57 244.08C259.342 243.845 260.159 243.818 260.97 243.818C266.208 243.796 271.451 244.637 276.416 246.303C277.49 246.664 278.673 246.358 279.742 246.156C280.536 246.008 281.363 245.861 282.136 246.085C283.002 246.336 283.676 247.019 284.202 247.751C285.172 249.095 285.917 250.87 285.796 252.558C285.709 253.837 285.61 255.219 284.098 255.492C283.484 255.601 282.854 255.536 282.235 255.596C282.081 255.623 281.933 255.645 281.78 255.678Z" fill="#F8A17A"/>
</svg>
