<svg width="266" height="169" viewBox="0 0 266 169" fill="none" xmlns="http://www.w3.org/2000/svg">
<path d="M68.6161 152.03C63.0793 150.095 57.0103 150.651 51.1244 150.57C45.242 150.489 36.0624 149.555 33.847 143.182C31.5037 136.438 34.9012 129.445 34.9288 122.63C34.9357 120.765 34.7353 118.877 34.0751 117.127C30.9922 108.93 20.6652 106.944 17.0466 98.7734C14.3439 92.6701 15.7402 85.3833 19.2931 79.7116C22.3795 74.7852 26.9036 70.9108 31.6869 67.5995C36.0452 64.585 39.3769 59.7125 41.0842 54.7591C44.2743 45.5098 42.3146 35.3939 45.8918 26.3739C49.0956 18.2946 55.2303 11.4495 62.8927 7.83478C76.2611 1.52245 92.0627 7.13678 101.595 17.9338C106.706 23.7235 114.054 27.0853 121.533 27.6822C136.06 28.8421 151.191 21.1406 164.649 29.8335C171.51 34.2643 176.355 42.1209 177.865 50.4126C178.716 55.0828 178.619 60.279 176.77 64.6862C174.952 69.0259 171.817 72.5631 169.121 76.3127C164.646 82.5407 162.195 90.8661 166.381 97.8832C168.212 100.952 170.856 103.46 173.366 106.03C179.787 112.612 182.165 122.3 179.953 131.073C177.444 141.034 169.488 147.573 159.13 148.824C151.464 149.751 142.975 148.54 136.025 152.492" stroke="#DFF3FD" stroke-width="10" stroke-miterlimit="10"/>
<path d="M193.299 60.8865H178.23V168.994H193.299V60.8865Z" fill="#DEF2FC"/>
<path d="M175.027 94.0696H155.451V169H175.027V94.0696Z" fill="#C2E7FA"/>
<path d="M203.093 116.377H184.088V169H203.093V116.377Z" fill="#DEF2FC"/>
<path d="M190.464 55.6085H178.226V60.8923H190.464V55.6085Z" fill="#DEF2FC"/>
<path d="M188.242 50.3248H178.23V55.6085H188.242V50.3248Z" fill="#DEF2FC"/>
<path d="M186.118 45.0411H178.23V50.3248H186.118V45.0411Z" fill="#DEF2FC"/>
<path d="M133.805 60.8866H118.736V168.994H133.805V60.8866Z" fill="#C2E7FA"/>
<path d="M175.027 25.886H159.958V168.994H175.027V25.886Z" fill="#C2E7FA"/>
<path d="M118.736 127.16H88.5936V168.994H118.736V127.16Z" fill="#C2E7FA"/>
<path d="M156.548 9.01295H126.271V169H156.548V9.01295Z" fill="#C2E7FA"/>
<path d="M130.971 55.6086H118.732V60.8923H130.971V55.6086Z" fill="#C2E7FA"/>
<path d="M128.748 50.3248H118.736V55.6085H128.748V50.3248Z" fill="#C2E7FA"/>
<path d="M126.624 45.0411H118.736V50.3248H126.624V45.0411Z" fill="#C2E7FA"/>
<path d="M104.931 60.8866H89.8615V168.994H104.931V60.8866Z" fill="#C2E7FA"/>
<path d="M120 79.1648H104.931V169H120V79.1648Z" fill="#C2E7FA"/>
<path d="M89.8615 36.6451H67.1191V168.994H89.8615V36.6451Z" fill="#C2E7FA"/>
<path d="M102.096 55.6086H89.8579V60.8923H102.096V55.6086Z" fill="#C2E7FA"/>
<path d="M99.8737 50.3248H89.8615V55.6086H99.8737V50.3248Z" fill="#C2E7FA"/>
<path d="M97.7496 45.0411H89.8615V50.3248H97.7496V45.0411Z" fill="#C2E7FA"/>
<path d="M45.437 60.8866H30.3677V168.994H45.437V60.8866Z" fill="#C2E7FA"/>
<path d="M30.3677 79.1648H15.2984V169H30.3677V79.1648Z" fill="#C2E7FA"/>
<path d="M64.055 64.1787H48.9857V169H64.055V64.1787Z" fill="#C2E7FA"/>
<path d="M15.2948 116.807H0.225464V168.994H15.2948V116.807Z" fill="#DEF2FC"/>
<path d="M68.1794 90.069H37.9023V169H68.1794V90.069Z" fill="#C2E7FA"/>
<path d="M42.6024 55.6086H30.3641V60.8923H42.6024V55.6086Z" fill="#C2E7FA"/>
<path d="M26.3235 146.1H14.0851V151.384H26.3235V146.1Z" fill="#C2E7FA"/>
<path d="M40.3799 50.3249H30.3677V55.6086H40.3799V50.3249Z" fill="#C2E7FA"/>
<path d="M38.2557 45.0411H30.3677V50.3248H38.2557V45.0411Z" fill="#C2E7FA"/>
<path d="M115.242 89.2968H95.4287V94.5805H115.242V89.2968Z" fill="#C2E7FA"/>
<path d="M115.242 108.231H95.4287V113.515H115.242V108.231Z" fill="#C2E7FA"/>
<path d="M115.242 127.16H95.4287V132.443H115.242V127.16Z" fill="#C2E7FA"/>
<path d="M39.3051 127.16H19.492V132.443H39.3051V127.16Z" fill="#C2E7FA"/>
<path d="M39.3051 146.1H19.492V151.384H39.3051V146.1Z" fill="#C2E7FA"/>
<path d="M207.54 132.321C202.145 134.182 195.637 133.993 190.725 130.921C185.901 127.9 181.501 125.718 175.563 125.826C170.258 125.921 165.869 128.719 160.729 129.316C156.654 129.788 152.514 128.055 149.559 125.273C146.677 122.559 144.762 118.421 146.013 114.709C146.67 112.763 148.104 111.161 148.923 109.276C150.81 104.93 145.84 102.31 147.074 97.7342C148.125 93.843 152.5 91.0679 152.438 87.0451C152.39 84.1014 150.053 81.8185 149.231 79.094C148.401 76.3458 148.584 73.2672 150.05 70.7551C151.125 68.9106 152.856 67.4 154.857 66.5671C156.658 65.8185 158.666 65.8051 160.059 64.2708C162.537 61.5361 163.449 58.5755 166.85 56.576C169.729 54.8832 173.534 54.7753 176.838 55.0721C184.179 55.7296 191.306 59.5096 195.443 65.5319C196.908 67.6664 197.966 69.8514 198.004 72.3871C198.046 75.1589 198.042 77.9475 199.784 80.3045C201.246 82.2839 203.593 83.4405 205.919 84.334C208.245 85.2276 210.685 85.9492 212.727 87.3553C214.77 88.7614 216.391 91.0577 216.152 93.4856C215.952 95.5189 214.511 97.2858 214.317 99.3191C213.968 103.015 217.618 105.702 219.868 108.697C223.02 112.888 223.542 118.816 221.171 123.469C218.44 128.827 213.481 130.038 208.283 132.054C208.041 132.142 207.792 132.233 207.54 132.321Z" fill="#0B2D4E"/>
<path d="M168.309 63.1985C170.092 62.1802 172.166 61.7148 174.229 61.6339C176.296 61.5563 178.37 61.816 180.378 62.3049C184.404 63.2929 188.071 65.6331 190.629 68.8499C191.894 70.4685 192.872 72.3062 193.452 74.2687C194.036 76.2379 194.154 78.2948 194.13 80.3112C194.109 82.3311 193.96 84.3374 194.029 86.3235C194.071 87.3081 194.199 88.2927 194.506 89.2133C194.807 90.1304 195.332 90.9768 196.11 91.5264C196.877 92.0929 197.859 92.3323 198.854 92.4503C199.853 92.565 200.893 92.5717 201.93 92.7066C203.987 92.9764 206.078 93.4552 207.871 94.605C208.753 95.1783 209.544 95.9774 209.928 96.989C210.325 97.9972 210.246 99.0999 209.98 100.108C209.669 101.126 209.078 101.98 208.666 102.87C208.255 103.76 207.989 104.718 207.899 105.695C207.709 107.658 208.224 109.627 208.943 111.492C209.644 113.37 210.491 115.221 210.982 117.194C211.224 118.178 211.369 119.193 211.355 120.208C211.341 121.223 211.151 122.235 210.813 123.189C210.135 125.101 208.86 126.801 207.211 128.001C208.832 126.76 210.056 125.044 210.678 123.142C211.328 121.237 211.241 119.173 210.705 117.258C210.19 115.326 209.333 113.498 208.597 111.617C207.851 109.745 207.28 107.722 207.453 105.655C207.533 104.63 207.799 103.615 208.22 102.671C208.649 101.73 209.223 100.89 209.496 99.9698C209.734 99.0392 209.8 98.0512 209.444 97.1711C209.105 96.291 208.4 95.5728 207.578 95.04C205.908 93.9711 203.869 93.5024 201.868 93.2529C200.866 93.1247 199.839 93.1247 198.792 93.0101C197.755 92.8921 196.66 92.6459 195.764 91.9918C194.869 91.3477 194.285 90.38 193.967 89.392C193.639 88.3972 193.518 87.3654 193.476 86.3471C193.418 84.3138 193.573 82.3075 193.601 80.3079C193.632 78.3117 193.525 76.3121 192.968 74.4069C192.409 72.5085 191.486 70.7112 190.276 69.1197C187.826 65.9534 184.259 63.6099 180.312 62.5814C178.342 62.0554 176.292 61.7519 174.239 61.7823C172.186 61.8059 170.116 62.2206 168.309 63.1985Z" fill="#73B8D4"/>
<path d="M194.282 107.759C194.472 112.301 193.394 115.714 189.136 117.963C185.745 119.753 181.681 120.34 177.938 120.431C171.661 120.583 164.666 119.001 159.969 114.699C159.115 113.916 158.3 112.962 158.237 111.822C158.182 110.787 158.766 109.813 158.818 108.774C158.904 107.027 157.512 105.581 156.89 103.942C156.067 101.777 156.627 99.3595 157.363 97.1644C158.103 94.9692 159.025 92.7538 158.915 90.4474C158.77 87.4565 156.928 84.8432 155.452 82.2164C153.976 79.5897 152.815 76.393 154.076 73.6617C154.906 71.8611 156.89 70.4786 158.915 70.2594C161.054 70.0268 162.976 72.4141 164.348 73.7258C166.194 75.4927 168.246 77.0539 170.455 78.3623C173.51 80.173 176.866 81.5083 179.742 83.5821C181.48 84.8364 183.346 86.5595 184.179 88.5591C185.116 90.8116 183.478 92.9932 185.458 95.0636C186.737 96.3989 188.7 96.8541 190.245 97.8893C193.559 100.091 194.13 104.171 194.282 107.759Z" fill="#061F33"/>
<path d="M159.613 133.18C164.02 126.554 166.764 118.421 162.934 110.939C162.547 110.18 162.081 109.354 161.255 109.084C159.482 108.508 157.076 109.128 155.535 110.012C150.185 113.07 146.915 118.833 143.908 123.958C140.787 129.282 138.074 134.826 134.939 140.143C133.668 142.298 132.385 144.48 131.704 146.874C131.107 148.971 131.041 151.372 131.856 153.426C135.378 162.297 145.059 151.429 148.007 148.149C152.213 143.462 156.14 138.404 159.613 133.18Z" fill="#EFB126"/>
<path d="M199.497 125.765C200.766 120.532 201.422 115.177 198.55 111.61C197.254 109.998 194.942 108.879 193.051 108.083C189.364 106.528 185.593 104.438 181.646 103.76C177.485 103.045 172.857 102.603 168.706 103.628C166.073 104.276 163.608 105.48 161.251 106.774C159.209 107.897 156.699 108.868 155.708 110.959C153.302 116.031 151.17 121.321 149.397 126.632C147.914 131.076 146.289 135.736 148.622 140.241C149.379 141.701 150.478 142.949 151.342 144.345C152.307 145.899 152.666 147.359 152.791 149.15C153.077 153.24 152.967 157.34 152.953 161.434C152.95 162.614 152.967 163.842 153.496 164.9C154.539 166.991 157.377 167.021 159.419 167.018C166.156 167.008 172.892 166.994 179.628 166.984C182.431 166.981 184.573 167.315 187.204 167.841C189.419 168.286 191.32 167.193 192.381 165.184C193.387 163.282 193.463 161.06 193.57 158.919C193.988 150.597 195.198 142.315 197.178 134.212C197.752 131.923 198.733 128.922 199.497 125.765Z" fill="#FFC73C"/>
<path d="M183.896 110.541C185.482 107.938 185.842 104.687 183.765 102.179C182.814 101.032 181.135 100.904 179.697 100.877C176.87 100.826 174.036 101.12 171.281 101.747C168.658 102.347 165.979 103.359 164.842 105.945C163.999 107.867 164.293 110.089 165.406 111.846C166.415 113.441 168.091 114.624 169.964 115.059C172.985 115.761 176.521 115.666 179.403 114.486C181.211 113.744 182.828 112.288 183.896 110.541Z" fill="#EFB126"/>
<path d="M201.885 149.764C201.865 145.751 201.844 141.735 201.823 137.722C201.816 136.326 202.746 127.819 200.517 127.917C200.275 127.927 200.057 128.048 199.86 128.183C198.751 128.955 198.184 130.253 197.665 131.481C196.041 135.335 194.679 141.509 191.299 144.207C187.864 146.951 182.579 148.108 178.311 148.766C173.324 149.534 168.257 149.592 163.218 149.892C159.959 150.084 156.364 150.543 154.221 152.947C152.694 154.663 151.913 157.239 151.097 159.337C150.385 161.171 149.815 163.349 151.263 165.008C151.882 165.716 152.739 166.182 153.599 166.58C156.744 168.026 160.18 168.755 163.608 169.314C173.203 170.882 182.984 171.206 192.702 170.754C194.779 170.656 197.033 170.454 198.564 169.085C199.705 168.063 200.24 166.563 200.624 165.099C201.93 160.116 201.91 154.906 201.885 149.764Z" fill="#EFB126"/>
<path d="M155.939 81.2183C152.262 84.9072 155.597 93.9239 161.459 92.6189C167.759 91.2162 166.809 81.6398 161.113 80.0685C158.894 79.4548 157.121 80.0314 155.939 81.2183Z" fill="#57B8E8"/>
<path d="M206.116 131.714C209.8 132.172 213.681 131.855 216.972 130.176C221.16 128.038 223.258 124.113 223.345 119.601C223.407 116.334 222.761 112.925 220.735 110.318C218.537 107.483 214.849 105.743 213.484 102.448C212.599 100.314 212.81 97.4105 214.563 95.7583C215.679 94.7062 216.55 93.5227 216.408 91.9479C216.197 89.6314 214.459 87.4025 212.52 86.1515C209.672 84.3172 206.133 83.6428 202.801 83.2314C200.544 82.9515 198.298 82.3345 197.6 79.964C197.223 78.686 197.299 77.3372 197.226 76.0221C197.078 73.22 196.867 70.4179 196.438 67.6394C195.944 64.4394 193.812 61.3406 191.437 59.1353C191.095 58.8184 190.743 58.5149 190.376 58.2249C184.249 53.3827 172.909 51.6664 166.152 56.1545C163.847 57.6854 162.233 60.0255 161.721 62.7029C161.379 64.4934 160.881 64.8778 159.091 65.4207C155.835 66.4053 152.144 67.1067 149.559 69.4333C147.537 71.2542 146.607 74.0124 146.877 76.6594C147.219 80.0382 149.642 81.6533 151.377 84.334C153.146 87.0687 151.754 90.5081 149.701 92.764C148.118 94.5005 145.871 95.7718 144.976 97.9265C144.154 99.9092 144.7 102.202 145.692 104.107C146.096 104.879 146.569 105.618 146.925 106.41C148.007 108.828 147.897 111.721 146.632 114.051" stroke="#0B2D4E" stroke-width="15" stroke-miterlimit="10"/>
<path d="M216.56 136.944C217.687 138.926 218.807 140.912 219.906 142.912C222.139 146.968 226.282 155.982 219.647 158.211C216.305 159.333 214.393 158.234 212.181 155.86C203.824 146.874 196.698 136.799 191.047 125.988C188.945 121.965 183.364 111.482 190.141 109.084C192.281 108.329 194.748 108.504 196.753 109.556C197.669 110.039 198.484 110.686 199.259 111.36C204.153 115.616 207.636 121.109 210.733 126.683C212.658 130.125 214.621 133.528 216.56 136.944Z" fill="#FFC73C"/>
<path d="M178.152 111.866C180.17 111.236 181.833 110.012 182.455 108.063C183.022 106.296 182.13 104.31 181.971 102.526C181.819 100.816 181.798 99.0999 181.916 97.3903C182.023 95.8089 182.178 94.1633 181.926 92.5853C181.784 91.685 181.276 91.8401 180.343 91.4793C179.41 91.1218 178.363 91.1185 177.347 91.1218C175.269 91.1252 169.85 90.9802 168.568 92.7572C167.977 93.5732 167.932 94.6017 167.904 95.5728C167.87 96.7463 167.659 98.267 167.462 99.9058C167.376 100.634 167.427 101.362 167.313 102.084C167.185 102.897 166.871 103.672 166.594 104.448C165.551 107.385 166.529 110.18 169.784 111.522C172.117 112.497 175.453 112.713 178.152 111.866Z" fill="#F8A17A"/>
<path d="M181.916 92.5886C181.774 91.6883 181.266 91.8434 180.333 91.4826C179.4 91.1252 178.352 91.1218 177.336 91.1252C175.259 91.1286 169.84 90.9836 168.558 92.7606C167.967 93.5766 167.922 94.6051 167.894 95.5762C167.859 96.7496 167.649 98.2704 167.452 99.9091C167.365 100.637 167.417 101.366 167.303 102.087C167.206 102.704 166.999 103.301 166.785 103.895C168.799 104.623 171.074 104.788 173.175 104.283C176.959 103.372 179.828 101.076 181.871 98.0849C181.881 97.8523 181.888 97.6196 181.905 97.3869C182.009 95.8122 182.164 94.1633 181.916 92.5886Z" fill="#E5785C"/>
<path d="M184.933 81.0126C184.916 78.3049 184.532 75.7389 183.82 73.6044C180.741 64.4023 168.976 62.1296 161.891 68.7353C153.99 76.0997 157.014 93.7115 165.336 99.8957C167.562 101.548 170.583 102.131 173.286 101.423C181.459 99.2853 184.985 89.4695 184.933 81.0126Z" fill="#F8A17A"/>
<path d="M183.384 81.2419C187.003 79.3098 188.119 84.1991 187.494 86.6337C187.238 87.6386 186.83 88.6198 186.191 89.4459C185.33 90.5587 182.866 92.4065 181.449 91.1892C180.806 90.6362 180.741 89.6988 180.72 88.8626C180.668 86.6168 180.931 82.5502 183.384 81.2419Z" fill="#F8A17A"/>
<path d="M171.596 97.3464C170.707 97.3464 169.816 97.2824 168.92 97.1542L169.079 96.0954C172.328 96.5641 175.567 96.1224 178.449 94.8175C179.23 94.4634 179.894 94.0925 180.478 93.6811C181.535 92.9325 182.444 91.958 183.105 90.8588L184.052 91.3983C183.315 92.6257 182.303 93.7148 181.124 94.5477C180.485 94.9996 179.762 95.4042 178.916 95.7886C176.631 96.8204 174.143 97.3464 171.596 97.3464Z" fill="#2F95D2"/>
<path d="M165.748 95.2491C167.071 94.1397 170.013 94.2375 170.984 95.3873C171.703 96.2405 171.485 97.3229 170.69 98.0445C169.753 98.8976 168.596 98.847 167.427 98.5907C165.969 98.267 164.154 96.5844 165.748 95.2491Z" fill="#2F95D2"/>
<path d="M184.95 73.9855C181.708 64.2978 169.321 61.9071 161.863 68.8601C160.214 70.3977 159.025 72.3602 158.234 74.5654C158.4 74.815 158.587 75.0679 158.808 75.3208C159.831 76.4774 161.244 77.2327 162.665 77.8734C166.816 79.7448 171.291 80.8441 175.788 81.6668C176.12 81.7275 176.451 81.7882 176.783 81.8523C178.021 82.0917 179.251 82.3884 180.329 83.0089C183.385 84.7657 182.071 88.63 184.311 90.3227C184.515 90.4744 184.719 90.5756 184.923 90.6464C185.749 87.76 186.136 84.6982 186.118 81.7882C186.105 78.9355 185.7 76.2312 184.95 73.9855Z" fill="#E5785C"/>
<path d="M177.108 80.7429C178.29 81.1711 179.455 81.6567 180.419 82.4356C183.15 84.6443 181.221 88.2556 183.153 90.2754C184.867 92.066 187.466 89.6988 188.147 88.0466C189.402 85.0017 189.329 81.6129 189.236 78.3286C189.184 76.4976 189.129 74.643 188.579 72.8929C187.978 70.9844 186.81 69.2816 185.42 67.8148C181.404 63.5863 175.342 61.3878 169.473 61.7486C164.884 62.0318 156.831 65.795 160.432 71.4936C161.255 72.7952 162.523 73.7595 163.823 74.6127C167.614 77.1079 171.855 78.8883 176.158 80.3989C176.469 80.517 176.79 80.6282 177.108 80.7429Z" fill="#0B2D4E"/>
<path d="M184.905 79.8493C179.797 81.1273 177.824 90.5182 183.523 92.3863C189.647 94.396 193.957 85.7401 189.937 81.5015C188.368 79.8493 186.55 79.4379 184.905 79.8493Z" fill="#57B8E8"/>
<path d="M186.581 81.0565C183.056 81.6095 180.882 88.9199 184.518 90.9296C188.424 93.0911 192.087 86.5831 189.792 82.8335C188.894 81.3701 187.715 80.8778 186.581 81.0565Z" fill="#2F95D2"/>
<path d="M187.293 80.5068L185.932 80.3517C186.854 72.5591 186.461 62.6017 179.337 59.4219C175.964 57.9146 166.301 56.2455 162.05 61.843C161.538 62.4027 161.196 62.8748 161.196 62.8748C163.833 54.9372 176.268 56.5793 179.908 58.2046C187.781 61.7216 188.268 72.2725 187.293 80.5068Z" fill="#57B8E8"/>
<path d="M265.185 157.81H72.7457V170.943H265.185V157.81Z" fill="white"/>
<path d="M161.562 153.854H133.674V159.182H161.562V153.854Z" fill="#2F95D2"/>
<path d="M138.461 154.37L131.425 119.413C131.238 118.489 130.408 117.824 129.444 117.824H82.6546C81.9772 117.824 81.3966 118.151 81.0337 118.637L81.0267 118.63L78.8666 121.122L80.7848 120.711L87.7144 155.129C87.9011 156.052 88.7305 156.717 89.6948 156.717H136.481C137.749 156.72 138.703 155.587 138.461 154.37Z" fill="#2F95D2"/>
<path d="M87.5554 159.182H134.342C135.613 159.182 136.567 158.049 136.322 156.835L129.285 121.878C129.099 120.954 128.269 120.289 127.305 120.289H80.5152C79.2433 120.289 78.2894 121.422 78.5348 122.636L85.5716 157.593C85.7582 158.514 86.5877 159.182 87.5554 159.182Z" fill="#0B2D4E"/>
<path d="M102.272 138.866C102.704 141.223 105.012 143.134 107.428 143.134C109.844 143.134 111.427 141.223 110.961 138.866C110.494 136.509 108.185 134.597 105.804 134.597C103.419 134.597 101.84 136.509 102.272 138.866Z" fill="#2F95D2"/>
<path d="M236.63 138.309C237.145 137.271 237.055 136.175 236.727 135.183C236.416 134.168 235.856 133.298 235.251 132.341C234.639 131.4 234.017 130.375 233.637 129.137C233.25 127.89 233.361 126.487 233.717 125.303C234.484 122.889 236.06 121.109 237.142 119.284C237.684 118.364 238.13 117.427 238.306 116.391C238.503 115.366 238.438 114.274 237.919 113.242C238.814 114.007 239.25 115.245 239.309 116.445C239.364 117.659 239.049 118.887 238.576 119.969C237.636 122.164 236.226 123.945 235.676 125.87C235.365 126.824 235.289 127.748 235.51 128.672C235.694 129.62 236.202 130.577 236.661 131.612C237.145 132.624 237.608 133.794 237.712 134.998C237.812 136.192 237.536 137.534 236.63 138.309Z" fill="white"/>
<path d="M240.829 159.067H233.392C231.605 159.067 230.16 157.654 230.16 155.914V139.638H244.064V155.914C244.061 157.657 242.613 159.067 240.829 159.067Z" fill="#57B8E8"/>
<path d="M245.032 144.031C241.697 144.031 238.994 146.709 238.994 150.006C238.994 153.304 241.697 155.982 245.032 155.982C248.367 155.982 251.07 153.304 251.07 150.006C251.07 146.709 248.367 144.031 245.032 144.031ZM245.032 153.854C242.886 153.854 241.147 152.131 241.147 150.01C241.147 147.889 242.886 146.166 245.032 146.166C247.178 146.166 248.917 147.889 248.917 150.01C248.917 152.131 247.178 153.854 245.032 153.854Z" fill="#57B8E8"/>
<path opacity="0.2" d="M232.237 151.692C231.823 151.692 231.484 151.362 231.484 150.961V141.506C231.484 141.101 231.823 140.774 232.237 140.774C232.652 140.774 232.987 141.104 232.987 141.506V150.961C232.987 151.362 232.649 151.692 232.237 151.692Z" fill="white"/>
<path d="M240.85 139.638V155.634C240.85 157.533 239.274 159.07 237.328 159.07H240.539C242.485 159.07 244.061 157.533 244.061 155.634V139.638H240.85Z" fill="#2F95D2"/>
<path d="M207.246 68.7286H255.591C257.962 68.7286 259.901 66.8369 259.901 64.5237V39.1867C259.901 36.8735 257.962 34.9819 255.591 34.9819H207.246C204.875 34.9819 202.936 36.8735 202.936 39.1867V64.5237C202.936 66.8369 204.875 68.7286 207.246 68.7286Z" fill="#0098D7"/>
<path d="M210.432 77.6137V62.1026L222.882 68.7285L210.432 77.6137Z" fill="#0098D7"/>
<path d="M238.303 53.376H213.121C212.292 53.376 211.611 52.7151 211.611 51.9024C211.611 51.0931 212.288 50.4289 213.121 50.4289H238.303C239.132 50.4289 239.813 51.0898 239.813 51.9024C239.81 52.7117 239.132 53.376 238.303 53.376Z" fill="#E1F4FD"/>
<path d="M249.715 53.376H243.491C242.661 53.376 241.98 52.7151 241.98 51.9024C241.98 51.0931 242.658 50.4289 243.491 50.4289H249.715C250.545 50.4289 251.226 51.0898 251.226 51.9024C251.222 52.7117 250.545 53.376 249.715 53.376Z" fill="#E1F4FD"/>
<path d="M224.534 43.7422H249.715C250.545 43.7422 251.226 44.4032 251.226 45.2158C251.226 46.0251 250.548 46.6894 249.715 46.6894H224.534C223.704 46.6894 223.023 46.0284 223.023 45.2158C223.023 44.4065 223.701 43.7422 224.534 43.7422Z" fill="#E1F4FD"/>
<path d="M213.121 43.7422H219.346C220.175 43.7422 220.856 44.4032 220.856 45.2158C220.856 46.0251 220.179 46.6894 219.346 46.6894H213.121C212.292 46.6894 211.611 46.0284 211.611 45.2158C211.611 44.4065 212.292 43.7422 213.121 43.7422Z" fill="#E1F4FD"/>
<path d="M229.908 59.486H213.121C212.292 59.486 211.611 58.8251 211.611 58.0124C211.611 57.2032 212.288 56.5389 213.121 56.5389H229.908C230.737 56.5389 231.418 57.1998 231.418 58.0124C231.418 58.8251 230.737 59.486 229.908 59.486Z" fill="#E1F4FD"/>
<path d="M183.931 151.109C184.501 151.015 185.071 150.924 185.645 150.836C188.427 150.411 191.199 149.905 193.957 149.319C199.418 148.162 204.906 147.167 210.464 146.651C211.051 146.597 211.642 146.547 212.233 146.503C214.725 146.321 217.334 146.26 219.616 147.42C221.897 148.584 223.711 151.332 223.155 153.982C222.764 155.843 221.302 157.246 219.681 157.954C218.06 158.662 216.273 158.784 214.521 158.898C208.846 159.273 203.175 159.644 197.499 160.018C194.69 160.2 191.88 160.389 189.073 160.581C186.391 160.763 183.668 161.134 180.979 161.131C179.842 161.131 178.57 160.922 177.616 160.18C176.286 159.151 175.487 156.959 175.359 155.243C175.294 154.353 175.47 153.274 176.168 152.724C176.541 152.431 177.018 152.34 177.474 152.259C179.628 151.871 181.774 151.467 183.931 151.109Z" fill="#FFC73C"/>
<path d="M177.564 159.542C176.192 159.819 175.121 160.996 173.756 161.387C172.781 161.667 171.737 161.518 170.801 161.174C169.94 160.861 169.066 160.692 168.181 160.416C167.493 160.2 166.563 159.748 165.82 159.896C163.881 160.291 161.946 161.636 160.187 162.51C159.793 162.705 159.357 162.908 158.922 162.827C158.486 162.746 158.123 162.23 158.369 161.872C157.864 162.334 157.194 163.255 156.378 162.898C156.043 162.753 155.842 162.321 156.029 162.011C155.749 162.311 155.455 162.621 155.068 162.769C154.681 162.918 154.173 162.854 153.945 162.513C153.838 162.355 153.807 162.156 153.796 161.967C153.762 161.309 153.966 160.662 154.246 160.065C155.632 157.118 158.763 154.93 161.428 153.173C161.898 152.863 162.378 152.546 162.924 152.384C163.411 152.239 163.926 152.222 164.438 152.222C167.742 152.208 171.049 152.728 174.181 153.756C174.858 153.979 175.605 153.79 176.279 153.665C176.78 153.574 177.302 153.483 177.789 153.621C178.335 153.776 178.76 154.198 179.092 154.65C179.704 155.479 180.174 156.575 180.098 157.617C180.042 158.406 179.98 159.259 179.026 159.428C178.639 159.495 178.242 159.455 177.851 159.492C177.754 159.509 177.661 159.522 177.564 159.542Z" fill="#F8A17A"/>
</svg>
