<svg width="366" height="236" viewBox="0 0 366 236" fill="none" xmlns="http://www.w3.org/2000/svg">
<path d="M94.2517 212.11C86.6218 209.385 78.2583 210.168 70.1474 210.054C62.0411 209.94 49.3912 208.625 46.3383 199.653C43.1091 190.159 47.7909 180.313 47.829 170.719C47.8386 168.094 47.5623 165.436 46.6526 162.972C42.4042 151.432 28.1731 148.636 23.1865 137.133C19.462 128.541 21.3862 118.283 26.2823 110.298C30.5354 103.362 36.7699 97.908 43.3616 93.2463C49.3674 89.0023 53.9587 82.1427 56.3115 75.1692C60.7075 62.1478 58.0071 47.9064 62.9365 35.2079C67.3516 23.8338 75.8055 14.1971 86.3646 9.10817C104.787 0.221543 126.562 8.12551 139.698 23.3258C146.742 31.4766 156.868 36.2095 167.174 37.0498C187.192 38.6828 208.044 27.8403 226.59 40.0784C236.044 46.3162 242.721 57.377 244.803 69.0502C245.974 75.6249 245.841 82.9403 243.293 89.1448C240.788 95.2543 236.468 100.234 232.753 105.513C226.585 114.281 223.208 126.001 228.976 135.88C231.5 140.2 235.144 143.732 238.602 147.349C247.451 156.616 250.728 170.254 247.679 182.606C244.222 196.629 233.258 205.834 218.984 207.595C208.42 208.901 196.723 207.196 187.145 212.76" stroke="#DFF3FD" stroke-width="10" stroke-miterlimit="10"/>
<path d="M266.071 83.7956H245.305V235.992H266.071V83.7956Z" fill="#DEF2FC"/>
<path d="M240.891 130.511H213.914V236H240.891V130.511Z" fill="#C2E7FA"/>
<path d="M279.567 161.917H253.378V236H279.567V161.917Z" fill="#DEF2FC"/>
<path d="M262.165 76.3651H245.3V83.8037H262.165V76.3651Z" fill="#DEF2FC"/>
<path d="M259.102 68.9265H245.305V76.3651H259.102V68.9265Z" fill="#DEF2FC"/>
<path d="M256.175 61.488H245.305V68.9266H256.175V61.488Z" fill="#DEF2FC"/>
<path d="M184.085 83.7956H163.318V235.992H184.085V83.7956Z" fill="#C2E7FA"/>
<path d="M240.891 34.5211H220.125V235.992H240.891V34.5211Z" fill="#C2E7FA"/>
<path d="M163.319 177.096H121.781V235.992H163.319V177.096Z" fill="#C2E7FA"/>
<path d="M215.425 10.7668H173.702V236H215.425V10.7668Z" fill="#C2E7FA"/>
<path d="M180.178 76.3651H163.313V83.8037H180.178V76.3651Z" fill="#C2E7FA"/>
<path d="M177.116 68.9265H163.318V76.3651H177.116V68.9265Z" fill="#C2E7FA"/>
<path d="M174.189 61.488H163.318V68.9266H174.189V61.488Z" fill="#C2E7FA"/>
<path d="M144.295 83.7956H123.528V235.992H144.295V83.7956Z" fill="#C2E7FA"/>
<path d="M165.061 109.528H144.295V236H165.061V109.528Z" fill="#C2E7FA"/>
<path d="M123.529 49.668H92.1885V235.992H123.529V49.668Z" fill="#C2E7FA"/>
<path d="M140.388 76.3651H123.523V83.8037H140.388V76.3651Z" fill="#C2E7FA"/>
<path d="M137.326 68.9265H123.528V76.3651H137.326V68.9265Z" fill="#C2E7FA"/>
<path d="M134.398 61.488H123.528V68.9266H134.398V61.488Z" fill="#C2E7FA"/>
<path d="M62.3092 83.7956H41.543V235.992H62.3092V83.7956Z" fill="#C2E7FA"/>
<path d="M41.5436 109.528H20.7773V236H41.5436V109.528Z" fill="#C2E7FA"/>
<path d="M87.9664 88.4303H67.2002V236H87.9664V88.4303Z" fill="#C2E7FA"/>
<path d="M20.7721 162.522H0.00585938V235.992H20.7721V162.522Z" fill="#DEF2FC"/>
<path d="M93.65 124.879H51.9268V236H93.65V124.879Z" fill="#C2E7FA"/>
<path d="M58.4031 76.3651H41.5381V83.8037H58.4031V76.3651Z" fill="#C2E7FA"/>
<path d="M35.9705 203.761H19.1055V211.199H35.9705V203.761Z" fill="#C2E7FA"/>
<path d="M55.3403 68.9266H41.543V76.3651H55.3403V68.9266Z" fill="#C2E7FA"/>
<path d="M52.4131 61.488H41.543V68.9266H52.4131V61.488Z" fill="#C2E7FA"/>
<path d="M158.504 123.792H131.2V131.231H158.504V123.792Z" fill="#C2E7FA"/>
<path d="M158.504 150.448H131.2V157.887H158.504V150.448Z" fill="#C2E7FA"/>
<path d="M158.504 177.096H131.2V184.535H158.504V177.096Z" fill="#C2E7FA"/>
<path d="M53.859 177.096H26.5557V184.535H53.859V177.096Z" fill="#C2E7FA"/>
<path d="M53.859 203.761H26.5557V211.199H53.859V203.761Z" fill="#C2E7FA"/>
<path d="M285.695 184.362C278.26 186.982 269.292 186.716 262.524 182.392C255.875 178.138 249.812 175.067 241.63 175.219C234.319 175.352 228.27 179.292 221.188 180.132C215.573 180.797 209.867 178.357 205.795 174.44C201.823 170.619 199.184 164.794 200.908 159.568C201.813 156.828 203.79 154.574 204.919 151.92C207.519 145.801 200.67 142.112 202.37 135.671C203.818 130.192 209.848 126.285 209.762 120.622C209.696 116.478 206.476 113.264 205.342 109.428C204.199 105.559 204.452 101.225 206.471 97.6887C207.952 95.0921 210.339 92.9653 213.096 91.7928C215.578 90.7389 218.345 90.7199 220.264 88.56C223.679 84.7101 224.936 80.5421 229.623 77.727C233.59 75.344 238.834 75.1921 243.387 75.6098C253.503 76.5355 263.324 81.8571 269.025 90.3354C271.045 93.3404 272.502 96.4165 272.555 99.9863C272.612 103.888 272.607 107.814 275.007 111.133C277.022 113.919 280.256 115.547 283.461 116.805C286.667 118.063 290.029 119.079 292.844 121.059C295.659 123.038 297.892 126.271 297.564 129.689C297.288 132.552 295.301 135.039 295.035 137.902C294.554 143.105 299.583 146.888 302.684 151.103C307.027 157.004 307.747 165.35 304.479 171.901C300.717 179.444 293.882 181.148 286.719 183.987C286.386 184.11 286.043 184.238 285.695 184.362Z" fill="#0B2D4E"/>
<path d="M231.633 87.0504C234.09 85.6168 236.948 84.9616 239.791 84.8477C242.64 84.7385 245.497 85.1041 248.264 85.7924C253.813 87.1833 258.866 90.4778 262.391 95.0066C264.134 97.2852 265.482 99.8724 266.282 102.635C267.087 105.408 267.249 108.303 267.215 111.142C267.187 113.986 266.982 116.81 267.077 119.606C267.134 120.992 267.311 122.379 267.735 123.675C268.149 124.966 268.873 126.157 269.944 126.931C271.002 127.729 272.354 128.066 273.726 128.232C275.103 128.393 276.536 128.403 277.965 128.593C280.799 128.972 283.68 129.646 286.152 131.265C287.367 132.072 288.457 133.197 288.986 134.621C289.534 136.041 289.424 137.593 289.057 139.012C288.629 140.446 287.814 141.647 287.248 142.9C286.681 144.154 286.314 145.502 286.19 146.878C285.928 149.641 286.638 152.414 287.629 155.039C288.595 157.683 289.762 160.289 290.439 163.066C290.772 164.452 290.972 165.881 290.953 167.31C290.934 168.739 290.672 170.163 290.205 171.507C289.272 174.198 287.514 176.591 285.242 178.281C287.476 176.534 289.162 174.118 290.02 171.44C290.915 168.758 290.796 165.853 290.058 163.156C289.348 160.436 288.167 157.863 287.152 155.214C286.124 152.58 285.338 149.732 285.576 146.822C285.685 145.378 286.052 143.95 286.633 142.62C287.224 141.296 288.014 140.114 288.391 138.818C288.719 137.508 288.81 136.117 288.319 134.878C287.852 133.639 286.881 132.628 285.747 131.878C283.447 130.373 280.637 129.713 277.879 129.362C276.498 129.181 275.084 129.181 273.64 129.02C272.212 128.854 270.702 128.507 269.468 127.586C268.235 126.679 267.43 125.317 266.992 123.926C266.539 122.526 266.372 121.073 266.315 119.639C266.234 116.777 266.449 113.952 266.487 111.137C266.53 108.327 266.382 105.512 265.615 102.83C264.844 100.157 263.572 97.627 261.905 95.3863C258.528 90.9288 253.613 87.6295 248.174 86.1817C245.459 85.4411 242.635 85.0139 239.806 85.0566C236.977 85.0898 234.124 85.6737 231.633 87.0504Z" fill="#73B8D4"/>
<path d="M267.425 149.784C267.687 156.178 266.201 160.982 260.333 164.149C255.661 166.669 250.06 167.495 244.902 167.623C236.253 167.837 226.613 165.611 220.14 159.553C218.964 158.452 217.84 157.109 217.754 155.504C217.678 154.047 218.483 152.675 218.554 151.213C218.673 148.754 216.754 146.717 215.897 144.41C214.763 141.362 215.535 137.959 216.549 134.868C217.569 131.778 218.84 128.659 218.688 125.412C218.488 121.201 215.949 117.522 213.915 113.824C211.882 110.126 210.281 105.626 212.02 101.781C213.163 99.2458 215.897 97.2995 218.688 96.9909C221.636 96.6634 224.284 100.024 226.175 101.871C228.718 104.358 231.547 106.556 234.591 108.398C238.801 110.947 243.426 112.827 247.388 115.747C249.784 117.513 252.356 119.939 253.504 122.754C254.794 125.925 252.537 128.996 255.266 131.911C257.028 133.791 259.733 134.432 261.862 135.889C266.43 138.989 267.216 144.733 267.425 149.784Z" fill="#061F33"/>
<path d="M219.65 185.572C225.723 176.244 229.504 164.794 224.227 154.26C223.694 153.192 223.051 152.029 221.912 151.649C219.469 150.838 216.154 151.711 214.03 152.955C206.657 157.26 202.152 165.373 198.008 172.589C193.707 180.085 189.969 187.889 185.649 195.375C183.896 198.409 182.129 201.48 181.191 204.85C180.367 207.803 180.276 211.183 181.4 214.074C186.254 226.564 199.594 211.264 203.657 206.645C209.453 200.046 214.864 192.926 219.65 185.572Z" fill="#EFB126"/>
<path d="M274.612 175.133C276.36 167.766 277.265 160.227 273.307 155.205C271.521 152.936 268.335 151.36 265.729 150.239C260.648 148.051 255.451 145.108 250.012 144.154C244.278 143.147 237.901 142.525 232.181 143.969C228.551 144.88 225.155 146.575 221.907 148.398C219.092 149.978 215.635 151.346 214.268 154.289C210.953 161.428 208.014 168.877 205.571 176.353C203.528 182.61 201.289 189.171 204.504 195.513C205.547 197.568 207.062 199.325 208.252 201.29C209.581 203.479 210.077 205.534 210.248 208.055C210.643 213.813 210.491 219.586 210.472 225.349C210.467 227.01 210.491 228.738 211.22 230.229C212.658 233.172 216.568 233.215 219.383 233.21C228.666 233.196 237.948 233.177 247.231 233.162C251.093 233.158 254.046 233.628 257.671 234.368C260.724 234.995 263.343 233.457 264.805 230.627C266.191 227.95 266.296 224.822 266.444 221.807C267.02 210.091 268.687 198.432 271.416 187.025C272.207 183.802 273.559 179.577 274.612 175.133Z" fill="#FFC73C"/>
<path d="M253.112 153.7C255.299 150.035 255.794 145.459 252.931 141.927C251.622 140.313 249.307 140.133 247.326 140.095C243.43 140.024 239.524 140.437 235.728 141.32C232.113 142.165 228.422 143.589 226.855 147.23C225.693 149.936 226.098 153.064 227.632 155.537C229.022 157.783 231.332 159.449 233.914 160.061C238.076 161.049 242.949 160.916 246.921 159.254C249.412 158.21 251.641 156.159 253.112 153.7Z" fill="#EFB126"/>
<path d="M277.903 208.919C277.874 203.27 277.846 197.616 277.817 191.967C277.807 190.001 279.089 178.024 276.017 178.162C275.683 178.176 275.383 178.347 275.112 178.537C273.583 179.624 272.802 181.452 272.087 183.18C269.849 188.606 267.972 197.298 263.314 201.095C258.58 204.96 251.298 206.588 245.416 207.514C238.543 208.596 231.561 208.677 224.617 209.099C220.126 209.37 215.172 210.015 212.219 213.4C210.114 215.816 209.038 219.443 207.914 222.396C206.933 224.978 206.147 228.045 208.142 230.381C208.995 231.377 210.176 232.033 211.362 232.593C215.696 234.629 220.43 235.655 225.155 236.443C238.376 238.65 251.855 239.106 265.248 238.47C268.11 238.332 271.216 238.047 273.326 236.12C274.897 234.681 275.636 232.569 276.164 230.509C277.965 223.492 277.936 216.158 277.903 208.919Z" fill="#EFB126"/>
<path d="M214.587 112.419C209.52 117.612 214.116 130.306 222.193 128.469C230.876 126.494 229.566 113.012 221.717 110.8C218.659 109.936 216.216 110.748 214.587 112.419Z" fill="#57B8E8"/>
<path d="M283.733 183.507C288.81 184.153 294.159 183.707 298.693 181.343C304.466 178.333 307.357 172.807 307.476 166.456C307.561 161.856 306.671 157.056 303.88 153.387C300.851 149.395 295.769 146.945 293.887 142.307C292.668 139.302 292.959 135.215 295.373 132.889C296.912 131.408 298.112 129.741 297.917 127.524C297.626 124.263 295.231 121.125 292.559 119.364C288.634 116.782 283.757 115.832 279.166 115.253C276.056 114.859 272.96 113.99 271.998 110.653C271.479 108.854 271.583 106.955 271.483 105.104C271.279 101.159 270.988 97.2141 270.397 93.3024C269.716 88.7974 266.778 84.4348 263.506 81.3302C263.034 80.8839 262.548 80.4567 262.044 80.0484C253.599 73.2316 237.973 70.8153 228.661 77.1337C225.485 79.2889 223.26 82.5834 222.555 86.3526C222.084 88.8733 221.398 89.4145 218.931 90.1788C214.444 91.565 209.358 92.5524 205.795 95.8279C203.009 98.3913 201.728 102.274 202.099 106.001C202.571 110.758 205.91 113.031 208.3 116.805C210.739 120.655 208.82 125.497 205.991 128.673C203.809 131.118 200.713 132.908 199.48 135.941C198.346 138.732 199.099 141.961 200.466 144.643C201.023 145.73 201.675 146.769 202.166 147.885C203.657 151.289 203.504 155.362 201.761 158.642" stroke="#0B2D4E" stroke-width="15" stroke-miterlimit="10"/>
<path d="M298.126 190.87C299.679 193.661 301.222 196.458 302.737 199.273C305.813 204.983 311.524 217.672 302.379 220.81C297.774 222.391 295.14 220.844 292.092 217.502C280.575 204.85 270.755 190.666 262.967 175.447C260.072 169.783 252.38 155.025 261.72 151.649C264.668 150.586 268.068 150.833 270.831 152.314C272.093 152.993 273.217 153.904 274.284 154.854C281.028 160.845 285.829 168.578 290.096 176.425C292.749 181.271 295.454 186.061 298.126 190.87Z" fill="#FFC73C"/>
<path d="M245.197 155.566C247.979 154.678 250.27 152.955 251.127 150.211C251.908 147.723 250.679 144.927 250.46 142.416C250.251 140.009 250.222 137.593 250.384 135.186C250.532 132.96 250.746 130.643 250.398 128.422C250.203 127.154 249.503 127.373 248.217 126.865C246.931 126.361 245.488 126.357 244.088 126.361C241.225 126.366 233.757 126.162 231.99 128.664C231.176 129.813 231.114 131.26 231.076 132.628C231.028 134.28 230.738 136.421 230.466 138.728C230.347 139.753 230.419 140.778 230.261 141.794C230.085 142.938 229.652 144.03 229.271 145.122C227.832 149.257 229.18 153.192 233.667 155.082C236.882 156.453 241.478 156.757 245.197 155.566Z" fill="#F8A17A"/>
<path d="M250.384 128.426C250.188 127.159 249.488 127.377 248.202 126.869C246.916 126.366 245.473 126.361 244.073 126.366C241.211 126.371 233.743 126.167 231.976 128.669C231.161 129.817 231.099 131.265 231.061 132.632C231.013 134.284 230.723 136.425 230.451 138.732C230.332 139.758 230.404 140.783 230.247 141.799C230.113 142.668 229.828 143.508 229.532 144.344C232.309 145.369 235.443 145.601 238.339 144.889C243.554 143.608 247.507 140.375 250.322 136.164C250.336 135.837 250.345 135.509 250.369 135.182C250.512 132.965 250.727 130.643 250.384 128.426Z" fill="#E5785C"/>
<path d="M254.542 112.13C254.518 108.318 253.989 104.705 253.008 101.7C248.765 88.7451 232.552 85.5456 222.789 94.8452C211.901 105.213 216.068 130.007 227.537 138.713C230.604 141.04 234.767 141.861 238.491 140.864C249.755 137.854 254.613 124.035 254.542 112.13Z" fill="#F8A17A"/>
<path d="M252.408 112.452C257.395 109.732 258.933 116.616 258.071 120.043C257.719 121.458 257.157 122.839 256.276 124.002C255.09 125.569 251.694 128.17 249.741 126.456C248.855 125.678 248.765 124.358 248.736 123.181C248.665 120.019 249.027 114.294 252.408 112.452Z" fill="#F8A17A"/>
<path d="M236.162 135.125C234.938 135.125 233.709 135.034 232.476 134.854L232.695 133.363C237.172 134.023 241.634 133.401 245.607 131.564C246.683 131.066 247.597 130.544 248.402 129.964C249.86 128.911 251.112 127.539 252.022 125.991L253.327 126.751C252.312 128.479 250.917 130.012 249.293 131.184C248.412 131.821 247.416 132.39 246.249 132.931C243.101 134.384 239.672 135.125 236.162 135.125Z" fill="#2F95D2"/>
<path d="M228.104 132.172C229.928 130.61 233.981 130.748 235.319 132.367C236.31 133.568 236.01 135.091 234.915 136.107C233.624 137.308 232.028 137.237 230.419 136.876C228.409 136.421 225.908 134.052 228.104 132.172Z" fill="#2F95D2"/>
<path d="M254.565 102.237C250.098 88.598 233.028 85.2323 222.75 95.0209C220.478 97.1856 218.84 99.9484 217.749 103.053C217.978 103.404 218.235 103.76 218.54 104.116C219.949 105.745 221.897 106.808 223.855 107.71C229.575 110.345 235.743 111.892 241.939 113.05C242.396 113.136 242.854 113.221 243.311 113.312C245.016 113.649 246.711 114.066 248.197 114.94C252.408 117.413 250.598 122.853 253.684 125.236C253.965 125.45 254.246 125.592 254.527 125.692C255.665 121.629 256.199 117.318 256.175 113.221C256.156 109.205 255.599 105.398 254.565 102.237Z" fill="#E5785C"/>
<path d="M243.759 111.75C245.388 112.353 246.993 113.036 248.322 114.133C252.084 117.242 249.427 122.326 252.089 125.17C254.452 127.691 258.033 124.358 258.971 122.032C260.7 117.745 260.6 112.975 260.472 108.351C260.4 105.773 260.324 103.162 259.567 100.698C258.738 98.0116 257.128 95.6143 255.214 93.5493C249.679 87.5964 241.325 84.5012 233.238 85.0092C226.913 85.4079 215.816 90.7057 220.779 98.7284C221.912 100.561 223.66 101.918 225.451 103.119C230.676 106.632 236.52 109.139 242.449 111.266C242.878 111.432 243.321 111.588 243.759 111.75Z" fill="#0B2D4E"/>
<path d="M254.503 110.492C247.464 112.291 244.744 125.512 252.598 128.142C261.038 130.971 266.977 118.785 261.438 112.818C259.276 110.492 256.77 109.913 254.503 110.492Z" fill="#57B8E8"/>
<path d="M256.813 112.191C251.955 112.97 248.96 123.262 253.97 126.091C259.352 129.134 264.401 119.972 261.238 114.693C260 112.633 258.376 111.94 256.813 112.191Z" fill="#2F95D2"/>
<path d="M257.795 111.417L255.918 111.199C257.19 100.228 256.647 86.2102 246.831 81.7336C242.182 79.6117 228.866 77.2618 223.007 85.1421C222.303 85.9301 221.831 86.5947 221.831 86.5947C225.465 75.42 242.601 77.7318 247.617 80.0199C258.466 84.9712 259.138 99.825 257.795 111.417Z" fill="#57B8E8"/>
<path d="M365.133 220.246H99.9424V238.735H365.133V220.246Z" fill="white"/>
<path d="M222.336 214.677H183.905V222.177H222.336V214.677Z" fill="#2F95D2"/>
<path d="M190.502 215.403L180.805 166.19C180.548 164.889 179.405 163.954 178.076 163.954H113.598C112.664 163.954 111.864 164.414 111.364 165.098L111.355 165.088L108.378 168.597L111.021 168.017L120.571 216.471C120.828 217.772 121.971 218.707 123.3 218.707H187.773C189.521 218.712 190.836 217.117 190.502 215.403Z" fill="#2F95D2"/>
<path d="M120.351 222.177H184.825C186.578 222.177 187.892 220.582 187.554 218.873L177.857 169.66C177.6 168.359 176.457 167.424 175.128 167.424H110.65C108.897 167.424 107.582 169.019 107.92 170.728L117.617 219.942C117.875 221.238 119.018 222.177 120.351 222.177Z" fill="#0B2D4E"/>
<path d="M140.631 193.576C141.227 196.894 144.408 199.586 147.737 199.586C151.067 199.586 153.248 196.894 152.605 193.576C151.962 190.258 148.78 187.566 145.499 187.566C142.213 187.566 140.036 190.258 140.631 193.576Z" fill="#2F95D2"/>
<path d="M325.783 192.793C326.493 191.331 326.369 189.788 325.917 188.392C325.488 186.963 324.716 185.739 323.883 184.39C323.04 183.066 322.183 181.623 321.659 179.881C321.125 178.124 321.278 176.149 321.768 174.483C322.826 171.084 324.997 168.578 326.488 166.009C327.236 164.713 327.85 163.394 328.093 161.936C328.365 160.493 328.274 158.955 327.56 157.503C328.793 158.58 329.393 160.322 329.474 162.012C329.55 163.721 329.117 165.449 328.465 166.973C327.169 170.063 325.226 172.57 324.469 175.281C324.04 176.624 323.935 177.925 324.24 179.225C324.492 180.559 325.193 181.908 325.826 183.365C326.493 184.789 327.131 186.436 327.274 188.131C327.412 189.812 327.031 191.701 325.783 192.793Z" fill="white"/>
<path d="M331.57 222.016H321.32C318.858 222.016 316.867 220.027 316.867 217.578V194.663H336.028V217.578C336.023 220.032 334.027 222.016 331.57 222.016Z" fill="#57B8E8"/>
<path d="M337.362 200.849C332.765 200.849 329.041 204.618 329.041 209.261C329.041 213.903 332.765 217.672 337.362 217.672C341.958 217.672 345.682 213.903 345.682 209.261C345.682 204.618 341.958 200.849 337.362 200.849ZM337.362 214.677C334.404 214.677 332.008 212.251 332.008 209.265C332.008 206.279 334.404 203.854 337.362 203.854C340.319 203.854 342.715 206.279 342.715 209.265C342.715 212.251 340.319 214.677 337.362 214.677Z" fill="#57B8E8"/>
<path opacity="0.2" d="M319.73 211.634C319.158 211.634 318.691 211.169 318.691 210.604V197.293C318.691 196.723 319.158 196.263 319.73 196.263C320.301 196.263 320.763 196.728 320.763 197.293V210.604C320.763 211.169 320.296 211.634 319.73 211.634Z" fill="white"/>
<path d="M331.598 194.663V217.183C331.598 219.856 329.427 222.021 326.745 222.021H331.17C333.851 222.021 336.023 219.856 336.023 217.183V194.663H331.598Z" fill="#2F95D2"/>
<path d="M285.29 94.8357H351.911C355.179 94.8357 357.851 92.1726 357.851 88.9161V53.2461C357.851 49.9896 355.179 47.3264 351.911 47.3264H285.29C282.023 47.3264 279.351 49.9896 279.351 53.2461V88.9161C279.351 92.1726 282.023 94.8357 285.29 94.8357Z" fill="#0098D7"/>
<path d="M289.681 107.344V85.5076L306.836 94.8357L289.681 107.344Z" fill="#0098D7"/>
<path d="M328.088 73.222H293.386C292.243 73.222 291.305 72.2916 291.305 71.1475C291.305 70.0082 292.238 69.0731 293.386 69.0731H328.088C329.231 69.0731 330.169 70.0035 330.169 71.1475C330.164 72.2868 329.231 73.222 328.088 73.222Z" fill="#E1F4FD"/>
<path d="M343.814 73.222H335.237C334.094 73.222 333.155 72.2916 333.155 71.1475C333.155 70.0082 334.089 69.0731 335.237 69.0731H343.814C344.957 69.0731 345.896 70.0035 345.896 71.1475C345.891 72.2868 344.957 73.222 343.814 73.222Z" fill="#E1F4FD"/>
<path d="M309.114 59.6595H343.815C344.958 59.6595 345.896 60.5899 345.896 61.734C345.896 62.8733 344.963 63.8085 343.815 63.8085H309.114C307.97 63.8085 307.032 62.8781 307.032 61.734C307.032 60.5947 307.966 59.6595 309.114 59.6595Z" fill="#E1F4FD"/>
<path d="M293.386 59.6595H301.964C303.107 59.6595 304.045 60.5899 304.045 61.734C304.045 62.8733 303.112 63.8085 301.964 63.8085H293.386C292.243 63.8085 291.305 62.8781 291.305 61.734C291.305 60.5947 292.243 59.6595 293.386 59.6595Z" fill="#E1F4FD"/>
<path d="M316.519 81.8238H293.386C292.243 81.8238 291.305 80.8934 291.305 79.7493C291.305 78.61 292.238 77.6749 293.386 77.6749H316.519C317.662 77.6749 318.6 78.6053 318.6 79.7493C318.6 80.8934 317.662 81.8238 316.519 81.8238Z" fill="#E1F4FD"/>
<path d="M253.16 210.813C253.946 210.68 254.732 210.552 255.523 210.428C259.357 209.83 263.176 209.118 266.977 208.292C274.502 206.664 282.065 205.263 289.724 204.537C290.534 204.461 291.348 204.39 292.163 204.328C295.596 204.072 299.192 203.986 302.336 205.619C305.479 207.257 307.98 211.126 307.213 214.857C306.675 217.478 304.66 219.453 302.426 220.45C300.193 221.446 297.73 221.617 295.315 221.779C287.495 222.306 279.679 222.828 271.859 223.355C267.987 223.611 264.115 223.877 260.247 224.148C256.551 224.404 252.798 224.926 249.093 224.921C247.526 224.921 245.773 224.627 244.459 223.583C242.625 222.135 241.525 219.049 241.349 216.633C241.258 215.38 241.501 213.86 242.463 213.087C242.977 212.674 243.635 212.546 244.263 212.432C247.231 211.886 250.188 211.316 253.16 210.813Z" fill="#FFC73C"/>
<path d="M244.388 222.685C242.497 223.075 241.02 224.731 239.139 225.282C237.796 225.676 236.358 225.467 235.067 224.983C233.881 224.542 232.676 224.304 231.457 223.915C230.509 223.611 229.228 222.975 228.204 223.184C225.532 223.739 222.865 225.633 220.441 226.863C219.898 227.138 219.297 227.423 218.697 227.309C218.097 227.195 217.597 226.469 217.935 225.966C217.24 226.616 216.316 227.912 215.192 227.409C214.73 227.205 214.454 226.597 214.711 226.16C214.325 226.583 213.92 227.02 213.387 227.228C212.853 227.437 212.153 227.347 211.839 226.868C211.691 226.644 211.648 226.364 211.634 226.099C211.587 225.173 211.868 224.261 212.253 223.421C214.163 219.272 218.478 216.191 222.15 213.718C222.798 213.281 223.46 212.835 224.213 212.607C224.884 212.403 225.594 212.379 226.299 212.379C230.852 212.36 235.41 213.091 239.725 214.539C240.658 214.853 241.687 214.587 242.616 214.411C243.307 214.283 244.026 214.155 244.697 214.349C245.45 214.568 246.036 215.161 246.493 215.797C247.336 216.965 247.984 218.508 247.879 219.975C247.803 221.086 247.717 222.287 246.402 222.524C245.869 222.619 245.321 222.562 244.783 222.614C244.65 222.638 244.521 222.657 244.388 222.685Z" fill="#F8A17A"/>
</svg>
