<svg width="505" height="324" viewBox="0 0 505 324" fill="none" xmlns="http://www.w3.org/2000/svg">
<path d="M130.517 291.009C119.97 287.246 108.41 288.327 97.1979 288.17C85.9926 288.013 68.5067 286.197 64.2866 273.807C59.8229 260.696 66.2946 247.099 66.3473 233.851C66.3604 230.225 65.9786 226.554 64.7211 223.152C58.8486 207.215 39.1769 203.354 32.2838 187.47C27.1355 175.604 29.7953 161.438 36.5632 150.411C42.4423 140.834 51.0602 133.301 60.1719 126.864C68.4738 121.003 74.8203 111.53 78.0726 101.9C84.1492 83.9184 80.4164 64.2518 87.2304 46.7157C93.3333 31.0085 105.019 17.7007 119.615 10.6732C145.08 -1.59882 175.18 9.31619 193.338 30.3071C203.075 41.563 217.072 48.0989 231.318 49.2592C258.989 51.5143 287.812 36.5414 313.449 53.4417C326.517 62.0557 335.747 77.3301 338.624 93.4502C340.244 102.53 340.059 112.632 336.537 121.2C333.074 129.637 327.103 136.514 321.968 143.803C313.442 155.912 308.774 172.097 316.747 185.739C320.236 191.705 325.273 196.582 330.052 201.578C342.285 214.374 346.814 233.208 342.601 250.266C337.821 269.631 322.666 282.342 302.935 284.774C288.332 286.577 272.163 284.224 258.923 291.907" stroke="#DFF3FD" stroke-width="10" stroke-miterlimit="10"/>
<path d="M368.023 113.813H339.318V323.989H368.023V113.813Z" fill="#DEF2FC"/>
<path d="M333.217 178.325H295.927V324H333.217V178.325Z" fill="#C2E7FA"/>
<path d="M386.679 221.695H350.478V324H386.679V221.695Z" fill="#DEF2FC"/>
<path d="M362.623 103.552H339.311V113.824H362.623V103.552Z" fill="#DEF2FC"/>
<path d="M358.39 93.2795H339.318V103.552H358.39V93.2795Z" fill="#DEF2FC"/>
<path d="M354.344 83.0072H339.318V93.2796H354.344V83.0072Z" fill="#DEF2FC"/>
<path d="M254.695 113.813H225.99V323.989H254.695V113.813Z" fill="#C2E7FA"/>
<path d="M333.217 45.7672H304.512V323.989H333.217V45.7672Z" fill="#C2E7FA"/>
<path d="M225.989 242.657H168.572V323.989H225.989V242.657Z" fill="#C2E7FA"/>
<path d="M298.016 12.9637H240.342V324H298.016V12.9637Z" fill="#C2E7FA"/>
<path d="M249.295 103.552H225.982V113.824H249.295V103.552Z" fill="#C2E7FA"/>
<path d="M245.061 93.2795H225.99V103.552H245.061V93.2795Z" fill="#C2E7FA"/>
<path d="M241.015 83.0072H225.99V93.2795H241.015V83.0072Z" fill="#C2E7FA"/>
<path d="M199.692 113.813H170.987V323.989H199.692V113.813Z" fill="#C2E7FA"/>
<path d="M228.398 149.348H199.693V324H228.398V149.348Z" fill="#C2E7FA"/>
<path d="M170.987 66.6844H127.666V323.989H170.987V66.6844Z" fill="#C2E7FA"/>
<path d="M194.293 103.552H170.98V113.824H194.293V103.552Z" fill="#C2E7FA"/>
<path d="M190.059 93.2795H170.987V103.552H190.059V93.2795Z" fill="#C2E7FA"/>
<path d="M186.013 83.0072H170.987V93.2795H186.013V83.0072Z" fill="#C2E7FA"/>
<path d="M86.364 113.813H57.6588V323.989H86.364V113.813Z" fill="#C2E7FA"/>
<path d="M57.6589 149.348H28.9537V324H57.6589V149.348Z" fill="#C2E7FA"/>
<path d="M121.829 120.213H93.1239V324H121.829V120.213Z" fill="#C2E7FA"/>
<path d="M28.9467 222.53H0.241577V323.989H28.9467V222.53Z" fill="#DEF2FC"/>
<path d="M129.686 170.548H72.0115V324H129.686V170.548Z" fill="#C2E7FA"/>
<path d="M80.9645 103.552H57.652V113.824H80.9645V103.552Z" fill="#C2E7FA"/>
<path d="M49.9551 279.479H26.6426V289.751H49.9551V279.479Z" fill="#C2E7FA"/>
<path d="M76.7308 93.2796H57.6588V103.552H76.7308V93.2796Z" fill="#C2E7FA"/>
<path d="M72.6846 83.0072H57.6588V93.2795H72.6846V83.0072Z" fill="#C2E7FA"/>
<path d="M219.334 169.046H181.592V179.319H219.334V169.046Z" fill="#C2E7FA"/>
<path d="M219.334 205.857H181.592V216.13H219.334V205.857Z" fill="#C2E7FA"/>
<path d="M219.334 242.657H181.592V252.929H219.334V242.657Z" fill="#C2E7FA"/>
<path d="M74.6835 242.657H36.942V252.929H74.6835V242.657Z" fill="#C2E7FA"/>
<path d="M74.6835 279.479H36.942V289.751H74.6835V279.479Z" fill="#C2E7FA"/>
<path d="M395.15 252.69C384.873 256.309 372.476 255.942 363.121 249.97C353.93 244.096 345.549 239.854 334.238 240.064C324.133 240.248 315.771 245.689 305.982 246.849C298.22 247.767 290.333 244.397 284.704 238.989C279.213 233.712 275.566 225.668 277.949 218.451C279.2 214.668 281.932 211.554 283.492 207.889C287.087 199.439 277.62 194.346 279.97 185.45C281.971 177.885 290.306 172.489 290.188 164.669C290.096 158.946 285.645 154.508 284.078 149.211C282.498 143.868 282.847 137.883 285.638 132.999C287.686 129.413 290.984 126.476 294.796 124.857C298.226 123.401 302.051 123.375 304.704 120.392C309.425 115.076 311.163 109.32 317.641 105.433C323.125 102.142 330.374 101.932 336.668 102.509C350.651 103.787 364.227 111.136 372.107 122.844C374.899 126.994 376.913 131.242 376.986 136.172C377.065 141.56 377.058 146.982 380.376 151.564C383.161 155.412 387.631 157.661 392.062 159.398C396.493 161.135 401.141 162.538 405.032 165.272C408.922 168.005 412.01 172.47 411.556 177.19C411.174 181.143 408.429 184.578 408.06 188.531C407.395 195.716 414.347 200.941 418.633 206.762C424.637 214.91 425.632 226.435 421.115 235.482C415.914 245.899 406.467 248.252 396.565 252.172C396.104 252.343 395.63 252.52 395.15 252.69Z" fill="#0B2D4E"/>
<path d="M320.419 118.308C323.817 116.328 327.767 115.423 331.697 115.266C335.634 115.115 339.584 115.62 343.409 116.57C351.079 118.491 358.064 123.041 362.936 129.295C365.346 132.442 367.209 136.014 368.315 139.83C369.428 143.658 369.651 147.657 369.605 151.577C369.566 155.504 369.283 159.405 369.414 163.266C369.493 165.18 369.737 167.094 370.323 168.884C370.896 170.667 371.896 172.312 373.378 173.381C374.839 174.482 376.709 174.948 378.605 175.177C380.508 175.4 382.489 175.413 384.464 175.675C388.382 176.2 392.365 177.131 395.782 179.366C397.46 180.481 398.968 182.034 399.699 184.001C400.456 185.961 400.304 188.105 399.798 190.065C399.205 192.045 398.079 193.703 397.296 195.434C396.512 197.165 396.005 199.026 395.834 200.927C395.472 204.743 396.453 208.571 397.822 212.197C399.159 215.848 400.772 219.447 401.707 223.282C402.168 225.196 402.444 227.169 402.418 229.143C402.391 231.116 402.029 233.083 401.384 234.938C400.094 238.655 397.664 241.959 394.524 244.293C397.612 241.88 399.942 238.543 401.127 234.846C402.365 231.142 402.201 227.13 401.18 223.407C400.199 219.65 398.566 216.097 397.164 212.439C395.742 208.801 394.656 204.867 394.985 200.849C395.136 198.856 395.643 196.883 396.446 195.047C397.263 193.218 398.356 191.586 398.876 189.796C399.33 187.987 399.455 186.066 398.777 184.355C398.132 182.644 396.789 181.248 395.222 180.212C392.042 178.134 388.158 177.223 384.346 176.737C382.437 176.488 380.481 176.488 378.486 176.265C376.511 176.036 374.424 175.557 372.719 174.286C371.014 173.034 369.902 171.152 369.296 169.231C368.67 167.297 368.44 165.291 368.361 163.312C368.249 159.359 368.545 155.458 368.598 151.571C368.657 147.69 368.453 143.802 367.393 140.098C366.327 136.408 364.569 132.914 362.265 129.819C357.597 123.664 350.803 119.107 343.284 117.108C339.532 116.085 335.627 115.495 331.717 115.554C327.806 115.6 323.863 116.407 320.419 118.308Z" fill="#73B8D4"/>
<path d="M369.895 204.939C370.257 213.77 368.203 220.404 360.092 224.777C353.634 228.258 345.891 229.398 338.761 229.575C326.805 229.87 313.48 226.796 304.533 218.431C302.907 216.91 301.353 215.055 301.235 212.839C301.13 210.826 302.242 208.932 302.341 206.913C302.506 203.517 299.852 200.705 298.667 197.519C297.1 193.31 298.167 188.61 299.569 184.342C300.978 180.074 302.736 175.767 302.525 171.283C302.249 165.468 298.74 160.388 295.929 155.281C293.117 150.174 290.905 143.96 293.308 138.65C294.888 135.149 298.667 132.461 302.525 132.035C306.6 131.583 310.261 136.224 312.875 138.774C316.39 142.209 320.301 145.245 324.508 147.788C330.328 151.308 336.72 153.904 342.198 157.936C345.509 160.375 349.065 163.725 350.651 167.612C352.435 171.991 349.315 176.233 353.087 180.258C355.523 182.854 359.262 183.739 362.205 185.751C368.519 190.032 369.605 197.964 369.895 204.939Z" fill="#061F33"/>
<path d="M303.855 254.362C312.249 241.48 317.477 225.668 310.182 211.121C309.445 209.646 308.556 208.04 306.982 207.516C303.605 206.395 299.023 207.601 296.087 209.319C285.895 215.265 279.667 226.468 273.939 236.432C267.995 246.784 262.826 257.561 256.855 267.899C254.432 272.088 251.99 276.33 250.693 280.984C249.554 285.062 249.429 289.729 250.983 293.721C257.691 310.969 276.132 289.841 281.748 283.462C289.76 274.35 297.239 264.516 303.855 254.362Z" fill="#EFB126"/>
<path d="M379.83 239.946C382.246 229.772 383.497 219.362 378.026 212.426C375.557 209.292 371.152 207.116 367.551 205.569C360.527 202.547 353.344 198.482 345.825 197.165C337.899 195.775 329.083 194.916 321.177 196.909C316.16 198.168 311.466 200.508 306.976 203.025C303.085 205.208 298.305 207.096 296.416 211.161C291.834 221.02 287.772 231.306 284.394 241.631C281.57 250.271 278.475 259.331 282.919 268.089C284.361 270.928 286.455 273.353 288.101 276.067C289.938 279.089 290.622 281.928 290.859 285.409C291.406 293.361 291.195 301.332 291.169 309.291C291.162 311.585 291.195 313.972 292.202 316.03C294.19 320.094 299.596 320.153 303.486 320.147C316.318 320.127 329.149 320.101 341.981 320.081C347.32 320.075 351.402 320.724 356.412 321.746C360.632 322.612 364.253 320.488 366.274 316.581C368.19 312.883 368.335 308.563 368.539 304.4C369.335 288.221 371.64 272.121 375.412 256.368C376.505 251.917 378.375 246.082 379.83 239.946Z" fill="#FFC73C"/>
<path d="M350.111 210.348C353.133 205.287 353.818 198.967 349.861 194.09C348.051 191.861 344.851 191.612 342.112 191.56C336.727 191.461 331.328 192.032 326.081 193.251C321.084 194.418 315.982 196.385 313.816 201.413C312.21 205.149 312.769 209.469 314.889 212.885C316.812 215.986 320.005 218.287 323.573 219.132C329.327 220.496 336.062 220.312 341.553 218.018C344.996 216.576 348.077 213.744 350.111 210.348Z" fill="#EFB126"/>
<path d="M384.379 286.602C384.339 278.801 384.3 270.993 384.26 263.192C384.247 260.478 386.018 243.939 381.772 244.129C381.311 244.148 380.896 244.384 380.521 244.647C378.408 246.148 377.328 248.672 376.34 251.058C373.246 258.551 370.652 270.554 364.213 275.799C357.669 281.135 347.603 283.383 339.472 284.662C329.972 286.156 320.321 286.268 310.722 286.851C304.514 287.225 297.667 288.116 293.585 292.791C290.675 296.127 289.187 301.136 287.633 305.213C286.277 308.78 285.191 313.014 287.949 316.24C289.128 317.616 290.76 318.521 292.4 319.295C298.391 322.107 304.935 323.523 311.466 324.611C329.742 327.66 348.373 328.289 366.886 327.41C370.843 327.22 375.136 326.827 378.052 324.165C380.225 322.179 381.245 319.262 381.976 316.417C384.464 306.728 384.425 296.599 384.379 286.602Z" fill="#EFB126"/>
<path d="M296.857 153.341C289.852 160.512 296.205 178.042 307.371 175.505C319.373 172.778 317.562 154.16 306.713 151.105C302.486 149.912 299.109 151.033 296.857 153.341Z" fill="#57B8E8"/>
<path d="M392.437 251.51C399.455 252.402 406.849 251.786 413.116 248.521C421.096 244.365 425.092 236.734 425.256 227.963C425.375 221.61 424.144 214.983 420.286 209.915C416.099 204.402 409.074 201.019 406.473 194.615C404.788 190.465 405.19 184.82 408.528 181.608C410.654 179.563 412.313 177.262 412.043 174.2C411.642 169.697 408.33 165.364 404.637 162.931C399.212 159.365 392.47 158.054 386.124 157.254C381.825 156.71 377.545 155.511 376.215 150.902C375.498 148.417 375.643 145.795 375.504 143.239C375.221 137.791 374.82 132.343 374.003 126.941C373.062 120.72 369 114.696 364.477 110.408C363.825 109.792 363.153 109.202 362.456 108.638C350.783 99.2245 329.182 95.8878 316.311 104.613C311.92 107.589 308.846 112.139 307.871 117.344C307.219 120.825 306.271 121.572 302.861 122.628C296.659 124.542 289.628 125.906 284.704 130.429C280.852 133.969 279.081 139.331 279.595 144.478C280.246 151.046 284.862 154.186 288.167 159.398C291.537 164.715 288.884 171.401 284.974 175.787C281.958 179.163 277.679 181.634 275.974 185.823C274.407 189.678 275.447 194.136 277.337 197.84C278.107 199.341 279.009 200.777 279.687 202.317C281.748 207.018 281.537 212.642 279.127 217.172" stroke="#0B2D4E" stroke-width="15" stroke-miterlimit="10"/>
<path d="M412.333 261.678C414.479 265.533 416.612 269.394 418.706 273.281C422.959 281.168 430.852 298.691 418.212 303.024C411.846 305.207 408.205 303.07 403.991 298.455C388.072 280.984 374.497 261.396 363.733 240.379C359.73 232.558 349.097 212.177 362.008 207.516C366.083 206.047 370.784 206.388 374.602 208.434C376.347 209.371 377.901 210.63 379.375 211.941C388.698 220.214 395.334 230.893 401.233 241.729C404.9 248.423 408.639 255.037 412.333 261.678Z" fill="#FFC73C"/>
<path d="M339.169 212.924C343.014 211.698 346.181 209.319 347.366 205.53C348.446 202.094 346.747 198.233 346.444 194.765C346.155 191.442 346.115 188.105 346.339 184.781C346.543 181.707 346.839 178.508 346.359 175.44C346.089 173.689 345.121 173.991 343.343 173.289C341.566 172.594 339.571 172.588 337.635 172.594C333.679 172.601 323.356 172.319 320.913 175.774C319.787 177.36 319.702 179.36 319.649 181.248C319.583 183.529 319.182 186.486 318.806 189.672C318.642 191.088 318.741 192.504 318.523 193.907C318.28 195.486 317.681 196.994 317.154 198.502C315.166 204.212 317.029 209.646 323.231 212.255C327.675 214.15 334.028 214.57 339.169 212.924Z" fill="#F8A17A"/>
<path d="M346.339 175.446C346.069 173.696 345.101 173.997 343.324 173.296C341.546 172.601 339.551 172.594 337.616 172.601C333.659 172.608 323.336 172.326 320.893 175.78C319.768 177.367 319.682 179.366 319.629 181.254C319.564 183.536 319.162 186.492 318.787 189.678C318.622 191.094 318.721 192.51 318.504 193.913C318.319 195.113 317.924 196.273 317.516 197.427C321.354 198.843 325.686 199.164 329.689 198.181C336.898 196.411 342.363 191.946 346.253 186.132C346.273 185.679 346.286 185.227 346.319 184.775C346.517 181.713 346.813 178.508 346.339 175.446Z" fill="#E5785C"/>
<path d="M352.087 152.941C352.054 147.677 351.323 142.688 349.967 138.538C344.101 120.648 321.69 116.23 308.194 129.072C293.144 143.389 298.904 177.629 314.758 189.652C318.997 192.864 324.752 193.998 329.9 192.622C345.47 188.465 352.185 169.382 352.087 152.941Z" fill="#F8A17A"/>
<path d="M349.137 153.387C356.03 149.63 358.157 159.136 356.965 163.869C356.478 165.822 355.701 167.73 354.483 169.336C352.844 171.5 348.15 175.092 345.45 172.725C344.226 171.65 344.101 169.828 344.061 168.202C343.962 163.836 344.463 155.93 349.137 153.387Z" fill="#F8A17A"/>
<path d="M326.681 184.696C324.989 184.696 323.29 184.571 321.585 184.322L321.888 182.264C328.076 183.175 334.245 182.316 339.736 179.779C341.224 179.091 342.488 178.37 343.6 177.57C345.615 176.115 347.346 174.22 348.604 172.083L350.408 173.132C349.005 175.518 347.076 177.636 344.831 179.255C343.613 180.133 342.237 180.92 340.625 181.667C336.273 183.673 331.533 184.696 326.681 184.696Z" fill="#2F95D2"/>
<path d="M315.541 180.618C318.063 178.462 323.665 178.652 325.515 180.887C326.885 182.546 326.47 184.65 324.956 186.053C323.171 187.712 320.966 187.613 318.741 187.115C315.962 186.486 312.506 183.214 315.541 180.618Z" fill="#2F95D2"/>
<path d="M352.119 139.279C345.944 120.445 322.349 115.797 308.141 129.315C305.001 132.304 302.736 136.119 301.228 140.407C301.544 140.892 301.9 141.383 302.321 141.875C304.27 144.124 306.963 145.592 309.669 146.838C317.575 150.476 326.101 152.613 334.666 154.213C335.298 154.331 335.93 154.449 336.562 154.573C338.919 155.039 341.263 155.616 343.317 156.822C349.137 160.237 346.635 167.75 350.901 171.041C351.29 171.336 351.678 171.532 352.067 171.67C353.64 166.059 354.378 160.106 354.345 154.449C354.318 148.903 353.548 143.645 352.119 139.279Z" fill="#E5785C"/>
<path d="M337.181 152.416C339.433 153.249 341.652 154.193 343.488 155.707C348.689 160.001 345.016 167.022 348.696 170.949C351.961 174.43 356.912 169.828 358.209 166.616C360.599 160.696 360.461 154.108 360.283 147.723C360.184 144.163 360.079 140.557 359.032 137.155C357.887 133.445 355.661 130.134 353.015 127.282C345.365 119.062 333.817 114.787 322.638 115.489C313.895 116.04 298.555 123.356 305.416 134.434C306.982 136.965 309.399 138.84 311.874 140.498C319.096 145.349 327.174 148.811 335.371 151.748C335.963 151.977 336.576 152.193 337.181 152.416Z" fill="#0B2D4E"/>
<path d="M352.034 150.679C342.303 153.164 338.544 171.421 349.4 175.053C361.066 178.96 369.276 162.132 361.62 153.891C358.631 150.679 355.168 149.879 352.034 150.679Z" fill="#57B8E8"/>
<path d="M355.227 153.026C348.512 154.101 344.37 168.314 351.296 172.221C358.736 176.423 365.714 163.771 361.343 156.481C359.631 153.636 357.386 152.679 355.227 153.026Z" fill="#2F95D2"/>
<path d="M356.583 151.957L353.989 151.656C355.747 136.506 354.997 117.147 341.428 110.966C335.002 108.035 316.595 104.79 308.497 115.672C307.522 116.761 306.871 117.678 306.871 117.678C311.894 102.247 335.582 105.439 342.514 108.599C357.511 115.436 358.44 135.949 356.583 151.957Z" fill="#57B8E8"/>
<path d="M504.957 302.245H138.384V327.778H504.957V302.245Z" fill="white"/>
<path d="M307.568 294.554H254.446V304.912H307.568V294.554Z" fill="#2F95D2"/>
<path d="M263.564 295.557L250.16 227.595C249.804 225.799 248.224 224.508 246.387 224.508H157.259C155.968 224.508 154.862 225.144 154.171 226.088L154.158 226.075L150.043 230.919L153.697 230.119L166.897 297.032C167.253 298.828 168.833 300.12 170.67 300.12H259.791C262.208 300.126 264.025 297.924 263.564 295.557Z" fill="#2F95D2"/>
<path d="M166.594 304.912H255.716C258.139 304.912 259.956 302.709 259.489 300.349L246.084 232.388C245.729 230.591 244.149 229.3 242.312 229.3H153.184C150.761 229.3 148.944 231.503 149.411 233.863L162.815 301.824C163.171 303.614 164.751 304.912 166.594 304.912Z" fill="#0B2D4E"/>
<path d="M194.627 265.415C195.45 269.997 199.848 273.714 204.45 273.714C209.052 273.714 212.067 269.997 211.178 265.415C210.29 260.832 205.892 257.115 201.356 257.115C196.813 257.115 193.804 260.832 194.627 265.415Z" fill="#2F95D2"/>
<path d="M450.564 264.333C451.545 262.314 451.373 260.183 450.748 258.256C450.155 256.283 449.089 254.591 447.937 252.73C446.771 250.901 445.586 248.908 444.862 246.502C444.125 244.076 444.336 241.349 445.014 239.048C446.475 234.354 449.477 230.893 451.538 227.346C452.572 225.557 453.421 223.734 453.757 221.722C454.132 219.729 454.007 217.605 453.019 215.599C454.724 217.087 455.554 219.493 455.666 221.827C455.771 224.187 455.172 226.573 454.27 228.677C452.479 232.945 449.793 236.406 448.747 240.149C448.154 242.005 448.009 243.801 448.43 245.597C448.779 247.439 449.747 249.301 450.623 251.314C451.545 253.28 452.427 255.555 452.624 257.895C452.815 260.216 452.288 262.825 450.564 264.333Z" fill="white"/>
<path d="M458.563 304.689H444.395C440.991 304.689 438.239 301.942 438.239 298.559V266.916H464.725V298.559C464.718 301.949 461.96 304.689 458.563 304.689Z" fill="#57B8E8"/>
<path d="M466.568 275.458C460.215 275.458 455.067 280.663 455.067 287.074C455.067 293.485 460.215 298.691 466.568 298.691C472.921 298.691 478.07 293.485 478.07 287.074C478.07 280.663 472.921 275.458 466.568 275.458ZM466.568 294.554C462.48 294.554 459.168 291.204 459.168 287.081C459.168 282.957 462.48 279.607 466.568 279.607C470.657 279.607 473.968 282.957 473.968 287.081C473.968 291.204 470.657 294.554 466.568 294.554Z" fill="#57B8E8"/>
<path opacity="0.2" d="M442.196 290.352C441.406 290.352 440.761 289.709 440.761 288.929V270.548C440.761 269.761 441.406 269.125 442.196 269.125C442.986 269.125 443.625 269.767 443.625 270.548V288.929C443.625 289.709 442.979 290.352 442.196 290.352Z" fill="white"/>
<path d="M458.602 266.916V298.015C458.602 301.706 455.6 304.695 451.893 304.695H458.01C461.716 304.695 464.718 301.706 464.718 298.015V266.916H458.602Z" fill="#2F95D2"/>
<path d="M394.59 129.059H486.681C491.197 129.059 494.891 125.381 494.891 120.884V71.6256C494.891 67.1285 491.197 63.4508 486.681 63.4508H394.59C390.074 63.4508 386.38 67.1285 386.38 71.6256V120.884C386.38 125.381 390.074 129.059 394.59 129.059Z" fill="#0098D7"/>
<path d="M400.66 146.333V116.177L424.374 129.059L400.66 146.333Z" fill="#0098D7"/>
<path d="M453.75 99.2114H405.782C404.202 99.2114 402.905 97.9265 402.905 96.3466C402.905 94.7733 404.195 93.4819 405.782 93.4819H453.75C455.33 93.4819 456.627 94.7667 456.627 96.3466C456.62 97.92 455.33 99.2114 453.75 99.2114Z" fill="#E1F4FD"/>
<path d="M475.489 99.2114H463.632C462.052 99.2114 460.755 97.9265 460.755 96.3466C460.755 94.7733 462.045 93.4819 463.632 93.4819H475.489C477.069 93.4819 478.366 94.7667 478.366 96.3466C478.359 97.92 477.069 99.2114 475.489 99.2114Z" fill="#E1F4FD"/>
<path d="M427.521 80.4822H475.489C477.069 80.4822 478.366 81.7671 478.366 83.347C478.366 84.9203 477.076 86.2117 475.489 86.2117H427.521C425.941 86.2117 424.644 84.9268 424.644 83.347C424.644 81.7736 425.934 80.4822 427.521 80.4822Z" fill="#E1F4FD"/>
<path d="M405.782 80.4822H417.639C419.219 80.4822 420.516 81.7671 420.516 83.347C420.516 84.9203 419.226 86.2117 417.639 86.2117H405.782C404.202 86.2117 402.905 84.9268 402.905 83.347C402.905 81.7736 404.202 80.4822 405.782 80.4822Z" fill="#E1F4FD"/>
<path d="M437.758 111.09H405.782C404.202 111.09 402.905 109.805 402.905 108.225C402.905 106.652 404.195 105.361 405.782 105.361H437.758C439.339 105.361 440.635 106.645 440.635 108.225C440.635 109.805 439.339 111.09 437.758 111.09Z" fill="#E1F4FD"/>
<path d="M350.177 289.218C351.264 289.034 352.35 288.857 353.443 288.687C358.742 287.861 364.022 286.877 369.276 285.737C379.678 283.488 390.133 281.554 400.719 280.551C401.838 280.446 402.964 280.348 404.09 280.263C408.837 279.909 413.807 279.791 418.153 282.046C422.498 284.308 425.954 289.65 424.894 294.803C424.15 298.422 421.365 301.149 418.278 302.526C415.19 303.902 411.786 304.138 408.448 304.361C397.638 305.089 386.835 305.81 376.024 306.538C370.672 306.892 365.319 307.259 359.974 307.632C354.865 307.986 349.677 308.707 344.555 308.701C342.389 308.701 339.966 308.294 338.149 306.852C335.614 304.853 334.094 300.592 333.85 297.255C333.725 295.524 334.061 293.426 335.391 292.358C336.102 291.788 337.01 291.61 337.879 291.453C341.981 290.699 346.069 289.913 350.177 289.218Z" fill="#FFC73C"/>
<path d="M338.05 305.613C335.437 306.151 333.396 308.439 330.795 309.199C328.939 309.743 326.95 309.455 325.166 308.786C323.527 308.176 321.861 307.849 320.176 307.311C318.866 306.892 317.095 306.013 315.679 306.302C311.986 307.069 308.299 309.684 304.948 311.382C304.198 311.762 303.368 312.156 302.539 311.998C301.709 311.841 301.018 310.838 301.485 310.143C300.524 311.041 299.247 312.831 297.693 312.136C297.054 311.854 296.673 311.015 297.028 310.412C296.495 310.995 295.935 311.598 295.198 311.887C294.46 312.175 293.493 312.051 293.058 311.389C292.854 311.081 292.795 310.694 292.775 310.327C292.709 309.048 293.098 307.79 293.631 306.629C296.271 300.9 302.236 296.645 307.312 293.23C308.207 292.627 309.122 292.01 310.162 291.696C311.091 291.414 312.072 291.381 313.046 291.381C319.34 291.355 325.64 292.364 331.605 294.364C332.895 294.797 334.317 294.429 335.601 294.187C336.556 294.01 337.55 293.833 338.478 294.102C339.519 294.403 340.328 295.223 340.96 296.101C342.126 297.714 343.021 299.844 342.876 301.87C342.771 303.404 342.652 305.063 340.835 305.39C340.098 305.521 339.341 305.443 338.597 305.515C338.412 305.548 338.235 305.574 338.05 305.613Z" fill="#F8A17A"/>
</svg>
