<svg width="434" height="279" viewBox="0 0 434 279" fill="none" xmlns="http://www.w3.org/2000/svg">
<path d="M111.938 250.654C102.876 247.421 92.9436 248.35 83.3109 248.215C73.6839 248.08 58.6607 246.52 55.035 235.874C51.2 224.609 56.7602 212.927 56.8054 201.544C56.8168 198.429 56.4887 195.275 55.4083 192.352C50.3629 178.659 33.4619 175.342 27.5397 161.694C23.1165 151.499 25.4016 139.327 31.2163 129.854C36.2674 121.624 43.6715 115.153 51.4998 109.622C58.6324 104.586 64.0851 96.4471 66.8793 88.173C72.1001 72.723 68.893 55.8255 74.7473 40.7586C79.9907 27.2631 90.0306 15.8291 102.571 9.79104C124.449 -0.753011 150.31 8.62511 165.91 26.6604C174.276 36.3314 186.301 41.947 198.541 42.944C222.315 44.8816 247.078 32.0169 269.104 46.5375C280.332 53.9386 288.262 67.0624 290.733 80.9127C292.125 88.7137 291.967 97.3934 288.94 104.755C285.965 112.004 280.835 117.913 276.423 124.176C269.098 134.579 265.088 148.486 271.938 160.207C274.935 165.333 279.262 169.523 283.369 173.815C293.878 184.81 297.77 200.992 294.15 215.648C290.043 232.286 277.023 243.208 260.071 245.297C247.525 246.846 233.633 244.824 222.258 251.426" stroke="#DFF3FD" stroke-width="10" stroke-miterlimit="10"/>
<path d="M315.992 98.4083H291.329V278.99H315.992V98.4083Z" fill="#DEF2FC"/>
<path d="M286.088 153.837H254.05V279H286.088V153.837Z" fill="#C2E7FA"/>
<path d="M332.02 191.1H300.918V279H332.02V191.1Z" fill="#DEF2FC"/>
<path d="M311.353 89.5919H291.324V98.4178H311.353V89.5919Z" fill="#DEF2FC"/>
<path d="M307.715 80.766H291.329V89.5919H307.715V80.766Z" fill="#DEF2FC"/>
<path d="M304.239 71.9401H291.329V80.7661H304.239V71.9401Z" fill="#DEF2FC"/>
<path d="M218.625 98.4082H193.963V278.99H218.625V98.4082Z" fill="#C2E7FA"/>
<path d="M286.088 39.9437H261.426V278.99H286.088V39.9437Z" fill="#C2E7FA"/>
<path d="M193.963 209.11H144.632V278.99H193.963V209.11Z" fill="#C2E7FA"/>
<path d="M255.845 11.7591H206.294V279H255.845V11.7591Z" fill="#C2E7FA"/>
<path d="M213.986 89.592H193.957V98.4178H213.986V89.592Z" fill="#C2E7FA"/>
<path d="M210.348 80.766H193.963V89.5919H210.348V80.766Z" fill="#C2E7FA"/>
<path d="M206.872 71.9401H193.963V80.766H206.872V71.9401Z" fill="#C2E7FA"/>
<path d="M171.37 98.4083H146.707V278.99H171.37V98.4083Z" fill="#C2E7FA"/>
<path d="M196.032 128.94H171.37V279H196.032V128.94Z" fill="#C2E7FA"/>
<path d="M146.707 57.9156H109.488V278.99H146.707V57.9156Z" fill="#C2E7FA"/>
<path d="M166.731 89.5919H146.702V98.4178H166.731V89.5919Z" fill="#C2E7FA"/>
<path d="M163.093 80.766H146.707V89.5919H163.093V80.766Z" fill="#C2E7FA"/>
<path d="M159.617 71.9401H146.707V80.766H159.617V71.9401Z" fill="#C2E7FA"/>
<path d="M74.003 98.4083H49.3408V278.99H74.003V98.4083Z" fill="#C2E7FA"/>
<path d="M49.3408 128.94H24.6786V279H49.3408V128.94Z" fill="#C2E7FA"/>
<path d="M104.473 103.907H79.8107V279H104.473V103.907Z" fill="#C2E7FA"/>
<path d="M24.6726 191.817H0.0104408V278.99H24.6726V191.817Z" fill="#DEF2FC"/>
<path d="M111.551 147H62V278.846H111.551V147Z" fill="#C2E7FA"/>
<path d="M69.3639 89.592H49.3348V98.4179H69.3639V89.592Z" fill="#C2E7FA"/>
<path d="M42.722 240.748H22.693V249.574H42.722V240.748Z" fill="#C2E7FA"/>
<path d="M65.7266 80.7661H49.3408V89.592H65.7266V80.7661Z" fill="#C2E7FA"/>
<path d="M62.2503 71.9401H49.3408V80.766H62.2503V71.9401Z" fill="#C2E7FA"/>
<path d="M188.245 145.865H155.819V154.69H188.245V145.865Z" fill="#C2E7FA"/>
<path d="M188.245 177.492H155.819V186.318H188.245V177.492Z" fill="#C2E7FA"/>
<path d="M188.245 209.11H155.819V217.936H188.245V209.11Z" fill="#C2E7FA"/>
<path d="M63.9676 209.11H31.5418V217.936H63.9676V209.11Z" fill="#C2E7FA"/>
<path d="M63.9676 240.748H31.5418V249.574H63.9676V240.748Z" fill="#C2E7FA"/>
<path d="M339.298 217.731C330.468 220.84 319.817 220.525 311.78 215.393C303.883 210.347 296.683 206.702 286.965 206.883C278.283 207.04 271.099 211.715 262.689 212.712C256.02 213.501 249.244 210.606 244.407 205.959C239.69 201.425 236.556 194.514 238.604 188.312C239.679 185.062 242.026 182.387 243.367 179.238C246.455 171.978 238.321 167.602 240.341 159.958C242.06 153.458 249.221 148.823 249.119 142.103C249.04 137.186 245.216 133.373 243.87 128.822C242.513 124.231 242.812 119.089 245.211 114.893C246.97 111.812 249.804 109.288 253.079 107.897C256.025 106.647 259.312 106.624 261.591 104.061C265.647 99.4933 267.14 94.548 272.706 91.2079C277.418 88.3804 283.645 88.2001 289.053 88.6958C301.067 89.7941 312.73 96.1082 319.501 106.168C321.899 109.733 323.63 113.383 323.692 117.619C323.76 122.249 323.754 126.907 326.605 130.844C328.997 134.15 332.838 136.082 336.645 137.575C340.451 139.067 344.445 140.273 347.788 142.621C351.131 144.97 353.783 148.806 353.393 152.861C353.065 156.258 350.706 159.209 350.39 162.606C349.818 168.779 355.791 173.268 359.474 178.27C364.632 185.271 365.486 195.173 361.606 202.946C357.138 211.896 349.021 213.918 340.514 217.286C340.118 217.432 339.711 217.584 339.298 217.731Z" fill="#0B2D4E"/>
<path d="M275.093 102.27C278.012 100.569 281.405 99.7918 284.782 99.6566C288.165 99.5271 291.558 99.9608 294.845 100.778C301.434 102.428 307.436 106.337 311.621 111.71C313.692 114.414 315.292 117.484 316.242 120.762C317.198 124.051 317.391 127.487 317.351 130.855C317.317 134.229 317.074 137.58 317.187 140.898C317.255 142.543 317.464 144.187 317.968 145.725C318.46 147.257 319.32 148.671 320.592 149.589C321.848 150.535 323.454 150.935 325.083 151.132C326.718 151.324 328.421 151.335 330.117 151.56C333.483 152.011 336.905 152.811 339.841 154.731C341.283 155.689 342.578 157.024 343.206 158.714C343.857 160.398 343.726 162.239 343.291 163.924C342.782 165.625 341.815 167.05 341.142 168.537C340.468 170.024 340.033 171.623 339.886 173.257C339.575 176.535 340.418 179.824 341.594 182.939C342.742 186.076 344.128 189.168 344.931 192.464C345.327 194.108 345.565 195.804 345.542 197.499C345.52 199.194 345.208 200.884 344.654 202.478C343.545 205.672 341.458 208.511 338.76 210.516C341.413 208.443 343.415 205.576 344.434 202.399C345.497 199.217 345.355 195.77 344.479 192.571C343.636 189.343 342.233 186.29 341.028 183.147C339.807 180.021 338.873 176.642 339.156 173.189C339.286 171.477 339.722 169.781 340.412 168.204C341.113 166.633 342.052 165.23 342.499 163.693C342.889 162.138 342.997 160.488 342.414 159.018C341.86 157.548 340.706 156.348 339.36 155.458C336.628 153.672 333.291 152.889 330.016 152.473C328.375 152.259 326.695 152.259 324.981 152.067C323.285 151.87 321.492 151.459 320.027 150.366C318.562 149.29 317.606 147.674 317.085 146.023C316.548 144.362 316.35 142.638 316.282 140.937C316.186 137.541 316.44 134.19 316.486 130.849C316.537 127.515 316.361 124.175 315.451 120.993C314.534 117.821 313.024 114.819 311.044 112.161C307.034 106.872 301.197 102.957 294.737 101.239C291.513 100.361 288.159 99.8538 284.799 99.9045C281.439 99.9439 278.051 100.637 275.093 102.27Z" fill="#73B8D4"/>
<path d="M317.6 176.704C317.911 184.291 316.146 189.991 309.178 193.748C303.629 196.739 296.977 197.719 290.851 197.871C280.579 198.124 269.131 195.483 261.444 188.295C260.047 186.989 258.712 185.395 258.61 183.491C258.52 181.762 259.476 180.134 259.561 178.399C259.702 175.481 257.423 173.065 256.404 170.328C255.058 166.712 255.975 162.673 257.179 159.006C258.39 155.34 259.9 151.639 259.719 147.786C259.481 142.79 256.467 138.425 254.051 134.038C251.636 129.65 249.736 124.31 251.8 119.748C253.158 116.74 256.404 114.431 259.719 114.065C263.22 113.676 266.365 117.664 268.611 119.855C271.631 122.806 274.991 125.414 278.605 127.6C283.606 130.624 289.098 132.855 293.804 136.319C296.649 138.414 299.703 141.292 301.067 144.632C302.6 148.395 299.918 152.039 303.159 155.497C305.252 157.728 308.465 158.488 310.993 160.217C316.418 163.895 317.351 170.711 317.6 176.704Z" fill="#061F33"/>
<path d="M260.862 219.167C268.073 208.099 272.565 194.514 266.297 182.015C265.664 180.748 264.9 179.368 263.548 178.917C260.647 177.954 256.71 178.991 254.187 180.466C245.431 185.575 240.08 195.201 235.159 203.762C230.052 212.656 225.611 221.916 220.481 230.798C218.4 234.398 216.301 238.042 215.187 242.041C214.208 245.544 214.101 249.555 215.436 252.985C221.2 267.804 237.043 249.65 241.868 244.17C248.751 236.341 255.177 227.892 260.862 219.167Z" fill="#EFB126"/>
<path d="M326.135 206.781C328.211 198.04 329.286 189.095 324.586 183.136C322.464 180.444 318.68 178.574 315.586 177.244C309.551 174.648 303.38 171.156 296.921 170.024C290.11 168.83 282.537 168.092 275.743 169.804C271.433 170.885 267.4 172.896 263.543 175.059C260.2 176.935 256.093 178.557 254.47 182.049C250.533 190.52 247.043 199.358 244.142 208.229C241.715 215.653 239.057 223.437 242.875 230.962C244.113 233.401 245.912 235.485 247.326 237.816C248.904 240.413 249.492 242.852 249.696 245.843C250.166 252.675 249.985 259.524 249.962 266.362C249.956 268.333 249.984 270.384 250.85 272.152C252.558 275.644 257.202 275.695 260.545 275.689C271.569 275.672 282.593 275.65 293.617 275.633C298.205 275.627 301.711 276.185 306.016 277.064C309.642 277.807 312.753 275.982 314.489 272.625C316.135 269.449 316.26 265.737 316.435 262.16C317.119 248.259 319.099 234.426 322.34 220.891C323.279 217.066 324.885 212.053 326.135 206.781Z" fill="#FFC73C"/>
<path d="M300.603 181.351C303.199 177.002 303.787 171.573 300.388 167.382C298.832 165.467 296.083 165.253 293.73 165.208C289.104 165.123 284.465 165.613 279.957 166.661C275.664 167.664 271.281 169.353 269.42 173.674C268.039 176.884 268.52 180.596 270.342 183.53C271.993 186.195 274.737 188.172 277.802 188.898C282.746 190.07 288.532 189.912 293.25 187.941C296.208 186.701 298.855 184.268 300.603 181.351Z" fill="#EFB126"/>
<path d="M330.044 246.868C330.01 240.165 329.976 233.457 329.942 226.754C329.931 224.422 331.452 210.212 327.804 210.375C327.408 210.392 327.052 210.595 326.729 210.82C324.914 212.11 323.986 214.278 323.138 216.328C320.479 222.766 318.251 233.08 312.719 237.586C307.096 242.17 298.448 244.102 291.462 245.201C283.3 246.485 275.008 246.581 266.761 247.082C261.427 247.403 255.545 248.169 252.038 252.185C249.538 255.052 248.259 259.355 246.924 262.859C245.759 265.923 244.826 269.561 247.196 272.332C248.208 273.515 249.611 274.293 251.02 274.957C256.167 277.374 261.789 278.59 267.4 279.525C283.102 282.144 299.11 282.685 315.015 281.93C318.415 281.767 322.102 281.429 324.608 279.142C326.475 277.436 327.352 274.929 327.979 272.485C330.117 264.16 330.084 255.457 330.044 246.868Z" fill="#EFB126"/>
<path d="M254.849 132.37C248.831 138.532 254.289 153.594 263.882 151.414C274.194 149.071 272.638 133.074 263.316 130.45C259.685 129.424 256.783 130.388 254.849 132.37Z" fill="#57B8E8"/>
<path d="M336.967 216.717C342.997 217.483 349.349 216.954 354.734 214.149C361.589 210.578 365.023 204.021 365.164 196.485C365.266 191.027 364.208 185.333 360.893 180.979C357.296 176.242 351.261 173.336 349.027 167.833C347.579 164.267 347.924 159.418 350.791 156.658C352.618 154.9 354.044 152.923 353.812 150.293C353.467 146.423 350.622 142.7 347.448 140.611C342.788 137.547 336.996 136.42 331.543 135.733C327.849 135.265 324.173 134.235 323.03 130.275C322.414 128.14 322.538 125.887 322.419 123.691C322.176 119.01 321.831 114.329 321.13 109.688C320.321 104.343 316.831 99.1667 312.945 95.483C312.385 94.9536 311.808 94.4466 311.208 93.9622C301.18 85.874 282.621 83.007 271.563 90.5039C267.791 93.061 265.149 96.97 264.312 101.442C263.752 104.433 262.937 105.075 260.007 105.982C254.679 107.627 248.638 108.798 244.407 112.685C241.098 115.726 239.577 120.334 240.018 124.755C240.578 130.399 244.543 133.097 247.383 137.575C250.279 142.143 247.999 147.888 244.639 151.656C242.049 154.557 238.372 156.68 236.907 160.279C235.561 163.591 236.455 167.421 238.078 170.604C238.74 171.894 239.515 173.127 240.097 174.451C241.868 178.489 241.687 183.322 239.616 187.214" stroke="#0B2D4E" stroke-width="15" stroke-miterlimit="10"/>
<path d="M354.061 225.453C355.905 228.765 357.737 232.083 359.536 235.423C363.19 242.199 369.972 257.254 359.112 260.977C353.642 262.853 350.514 261.017 346.894 257.052C333.217 242.041 321.554 225.211 312.306 207.153C308.867 200.434 299.732 182.922 310.824 178.917C314.325 177.656 318.364 177.949 321.644 179.706C323.143 180.511 324.478 181.593 325.745 182.719C333.754 189.827 339.456 199.003 344.524 208.313C347.675 214.064 350.887 219.747 354.061 225.453Z" fill="#FFC73C"/>
<path d="M291.202 183.564C294.505 182.511 297.226 180.466 298.244 177.211C299.172 174.259 297.712 170.942 297.452 167.962C297.203 165.106 297.169 162.24 297.362 159.384C297.537 156.742 297.792 153.994 297.379 151.358C297.147 149.854 296.315 150.113 294.788 149.51C293.261 148.913 291.547 148.907 289.884 148.913C286.485 148.919 277.616 148.676 275.517 151.645C274.55 153.008 274.476 154.726 274.431 156.348C274.375 158.308 274.029 160.848 273.707 163.586C273.566 164.802 273.65 166.019 273.464 167.224C273.255 168.582 272.74 169.877 272.287 171.173C270.579 176.079 272.18 180.748 277.508 182.99C281.326 184.617 286.784 184.978 291.202 183.564Z" fill="#F8A17A"/>
<path d="M297.362 151.363C297.13 149.859 296.298 150.118 294.771 149.516C293.244 148.919 291.53 148.913 289.867 148.919C286.468 148.924 277.599 148.682 275.5 151.65C274.533 153.013 274.459 154.731 274.414 156.354C274.358 158.314 274.012 160.854 273.69 163.591C273.549 164.808 273.634 166.025 273.447 167.23C273.288 168.261 272.949 169.258 272.598 170.249C275.896 171.466 279.618 171.741 283.057 170.897C289.251 169.376 293.945 165.54 297.288 160.544C297.305 160.155 297.316 159.767 297.345 159.378C297.514 156.748 297.769 153.994 297.362 151.363Z" fill="#E5785C"/>
<path d="M302.3 132.027C302.271 127.504 301.644 123.217 300.478 119.652C295.439 104.281 276.185 100.485 264.589 111.519C251.659 123.82 256.608 153.239 270.228 163.569C273.871 166.329 278.815 167.303 283.238 166.12C296.615 162.549 302.385 146.153 302.3 132.027Z" fill="#F8A17A"/>
<path d="M299.766 132.41C305.688 129.182 307.515 137.349 306.491 141.416C306.073 143.095 305.405 144.734 304.359 146.114C302.95 147.972 298.917 151.059 296.598 149.026C295.546 148.102 295.439 146.536 295.405 145.139C295.32 141.388 295.75 134.595 299.766 132.41Z" fill="#F8A17A"/>
<path d="M280.472 159.311C279.018 159.311 277.559 159.204 276.094 158.99L276.354 157.221C281.671 158.004 286.971 157.266 291.688 155.086C292.967 154.495 294.053 153.875 295.009 153.188C296.74 151.938 298.227 150.31 299.308 148.474L300.857 149.375C299.653 151.425 297.995 153.244 296.066 154.636C295.02 155.39 293.838 156.066 292.452 156.708C288.713 158.432 284.641 159.311 280.472 159.311Z" fill="#2F95D2"/>
<path d="M270.902 155.807C273.068 153.954 277.881 154.117 279.471 156.038C280.647 157.463 280.291 159.271 278.99 160.477C277.457 161.902 275.562 161.817 273.651 161.389C271.264 160.848 268.294 158.038 270.902 155.807Z" fill="#2F95D2"/>
<path d="M302.328 120.289C297.022 104.106 276.75 100.113 264.544 111.727C261.846 114.296 259.9 117.574 258.605 121.257C258.876 121.674 259.182 122.097 259.544 122.519C261.218 124.451 263.531 125.713 265.856 126.783C272.649 129.909 279.974 131.745 287.333 133.119C287.876 133.221 288.419 133.322 288.962 133.429C290.987 133.829 293.001 134.325 294.766 135.361C299.766 138.296 297.616 144.751 301.282 147.578C301.615 147.832 301.949 148.001 302.283 148.119C303.635 143.297 304.268 138.183 304.24 133.322C304.217 128.557 303.555 124.04 302.328 120.289Z" fill="#E5785C"/>
<path d="M289.494 131.576C291.428 132.291 293.334 133.103 294.913 134.404C299.381 138.093 296.225 144.125 299.387 147.499C302.192 150.49 306.446 146.536 307.56 143.776C309.613 138.69 309.495 133.029 309.342 127.543C309.257 124.485 309.167 121.387 308.267 118.464C307.283 115.276 305.371 112.431 303.097 109.981C296.525 102.918 286.603 99.2455 276.999 99.8482C269.487 100.321 256.308 106.607 262.202 116.126C263.548 118.3 265.624 119.911 267.751 121.336C273.956 125.504 280.896 128.478 287.938 131.002C288.447 131.199 288.973 131.385 289.494 131.576Z" fill="#0B2D4E"/>
<path d="M302.255 130.083C293.895 132.218 290.665 147.905 299.992 151.025C310.015 154.382 317.068 139.923 310.49 132.843C307.922 130.083 304.947 129.396 302.255 130.083Z" fill="#57B8E8"/>
<path d="M304.998 132.1C299.228 133.024 295.67 145.235 301.621 148.592C308.013 152.202 314.008 141.332 310.252 135.068C308.782 132.624 306.853 131.801 304.998 132.1Z" fill="#2F95D2"/>
<path d="M306.163 131.182L303.934 130.923C305.445 117.906 304.8 101.273 293.142 95.9618C287.622 93.444 271.807 90.6559 264.849 100.006C264.012 100.941 263.452 101.729 263.452 101.729C267.768 88.4705 288.119 91.2136 294.076 93.9284C306.961 99.8031 307.758 117.427 306.163 131.182Z" fill="#57B8E8"/>
<path d="M433.639 260.308H118.696V282.246H433.639V260.308Z" fill="white"/>
<path d="M264.052 253.7H218.411V262.6H264.052V253.7Z" fill="#2F95D2"/>
<path d="M226.245 254.562L214.729 196.17C214.423 194.626 213.066 193.517 211.488 193.517H134.913C133.804 193.517 132.854 194.063 132.26 194.874L132.248 194.863L128.713 199.025L131.852 198.338L143.193 255.829C143.499 257.373 144.856 258.482 146.434 258.482H223.004C225.08 258.488 226.641 256.595 226.245 254.562Z" fill="#2F95D2"/>
<path d="M142.933 262.6H219.503C221.584 262.6 223.145 260.707 222.744 258.679L211.227 200.287C210.922 198.744 209.565 197.634 207.986 197.634H131.411C129.33 197.634 127.769 199.527 128.17 201.554L139.686 259.947C139.992 261.484 141.349 262.6 142.933 262.6Z" fill="#0B2D4E"/>
<path d="M167.018 228.664C167.725 232.601 171.503 235.794 175.457 235.794C179.411 235.794 182.001 232.601 181.238 228.664C180.474 224.726 176.696 221.533 172.799 221.533C168.896 221.533 166.311 224.726 167.018 228.664Z" fill="#2F95D2"/>
<path d="M386.907 227.734C387.75 226 387.603 224.169 387.065 222.513C386.556 220.818 385.64 219.364 384.65 217.765C383.649 216.193 382.631 214.481 382.008 212.414C381.375 210.33 381.556 207.987 382.139 206.01C383.394 201.977 385.973 199.003 387.744 195.956C388.632 194.418 389.362 192.852 389.65 191.123C389.972 189.411 389.865 187.586 389.017 185.862C390.482 187.141 391.194 189.208 391.29 191.213C391.381 193.241 390.866 195.291 390.091 197.099C388.553 200.766 386.245 203.74 385.346 206.956C384.837 208.55 384.712 210.093 385.074 211.637C385.374 213.219 386.205 214.819 386.958 216.548C387.75 218.238 388.508 220.192 388.677 222.203C388.841 224.197 388.389 226.439 386.907 227.734Z" fill="white"/>
<path d="M393.779 262.408H381.607C378.683 262.408 376.318 260.048 376.318 257.142V229.954H399.074V257.142C399.068 260.054 396.698 262.408 393.779 262.408Z" fill="#57B8E8"/>
<path d="M400.657 237.293C395.199 237.293 390.776 241.765 390.776 247.273C390.776 252.782 395.199 257.254 400.657 257.254C406.116 257.254 410.539 252.782 410.539 247.273C410.539 241.765 406.116 237.293 400.657 237.293ZM400.657 253.7C397.145 253.7 394.3 250.822 394.3 247.279C394.3 243.736 397.145 240.858 400.657 240.858C404.17 240.858 407.015 243.736 407.015 247.279C407.015 250.822 404.17 253.7 400.657 253.7Z" fill="#57B8E8"/>
<path opacity="0.2" d="M379.718 250.09C379.039 250.09 378.485 249.538 378.485 248.867V233.074C378.485 232.398 379.039 231.852 379.718 231.852C380.396 231.852 380.945 232.404 380.945 233.074V248.867C380.945 249.538 380.391 250.09 379.718 250.09Z" fill="white"/>
<path d="M393.813 229.954V256.674C393.813 259.845 391.234 262.414 388.049 262.414H393.304C396.489 262.414 399.068 259.845 399.068 256.674V229.954H393.813Z" fill="#2F95D2"/>
<path d="M338.817 111.508H417.937C421.818 111.508 424.991 108.348 424.991 104.484V62.1611C424.991 58.2972 421.818 55.1373 417.937 55.1373H338.817C334.937 55.1373 331.763 58.2972 331.763 62.1611V104.484C331.763 108.348 334.937 111.508 338.817 111.508Z" fill="#0098D7"/>
<path d="M344.032 126.349V100.44L364.406 111.507L344.032 126.349Z" fill="#0098D7"/>
<path d="M389.644 85.8627H348.433C347.075 85.8627 345.961 84.7587 345.961 83.4013C345.961 82.0495 347.069 80.9399 348.433 80.9399H389.644C391.002 80.9399 392.116 82.0438 392.116 83.4013C392.111 84.7531 391.002 85.8627 389.644 85.8627Z" fill="#E1F4FD"/>
<path d="M408.322 85.8627H398.135C396.777 85.8627 395.663 84.7587 395.663 83.4013C395.663 82.0495 396.771 80.9399 398.135 80.9399H408.322C409.679 80.9399 410.793 82.0438 410.793 83.4013C410.788 84.7531 409.679 85.8627 408.322 85.8627Z" fill="#E1F4FD"/>
<path d="M367.11 69.7706H408.322C409.679 69.7706 410.793 70.8746 410.793 72.232C410.793 73.5838 409.685 74.6934 408.322 74.6934H367.11C365.752 74.6934 364.638 73.5894 364.638 72.232C364.638 70.8802 365.747 69.7706 367.11 69.7706Z" fill="#E1F4FD"/>
<path d="M348.433 69.7706H358.62C359.977 69.7706 361.091 70.8746 361.091 72.232C361.091 73.5838 359.983 74.6934 358.62 74.6934H348.433C347.075 74.6934 345.961 73.5894 345.961 72.232C345.961 70.8802 347.075 69.7706 348.433 69.7706Z" fill="#E1F4FD"/>
<path d="M375.905 96.0688H348.433C347.075 96.0688 345.961 94.9648 345.961 93.6074C345.961 92.2556 347.069 91.146 348.433 91.146H375.905C377.263 91.146 378.377 92.2499 378.377 93.6074C378.377 94.9648 377.263 96.0688 375.905 96.0688Z" fill="#E1F4FD"/>
<path d="M300.659 249.115C301.593 248.958 302.526 248.805 303.465 248.659C308.018 247.949 312.555 247.104 317.068 246.124C326.005 244.192 334.988 242.531 344.083 241.669C345.044 241.579 346.012 241.494 346.979 241.421C351.057 241.117 355.328 241.016 359.061 242.953C362.794 244.896 365.764 249.487 364.853 253.914C364.214 257.023 361.821 259.366 359.168 260.549C356.515 261.732 353.591 261.935 350.723 262.126C341.436 262.752 332.154 263.371 322.866 263.996C318.268 264.3 313.669 264.616 309.076 264.937C304.687 265.241 300.23 265.861 295.829 265.855C293.968 265.855 291.886 265.506 290.325 264.267C288.148 262.549 286.841 258.888 286.632 256.021C286.524 254.534 286.813 252.731 287.955 251.813C288.566 251.323 289.347 251.171 290.093 251.036C293.617 250.388 297.13 249.712 300.659 249.115Z" fill="#FFC73C"/>
<path d="M290.241 263.202C287.995 263.664 286.242 265.63 284.007 266.283C282.412 266.751 280.704 266.503 279.171 265.928C277.763 265.404 276.332 265.123 274.884 264.661C273.758 264.3 272.236 263.546 271.02 263.794C267.847 264.453 264.68 266.7 261.801 268.159C261.156 268.485 260.443 268.823 259.73 268.688C259.018 268.553 258.424 267.691 258.825 267.094C258 267.866 256.902 269.404 255.567 268.806C255.019 268.564 254.691 267.843 254.996 267.325C254.538 267.826 254.057 268.345 253.424 268.592C252.79 268.84 251.959 268.733 251.585 268.164C251.41 267.9 251.359 267.567 251.342 267.252C251.285 266.154 251.619 265.072 252.077 264.075C254.346 259.152 259.47 255.497 263.831 252.562C264.6 252.044 265.387 251.515 266.28 251.244C267.078 251.002 267.921 250.974 268.758 250.974C274.165 250.951 279.578 251.819 284.703 253.537C285.812 253.909 287.033 253.593 288.136 253.385C288.957 253.233 289.811 253.081 290.608 253.311C291.502 253.571 292.198 254.275 292.741 255.029C293.742 256.415 294.511 258.246 294.387 259.986C294.296 261.304 294.194 262.729 292.633 263.011C292 263.123 291.349 263.056 290.71 263.118C290.552 263.146 290.399 263.168 290.241 263.202Z" fill="#F8A17A"/>
</svg>
