<svg width="46" height="46" viewBox="0 0 46 46" fill="none" xmlns="http://www.w3.org/2000/svg">
<path d="M23.085 45.83C35.719 45.83 46 35.549 46 22.915C46 10.281 35.719 0 23.085 0C10.451 0 0.169998 10.281 0.169998 22.915C0.169998 35.549 10.451 45.83 23.085 45.83ZM23.085 2.36237C34.4197 2.36237 43.6376 11.5803 43.6376 22.915C43.6376 34.2497 34.4197 43.4676 23.085 43.4676C11.7503 43.4676 2.53237 34.2497 2.53237 22.915C2.53237 11.5803 11.7503 2.36237 23.085 2.36237Z" fill="#98BAAB"/>
<path d="M20.1413 34.1457L31.3721 22.915L20.1413 11.6843L18.4687 13.3569L28.0269 22.915L18.4687 32.4731L20.1413 34.1457Z" fill="#98BAAB"/>
</svg>
