<svg width="46" height="46" viewBox="0 0 46 46" fill="none" xmlns="http://www.w3.org/2000/svg">
<path d="M22.9091 45.8325C10.2784 45.8325 0 35.5509 0 22.9163C0 10.2816 10.2784 0 22.9091 0C35.5398 0 45.8182 10.2816 45.8182 22.9163C45.8182 35.5509 35.5398 45.8325 22.9091 45.8325ZM22.9091 2.3625C11.5774 2.3625 2.36176 11.581 2.36176 22.9163C2.36176 34.2515 11.5774 43.47 22.9091 43.47C34.2409 43.47 43.4565 34.2515 43.4565 22.9163C43.4565 11.581 34.2409 2.3625 22.9091 2.3625Z" fill="#98BAAB"/>
<path d="M25.8519 34.1476L14.624 22.9163L25.8519 11.6849L27.524 13.3576L17.9683 22.9163L27.524 32.4749L25.8519 34.1476Z" fill="#98BAAB"/>
</svg>
