<svg width="75" height="76" fill="none" xmlns="http://www.w3.org/2000/svg"><g filter="url(#filter0_d_6:328)"><path d="M6 33.625C6 16.159 20.241 2 37.809 2c3.237 0 6.362.481 9.306 1.375" stroke="#fff" stroke-width="4" stroke-linecap="round" stroke-linejoin="round"/><path fill-rule="evenodd" clip-rule="evenodd" d="M30.963 40.43c3.78 3.76 9.91 3.76 13.69 0 3.781-3.758 19.432-30.18 18.049-31.555C61.319 7.5 34.744 23.06 30.963 26.819a9.586 9.586 0 000 13.612zm6.845-4.055a2.758 2.758 0 002.766-2.75 2.758 2.758 0 00-2.766-2.75 2.758 2.758 0 00-2.766 2.75 2.758 2.758 0 002.766 2.75z" fill="#fff"/><ellipse cx="10.149" cy="50.125" rx="2.766" ry="2.75" fill="#fff"/><ellipse cx="21.213" cy="61.125" rx="2.766" ry="2.75" fill="#fff"/><ellipse cx="37.808" cy="65.25" rx="2.766" ry="2.75" fill="#fff"/><ellipse cx="54.404" cy="61.125" rx="2.766" ry="2.75" fill="#fff"/><ellipse cx="64.085" cy="50.125" rx="2.766" ry="2.75" fill="#fff"/><ellipse cx="68.234" cy="33.625" rx="2.766" ry="2.75" fill="#fff"/></g><defs><filter id="filter0_d_6:328" x="0" y="0" width="75" height="76" filterUnits="userSpaceOnUse" color-interpolation-filters="sRGB"><feFlood flood-opacity="0" result="BackgroundImageFix"/><feColorMatrix in="SourceAlpha" values="0 0 0 0 0 0 0 0 0 0 0 0 0 0 0 0 0 0 127 0" result="hardAlpha"/><feOffset dy="4"/><feGaussianBlur stdDeviation="2"/><feComposite in2="hardAlpha" operator="out"/><feColorMatrix values="0 0 0 0 0 0 0 0 0 0 0 0 0 0 0 0 0 0 0.25 0"/><feBlend in2="BackgroundImageFix" result="effect1_dropShadow_6:328"/><feBlend in="SourceGraphic" in2="effect1_dropShadow_6:328" result="shape"/></filter></defs></svg>