<svg width="41" height="25" viewBox="0 0 41 25" fill="none" xmlns="http://www.w3.org/2000/svg">
<path fill-rule="evenodd" clip-rule="evenodd" d="M28.5275 24.7175L29.1407 24.7013L29.7472 24.6572L30.3411 24.5811L30.9306 24.4761L31.5042 24.3435L32.0703 24.1824L32.6237 23.993L33.166 23.7798L33.6954 23.5387L34.2093 23.2767L34.7064 22.9865L35.1925 22.6769L35.6579 22.3431L36.1067 21.9885L36.5402 21.6142L36.9539 21.2161L37.3507 20.8015L37.7239 20.3659L38.0778 19.9158L38.4104 19.4485L38.7197 18.9619L39.0072 18.462L39.2684 17.9468L39.5097 17.4161L39.7222 16.8721L39.9103 16.317L40.0719 15.7501L40.2038 15.1743L40.3078 14.5827L40.3841 13.9864L40.429 13.3786L40.4441 12.7632L40.429 12.1513L40.3841 11.5473L40.3078 10.9519L40.2038 10.3679L40.0719 9.79275L39.9103 9.22906L39.7222 8.67361L39.5097 8.13402L39.2684 7.60744L39.0072 7.09133L38.7197 6.59679L38.4104 6.11017L38.0778 5.64291L37.7239 5.19595L37.3507 4.762L36.9539 4.34708L36.5402 3.95246L36.1067 3.57783L35.6579 3.22381L35.1925 2.88978L34.7064 2.57954L34.2093 2.29437L33.6954 2.03298L33.166 1.79062L32.6237 1.57745L32.0703 1.38839L31.5042 1.22725L30.9306 1.09401L30.3411 0.990285L29.7472 0.913518L29.1407 0.86879L28.5275 0.852295L27.9165 0.86879L27.3106 0.913518L26.7177 0.990285L26.1314 1.09401L25.5577 1.22725L24.9926 1.38839L24.4424 1.57745L23.9 1.79062L23.3745 2.03298L22.865 2.29437L22.3676 2.57954L21.8866 2.88978L21.4214 3.22381L20.9717 3.57783L20.5423 3.95246L20.1283 4.34708L19.7356 4.762L19.3618 5.19595L19.0092 5.64291L18.6806 6.11017L18.3713 6.59679L18.0864 7.09133L17.8214 7.60744L17.5849 8.13402L17.3717 8.67361L17.1877 9.22906L17.0264 9.79275L16.8942 10.3679L16.7902 10.9519L16.7146 11.5473L16.6697 12.1513L16.6532 12.7632L16.6697 13.3786L16.7146 13.9864L16.7902 14.5827L16.8942 15.1743L17.0264 15.7501L17.1877 16.317L17.3717 16.8721L17.5849 17.4161L17.8214 17.9468L18.0864 18.462L18.3713 18.9619L18.6806 19.4485L19.0092 19.9158L19.3618 20.3659L19.7356 20.8015L20.1283 21.2161L20.5423 21.6142L20.9717 21.9885L21.4214 22.3431L21.8866 22.6769L22.3676 22.9865L22.865 23.2767L23.3745 23.5387L23.9 23.7798L24.4424 23.993L24.9926 24.1824L25.5577 24.3435L26.1314 24.4761L26.7177 24.5811L27.3106 24.6572L27.9165 24.7013L28.5275 24.7175Z" fill="#FBB231"/>
<path fill-rule="evenodd" clip-rule="evenodd" d="M12.6137 24.7175L13.2224 24.7013L13.8289 24.6572L14.4231 24.5811L15.0088 24.4761L15.5821 24.3435L16.1479 24.1824L16.6981 23.993L17.2395 23.7798L17.7648 23.5387L18.2752 23.2767L18.7723 22.9865L19.2536 22.6769L19.7197 22.3431L20.1691 21.9885L20.5979 21.6142L21.0113 21.2161L21.405 20.8015L21.7781 20.3659L22.1307 19.9158L22.4596 19.4485L22.7692 18.9619L23.0544 18.462L23.3185 17.9468L23.5554 17.4161L23.7685 16.8721L23.9525 16.317L24.1132 15.7501L24.2457 15.1743L24.35 14.5827L24.4259 13.9864L24.4699 13.3786L24.4863 12.7632L24.4699 12.1513L24.4259 11.5473L24.35 10.9519L24.2457 10.3679L24.1132 9.79275L23.9525 9.22906L23.7685 8.67361L23.5554 8.13402L23.3185 7.60744L23.0544 7.09133L22.7692 6.59679L22.4596 6.11017L22.1307 5.64291L21.7781 5.19595L21.405 4.762L21.0113 4.34708L20.5979 3.95246L20.1691 3.57783L19.7197 3.22381L19.2536 2.88978L18.7723 2.57954L18.2752 2.29437L17.7648 2.03298L17.2395 1.79062L16.6981 1.57745L16.1479 1.38839L15.5821 1.22725L15.0088 1.09401L14.4231 0.990285L13.8289 0.913518L13.2224 0.86879L12.6137 0.852295L11.9989 0.86879L11.3936 0.913518L10.7991 0.990285L10.2087 1.09401L9.63537 1.22725L9.06962 1.38839L8.51558 1.57745L7.97451 1.79062L7.44481 2.03298L6.93093 2.29437L6.4335 2.57954L5.94776 2.88978L5.48258 3.22381L5.03321 3.57783L4.59966 3.95246L4.18697 4.34708L3.78946 4.762L3.41631 5.19595L3.06307 5.64291L2.73008 6.11017L2.42112 6.59679L2.13208 7.09133L1.87151 7.60744L1.63053 8.13402L1.41802 8.67361L1.22987 9.22906L1.06922 9.79275L0.936401 10.3679L0.832359 10.9519L0.755516 11.5473L0.711872 12.1513L0.695435 12.7632L0.711872 13.3786L0.755516 13.9864L0.832359 14.5827L0.936401 15.1743L1.06922 15.7501L1.22987 16.317L1.41802 16.8721L1.63053 17.4161L1.87151 17.9468L2.13208 18.462L2.42112 18.9619L2.73008 19.4485L3.06307 19.9158L3.41631 20.3659L3.78946 20.8015L4.18697 21.2161L4.59966 21.6142L5.03321 21.9885L5.48258 22.3431L5.94776 22.6769L6.4335 22.9865L6.93093 23.2767L7.44481 23.5387L7.97451 23.7798L8.51558 23.993L9.06962 24.1824L9.63537 24.3435L10.2087 24.4761L10.7991 24.5811L11.3936 24.6572L11.9989 24.7013L12.6137 24.7175Z" fill="#EC1C2E"/>
<path fill-rule="evenodd" clip-rule="evenodd" d="M19.1777 5.42972H25.4976V4.78101H19.7235L19.1777 5.42972Z" fill="#FBB231"/>
<path fill-rule="evenodd" clip-rule="evenodd" d="M18.2306 6.87063H25.4976V6.22192H18.6116L18.2306 6.87063Z" fill="#FBB231"/>
<path fill-rule="evenodd" clip-rule="evenodd" d="M17.5247 8.3074H25.4976V7.65869H17.8056L17.5247 8.3074Z" fill="#FBB231"/>
<path fill-rule="evenodd" clip-rule="evenodd" d="M17.039 9.74803H25.4977V9.10059H17.2395L17.039 9.74803Z" fill="#FBB231"/>
<path fill-rule="evenodd" clip-rule="evenodd" d="M17.3205 16.7119H25.5176V16.0635H17.119L17.3205 16.7119Z" fill="#FBB231"/>
<path fill-rule="evenodd" clip-rule="evenodd" d="M17.9258 18.1527H25.5176V17.5046H17.6247L17.9258 18.1527Z" fill="#FBB231"/>
<path fill-rule="evenodd" clip-rule="evenodd" d="M18.7755 19.5897H25.5176V18.9417H18.3713L18.7755 19.5897Z" fill="#FBB231"/>
<path fill-rule="evenodd" clip-rule="evenodd" d="M19.9481 21.0301H25.5176V20.3782H19.3823L19.9481 21.0301Z" fill="#FBB231"/>
<path fill-rule="evenodd" clip-rule="evenodd" d="M16.7541 11.1851H25.4976V10.5374H16.8784L16.7541 11.1851Z" fill="#FBB231"/>
<path fill-rule="evenodd" clip-rule="evenodd" d="M22.0826 15.2749H25.417V14.6265H22.2031L22.0826 15.2749Z" fill="#FBB231"/>
<path fill-rule="evenodd" clip-rule="evenodd" d="M22.348 13.8377H25.417V13.1858H22.4678L22.348 13.8377Z" fill="#FBB231"/>
<path fill-rule="evenodd" clip-rule="evenodd" d="M16.5334 13.1858H17.4008V13.8377H16.5742L16.5334 13.1858Z" fill="#FBB231"/>
<path fill-rule="evenodd" clip-rule="evenodd" d="M14.9158 12.4007L14.8598 12.3963L14.8042 12.3886L14.7517 12.381L14.7001 12.3731L14.6514 12.3648L14.5993 12.3566L14.5477 12.3493L14.4908 12.3401L14.4351 12.3328L14.3706 12.3284L14.2982 12.3242L14.2226 12.3198H14.1382L14.0455 12.3242L13.9409 12.3328L13.8251 12.3401L13.7448 12.3528L13.6686 12.3648L13.6 12.3886L13.5402 12.4127L13.4836 12.441L13.4324 12.4733L13.3913 12.5143L13.3546 12.5501L13.3312 12.5942L13.3112 12.6386L13.3027 12.6865V12.735L13.315 12.7877L13.3312 12.8397L13.3631 12.8921L13.4033 12.9447L13.4836 13.0205L13.5804 13.0808L13.6926 13.1335L13.8131 13.1776L13.9409 13.2185L14.0731 13.2619L14.2056 13.3111L14.3343 13.3631L14.4547 13.4313L14.5673 13.5157L14.6673 13.6169L14.7517 13.7416L14.8156 13.8942L14.8564 14.075L14.8719 14.2929L14.8564 14.5467L14.8282 14.7357L14.7798 14.9007L14.7153 15.0533L14.6356 15.1862L14.5436 15.3032L14.4383 15.4035L14.326 15.492L14.2027 15.5687L14.0731 15.6293L13.9409 15.6814L13.8046 15.7216L13.6645 15.7537L13.5275 15.7784L13.396 15.7898L13.2638 15.7984L13.1389 15.8016H12.9656L12.8056 15.7984H12.6649L12.5327 15.7946L12.4122 15.7898L12.3044 15.7819L12.2082 15.774L12.1156 15.7619L12.0311 15.7537L11.9552 15.7381L11.8787 15.7254L11.8107 15.7055L11.7418 15.6893L11.6785 15.6649L11.614 15.6414L11.5457 15.617L11.726 14.7275L11.7623 14.7357L11.8057 14.7481L11.8623 14.7633L11.9312 14.7805L12.003 14.7957L12.0833 14.8122L12.1715 14.8318L12.2674 14.8483L12.3682 14.8642L12.4729 14.8804L12.5807 14.8924L12.6933 14.9045L12.8091 14.9083L12.9267 14.9124H13.0418L13.1585 14.9083L13.2755 14.8842L13.3679 14.8521L13.4393 14.8081L13.4956 14.7519L13.5361 14.6948L13.5683 14.6301L13.5886 14.5667L13.6041 14.5064L13.6126 14.389L13.5766 14.2885L13.5076 14.2076L13.4074 14.14L13.2869 14.0794L13.1468 14.0188L12.9906 13.9624L12.834 13.898L12.6731 13.8256L12.521 13.7416L12.3806 13.6366L12.2519 13.5119L12.1516 13.3587L12.0795 13.1776L12.0431 12.9606L12.0469 12.7033L12.0675 12.546L12.096 12.3963L12.1355 12.2602L12.1832 12.1314L12.2478 12.0108L12.3202 11.9058L12.4049 11.805L12.5052 11.7171L12.6219 11.6406L12.7499 11.5759L12.8935 11.5153L13.0545 11.4716L13.2357 11.4344L13.4324 11.4069L13.648 11.3904L13.8858 11.3862H14.0332L14.1698 11.3904L14.2944 11.3951L14.4067 11.3989L14.5069 11.4069L14.5993 11.4148L14.6793 11.4227L14.7517 11.4313L14.82 11.4386L14.8766 11.4506L14.9285 11.4595L14.9768 11.4671L15.017 11.4747L15.0531 11.4795L15.0885 11.4874L15.1207 11.4915L14.9158 12.4007Z" fill="white"/>
<path fill-rule="evenodd" clip-rule="evenodd" d="M15.8671 10.4973H16.9793L16.8145 11.4715H17.4846L17.3398 12.381L16.6333 12.3606L16.2488 14.6062L16.2447 14.6868L16.2643 14.756L16.3047 14.808L16.3572 14.8521L16.4293 14.8803L16.5093 14.9044L16.5973 14.9203L16.6937 14.9288L16.7819 14.925L16.8619 14.9165L16.935 14.9044L16.9989 14.8886L17.0514 14.8721L17.0871 14.8603L17.1115 14.8521L17.119 14.8483L16.9793 15.5969L16.9508 15.6169L16.9227 15.6331L16.8942 15.6489L16.8667 15.6648L16.8382 15.6772L16.806 15.6892L16.7706 15.7013L16.7339 15.7136L16.6937 15.7254L16.6532 15.7336L16.6058 15.7416L16.558 15.7501L16.5056 15.758L16.4451 15.7663L16.3803 15.7739L16.3123 15.7818H16.0072L15.8465 15.7698L15.7064 15.7536L15.5787 15.7301L15.4702 15.7013L15.3772 15.6648L15.3013 15.6254L15.2333 15.5769L15.1812 15.5243L15.141 15.4681L15.1122 15.3996L15.0926 15.3308L15.0806 15.2549L15.0771 15.1699V15.0814L15.0885 14.9891L15.1012 14.8886L15.8671 10.4973Z" fill="white"/>
<path fill-rule="evenodd" clip-rule="evenodd" d="M27.9409 11.7125L27.889 11.6845L27.8371 11.6601L27.7802 11.6319L27.7201 11.6033L27.6597 11.5795L27.5924 11.5558L27.5238 11.5313L27.4523 11.5075L27.3758 11.4872L27.2983 11.4714L27.2151 11.4549L27.131 11.4428L27.0383 11.4343L26.9466 11.427H26.6494L26.5447 11.4343L26.4362 11.4469L26.3243 11.4669L26.2117 11.4987L26.0994 11.5434L25.9875 11.5998L25.8743 11.6719L25.7664 11.761L25.6615 11.8654L25.5609 11.9941L25.4657 12.1432L25.3772 12.3196L25.293 12.5214L25.2168 12.7475L25.153 13.0048L25.128 13.1491L25.1128 13.29L25.1043 13.4311L25.109 13.5679L25.1201 13.7049L25.1482 13.8337L25.1846 13.9545L25.2285 14.0748L25.2886 14.1842L25.3607 14.2883L25.4458 14.3809L25.5419 14.4656L25.6498 14.5385L25.774 14.5982L25.911 14.6508L26.0634 14.6867L26.1156 14.6984L26.1763 14.7108L26.2487 14.719L26.3284 14.7273L26.4163 14.7355H26.6086L26.7095 14.7273L26.8138 14.7149L26.9179 14.6946L27.0181 14.6667L27.119 14.635L27.2186 14.5903L27.3106 14.5385L27.3954 14.4738L27.4757 14.4015L27.2958 15.4762L27.2711 15.4959L27.247 15.5203L27.2151 15.5492L27.1791 15.5717L27.1351 15.6044L27.0785 15.6329L27.014 15.6609L26.9422 15.6847L26.8495 15.7135L26.7455 15.7335L26.6257 15.75L26.4843 15.7662L26.3284 15.7738L26.1472 15.7782L25.9435 15.7738L25.7181 15.7617L25.5334 15.7414L25.349 15.7011L25.1643 15.6412L24.98 15.5603L24.8035 15.4642L24.6343 15.3427L24.4746 15.2022L24.326 15.0417L24.1929 14.8602L24.0812 14.6594L23.9845 14.4339L23.913 14.188L23.8646 13.9184L23.8482 13.6326L23.8567 13.3188L23.9 12.9842L23.9329 12.8199L23.968 12.6587L24.0088 12.5017L24.0496 12.3526L24.0923 12.2118L24.1448 12.0712L24.1976 11.938L24.2536 11.8133L24.3146 11.6883L24.3741 11.5716L24.4424 11.4593L24.5138 11.3546L24.5869 11.2534L24.6669 11.1573L24.7469 11.0688L24.8313 10.9841L24.9234 10.9032L25.016 10.8271L25.1128 10.7586L25.213 10.6939L25.3209 10.6336L25.4293 10.5822L25.5419 10.5334L25.658 10.4886L25.7829 10.4487L25.9062 10.4166L26.0352 10.3881L26.1719 10.364L26.3078 10.3433L26.452 10.3281L26.5972 10.3202L26.7493 10.3154L26.879 10.3202L27.0026 10.3281L27.1231 10.3402L27.2429 10.3564L27.3555 10.3722L27.464 10.396L27.568 10.4166L27.6642 10.4404L27.7568 10.4645L27.8371 10.4886L27.9137 10.5131L27.9772 10.5372L28.0338 10.5571L28.0816 10.5736L28.1176 10.5895L28.142 10.5981L27.9409 11.7125Z" fill="white"/>
<path fill-rule="evenodd" clip-rule="evenodd" d="M37.82 15.7818H36.7085L36.7894 15.3355V15.2946L36.7249 15.3758L36.656 15.4475L36.5883 15.5122L36.5165 15.5686L36.4441 15.6213L36.3717 15.6647L36.2993 15.7012L36.2234 15.738L36.1472 15.7663L36.0709 15.7862L35.9944 15.8056L35.9141 15.8176L35.8347 15.83L35.7579 15.8383L35.6782 15.8424H35.5979L35.3891 15.8259L35.1962 15.7818L35.0195 15.7136L34.8588 15.6213L34.7143 15.5042L34.5862 15.3678L34.4733 15.2181L34.3772 15.0493L34.2978 14.8676L34.2333 14.6795L34.189 14.4822L34.1568 14.2766L34.1451 14.0714L34.1489 13.8623L34.1685 13.6564L34.2052 13.4518L34.2652 13.2133L34.337 12.9887L34.4221 12.7831L34.522 12.5903L34.6257 12.4088L34.7466 12.2477L34.8705 12.1033L35.0037 11.9704L35.1437 11.8531L35.2924 11.7528L35.4451 11.6643L35.5979 11.5961L35.7579 11.5393L35.9182 11.5035L36.0782 11.4794L36.2427 11.4715L36.36 11.4746L36.4719 11.4873L36.5769 11.5076L36.6724 11.5355L36.7651 11.5679L36.8457 11.6034L36.9257 11.6485L36.9981 11.6926L37.062 11.7405L37.1218 11.7934L37.174 11.8451L37.222 11.8978L37.2625 11.9505L37.2989 12.0022L37.3311 12.051L37.3545 12.0992L37.6363 10.5176H38.7273L37.82 15.7818Z" fill="white"/>
<path fill-rule="evenodd" clip-rule="evenodd" d="M36.002 14.808L36.1149 14.8001L36.2189 14.776L36.3157 14.748L36.408 14.7036L36.4921 14.6557L36.5725 14.5942L36.6487 14.5266L36.717 14.4533L36.7764 14.3731L36.8334 14.2846L36.8849 14.192L36.9298 14.0958L36.9697 13.9943L37.0019 13.89L37.0297 13.7812L37.05 13.6733L37.0696 13.5607L37.0819 13.444V13.3342L37.0784 13.2225L37.0661 13.1172L37.05 13.0167L37.0218 12.9202L36.9896 12.8273L36.9494 12.7477L36.9013 12.6709L36.8495 12.6056L36.7894 12.55L36.7211 12.5018L36.6487 12.4695L36.5725 12.4492L36.4887 12.4409L36.3796 12.4492L36.279 12.465L36.1873 12.4977L36.0946 12.5377L36.0149 12.5903L35.934 12.6547L35.8663 12.7229L35.7977 12.8L35.7379 12.8872L35.6813 12.9805L35.6285 13.0769L35.5852 13.1816L35.545 13.2901L35.5134 13.3996L35.4808 13.5157L35.4571 13.6327L35.4366 13.81L35.4451 14.0029L35.4726 14.1996L35.5257 14.389L35.6051 14.5545L35.7098 14.6868L35.842 14.776L36.002 14.808Z" fill="#FBB231"/>
<path fill-rule="evenodd" clip-rule="evenodd" d="M11.362 14.8885L11.2007 15.7818H10.1891L10.2172 15.6168L10.2384 15.4681L10.2533 15.3554L10.2697 15.2945L10.2134 15.3592L10.1492 15.424L10.0733 15.4845L9.98828 15.5401L9.89278 15.5968L9.79253 15.6447L9.68754 15.6933L9.57908 15.7336L9.46239 15.7697L9.34727 15.7983L9.22964 15.8221L9.11042 15.8382L8.99341 15.8465L8.87799 15.8503L8.76509 15.8382L8.65631 15.8221L8.51558 15.7862L8.38783 15.7453L8.27524 15.6933L8.17468 15.633L8.08709 15.5686L8.00708 15.496L7.94193 15.4192L7.88628 15.3393L7.83852 15.2549L7.79773 15.1657L7.76611 15.0776L7.74175 14.9891L7.72531 14.8964L7.71393 14.8038L7.70602 14.715V14.6265L7.7174 14.4695L7.74175 14.3204L7.78192 14.1798L7.83442 14.0425L7.89829 13.9143L7.97007 13.7976L8.05483 13.6853L8.15096 13.5841L8.25184 13.4918L8.36411 13.4068L8.48048 13.3303L8.60033 13.2659L8.72872 13.2107L8.86154 13.1654L8.99783 13.1295L9.13856 13.1051H9.14584L9.16576 13.101L9.19453 13.0972L9.23849 13.093L9.28656 13.0851L9.34253 13.0807L9.40293 13.0727L9.47093 13.0648L9.53923 13.0575L9.60785 13.049L9.68027 13.0445L9.74415 13.0369L9.80866 13.0331L9.86779 13.0283L9.92503 13.0248H10.0613L10.1575 13.0283L10.2454 13.0331H10.3336L10.406 13.0369L10.4626 13.0404L10.5022 13.0445H10.5145L10.5224 13.0166L10.5467 12.9446L10.566 12.8589L10.5743 12.7831L10.5581 12.6946L10.5224 12.6137L10.4743 12.5414L10.4098 12.4811L10.3336 12.4294L10.2495 12.3929L10.153 12.3685L10.049 12.3606L9.93674 12.3565L9.81562 12.3527H9.69134L9.56358 12.3565L9.43108 12.3647L9.30206 12.3768L9.1743 12.3885L9.05033 12.4053L8.92921 12.4205L8.81284 12.4408L8.70848 12.4608L8.61235 12.4811L8.52412 12.5059L8.4517 12.5294L8.39573 12.5579L8.35145 12.5817L8.63606 11.612L8.72493 11.5758L8.81284 11.5434L8.90961 11.5152L9.00574 11.4946L9.10251 11.4746L9.20655 11.4594L9.31091 11.4429L9.41906 11.4343L9.53101 11.427L9.64738 11.4226L9.76787 11.4185H10.153L10.2941 11.4226L10.4345 11.427L10.5467 11.4343L10.6672 11.4549L10.7915 11.4832L10.9193 11.5196L11.0442 11.5679L11.1647 11.6243L11.2845 11.6925L11.3977 11.769L11.4967 11.8581L11.5859 11.9539L11.6669 12.0627L11.726 12.1836L11.7668 12.313L11.7899 12.4491V12.6017L11.7668 12.7631L11.362 14.8885Z" fill="white"/>
<path fill-rule="evenodd" clip-rule="evenodd" d="M10.3943 13.8375L10.3902 13.8178L10.3738 13.7975L10.3497 13.7854L10.3096 13.7772L10.2653 13.7696L10.2134 13.7651H10.0926L10.0291 13.7696L9.96109 13.7772L9.89689 13.7854L9.83238 13.7937L9.77229 13.8019L9.71569 13.8134L9.66794 13.8254L9.62366 13.8375L9.59552 13.8454L9.56358 13.8581L9.51962 13.8736L9.47472 13.8939L9.42286 13.9184L9.37068 13.9466L9.31502 13.9748L9.26253 14.0069L9.20656 14.0468L9.15438 14.0871L9.10568 14.136L9.06235 14.1842L9.02156 14.2362L8.99342 14.2927L8.97033 14.3571L8.95736 14.4211L8.95389 14.5585L8.97349 14.6667L9.01365 14.7479L9.06615 14.8078L9.12623 14.8481L9.19454 14.8719L9.25905 14.884L9.32293 14.8884L9.4431 14.884L9.55188 14.8719L9.65592 14.8554L9.74857 14.8316L9.82827 14.8037L9.90448 14.7679L9.97247 14.7314L10.0335 14.6867L10.0857 14.6464L10.1328 14.5982L10.1736 14.5544L10.2055 14.5062L10.233 14.4576L10.2587 14.4094L10.2779 14.365L10.2893 14.3203L10.3219 14.2042L10.3497 14.0713L10.3738 13.9421L10.3943 13.8375Z" fill="#EC1C2E"/>
<path fill-rule="evenodd" clip-rule="evenodd" d="M2.91793 15.7818H1.82724L2.73831 10.4973H4.63571L4.81691 13.6327L6.12897 10.4973H8.11143L7.17981 15.7818H6.08881L6.77851 11.8338H6.73551L5.10121 15.7818H3.87011L3.86189 15.6169L3.83375 15.1779L3.79769 14.5545L3.7569 13.8376L3.71705 13.1172L3.68101 12.486L3.65317 12.0273L3.64463 11.8338H3.58487L2.91793 15.7818Z" fill="white"/>
<path fill-rule="evenodd" clip-rule="evenodd" d="M31.2762 14.8885L31.1114 15.7818H30.1046L30.1118 15.6168L30.1159 15.4722V15.3637L30.1242 15.3155L30.072 15.3757L30.0113 15.4357L29.9401 15.4918L29.8592 15.5493L29.7757 15.6007L29.6789 15.6489L29.5783 15.6977L29.4778 15.738L29.3696 15.7697L29.257 15.8014L29.1454 15.8221L29.0328 15.8382L28.9161 15.8465L28.8045 15.8503L28.6957 15.8382L28.5873 15.8221L28.4431 15.7862L28.315 15.7453L28.2021 15.6933L28.0974 15.633L28.0095 15.5686L27.9327 15.496L27.8691 15.4192L27.8134 15.3393L27.7647 15.2549L27.729 15.1657L27.6967 15.0776L27.6765 14.9891L27.6597 14.8964L27.6484 14.8038L27.6401 14.715V14.6265L27.6484 14.4695L27.6727 14.3204L27.7081 14.1798L27.7609 14.0425L27.821 13.9143L27.8969 13.7976L27.9814 13.6853L28.0734 13.5841L28.1781 13.4918L28.2865 13.4068L28.4029 13.3303L28.5275 13.2659L28.6518 13.2107L28.784 13.1654L28.9161 13.1295L29.0524 13.1051H29.061L29.0803 13.101L29.109 13.0972L29.1492 13.093L29.2014 13.0851L29.257 13.0807L29.3178 13.0727L29.3813 13.0648L29.4499 13.0575L29.5224 13.049L29.5907 13.0445L29.6587 13.0369L29.7225 13.0331L29.7788 13.0283L29.8354 13.0248H29.9758L30.072 13.0283L30.164 13.0331H30.2522L30.3291 13.0369L30.393 13.0404L30.429 13.0445H30.4454L30.4537 13.0166L30.4654 12.9446L30.4771 12.8589L30.485 12.7831L30.4698 12.6946L30.4382 12.6137L30.3857 12.5414L30.3243 12.4811L30.2522 12.4294L30.1684 12.3929L30.0802 12.3685L29.9834 12.3606L29.8709 12.3565L29.7513 12.3527H29.6264L29.4977 12.3565L29.3658 12.3647L29.2374 12.3768L29.109 12.3885L28.9841 12.4053L28.8637 12.4205L28.7479 12.4408L28.6435 12.4608L28.5471 12.4811L28.4589 12.5059L28.3871 12.5294L28.3298 12.5579L28.2865 12.5817L28.5673 11.612L28.6549 11.5758L28.7479 11.5434L28.8406 11.5152L28.9361 11.4946L29.0366 11.4746L29.1375 11.4594L29.2406 11.4429L29.35 11.4343L29.4616 11.427L29.5783 11.4226L29.6947 11.4185H30.072L30.2086 11.4226L30.3449 11.427L30.4575 11.4343L30.5773 11.4549L30.7016 11.4832L30.8306 11.5196L30.9555 11.5679L31.0785 11.6243L31.1994 11.6925L31.3116 11.769L31.4128 11.8581L31.5042 11.9539L31.5842 12.0627L31.6446 12.1836L31.6892 12.313L31.7177 12.4491V12.6017L31.6971 12.7631L31.2762 14.8885Z" fill="white"/>
<path fill-rule="evenodd" clip-rule="evenodd" d="M31.1114 15.81L31.1351 15.7862L31.2996 14.8923L31.2515 14.884L31.0871 15.7783L31.1114 15.7535V15.81L31.131 15.8056L31.1351 15.7862L31.1114 15.81Z" fill="white"/>
<path fill-rule="evenodd" clip-rule="evenodd" d="M30.0802 15.7819L30.1045 15.8101H31.1114V15.7537H30.1045L30.1286 15.7819H30.0802L30.0764 15.8101H30.1045L30.0802 15.7819Z" fill="white"/>
<path fill-rule="evenodd" clip-rule="evenodd" d="M28.5835 15.8466L28.6957 15.8628L28.8045 15.8742L28.9161 15.871L29.0328 15.8628L29.1492 15.8466L29.2612 15.826L29.374 15.7946L29.486 15.7619L29.5866 15.7216L29.6903 15.6737L29.7877 15.6255L29.8709 15.5687L29.9553 15.5122L30.0271 15.4564L30.0922 15.3911L30.1447 15.3308L30.1046 15.2991L30.0521 15.3593L29.9961 15.4158L29.923 15.4723L29.8475 15.5284L29.763 15.577L29.6672 15.6255L29.5704 15.6737L29.4702 15.7137L29.3658 15.7454L29.2536 15.7784L29.1407 15.7984L29.0328 15.8139L28.9161 15.8222L28.8045 15.826L28.6957 15.8139L28.5914 15.7984L28.5835 15.8466Z" fill="white"/>
<path fill-rule="evenodd" clip-rule="evenodd" d="M27.6126 14.6265L27.6161 14.715L27.624 14.8038L27.637 14.9005L27.6528 14.9929L27.6727 15.0814L27.7049 15.1743L27.7404 15.2663L27.7932 15.3513L27.8488 15.4357L27.9137 15.5121L27.9937 15.5883L28.0857 15.653L28.1901 15.7177L28.3071 15.7697L28.4386 15.81L28.5835 15.8465L28.5914 15.7983L28.4465 15.7618L28.3229 15.7215L28.2141 15.6695L28.1094 15.6127L28.0253 15.5493L27.9529 15.4798L27.889 15.4033L27.8324 15.3269L27.7891 15.2428L27.753 15.1578L27.7201 15.0741L27.7008 14.9849L27.685 14.8923L27.6727 14.8038L27.6642 14.715L27.6686 14.6265H27.6126Z" fill="white"/>
<path fill-rule="evenodd" clip-rule="evenodd" d="M29.0524 13.0806L28.9123 13.105L28.776 13.1418L28.6435 13.1856L28.5155 13.2417L28.3902 13.3058L28.2707 13.3873L28.1616 13.472L28.0576 13.5678L27.9614 13.6687L27.8767 13.781L27.7963 13.9018L27.7366 14.0351L27.685 14.1718L27.6483 14.3168L27.624 14.4693L27.6126 14.6264H27.6686L27.6727 14.4693L27.6967 14.3247L27.7325 14.188L27.785 14.0509L27.8444 13.926L27.9165 13.8133L28.0016 13.7004L28.0892 13.6005L28.1935 13.5117L28.3023 13.4267L28.4139 13.355L28.5395 13.2899L28.6593 13.2344L28.7919 13.19L28.9202 13.1532L29.0524 13.1294V13.0806Z" fill="white"/>
<path fill-rule="evenodd" clip-rule="evenodd" d="M29.8794 12.9963H29.8355L29.7788 13.0049L29.7226 13.0097L29.6587 13.0128L29.5907 13.0204L29.5224 13.0249L29.45 13.0331L29.3813 13.0404L29.3178 13.049L29.2571 13.0576L29.2014 13.0607L29.1492 13.069L29.1091 13.0728L29.0768 13.0769L29.061 13.0807H29.0525V13.1296H29.061L29.0847 13.1248L29.1091 13.1216L29.1492 13.1172L29.2014 13.1096L29.2571 13.1051L29.3178 13.0972L29.3813 13.0886L29.45 13.0807L29.5224 13.0728L29.5907 13.069L29.6587 13.0607L29.7226 13.0576L29.7788 13.0528H29.8794V12.9963Z" fill="white"/>
<path fill-rule="evenodd" clip-rule="evenodd" d="M30.4211 13.0404L30.4455 13.0204H30.429L30.393 13.0166L30.3291 13.0128L30.2522 13.0049H30.072L29.9758 12.9963H29.8794V13.0528H30.072L30.164 13.0607H30.3291L30.393 13.0649L30.429 13.069H30.4455L30.4698 13.049L30.4455 13.069L30.4654 13.0728L30.4698 13.049L30.4211 13.0404Z" fill="white"/>
<path fill-rule="evenodd" clip-rule="evenodd" d="M29.9834 12.3845V12.3886L30.0764 12.393L30.1602 12.4175L30.2402 12.453L30.3085 12.5018L30.3645 12.558L30.4126 12.6265L30.4454 12.6985L30.4613 12.7832H30.5093L30.4929 12.6909L30.4613 12.6018L30.4053 12.5263L30.3411 12.4609L30.2646 12.4054L30.1763 12.3686L30.0837 12.3448L29.9834 12.3328V12.3845Z" fill="white"/>
<path fill-rule="evenodd" clip-rule="evenodd" d="M28.2621 12.5783L28.3023 12.6018L28.3425 12.5818L28.3943 12.5536L28.4636 12.5295L28.5509 12.506L28.648 12.486L28.7517 12.4651L28.8677 12.4451L28.9841 12.4295L29.109 12.4127L29.2374 12.4007L29.3658 12.3886L29.4977 12.381H29.8708L29.9834 12.3845V12.3363L29.8708 12.3328L29.7513 12.3242H29.6264L29.4977 12.3328L29.3658 12.3401L29.2374 12.3528L29.109 12.3648L28.9841 12.381L28.8601 12.3962L28.7431 12.4175L28.6397 12.4378L28.5426 12.4578L28.4544 12.4812L28.3792 12.506L28.3187 12.5336L28.2707 12.5618L28.3108 12.5859L28.2621 12.5783Z" fill="white"/>
<path fill-rule="evenodd" clip-rule="evenodd" d="M28.5597 11.5876L28.5426 11.6083L28.2621 12.5783L28.3108 12.5859L28.5913 11.6159L28.5752 11.6365L28.5597 11.5876L28.5471 11.5918L28.5426 11.6083L28.5597 11.5876Z" fill="white"/>
<path fill-rule="evenodd" clip-rule="evenodd" d="M30.3449 11.4028L30.2086 11.3949L30.072 11.3901H29.6947L29.5783 11.3987L29.4616 11.4028L29.35 11.4114L29.2406 11.4184L29.1327 11.4342L29.0328 11.4504L28.9326 11.4713L28.8358 11.4913L28.74 11.5196L28.648 11.5516L28.5597 11.5874L28.5752 11.6363L28.6638 11.5998L28.7555 11.5678L28.8437 11.5392L28.9402 11.5196L29.0413 11.4986L29.1407 11.4831L29.2406 11.4669L29.35 11.4593L29.4616 11.4504L29.5783 11.4469H30.072L30.2086 11.4504H30.3449V11.4028Z" fill="white"/>
<path fill-rule="evenodd" clip-rule="evenodd" d="M31.7214 12.7672L31.741 12.6016V12.449L31.7135 12.3075L31.6693 12.1749L31.6051 12.0509L31.5238 11.938L31.428 11.8377L31.328 11.7486L31.2114 11.6718L31.0909 11.5998L30.9631 11.5434L30.8379 11.4945L30.7066 11.4593L30.5811 11.4311L30.4574 11.4114L30.3449 11.4028V11.4504L30.4574 11.4593L30.5732 11.4793L30.6978 11.5075L30.8217 11.5434L30.947 11.5916L31.0671 11.6484L31.1873 11.7124L31.2961 11.7889L31.3964 11.8771L31.4846 11.9703L31.5643 12.0744L31.6206 12.1921L31.6648 12.3164L31.6936 12.449V12.6016L31.6727 12.7593L31.7214 12.7672Z" fill="white"/>
<path fill-rule="evenodd" clip-rule="evenodd" d="M31.2996 14.8923L31.7214 12.7672L31.6727 12.7593L31.2515 14.884L31.2996 14.8923Z" fill="white"/>
<path fill-rule="evenodd" clip-rule="evenodd" d="M30.3047 13.8377L30.2968 13.8136L30.2816 13.7939L30.2522 13.7812L30.213 13.7698L30.1684 13.7654L30.1159 13.7612H30.0559L29.9961 13.7654L29.9316 13.7733L29.8671 13.7812L29.8032 13.7898L29.7421 13.7977L29.6837 13.8101L29.6308 13.818L29.5783 13.8304L29.5382 13.8377L29.511 13.8418L29.4778 13.8539L29.4386 13.8662L29.3937 13.8821L29.3409 13.9059L29.2934 13.9309L29.2374 13.9589L29.1853 13.9944L29.1328 14.0312L29.0803 14.075L29.0366 14.1191L28.993 14.172L28.9563 14.2285L28.9282 14.2884L28.9045 14.3532L28.8928 14.4214L28.8886 14.5587L28.9076 14.6669L28.9402 14.7481L28.9883 14.808L29.0487 14.8483L29.117 14.8721L29.1853 14.8842L29.2536 14.8886L29.3741 14.8842L29.486 14.8721L29.5907 14.8521L29.6837 14.8245L29.7709 14.7919L29.8475 14.756L29.9192 14.7151L29.9834 14.6669L30.0404 14.6228L30.0875 14.5708L30.1317 14.5222L30.1684 14.4696L30.196 14.4214L30.2171 14.3731L30.2329 14.3249L30.2446 14.2808L30.2611 14.1679L30.2816 14.0512L30.2968 13.9389L30.3047 13.8377Z" fill="#FBB231"/>
<path fill-rule="evenodd" clip-rule="evenodd" d="M38.5701 15.2308L38.5793 15.1375L38.6096 15.029L38.6666 14.9323L38.7345 14.8482L38.819 14.7803L38.9167 14.7315L39.0204 14.6985L39.132 14.6868L39.2453 14.6985L39.349 14.7315L39.4454 14.7803L39.5302 14.8482L39.5982 14.9323L39.6545 15.029L39.6861 15.1375L39.6946 15.2308H39.5741L39.5704 15.1578L39.5454 15.0693L39.5055 14.9891L39.4537 14.9202L39.3895 14.8641L39.3136 14.8244L39.2253 14.7956L39.132 14.7876L39.04 14.7956L38.9524 14.8244L38.8759 14.8641L38.8114 14.9202L38.7595 14.9891L38.7197 15.0693L38.6953 15.1578L38.6871 15.2308H38.5701Z" fill="white"/>
<path fill-rule="evenodd" clip-rule="evenodd" d="M38.9315 15.2307V14.989H39.1523L39.201 14.9928L39.2453 15.0008L39.2769 15.0131L39.305 15.029L39.325 15.0531L39.3408 15.0775L39.349 15.1054L39.3531 15.134L39.349 15.1698L39.3408 15.1981L39.3291 15.2225L39.3208 15.2307H39.1523L39.1681 15.2263L39.1966 15.2225L39.2203 15.2146L39.2412 15.2066L39.257 15.1946L39.2652 15.1816L39.2728 15.1625V15.134L39.2683 15.1137L39.2604 15.0972L39.2491 15.0899L39.2367 15.0813L39.2162 15.0775L39.1966 15.074H39.0321V15.2307H38.9315Z" fill="white"/>
<path fill-rule="evenodd" clip-rule="evenodd" d="M38.5701 15.2307L38.5673 15.2548L38.5793 15.3716L38.6096 15.4797L38.6666 15.5768L38.7346 15.6571L38.819 15.7253L38.9167 15.7782L39.0204 15.81L39.1321 15.822L39.2453 15.81L39.349 15.7782L39.4455 15.7253L39.5302 15.6571L39.5982 15.5768L39.6545 15.4797L39.6861 15.3716L39.6978 15.2548L39.6946 15.2307H39.5742L39.5783 15.2548L39.5704 15.3513L39.5454 15.4398L39.5055 15.5165L39.4537 15.5841L39.3895 15.6412L39.3136 15.6847L39.2254 15.7135L39.1321 15.7214L39.04 15.7135L38.9524 15.6847L38.8759 15.6412L38.8114 15.5841L38.7595 15.5165L38.7197 15.4398L38.6953 15.3513L38.6871 15.2548V15.2307H38.5701Z" fill="white"/>
<path fill-rule="evenodd" clip-rule="evenodd" d="M38.9315 15.2307V15.4762H39.0321V15.2748H39.132L39.2522 15.4762H39.3335L39.213 15.2748H39.2411L39.2683 15.2662L39.2927 15.2583L39.3136 15.2428L39.3208 15.2307H39.1523L39.132 15.2345H39.0321V15.2307H38.9315Z" fill="white"/>
<path fill-rule="evenodd" clip-rule="evenodd" d="M31.5772 15.7818H32.7087L33.1138 13.4918L33.1296 13.4036L33.154 13.3148L33.1777 13.2259L33.2099 13.1374L33.2501 13.0489L33.2982 12.9642L33.3507 12.884L33.4146 12.8072L33.487 12.739L33.5667 12.6746L33.6593 12.6137L33.7637 12.5655L33.8797 12.5262L34.0081 12.4938L34.1489 12.4694L34.3048 12.4608H34.4053L34.5862 11.427L34.4733 11.4343L34.3655 11.447L34.2652 11.467L34.1685 11.4946L34.0809 11.5269L33.9961 11.5678L33.9158 11.6119L33.8396 11.6602L33.7678 11.7169L33.6988 11.7731L33.635 11.8378L33.5711 11.9016L33.5107 11.9704L33.4506 12.0462L33.3902 12.1189L33.3349 12.1994L33.4554 11.4714H32.3274L31.5772 15.7818Z" fill="white"/>
<path fill-rule="evenodd" clip-rule="evenodd" d="M20.9514 15.7818H22.1029L22.488 13.4918L22.5045 13.4036L22.5241 13.3189L22.544 13.2345L22.5725 13.1533L22.6041 13.0727L22.6446 12.9963L22.6926 12.9243L22.7489 12.8557L22.8131 12.7942L22.8852 12.7349L22.9738 12.6864L23.0699 12.6423L23.1822 12.6055L23.3068 12.5744L23.4431 12.5534L23.5993 12.5414H23.6119L23.6277 12.5458L23.648 12.55H23.6679L23.6875 12.5534L23.7046 12.5579L23.7157 12.5617H23.7204L23.7239 12.5458L23.7362 12.4976L23.752 12.4253L23.7726 12.3361L23.8001 12.2318L23.8289 12.1189L23.8646 12.0066L23.9 11.893L23.9329 11.8172L23.9731 11.7404L24.0132 11.6643L24.0528 11.5961L24.0885 11.5355L24.1166 11.4873L24.1375 11.4594L24.1448 11.447H24.1416L24.1252 11.4429L24.1056 11.4384L24.0771 11.4343H24.0496L24.0173 11.4311L23.9889 11.427H23.9607L23.8361 11.4343L23.7239 11.447L23.6198 11.467L23.5237 11.4914L23.4317 11.5234L23.3466 11.564L23.2704 11.6034L23.198 11.6516L23.1303 11.7046L23.0658 11.7652L23.0057 11.8257L22.9459 11.893L22.8852 11.9625L22.8289 12.0392L22.7692 12.1189L22.7084 12.1994L22.853 11.4714H21.7016L20.9514 15.7818Z" fill="white"/>
<path fill-rule="evenodd" clip-rule="evenodd" d="M38.5793 20.0163V20.0001L38.6096 19.8954L38.6666 19.8028L38.7346 19.7229L38.819 19.6582L38.9167 19.6093L39.0204 19.5817L39.1321 19.5693L39.2453 19.5817L39.349 19.6093L39.4455 19.6582L39.5302 19.7229L39.5982 19.8028L39.6545 19.8954L39.6861 20.0001V20.0163H39.5704L39.5454 19.9322L39.5055 19.8555L39.4537 19.7863L39.3895 19.7308L39.3136 19.6861L39.2254 19.6582L39.1321 19.6502L39.0401 19.6582L38.9525 19.6861L38.8759 19.7308L38.8114 19.7863L38.7595 19.8555L38.7197 19.9322L38.6953 20.0163H38.5793Z" fill="#FBB231"/>
<path fill-rule="evenodd" clip-rule="evenodd" d="M38.9315 20.0164V19.8762H39.201L39.2453 19.8842L39.2769 19.8911L39.305 19.9073L39.325 19.9282L39.3408 19.952L39.349 19.9803L39.3531 20.0164H39.2728V19.9961L39.2683 19.9758L39.2604 19.96L39.2491 19.952L39.2367 19.9441L39.2162 19.9397L39.1966 19.9362H39.0321V20.0164H38.9315Z" fill="#FBB231"/>
<path fill-rule="evenodd" clip-rule="evenodd" d="M38.5673 20.1045L38.5793 20.0164H38.6953V20.0195L38.6871 20.1045H38.5673Z" fill="#FBB231"/>
<path fill-rule="evenodd" clip-rule="evenodd" d="M38.9315 20.1045V20.0164H39.0321V20.0966H39.132L39.1681 20.089L39.1966 20.0849L39.2203 20.0766L39.2412 20.0687L39.257 20.057L39.2652 20.0443L39.2728 20.0252V20.0164H39.3531L39.349 20.0443L39.3408 20.0687L39.3291 20.089L39.3136 20.1045H38.9315Z" fill="#FBB231"/>
<path fill-rule="evenodd" clip-rule="evenodd" d="M39.5783 20.1045L39.5703 20.0195V20.0164H39.6861L39.6978 20.1045H39.5783Z" fill="#FBB231"/>
<path fill-rule="evenodd" clip-rule="evenodd" d="M38.5673 20.1045V20.1169L38.5793 20.2333L38.6096 20.3421L38.6666 20.4385L38.7346 20.5235L38.819 20.5924L38.9167 20.6396L39.0204 20.6723L39.1321 20.6844L39.2453 20.6723L39.349 20.6396L39.4455 20.5924L39.5302 20.5235L39.5982 20.4385L39.6545 20.3421L39.6861 20.2333L39.6978 20.1169V20.1045H39.5783V20.1169L39.5704 20.2139L39.5454 20.3024L39.5055 20.3782L39.4537 20.4461L39.3895 20.5039L39.3136 20.548L39.2254 20.5759L39.1321 20.5838L39.04 20.5759L38.9524 20.548L38.8759 20.5039L38.8114 20.4461L38.7595 20.3782L38.7197 20.3024L38.6953 20.2139L38.6871 20.1169V20.1045H38.5673Z" fill="#FBB231"/>
<path fill-rule="evenodd" clip-rule="evenodd" d="M38.9315 20.1045V20.3383H39.0321V20.1368H39.132L39.2522 20.3383H39.3335L39.213 20.1368H39.2411L39.2683 20.1289L39.2927 20.121L39.3136 20.1045H38.9315Z" fill="#FBB231"/>
<path fill-rule="evenodd" clip-rule="evenodd" d="M19.9882 13.1248H18.5225L18.5237 13.1217L18.5215 13.121L18.5316 13.0649L18.5478 12.9805L18.5715 12.8999L18.5996 12.8197L18.636 12.7473L18.6724 12.6785L18.7157 12.6135L18.7644 12.5535L18.8169 12.4974L18.8678 12.4488L18.9292 12.4051L18.9883 12.3686L19.0572 12.3362L19.1255 12.3131L19.1935 12.2959L19.2656 12.2842L19.3425 12.2798L19.4143 12.2877L19.4826 12.2997L19.5471 12.3159L19.611 12.3394L19.671 12.3724L19.7311 12.4086L19.7839 12.4488L19.8314 12.4974L19.8715 12.5535L19.9117 12.6135L19.9398 12.6823L19.968 12.7594L19.9835 12.8396L19.992 12.9282L19.9968 13.0249L19.9882 13.1248ZM21.0761 12.7546L21.0438 12.5142L20.9872 12.3004L20.9075 12.1158L20.8066 11.954L20.6868 11.8173L20.5546 11.705L20.4104 11.6085L20.2532 11.5359L20.0932 11.475L19.9288 11.4347L19.7637 11.4071L19.5996 11.3906L19.443 11.3865L19.1176 11.4033L18.8292 11.4509L18.5677 11.5238L18.3356 11.6247L18.1348 11.7456L17.9577 11.8823L17.8012 12.0352L17.6731 12.1963L17.5605 12.3654L17.4688 12.5421L17.397 12.7159L17.336 12.8879L17.2923 13.0582L17.2601 13.2143L17.2364 13.3637L17.2205 13.4925L17.2006 13.8224L17.2126 14.1199L17.2563 14.3899L17.324 14.6272L17.4214 14.8403L17.5377 15.0262L17.6734 15.1909L17.8299 15.3279L17.9985 15.445L18.1797 15.5446L18.3678 15.622L18.5642 15.6819L18.765 15.7308L18.9658 15.7587L19.1663 15.779L19.3627 15.7825H19.4955L19.6208 15.779H19.7283L19.833 15.7745L19.9256 15.7666L20.0097 15.7587L20.0894 15.7508L20.1622 15.7387L20.2305 15.726L20.2943 15.7105L20.3595 15.6898L20.4196 15.6702L20.4793 15.6454L20.5438 15.622L20.6074 15.589L20.6719 15.5569L20.8326 14.5672L20.7165 14.6354L20.6036 14.6992L20.4879 14.7487L20.3747 14.7924L20.2668 14.8286L20.1542 14.8524L20.0458 14.8724L19.9376 14.8889L19.8292 14.8968L19.7251 14.9012H19.617L19.5129 14.8968L19.4089 14.8889L19.3042 14.8768L19.204 14.8648L19.0999 14.8489L19.0196 14.8327L18.9393 14.8045L18.8593 14.769L18.7862 14.7239L18.7144 14.6763L18.6499 14.6164L18.5902 14.5555L18.5335 14.4863L18.4858 14.4184L18.4422 14.3426L18.4093 14.2693L18.3814 14.1926L18.3656 14.1161L18.3577 14.039L18.3609 13.9712L18.3704 13.9191H20.9739L20.9935 13.6736L21.0542 13.3348L21.0824 13.029L21.0786 12.7553L21.0761 12.7546Z" fill="white"/>
</svg>
