<svg width="40" height="14" viewBox="0 0 40 14" fill="none" xmlns="http://www.w3.org/2000/svg">
<path d="M17.2079 13.0289H13.9694L15.9939 0.549561H19.2334L17.2079 13.0289Z" fill="#0066B2"/>
<path d="M11.2444 0.54939L8.15667 9.13266L7.7911 7.28423V7.28455L6.70104 1.67297C6.70104 1.67297 6.57044 0.54939 5.1651 0.54939H0.0601329L0.000366211 0.760973C0.000366211 0.760973 1.56161 1.0858 3.38881 2.18655L6.20266 13.0284H9.57719L14.7309 0.549072H11.2447L11.2444 0.54939Z" fill="#0066B2"/>
<path d="M33.1575 8.61464L34.8588 3.94362L35.8167 8.61464H33.1575ZM36.7217 13.0284H39.6959L37.1028 0.549072H34.4989C33.2966 0.549072 33.0034 1.47852 33.0034 1.47852L28.173 13.0284H31.5488L32.2242 11.1752H36.3416L36.7217 13.0284Z" fill="#0066B2"/>
<path d="M28.426 3.5503L28.888 0.870445C28.888 0.870445 27.4612 0.326416 25.9752 0.326416C24.3671 0.326416 20.5502 1.03096 20.5502 4.45786C20.5502 7.68237 25.0306 7.72203 25.0306 9.4147C25.0306 11.1077 21.0122 10.8054 19.6853 9.73763L19.204 12.5387C19.204 12.5387 20.6498 13.2441 22.8603 13.2441C25.0698 13.2441 28.4054 12.0958 28.4054 8.97186C28.4054 5.72705 23.8846 5.4241 23.8846 4.01375C23.8846 2.60277 27.0393 2.78422 28.425 3.5503H28.426Z" fill="#0066B2"/>
<path d="M7.79074 7.28497L6.70068 1.67339C6.70068 1.67339 6.57008 0.549805 5.16473 0.549805H0.0597687L0 0.761388C0 0.761388 2.45429 1.27084 4.80739 3.18144C7.05771 5.00861 7.79042 7.28497 7.79042 7.28497H7.79074Z" fill="#F9A533"/>
</svg>
