<svg width="41" height="25" viewBox="0 0 41 25" fill="none" xmlns="http://www.w3.org/2000/svg">
<path d="M28.3988 24.7226L29.0129 24.7065L29.6188 24.6595L30.2133 24.5846L30.7996 24.4787L31.379 24.3461L31.9463 24.1846L32.4972 23.9968L33.0411 23.7811L33.5686 23.542L34.0812 23.2783L34.5815 22.9919L35.0631 22.6788L35.5317 22.3451L35.9824 21.9923L36.4162 21.6158L36.8308 21.2193L37.2207 20.8031L37.5964 20.3679L37.9528 19.9168L38.2855 19.4499L38.5941 18.9636L38.88 18.4614L39.145 17.9469L39.3844 17.4178L39.5953 16.8721L39.7829 16.3199L39.9435 15.7505L40.077 15.1744L40.182 14.5818L40.2559 13.9855L40.3031 13.3774L40.3195 12.7613L40.3031 12.1497L40.2559 11.5451L40.182 10.9529L40.077 10.3651L39.9435 9.79216L39.7829 9.2272L39.5953 8.67365L39.3844 8.13248L39.145 7.60749L38.88 7.09264L38.5941 6.59429L38.2855 6.108L37.9528 5.64201L37.5964 5.18997L37.2207 4.75824L36.8308 4.34332L36.4162 3.95029L35.9824 3.57375L35.5317 3.22069L35.0631 2.88697L34.5815 2.578L34.0812 2.29156L33.5686 2.02383L33.0411 1.78528L32.4972 1.57242L31.9463 1.38495L31.379 1.22412L30.7996 1.09057L30.2133 0.984621L29.6188 0.910392L29.0129 0.863445L28.3988 0.8479L27.785 0.863445L27.1787 0.910392L26.5845 0.984621L25.9973 1.09057L25.4186 1.22412L24.8554 1.38495L24.3004 1.57242L23.7606 1.78528L23.2331 2.02383L22.7205 2.29156L22.2234 2.578L21.7389 2.88697L21.2734 3.22069L20.8234 3.57375L20.394 3.95029L19.9825 4.34332L19.5876 4.75824L19.2125 5.18997L18.8602 5.64201L18.5288 6.108L18.2195 6.59429L17.9336 7.09264L17.6715 7.60749L17.4372 8.13248L17.2221 8.67365L17.034 9.2272L16.8774 9.79216L16.7449 10.3651L16.639 10.9529L16.5644 11.5451L16.5176 12.1497L16.5027 12.7613L16.5176 13.3774L16.5644 13.9855L16.639 14.5818L16.7449 15.1744L16.8774 15.7505L17.034 16.3199L17.2221 16.8721L17.4372 17.4178L17.6715 17.9469L17.9336 18.4614L18.2195 18.9636L18.5288 19.4499L18.8602 19.9168L19.2125 20.3679L19.5876 20.8031L19.9825 21.2193L20.394 21.6158L20.8234 21.9923L21.2734 22.3451L21.7389 22.6788L22.2234 22.9919L22.7205 23.2783L23.2331 23.542L23.7606 23.7811L24.3004 23.9968L24.8554 24.1846L25.4186 24.3461L25.9973 24.4787L26.5845 24.5846L27.1787 24.6595L27.785 24.7065L28.3988 24.7226Z" fill="#EC1C2E"/>
<path d="M12.6146 24.7226L13.229 24.7065L13.8353 24.6595L14.4301 24.5846L15.0161 24.4787L15.5951 24.3461L16.1586 24.1846L16.7136 23.9968L17.2534 23.7811L17.7815 23.542L18.2935 23.2783L18.79 22.9919L19.2751 22.6788L19.74 22.3451L20.1897 21.9923L20.6207 21.6158L21.0346 21.2193L21.4261 20.8031L21.8018 20.3679L22.1535 19.9168L22.4855 19.4499L22.7942 18.9636L23.0807 18.4614L23.3419 17.9469L23.5809 17.4178L23.7922 16.8721L23.9794 16.3199L24.1366 15.7505L24.2691 15.1744L24.375 14.5818L24.4487 13.9855L24.4958 13.3774L24.5113 12.7613L24.4958 12.1497L24.4487 11.5451L24.375 10.9529L24.2691 10.3651L24.1366 9.79216L23.9794 9.2272L23.7922 8.67365L23.5809 8.13248L23.3419 7.60749L23.0807 7.09264L22.7942 6.59429L22.4855 6.108L22.1535 5.64201L21.8018 5.18997L21.4261 4.75824L21.0346 4.34332L20.6207 3.95029L20.1897 3.57375L19.74 3.22069L19.2751 2.88697L18.79 2.578L18.2935 2.29156L17.7815 2.02383L17.2534 1.78528L16.7136 1.57242L16.1586 1.38495L15.5951 1.22412L15.0161 1.09057L14.4301 0.984621L13.8353 0.910392L13.229 0.863445L12.6146 0.8479L12.0011 0.863445L11.3946 0.910392L10.8004 0.984621L10.2137 1.09057L9.63535 1.22412L9.06772 1.38495L8.51621 1.57242L7.97324 1.78528L7.44543 2.02383L6.93251 2.29156L6.43191 2.578L5.95092 2.88697L5.48163 3.22069L5.03227 3.57375L4.59776 3.95029L4.18728 4.34332L3.79263 4.75824L3.41662 5.18997L3.06149 5.64201L2.7285 6.108L2.41985 6.59429L2.13366 7.09264L1.86834 7.60749L1.62959 8.13248L1.41866 8.67365L1.23113 9.2272L1.07144 9.79216L0.937041 10.3651L0.831733 10.9529L0.757724 11.5451L0.710289 12.1497L0.695435 12.7613L0.710289 13.3774L0.757724 13.9855L0.831733 14.5818L0.937041 15.1744L1.07144 15.7505L1.23113 16.3199L1.41866 16.8721L1.62959 17.4178L1.86834 17.9469L2.13366 18.4614L2.41985 18.9636L2.7285 19.4499L3.06149 19.9168L3.41662 20.3679L3.79263 20.8031L4.18728 21.2193L4.59776 21.6158L5.03227 21.9923L5.48163 22.3451L5.95092 22.6788L6.43191 22.9919L6.93251 23.2783L7.44543 23.542L7.97324 23.7811L8.51621 23.9968L9.06772 24.1846L9.63535 24.3461L10.2137 24.4787L10.8004 24.5846L11.3946 24.6595L12.0011 24.7065L12.6146 24.7226Z" fill="#0084C4"/>
<path d="M19.0405 5.39394H25.0748V4.72778H19.6233L19.0405 5.39394Z" fill="#EC1C2E"/>
<path d="M18.094 6.80622H25.0748V6.14355H18.5168L18.094 6.80622Z" fill="#EC1C2E"/>
<path d="M17.3856 8.24206H25.0748V7.57495H17.711L17.3856 8.24206Z" fill="#EC1C2E"/>
<path d="M16.9252 9.65476H25.0748V8.99146H17.1285L16.9252 9.65476Z" fill="#EC1C2E"/>
<path d="M16.6238 11.0704H25.0748V10.4033H16.7449L16.6238 11.0704Z" fill="#EC1C2E"/>
<path d="M16.5606 13.8126H25.0748V13.1455H16.5027L16.5606 13.8126Z" fill="#EC1C2E"/>
<path d="M16.7649 15.3072H25.0748V14.6401H16.6434L16.7649 15.3072Z" fill="#EC1C2E"/>
<path d="M17.1677 16.5199H25.0748V15.8528H16.9637L17.1677 16.5199Z" fill="#EC1C2E"/>
<path d="M17.7692 17.9947H25.0748V17.3276H17.4489L17.7692 17.9947Z" fill="#EC1C2E"/>
<path d="M18.6189 19.4891H25.0748V18.8223H18.1724L18.6189 19.4891Z" fill="#EC1C2E"/>
<path d="M19.6818 20.9246H25.016V20.2578H19.0993L19.6818 20.9246Z" fill="#EC1C2E"/>
<path d="M38.3595 20.0937L38.3949 19.9875L38.4531 19.8895L38.5281 19.8029L38.6141 19.7318L38.7115 19.6772L38.8171 19.6424L38.9309 19.6306L39.0476 19.6424L39.157 19.6772L39.2548 19.7318L39.3411 19.8029L39.4113 19.8895L39.4657 19.9875L39.5017 20.0937H39.3806L39.3566 20.0189L39.3139 19.9361L39.2589 19.8654L39.1925 19.8102L39.1137 19.768L39.0239 19.7404L38.9309 19.7318L38.8367 19.7404L38.7463 19.768L38.6681 19.8102L38.5982 19.8654L38.5426 19.9361L38.5005 20.0189L38.4768 20.0937H38.3595Z" fill="#EC1C2E"/>
<path d="M38.7273 20.0937V19.9519H38.9502L39.0005 19.9554L39.0432 19.9598L39.0831 19.9719L39.1137 19.9874L39.1381 20.0071L39.157 20.0303L39.1694 20.0579L39.1735 20.0937H39.0714L39.0672 20.0737L39.0593 20.0579L39.0476 20.042L39.0325 20.0303L39.0125 20.0223L38.9936 20.0188L38.9736 20.015H38.8288V20.0937H38.7273Z" fill="#EC1C2E"/>
<path d="M38.3513 20.1953L38.3595 20.0972V20.0938H38.4769L38.4731 20.1131L38.4645 20.1953H38.3513Z" fill="#EC1C2E"/>
<path d="M38.7273 20.1953V20.0938H38.8288V20.1759H38.9974L39.0201 20.1721L39.0397 20.1635L39.0521 20.1562L39.0634 20.1407L39.0714 20.121V20.0938H39.1735L39.1694 20.1286L39.1608 20.1604L39.1495 20.1835L39.1381 20.1953H38.7273Z" fill="#EC1C2E"/>
<path d="M39.3917 20.1953L39.3844 20.1131L39.3806 20.0938H39.5017V20.0972L39.5131 20.1953H39.3917Z" fill="#EC1C2E"/>
<path d="M38.3513 20.1953L38.3481 20.2143L38.3595 20.332L38.3949 20.4424L38.4531 20.537L38.5281 20.6226L38.6141 20.6895L38.7115 20.7409L38.8171 20.7717L38.9309 20.7841L39.0476 20.7717L39.1571 20.7409L39.2548 20.6895L39.3411 20.6226L39.4113 20.537L39.4657 20.4424L39.5018 20.332L39.5131 20.2143V20.1953H39.3917V20.2143L39.3844 20.3168L39.3566 20.411L39.3139 20.4935L39.2589 20.5642L39.1925 20.6226L39.1137 20.6664L39.0239 20.6933L38.9309 20.7013L38.8367 20.6933L38.7463 20.6664L38.6682 20.6226L38.5983 20.5642L38.5426 20.4935L38.5006 20.411L38.473 20.3168L38.4645 20.2143V20.1953H38.3513Z" fill="#EC1C2E"/>
<path d="M38.7273 20.1953V20.4383H38.8288V20.2388H38.9309L39.0521 20.4383H39.1539L39.0084 20.2388L39.0432 20.2346L39.0786 20.2305L39.1068 20.2185L39.1302 20.2032L39.1381 20.1953H38.7273Z" fill="#EC1C2E"/>
<path d="M25.8212 11.7573L25.7434 11.7535L25.6653 11.7455L25.5941 11.7335L25.5246 11.7265L25.4543 11.7138L25.3838 11.7021L25.3095 11.6903L25.2314 11.6786L25.1492 11.6703L25.0625 11.6627L24.9648 11.6551L24.8592 11.6507H24.7422L24.6132 11.6551L24.4683 11.6627L24.3124 11.6745L24.1986 11.6903L24.093 11.7138L23.9959 11.7455L23.9096 11.781L23.8311 11.8236L23.7606 11.8715L23.7018 11.9257L23.6553 11.9806L23.6199 12.0437L23.5968 12.1097L23.5845 12.1766V12.247L23.6009 12.3219L23.6281 12.3961L23.6708 12.471L23.7252 12.5459L23.8387 12.648L23.9715 12.7302L24.1287 12.8006L24.2966 12.859L24.4724 12.918L24.6568 12.9773L24.8437 13.0439L25.024 13.1229L25.1922 13.2165L25.3528 13.3303L25.4929 13.4759L25.6102 13.6482L25.7001 13.8598L25.7592 14.111L25.7794 14.4092L25.7592 14.7623L25.7159 15.0246L25.645 15.2603L25.5559 15.4722L25.4417 15.66L25.3095 15.8249L25.1647 15.9664L25.0037 16.0879L24.8326 16.1939L24.6517 16.2801L24.4649 16.3502L24.2729 16.4099L24.0809 16.4527L23.8899 16.4841L23.7018 16.5038L23.5228 16.5158L23.3463 16.52H23.1028L22.8846 16.5158L22.6854 16.5117L22.502 16.5079L22.3334 16.5003L22.1848 16.492L22.0441 16.4809L21.9189 16.4644L21.8018 16.4489L21.6921 16.4289L21.5897 16.4099L21.4891 16.3823L21.3952 16.3547L21.3009 16.3274L21.2073 16.2922L21.1096 16.2567L21.3515 15.0246L21.4066 15.037L21.4727 15.056L21.5552 15.0757L21.645 15.0991L21.7503 15.1191L21.8676 15.1467L21.9928 15.1696L22.1263 15.1934L22.2667 15.213L22.4153 15.233L22.5684 15.2482L22.7281 15.2641L22.8891 15.2717L23.0535 15.2755H23.2176L23.3852 15.2676L23.5418 15.2406L23.6708 15.1975L23.7685 15.135L23.8463 15.0646L23.9054 14.9811L23.9481 14.8958L23.9835 14.8092L24.007 14.7229L24.0186 14.6328L24.0149 14.5538L23.9959 14.4796L23.9636 14.4171L23.9212 14.354L23.8662 14.2991L23.7998 14.2477L23.7252 14.2008L23.6433 14.1583L23.5535 14.1148L23.4564 14.072L23.3536 14.0327L23.2521 13.9933L23.143 13.9499L23.0333 13.907L22.9201 13.8598L22.8106 13.8125L22.7012 13.7618L22.5912 13.7028L22.4855 13.6403L22.384 13.5733L22.2898 13.4985L22.2006 13.4122L22.1187 13.3227L22.0441 13.2203L21.9777 13.1105L21.9227 12.9887L21.8762 12.859L21.8442 12.7143L21.8249 12.5573L21.8205 12.3844L21.8328 12.1998L21.8442 12.0865L21.8603 11.9761L21.8762 11.8715L21.8989 11.769L21.9227 11.6703L21.9502 11.5726L21.9853 11.4825L22.0204 11.3921L22.0634 11.3097L22.1067 11.2275L22.1573 11.153L22.2123 11.0784L22.2708 11.008L22.3334 10.9407L22.3995 10.8779L22.4735 10.8192L22.5516 10.7647L22.6345 10.7136L22.724 10.6663L22.8185 10.6194L22.9156 10.5801L23.0209 10.541L23.1316 10.5096L23.248 10.4776L23.3735 10.4506L23.5026 10.4275L23.636 10.4078L23.7764 10.3916L23.9244 10.3802L24.0809 10.3726L24.2422 10.365H24.617L24.8051 10.3678L24.973 10.3726L25.1293 10.3802L25.2668 10.3881L25.3917 10.3961L25.5049 10.4078L25.603 10.4154L25.6931 10.4275L25.7709 10.4389L25.8455 10.4465L25.9075 10.4586L25.9628 10.4665L26.0138 10.4738L26.0599 10.482L26.1036 10.4862L25.8212 11.7573Z" fill="white"/>
<path d="M27.1076 9.13257H28.6805L28.4376 10.5061H29.404L29.1846 11.7572L28.1957 11.7369L27.6755 14.8641L27.6676 14.9304V14.989L27.6755 15.0407L27.6913 15.0877L27.7144 15.127L27.741 15.1664L27.777 15.1974L27.8162 15.2203L27.8633 15.2447L27.9108 15.2641L27.9645 15.2799L28.0196 15.2882L28.0825 15.2999L28.1451 15.3031L28.2109 15.3072H28.4028L28.5123 15.2999L28.6138 15.284L28.7004 15.2641L28.7665 15.2447L28.8177 15.2247L28.8484 15.2089L28.8601 15.2057L28.7004 16.276L28.6615 16.2998L28.6182 16.3198L28.5752 16.3391L28.5315 16.3588L28.4889 16.3743L28.4408 16.3902L28.3949 16.4054L28.3405 16.4213L28.2852 16.4368L28.2264 16.4489L28.16 16.4606L28.0901 16.4717L28.0155 16.4841L27.9377 16.4955L27.8472 16.5079L27.7536 16.5199H27.3308L27.1076 16.5037L26.9083 16.4809L26.7331 16.4489L26.5801 16.4054L26.4504 16.3588L26.342 16.2998L26.2518 16.2338L26.1778 16.1583L26.1187 16.0758L26.0754 15.9854L26.0485 15.8874L26.033 15.7783L26.0286 15.6647L26.033 15.5391L26.0444 15.409L26.0643 15.2676L27.1076 9.13257Z" fill="white"/>
<path d="M17.5504 13.8947L17.5301 13.9933L17.527 14.0917L17.5352 14.197L17.5583 14.2991L17.5893 14.4054L17.6364 14.5107L17.6911 14.6129L17.7575 14.7109L17.8321 14.8051L17.9185 14.8958L18.0077 14.9745L18.106 15.0484L18.2107 15.1112L18.3207 15.1626L18.4384 15.2013L18.5547 15.2289L18.6964 15.2482L18.8371 15.2676L18.9813 15.2841L19.1262 15.2914L19.2751 15.2952H19.4197L19.5727 15.2882L19.7207 15.2755L19.8731 15.2527L20.0297 15.2248L20.1862 15.1854L20.3427 15.135L20.499 15.0757L20.664 15.0056L20.8234 14.9193L20.9885 14.8248L20.7459 16.2177L20.6555 16.2646L20.565 16.3074L20.4831 16.3436L20.3974 16.3744L20.3114 16.4055L20.2254 16.4289L20.1353 16.4489L20.0376 16.4686L19.9367 16.481L19.826 16.4921L19.7055 16.5038L19.5765 16.5079L19.4355 16.5158H19.2783L19.1066 16.52H18.7824L18.6417 16.5117L18.5045 16.5038L18.3637 16.4882L18.2195 16.4686L18.0785 16.4448L17.9375 16.414L17.7974 16.3823L17.6598 16.3392L17.5235 16.2957L17.3901 16.2449L17.2569 16.1866L17.1285 16.1193L17.0027 16.0486L16.886 15.9702L16.768 15.8843L16.6592 15.7897L16.5533 15.6879L16.4515 15.5778L16.3613 15.4601L16.2753 15.3307L16.1978 15.1975L16.127 15.0528L16.0644 14.8993L16.0094 14.7353L15.9667 14.5618L15.9313 14.3816L15.9079 14.1852L15.8933 13.9813V13.7697L15.9 13.5426L15.9196 13.3059L15.9313 13.2244L15.943 13.1302L15.9594 13.0357L15.9784 12.9345L15.9974 12.8279L16.0255 12.7181L16.0568 12.6046L16.0878 12.4869L16.127 12.3647L16.1697 12.2471L16.2209 12.1259L16.2753 12.0041L16.3376 11.8826L16.4044 11.7611L16.4787 11.6402L16.5565 11.5219L16.6469 11.4083L16.7408 11.2944L16.8423 11.1841L16.9555 11.0822L17.0732 10.9804L17.2025 10.8865L17.3395 10.7996L17.4881 10.7174L17.644 10.6467L17.8119 10.5801L17.9881 10.5214L18.1753 10.4738L18.3758 10.4354L18.5867 10.4078L18.8058 10.3916L19.0405 10.384H19.1505L19.2593 10.3916L19.3732 10.3996L19.4864 10.4113L19.599 10.4275L19.7172 10.4506L19.8301 10.4776L19.944 10.5097L20.0565 10.5445L20.1707 10.588L20.2804 10.6346L20.3857 10.6905L20.4879 10.753L20.5894 10.8193L20.6824 10.8982L20.7772 10.9804L20.8626 11.0705L20.9445 11.1691L21.0192 11.2783L21.0859 11.3921L21.1485 11.5178L21.2032 11.6507L21.2497 11.7966L21.2845 11.9498L21.3164 12.1145L21.336 12.2861L21.3443 12.471V12.667L21.3322 12.8751L21.3129 13.0947L21.2778 13.3262L21.2301 13.5695L21.1684 13.9147H17.1051L17.3474 12.8241H19.784L19.7953 12.675V12.5376L19.7874 12.4085L19.7643 12.2902L19.733 12.1852L19.6935 12.0865L19.6426 11.9999L19.5841 11.9216L19.5174 11.8512L19.4427 11.7928L19.3646 11.7455L19.2827 11.7059L19.1929 11.6745L19.0993 11.6507L19.0016 11.6402L18.8994 11.6351H18.79L18.6885 11.6507L18.5867 11.6703L18.4928 11.7021L18.4029 11.7455L18.3169 11.7966L18.235 11.855L18.1604 11.9216L18.0902 11.9999L18.0279 12.0827L17.9684 12.1728L17.914 12.2712L17.8676 12.373L17.8283 12.4827L17.7974 12.6011L17.7692 12.7222L17.5504 13.8947Z" fill="white"/>
<path d="M15.3769 15.2677L15.1533 16.5201H13.742L13.7575 16.4017L13.7723 16.284L13.7882 16.1787L13.8036 16.0801L13.8195 15.9973L13.8312 15.9275L13.847 15.8802L13.8628 15.853L13.7882 15.9389L13.6942 16.0249L13.5895 16.108L13.4678 16.1867L13.3388 16.2609L13.1977 16.3313L13.0491 16.3944L12.8964 16.4528L12.7363 16.5039L12.5722 16.5477L12.4075 16.5781L12.244 16.6019L12.0792 16.614L11.9192 16.6178L11.7627 16.6063L11.6106 16.5822L11.4104 16.5356L11.2349 16.4718L11.0748 16.3976L10.9335 16.3155L10.8089 16.2254L10.7026 16.1235L10.609 16.0176L10.5309 15.9002L10.4642 15.7825L10.4098 15.6601L10.3665 15.5345L10.3311 15.4057L10.3086 15.2801L10.2915 15.1506L10.2846 15.0247L10.2798 14.9035L10.2963 14.684L10.3311 14.4759L10.3823 14.2751L10.4563 14.0873L10.5461 13.9113L10.6476 13.7463L10.7694 13.5931L10.8984 13.4478L11.0436 13.3184L11.1953 13.2048L11.3598 13.0995L11.5321 13.0085L11.7118 12.9304L11.8958 12.867L12.0827 12.8207L12.2747 12.7848H12.2829L12.3104 12.7813L12.3531 12.7766L12.4109 12.7693L12.4783 12.7614L12.5564 12.7537L12.6434 12.7417L12.7363 12.7347L12.8306 12.7261L12.9245 12.7144L13.0219 12.7062L13.1158 12.6985L13.2015 12.6906L13.2834 12.6868L13.3587 12.6833H13.6205L13.6911 12.6868H13.7575L13.8195 12.6906H13.9447L13.9997 12.6947H14.0506L14.0936 12.6985H14.1328L14.1635 12.703H14.2068L14.2192 12.6633L14.2457 12.5698L14.266 12.459V12.3617L14.2578 12.2903L14.2457 12.224L14.2261 12.1609L14.1989 12.1025L14.1679 12.0473L14.1287 11.9969L14.0895 11.9499L14.0424 11.9023L13.9918 11.8633L13.9406 11.8316L13.8811 11.8002L13.8236 11.7726L13.7613 11.7536L13.6942 11.7371L13.6275 11.7266L13.5611 11.718L13.4014 11.7139L13.2325 11.718L13.0561 11.7218L12.8774 11.7336L12.6971 11.7456L12.5172 11.7612L12.3379 11.7811L12.1618 11.8002L11.9935 11.8275L11.8335 11.8513L11.6887 11.8789L11.5517 11.9099L11.43 11.9413L11.3282 11.9724L11.2456 12.0042L11.1881 12.0394L11.5903 10.7058L11.7076 10.6512L11.8335 10.6005L11.9578 10.5567L12.0909 10.5215L12.2285 10.4939L12.3689 10.4704L12.5172 10.4507L12.6696 10.4355L12.8268 10.4276L12.9868 10.4193L13.1506 10.4155H13.6825L13.8707 10.4193L14.0664 10.4238L14.2261 10.439L14.395 10.4625L14.5702 10.5063L14.746 10.5567L14.9228 10.6233L15.0993 10.7058L15.2624 10.7997L15.419 10.9101L15.5638 11.0351L15.6928 11.1724L15.8029 11.3256L15.8883 11.4937L15.9506 11.6787L15.986 11.8789L15.9904 12.0904L15.9594 12.322L15.3769 15.2677Z" fill="white"/>
<path d="M14.0266 13.7932L14.0228 13.7618L13.9997 13.738L13.9602 13.7186L13.9099 13.7072L13.8432 13.6989L13.7723 13.6948H13.6047L13.5149 13.7028L13.421 13.7145L13.3309 13.7259L13.241 13.7424L13.155 13.7573L13.0725 13.7732L13.0026 13.7932L12.9397 13.8125L12.9043 13.8204L12.8575 13.8357L12.7996 13.856L12.7363 13.8829L12.6696 13.9112L12.5953 13.9461L12.521 13.9892L12.4473 14.0327L12.3727 14.0872L12.3021 14.1469L12.2351 14.2087L12.1776 14.2804L12.1219 14.354L12.0827 14.4371L12.0523 14.5266L12.0324 14.6208L12.0248 14.813L12.0523 14.9621L12.0988 15.0798L12.169 15.1664L12.2553 15.2248L12.3452 15.2641L12.4429 15.2841L12.5371 15.2882L12.7091 15.2841L12.8622 15.2676L13.0064 15.2406L13.1354 15.2057L13.2527 15.1664L13.3587 15.1191L13.4517 15.0646L13.5339 15.0056L13.6079 14.9466L13.6708 14.8799L13.7258 14.8168L13.7723 14.7505L13.8119 14.6839L13.8432 14.6208L13.8669 14.5586L13.8862 14.4993L13.9061 14.4127L13.9251 14.322L13.9447 14.2284L13.9649 14.13L13.9795 14.0365L13.9959 13.9499L14.0114 13.8677L14.0266 13.7932Z" fill="#0084C4"/>
<path d="M3.57379 16.5199H2.04385L3.33061 9.13257H5.99012L6.25228 13.5302L8.06272 9.13257H10.8241L9.53384 16.5199H8.00454L8.97001 10.988H8.91118L6.63556 16.5199H4.92283L4.90702 16.2877L4.87161 15.672L4.82069 14.8009L4.7622 13.8014L4.704 12.7923L4.65309 11.9022L4.61736 11.2586L4.60186 10.988H4.52376H4.53957L3.57379 16.5199Z" fill="white"/>
<path d="M29.1226 16.5199H30.7146L31.2578 13.3302L31.2812 13.2046L31.3088 13.0828L31.3397 12.9613L31.379 12.8481L31.4216 12.7345L31.4767 12.6279L31.5428 12.5261L31.6174 12.4284L31.7078 12.3412L31.8087 12.2625L31.9302 12.1924L32.063 12.1296L32.2201 12.0785L32.3956 12.0392L32.5911 12.016L32.8099 11.9998H32.8295L32.8532 12.004L32.8849 12.0078H32.9155L32.9437 12.0116L32.9665 12.016L32.9823 12.0198H32.9905L32.9946 11.9967L33.0098 11.9294L33.0297 11.8273L33.0607 11.6982L33.0999 11.5535L33.1426 11.3959L33.1938 11.2391L33.2517 11.0907L33.2953 10.9803L33.3459 10.8743L33.3965 10.7687L33.4516 10.6707L33.4987 10.5879L33.5379 10.5213L33.5648 10.4775L33.5733 10.4623H33.5648L33.5455 10.4544L33.5183 10.4505L33.4784 10.4426L33.4395 10.4353L33.3924 10.4312L33.3504 10.4236H33.3111L33.1388 10.4353L32.9823 10.4544L32.8381 10.4861L32.7043 10.5213L32.5794 10.5679L32.4665 10.6193L32.3571 10.6818L32.2594 10.749L32.1607 10.8239L32.0709 10.9058L31.989 10.992L31.9023 11.0856L31.821 11.184L31.7426 11.2905L31.6604 11.4003L31.5788 11.5139L31.7622 10.5061L30.1706 10.4861L29.1226 16.5199Z" fill="white"/>
<path d="M36.0092 10.4236L36.185 10.4274L36.3574 10.4388L36.5256 10.4544L36.6898 10.4775L36.8463 10.5095L36.9981 10.5486L37.1436 10.5923L37.2875 10.6425L37.4247 10.7015L37.5537 10.7646L37.6827 10.8312L37.8001 10.9058L37.918 10.9879L38.0268 11.0742L38.1296 11.1646L38.2267 11.2629L38.3203 11.3648L38.406 11.4745L38.4853 11.5849L38.5593 11.702L38.6289 11.8235L38.6881 11.9535L38.7462 12.0826L38.794 12.2194L38.8367 12.3573L38.8715 12.5026L38.9028 12.6517L38.9271 12.8043L38.942 12.9572L38.9502 13.1183L38.954 13.283L38.9502 13.4476L38.9382 13.6481L38.9151 13.8406L38.8873 14.0243L38.8519 14.2048L38.8136 14.3777L38.762 14.542L38.7076 14.7035L38.6488 14.8554L38.5783 15.001L38.5084 15.1422L38.4256 15.2754L38.344 15.401L38.2538 15.5229L38.1558 15.6364L38.0546 15.7427L37.9493 15.8448L37.8393 15.9387L37.7261 16.0294L37.605 16.111L37.4835 16.1865L37.3545 16.2566L37.2207 16.3197L37.0885 16.3784L36.9475 16.4288L36.8074 16.4758L36.6581 16.5157L36.5098 16.5475L36.3606 16.5744L36.2047 16.5944L36.0487 16.6093L35.8881 16.6176L35.7271 16.6214L35.5668 16.6176L35.4065 16.6093L35.2544 16.5944L35.1019 16.5703L34.9536 16.5427L34.8044 16.5116L34.6637 16.4717L34.5274 16.4257L34.3898 16.3743L34.2611 16.3153L34.1362 16.2528L34.0147 16.1823L33.898 16.1078L33.788 16.0247L33.6786 15.9387L33.5771 15.8448L33.4828 15.7462L33.3886 15.6409L33.3064 15.5311L33.2248 15.4134L33.154 15.2913L33.0837 15.1625L33.0256 15.0283L32.9702 14.8913L32.9234 14.7463L32.8804 14.5937L32.8453 14.437L32.8184 14.2749L32.7988 14.1071L32.7871 13.9339L32.7833 13.754L32.7871 13.5694L32.7988 13.3813L32.8184 13.2005L32.8453 13.0238L32.8804 12.8554L32.9196 12.6904L32.9664 12.5293L33.017 12.3767L33.0758 12.2279L33.1388 12.0826L33.2083 11.9453L33.2868 11.8155L33.3696 11.6867L33.456 11.5691L33.5489 11.4511L33.6473 11.3448L33.7488 11.2391L33.8582 11.1408L33.9717 11.0507L34.0884 10.9648L34.2102 10.8864L34.3386 10.8153L34.4723 10.7456L34.6089 10.6859L34.7462 10.631L34.891 10.5847L35.0387 10.541L35.1918 10.5061L35.3483 10.4737L35.5086 10.4544L35.6724 10.4353L35.841 10.4274L36.0092 10.4236Z" fill="white"/>
<path d="M38.3481 16.2178H38.8098V16.2761H38.629V16.6606H38.5281V16.2761H38.3481V16.2178Z" fill="white"/>
<path d="M38.8683 16.2178H39.0084L39.1735 16.5591L39.3332 16.2178H39.4742V16.6606H39.3721V16.3199L39.2121 16.6606H39.1302L38.9689 16.3199V16.6606H38.8683V16.2178Z" fill="white"/>
<path d="M34.7617 13.306L34.7383 13.5261L34.7263 13.7304V13.9147L34.7383 14.0873L34.7617 14.2443L34.7959 14.3817L34.8405 14.5073L34.8945 14.6208L34.961 14.7182L35.0353 14.801L35.1172 14.8714L35.2079 14.9273L35.305 14.9695L35.4148 15.0012L35.5277 15.017L35.6497 15.0247L35.7822 15.0212L35.9119 15.0056L36.033 14.9777L36.15 14.9352L36.2597 14.88L36.365 14.8093L36.4628 14.7262L36.5567 14.6281L36.6386 14.519L36.7177 14.3928L36.791 14.2516L36.854 14.099L36.9128 13.9309L36.9634 13.7463L37.0032 13.5458L37.038 13.3304L37.0573 13.1613L37.069 13.0005V12.8438L37.0573 12.6947L37.038 12.5573L37.0067 12.4238L36.9634 12.3023L36.9128 12.1887L36.8502 12.0866L36.7796 12L36.6974 11.9216L36.6076 11.8592L36.5061 11.8078L36.3964 11.7764L36.2793 11.7573H36.15L35.9897 11.7691L35.841 11.7967L35.7041 11.8433L35.5748 11.9023L35.4578 11.9806L35.3483 12.0669L35.2506 12.1646L35.164 12.2753L35.0824 12.3927L35.0122 12.5183L34.9486 12.6433L34.8987 12.7765L34.8515 12.9101L34.813 13.044L34.7848 13.1775L34.7617 13.306Z" fill="#EC1C2E"/>
</svg>
