<svg width="14" height="14" fill="none" xmlns="http://www.w3.org/2000/svg"><path d="M12.265 7.7c-.155 0-.316-.05-.47-.084a6.63 6.63 0 01-.921-.274 1.405 1.405 0 00-1.742.702l-.155.316a8.557 8.557 0 01-1.869-1.405 8.556 8.556 0 01-1.405-1.869l.295-.196a1.405 1.405 0 00.703-1.742 7.258 7.258 0 01-.274-.92 5.21 5.21 0 01-.085-.479A2.108 2.108 0 004.235 0H2.127A2.108 2.108 0 00.02 2.396a13.348 13.348 0 0011.606 11.563h.266a2.108 2.108 0 001.926-1.248c.122-.273.183-.568.182-.866V9.737A2.107 2.107 0 0012.265 7.7zm.351 4.215a.702.702 0 01-.508.676c-.1.03-.204.04-.307.027A11.943 11.943 0 011.467 2.233a.766.766 0 01.176-.576.703.703 0 01.527-.239h2.107a.702.702 0 01.703.555 7.813 7.813 0 00.429 1.658l-.984.457a.702.702 0 00-.345.934A10.18 10.18 0 008.998 9.94c.171.07.363.07.534 0a.703.703 0 00.4-.365l.436-.984c.363.13.734.238 1.11.323.187.042.377.078.569.106a.703.703 0 01.555.702l.014 2.192z" fill="#373737"/></svg>