<svg width="919" height="314" viewBox="0 0 919 314" fill="none" xmlns="http://www.w3.org/2000/svg">
<path d="M292.079 95.5842V312.879L29.7259 313.799C30.3837 304.301 -12.7997 179.018 42.553 107.449C121.102 5.85083 188.229 88.0131 276.837 95.1472C281.843 95.5417 286.896 95.7177 292.082 95.5842H292.079Z" fill="#EAFBF4"/>
<path d="M894.896 308.676C894.546 311.392 866.12 308.239 865.727 310.91L688.38 311.523H292.079V95.5842C297.086 95.4537 302.138 95.0592 307.324 94.3582C324.719 91.9943 342.952 86.0407 362.281 74.8342C562.341 -40.7713 725.235 -9.38546 816.7 80.8759C827.946 91.9944 838.139 104.032 847.187 116.771C886.064 171.62 903.639 239.951 894.896 308.676Z" fill="#EAFBF4"/>
<path opacity="0.6" d="M897.095 274.49C897.137 286.351 896.437 298.259 894.899 310.209C894.549 312.921 866.123 309.772 865.73 312.442L688.383 313.055H292.079V312.879L688.377 311.523L865.724 310.91C866.12 308.239 894.543 311.392 894.893 308.676C896.343 297.251 897.089 285.826 897.089 274.49H897.095Z" fill="#EBF3FA"/>
<path d="M819.1 146.391V311.526H307.324V167.827H346.555V128.609H385.785V181.591H417.545V169.754H472.868V189.766H496.947V144.819H561.397V67.7365H612.361V108.848H623.982V74.4094H674.947V127.459H721.136V94.9045H770.535V127.459H779.744V146.391H819.1Z" fill="#C5EEDD"/>
<path d="M233.038 109.522H187.528C185.431 109.522 183.731 111.216 183.731 113.306V157.075C183.731 159.165 185.431 160.859 187.528 160.859H233.038C235.136 160.859 236.836 159.165 236.836 157.075V113.306C236.836 111.216 235.136 109.522 233.038 109.522Z" fill="#C0D8FB"/>
<path d="M189.502 111.746H231.068C232.983 111.746 234.537 113.294 234.537 115.202V155.179C234.537 157.088 232.983 158.635 231.068 158.635H189.502C187.586 158.635 186.033 157.088 186.033 155.179V115.202C186.033 113.294 187.586 111.746 189.502 111.746Z" fill="#DFEBFD"/>
<path d="M210.283 117.527C210.89 117.527 211.383 117.036 211.383 116.431C211.383 115.826 210.89 115.336 210.283 115.336C209.676 115.336 209.184 115.826 209.184 116.431C209.184 117.036 209.676 117.527 210.283 117.527Z" fill="#B7D3F3"/>
<path d="M218.061 117.979C218.356 117.451 219.026 117.26 219.556 117.554C220.086 117.848 220.278 118.516 219.983 119.044C219.687 119.572 219.017 119.763 218.487 119.469C217.958 119.174 217.766 118.507 218.061 117.979Z" fill="#B7D3F3"/>
<path d="M225.665 123.999C226.177 123.672 226.856 123.817 227.185 124.327C227.514 124.837 227.368 125.514 226.856 125.841C226.345 126.169 225.665 126.023 225.337 125.514C225.008 125.004 225.154 124.327 225.665 123.999Z" fill="#B7D3F3"/>
<path d="M230.451 134.835C230.682 134.276 230.414 133.636 229.853 133.405C229.291 133.175 228.649 133.442 228.417 134.001C228.186 134.561 228.454 135.201 229.015 135.431C229.577 135.661 230.219 135.395 230.451 134.835Z" fill="#B7D3F3"/>
<path d="M227.508 144.133C227.937 144.561 227.937 145.256 227.508 145.684C227.078 146.112 226.381 146.112 225.952 145.684C225.522 145.256 225.522 144.561 225.952 144.133C226.381 143.705 227.078 143.705 227.508 144.133Z" fill="#B7D3F3"/>
<path d="M220.601 151.034C221.03 151.462 221.03 152.156 220.601 152.584C220.172 153.012 219.474 153.012 219.045 152.584C218.615 152.156 218.615 151.462 219.045 151.034C219.474 150.606 220.172 150.606 220.601 151.034Z" fill="#B7D3F3"/>
<path d="M210.283 155.686C210.89 155.686 211.383 155.195 211.383 154.59C211.383 153.985 210.89 153.495 210.283 153.495C209.676 153.495 209.184 153.985 209.184 154.59C209.184 155.195 209.676 155.686 210.283 155.686Z" fill="#B7D3F3"/>
<path d="M202.472 117.979C202.176 117.451 201.506 117.26 200.977 117.554C200.447 117.848 200.255 118.516 200.55 119.044C200.846 119.572 201.516 119.763 202.045 119.469C202.575 119.174 202.767 118.507 202.472 117.979Z" fill="#B7D3F3"/>
<path d="M194.868 123.999C194.356 123.672 193.677 123.817 193.348 124.327C193.019 124.837 193.165 125.514 193.677 125.841C194.188 126.169 194.868 126.023 195.196 125.514C195.525 125.004 195.379 124.327 194.868 123.999Z" fill="#B7D3F3"/>
<path d="M191.1 135.509C191.708 135.509 192.2 135.019 192.2 134.414C192.2 133.809 191.708 133.318 191.1 133.318C190.493 133.318 190.001 133.809 190.001 134.414C190.001 135.019 190.493 135.509 191.1 135.509Z" fill="#B7D3F3"/>
<path d="M193.025 144.133C192.596 144.561 192.596 145.256 193.025 145.684C193.455 146.112 194.152 146.112 194.581 145.684C195.011 145.256 195.011 144.561 194.581 144.133C194.152 143.705 193.455 143.705 193.025 144.133Z" fill="#B7D3F3"/>
<path d="M199.932 151.034C199.503 151.462 199.503 152.156 199.932 152.584C200.361 153.012 201.059 153.012 201.488 152.584C201.918 152.156 201.918 151.462 201.488 151.034C201.059 150.606 200.361 150.606 199.932 151.034Z" fill="#C5EEDD"/>
<path d="M211.087 135.509C211.694 135.509 212.187 135.019 212.187 134.414C212.187 133.809 211.694 133.318 211.087 133.318C210.48 133.318 209.988 133.809 209.988 134.414C209.988 135.019 210.48 135.509 211.087 135.509Z" fill="#B7D3F3"/>
<path d="M211.239 120.722H210.938V134.417H211.239V120.722Z" fill="#B7D3F3"/>
<path d="M217.958 128.326L210.674 134.025L211.231 134.731L218.515 129.032L217.958 128.326Z" fill="#B7D3F3"/>
<path d="M307.324 94.3582V310.385H276.831V95.135C286.713 95.9392 296.86 95.7935 307.324 94.3582Z" fill="#C5EEDD"/>
<path d="M847.19 116.774V310.385H816.697V80.8759C827.968 92.0034 838.154 104.023 847.19 116.774Z" fill="#C5EEDD"/>
<path d="M1.32474 309.553H917.675C918.406 309.553 919 310.145 919 310.873V312.169C919 312.897 918.406 313.489 917.675 313.489H1.32474C0.59385 313.489 0 312.897 0 312.169V310.873C0 310.145 0.59385 309.553 1.32474 309.553Z" fill="#2E3552"/>
<path d="M332.327 234.134H327.436L333.426 309.666H345.321L332.327 234.134Z" fill="#B7D3F3"/>
<path d="M429.59 212.094L428.539 212.306C423.865 213.247 419.266 210.207 418.322 205.549L417.213 200.08C416.269 195.422 419.321 190.84 423.995 189.9L425.046 189.687C429.721 188.747 434.319 191.787 435.263 196.445L436.372 201.913C437.316 206.571 434.264 211.153 429.59 212.094Z" fill="#122544"/>
<path d="M327.436 234.134C327.436 234.134 354.147 221.641 390.74 229.952L332.327 234.134H327.436Z" fill="#B7D3F3"/>
<path d="M345.321 310.388L332.327 234.137C332.327 234.137 373.25 220.442 405.002 234.137L423.889 309.908L345.324 310.388H345.321Z" fill="#D2E3FC"/>
<path d="M628.267 286.776C627.542 295.048 622.852 297.603 620.791 297.385C618.729 297.166 606.672 292.578 606.41 294.262C606.148 295.947 613.406 301.445 618.488 301.703C618.488 301.703 608.892 312.248 602.515 309.204C596.138 306.161 595.593 301.336 591.619 299.527C587.642 297.719 584.249 297.722 585.891 299.57C587.532 301.415 594.728 303.208 597 307.217C597.536 308.16 598.06 309.034 598.462 309.805L585.035 309.778C580.777 307.669 577.19 304.762 576.922 301.627C576.901 301.387 576.882 301.16 576.864 300.941L576.45 296.12C576.45 296.12 569.555 288.105 573.14 281.457C573.734 280.352 574.62 279.284 575.871 278.298C575.871 278.298 582.297 274.42 587.538 274.738C587.538 274.738 583.479 281.524 582.334 285.556C581.929 286.977 581.889 288.057 582.513 288.378C583.198 288.73 584.085 287.708 585.001 286.066C587.298 281.957 589.786 273.962 589.786 273.962C589.786 273.962 593.65 273.588 598.048 273.531C600.021 273.506 602.101 273.543 603.986 273.707C606.069 273.889 607.915 274.226 609.115 274.799C609.115 274.799 608.853 275.015 608.411 275.382C607.756 275.928 606.706 276.817 605.536 277.846C602.068 280.901 597.564 285.21 599.248 285.599C600.612 285.914 604.891 283.381 608.7 280.865C612.245 278.525 615.382 276.201 615.382 276.201C615.382 276.201 628.992 278.507 628.267 286.782V286.776Z" fill="#82B378"/>
<path d="M621.579 287.001C621.579 287.001 584.612 285.581 576.45 296.116C576.45 296.116 574.644 301.506 569.089 306.409L568.224 308.761C568.224 308.761 574.629 302.031 576.922 301.624C576.922 301.624 573.338 288.573 621.582 287.001H621.579Z" fill="#82B378"/>
<path d="M570.643 306.349C570.326 306.695 569.851 307.165 569.172 307.79L569.156 307.805C568.922 308.021 568.69 308.257 568.468 308.506C568.124 308.886 567.795 309.298 567.481 309.738H565.755C567.533 307.553 569.086 306.409 569.086 306.409C569.086 306.409 569.086 306.409 569.092 306.406C569.226 306.324 572.412 304.407 570.643 306.349Z" fill="#82B378"/>
<path d="M536.096 282.407C536.096 282.407 551.009 274.086 544.05 262.792C544.05 262.792 538.483 255.858 532.517 254.073C532.517 254.073 535.7 270.915 532.517 271.312C529.335 271.71 530.331 252.289 530.331 252.289C530.331 252.289 514.62 244.76 508.456 245.355C508.456 245.355 518.201 261.802 515.019 261.405C511.836 261.007 500.9 244.363 500.9 244.363C500.9 244.363 484.793 241.392 482.208 250.902C479.622 260.412 483.797 265.168 486.185 265.762C488.57 266.357 503.882 266.16 503.486 268.141C503.087 270.123 492.748 273.294 486.98 271.51C486.98 271.51 493.345 287.162 501.695 286.37C510.046 285.578 512.631 280.425 517.802 280.027C522.973 279.63 526.749 281.017 524.167 282.407C521.581 283.793 512.832 282.862 508.657 286.4C504.482 289.938 501.101 292.117 508.855 293.701C516.611 295.285 530.529 294.296 533.315 288.351L536.099 282.407H536.096Z" fill="#A8D29F"/>
<path d="M489.562 253.873C489.562 253.873 531.324 267.346 536.096 282.407C536.096 282.407 535.898 289.143 540.073 296.872V299.846C540.073 299.846 535.697 289.741 533.312 288.354C533.312 288.354 542.659 275.275 489.562 253.876V253.873Z" fill="#82B378"/>
<path d="M543.941 309.705L541.556 309.699C541.48 306.261 541.081 302.398 539.902 299.457C539.756 299.087 539.598 298.735 539.424 298.398L539.418 298.386C538.922 297.421 538.587 296.708 538.377 296.192C537.155 293.209 540.073 296.872 540.073 296.872C540.073 296.872 543.572 302.167 543.941 309.705Z" fill="#82B378"/>
<path d="M559.822 270.93C559.822 270.93 540.161 259.96 549.337 245.073C549.337 245.073 556.676 235.93 564.54 233.581C564.54 233.581 560.346 255.782 564.54 256.304C568.733 256.826 567.424 231.23 567.424 231.23C567.424 231.23 588.132 221.304 596.257 222.087C596.257 222.087 583.412 243.765 587.608 243.243C591.802 242.721 606.219 220.782 606.219 220.782C606.219 220.782 627.451 216.864 630.859 229.4C634.267 241.938 628.76 248.205 625.618 248.991C622.472 249.773 602.287 249.513 602.811 252.125C603.335 254.738 616.966 258.916 624.567 256.565C624.567 256.565 616.18 277.199 605.168 276.155C594.159 275.112 590.751 268.32 583.936 267.798C577.12 267.277 572.141 269.103 575.549 270.933C578.956 272.763 590.489 271.531 595.995 276.195C601.501 280.859 605.957 283.73 595.733 285.82C585.51 287.911 567.162 286.603 563.492 278.768L559.822 270.933V270.93Z" fill="#A8D29F"/>
<path d="M621.159 233.317C621.159 233.317 566.111 251.078 559.822 270.93C559.822 270.93 560.084 279.812 554.581 289.996V293.913C554.581 293.913 560.349 280.592 563.495 278.765C563.495 278.765 551.173 261.526 621.162 233.317H621.159Z" fill="#82B378"/>
<path d="M556.816 289.095L556.813 289.101C556.533 289.783 556.092 290.724 555.44 292.002C555.44 292.005 555.44 292.008 555.434 292.011C555.205 292.454 554.998 292.918 554.803 293.404C552.918 298.11 552.547 304.604 552.617 309.72L549.459 309.714C549.081 298.313 554.581 289.993 554.581 289.993C554.663 289.887 558.406 285.213 556.819 289.092L556.816 289.095Z" fill="#82B378"/>
<path d="M461.944 309.905H387.168C386.062 307.235 385.094 304.382 384.244 301.412C382.112 293.983 380.733 285.793 379.853 277.776C379.841 277.676 379.831 277.57 379.819 277.466C378.309 263.556 378.303 250.174 378.507 242.136C378.622 237.484 378.808 234.619 378.82 234.48C378.979 234.407 379.14 234.343 379.299 234.279C383.264 232.622 387.067 231.193 390.713 229.955C390.731 229.952 390.743 229.949 390.743 229.949C393.807 228.908 396.758 228.01 399.596 227.233C404.584 225.868 409.225 224.887 413.519 224.208C418.578 223.41 423.161 223.03 427.266 222.945C427.452 222.939 427.632 222.939 427.818 222.933C428.902 222.915 429.949 222.918 430.963 222.939C441.199 223.158 448.011 225.188 451.456 226.541C451.934 226.729 452.345 226.905 452.689 227.063C452.735 227.081 452.78 227.1 452.826 227.121C453.216 227.294 453.517 227.44 453.728 227.546C453.755 227.558 453.785 227.573 453.81 227.591C453.91 227.643 454.011 227.7 454.105 227.755L459.499 284.221L461.95 309.899L461.944 309.905Z" fill="#2B478B"/>
<path d="M536.458 297.7C528.966 301.166 484.403 304.076 480.125 302.847C477.929 302.216 468.741 294.153 459.498 284.233L459.489 284.227C450.743 274.845 441.924 263.802 438.951 255.855C432.833 239.523 438.092 225.024 438.092 225.024C438.092 225.024 449.464 224.975 454.099 227.764C458.734 230.559 485.238 279.196 488.78 280.477C492.325 281.766 534.305 284.157 539.111 286.43C539.111 286.43 543.944 294.235 536.458 297.7Z" fill="#2B478B"/>
<path d="M427.802 224.912L427.79 227.661C427.79 227.661 428.554 236.258 417.929 237.532C407.304 238.807 399.246 234.206 399.526 227.573C400.476 222.433 401.521 218.903 401.585 214.652C401.609 213.071 401.496 211.396 401.198 209.503L421.788 209.063L427.854 210.04L427.799 224.912H427.802Z" fill="#EA9E6A"/>
<path d="M427.86 210.04L427.805 224.912C425.619 225.928 423.152 226.55 420.387 226.556C410.922 226.572 401.502 211.396 401.204 209.503L427.86 210.04Z" fill="#D88D59"/>
<path d="M429.072 217.265C429.072 217.265 402.708 222.615 399.617 206.204C396.526 189.793 391.044 179.431 407.745 175.322C424.446 171.213 428.908 176.86 431.274 182.089C433.643 187.317 435.848 215.45 429.069 217.265H429.072Z" fill="#EA9E6A"/>
<path d="M436.384 169.884C436.384 169.884 429.03 169.332 420.35 165.587C413.306 162.547 404.429 165.921 401.548 167.438C401.624 166.974 401.81 166.343 402.249 165.709C402.249 165.709 400.954 166.625 400.765 167.906C400.631 168.003 400.574 168.072 400.607 168.094C400.607 168.094 399.139 167.83 398.198 168.251C398.198 168.251 398.859 168.157 399.094 168.579C399.118 168.625 399.154 168.661 399.2 168.695C388.225 173.999 387.238 191.295 390.78 195.292C395.04 200.099 400.153 210.935 400.153 210.935C400.153 210.935 402.008 208.371 401.228 204.134C400.449 199.898 404.121 199.892 408.756 197.959C413.392 196.026 409.518 190.64 413.571 187.36C417.625 184.079 432.51 185.982 432.312 183.479C437.834 181.464 436.384 170.445 436.384 169.881V169.884Z" fill="#8E342E"/>
<path d="M387.168 309.905C386.062 307.235 385.094 304.382 384.244 301.412C382.112 293.983 380.733 285.793 379.853 277.776C379.841 277.676 379.831 277.57 379.819 277.466C379.877 277.494 379.969 277.645 380.029 277.573C382.941 274.049 390.889 270.193 400.513 284.233C402.434 287.031 410.855 306.634 412.198 309.908H387.168V309.905Z" fill="#233862"/>
<path d="M394.982 309.905C394.766 308.637 395.004 307.044 395.996 305.056C395.996 305.056 397.23 304.258 398.868 303.329C401.311 301.958 404.648 300.295 406.162 300.562C406.433 300.611 406.798 300.689 407.234 300.796C410.821 301.654 419.187 304.222 420.451 305.724C421.492 306.962 422.911 308.537 423.889 309.905H394.982Z" fill="#EA9E6A"/>
<path d="M400.513 309.905H330.058C329.869 309.004 329.863 308.173 330.11 307.544C332.211 302.255 336.313 293.546 341.036 284.206C344.511 277.333 348.318 270.114 351.915 263.659C356.906 254.695 361.48 247.2 364.166 244.123C366.283 241.705 368.956 239.675 371.746 238.003C374.112 236.582 376.561 235.417 378.817 234.483C378.976 234.41 379.137 234.346 379.295 234.282C384.202 232.301 388.09 231.433 388.09 231.433C388.09 231.433 388.142 233.651 388.148 237.062C388.164 246.957 387.783 266.9 384.613 271.765C383.73 273.121 382.085 275.169 380.029 277.573C379.968 277.639 379.914 277.709 379.853 277.776C378.738 279.078 377.505 280.477 376.211 281.915C368.856 290.123 359.543 299.761 358.41 300.935C358.331 301.014 358.295 301.057 358.295 301.057H358.432L378.187 301.333L384.247 301.415L396.812 301.588C397.68 301.961 398.356 302.574 398.871 303.333C400.086 305.105 400.461 307.684 400.516 309.908L400.513 309.905Z" fill="#2B478B"/>
<path d="M536.458 297.7C528.967 301.166 484.404 304.076 480.125 302.847C477.929 302.216 468.741 294.153 459.499 284.233C459.955 284.294 464.182 277.272 483.453 294.071C483.453 294.071 488.5 296.311 502.237 295.057C515.975 293.804 533.614 293.343 536.458 297.7Z" fill="#233862"/>
<path d="M492.681 309.772H441.738C441.738 307.538 443.556 305.724 445.797 305.724H492.678V309.772H492.681Z" fill="#B24940"/>
<path d="M492.535 254.489H571.294L552.404 309.772H473.133L492.535 254.489Z" fill="#B24940"/>
<path d="M572.455 254.489L553.564 309.772H474.293L493.695 254.489H572.455Z" fill="#C65447"/>
<path d="M529.993 281.621C529.503 283.733 527.389 285.444 525.269 285.444C523.15 285.444 521.828 283.733 522.319 281.621C522.809 279.509 524.922 277.797 527.042 277.797C529.161 277.797 530.483 279.509 529.993 281.621Z" fill="#F9DDBF"/>
<path d="M572.455 254.489L553.564 309.772H516.688L560.858 254.489H572.455Z" fill="#B24940"/>
<path d="M407.279 212.094L406.229 212.306C401.554 213.247 396.956 210.207 396.012 205.549L394.903 200.08C393.959 195.422 397.01 190.84 401.685 189.9L402.736 189.687C407.41 188.747 412.009 191.787 412.953 196.445L414.061 201.913C415.006 206.571 411.954 211.153 407.279 212.094Z" fill="#122544"/>
<path d="M399.109 192.4C398.405 191.135 397.373 180.957 400.181 172.852C401.539 168.934 403.731 166.701 406.485 165.193C407.48 164.646 408.595 164.355 409.731 164.355L412.496 164.401C403.384 168.245 401.274 188.807 401.983 191.001C401.962 190.934 401.932 190.886 401.913 190.849L399.106 192.397L399.109 192.4Z" fill="#122544"/>
<path d="M425.698 213.809C410.386 213.809 402.806 201.752 402.733 201.628L404.1 200.794L403.415 201.209L404.1 200.79C404.17 200.906 411.308 212.206 425.698 212.206C425.795 212.206 425.89 212.206 425.987 212.206L426.005 213.805C425.902 213.805 425.801 213.805 425.698 213.805V213.809Z" fill="#122544"/>
<path d="M404.81 206.741L404.286 206.847C401.956 207.318 399.666 205.8 399.194 203.479L398.643 200.754C398.171 198.433 399.693 196.151 402.023 195.68L402.547 195.574C404.877 195.104 407.167 196.621 407.639 198.942L408.19 201.667C408.662 203.989 407.139 206.271 404.81 206.741Z" fill="#2B478B"/>
<path d="M427.601 214.34H426.158C425.424 214.34 424.821 213.739 424.821 213.007C424.821 212.273 425.424 211.675 426.158 211.675H427.601C428.335 211.675 428.938 212.276 428.938 213.007C428.938 213.739 428.335 214.34 427.601 214.34Z" fill="#122544"/>
<path d="M121.264 190.461C121.264 190.461 108.415 197.006 117.777 211.065C117.777 211.065 106.737 212.337 103.963 209.175C103.963 209.175 104.38 210.559 104.871 211.232C104.871 211.232 94.1783 209.836 90.3472 205.797C86.5161 201.758 98.4631 148.042 126.947 159.036C126.947 159.036 152.269 161.336 145.082 189.778C137.895 218.218 147.335 219.799 147.335 219.799C147.335 219.799 144.491 220.648 143.224 220.436C143.224 220.436 141.491 219.422 141.296 218.339C141.296 218.339 141.391 220.005 141.781 220.594C141.781 220.594 131.426 219.85 126.983 215.168C122.54 210.483 118.806 196.166 121.261 190.461H121.264Z" fill="#8E342E"/>
<path d="M139.6 204.514L138.571 204.656C133.99 205.291 129.724 202.074 129.087 197.51L128.341 192.154C127.705 187.59 130.933 183.339 135.513 182.705L136.542 182.562C141.123 181.928 145.389 185.145 146.026 189.708L146.772 195.064C147.408 199.628 144.18 203.88 139.6 204.514Z" fill="#ED7D2B"/>
<path d="M142.536 247.458C138.702 250.408 136.278 261.053 130.095 262.81C106.926 269.401 94.4889 241.984 90.4203 228.602C93.5235 226.617 96.511 226.062 98.2408 225.768C99.9249 225.482 101.7 225.261 103.174 225.112C105.705 222.97 109.207 214.546 109.42 201.734L110.538 201.974L129.273 206.074C129.273 206.074 128.728 211.97 128.594 217.523C128.494 221.868 128.353 222.906 128.692 223.425C130.15 223.665 131.865 227.376 131.865 227.376C131.865 227.376 131.865 227.382 131.874 227.394C132.142 227.785 137.952 236.297 142.536 247.464V247.458Z" fill="#FFB27D"/>
<path d="M129.273 206.074C129.273 206.074 128.722 211.964 128.594 217.523C118.072 217.01 112.703 207.327 110.535 201.974L129.273 206.074Z" fill="#ED985F"/>
<path d="M224.569 302.896C224.569 302.896 213.551 303.299 201.586 303.339C200.17 303.345 198.738 303.345 197.31 303.339C187.565 303.299 177.99 302.956 173.915 301.909C169.935 300.887 154.62 290.545 142.365 278.019C142.362 278.016 142.362 278.013 142.362 278.013C141.412 280.27 140.693 281.994 140.675 282.13C140.316 284.943 139.713 287.762 138.985 290.466C136.208 300.79 131.576 309.456 131.417 309.757L124.854 309.744L73.625 309.672C73.625 309.672 83.3032 294.818 80.7025 256.771C80.6355 255.809 89.6224 225.109 89.6224 225.109C89.6224 225.109 96.6024 223.892 104.673 223.243C105.434 223.935 107.002 244.129 117.095 245.301C118.736 245.489 129.267 261.52 129.267 261.52L132.456 245.146L128.682 223.422C133.525 224.836 136.18 225.343 140.206 226.945C142.947 228.04 145.216 230.052 146.632 232.632C153.685 245.471 176.571 286.889 178.907 287.853C181.093 288.758 189.337 290.399 198.062 291.986H198.068C209.738 294.111 222.27 296.126 222.27 296.126L224.569 302.896Z" fill="#D2E3FC"/>
<path d="M135.078 309.76L131.408 309.772C131.408 309.772 131.414 309.76 131.42 309.757H135.078V309.76Z" fill="#D2E3FC"/>
<path d="M132.395 211.684C132.395 211.684 107.48 211.199 108.023 195.741C108.565 180.286 105.714 169.814 121.645 169.471C137.575 169.128 140.456 175.134 141.534 180.338C142.612 185.539 138.887 211.411 132.392 211.684H132.395Z" fill="#FFB27D"/>
<path d="M201.586 303.342C200.17 303.348 198.738 303.348 197.31 303.342C187.565 303.302 177.99 302.959 173.915 301.912C169.935 300.89 154.62 290.548 142.365 278.022C142.362 278.019 142.362 278.016 142.362 278.016C142.362 278.016 144.948 268.153 146.059 266.506C147.174 264.852 151.571 280.895 161.84 287.423C172.112 293.95 188.186 298.523 195.994 296.672C201.254 295.425 201.79 300.134 201.583 303.345L201.586 303.342Z" fill="#B7D3F3"/>
<path d="M127.501 203.085C127.501 203.085 127.659 204.936 131.746 205.227C131.746 205.227 135.175 205.473 135.318 203.482C135.318 203.482 132.197 201.613 127.501 203.085Z" fill="white"/>
<path d="M128.85 209.333C114.695 204.875 111.223 191.523 111.19 191.39L112.7 191.016L111.945 191.201L112.7 191.013C112.734 191.141 116.02 203.664 129.322 207.852C129.41 207.879 129.499 207.906 129.59 207.934L129.136 209.418C129.042 209.39 128.947 209.36 128.853 209.33L128.85 209.333Z" fill="#122544"/>
<path d="M130.455 210.379L129.121 209.961C128.442 209.745 128.061 209.017 128.274 208.34C128.491 207.664 129.221 207.284 129.901 207.497L131.234 207.915C131.914 208.131 132.294 208.859 132.081 209.536C131.865 210.213 131.134 210.592 130.455 210.379Z" fill="#ED7D2B"/>
<path d="M133.811 167.423C133.811 167.423 127.431 186.249 117.865 189.444C108.297 192.64 105.123 188.859 105.123 188.859C105.123 188.859 112.173 182.407 112.983 171.966C112.983 171.966 128.442 159.731 133.811 167.426V167.423Z" fill="#8E342E"/>
<path d="M121.897 172.964C121.897 172.964 134.889 172.239 138.769 175.923C141.567 178.581 141.503 179.968 141.72 183.512C141.72 183.512 147.399 174.782 141.555 168.67C135.358 162.192 121.897 172.964 121.897 172.964Z" fill="#8E342E"/>
<path d="M133.257 169.417C133.257 169.417 130.004 187.43 118.112 193.972C118.112 193.972 129.629 182.225 129.834 170.473C130.038 158.72 133.257 169.414 133.257 169.414V169.417Z" fill="#8E342E"/>
<path d="M90.3441 205.797C94.1752 209.836 104.868 211.235 104.868 211.235C104.377 210.562 103.963 209.175 103.963 209.175C109.46 213.614 122.954 210.392 122.954 210.392C112.189 208.022 115.676 192.54 119.336 191.881C121.471 180.204 125.704 165.669 127.684 159.139C127.208 159.06 126.937 159.036 126.937 159.036C98.4601 148.042 86.51 201.765 90.3411 205.797H90.3441Z" fill="#8E342E"/>
<path d="M113.733 202.927L112.703 203.069C108.123 203.704 103.856 200.487 103.22 195.923L102.474 190.567C101.837 186.003 105.065 181.752 109.646 181.118L110.675 180.975C115.255 180.341 119.522 183.558 120.158 188.121L120.904 193.477C121.541 198.041 118.313 202.293 113.733 202.927Z" fill="#ED7D2B"/>
<path d="M107.002 183.385C106.39 182.244 108.534 173.368 111.689 166.485C113.212 163.16 117.058 158.705 119.805 157.558C120.798 157.142 122.117 157.312 123.189 157.555C123.968 157.731 126.158 158.747 126.158 158.747C117.134 161.548 109.296 180.39 109.862 182.341C109.844 182.28 109.819 182.238 109.801 182.204L107.002 183.385Z" fill="#ED7D2B"/>
<path d="M111.662 197.598L111.15 197.668C108.869 197.984 106.74 196.381 106.424 194.108L106.052 191.438C105.735 189.165 107.343 187.044 109.624 186.729L110.136 186.659C112.417 186.343 114.546 187.945 114.859 190.218L115.231 192.889C115.548 195.161 113.94 197.283 111.659 197.595L111.662 197.598Z" fill="#F99746"/>
<path d="M172.116 293.947C172.116 293.947 182.799 293.334 183.837 293.892C185.524 294.796 191.262 298.48 192.16 299.548C193.059 300.62 195.416 304.91 195.416 304.91C195.416 304.91 194.395 305.193 193.936 304.78C193.476 304.367 189.989 300.677 189.989 300.677L193.57 306.097C193.57 306.097 192.331 306.042 191.84 305.505C191.35 304.968 188.003 301.575 188.003 301.575L186.864 301.351C186.864 301.351 188.025 302.279 188.655 303.117C189.285 303.958 189.703 304.862 189.703 304.862C189.703 304.862 188.682 304.689 188.363 304.537C188.046 304.385 185.043 301.77 185.043 301.77L186.633 303.933C186.633 303.933 185.561 303.882 185.208 303.642C184.854 303.405 182.519 301.26 182.104 301.263C181.69 301.269 178.706 301.145 177.427 300.468C176.145 299.791 172.125 298.241 172.125 298.241L172.112 293.944L172.116 293.947Z" fill="#FFB27D"/>
<path d="M106.15 220.281C106.15 220.281 99.0052 222.357 97.3759 223.992C97.3759 223.992 104.846 243.019 115.615 251.898L118.493 249.861V254.486L129.273 261.517C129.273 261.517 105.598 226.034 106.15 220.281Z" fill="#B7D3F3"/>
<path d="M138.988 290.469C136.211 300.793 131.579 309.459 131.42 309.76H135.078L131.408 309.775H97.3729C97.3729 309.775 101.323 309.769 101.314 309.747C101.222 309.405 107.069 293.604 97.3729 287.128C87.6581 280.64 84.1346 264.691 84.1346 264.691L115.045 257.169C115.045 257.169 127.781 275.688 131.408 279.217C134.191 281.927 140.678 282.13 140.678 282.13L138.988 290.466V290.469Z" fill="#B7D3F3"/>
<path d="M128.688 223.422C128.688 223.422 131.977 249.309 129.273 261.52C129.273 261.52 133.686 253.442 134.304 251.961L133.561 247.522L136.408 248.508C136.408 248.508 133.896 227.87 131.624 224.25C129.352 220.633 128.515 220.281 128.515 220.281L128.688 223.422Z" fill="#B7D3F3"/>
<path d="M224.569 302.896C224.569 302.896 210.786 303.402 197.313 303.339C193.972 298.174 198.062 291.983 198.062 291.983H198.068C209.738 294.108 222.27 296.123 222.27 296.123L224.569 302.893V302.896Z" fill="#FFB27D"/>
<path d="M225.876 309.772H174.932C174.932 307.538 176.751 305.724 178.992 305.724H225.872V309.772H225.876Z" fill="#ED7D2B"/>
<path d="M304.489 254.489L285.598 309.772H206.327L225.729 254.489H304.489Z" fill="#ED7D2B"/>
<path d="M304.489 254.489L285.772 309.262L285.598 309.772H207.484L226.89 254.489H304.489Z" fill="#F99746"/>
<path d="M263.188 281.621C262.697 283.733 260.584 285.444 258.464 285.444C256.345 285.444 255.023 283.733 255.513 281.621C256.003 279.509 258.117 277.797 260.237 277.797C262.356 277.797 263.678 279.509 263.188 281.621Z" fill="#FFC397"/>
<path d="M304.489 254.489L285.772 309.262H249.882L293.644 254.489H304.489Z" fill="#ED7D2B"/>
<path d="M172.128 298.247C172.128 298.247 145.904 300.529 131.411 299.885V285.696C140.907 288.309 172.119 293.947 172.119 293.947L172.131 298.247H172.128Z" fill="#FFB27D"/>
<path d="M97.3759 223.992C97.3759 223.992 82.3774 224.332 77.7363 229.327C73.0951 234.322 82.3409 262.555 82.3409 262.555C82.3409 262.555 110.294 296.669 124.279 299.075C124.279 299.075 130.391 299.907 133.244 299.952C133.244 299.952 130.449 291.838 135.65 286.746C135.65 286.746 129.663 285.077 129.413 284.337C129.167 283.596 97.3728 223.992 97.3728 223.992H97.3759Z" fill="#D2E3FC"/>
<path d="M724.099 159.697C724.099 159.697 708.909 154.065 699.419 165.123C693.977 171.462 659.184 237.557 659.601 243.34C660.015 249.127 663.334 252.019 663.334 252.019C663.334 252.019 661.882 246.957 662.972 244.32C662.972 244.32 662.272 253.233 667.793 257.029C670.671 259.007 742.298 255.132 748.52 246.49C762.054 227.694 732.498 217.972 733.226 197.668C733.646 185.894 745.255 160.884 724.102 159.694L724.099 159.697Z" fill="#2C3A64"/>
<path d="M738.574 201.795L737.556 201.998C733.025 202.912 728.567 199.962 727.65 195.447L726.575 190.145C725.658 185.63 728.618 181.188 733.15 180.274L734.167 180.071C738.698 179.157 743.157 182.107 744.073 186.622L745.148 191.924C746.065 196.439 743.105 200.882 738.574 201.795Z" fill="#ED7D2B"/>
<path d="M803.562 309.672H756.039C747.978 296.921 740.891 279.706 739.241 266.299C738.455 259.939 738.894 254.438 741.025 250.678C747.664 238.995 737.133 225.279 737.133 225.279C737.133 225.279 751.629 229.366 755 241.277C758.436 253.409 767.651 293.765 767.651 293.765L802.938 300.996C804.594 305.132 803.559 309.672 803.559 309.672H803.562Z" fill="#F99746"/>
<path d="M803.562 309.672H756.039C747.978 296.921 740.891 279.706 739.24 266.299L746.29 264.148C746.29 264.148 755.21 304.716 760.397 305.335C765.58 305.954 803.565 309.672 803.565 309.672H803.562Z" fill="#ED7D2B"/>
<path d="M744.153 244.478C740.51 247.655 735.808 250.468 729.745 252.599C707.026 260.594 695.859 241.957 690.971 228.848C693.947 226.675 696.895 225.937 698.6 225.537C700.263 225.148 702.023 224.818 703.482 224.581C705.875 222.287 708.851 213.666 708.272 200.863L709.402 201.033L728.356 203.977C728.356 203.977 728.174 209.894 728.387 215.447C728.557 219.79 728.971 223.913 729.906 224.827C731.377 224.975 732.26 225.082 732.26 225.082C732.26 225.082 732.26 225.088 732.273 225.097C732.565 225.473 738.89 233.612 744.153 244.475V244.478Z" fill="#FFB27D"/>
<path d="M728.359 203.983C728.359 203.983 728.174 209.897 728.39 215.45C717.856 215.584 711.902 206.247 709.405 201.036L728.359 203.98V203.983Z" fill="#ED985F"/>
<path d="M753.185 264.148C753.133 264.555 748.069 280.965 748.014 281.378C746.257 295.115 743.075 309.775 743.075 309.775L736.116 309.763L690.189 309.672C690.189 309.672 695.728 293.012 681.114 267.474C680.635 266.636 680.133 265.79 679.612 264.934C677.532 261.526 690.664 225.106 690.664 225.106C690.664 225.106 696.413 224.092 704.481 223.446C705.242 224.141 710.845 244.566 720.987 245.188C734.225 246.002 729.206 223.243 729.206 223.243C734.596 224.32 736.542 224.715 743.464 228.019C743.464 228.019 753.465 261.905 753.185 264.148Z" fill="#F99746"/>
<path d="M731.822 209.393C731.822 209.393 706.926 210.434 706.515 194.973C706.104 179.516 702.614 169.238 718.492 167.918C734.371 166.601 737.617 172.418 739.015 177.543C740.413 182.668 738.29 208.723 731.825 209.39L731.822 209.393Z" fill="#FFB27D"/>
<path d="M726.407 201.106C726.407 201.106 726.682 202.945 730.777 202.984C730.777 202.984 734.216 203.021 734.237 201.024C734.237 201.024 731.006 199.352 726.411 201.106H726.407Z" fill="white"/>
<path d="M728.14 207.263C713.735 203.682 709.448 190.567 709.405 190.437L710.888 189.972L710.145 190.206L710.885 189.972C710.925 190.097 714.978 202.396 728.515 205.761C728.606 205.782 728.694 205.807 728.786 205.828L728.426 207.336C728.329 207.312 728.231 207.29 728.137 207.266L728.14 207.263Z" fill="#122544"/>
<path d="M729.806 208.207L728.448 207.87C727.756 207.697 727.33 206.993 727.504 206.304C727.677 205.615 728.384 205.191 729.075 205.364L730.433 205.7C731.125 205.873 731.551 206.577 731.377 207.266C731.204 207.955 730.497 208.38 729.806 208.207Z" fill="#2C3A64"/>
<path d="M717.716 158.301C717.716 158.301 733.747 155.807 740.379 169.107C745.429 179.23 741.217 185.551 739.237 187.487C739.237 187.487 736.618 172.946 731.718 171.708C731.718 171.708 728.56 170.746 726.407 173.243C724.254 175.738 721.139 186.865 717.56 188.57C717.56 188.57 706.451 191.305 705.906 187.442C705.361 183.579 705.665 171.556 708.464 169.617C711.263 167.681 717.713 158.304 717.713 158.304L717.716 158.301Z" fill="#2C3A64"/>
<path d="M712.654 201.795L711.637 201.998C707.106 202.912 702.647 199.962 701.731 195.447L700.656 190.145C699.739 185.63 702.699 181.188 707.231 180.274L708.248 180.071C712.779 179.157 717.238 182.107 718.154 186.622L719.229 191.924C720.146 196.439 717.186 200.882 712.654 201.795Z" fill="#ED7D2B"/>
<path d="M704.733 182.699C704.051 181.597 703.052 172.727 705.775 165.663C707.091 162.249 709.219 160.304 711.887 158.99C712.852 158.514 713.933 158.262 715.036 158.262L717.719 158.301C708.887 161.651 706.838 179.573 707.526 181.482C707.505 181.424 707.477 181.379 707.459 181.348L704.736 182.699H704.733Z" fill="#ED7D2B"/>
<path d="M710.261 196.603L709.755 196.706C707.496 197.161 705.275 195.693 704.819 193.441L704.283 190.798C703.826 188.546 705.3 186.334 707.559 185.879L708.068 185.776C710.325 185.321 712.548 186.789 713.005 189.041L713.541 191.681C713.997 193.933 712.523 196.145 710.264 196.6L710.261 196.603Z" fill="#F99746"/>
<path d="M690.192 309.672C690.192 309.672 695.731 293.012 681.117 267.474L686.562 260.698C686.562 260.698 696.2 287.899 708.245 295.831C720.265 303.745 734.411 302.091 736.119 309.763L690.192 309.672Z" fill="#ED7D2B"/>
<path d="M690.664 225.109C690.664 225.109 680.754 225.968 674.115 237.651C667.479 249.333 654.88 292.988 654.88 309.672H707.922C707.922 309.672 708.96 305.129 707.301 300.996L674.478 294.684C674.478 294.684 694.236 265.45 694.443 252.844C694.65 240.239 690.667 225.106 690.667 225.106L690.664 225.109Z" fill="#F99746"/>
<path d="M708.242 304.304C708.242 304.304 718.578 303.296 720.286 303.76C721.998 304.225 726.898 306.24 727.985 306.937C729.075 307.635 731.173 309.672 731.173 309.672C731.173 309.672 729.852 309.92 729.072 309.747C728.295 309.574 725.963 309.42 725.338 309.368C724.717 309.317 722.488 309.775 722.488 309.775H706.466L708.239 304.304H708.242Z" fill="#FFB27D"/>
<path d="M801.832 309.772H750.889C750.889 307.538 752.707 305.724 754.948 305.724H801.829V309.772H801.832Z" fill="#233862"/>
<path d="M880.445 254.489L861.555 309.772H782.284L801.686 254.489H880.445Z" fill="#233862"/>
<path d="M880.445 254.489L861.728 309.262L861.555 309.772H783.441L802.846 254.489H880.445Z" fill="#2B478B"/>
<path d="M839.144 281.621C838.654 283.733 836.54 285.444 834.421 285.444C832.301 285.444 830.979 283.733 831.47 281.621C831.96 279.509 834.074 277.797 836.193 277.797C838.313 277.797 839.634 279.509 839.144 281.621Z" fill="#F99746"/>
<path d="M880.445 254.489L861.728 309.262H825.839L869.601 254.489H880.445Z" fill="#233862"/>
</svg>
