<svg width="329" height="135" viewBox="0 0 329 135" fill="none" xmlns="http://www.w3.org/2000/svg">
<path d="M104.883 28.8694C104.883 28.8694 93.7632 34.5687 101.865 46.8102C101.865 46.8102 92.3109 47.9173 89.9098 45.1641C89.9098 45.1641 90.2709 46.3689 90.6953 46.9555C90.6953 46.9555 81.4413 45.7401 78.1256 42.2233C74.8099 38.7065 85.1497 -8.06638 109.801 1.50643C109.801 1.50643 131.717 3.50923 125.497 28.2749C119.277 53.0379 127.447 54.4145 127.447 54.4145C127.447 54.4145 124.986 55.1544 123.889 54.9694C123.889 54.9694 122.39 54.0869 122.221 53.1436C122.221 53.1436 122.303 54.5942 122.64 55.1068C122.64 55.1068 113.679 54.4595 109.833 50.3825C105.988 46.3029 102.756 33.8368 104.881 28.8694H104.883Z" fill="#8E342E"/>
<path d="M120.753 41.1056L119.862 41.2298C115.898 41.7821 112.205 38.9813 111.655 35.0074L111.009 30.3438C110.458 26.3699 113.252 22.6681 117.216 22.1159L118.107 21.9917C122.071 21.4395 125.763 24.2402 126.314 28.2141L126.96 32.8777C127.511 36.8516 124.717 40.5534 120.753 41.1056Z" fill="#ED7D2B"/>
<path d="M123.294 78.4986C119.975 81.0668 117.877 90.3358 112.527 91.8657C92.4745 97.6046 81.7103 73.732 78.189 62.0797C80.8747 60.3517 83.4604 59.8682 84.9574 59.6119C86.415 59.3635 87.9516 59.1706 89.2273 59.0411C91.4175 57.1757 94.4486 49.8408 94.6331 38.6853L95.6004 38.8941L111.815 42.4637C111.815 42.4637 111.343 47.5976 111.227 52.4329C111.14 56.2166 111.019 57.1202 111.312 57.572C112.574 57.7808 114.058 61.0122 114.058 61.0122C114.058 61.0122 114.058 61.0175 114.066 61.0281C114.298 61.3689 119.327 68.7804 123.294 78.5039V78.4986Z" fill="#FFB27D"/>
<path d="M111.815 42.4637C111.815 42.4637 111.338 47.5923 111.227 52.4329C102.121 51.9863 97.4743 43.555 95.5977 38.8941L111.815 42.4637Z" fill="#ED985F"/>
<path d="M194.292 126.77C194.292 126.77 184.756 127.121 174.4 127.155C173.175 127.161 171.936 127.161 170.7 127.155C162.265 127.121 153.979 126.822 150.452 125.911C147.007 125.02 133.752 116.016 123.146 105.108C123.144 105.106 123.144 105.103 123.144 105.103C122.321 107.069 121.699 108.57 121.684 108.689C121.373 111.138 120.851 113.593 120.221 115.947C117.817 124.936 113.808 132.482 113.671 132.744L107.991 132.733L63.6533 132.67C63.6533 132.67 72.0296 119.736 69.7787 86.6075C69.7207 85.77 77.4987 59.0385 77.4987 59.0385C77.4987 59.0385 83.5397 57.9789 90.5243 57.4135C91.1832 58.0159 92.5406 75.6 101.275 76.6199C102.696 76.7837 111.81 90.7426 111.81 90.7426L114.57 76.4852L111.304 57.5694C115.495 58.8007 117.793 59.2419 121.278 60.637C123.65 61.5909 125.613 63.3427 126.839 65.5886C132.943 76.7679 152.751 112.832 154.772 113.672C156.665 114.459 163.799 115.889 171.351 117.271H171.356C181.456 119.12 192.302 120.875 192.302 120.875L194.292 126.77Z" fill="#D2E3FC"/>
<path d="M116.839 132.746L113.663 132.757C113.663 132.757 113.668 132.746 113.673 132.744H116.839V132.746Z" fill="#D2E3FC"/>
<path d="M114.517 47.3493C114.517 47.3493 92.9539 46.9265 93.4231 33.4669C93.8922 20.01 91.4252 10.8917 105.213 10.5931C119 10.2945 121.493 15.5235 122.426 20.0549C123.359 24.5837 120.136 47.1115 114.514 47.3493H114.517Z" fill="#FFB27D"/>
<path d="M174.4 127.158C173.174 127.163 171.936 127.163 170.699 127.158C162.265 127.124 153.979 126.825 150.452 125.913C147.007 125.023 133.752 116.018 123.146 105.111C123.144 105.108 123.144 105.106 123.144 105.106C123.144 105.106 125.381 96.5186 126.343 95.0838C127.308 93.6438 131.114 107.613 140.001 113.297C148.892 118.98 162.803 122.962 169.561 121.35C174.113 120.264 174.577 124.365 174.397 127.161L174.4 127.158Z" fill="#B7D3F3"/>
<path d="M110.282 39.8612C110.282 39.8612 110.419 41.4729 113.956 41.7265C113.956 41.7265 116.924 41.9405 117.048 40.2073C117.048 40.2073 114.346 38.5797 110.282 39.8612Z" fill="white"/>
<path d="M111.449 45.3015C99.1982 41.42 96.1935 29.7942 96.1646 29.6779L97.4719 29.3529L96.8182 29.5141L97.4719 29.3503C97.5008 29.4613 100.345 40.3658 111.858 44.0121C111.934 44.0358 112.01 44.0596 112.089 44.0834L111.697 45.3755C111.615 45.3517 111.533 45.3252 111.452 45.2988L111.449 45.3015Z" fill="#122544"/>
<path d="M112.838 46.213L111.683 45.8484C111.096 45.6608 110.766 45.0267 110.951 44.4375C111.138 43.8483 111.77 43.518 112.358 43.7029L113.513 44.0675C114.1 44.2551 114.43 44.8893 114.245 45.4785C114.058 46.0677 113.426 46.3979 112.838 46.213Z" fill="#ED7D2B"/>
<path d="M115.742 8.80956C115.742 8.80956 110.221 25.202 101.942 27.9843C93.6605 30.7665 90.9141 27.4743 90.9141 27.4743C90.9141 27.4743 97.0157 21.8569 97.7168 12.765C97.7168 12.765 111.096 2.11148 115.742 8.81219V8.80956Z" fill="#8E342E"/>
<path d="M105.432 13.6343C105.432 13.6343 116.676 13.0028 120.034 16.2105C122.456 18.5251 122.401 19.7326 122.588 22.8187C122.588 22.8187 127.504 15.217 122.446 9.89554C117.082 4.25438 105.432 13.6343 105.432 13.6343Z" fill="#8E342E"/>
<path d="M115.264 10.5455C115.264 10.5455 112.449 26.2298 102.156 31.9265C102.156 31.9265 112.124 21.6984 112.301 11.465C112.478 1.23165 115.264 10.5429 115.264 10.5429V10.5455Z" fill="#8E342E"/>
<path d="M78.1237 42.2233C81.4395 45.7401 90.6934 46.9582 90.6934 46.9582C90.2691 46.3716 89.9106 45.1641 89.9106 45.1641C94.668 49.0297 106.347 46.2236 106.347 46.2236C97.0296 44.16 100.048 30.6793 103.216 30.106C105.063 19.9387 108.727 7.28234 110.44 1.59624C110.029 1.52755 109.794 1.50642 109.794 1.50642C85.1479 -8.0664 74.8054 38.7117 78.1211 42.2233H78.1237Z" fill="#8E342E"/>
<path d="M98.3662 39.7238L97.4754 39.848C93.5113 40.4002 89.8187 37.5994 89.2678 33.6255L88.622 28.9619C88.0712 24.988 90.865 21.2862 94.8291 20.734L95.72 20.6098C99.6841 20.0576 103.377 22.8583 103.928 26.8323L104.573 31.4958C105.124 35.4698 102.33 39.1716 98.3662 39.7238Z" fill="#ED7D2B"/>
<path d="M92.5421 22.7077C92.0123 21.7143 93.8678 13.9857 96.5984 7.99313C97.9163 5.09724 101.245 1.21845 103.623 0.219681C104.482 -0.142305 105.623 0.00565759 106.551 0.217036C107.226 0.370286 109.121 1.25543 109.121 1.25543C101.311 3.69422 94.5268 20.0999 95.017 21.7988C95.0012 21.746 94.9801 21.709 94.9643 21.6799L92.5421 22.7077Z" fill="#ED7D2B"/>
<path d="M96.5735 35.084L96.1307 35.1447C94.1566 35.4195 92.3142 34.0244 92.0401 32.0454L91.7185 29.7203C91.4444 27.7412 92.8361 25.8943 94.8102 25.6195L95.253 25.5588C97.2272 25.284 99.0695 26.6791 99.341 28.6581L99.6625 30.9832C99.9367 32.9623 98.545 34.8092 96.5709 35.0813L96.5735 35.084Z" fill="#F99746"/>
<path d="M148.895 118.978C148.895 118.978 158.141 118.444 159.04 118.93C160.5 119.717 165.466 122.925 166.243 123.855C167.021 124.788 169.061 128.524 169.061 128.524C169.061 128.524 168.178 128.77 167.78 128.41C167.382 128.051 164.364 124.838 164.364 124.838L167.464 129.557C167.464 129.557 166.391 129.51 165.967 129.042C165.542 128.574 162.646 125.62 162.646 125.62L161.66 125.425C161.66 125.425 162.664 126.233 163.21 126.962C163.755 127.694 164.116 128.482 164.116 128.482C164.116 128.482 163.233 128.331 162.957 128.199C162.683 128.067 160.084 125.789 160.084 125.789L161.46 127.673C161.46 127.673 160.532 127.628 160.226 127.42C159.92 127.213 157.899 125.345 157.54 125.348C157.182 125.353 154.599 125.245 153.492 124.656C152.382 124.067 148.903 122.716 148.903 122.716L148.893 118.975L148.895 118.978Z" fill="#FFB27D"/>
<path d="M91.8019 54.8346C91.8019 54.8346 85.6186 56.6419 84.2085 58.0661C84.2085 58.0661 90.6739 74.6329 99.9937 82.3641L102.484 80.5912V84.618L111.815 90.74C111.815 90.74 91.3249 59.8443 91.8019 54.8346Z" fill="#B7D3F3"/>
<path d="M120.224 115.95C117.82 124.938 113.812 132.485 113.675 132.746H116.84L113.664 132.759H84.2074C84.2074 132.759 87.6259 132.754 87.618 132.736C87.5389 132.437 92.5995 118.679 84.2074 113.04C75.7995 107.391 72.75 93.5038 72.75 93.5038L99.5024 86.9537C99.5024 86.9537 110.525 103.079 113.664 106.152C116.073 108.512 121.687 108.689 121.687 108.689L120.224 115.947V115.95Z" fill="#B7D3F3"/>
<path d="M111.309 57.5693C111.309 57.5693 114.156 80.1103 111.815 90.7427C111.815 90.7427 115.635 83.709 116.17 82.4196L115.527 78.554L117.991 79.4127C117.991 79.4127 115.816 61.4429 113.85 58.2907C111.884 55.1412 111.159 54.8346 111.159 54.8346L111.309 57.5693Z" fill="#B7D3F3"/>
<path d="M194.293 126.77C194.293 126.77 182.363 127.211 170.703 127.155C167.812 122.658 171.351 117.268 171.351 117.268H171.357C181.457 119.118 192.303 120.872 192.303 120.872L194.293 126.767V126.77Z" fill="#FFB27D"/>
<path d="M195.423 132.757H151.333C151.333 130.812 152.907 129.232 154.846 129.232H195.42V132.757H195.423Z" fill="#ED7D2B"/>
<path d="M263.46 84.6206L247.111 132.757H178.504L195.296 84.6206H263.46Z" fill="#ED7D2B"/>
<path d="M263.46 84.6206L247.261 132.313L247.111 132.757H179.505L196.3 84.6206H263.46Z" fill="#F99746"/>
<path d="M227.715 108.245C227.291 110.084 225.462 111.574 223.627 111.574C221.793 111.574 220.649 110.084 221.073 108.245C221.498 106.406 223.327 104.916 225.161 104.916C226.996 104.916 228.14 106.406 227.715 108.245Z" fill="#FFC397"/>
<path d="M263.46 84.6206L247.261 132.313H216.2L254.075 84.6206H263.46Z" fill="#ED7D2B"/>
<path d="M148.906 122.722C148.906 122.722 126.21 124.709 113.667 124.148V111.793C121.885 114.068 148.898 118.978 148.898 118.978L148.908 122.722H148.906Z" fill="#FFB27D"/>
<path d="M84.2091 58.0661C84.2091 58.0661 71.2283 58.362 67.2115 62.7112C63.1947 67.0603 71.1967 91.6437 71.1967 91.6437C71.1967 91.6437 95.3898 121.348 107.493 123.443C107.493 123.443 112.783 124.167 115.252 124.207C115.252 124.207 112.833 117.141 117.335 112.708C117.335 112.708 112.153 111.254 111.937 110.61C111.723 109.965 84.2065 58.0661 84.2065 58.0661H84.2091Z" fill="#D2E3FC"/>
<path d="M0.474254 134H328.526C328.787 134 329 134.15 329 134.335V134.665C329 134.85 328.787 135 328.526 135H0.474254C0.212597 135 0 134.85 0 134.665V134.335C0 134.15 0.212597 134 0.474254 134Z" fill="#2E3552"/>
</svg>
