<svg width="51" height="51" viewBox="0 0 51 51" fill="none" xmlns="http://www.w3.org/2000/svg">
<path d="M43.0924 8.68854C43.5253 12.1762 43.4138 15.3876 42.6116 18.352C42.6116 18.352 42.1042 22.5542 39.3975 27.9437C36.0878 27.1548 32.6214 27.0193 29.2639 27.5745C28.2094 27.7498 27.1124 28.0181 26.3288 28.7379C26.3234 28.7167 26.2836 28.6848 26.2411 28.6689C26.1747 28.6449 26.1056 28.5626 26.0897 28.4909C25.8134 27.3646 25.5 26.2437 25.152 25.1307C32.563 17.919 32.2283 11.0685 35.9231 4.66432C36.4331 3.78244 37.0467 2.81823 38.0375 2.58182C39.007 2.35073 41.3631 3.24057 41.9156 4.07198C42.4655 4.90604 42.9675 7.70041 43.0924 8.68854Z" fill="#FFD600"/>
<path d="M39.3975 27.9438C41.164 28.3635 42.8879 28.9717 44.5268 29.758C46.4977 30.7063 50.2961 32.8924 49.2708 34.441C48.2986 35.9099 46.3622 35.2325 46.3622 35.2325C45.6211 34.9456 44.8694 34.7225 44.1177 34.5578C41.3685 33.9522 38.6485 33.761 36.1357 34.1727C36.1144 34.1753 36.0985 34.1859 36.0852 34.2019C31.8193 39.6844 22.3125 46.5508 14.4261 48.0941C10.0539 48.9494 7.37112 48.3039 5.84909 47.5549C4.82909 47.0555 4.1119 46.0939 3.90472 44.9756L3.73472 44.0539C3.46112 42.5824 4.12253 41.0895 5.40284 40.3113C5.50378 40.2502 5.56487 40.2183 5.56487 40.2183C7.62612 39.5091 12.9599 39.5117 16.251 32.5099C18.5885 27.5347 10.5825 21.4758 5.56487 19.2339C5.78269 18.8753 6.00315 18.5141 6.22097 18.1555C9.20128 18.3308 10.6171 18.4158 12.8775 19.6217C15.2708 20.8994 18.0466 23.4202 19.4385 25.747C18.7478 21.8849 14.5722 12.0222 12.8085 8.87189C13.0422 8.25032 13.8444 8.00595 14.4872 8.1786C15.1274 8.35126 15.6374 8.82939 16.1022 9.30485C20.3921 13.693 23.298 19.2605 25.1494 25.1361C25.5 26.2464 25.8108 27.3674 26.0871 28.4963C26.103 28.5653 26.1721 28.6477 26.2385 28.6742C26.281 28.6902 26.3208 28.7194 26.3261 28.7433C27.1124 28.0234 28.2094 27.7552 29.2613 27.5799C32.6214 27.0194 36.0852 27.1549 39.3975 27.9438Z" fill="#00C470"/>
</svg>
