<svg width="52" height="60" viewBox="0 0 52 60" fill="none" xmlns="http://www.w3.org/2000/svg">
<g clip-path="url(#clip0_9_220)">
<path d="M27.6026 0C28.7395 0.1968 29.893 0.3264 31.011 0.6024C35.7028 1.7664 39.5933 4.1664 42.302 8.3016C43.5359 10.188 44.2662 12.2736 44.479 14.5272C44.5144 14.9016 44.6279 15.0912 44.9942 15.2352C46.9939 16.02 48.2159 17.8152 48.2348 19.9848C48.256 22.2888 48.2939 24.5952 48.2253 26.8968C48.1568 29.1216 47.1097 30.7584 45.0273 31.62C44.6633 31.7736 44.2473 31.8288 43.8479 31.86C43.3491 31.9008 42.8433 31.8744 42.3422 31.872C40.4868 31.86 39.8462 31.4472 39.0119 29.6712C37.6008 33.6216 35.6319 37.1328 32.3913 39.7896C33.0579 41.424 33.9513 42.888 35.3057 44.028C35.9297 44.5536 36.6411 44.8512 37.4424 45.0048C41.3802 45.7608 45.2282 46.7928 48.7902 48.732C50.2131 49.5072 51.1562 50.6184 51.4115 52.2312C51.6431 53.6928 51.792 55.1664 51.9291 56.64C51.9953 57.3384 51.9528 58.0464 51.9528 58.7496C51.9528 59.6712 51.6455 59.988 50.7473 59.9904C49.549 59.9928 48.3506 59.9904 47.1522 59.9904C31.8831 59.9904 16.614 59.988 1.34496 60C0.780047 60.0024 0.326229 59.8896 0.00241089 59.4048C0.00241089 58.1952 0.00241089 56.9832 0.00241089 55.7736C0.118229 54.8664 0.231684 53.9592 0.349865 53.0544C0.624047 50.976 1.5695 49.3848 3.54077 48.5208C4.03477 48.3048 4.50514 48.0288 4.99914 47.8104C7.9655 46.5024 11.0642 45.6168 14.2457 45.0672C15.6308 44.8272 16.6755 44.1408 17.569 43.116C18.434 42.1272 19.0746 41.004 19.5639 39.768C19.292 39.54 19.0202 39.3264 18.7602 39.0936C18.167 38.5608 17.6588 37.8 16.9662 37.536C16.2571 37.2672 15.366 37.4736 14.5553 37.476C11.927 37.4784 10.2606 36.1824 9.61768 33.612C9.47823 33.0504 9.39314 32.4744 9.29387 31.968C8.5115 31.8696 7.72441 31.9056 7.03659 31.6608C4.95659 30.924 3.71805 29.052 3.71096 26.8032C3.7015 24.6168 3.71332 22.4328 3.71096 20.2464C3.70859 17.8512 4.83841 16.1208 7.04368 15.2088C7.34387 15.084 7.42659 14.9304 7.45496 14.6208C7.61568 12.816 8.09787 11.0928 8.95823 9.4992C11.5771 4.6488 15.7537 1.908 20.9466 0.6024C22.0622 0.3192 23.218 0.1968 24.355 0C25.4375 0 26.52 0 27.6026 0ZM50.1493 58.092C50.024 56.5608 49.8775 55.1064 49.7948 53.6496C49.6908 51.8064 48.7382 50.6808 47.105 49.9296C44.2946 48.6384 41.3731 47.724 38.3595 47.1048C36.842 46.7928 35.327 46.5408 34.0931 45.4584C32.3228 43.908 31.1764 41.9424 30.3231 39.78C30.134 39.2976 30.3893 38.952 30.7651 38.6232C31.6255 37.8744 32.5166 37.1424 33.2706 36.2904C35.4239 33.8616 36.686 30.9216 37.7024 27.8784C38.8937 24.3096 39.156 20.6208 38.7022 16.8936C38.421 14.5728 37.622 12.4272 36.2228 10.5432C31.9351 4.7712 23.7144 4.4184 18.7862 7.6848C15.0422 10.1664 13.4113 13.8432 13.1064 18.2184C12.8015 22.6008 13.5224 26.82 15.3779 30.8016C16.0822 32.3112 16.978 33.732 17.803 35.184C17.8999 35.352 18.1031 35.5704 18.2591 35.5752C19.5828 35.6064 20.9088 35.592 22.2182 35.592C22.5302 34.2336 23.114 33.7536 24.4164 33.7416C24.8797 33.7368 25.3453 33.7392 25.8086 33.744C26.9951 33.7512 27.8295 34.5192 27.8319 35.604C27.8342 36.6984 27.0164 37.4856 25.8322 37.4904C24.0548 37.4976 22.275 37.4832 20.4975 37.476C20.3013 37.476 20.1075 37.476 19.9113 37.476C20.3273 37.968 20.7622 38.3184 21.2137 38.652C21.6439 38.9688 21.7975 39.3576 21.5919 39.8712C20.8308 41.7696 19.8499 43.5264 18.3868 44.9736C17.4271 45.924 16.3115 46.5648 14.976 46.8408C13.39 47.1672 11.8017 47.5128 10.2393 47.94C8.01987 48.5472 5.86659 49.3368 3.85514 50.496C2.99714 50.9904 2.48896 51.6864 2.34005 52.6488C2.19587 53.592 2.04696 54.54 1.98077 55.4904C1.91932 56.3544 1.96896 57.2232 1.96896 58.092C17.9802 58.092 33.9962 58.092 50.1493 58.092ZM42.64 14.9064C42.6448 14.8752 42.6566 14.8368 42.6542 14.7984C42.6471 14.7 42.6353 14.604 42.6235 14.508C42.1508 10.656 40.3284 7.5456 37.2888 5.2608C31.5617 0.9528 25.265 0.3408 18.694 2.8968C14.6522 4.4688 11.6646 7.2912 10.0526 11.448C9.61532 12.5736 9.36714 13.7424 9.28914 15.012C9.72877 15.012 10.1188 14.9712 10.4946 15.024C10.8633 15.0744 11.2202 15.2184 11.5913 15.3264C13.4468 8.2968 17.8715 4.1568 25.0948 3.8256C33.1075 3.4608 38.2106 7.5168 40.352 15.2184C41.1226 15.1128 41.8577 15.0144 42.64 14.9064ZM11.1375 23.4744C11.1375 23.4744 11.1375 23.4744 11.1399 23.4744C11.1399 21.7368 11.1422 19.9992 11.1399 18.264C11.1375 17.2296 10.7759 16.8744 9.73586 16.8744C9.3695 16.8744 8.99605 16.9224 8.63677 16.8696C7.18787 16.6584 5.63732 18.0384 5.59241 19.8024C5.53332 22.2024 5.54987 24.6048 5.58768 27.0048C5.60896 28.3848 6.46932 29.592 7.71259 29.9088C8.38623 30.0792 9.13077 29.988 9.84223 29.9928C10.7617 30.0024 11.1304 29.6304 11.1351 28.6872C11.1422 26.9496 11.1375 25.212 11.1375 23.4744ZM40.813 23.4336C40.813 23.4336 40.813 23.4336 40.8153 23.4336C40.8153 25.2096 40.8153 26.9856 40.813 28.7616C40.813 29.2968 40.9831 29.8608 41.5079 29.9064C42.4722 29.988 43.5075 30.0672 44.4151 29.8032C45.7057 29.4264 46.332 28.2912 46.3651 26.964C46.4219 24.6048 46.4124 22.2408 46.3699 19.8792C46.3391 18.192 44.9139 16.644 43.283 16.8624C42.9024 16.9128 42.5124 16.8672 42.1248 16.8672C41.1817 16.8696 40.813 17.2464 40.813 18.2232C40.8106 19.9584 40.813 21.696 40.813 23.4336ZM12.9244 29.9232C12.5793 30.3408 12.2059 30.9528 11.6811 31.3704C11.284 31.6848 11.1682 31.9368 11.2462 32.4096C11.674 34.9632 12.8511 35.976 15.5953 35.5152C14.69 33.6192 13.7706 31.6968 12.9244 29.9232Z" fill="#004024"/>
</g>
<defs>
<clipPath id="clip0_9_220">
<rect width="52" height="60" fill="white"/>
</clipPath>
</defs>
</svg>
