<svg width="45" height="60" viewBox="0 0 45 60" fill="none" xmlns="http://www.w3.org/2000/svg">
<path d="M40.8466 5.23707H31.0279V1.03787C31.0279 0.543843 30.5956 0.111572 30.1016 0.111572H15.4661C14.9721 0.111572 14.5398 0.543843 14.5398 1.03787V5.23707H4.16534C2.00399 5.23707 0.274902 6.96615 0.274902 9.12751V55.6893C0.274902 57.8506 2.00399 59.5797 4.16534 59.5797H40.9084C43.0697 59.5797 44.7988 57.8506 44.7988 55.6893V9.12751C44.7371 6.96615 43.008 5.23707 40.8466 5.23707ZM15.4661 17.2171H30.1016C30.5956 17.2171 31.0279 16.7849 31.0279 16.2909V12.2769H37.512V52.2311H7.5V12.3387H14.5398V16.2909C14.5398 16.8466 14.9721 17.2171 15.4661 17.2171ZM29.1753 1.96416V11.3506V15.3646H16.3924V11.3506V6.10161V1.96416H29.1753ZM42.8845 55.6275C42.8845 56.7391 41.9582 57.6653 40.8466 57.6653H4.16534C3.05379 57.6653 2.12749 56.7391 2.12749 55.6275V9.12751C2.12749 8.01595 3.05379 7.08966 4.16534 7.08966H14.5398V10.4861H6.57371C6.07968 10.4861 5.64741 10.9183 5.64741 11.4124V53.2191C5.64741 53.7132 6.07968 54.1454 6.57371 54.1454H38.4382C38.9323 54.1454 39.3645 53.7132 39.3645 53.2191V11.4124C39.3645 10.9183 38.9323 10.4861 38.4382 10.4861H31.0279V7.08966H40.8466C41.9582 7.08966 42.8845 8.01595 42.8845 9.12751V55.6275Z" fill="#004024"/>
<path d="M9.78485 27.6534C9.78485 28.1474 10.2171 28.5797 10.7111 28.5797H34.486C34.9801 28.5797 35.4123 28.1474 35.4123 27.6534C35.4123 27.1594 34.9801 26.7271 34.486 26.7271H10.7111C10.2171 26.7271 9.78485 27.1594 9.78485 27.6534Z" fill="#004024"/>
<path d="M34.486 33.2112H10.7111C10.2171 33.2112 9.78485 33.6435 9.78485 34.1375C9.78485 34.6315 10.2171 35.0638 10.7111 35.0638H34.486C34.9801 35.0638 35.4123 34.6315 35.4123 34.1375C35.4123 33.6435 34.9801 33.2112 34.486 33.2112Z" fill="#004024"/>
<path d="M34.486 40.004H10.7111C10.2171 40.004 9.78485 40.4363 9.78485 40.9303C9.78485 41.4243 10.2171 41.8566 10.7111 41.8566H34.486C34.9801 41.8566 35.4123 41.4243 35.4123 40.9303C35.4123 40.4363 34.9801 40.004 34.486 40.004Z" fill="#004024"/>
</svg>
