<svg width="19" height="19" viewBox="0 0 19 19" fill="none" xmlns="http://www.w3.org/2000/svg">
<g clip-path="url(#clip0_4_131)">
<path d="M14.6458 15.4375H4.35417" stroke="#17B974" stroke-width="1.2" stroke-linecap="round" stroke-linejoin="round"/>
<path d="M9.5 16.8229C9.55249 16.8229 9.60283 16.8438 9.63995 16.8809C9.67707 16.918 9.69792 16.9683 9.69792 17.0208C9.69792 17.0733 9.67707 17.1237 9.63995 17.1608C9.60283 17.1979 9.55249 17.2187 9.5 17.2187C9.44751 17.2187 9.39717 17.1979 9.36005 17.1608C9.32294 17.1237 9.30208 17.0733 9.30208 17.0208C9.30208 16.9683 9.32294 16.918 9.36005 16.8809C9.39717 16.8438 9.44751 16.8229 9.5 16.8229Z" stroke="#17B974" stroke-linecap="round" stroke-linejoin="round"/>
<path d="M13.0625 0.395813H5.9375C5.06305 0.395813 4.35417 1.1047 4.35417 1.97915V17.0208C4.35417 17.8953 5.06305 18.6041 5.9375 18.6041H13.0625C13.937 18.6041 14.6458 17.8953 14.6458 17.0208V1.97915C14.6458 1.1047 13.937 0.395813 13.0625 0.395813Z" stroke="#17B974" stroke-width="1.2" stroke-linecap="round" stroke-linejoin="round"/>
</g>
<defs>
<clipPath id="clip0_4_131">
<rect width="19" height="19" fill="white"/>
</clipPath>
</defs>
</svg>
