<svg width="14" height="14" viewBox="0 0 14 14" fill="none" xmlns="http://www.w3.org/2000/svg">
<path d="M2.25244 3.29791L2.86015 12.7911" stroke="#FF5858" stroke-width="0.5" stroke-miterlimit="2.6131" stroke-linecap="round" stroke-linejoin="round"/>
<path d="M2.85986 12.7911C2.85986 13.1271 3.13247 13.4001 3.46761 13.4001" stroke="#FF5858" stroke-width="0.5" stroke-miterlimit="2.6131" stroke-linecap="round" stroke-linejoin="round"/>
<path d="M3.46777 13.4001H10.5322" stroke="#FF5858" stroke-width="0.5" stroke-miterlimit="2.6131" stroke-linecap="round" stroke-linejoin="round"/>
<path d="M10.5322 13.4001C10.8674 13.4001 11.1396 13.1271 11.1396 12.7911" stroke="#FF5858" stroke-width="0.5" stroke-miterlimit="2.6131" stroke-linecap="round" stroke-linejoin="round"/>
<path d="M11.1396 12.7911L11.7482 3.29791H2.25244" stroke="#FF5858" stroke-width="0.5" stroke-miterlimit="2.6131" stroke-linecap="round" stroke-linejoin="round"/>
<path d="M12.8486 2.71115C12.8486 3.03304 12.588 3.29403 12.2666 3.29403" stroke="#FF5858" stroke-width="0.5" stroke-miterlimit="2.6131" stroke-linecap="round" stroke-linejoin="round"/>
<path d="M12.2668 3.29404H1.73291" stroke="#FF5858" stroke-width="0.5" stroke-miterlimit="2.6131" stroke-linecap="round" stroke-linejoin="round"/>
<path d="M1.73289 3.29403C1.41232 3.29403 1.15088 3.03304 1.15088 2.71115" stroke="#FF5858" stroke-width="0.5" stroke-miterlimit="2.6131" stroke-linecap="round" stroke-linejoin="round"/>
<path d="M1.15088 2.71114C1.15088 2.39053 1.41232 2.12912 1.73289 2.12912" stroke="#FF5858" stroke-width="0.5" stroke-miterlimit="2.6131" stroke-linecap="round" stroke-linejoin="round"/>
<path d="M1.73291 2.12909H12.2668" stroke="#FF5858" stroke-width="0.5" stroke-miterlimit="2.6131" stroke-linecap="round" stroke-linejoin="round"/>
<path d="M12.2666 2.12909C12.588 2.12909 12.8486 2.39053 12.8486 2.71111" stroke="#FF5858" stroke-width="0.5" stroke-miterlimit="2.6131" stroke-linecap="round" stroke-linejoin="round"/>
<path d="M8.83545 2.11971V1.20764" stroke="#FF5858" stroke-width="0.5" stroke-miterlimit="2.6131" stroke-linecap="round" stroke-linejoin="round"/>
<path d="M8.8354 1.20763C8.8354 0.872458 8.56324 0.599915 8.22852 0.599915" stroke="#FF5858" stroke-width="0.5" stroke-miterlimit="2.6131" stroke-linecap="round" stroke-linejoin="round"/>
<path d="M8.22865 0.599915H5.77197" stroke="#FF5858" stroke-width="0.5" stroke-miterlimit="2.6131" stroke-linecap="round" stroke-linejoin="round"/>
<path d="M5.77188 0.599915C5.43629 0.599915 5.16455 0.872491 5.16455 1.20763" stroke="#FF5858" stroke-width="0.5" stroke-miterlimit="2.6131" stroke-linecap="round" stroke-linejoin="round"/>
<path d="M5.16455 1.20764V2.11971H8.83543" stroke="#FF5858" stroke-width="0.5" stroke-miterlimit="2.6131" stroke-linecap="round" stroke-linejoin="round"/>
<path d="M4.32227 4.51291V11.9939" stroke="#FF5858" stroke-width="0.5" stroke-miterlimit="2.6131" stroke-linecap="round" stroke-linejoin="round"/>
<path d="M6.10693 4.51291V11.9939" stroke="#FF5858" stroke-width="0.5" stroke-miterlimit="2.6131" stroke-linecap="round" stroke-linejoin="round"/>
<path d="M7.89307 4.51291V11.9939" stroke="#FF5858" stroke-width="0.5" stroke-miterlimit="2.6131" stroke-linecap="round" stroke-linejoin="round"/>
<path d="M9.67725 4.51291V11.9939" stroke="#FF5858" stroke-width="0.5" stroke-miterlimit="2.6131" stroke-linecap="round" stroke-linejoin="round"/>
</svg>
