<svg width="18" height="14" fill="none" xmlns="http://www.w3.org/2000/svg"><path fill-rule="evenodd" clip-rule="evenodd" d="M17.033 1.84a6.641 6.641 0 01-1.945.549A3.477 3.477 0 0016.577.463a6.673 6.673 0 01-2.151.845A3.34 3.34 0 0011.953.21c-1.87 0-3.387 1.559-3.387 3.48 0 .273.03.539.088.793C5.839 4.337 3.342 2.951 1.672.847a3.536 3.536 0 00-.458 1.75c0 1.206.597 2.271 1.506 2.896a3.308 3.308 0 01-1.534-.436V5.1c0 1.686 1.169 3.092 2.717 3.412a3.3 3.3 0 01-1.528.06c.43 1.383 1.682 2.389 3.164 2.417a6.686 6.686 0 01-5.015 1.44 9.403 9.403 0 005.192 1.564c6.23 0 9.637-5.303 9.637-9.9 0-.152-.003-.301-.01-.451a6.976 6.976 0 001.69-1.802" fill="#6188FF"/></svg>